<?xml version="1.0" standalone="no"?><!DOCTYPE svg PUBLIC "-//W3C//DTD SVG 1.1//EN" "http://www.w3.org/Graphics/SVG/1.1/DTD/svg11.dtd" ><svg version="1.1" xmlns="http://www.w3.org/2000/svg"><defs><font horiz-adv-x="0" id="font"><font-face ascent="750" bbox="-138 -271 1368 954" cap-height="700" descent="-250" font-family="Mission Gothic" font-stretch="normal" font-style="normal" font-weight="450" units-per-em="1000" x-height="545" /><missing-glyph horiz-adv-x="500" /><glyph d="M441 0H347Q346 17 345 34.5Q344 52 343 69.5Q342 87 341.5 103Q341 119 339 143H138Q131 128 127.5 121Q124 114 109 82Q94 50 86 33Q78 16 70 0H-30L304 700H403ZM338 232 330 443Q329 463 328.5 482Q328 501 327.5 517.5Q327 534 327 545.5Q327 557 327 564H325Q323 556 318.5 544Q314 532 308.5 517.5Q303 503 296 487Q289 471 282 456L176 232Z" glyph-name="A" horiz-adv-x="492" unicode="A" /><glyph d="M664 0H303L333 143H147Q132 119 121.5 103Q111 87 99.5 69.5Q88 52 76 34.5Q64 17 53 0H-51L423 700H812Q810 691 807 675.5Q804 660 802.5 651.5Q801 643 798.5 632Q796 621 794 611H522L472 377H705L686 289H453L411 88H682Q680 80 677.5 64.5Q675 49 673 40Q671 31 668.5 20.5Q666 10 664 0ZM352 232 390 414Q395 439 401 466Q407 493 412 514.5Q417 536 423 559Q429 582 430 588H428Q407 553 394 531.5Q381 510 368 488.5Q355 467 347 455L202 232Z" glyph-name="AE" horiz-adv-x="762" unicode="&#198;" /><glyph d="M441 0H347Q346 17 345 34.5Q344 52 343 69.5Q342 87 341.5 103Q341 119 339 143H138Q131 128 127.5 121Q124 114 109 82Q94 50 86 33Q78 16 70 0H-30L304 700H403ZM338 232 330 443Q329 463 328.5 482Q328 501 327.5 517.5Q327 534 327 545.5Q327 557 327 564H325Q323 556 318.5 544Q314 532 308.5 517.5Q303 503 296 487Q289 471 282 456L176 232ZM484 828 260 734 232 794 450 900Z" glyph-name="Aacute" horiz-adv-x="492" unicode="&#193;" /><glyph d="M441 0H347Q346 17 345 34.5Q344 52 343 69.5Q342 87 341.5 103Q341 119 339 143H138Q131 128 127.5 121Q124 114 109 82Q94 50 86 33Q78 16 70 0H-30L304 700H403ZM338 232 330 443Q329 463 328.5 482Q328 501 327.5 517.5Q327 534 327 545.5Q327 557 327 564H325Q323 556 318.5 544Q314 532 308.5 517.5Q303 503 296 487Q289 471 282 456L176 232ZM512 804 452 750 411 806Q404 816 399 823Q394 830 389.5 836.5Q385 843 381.5 849Q378 855 375 860H373Q359 846 349.5 836.5Q340 827 329 816.5Q318 806 308 798L250 748L205 810L356 928H407Z" glyph-name="Acircumflex" horiz-adv-x="492" unicode="&#194;" /><glyph d="M441 0H347Q346 17 345 34.5Q344 52 343 69.5Q342 87 341.5 103Q341 119 339 143H138Q131 128 127.5 121Q124 114 109 82Q94 50 86 33Q78 16 70 0H-30L304 700H403ZM338 232 330 443Q329 463 328.5 482Q328 501 327.5 517.5Q327 534 327 545.5Q327 557 327 564H325Q323 556 318.5 544Q314 532 308.5 517.5Q303 503 296 487Q289 471 282 456L176 232ZM338 814Q338 804 334.5 795.5Q331 787 324.5 781Q318 775 309 772Q300 769 290 769Q280 769 271.5 772Q263 775 257 781Q251 787 247.5 795.5Q244 804 244 814Q244 824 247.5 832.5Q251 841 257 847Q263 853 271.5 856.5Q280 860 290 860Q300 860 309 856.5Q318 853 324.5 847Q331 841 334.5 832.5Q338 824 338 814ZM489 814Q489 804 485.5 795.5Q482 787 475.5 781Q469 775 460.5 772Q452 769 442 769Q432 769 423.5 772Q415 775 408.5 781Q402 787 398.5 795.5Q395 804 395 814Q395 824 398.5 832.5Q402 841 408.5 847Q415 853 423.5 856.5Q432 860 442 860Q452 860 460.5 856.5Q469 853 475.5 847Q482 841 485.5 832.5Q489 824 489 814Z" glyph-name="Adieresis" horiz-adv-x="492" unicode="&#196;" /><glyph d="M441 0H347Q346 17 345 34.5Q344 52 343 69.5Q342 87 341.5 103Q341 119 339 143H138Q131 128 127.5 121Q124 114 109 82Q94 50 86 33Q78 16 70 0H-30L304 700H403ZM338 232 330 443Q329 463 328.5 482Q328 501 327.5 517.5Q327 534 327 545.5Q327 557 327 564H325Q323 556 318.5 544Q314 532 308.5 517.5Q303 503 296 487Q289 471 282 456L176 232ZM411 734 187 828 221 900 439 794Z" glyph-name="Agrave" horiz-adv-x="492" unicode="&#192;" /><glyph d="M441 0H347Q346 17 345 34.5Q344 52 343 69.5Q342 87 341.5 103Q341 119 339 143H138Q131 128 127.5 121Q124 114 109 82Q94 50 86 33Q78 16 70 0H-30L304 700H403ZM338 232 330 443Q329 463 328.5 482Q328 501 327.5 517.5Q327 534 327 545.5Q327 557 327 564H325Q323 556 318.5 544Q314 532 308.5 517.5Q303 503 296 487Q289 471 282 456L176 232ZM368 767Q347 767 330 774Q313 781 301.5 792.5Q290 804 284.5 819Q279 834 279 849Q279 869 286 888Q293 907 307 922Q321 937 340.5 945.5Q360 954 385 954Q406 954 423 947Q440 940 451 928.5Q462 917 467.5 902.5Q473 888 473 873Q473 853 465.5 834Q458 815 444.5 799.5Q431 784 411.5 775.5Q392 767 368 767ZM369 823Q379 823 387 827Q395 831 401 837.5Q407 844 410 852Q413 860 413 868Q413 874 411 879.5Q409 885 405.5 889Q402 893 396 895.5Q390 898 383 898Q373 898 365 894Q357 890 351 883.5Q345 877 342 868.5Q339 860 339 852Q339 846 341 840.5Q343 835 346.5 831Q350 827 355.5 825Q361 823 369 823Z" glyph-name="Aring" horiz-adv-x="492" unicode="&#197;" /><glyph d="M441 0H347Q346 17 345 34.5Q344 52 343 69.5Q342 87 341.5 103Q341 119 339 143H138Q131 128 127.5 121Q124 114 109 82Q94 50 86 33Q78 16 70 0H-30L304 700H403ZM338 232 330 443Q329 463 328.5 482Q328 501 327.5 517.5Q327 534 327 545.5Q327 557 327 564H325Q323 556 318.5 544Q314 532 308.5 517.5Q303 503 296 487Q289 471 282 456L176 232ZM476 892 543 890Q541 864 532.5 843Q524 822 509.5 806Q495 790 475.5 781.5Q456 773 432 773Q409 773 390.5 780Q372 787 348 801Q324 815 315.5 819.5Q307 824 295 824Q286 824 279 820Q272 816 267 809.5Q262 803 259 795.5Q256 788 254 779L188 781Q191 809 200 831Q209 853 224 868Q239 883 258 890.5Q277 898 299 898Q321 898 339.5 891Q358 884 381.5 870Q405 856 414 851Q423 846 435 846Q444 846 451 850Q458 854 463 860.5Q468 867 471 875Q474 883 476 892Z" glyph-name="Atilde" horiz-adv-x="492" unicode="&#195;" /><glyph d="M241 0H40L188 700H357Q402 700 436.5 689Q471 678 494 657.5Q517 637 528.5 608Q540 579 540 543Q540 510 530 480.5Q520 451 501 428Q482 405 457 388.5Q432 372 403 363V361Q425 353 443 340.5Q461 328 474.5 310.5Q488 293 495.5 271Q503 249 503 223Q503 174 484.5 132.5Q466 91 431.5 61.5Q397 32 348.5 16Q300 0 241 0ZM151 88H253Q291 88 320.5 97Q350 106 370 123Q390 140 400 165Q410 190 410 223Q410 246 403.5 264.5Q397 283 383.5 296Q370 309 349.5 316Q329 323 302 323H201ZM218 405H289Q328 405 357.5 413.5Q387 422 406.5 438Q426 454 436 477.5Q446 501 446 530Q446 551 439.5 566Q433 581 419.5 591.5Q406 602 385 607Q364 612 336 612H263Z" glyph-name="B" horiz-adv-x="546" unicode="B" /><glyph d="M394 193 468 139Q450 105 427 77.5Q404 50 377 30.5Q350 11 317 0.5Q284 -10 247 -10Q199 -10 163 7Q127 24 104.5 55Q82 86 71.5 127.5Q61 169 61 218Q61 293 77 377.5Q93 462 128.5 538Q164 614 222.5 662Q281 710 361 710Q402 710 434 697.5Q466 685 488.5 661.5Q511 638 524.5 607Q538 576 543 537L455 497Q453 526 446.5 548.5Q440 571 427.5 587.5Q415 604 397 613Q379 622 354 622Q304 622 265.5 582Q227 542 202 479Q177 416 165 348.5Q153 281 153 226Q153 193 158.5 166Q164 139 176.5 119Q189 99 208.5 88.5Q228 78 255 78Q277 78 297 86Q317 94 334.5 109Q352 124 366.5 145.5Q381 167 394 193Z" glyph-name="C" horiz-adv-x="503" unicode="C" /><glyph glyph-name="CR" horiz-adv-x="260" unicode="" /><glyph d="M97 -216 148 -177Q152 -184 157.5 -190Q163 -196 170 -200Q177 -204 186 -206Q195 -208 205 -208Q217 -208 227.5 -204Q238 -200 246 -192.5Q254 -185 258.5 -175Q263 -165 263 -153Q263 -145 260.5 -138Q258 -131 252.5 -125.5Q247 -120 239 -117Q231 -114 221 -114Q213 -114 205 -115.5Q197 -117 190.5 -120Q184 -123 178 -127.5Q172 -132 167 -137L119 -110L168 4Q140 16 119.5 37Q99 58 86 86Q73 114 67 147Q61 180 61 218Q61 293 77 377.5Q93 462 128.5 538Q164 614 222.5 662Q281 710 361 710Q402 710 434 697.5Q466 685 488.5 661.5Q511 638 524.5 607Q538 576 543 537L455 497Q453 526 446.5 548.5Q440 571 427.5 587.5Q415 604 397 613Q379 622 354 622Q304 622 265.5 582Q227 542 202 479Q177 416 165 348.5Q153 281 153 226Q153 193 158.5 166Q164 139 176.5 119Q189 99 208.5 88.5Q228 78 255 78Q277 78 297 86Q317 94 334.5 109Q352 124 366.5 145.5Q381 167 394 193L468 139Q450 105 427 77.5Q404 50 377 30.5Q350 11 317 0.5Q284 -10 247 -10Q243 -10 239.5 -10Q236 -10 233 -9.5Q230 -9 227 -8.5Q224 -8 220 -8L192 -69L194 -70Q199 -68 203.5 -66Q208 -64 213 -63Q218 -62 223 -61.5Q228 -61 234 -61Q254 -61 271 -67.5Q288 -74 301.5 -85.5Q315 -97 322 -113.5Q329 -130 329 -149Q329 -176 319.5 -198.5Q310 -221 292.5 -237.5Q275 -254 251.5 -262.5Q228 -271 200 -271Q184 -271 168.5 -267Q153 -263 139.5 -256Q126 -249 115 -239Q104 -229 97 -216Z" glyph-name="Ccedilla" horiz-adv-x="503" unicode="&#199;" /><glyph d="M207 0H32L180 700H330Q385 700 426 680Q467 660 492.5 625Q518 590 530.5 545Q543 500 543 448Q543 432 542 415.5Q541 399 539 381.5Q537 364 534 347Q531 330 527 313Q512 244 484.5 187Q457 130 417.5 88Q378 46 325 23Q272 0 207 0ZM142 88H218Q265 88 307 114.5Q349 141 381.5 189Q414 237 432 302.5Q450 368 450 442Q450 479 442.5 510Q435 541 419.5 563.5Q404 586 380.5 598.5Q357 611 326 611H253Z" glyph-name="D" horiz-adv-x="539" unicode="D" /><glyph d="M404 0H40L188 700H552L534 611H263L214 377H445L426 289H195L152 88H422Z" glyph-name="E" horiz-adv-x="501" unicode="E" /><glyph d="M404 0H40L188 700H552L534 611H263L214 377H445L426 289H195L152 88H422ZM508 828 284 734 256 794 474 900Z" glyph-name="Eacute" horiz-adv-x="501" unicode="&#201;" /><glyph d="M404 0H40L188 700H552L534 611H263L214 377H445L426 289H195L152 88H422ZM540 804 480 750 439 806Q432 816 427 823Q422 830 417.5 836.5Q413 843 409.5 849Q406 855 403 860H401Q387 846 377.5 836.5Q368 827 357 816.5Q346 806 336 798L278 748L233 810L384 928H435Z" glyph-name="Ecircumflex" horiz-adv-x="501" unicode="&#202;" /><glyph d="M404 0H40L188 700H552L534 611H263L214 377H445L426 289H195L152 88H422ZM352 814Q352 804 348.5 795.5Q345 787 338.5 781Q332 775 323 772Q314 769 304 769Q294 769 285.5 772Q277 775 271 781Q265 787 261.5 795.5Q258 804 258 814Q258 824 261.5 832.5Q265 841 271 847Q277 853 285.5 856.5Q294 860 304 860Q314 860 323 856.5Q332 853 338.5 847Q345 841 348.5 832.5Q352 824 352 814ZM503 814Q503 804 499.5 795.5Q496 787 489.5 781Q483 775 474.5 772Q466 769 456 769Q446 769 437.5 772Q429 775 422.5 781Q416 787 412.5 795.5Q409 804 409 814Q409 824 412.5 832.5Q416 841 422.5 847Q429 853 437.5 856.5Q446 860 456 860Q466 860 474.5 856.5Q483 853 489.5 847Q496 841 499.5 832.5Q503 824 503 814Z" glyph-name="Edieresis" horiz-adv-x="501" unicode="&#203;" /><glyph d="M404 0H40L188 700H552L534 611H263L214 377H445L426 289H195L152 88H422ZM476 734 252 828 286 900 504 794Z" glyph-name="Egrave" horiz-adv-x="501" unicode="&#200;" /><glyph d="M207 0H32L97 314H40L56 387H113L180 700H330Q384 700 425 680.5Q466 661 492 627Q518 593 531 548Q544 503 544 451Q544 361 521.5 279.5Q499 198 455.5 135Q412 72 349 36Q286 0 207 0ZM142 88H218Q264 88 306 113.5Q348 139 380.5 186Q413 233 431 297.5Q449 362 449 436Q449 474 442 505.5Q435 537 420 561Q405 585 381.5 598Q358 611 326 611H253L205 387H313L297 314H190Z" glyph-name="Eth" horiz-adv-x="540" unicode="&#208;" /><glyph d="M406 193 481 140Q463 105 442 78Q421 51 395 31Q369 11 338 0.5Q307 -10 270 -10Q222 -10 187 7.5Q152 25 131 56Q110 87 100 127.5Q90 168 90 215Q90 225 90 234Q90 243 90.5 253Q91 263 92 273Q93 283 94 293H35L43 327H98L107 373H52L60 407H114Q130 472 153.5 526Q177 580 210 621.5Q243 663 287 686.5Q331 710 386 710Q427 710 458 697Q489 684 509.5 660Q530 636 542 605Q554 574 558 536L470 497Q469 524 464 546.5Q459 569 448.5 585.5Q438 602 421 611.5Q404 621 380 621Q349 621 323 605.5Q297 590 276 561Q255 532 238.5 493.5Q222 455 209 407H384L376 373H201L192 327H366L359 293H187Q186 284 185 275Q184 266 183.5 257.5Q183 249 182.5 240Q182 231 182 223Q182 192 186.5 166Q191 140 201.5 120Q212 100 230.5 89Q249 78 276 78Q297 78 316 86Q335 94 351 109Q367 124 380.5 145Q394 166 406 193Z" glyph-name="Euro" horiz-adv-x="517" unicode="&#8364;" /><glyph d="M344 157 405 97Q387 70 369.5 51Q352 32 331 18Q310 4 285 -3Q260 -10 229 -10Q187 -10 153.5 4.5Q120 19 97.5 46Q75 73 63 111Q51 149 51 196V213H-5L3 247H53Q54 255 54.5 260Q55 265 56 270.5Q57 276 58 281.5Q59 287 60 293H12L20 327H68Q80 374 100.5 414.5Q121 455 150.5 487Q180 519 219 537Q258 555 305 555Q337 555 363 546Q389 537 409 520.5Q429 504 443 481.5Q457 459 465 432L385 380Q383 401 376 417Q369 433 358 444.5Q347 456 332 462Q317 468 298 468Q274 468 253 457Q232 446 215 426.5Q198 407 184.5 381.5Q171 356 162 327H282L274 293H153Q152 286 151 280.5Q150 275 149 269.5Q148 264 147 258Q146 252 146 247H264L257 213H144V209Q144 175 150 150Q156 125 168 108.5Q180 92 197 84Q214 76 237 76Q253 76 267.5 81.5Q282 87 295 97.5Q308 108 320 123Q332 138 344 157Z" glyph-name="Euro.osf" horiz-adv-x="454" /><glyph d="M414 252H187L134 0H40L188 700H548L530 611H263L206 340H433Z" glyph-name="F" horiz-adv-x="470" unicode="F" /><glyph d="M423 276H306L325 365H531Q520 288 500 222Q480 156 447.5 103.5Q415 51 367 20.5Q319 -10 255 -10Q206 -10 169 7.5Q132 25 108 56.5Q84 88 72.5 130Q61 172 61 222Q61 308 79.5 394.5Q98 481 135 552.5Q172 624 229.5 667Q287 710 361 710Q402 710 433.5 697.5Q465 685 487.5 662.5Q510 640 523.5 609Q537 578 543 540L454 498Q452 526 445 548.5Q438 571 425.5 587Q413 603 394.5 612Q376 621 352 621Q309 621 272 586.5Q235 552 208.5 494.5Q182 437 167.5 369Q153 301 153 237Q153 201 158.5 172.5Q164 144 176.5 122.5Q189 101 209 89.5Q229 78 257 78Q288 78 314 92.5Q340 107 360.5 133.5Q381 160 396 196Q411 232 423 276Z" glyph-name="G" horiz-adv-x="546" unicode="G" /><glyph d="M459 0H365L424 279H193L135 0H40L188 700H283L212 367H443L513 700H607Z" glyph-name="H" horiz-adv-x="579" unicode="H" /><glyph d="M143 0H48L196 700H291Z" glyph-name="I" horiz-adv-x="269" unicode="I" /><glyph d="M143 0H48L196 700H291ZM383 828 159 734 131 794 349 900Z" glyph-name="Iacute" horiz-adv-x="269" unicode="&#205;" /><glyph d="M143 0H48L196 700H291ZM415 804 355 750 314 806Q307 816 302 823Q297 830 292.5 836.5Q288 843 284.5 849Q281 855 278 860H276Q262 846 252.5 836.5Q243 827 232 816.5Q221 806 211 798L153 748L108 810L259 928H310Z" glyph-name="Icircumflex" horiz-adv-x="269" unicode="&#206;" /><glyph d="M143 0H48L196 700H291ZM233 814Q233 804 229.5 795.5Q226 787 219.5 781Q213 775 204 772Q195 769 185 769Q175 769 166.5 772Q158 775 152 781Q146 787 142.5 795.5Q139 804 139 814Q139 824 142.5 832.5Q146 841 152 847Q158 853 166.5 856.5Q175 860 185 860Q195 860 204 856.5Q213 853 219.5 847Q226 841 229.5 832.5Q233 824 233 814ZM384 814Q384 804 380.5 795.5Q377 787 370.5 781Q364 775 355.5 772Q347 769 337 769Q327 769 318.5 772Q310 775 303.5 781Q297 787 293.5 795.5Q290 804 290 814Q290 824 293.5 832.5Q297 841 303.5 847Q310 853 318.5 856.5Q327 860 337 860Q347 860 355.5 856.5Q364 853 370.5 847Q377 841 380.5 832.5Q384 824 384 814Z" glyph-name="Idieresis" horiz-adv-x="269" unicode="&#207;" /><glyph d="M143 0H48L196 700H291ZM364 734 140 828 174 900 392 794Z" glyph-name="Igrave" horiz-adv-x="269" unicode="&#204;" /><glyph d="M214 228 314 700H408L304 213Q291 154 271 112Q251 70 223.5 43Q196 16 160.5 3Q125 -10 81 -10Q64 -10 49.5 -7.5Q35 -5 23.5 -1.5Q12 2 -8 10L29 90Q34 87 40 85.5Q46 84 52.5 82.5Q59 81 66 80.5Q73 80 81 80Q107 80 127.5 89Q148 98 164.5 116Q181 134 193.5 162Q206 190 214 228Z" glyph-name="J" horiz-adv-x="382" unicode="J" /><glyph d="M450 0H349L264 318H262Q250 303 240 290Q230 277 214.5 258.5Q199 240 179 217L133 0H38L186 700H281L231 465Q228 449 224 432.5Q220 416 217 402Q214 388 211.5 379.5Q209 371 209 371H211Q218 379 226.5 389Q235 399 244 410Q253 421 258.5 428Q264 435 286 462L480 700H592L341 401Z" glyph-name="K" horiz-adv-x="505" unicode="K" /><glyph d="M359 0H40L188 700H283L153 88H377Z" glyph-name="L" horiz-adv-x="410" unicode="L" /><glyph d="M362 0H43L99 267L27 238L20 273L108 308L191 700H286L211 349L345 402L351 367L202 308L156 88H380Z" glyph-name="Lslash" horiz-adv-x="406" unicode="&#321;" /><glyph d="M565 0H470L563 440Q567 458 571 476Q575 494 579 508.5Q583 523 588 542H586Q573 524 564 511Q555 498 543.5 482Q532 466 520 451L358 238H350L282 447Q277 464 271.5 480.5Q266 497 262.5 510.5Q259 524 254 542H252Q249 523 246.5 509.5Q244 496 240.5 479Q237 462 233 444L140 0H45L193 700H290L357 486Q361 474 365 459Q369 444 373 430.5Q377 417 382 397H384Q397 415 405.5 427Q414 439 424.5 452.5Q435 466 444 478L612 700H713Z" glyph-name="M" horiz-adv-x="689" unicode="M" /><glyph d="M470 0H391L285 345Q278 367 270 394Q262 421 255 445.5Q248 470 243 487.5Q238 505 238 507H236Q236 507 234.5 497Q233 487 230.5 470.5Q228 454 224.5 434.5Q221 415 217 398L133 0H40L188 700H268L373 359Q382 330 390.5 302.5Q399 275 406 251.5Q413 228 417 213.5Q421 199 421 198H423Q427 224 430 241.5Q433 259 436.5 278.5Q440 298 443 314L525 700H618Z" glyph-name="N" horiz-adv-x="606" unicode="N" /><glyph glyph-name="NUL" horiz-adv-x="1000" /><glyph d="M470 0H391L285 345Q278 367 270 394Q262 421 255 445.5Q248 470 243 487.5Q238 505 238 507H236Q236 507 234.5 497Q233 487 230.5 470.5Q228 454 224.5 434.5Q221 415 217 398L133 0H40L188 700H268L373 359Q382 330 390.5 302.5Q399 275 406 251.5Q413 228 417 213.5Q421 199 421 198H423Q427 224 430 241.5Q433 259 436.5 278.5Q440 298 443 314L525 700H618ZM533 892 600 890Q598 864 589.5 843Q581 822 566.5 806Q552 790 532.5 781.5Q513 773 489 773Q466 773 447.5 780Q429 787 405 801Q381 815 372.5 819.5Q364 824 352 824Q343 824 336 820Q329 816 324 809.5Q319 803 316 795.5Q313 788 311 779L245 781Q248 809 257 831Q266 853 281 868Q296 883 315 890.5Q334 898 356 898Q378 898 396.5 891Q415 884 438.5 870Q462 856 471 851Q480 846 492 846Q501 846 508 850Q515 854 520 860.5Q525 867 528 875Q531 883 533 892Z" glyph-name="Ntilde" horiz-adv-x="606" unicode="&#209;" /><glyph d="M247 -10Q198 -10 162.5 7Q127 24 104 55Q81 86 70.5 127.5Q60 169 60 218Q60 305 78 391.5Q96 478 133.5 550.5Q171 623 228.5 666.5Q286 710 361 710Q409 710 445 692.5Q481 675 503.5 644Q526 613 536.5 571.5Q547 530 547 481Q547 394 529 307.5Q511 221 474 148.5Q437 76 379.5 33Q322 -10 247 -10ZM255 78Q298 78 335 112.5Q372 147 399 205Q426 263 440.5 332Q455 401 455 469Q455 503 449.5 530.5Q444 558 432.5 578.5Q421 599 401 610Q381 621 353 621Q309 621 272 586.5Q235 552 208.5 494Q182 436 167.5 366.5Q153 297 153 230Q153 196 158.5 168.5Q164 141 175.5 120.5Q187 100 207 89Q227 78 255 78Z" glyph-name="O" horiz-adv-x="546" unicode="O" /><glyph d="M635 0H238Q195 0 161.5 15Q128 30 105 57.5Q82 85 70.5 124Q59 163 59 210Q59 301 78.5 388.5Q98 476 136 546.5Q174 617 231 658.5Q288 700 359 700H783L765 611H493L443 377H676L657 289H424L382 88H654ZM289 88 401 611H348Q303 611 266.5 572.5Q230 534 205.5 473Q181 412 168 343.5Q155 275 155 216Q155 190 159 167.5Q163 145 173 127Q183 109 200.5 98.5Q218 88 244 88Z" glyph-name="OE" horiz-adv-x="723" unicode="&#338;" /><glyph d="M247 -10Q198 -10 162.5 7Q127 24 104 55Q81 86 70.5 127.5Q60 169 60 218Q60 305 78 391.5Q96 478 133.5 550.5Q171 623 228.5 666.5Q286 710 361 710Q409 710 445 692.5Q481 675 503.5 644Q526 613 536.5 571.5Q547 530 547 481Q547 394 529 307.5Q511 221 474 148.5Q437 76 379.5 33Q322 -10 247 -10ZM255 78Q298 78 335 112.5Q372 147 399 205Q426 263 440.5 332Q455 401 455 469Q455 503 449.5 530.5Q444 558 432.5 578.5Q421 599 401 610Q381 621 353 621Q309 621 272 586.5Q235 552 208.5 494Q182 436 167.5 366.5Q153 297 153 230Q153 196 158.5 168.5Q164 141 175.5 120.5Q187 100 207 89Q227 78 255 78ZM522 828 298 734 270 794 488 900Z" glyph-name="Oacute" horiz-adv-x="546" unicode="&#211;" /><glyph d="M247 -10Q198 -10 162.5 7Q127 24 104 55Q81 86 70.5 127.5Q60 169 60 218Q60 305 78 391.5Q96 478 133.5 550.5Q171 623 228.5 666.5Q286 710 361 710Q409 710 445 692.5Q481 675 503.5 644Q526 613 536.5 571.5Q547 530 547 481Q547 394 529 307.5Q511 221 474 148.5Q437 76 379.5 33Q322 -10 247 -10ZM255 78Q298 78 335 112.5Q372 147 399 205Q426 263 440.5 332Q455 401 455 469Q455 503 449.5 530.5Q444 558 432.5 578.5Q421 599 401 610Q381 621 353 621Q309 621 272 586.5Q235 552 208.5 494Q182 436 167.5 366.5Q153 297 153 230Q153 196 158.5 168.5Q164 141 175.5 120.5Q187 100 207 89Q227 78 255 78ZM544 804 484 750 443 806Q436 816 431 823Q426 830 421.5 836.5Q417 843 413.5 849Q410 855 407 860H405Q391 846 381.5 836.5Q372 827 361 816.5Q350 806 340 798L282 748L237 810L388 928H439Z" glyph-name="Ocircumflex" horiz-adv-x="546" unicode="&#212;" /><glyph d="M247 -10Q198 -10 162.5 7Q127 24 104 55Q81 86 70.5 127.5Q60 169 60 218Q60 305 78 391.5Q96 478 133.5 550.5Q171 623 228.5 666.5Q286 710 361 710Q409 710 445 692.5Q481 675 503.5 644Q526 613 536.5 571.5Q547 530 547 481Q547 394 529 307.5Q511 221 474 148.5Q437 76 379.5 33Q322 -10 247 -10ZM255 78Q298 78 335 112.5Q372 147 399 205Q426 263 440.5 332Q455 401 455 469Q455 503 449.5 530.5Q444 558 432.5 578.5Q421 599 401 610Q381 621 353 621Q309 621 272 586.5Q235 552 208.5 494Q182 436 167.5 366.5Q153 297 153 230Q153 196 158.5 168.5Q164 141 175.5 120.5Q187 100 207 89Q227 78 255 78ZM366 814Q366 804 362.5 795.5Q359 787 352.5 781Q346 775 337 772Q328 769 318 769Q308 769 299.5 772Q291 775 285 781Q279 787 275.5 795.5Q272 804 272 814Q272 824 275.5 832.5Q279 841 285 847Q291 853 299.5 856.5Q308 860 318 860Q328 860 337 856.5Q346 853 352.5 847Q359 841 362.5 832.5Q366 824 366 814ZM517 814Q517 804 513.5 795.5Q510 787 503.5 781Q497 775 488.5 772Q480 769 470 769Q460 769 451.5 772Q443 775 436.5 781Q430 787 426.5 795.5Q423 804 423 814Q423 824 426.5 832.5Q430 841 436.5 847Q443 853 451.5 856.5Q460 860 470 860Q480 860 488.5 856.5Q497 853 503.5 847Q510 841 513.5 832.5Q517 824 517 814Z" glyph-name="Odieresis" horiz-adv-x="546" unicode="&#214;" /><glyph d="M247 -10Q198 -10 162.5 7Q127 24 104 55Q81 86 70.5 127.5Q60 169 60 218Q60 305 78 391.5Q96 478 133.5 550.5Q171 623 228.5 666.5Q286 710 361 710Q409 710 445 692.5Q481 675 503.5 644Q526 613 536.5 571.5Q547 530 547 481Q547 394 529 307.5Q511 221 474 148.5Q437 76 379.5 33Q322 -10 247 -10ZM255 78Q298 78 335 112.5Q372 147 399 205Q426 263 440.5 332Q455 401 455 469Q455 503 449.5 530.5Q444 558 432.5 578.5Q421 599 401 610Q381 621 353 621Q309 621 272 586.5Q235 552 208.5 494Q182 436 167.5 366.5Q153 297 153 230Q153 196 158.5 168.5Q164 141 175.5 120.5Q187 100 207 89Q227 78 255 78ZM493 734 269 828 303 900 521 794Z" glyph-name="Ograve" horiz-adv-x="546" unicode="&#210;" /><glyph d="M247 -10Q198 -10 162.5 7Q127 24 104 55Q81 86 70.5 127.5Q60 169 60 218Q60 305 78 391.5Q96 478 133.5 550.5Q171 623 228.5 666.5Q286 710 361 710Q409 710 445 692.5Q481 675 503.5 644Q526 613 536.5 571.5Q547 530 547 481Q547 394 529 307.5Q511 221 474 148.5Q437 76 379.5 33Q322 -10 247 -10ZM445 550 179 114Q185 105 192.5 98.5Q200 92 209.5 87.5Q219 83 230.5 80.5Q242 78 255 78Q298 78 335 112.5Q372 147 399 205Q426 263 440.5 332Q455 401 455 469Q455 480 454.5 491Q454 502 452.5 512Q451 522 449.5 531.5Q448 541 445 550ZM162 151 428 586Q422 594 414.5 600.5Q407 607 397.5 611.5Q388 616 377 618.5Q366 621 353 621Q309 621 272 586.5Q235 552 208.5 494Q182 436 167.5 366.5Q153 297 153 230Q153 219 153.5 208.5Q154 198 155 188Q156 178 158 169Q160 160 162 151Z" glyph-name="Oslash" horiz-adv-x="546" unicode="&#216;" /><glyph d="M247 -10Q198 -10 162.5 7Q127 24 104 55Q81 86 70.5 127.5Q60 169 60 218Q60 305 78 391.5Q96 478 133.5 550.5Q171 623 228.5 666.5Q286 710 361 710Q409 710 445 692.5Q481 675 503.5 644Q526 613 536.5 571.5Q547 530 547 481Q547 394 529 307.5Q511 221 474 148.5Q437 76 379.5 33Q322 -10 247 -10ZM255 78Q298 78 335 112.5Q372 147 399 205Q426 263 440.5 332Q455 401 455 469Q455 503 449.5 530.5Q444 558 432.5 578.5Q421 599 401 610Q381 621 353 621Q309 621 272 586.5Q235 552 208.5 494Q182 436 167.5 366.5Q153 297 153 230Q153 196 158.5 168.5Q164 141 175.5 120.5Q187 100 207 89Q227 78 255 78ZM506 892 573 890Q571 864 562.5 843Q554 822 539.5 806Q525 790 505.5 781.5Q486 773 462 773Q439 773 420.5 780Q402 787 378 801Q354 815 345.5 819.5Q337 824 325 824Q316 824 309 820Q302 816 297 809.5Q292 803 289 795.5Q286 788 284 779L218 781Q221 809 230 831Q239 853 254 868Q269 883 288 890.5Q307 898 329 898Q351 898 369.5 891Q388 884 411.5 870Q435 856 444 851Q453 846 465 846Q474 846 481 850Q488 854 493 860.5Q498 867 501 875Q504 883 506 892Z" glyph-name="Otilde" horiz-adv-x="546" unicode="&#213;" /><glyph d="M133 0H39L188 700H351Q397 700 432.5 685Q468 670 492 643.5Q516 617 528 581.5Q540 546 540 504Q540 446 522.5 391Q505 336 469.5 291.5Q434 247 380 221Q326 195 256 195H174ZM193 284H266Q305 284 338.5 301Q372 318 396.5 347.5Q421 377 434.5 416Q448 455 448 498Q448 525 441 546Q434 567 420 581.5Q406 596 384.5 604Q363 612 335 612H263Z" glyph-name="P" horiz-adv-x="506" unicode="P" /><glyph d="M441 -55 400 -99Q385 -85 373.5 -72Q362 -59 352.5 -46Q343 -33 336 -20Q329 -7 323 6Q313 2 303 -0.5Q293 -3 282.5 -5.5Q272 -8 261 -9Q250 -10 239 -10Q190 -10 154 7.5Q118 25 95.5 56.5Q73 88 62.5 130Q52 172 52 222Q52 308 70.5 394.5Q89 481 126.5 552.5Q164 624 221 667Q278 710 352 710Q401 710 437 692.5Q473 675 495.5 643.5Q518 612 528.5 569.5Q539 527 539 477Q539 416 528.5 351Q518 286 497 225Q476 164 445.5 114.5Q415 65 376 35Q382 23 388 12Q394 1 401.5 -10Q409 -21 419 -32.5Q429 -44 441 -55ZM245 187 290 221Q299 209 306 197Q313 185 319 174Q325 163 332.5 146.5Q340 130 342 126Q365 151 384 191Q403 231 416.5 278.5Q430 326 437.5 374.5Q445 423 445 466Q445 501 440 529Q435 557 423.5 578Q412 599 392.5 610Q373 621 345 621Q301 621 264 587Q227 553 200.5 496Q174 439 159.5 370Q145 301 145 233Q145 198 150 170Q155 142 167 121Q179 100 198.5 89Q218 78 246 78Q253 78 259 78.5Q265 79 271.5 80.5Q278 82 283.5 84Q289 86 295 89Q291 101 286 113Q281 125 275 137Q269 149 261.5 161.5Q254 174 245 187Z" glyph-name="Q" horiz-adv-x="546" unicode="Q" /><glyph d="M449 0H354L296 222Q290 221 283.5 220.5Q277 220 270 219.5Q263 219 256 219Q249 219 242 219H179L133 0H39L187 700H350Q396 700 432 686Q468 672 492.5 646Q517 620 529.5 586Q542 552 542 512Q542 472 532 432Q522 392 502 355.5Q482 319 452 290Q422 261 383 244ZM198 308H267Q306 308 339 321Q372 334 396.5 359.5Q421 385 434.5 421Q448 457 448 502Q448 527 441 547Q434 567 420 581.5Q406 596 384.5 604Q363 612 334 612H262Z" glyph-name="R" horiz-adv-x="537" unicode="R" /><glyph d="M521 569 435 523Q431 544 421 562.5Q411 581 395.5 594Q380 607 360.5 614.5Q341 622 318 622Q297 622 278.5 615Q260 608 245.5 595Q231 582 222.5 563.5Q214 545 214 522Q214 480 241.5 454.5Q269 429 332.5 387.5Q396 346 428.5 306Q461 266 461 204Q461 154 443.5 113.5Q426 73 394.5 45.5Q363 18 322.5 4Q282 -10 236 -10Q198 -10 164 0Q130 10 102 28Q74 46 54.5 71Q35 96 26 126L106 173Q113 153 127 135.5Q141 118 159.5 105Q178 92 199.5 85Q221 78 244 78Q269 78 291.5 86Q314 94 331 109Q348 124 357.5 145.5Q367 167 367 194Q367 236 339 263Q311 290 248 333Q185 376 152.5 415.5Q120 455 120 516Q120 557 135 593Q150 629 178 655Q206 681 243.5 695.5Q281 710 325 710Q364 710 397 699.5Q430 689 455 670Q480 651 496.5 625Q513 599 521 569Z" glyph-name="S" horiz-adv-x="495" unicode="S" /><glyph d="M521 569 435 523Q431 544 421 562.5Q411 581 395.5 594Q380 607 360.5 614.5Q341 622 318 622Q297 622 278.5 615Q260 608 245.5 595Q231 582 222.5 563.5Q214 545 214 522Q214 480 241.5 454.5Q269 429 332.5 387.5Q396 346 428.5 306Q461 266 461 204Q461 154 443.5 113.5Q426 73 394.5 45.5Q363 18 322.5 4Q282 -10 236 -10Q198 -10 164 0Q130 10 102 28Q74 46 54.5 71Q35 96 26 126L106 173Q113 153 127 135.5Q141 118 159.5 105Q178 92 199.5 85Q221 78 244 78Q269 78 291.5 86Q314 94 331 109Q348 124 357.5 145.5Q367 167 367 194Q367 236 339 263Q311 290 248 333Q185 376 152.5 415.5Q120 455 120 516Q120 557 135 593Q150 629 178 655Q206 681 243.5 695.5Q281 710 325 710Q364 710 397 699.5Q430 689 455 670Q480 651 496.5 625Q513 599 521 569ZM232 882 292 936 333 880Q340 870 345 863Q350 856 354.5 849.5Q359 843 362.5 837Q366 831 369 826H371Q385 840 394.5 849.5Q404 859 415 869.5Q426 880 436 888L494 938L539 876L388 758H337Z" glyph-name="Scaron" horiz-adv-x="495" unicode="&#352;" /><glyph d="M223 0H127L257 612H114L133 700H514L495 612H352Z" glyph-name="T" horiz-adv-x="432" unicode="T" /><glyph d="M133 0H40L189 700H281L262 610H324Q368 610 402 595Q436 580 458.5 553.5Q481 527 492.5 492Q504 457 504 416Q504 358 487 302.5Q470 247 436 202.5Q402 158 349.5 131.5Q297 105 229 105H155ZM173 193H238Q276 193 308.5 210.5Q341 228 364 258.5Q387 289 399.5 328.5Q412 368 412 411Q412 436 406 456.5Q400 477 387 491.5Q374 506 354.5 514Q335 522 308 522H243Z" glyph-name="Thorn" horiz-adv-x="502" unicode="&#222;" /><glyph d="M403 228 503 700H598L497 222Q484 160 463 116Q442 72 413 44Q384 16 347.5 3Q311 -10 267 -10Q228 -10 193.5 2Q159 14 133.5 37Q108 60 93.5 94Q79 128 79 171Q79 179 79.5 186.5Q80 194 80.5 202Q81 210 82.5 218Q84 226 86 234L185 700H280L180 227Q178 220 177 213.5Q176 207 175.5 201Q175 195 174.5 189.5Q174 184 174 178Q174 154 181 135Q188 116 200.5 103.5Q213 91 231 84.5Q249 78 272 78Q300 78 321 87.5Q342 97 357.5 115.5Q373 134 384 162Q395 190 403 228Z" glyph-name="U" horiz-adv-x="567" unicode="U" /><glyph d="M807 200Q772 200 744.5 212Q717 224 698.5 245.5Q680 267 670.5 297Q661 327 661 363Q661 409 674.5 458Q688 507 714.5 548.5Q741 590 780.5 615Q820 640 870 640Q904 640 930.5 628.5Q957 617 975 595Q993 573 1002 543.5Q1011 514 1011 478Q1011 432 998.5 383Q986 334 960 292.5Q934 251 895.5 225.5Q857 200 807 200ZM474 0H386L294 417Q291 430 288.5 442.5Q286 455 284 465Q282 475 280 488H278Q276 474 274.5 464Q273 454 270.5 442Q268 430 266 418L211 161Q203 123 190 92Q177 61 158.5 38Q140 15 114 2.5Q88 -10 55 -10Q40 -10 28 -8.5Q16 -7 4.5 -3.5Q-7 0 -17 5.5Q-27 11 -38 18L8 94Q12 91 16.5 88Q21 85 26.5 83Q32 81 38 80Q44 79 51 79Q69 79 81 85Q93 91 101.5 102.5Q110 114 116 131Q122 148 127 173L238 700H328L419 286Q422 274 424.5 261Q427 248 429 237.5Q431 227 433 212H435Q437 227 439 237.5Q441 248 443.5 260.5Q446 273 448 285L511 583Q519 622 531.5 653Q544 684 563 707Q582 730 608 742.5Q634 755 667 755Q681 755 694 753Q707 751 718 747Q729 743 739.5 738Q750 733 761 726L714 650Q711 654 706 657.5Q701 661 695 663.5Q689 666 683 667.5Q677 669 670 669Q653 669 641 662.5Q629 656 620.5 644Q612 632 606 614Q600 596 595 571ZM812 283Q836 283 856.5 299.5Q877 316 892.5 343.5Q908 371 916.5 404.5Q925 438 925 471Q925 490 921 506Q917 522 909 533Q901 544 888.5 550Q876 556 860 556Q837 556 816 539.5Q795 523 780 495Q765 467 756.5 433.5Q748 400 748 367Q748 348 752 332.5Q756 317 764 306Q772 295 784 289Q796 283 812 283ZM921 63H593L607 124H935Z" glyph-name="UNI2116" horiz-adv-x="994" unicode="&#8470;" /><glyph d="M403 228 503 700H598L497 222Q484 160 463 116Q442 72 413 44Q384 16 347.5 3Q311 -10 267 -10Q228 -10 193.5 2Q159 14 133.5 37Q108 60 93.5 94Q79 128 79 171Q79 179 79.5 186.5Q80 194 80.5 202Q81 210 82.5 218Q84 226 86 234L185 700H280L180 227Q178 220 177 213.5Q176 207 175.5 201Q175 195 174.5 189.5Q174 184 174 178Q174 154 181 135Q188 116 200.5 103.5Q213 91 231 84.5Q249 78 272 78Q300 78 321 87.5Q342 97 357.5 115.5Q373 134 384 162Q395 190 403 228ZM527 828 303 734 275 794 493 900Z" glyph-name="Uacute" horiz-adv-x="567" unicode="&#218;" /><glyph d="M403 228 503 700H598L497 222Q484 160 463 116Q442 72 413 44Q384 16 347.5 3Q311 -10 267 -10Q228 -10 193.5 2Q159 14 133.5 37Q108 60 93.5 94Q79 128 79 171Q79 179 79.5 186.5Q80 194 80.5 202Q81 210 82.5 218Q84 226 86 234L185 700H280L180 227Q178 220 177 213.5Q176 207 175.5 201Q175 195 174.5 189.5Q174 184 174 178Q174 154 181 135Q188 116 200.5 103.5Q213 91 231 84.5Q249 78 272 78Q300 78 321 87.5Q342 97 357.5 115.5Q373 134 384 162Q395 190 403 228ZM570 804 510 750 469 806Q462 816 457 823Q452 830 447.5 836.5Q443 843 439.5 849Q436 855 433 860H431Q417 846 407.5 836.5Q398 827 387 816.5Q376 806 366 798L308 748L263 810L414 928H465Z" glyph-name="Ucircumflex" horiz-adv-x="567" unicode="&#219;" /><glyph d="M403 228 503 700H598L497 222Q484 160 463 116Q442 72 413 44Q384 16 347.5 3Q311 -10 267 -10Q228 -10 193.5 2Q159 14 133.5 37Q108 60 93.5 94Q79 128 79 171Q79 179 79.5 186.5Q80 194 80.5 202Q81 210 82.5 218Q84 226 86 234L185 700H280L180 227Q178 220 177 213.5Q176 207 175.5 201Q175 195 174.5 189.5Q174 184 174 178Q174 154 181 135Q188 116 200.5 103.5Q213 91 231 84.5Q249 78 272 78Q300 78 321 87.5Q342 97 357.5 115.5Q373 134 384 162Q395 190 403 228ZM376 814Q376 804 372.5 795.5Q369 787 362.5 781Q356 775 347 772Q338 769 328 769Q318 769 309.5 772Q301 775 295 781Q289 787 285.5 795.5Q282 804 282 814Q282 824 285.5 832.5Q289 841 295 847Q301 853 309.5 856.5Q318 860 328 860Q338 860 347 856.5Q356 853 362.5 847Q369 841 372.5 832.5Q376 824 376 814ZM527 814Q527 804 523.5 795.5Q520 787 513.5 781Q507 775 498.5 772Q490 769 480 769Q470 769 461.5 772Q453 775 446.5 781Q440 787 436.5 795.5Q433 804 433 814Q433 824 436.5 832.5Q440 841 446.5 847Q453 853 461.5 856.5Q470 860 480 860Q490 860 498.5 856.5Q507 853 513.5 847Q520 841 523.5 832.5Q527 824 527 814Z" glyph-name="Udieresis" horiz-adv-x="567" unicode="&#220;" /><glyph d="M403 228 503 700H598L497 222Q484 160 463 116Q442 72 413 44Q384 16 347.5 3Q311 -10 267 -10Q228 -10 193.5 2Q159 14 133.5 37Q108 60 93.5 94Q79 128 79 171Q79 179 79.5 186.5Q80 194 80.5 202Q81 210 82.5 218Q84 226 86 234L185 700H280L180 227Q178 220 177 213.5Q176 207 175.5 201Q175 195 174.5 189.5Q174 184 174 178Q174 154 181 135Q188 116 200.5 103.5Q213 91 231 84.5Q249 78 272 78Q300 78 321 87.5Q342 97 357.5 115.5Q373 134 384 162Q395 190 403 228ZM495 734 271 828 305 900 523 794Z" glyph-name="Ugrave" horiz-adv-x="567" unicode="&#217;" /><glyph d="M252 0H153L118 700H211L225 307Q226 278 226.5 252.5Q227 227 227.5 203.5Q228 180 228 161.5Q228 143 228 134H230Q234 144 244 169Q254 194 261.5 212.5Q269 231 278.5 252Q288 273 297 294L483 700H583Z" glyph-name="V" horiz-adv-x="486" unicode="V" /><glyph d="M566 0H466L453 430Q452 451 452 465.5Q452 480 452.5 488.5Q453 497 454 505H452Q447 492 443.5 482Q440 472 435 459.5Q430 447 424 435L228 0H128L117 700H211L214 279Q214 261 213.5 239.5Q213 218 212 199.5Q211 181 210 153H212Q222 178 229.5 196Q237 214 246 236Q255 258 264 278L451 700H533L544 278Q545 250 545 227Q545 204 544.5 188Q544 172 543 153H545Q555 178 562 196Q569 214 577.5 236Q586 258 595 278L773 700H873Z" glyph-name="W" horiz-adv-x="776" unicode="W" /><glyph d="M405 0H306L271 170Q267 188 263.5 207Q260 226 257.5 241.5Q255 257 252 279H250Q247 274 239.5 260.5Q232 247 225 235Q218 223 208 206Q198 189 186 169L81 0H-14L207 350L133 700H227L257 549Q261 529 265 506.5Q269 484 272.5 464.5Q276 445 278 431.5Q280 418 280 418H282Q282 419 290 433Q298 447 308 464Q318 481 331 503.5Q344 526 358 548L451 700H553L330 350Z" glyph-name="X" horiz-adv-x="471" unicode="X" /><glyph d="M238 0H145L187 204L114 700H213L241 462Q244 440 246.5 416Q249 392 251 372Q253 352 256 323H258Q270 349 279.5 368Q289 387 301.5 411.5Q314 436 328 461L459 700H566L280 200Z" glyph-name="Y" horiz-adv-x="460" unicode="Y" /><glyph d="M238 0H145L187 204L114 700H213L241 462Q244 440 246.5 416Q249 392 251 372Q253 352 256 323H258Q270 349 279.5 368Q289 387 301.5 411.5Q314 436 328 461L459 700H566L280 200ZM485 828 261 734 233 794 451 900Z" glyph-name="Yacute" horiz-adv-x="460" unicode="&#221;" /><glyph glyph-name="Ydieresis" horiz-adv-x="460" unicode="&#376;" /><glyph d="M391 0H-17V2L347 546Q356 560 364.5 572Q373 584 379.5 592Q386 600 394 610V612H144L163 700H560V697L198 158Q190 146 180.5 134Q171 122 163.5 112.5Q156 103 145 91V88H409Z" glyph-name="Z" horiz-adv-x="475" unicode="Z" /><glyph d="M391 0H-17V2L347 546Q356 560 364.5 572Q373 584 379.5 592Q386 600 394 610V612H144L163 700H560V697L198 158Q190 146 180.5 134Q171 122 163.5 112.5Q156 103 145 91V88H409ZM246 882 306 936 347 880Q354 870 359 863Q364 856 368.5 849.5Q373 843 376.5 837Q380 831 383 826H385Q399 840 408.5 849.5Q418 859 429 869.5Q440 880 450 888L508 938L553 876L402 758H351Z" glyph-name="Zcaron" horiz-adv-x="475" unicode="&#381;" /><glyph d="M489 85 468 -6Q434 -6 410 0Q386 6 371.5 18Q357 30 350 46.5Q343 63 341 86H339Q327 65 314 48.5Q301 32 284 18.5Q267 5 244 -2.5Q221 -10 192 -10Q157 -10 130 4Q103 18 85.5 43.5Q68 69 59.5 103.5Q51 138 51 181Q51 250 69 316.5Q87 383 121 437.5Q155 492 203.5 523.5Q252 555 312 555Q351 555 381.5 542.5Q412 530 433 508Q454 486 465 457Q476 428 476 395Q476 388 475.5 380.5Q475 373 474 365.5Q473 358 471.5 350Q470 342 468 332L430 154Q428 145 428 143Q428 141 427.5 137.5Q427 134 426.5 130.5Q426 127 426 124Q426 113 429 105Q432 97 437.5 92Q443 87 451 84.5Q459 82 470 82Q472 82 474.5 82Q477 82 479 82.5Q481 83 483.5 83.5Q486 84 489 85ZM221 75Q254 75 280 98.5Q306 122 324 158.5Q342 195 353 234.5Q364 274 371 312Q375 334 377 346.5Q379 359 380 366Q381 373 381.5 377Q382 381 382 384Q382 402 377 418Q372 434 362 446Q352 458 337.5 465Q323 472 304 472Q271 472 241.5 449Q212 426 190 385.5Q168 345 155.5 293Q143 241 143 185Q143 161 147 141.5Q151 122 159.5 107Q168 92 183.5 83.5Q199 75 221 75Z" glyph-name="a" horiz-adv-x="541" unicode="a" /><glyph d="M468 85 448 -6Q415 -6 391 0.5Q367 7 352 19Q337 31 329 49.5Q321 68 318 92H316Q304 72 289.5 54.5Q275 37 255 22Q235 7 210 -1.5Q185 -10 156 -10Q125 -10 100.5 0Q76 10 59 28Q42 46 33.5 70Q25 94 25 122Q25 169 47 206.5Q69 244 111.5 270Q154 296 215 309.5Q276 323 353 323Q354 327 356.5 340.5Q359 354 360.5 362.5Q362 371 363 379Q364 387 364 394Q364 412 359.5 427Q355 442 346.5 452.5Q338 463 325.5 468.5Q313 474 296 474Q277 474 259 468Q241 462 225.5 451Q210 440 196.5 425Q183 410 172 392L118 460Q141 484 163 502Q185 520 207.5 531.5Q230 543 253.5 549Q277 555 302 555Q336 555 364 545Q392 535 411.5 515Q431 495 441.5 465.5Q452 436 452 398Q452 394 452 391Q452 388 452 385Q452 382 451.5 378.5Q451 375 451 372Q450 351 446 325Q442 299 437.5 280Q433 261 423.5 218.5Q414 176 410 154Q409 150 408 146Q407 142 406.5 138.5Q406 135 406 131.5Q406 128 406 124Q406 112 409 103.5Q412 95 418 90.5Q424 86 433 84Q442 82 454 82Q456 82 458.5 82.5Q461 83 463 83.5Q465 84 468 85ZM326 196 338 254Q336 254 333 254.5Q330 255 327.5 255Q325 255 323 255Q321 255 318 255Q274 255 237 247Q200 239 173 222.5Q146 206 131 182Q116 158 116 128Q116 113 120.5 101.5Q125 90 133.5 82Q142 74 154 70Q166 66 181 66Q206 66 230 76.5Q254 87 274 105.5Q294 124 307.5 147.5Q321 171 326 196Z" glyph-name="a.alt" horiz-adv-x="509" /><glyph d="M489 85 468 -6Q434 -6 410 0Q386 6 371.5 18Q357 30 350 46.5Q343 63 341 86H339Q327 65 314 48.5Q301 32 284 18.5Q267 5 244 -2.5Q221 -10 192 -10Q157 -10 130 4Q103 18 85.5 43.5Q68 69 59.5 103.5Q51 138 51 181Q51 250 69 316.5Q87 383 121 437.5Q155 492 203.5 523.5Q252 555 312 555Q351 555 381.5 542.5Q412 530 433 508Q454 486 465 457Q476 428 476 395Q476 388 475.5 380.5Q475 373 474 365.5Q473 358 471.5 350Q470 342 468 332L430 154Q428 145 428 143Q428 141 427.5 137.5Q427 134 426.5 130.5Q426 127 426 124Q426 113 429 105Q432 97 437.5 92Q443 87 451 84.5Q459 82 470 82Q472 82 474.5 82Q477 82 479 82.5Q481 83 483.5 83.5Q486 84 489 85ZM221 75Q254 75 280 98.5Q306 122 324 158.5Q342 195 353 234.5Q364 274 371 312Q375 334 377 346.5Q379 359 380 366Q381 373 381.5 377Q382 381 382 384Q382 402 377 418Q372 434 362 446Q352 458 337.5 465Q323 472 304 472Q271 472 241.5 449Q212 426 190 385.5Q168 345 155.5 293Q143 241 143 185Q143 161 147 141.5Q151 122 159.5 107Q168 92 183.5 83.5Q199 75 221 75ZM469 680 245 586 217 646 435 752Z" glyph-name="aacute" horiz-adv-x="535" unicode="&#225;" /><glyph d="M468 85 448 -6Q415 -6 391 0.5Q367 7 352 19Q337 31 329 49.5Q321 68 318 92H316Q304 72 289.5 54.5Q275 37 255 22Q235 7 210 -1.5Q185 -10 156 -10Q125 -10 100.5 0Q76 10 59 28Q42 46 33.5 70Q25 94 25 122Q25 169 47 206.5Q69 244 111.5 270Q154 296 215 309.5Q276 323 353 323Q354 327 356.5 340.5Q359 354 360.5 362.5Q362 371 363 379Q364 387 364 394Q364 412 359.5 427Q355 442 346.5 452.5Q338 463 325.5 468.5Q313 474 296 474Q277 474 259 468Q241 462 225.5 451Q210 440 196.5 425Q183 410 172 392L118 460Q141 484 163 502Q185 520 207.5 531.5Q230 543 253.5 549Q277 555 302 555Q336 555 364 545Q392 535 411.5 515Q431 495 441.5 465.5Q452 436 452 398Q452 394 452 391Q452 388 452 385Q452 382 451.5 378.5Q451 375 451 372Q450 351 446 325Q442 299 437.5 280Q433 261 423.5 218.5Q414 176 410 154Q409 150 408 146Q407 142 406.5 138.5Q406 135 406 131.5Q406 128 406 124Q406 112 409 103.5Q412 95 418 90.5Q424 86 433 84Q442 82 454 82Q456 82 458.5 82.5Q461 83 463 83.5Q465 84 468 85ZM326 196 338 254Q336 254 333 254.5Q330 255 327.5 255Q325 255 323 255Q321 255 318 255Q274 255 237 247Q200 239 173 222.5Q146 206 131 182Q116 158 116 128Q116 113 120.5 101.5Q125 90 133.5 82Q142 74 154 70Q166 66 181 66Q206 66 230 76.5Q254 87 274 105.5Q294 124 307.5 147.5Q321 171 326 196ZM459 688 235 594 207 654 425 760Z" glyph-name="aacute.alt" horiz-adv-x="509" /><glyph d="M489 85 468 -6Q434 -6 410 0Q386 6 371.5 18Q357 30 350 46.5Q343 63 341 86H339Q327 65 314 48.5Q301 32 284 18.5Q267 5 244 -2.5Q221 -10 192 -10Q157 -10 130 4Q103 18 85.5 43.5Q68 69 59.5 103.5Q51 138 51 181Q51 250 69 316.5Q87 383 121 437.5Q155 492 203.5 523.5Q252 555 312 555Q351 555 381.5 542.5Q412 530 433 508Q454 486 465 457Q476 428 476 395Q476 388 475.5 380.5Q475 373 474 365.5Q473 358 471.5 350Q470 342 468 332L430 154Q428 145 428 143Q428 141 427.5 137.5Q427 134 426.5 130.5Q426 127 426 124Q426 113 429 105Q432 97 437.5 92Q443 87 451 84.5Q459 82 470 82Q472 82 474.5 82Q477 82 479 82.5Q481 83 483.5 83.5Q486 84 489 85ZM221 75Q254 75 280 98.5Q306 122 324 158.5Q342 195 353 234.5Q364 274 371 312Q375 334 377 346.5Q379 359 380 366Q381 373 381.5 377Q382 381 382 384Q382 402 377 418Q372 434 362 446Q352 458 337.5 465Q323 472 304 472Q271 472 241.5 449Q212 426 190 385.5Q168 345 155.5 293Q143 241 143 185Q143 161 147 141.5Q151 122 159.5 107Q168 92 183.5 83.5Q199 75 221 75ZM491 649 431 595 390 651Q383 661 378 668Q373 675 368.5 681.5Q364 688 360.5 694Q357 700 354 705H352Q338 691 328.5 681.5Q319 672 308 661.5Q297 651 287 643L229 593L184 655L335 773H386Z" glyph-name="acircumflex" horiz-adv-x="535" unicode="&#226;" /><glyph d="M468 85 448 -6Q415 -6 391 0.5Q367 7 352 19Q337 31 329 49.5Q321 68 318 92H316Q304 72 289.5 54.5Q275 37 255 22Q235 7 210 -1.5Q185 -10 156 -10Q125 -10 100.5 0Q76 10 59 28Q42 46 33.5 70Q25 94 25 122Q25 169 47 206.5Q69 244 111.5 270Q154 296 215 309.5Q276 323 353 323Q354 327 356.5 340.5Q359 354 360.5 362.5Q362 371 363 379Q364 387 364 394Q364 412 359.5 427Q355 442 346.5 452.5Q338 463 325.5 468.5Q313 474 296 474Q277 474 259 468Q241 462 225.5 451Q210 440 196.5 425Q183 410 172 392L118 460Q141 484 163 502Q185 520 207.5 531.5Q230 543 253.5 549Q277 555 302 555Q336 555 364 545Q392 535 411.5 515Q431 495 441.5 465.5Q452 436 452 398Q452 394 452 391Q452 388 452 385Q452 382 451.5 378.5Q451 375 451 372Q450 351 446 325Q442 299 437.5 280Q433 261 423.5 218.5Q414 176 410 154Q409 150 408 146Q407 142 406.5 138.5Q406 135 406 131.5Q406 128 406 124Q406 112 409 103.5Q412 95 418 90.5Q424 86 433 84Q442 82 454 82Q456 82 458.5 82.5Q461 83 463 83.5Q465 84 468 85ZM326 196 338 254Q336 254 333 254.5Q330 255 327.5 255Q325 255 323 255Q321 255 318 255Q274 255 237 247Q200 239 173 222.5Q146 206 131 182Q116 158 116 128Q116 113 120.5 101.5Q125 90 133.5 82Q142 74 154 70Q166 66 181 66Q206 66 230 76.5Q254 87 274 105.5Q294 124 307.5 147.5Q321 171 326 196ZM480 652 420 598 379 654Q372 664 367 671Q362 678 357.5 684.5Q353 691 349.5 697Q346 703 343 708H341Q327 694 317.5 684.5Q308 675 297 664.5Q286 654 276 646L218 596L173 658L324 776H375Z" glyph-name="acircumflex.alt" horiz-adv-x="509" /><glyph d="M392 828 168 734 140 794 358 900Z" glyph-name="acute" horiz-adv-x="256" unicode="&#180;" /><glyph d="M489 85 468 -6Q434 -6 410 0Q386 6 371.5 18Q357 30 350 46.5Q343 63 341 86H339Q327 65 314 48.5Q301 32 284 18.5Q267 5 244 -2.5Q221 -10 192 -10Q157 -10 130 4Q103 18 85.5 43.5Q68 69 59.5 103.5Q51 138 51 181Q51 250 69 316.5Q87 383 121 437.5Q155 492 203.5 523.5Q252 555 312 555Q351 555 381.5 542.5Q412 530 433 508Q454 486 465 457Q476 428 476 395Q476 388 475.5 380.5Q475 373 474 365.5Q473 358 471.5 350Q470 342 468 332L430 154Q428 145 428 143Q428 141 427.5 137.5Q427 134 426.5 130.5Q426 127 426 124Q426 113 429 105Q432 97 437.5 92Q443 87 451 84.5Q459 82 470 82Q472 82 474.5 82Q477 82 479 82.5Q481 83 483.5 83.5Q486 84 489 85ZM221 75Q254 75 280 98.5Q306 122 324 158.5Q342 195 353 234.5Q364 274 371 312Q375 334 377 346.5Q379 359 380 366Q381 373 381.5 377Q382 381 382 384Q382 402 377 418Q372 434 362 446Q352 458 337.5 465Q323 472 304 472Q271 472 241.5 449Q212 426 190 385.5Q168 345 155.5 293Q143 241 143 185Q143 161 147 141.5Q151 122 159.5 107Q168 92 183.5 83.5Q199 75 221 75ZM307 663Q307 653 303.5 644.5Q300 636 293.5 630Q287 624 278 621Q269 618 259 618Q249 618 240.5 621Q232 624 226 630Q220 636 216.5 644.5Q213 653 213 663Q213 673 216.5 681.5Q220 690 226 696Q232 702 240.5 705.5Q249 709 259 709Q269 709 278 705.5Q287 702 293.5 696Q300 690 303.5 681.5Q307 673 307 663ZM458 663Q458 653 454.5 644.5Q451 636 444.5 630Q438 624 429.5 621Q421 618 411 618Q401 618 392.5 621Q384 624 377.5 630Q371 636 367.5 644.5Q364 653 364 663Q364 673 367.5 681.5Q371 690 377.5 696Q384 702 392.5 705.5Q401 709 411 709Q421 709 429.5 705.5Q438 702 444.5 696Q451 690 454.5 681.5Q458 673 458 663Z" glyph-name="adieresis" horiz-adv-x="535" unicode="&#228;" /><glyph d="M468 85 448 -6Q415 -6 391 0.5Q367 7 352 19Q337 31 329 49.5Q321 68 318 92H316Q304 72 289.5 54.5Q275 37 255 22Q235 7 210 -1.5Q185 -10 156 -10Q125 -10 100.5 0Q76 10 59 28Q42 46 33.5 70Q25 94 25 122Q25 169 47 206.5Q69 244 111.5 270Q154 296 215 309.5Q276 323 353 323Q354 327 356.5 340.5Q359 354 360.5 362.5Q362 371 363 379Q364 387 364 394Q364 412 359.5 427Q355 442 346.5 452.5Q338 463 325.5 468.5Q313 474 296 474Q277 474 259 468Q241 462 225.5 451Q210 440 196.5 425Q183 410 172 392L118 460Q141 484 163 502Q185 520 207.5 531.5Q230 543 253.5 549Q277 555 302 555Q336 555 364 545Q392 535 411.5 515Q431 495 441.5 465.5Q452 436 452 398Q452 394 452 391Q452 388 452 385Q452 382 451.5 378.5Q451 375 451 372Q450 351 446 325Q442 299 437.5 280Q433 261 423.5 218.5Q414 176 410 154Q409 150 408 146Q407 142 406.5 138.5Q406 135 406 131.5Q406 128 406 124Q406 112 409 103.5Q412 95 418 90.5Q424 86 433 84Q442 82 454 82Q456 82 458.5 82.5Q461 83 463 83.5Q465 84 468 85ZM326 196 338 254Q336 254 333 254.5Q330 255 327.5 255Q325 255 323 255Q321 255 318 255Q274 255 237 247Q200 239 173 222.5Q146 206 131 182Q116 158 116 128Q116 113 120.5 101.5Q125 90 133.5 82Q142 74 154 70Q166 66 181 66Q206 66 230 76.5Q254 87 274 105.5Q294 124 307.5 147.5Q321 171 326 196ZM308 663Q308 653 304.5 644.5Q301 636 294.5 630Q288 624 279 621Q270 618 260 618Q250 618 241.5 621Q233 624 227 630Q221 636 217.5 644.5Q214 653 214 663Q214 673 217.5 681.5Q221 690 227 696Q233 702 241.5 705.5Q250 709 260 709Q270 709 279 705.5Q288 702 294.5 696Q301 690 304.5 681.5Q308 673 308 663ZM459 663Q459 653 455.5 644.5Q452 636 445.5 630Q439 624 430.5 621Q422 618 412 618Q402 618 393.5 621Q385 624 378.5 630Q372 636 368.5 644.5Q365 653 365 663Q365 673 368.5 681.5Q372 690 378.5 696Q385 702 393.5 705.5Q402 709 412 709Q422 709 430.5 705.5Q439 702 445.5 696Q452 690 455.5 681.5Q459 673 459 663Z" glyph-name="adieresis.alt" horiz-adv-x="509" /><glyph d="M689 149 750 86Q727 63 706 46Q685 29 662 16.5Q639 4 613.5 -3Q588 -10 558 -10Q517 -10 487.5 3Q458 16 439.5 38Q421 60 411 87.5Q401 115 396 147H394Q382 117 364.5 90Q347 63 322 40Q297 17 264 3.5Q231 -10 191 -10Q155 -10 128 0.5Q101 11 84.5 29Q68 47 60 70Q52 93 52 119Q52 167 73.5 204Q95 241 136.5 267Q178 293 239 306.5Q300 320 378 321Q379 329 383 346.5Q387 364 387.5 368Q388 372 389.5 381.5Q391 391 391 399Q391 417 386.5 431Q382 445 373 454.5Q364 464 351 469Q338 474 321 474Q301 474 283 467.5Q265 461 249.5 450Q234 439 220 424.5Q206 410 194 392L135 456Q159 482 182 500.5Q205 519 228 531Q251 543 274.5 549Q298 555 323 555Q352 555 374.5 547Q397 539 412.5 524Q428 509 437.5 488Q447 467 450 440H452Q468 467 486 487.5Q504 508 525 523Q546 538 572 546.5Q598 555 629 555Q669 555 700.5 540Q732 525 753 497.5Q774 470 785 433.5Q796 397 796 355Q796 346 795 335.5Q794 325 792.5 312Q791 299 788.5 284Q786 269 783 251H460Q459 246 458.5 241Q458 236 457.5 231.5Q457 227 457 222Q457 217 457 212Q457 180 464 154Q471 128 484.5 110Q498 92 517.5 82Q537 72 563 72Q582 72 599.5 77.5Q617 83 633 93Q649 103 663 117Q677 131 689 149ZM358 226 364 251Q315 251 275 244.5Q235 238 205 223Q175 208 158.5 184.5Q142 161 142 127Q142 112 146.5 100.5Q151 89 159.5 81.5Q168 74 180 70Q192 66 207 66Q235 66 260 79.5Q285 93 304.5 116.5Q324 140 337.5 168.5Q351 197 358 226ZM474 321H705Q706 324 706 328.5Q706 333 706 337.5Q706 342 706 348Q706 354 706 356Q706 381 700 403.5Q694 426 682.5 442.5Q671 459 654.5 468.5Q638 478 618 478Q593 478 571 466Q549 454 530 432Q511 410 497 382Q483 354 474 321Z" glyph-name="ae" horiz-adv-x="855" unicode="&#230;" /><glyph d="M489 85 468 -6Q434 -6 410 0Q386 6 371.5 18Q357 30 350 46.5Q343 63 341 86H339Q327 65 314 48.5Q301 32 284 18.5Q267 5 244 -2.5Q221 -10 192 -10Q157 -10 130 4Q103 18 85.5 43.5Q68 69 59.5 103.5Q51 138 51 181Q51 250 69 316.5Q87 383 121 437.5Q155 492 203.5 523.5Q252 555 312 555Q351 555 381.5 542.5Q412 530 433 508Q454 486 465 457Q476 428 476 395Q476 388 475.5 380.5Q475 373 474 365.5Q473 358 471.5 350Q470 342 468 332L430 154Q428 145 428 143Q428 141 427.5 137.5Q427 134 426.5 130.5Q426 127 426 124Q426 113 429 105Q432 97 437.5 92Q443 87 451 84.5Q459 82 470 82Q472 82 474.5 82Q477 82 479 82.5Q481 83 483.5 83.5Q486 84 489 85ZM221 75Q254 75 280 98.5Q306 122 324 158.5Q342 195 353 234.5Q364 274 371 312Q375 334 377 346.5Q379 359 380 366Q381 373 381.5 377Q382 381 382 384Q382 402 377 418Q372 434 362 446Q352 458 337.5 465Q323 472 304 472Q271 472 241.5 449Q212 426 190 385.5Q168 345 155.5 293Q143 241 143 185Q143 161 147 141.5Q151 122 159.5 107Q168 92 183.5 83.5Q199 75 221 75ZM439 586 215 680 249 752 467 646Z" glyph-name="agrave" horiz-adv-x="535" unicode="&#224;" /><glyph d="M468 85 448 -6Q415 -6 391 0.5Q367 7 352 19Q337 31 329 49.5Q321 68 318 92H316Q304 72 289.5 54.5Q275 37 255 22Q235 7 210 -1.5Q185 -10 156 -10Q125 -10 100.5 0Q76 10 59 28Q42 46 33.5 70Q25 94 25 122Q25 169 47 206.5Q69 244 111.5 270Q154 296 215 309.5Q276 323 353 323Q354 327 356.5 340.5Q359 354 360.5 362.5Q362 371 363 379Q364 387 364 394Q364 412 359.5 427Q355 442 346.5 452.5Q338 463 325.5 468.5Q313 474 296 474Q277 474 259 468Q241 462 225.5 451Q210 440 196.5 425Q183 410 172 392L118 460Q141 484 163 502Q185 520 207.5 531.5Q230 543 253.5 549Q277 555 302 555Q336 555 364 545Q392 535 411.5 515Q431 495 441.5 465.5Q452 436 452 398Q452 394 452 391Q452 388 452 385Q452 382 451.5 378.5Q451 375 451 372Q450 351 446 325Q442 299 437.5 280Q433 261 423.5 218.5Q414 176 410 154Q409 150 408 146Q407 142 406.5 138.5Q406 135 406 131.5Q406 128 406 124Q406 112 409 103.5Q412 95 418 90.5Q424 86 433 84Q442 82 454 82Q456 82 458.5 82.5Q461 83 463 83.5Q465 84 468 85ZM326 196 338 254Q336 254 333 254.5Q330 255 327.5 255Q325 255 323 255Q321 255 318 255Q274 255 237 247Q200 239 173 222.5Q146 206 131 182Q116 158 116 128Q116 113 120.5 101.5Q125 90 133.5 82Q142 74 154 70Q166 66 181 66Q206 66 230 76.5Q254 87 274 105.5Q294 124 307.5 147.5Q321 171 326 196ZM429 594 205 688 239 760 457 654Z" glyph-name="agrave.alt" horiz-adv-x="509" /><glyph d="M416 70H414Q398 50 377.5 34Q357 18 334 7.5Q311 -3 285 -8.5Q259 -14 232 -14Q186 -14 150.5 1Q115 16 90.5 42Q66 68 53.5 102.5Q41 137 41 176Q41 220 56 260Q71 300 98.5 332.5Q126 365 163 387Q200 409 243 418V420Q228 431 216.5 444.5Q205 458 197 473Q189 488 185 505Q181 522 181 540Q181 572 193.5 602.5Q206 633 230 657.5Q254 682 287 696Q320 710 359 710Q382 710 403 705Q424 700 442.5 690.5Q461 681 476 668Q491 655 504 639L427 565Q421 577 415 585Q409 593 400.5 600.5Q392 608 380 612Q368 616 353 616Q332 616 316.5 608.5Q301 601 291 588.5Q281 576 276 561Q271 546 271 531Q271 515 276 500.5Q281 486 291.5 473.5Q302 461 320 453.5Q338 446 362 446L404 323Q408 312 412 298Q416 284 419.5 271.5Q423 259 427.5 244Q432 229 433 225H435Q444 247 453 272.5Q462 298 469.5 326Q477 354 483.5 382.5Q490 411 497 442H587Q577 397 566 355.5Q555 314 541.5 275Q528 236 511.5 201Q495 166 476 136Q479 128 486 119.5Q493 111 501.5 103.5Q510 96 520 91Q530 86 540 86Q537 76 533 65.5Q529 55 523 38Q517 21 514.5 14Q512 7 509 -2Q493 -2 479 3.5Q465 9 453 18Q441 27 431.5 40.5Q422 54 416 70ZM381 144 300 369Q265 366 234 351Q203 336 180 311.5Q157 287 144 255.5Q131 224 131 189Q131 162 138.5 140Q146 118 161 102Q176 86 197 77.5Q218 69 245 69Q266 69 285 74.5Q304 80 321 89.5Q338 99 353 113Q368 127 381 144Z" glyph-name="ampersand" horiz-adv-x="585" unicode="&amp;" /><glyph d="M205 494V639H165V491Q165 483 163.5 477Q162 471 159 466Q156 461 151 458.5Q146 456 139 456Q137 456 135 456.5Q133 457 131.5 457.5Q130 458 128.5 458.5Q127 459 125 460L109 424Q112 423 116 421.5Q120 420 123.5 419.5Q127 419 131 418.5Q135 418 139 418Q154 418 166 422.5Q178 427 186.5 436.5Q195 446 200 460.5Q205 475 205 494ZM189 72V251H228V289H111V251H149V72ZM514 421V460H439V505H502V544H439V600H514V639H398V421ZM395 72H456Q476 72 490 77Q504 82 513.5 90.5Q523 99 527 111Q531 123 531 137Q531 146 528.5 154Q526 162 521.5 168Q517 174 511.5 178Q506 182 499 185Q505 188 509.5 192.5Q514 197 517.5 203Q521 209 523 216Q525 223 525 230Q525 244 520.5 255Q516 266 507 273.5Q498 281 485 285Q472 289 455 289H395ZM459 110H436V165H459Q467 165 473.5 162.5Q480 160 484 156.5Q488 153 490.5 148.5Q493 144 493 139Q493 133 491.5 127.5Q490 122 486 118Q482 114 475.5 112Q469 110 459 110ZM450 201H436V251H450Q459 251 465.5 249.5Q472 248 476 244.5Q480 241 482 237Q484 233 484 228Q484 222 482.5 217Q481 212 477 208.5Q473 205 466 203Q459 201 450 201ZM320 421V600H358V639H242V600H280V421ZM374 72 322 290H276L224 72H266L273 106H323L331 72ZM317 143H281L298 223Q298 224 298 225Q298 226 298.5 227Q299 228 299 229Q299 230 299 231V223Q299 222 299 221Q299 220 299.5 218.5Q300 217 300 216.5Q300 216 300 215ZM548 336V375H93V336ZM1257 201Q1254 200 1251.5 199Q1249 198 1246 197.5Q1243 197 1240.5 196.5Q1238 196 1236 196Q1234 196 1232.5 196Q1231 196 1229.5 196.5Q1228 197 1227.5 198Q1227 199 1227 200Q1227 200 1227 200.5Q1227 201 1227.5 201.5Q1228 202 1228.5 202.5Q1229 203 1230 204Q1266 236 1282 258.5Q1298 281 1309.5 315Q1321 349 1321 393Q1321 444 1309.5 493Q1298 542 1270 584Q1242 626 1192.5 651.5Q1143 677 1071 677Q1008 677 962 661.5Q916 646 887.5 621.5Q859 597 846 570Q833 543 833 520Q833 513 832.5 509Q832 505 831 502Q830 499 827 496.5Q824 494 820 493Q797 485 780.5 472Q764 459 753.5 443Q743 427 738.5 409Q734 391 734 372Q734 354 738 336Q742 318 749 302Q756 286 765.5 275Q775 264 785 258Q787 257 788.5 256Q790 255 790.5 254Q791 253 791.5 252.5Q792 252 792 251Q792 251 792 250.5Q792 250 791.5 249.5Q791 249 790 249Q789 249 788 249Q786 249 784.5 249.5Q783 250 780.5 250.5Q778 251 776 252.5Q774 254 771 256Q756 266 745 279Q734 292 727 307Q720 322 716.5 338Q713 354 713 370Q713 392 718.5 413Q724 434 734.5 453Q745 472 760 486.5Q775 501 794 509Q798 511 800 512Q802 513 803.5 514.5Q805 516 805.5 518Q806 520 806 524Q806 555 823 588Q840 621 873.5 649.5Q907 678 957 695Q1007 712 1071 712Q1138 712 1192.5 692.5Q1247 673 1286.5 633Q1326 593 1347 532.5Q1368 472 1368 393Q1368 348 1354.5 312.5Q1341 277 1321.5 254Q1302 231 1285 219Q1268 207 1257 201ZM993 137 988 161Q988 162 987.5 162.5Q987 163 987 163.5Q987 164 986.5 164Q986 164 986 164L984 162L965 128Q964 127 963.5 125.5Q963 124 963 123.5Q963 123 963 122.5Q963 122 963 121Q963 116 963.5 110.5Q964 105 965 97.5Q966 90 966.5 88Q967 86 967 83Q967 78 966 74Q965 70 963 67.5Q961 65 958.5 63.5Q956 62 953 62Q950 62 948 63Q946 64 944 66.5Q942 69 941 72.5Q940 76 940 80Q940 83 941 87.5Q942 92 945 100.5Q948 109 948.5 111.5Q949 114 949 115Q949 122 947.5 130Q946 138 943.5 145.5Q941 153 934 175L911 134Q910 132 909.5 130.5Q909 129 908.5 128Q908 127 907.5 125.5Q907 124 907 123Q907 120 908 115.5Q909 111 910.5 105Q912 99 913 95.5Q914 92 914 90Q914 83 913 78Q912 73 910 70Q908 67 905 65.5Q902 64 898 64Q896 64 893.5 65Q891 66 889.5 68.5Q888 71 887 75Q886 79 886 84Q886 87 886 89.5Q886 92 886.5 94.5Q887 97 888 100.5Q889 104 890 108Q890 108 890.5 110Q891 112 891 113Q891 114 891 115Q891 116 891 117Q891 118 890.5 119Q890 120 890 120.5Q890 121 890 122Q889 127 886.5 135Q884 143 881 150.5Q878 158 875.5 163Q873 168 872 168Q874 168 870.5 165Q867 162 863.5 159Q860 156 857 149.5Q854 143 854 135Q854 130 855 125Q856 120 857.5 113.5Q859 107 860 103.5Q861 100 861 96Q861 91 860 87Q859 83 857 80Q855 77 852.5 75.5Q850 74 846 74Q843 74 841 75.5Q839 77 837 80Q835 83 834 87.5Q833 92 833 97Q833 100 833.5 103.5Q834 107 835 112.5Q836 118 836 119.5Q836 121 836 122Q836 124 833.5 131.5Q831 139 827 147.5Q823 156 820 162Q817 168 816 168Q814 168 812.5 160Q811 152 809.5 140.5Q808 129 807 117Q806 105 806 98Q806 74 817.5 59.5Q829 45 850.5 38.5Q872 32 899.5 30Q927 28 970 28Q1006 28 1034.5 29.5Q1063 31 1088.5 36Q1114 41 1130.5 51.5Q1147 62 1149 79Q1154 124 1160.5 159.5Q1167 195 1175.5 222.5Q1184 250 1195 269.5Q1206 289 1220 299Q1221 300 1221.5 300.5Q1222 301 1223 301Q1224 301 1225 301Q1226 301 1227 301Q1229 301 1230 300.5Q1231 300 1232.5 299.5Q1234 299 1234.5 298Q1235 297 1235 296Q1235 295 1235 294.5Q1235 294 1234.5 293Q1234 292 1233.5 291.5Q1233 291 1232 290Q1215 271 1204 240.5Q1193 210 1187.5 177.5Q1182 145 1181 128.5Q1180 112 1177 72Q1176 57 1169.5 44Q1163 31 1144.5 18.5Q1126 6 1089 -2Q1052 -10 994 -10Q932 -10 893 -4Q854 2 833 14Q812 26 804 43.5Q796 61 796 87Q796 97 797 108.5Q798 120 800 131.5Q802 143 802 144Q802 145 808 177Q808 177 808.5 177.5Q809 178 809 178.5Q809 179 809 180Q809 184 807 188.5Q805 193 800 202Q795 211 792.5 217.5Q790 224 790 230Q790 233 791 236Q792 239 794 240.5Q796 242 798 243Q800 244 803 244Q806 244 809 242.5Q812 241 814.5 238.5Q817 236 819 232Q821 228 821 223Q821 221 821 218.5Q821 216 820.5 211.5Q820 207 819.5 203.5Q819 200 819 197Q819 198 822 193.5Q825 189 833 175Q841 161 845.5 154Q850 147 851 147Q851 147 851.5 147Q852 147 852.5 147.5Q853 148 853.5 148.5Q854 149 854 150L867 177Q867 177 867 177.5Q867 178 867.5 178.5Q868 179 868 179.5Q868 180 868 180Q868 185 866.5 190Q865 195 862 203Q859 211 857.5 216.5Q856 222 856 227Q856 233 857.5 238.5Q859 244 862 248Q865 252 868.5 254Q872 256 875 256Q878 256 880 255Q882 254 884 251.5Q886 249 887 245Q888 241 888 236Q888 231 887 226.5Q886 222 884.5 215Q883 208 882 203.5Q881 199 881 195Q881 198 887 178Q893 158 896.5 149.5Q900 141 903 141Q903 141 908 146.5Q913 152 918 159.5Q923 167 927 174Q931 181 931 184Q931 184 930.5 185.5Q930 187 930 187.5Q930 188 930 189Q925 203 924.5 205Q924 207 922.5 212Q921 217 920 221Q919 225 919 229Q919 235 920.5 240Q922 245 925 248.5Q928 252 931.5 253.5Q935 255 939 255Q942 255 945 253.5Q948 252 950 249.5Q952 247 953.5 242.5Q955 238 955 232Q955 229 954 225Q953 221 950.5 214.5Q948 208 947 204Q946 200 946 197Q946 193 948 183.5Q950 174 954 158.5Q958 143 959.5 138Q961 133 960 133Q961 133 965 138.5Q969 144 973.5 152Q978 160 981 167.5Q984 175 984 180Q984 186 983.5 192Q983 198 982 205.5Q981 213 980.5 217Q980 221 980 225Q980 231 981 235.5Q982 240 984 242.5Q986 245 989 246.5Q992 248 996 248Q999 248 1001.5 247Q1004 246 1006 244Q1008 242 1009.5 239Q1011 236 1011 232Q1011 228 1009.5 223Q1008 218 1005 210.5Q1002 203 1000.5 198Q999 193 999 188Q999 188 999 187.5Q999 187 999.5 186.5Q1000 186 1000 185.5Q1000 185 1000 185L1005 162Q1005 161 1005 160Q1005 159 1005.5 158.5Q1006 158 1006.5 157.5Q1007 157 1008 157Q1009 157 1011 159Q1013 161 1021.5 169Q1030 177 1034.5 181Q1039 185 1040 185Q1041 185 1041 185Q1041 185 1041 184Q1041 183 1030 171.5Q1019 160 1019 160Q1019 160 1014.5 154Q1010 148 1010 143Q1010 138 1010.5 133Q1011 128 1012 121.5Q1013 115 1013.5 112Q1014 109 1014 106Q1014 99 1013 94.5Q1012 90 1010 87Q1008 84 1005.5 82.5Q1003 81 999 81Q995 81 992 82.5Q989 84 988 86Q987 88 986.5 91Q986 94 986 97Q986 100 987 103.5Q988 107 989.5 113.5Q991 120 992 124.5Q993 129 993 133ZM1064 262Q1039 262 1020 270.5Q1001 279 989 294.5Q977 310 971 329Q965 348 965 370Q965 390 973 408Q981 426 994.5 439Q1008 452 1026.5 459Q1045 466 1066 466Q1086 466 1103.5 458.5Q1121 451 1133 438Q1145 425 1151.5 407.5Q1158 390 1158 371Q1158 351 1153 332Q1148 313 1136.5 297Q1125 281 1107 271.5Q1089 262 1064 262ZM852 269Q830 269 812 275.5Q794 282 781 294.5Q768 307 761 325.5Q754 344 754 368Q754 385 759.5 402.5Q765 420 777 434.5Q789 449 807.5 457.5Q826 466 850 466Q872 466 890 460.5Q908 455 921 443.5Q934 432 941 415Q948 398 948 376Q948 351 941 331Q934 311 921.5 297.5Q909 284 891 276.5Q873 269 852 269ZM771 148Q773 148 774.5 147Q776 146 777 145.5Q778 145 778.5 144Q779 143 779 142Q779 134 766 128Q753 122 734.5 118Q716 114 698.5 112Q681 110 673 110Q667 110 661 110.5Q655 111 646.5 112Q638 113 633 113.5Q628 114 623 114Q617 114 612 112Q607 110 603 106.5Q599 103 596 97Q593 91 591 83Q585 59 575.5 45Q566 31 552.5 23.5Q539 16 522 12.5Q505 9 472 4Q452 1 438.5 -0.5Q425 -2 410.5 -3.5Q396 -5 379.5 -5.5Q363 -6 343 -6Q323 -6 307.5 -5.5Q292 -5 279 -3.5Q266 -2 255 -0.5Q244 1 224 4Q160 14 130.5 23Q101 32 81.5 57Q62 82 53 134.5Q44 187 44 283Q44 363 49.5 431.5Q55 500 65.5 552.5Q76 605 91 637.5Q106 670 125 680Q136 686 162.5 691.5Q189 697 224 702Q259 707 296 709.5Q333 712 365 712Q407 712 443 706Q479 700 506.5 690Q534 680 552 667.5Q570 655 578 642Q589 624 595 604Q601 584 604.5 560.5Q608 537 609 510.5Q610 484 610 446V383Q610 335 617 295Q624 255 642 223.5Q660 192 691.5 172Q723 152 771 148ZM923 330V410H908L892 378H891L874 410H860V330H875V381L890 356H893L907 381H908V330ZM1042 324 1027 364 1042 404H1027L1018 374H1016L1007 404H992L1007 364L992 324H1007L1016 353H1018L1027 324ZM1134 324V404H1119V324ZM843 330V410H828L812 378H811L794 410H780V330H795V381L810 356H813L827 381H828V330ZM1067 324V404H1052V324ZM1100 324V404H1085V324Z" glyph-name="apple" horiz-adv-x="1412" unicode="&#63743;" /><glyph d="M489 85 468 -6Q434 -6 410 0Q386 6 371.5 18Q357 30 350 46.5Q343 63 341 86H339Q327 65 314 48.5Q301 32 284 18.5Q267 5 244 -2.5Q221 -10 192 -10Q157 -10 130 4Q103 18 85.5 43.5Q68 69 59.5 103.5Q51 138 51 181Q51 250 69 316.5Q87 383 121 437.5Q155 492 203.5 523.5Q252 555 312 555Q351 555 381.5 542.5Q412 530 433 508Q454 486 465 457Q476 428 476 395Q476 388 475.5 380.5Q475 373 474 365.5Q473 358 471.5 350Q470 342 468 332L430 154Q428 145 428 143Q428 141 427.5 137.5Q427 134 426.5 130.5Q426 127 426 124Q426 113 429 105Q432 97 437.5 92Q443 87 451 84.5Q459 82 470 82Q472 82 474.5 82Q477 82 479 82.5Q481 83 483.5 83.5Q486 84 489 85ZM221 75Q254 75 280 98.5Q306 122 324 158.5Q342 195 353 234.5Q364 274 371 312Q375 334 377 346.5Q379 359 380 366Q381 373 381.5 377Q382 381 382 384Q382 402 377 418Q372 434 362 446Q352 458 337.5 465Q323 472 304 472Q271 472 241.5 449Q212 426 190 385.5Q168 345 155.5 293Q143 241 143 185Q143 161 147 141.5Q151 122 159.5 107Q168 92 183.5 83.5Q199 75 221 75ZM334 605Q313 605 296 612Q279 619 267.5 630.5Q256 642 250.5 657Q245 672 245 687Q245 707 252 726Q259 745 273 760Q287 775 306.5 783.5Q326 792 351 792Q372 792 389 785Q406 778 417 766.5Q428 755 433.5 740.5Q439 726 439 711Q439 691 431.5 672Q424 653 410.5 637.5Q397 622 377.5 613.5Q358 605 334 605ZM335 661Q345 661 353 665Q361 669 367 675.5Q373 682 376 690Q379 698 379 706Q379 712 377 717.5Q375 723 371.5 727Q368 731 362 733.5Q356 736 349 736Q339 736 331 732Q323 728 317 721.5Q311 715 308 706.5Q305 698 305 690Q305 684 307 678.5Q309 673 312.5 669Q316 665 321.5 663Q327 661 335 661Z" glyph-name="aring" horiz-adv-x="535" unicode="&#229;" /><glyph d="M333 604Q312 604 295 611Q278 618 266.5 629.5Q255 641 249.5 656Q244 671 244 686Q244 706 251 725Q258 744 272 759Q286 774 305.5 782.5Q325 791 350 791Q371 791 388 784Q405 777 416 765.5Q427 754 432.5 739.5Q438 725 438 710Q438 690 430.5 671Q423 652 409.5 636.5Q396 621 376.5 612.5Q357 604 333 604ZM334 660Q344 660 352 664Q360 668 366 674.5Q372 681 375 689Q378 697 378 705Q378 711 376 716.5Q374 722 370.5 726Q367 730 361 732.5Q355 735 348 735Q338 735 330 731Q322 727 316 720.5Q310 714 307 705.5Q304 697 304 689Q304 683 306 677.5Q308 672 311.5 668Q315 664 320.5 662Q326 660 334 660ZM468 85 448 -6Q415 -6 391 0.5Q367 7 352 19Q337 31 329 49.5Q321 68 318 92H316Q304 72 289.5 54.5Q275 37 255 22Q235 7 210 -1.5Q185 -10 156 -10Q125 -10 100.5 0Q76 10 59 28Q42 46 33.5 70Q25 94 25 122Q25 169 47 206.5Q69 244 111.5 270Q154 296 215 309.5Q276 323 353 323Q354 327 356.5 340.5Q359 354 360.5 362.5Q362 371 363 379Q364 387 364 394Q364 412 359.5 427Q355 442 346.5 452.5Q338 463 325.5 468.5Q313 474 296 474Q277 474 259 468Q241 462 225.5 451Q210 440 196.5 425Q183 410 172 392L118 460Q141 484 163 502Q185 520 207.5 531.5Q230 543 253.5 549Q277 555 302 555Q336 555 364 545Q392 535 411.5 515Q431 495 441.5 465.5Q452 436 452 398Q452 394 452 391Q452 388 452 385Q452 382 451.5 378.5Q451 375 451 372Q450 351 446 325Q442 299 437.5 280Q433 261 423.5 218.5Q414 176 410 154Q409 150 408 146Q407 142 406.5 138.5Q406 135 406 131.5Q406 128 406 124Q406 112 409 103.5Q412 95 418 90.5Q424 86 433 84Q442 82 454 82Q456 82 458.5 82.5Q461 83 463 83.5Q465 84 468 85ZM326 196 338 254Q336 254 333 254.5Q330 255 327.5 255Q325 255 323 255Q321 255 318 255Q274 255 237 247Q200 239 173 222.5Q146 206 131 182Q116 158 116 128Q116 113 120.5 101.5Q125 90 133.5 82Q142 74 154 70Q166 66 181 66Q206 66 230 76.5Q254 87 274 105.5Q294 124 307.5 147.5Q321 171 326 196Z" glyph-name="aring.alt" horiz-adv-x="509" /><glyph d="M473 804 413 750 372 806Q365 816 360 823Q355 830 350.5 836.5Q346 843 342.5 849Q339 855 336 860H334Q320 846 310.5 836.5Q301 827 290 816.5Q279 806 269 798L211 748L166 810L317 928H368Z" glyph-name="asciicircum" horiz-adv-x="365" unicode="^" /><glyph d="M352 452 419 450Q417 424 408.5 403Q400 382 385.5 366Q371 350 351.5 341.5Q332 333 308 333Q285 333 266.5 340Q248 347 224 361Q200 375 191.5 379.5Q183 384 171 384Q162 384 155 380Q148 376 143 369.5Q138 363 135 355.5Q132 348 130 339L64 341Q67 369 76 391Q85 413 100 428Q115 443 134 450.5Q153 458 175 458Q197 458 215.5 451Q234 444 257.5 430Q281 416 290 411Q299 406 311 406Q320 406 327 410Q334 414 339 420.5Q344 427 347 435Q350 443 352 452Z" glyph-name="asciitilde" horiz-adv-x="409" unicode="~" /><glyph d="M431 602 452 522Q439 520 426 519Q413 518 399.5 517.5Q386 517 373.5 516.5Q361 516 348 516Q337 516 330.5 516Q324 516 317 516Q310 516 304 516.5Q298 517 293 517L292 515Q302 505 314.5 491.5Q327 478 341.5 461.5Q356 445 369.5 426.5Q383 408 392 391Q383 386 373.5 381Q364 376 356 371Q348 366 335 358.5Q322 351 315 347Q306 365 298 387.5Q290 410 283.5 432Q277 454 273 473Q269 492 267 504H265Q259 496 244 472Q229 448 220 433.5Q211 419 197.5 399.5Q184 380 170 364L113 420Q128 434 145.5 448Q163 462 180.5 474Q198 486 209 493Q220 500 245 516L244 518Q238 519 213.5 523Q189 527 169.5 530.5Q150 534 129 539Q108 544 90 550Q96 564 99.5 573.5Q103 583 107 593Q111 603 115.5 613Q120 623 124 633Q141 625 160.5 613.5Q180 602 197.5 589.5Q215 577 229 566Q243 555 257 544L259 545Q258 552 256.5 569Q255 586 253.5 599Q252 612 251 629Q250 646 250 663Q250 668 250 672.5Q250 677 250.5 682Q251 687 251 690.5Q251 694 252 703Q264 701 274.5 699.5Q285 698 295.5 696.5Q306 695 316.5 693.5Q327 692 337 690Q333 670 326 649Q319 628 311.5 609Q304 590 297.5 574Q291 558 283 541L285 540Q298 547 314 555Q330 563 349 571.5Q368 580 389 588Q410 596 431 602Z" glyph-name="asterisk" horiz-adv-x="362" unicode="*" /><glyph d="M534 85 567 14Q545 -1 523 -12Q501 -23 477 -31Q453 -39 426 -43.5Q399 -48 369 -48Q296 -48 239.5 -23.5Q183 1 145.5 45Q108 89 89.5 147Q71 205 71 272Q71 359 99 444Q127 529 180.5 598Q234 667 310.5 707.5Q387 748 480 748Q554 748 610.5 721.5Q667 695 703.5 650Q740 605 758 548.5Q776 492 776 430Q776 380 764.5 333.5Q753 287 730 250Q707 213 672.5 191.5Q638 170 595 170Q575 170 556.5 175.5Q538 181 523 192Q508 203 499 220.5Q490 238 489 260H487Q477 239 464 222.5Q451 206 435 194.5Q419 183 401.5 176.5Q384 170 365 170Q339 170 319.5 181Q300 192 288 211Q276 230 270.5 254.5Q265 279 265 306Q265 345 277 384.5Q289 424 313 457Q337 490 372 510Q407 530 450 530Q480 530 505 520Q530 510 547.5 492.5Q565 475 574 450.5Q583 426 583 397Q583 392 583 387.5Q583 383 582.5 378Q582 373 581 368Q580 363 579 358L572 321Q571 317 570.5 313.5Q570 310 569.5 306.5Q569 303 569 300Q569 297 569 295Q569 285 571.5 277Q574 269 579 263.5Q584 258 591 255Q598 252 607 252Q627 252 643 267Q659 282 670 307.5Q681 333 686.5 364.5Q692 396 692 429Q692 483 678.5 527Q665 571 637.5 603Q610 635 569.5 652.5Q529 670 477 670Q404 670 344 637Q284 604 241.5 547Q199 490 176.5 419Q154 348 154 275Q154 218 169 172.5Q184 127 212 95.5Q240 64 281 47Q322 30 374 30Q397 30 418.5 33.5Q440 37 459.5 44Q479 51 497.5 61Q516 71 534 85ZM398 250Q415 250 431 260Q447 270 460.5 287Q474 304 482.5 326Q491 348 494 372Q494 374 494.5 376.5Q495 379 495 381Q495 383 495 385Q495 387 495 390Q495 406 491 417.5Q487 429 480 437Q473 445 463 448.5Q453 452 442 452Q425 452 408.5 442Q392 432 379 414Q366 396 358.5 371.5Q351 347 351 318Q351 299 354.5 286Q358 273 364 265Q370 257 378.5 253.5Q387 250 398 250Z" glyph-name="at" horiz-adv-x="776" unicode="@" /><glyph d="M489 85 468 -6Q434 -6 410 0Q386 6 371.5 18Q357 30 350 46.5Q343 63 341 86H339Q327 65 314 48.5Q301 32 284 18.5Q267 5 244 -2.5Q221 -10 192 -10Q157 -10 130 4Q103 18 85.5 43.5Q68 69 59.5 103.5Q51 138 51 181Q51 250 69 316.5Q87 383 121 437.5Q155 492 203.5 523.5Q252 555 312 555Q351 555 381.5 542.5Q412 530 433 508Q454 486 465 457Q476 428 476 395Q476 388 475.5 380.5Q475 373 474 365.5Q473 358 471.5 350Q470 342 468 332L430 154Q428 145 428 143Q428 141 427.5 137.5Q427 134 426.5 130.5Q426 127 426 124Q426 113 429 105Q432 97 437.5 92Q443 87 451 84.5Q459 82 470 82Q472 82 474.5 82Q477 82 479 82.5Q481 83 483.5 83.5Q486 84 489 85ZM221 75Q254 75 280 98.5Q306 122 324 158.5Q342 195 353 234.5Q364 274 371 312Q375 334 377 346.5Q379 359 380 366Q381 373 381.5 377Q382 381 382 384Q382 402 377 418Q372 434 362 446Q352 458 337.5 465Q323 472 304 472Q271 472 241.5 449Q212 426 190 385.5Q168 345 155.5 293Q143 241 143 185Q143 161 147 141.5Q151 122 159.5 107Q168 92 183.5 83.5Q199 75 221 75ZM461 742 528 740Q526 714 517.5 693Q509 672 494.5 656Q480 640 460.5 631.5Q441 623 417 623Q394 623 375.5 630Q357 637 333 651Q309 665 300.5 669.5Q292 674 280 674Q271 674 264 670Q257 666 252 659.5Q247 653 244 645.5Q241 638 239 629L173 631Q176 659 185 681Q194 703 209 718Q224 733 243 740.5Q262 748 284 748Q306 748 324.5 741Q343 734 366.5 720Q390 706 399 701Q408 696 420 696Q429 696 436 700Q443 704 448 710.5Q453 717 456 725Q459 733 461 742Z" glyph-name="atilde" horiz-adv-x="535" unicode="&#227;" /><glyph d="M468 85 448 -6Q415 -6 391 0.5Q367 7 352 19Q337 31 329 49.5Q321 68 318 92H316Q304 72 289.5 54.5Q275 37 255 22Q235 7 210 -1.5Q185 -10 156 -10Q125 -10 100.5 0Q76 10 59 28Q42 46 33.5 70Q25 94 25 122Q25 169 47 206.5Q69 244 111.5 270Q154 296 215 309.5Q276 323 353 323Q354 327 356.5 340.5Q359 354 360.5 362.5Q362 371 363 379Q364 387 364 394Q364 412 359.5 427Q355 442 346.5 452.5Q338 463 325.5 468.5Q313 474 296 474Q277 474 259 468Q241 462 225.5 451Q210 440 196.5 425Q183 410 172 392L118 460Q141 484 163 502Q185 520 207.5 531.5Q230 543 253.5 549Q277 555 302 555Q336 555 364 545Q392 535 411.5 515Q431 495 441.5 465.5Q452 436 452 398Q452 394 452 391Q452 388 452 385Q452 382 451.5 378.5Q451 375 451 372Q450 351 446 325Q442 299 437.5 280Q433 261 423.5 218.5Q414 176 410 154Q409 150 408 146Q407 142 406.5 138.5Q406 135 406 131.5Q406 128 406 124Q406 112 409 103.5Q412 95 418 90.5Q424 86 433 84Q442 82 454 82Q456 82 458.5 82.5Q461 83 463 83.5Q465 84 468 85ZM326 196 338 254Q336 254 333 254.5Q330 255 327.5 255Q325 255 323 255Q321 255 318 255Q274 255 237 247Q200 239 173 222.5Q146 206 131 182Q116 158 116 128Q116 113 120.5 101.5Q125 90 133.5 82Q142 74 154 70Q166 66 181 66Q206 66 230 76.5Q254 87 274 105.5Q294 124 307.5 147.5Q321 171 326 196ZM441 731 508 729Q506 703 497.5 682Q489 661 474.5 645Q460 629 440.5 620.5Q421 612 397 612Q374 612 355.5 619Q337 626 313 640Q289 654 280.5 658.5Q272 663 260 663Q251 663 244 659Q237 655 232 648.5Q227 642 224 634.5Q221 627 219 618L153 620Q156 648 165 670Q174 692 189 707Q204 722 223 729.5Q242 737 264 737Q286 737 304.5 730Q323 723 346.5 709Q370 695 379 690Q388 685 400 685Q409 685 416 689Q423 693 428 699.5Q433 706 436 714Q439 722 441 731Z" glyph-name="atilde.alt" horiz-adv-x="509" /><glyph d="M70 254 172 730H264L230 570Q227 557 224 542.5Q221 528 218 516Q215 504 210 486H212Q222 501 234.5 513.5Q247 526 262.5 535.5Q278 545 296.5 550Q315 555 337 555Q370 555 396.5 543Q423 531 441.5 507Q460 483 469.5 448Q479 413 479 368Q479 293 460.5 224.5Q442 156 407.5 103Q373 50 325 20Q277 -10 220 -10Q185 -10 156 1.5Q127 13 105.5 35.5Q84 58 72 92Q60 126 60 170Q60 180 60.5 189.5Q61 199 62.5 209.5Q64 220 65.5 231.5Q67 243 70 254ZM180 336 157 230Q155 222 154 215Q153 208 152.5 201.5Q152 195 151.5 188Q151 181 151 175Q151 151 156.5 133Q162 115 172 102Q182 89 197.5 82.5Q213 76 232 76Q268 76 297 104Q326 132 346 176.5Q366 221 376.5 271Q387 321 387 365Q387 390 383 410Q379 430 369.5 444Q360 458 345 465.5Q330 473 308 473Q282 473 260.5 461Q239 449 223 429.5Q207 410 196.5 385.5Q186 361 180 336Z" glyph-name="b" horiz-adv-x="499" unicode="b" /><glyph d="M229 -61 139 -60 80 761H171Z" glyph-name="backslash" horiz-adv-x="239" unicode="\" /><glyph d="M100 -100H2L194 800H292Z" glyph-name="bar" horiz-adv-x="217" unicode="|" /><glyph d="M171 -66 155 -146Q123 -146 96.5 -139Q70 -132 50 -118Q30 -104 19.5 -81.5Q9 -59 9 -28Q9 11 25.5 48.5Q42 86 75 137Q108 188 121.5 213Q135 238 135 263Q135 274 131 283Q127 292 119.5 298Q112 304 101.5 307Q91 310 79 310L97 393Q116 393 131.5 399Q147 405 158 416.5Q169 428 175 445Q181 462 181 483Q181 499 178 515.5Q175 532 168.5 560.5Q162 589 158.5 610Q155 631 155 653Q155 706 171 744Q187 782 215.5 805.5Q244 829 282 839.5Q320 850 366 850L348 763H342Q321 763 303 757Q285 751 271.5 738.5Q258 726 250.5 705.5Q243 685 243 657Q243 640 246 624.5Q249 609 255 584Q261 559 264 541Q267 523 267 504Q267 472 259 445.5Q251 419 236.5 399.5Q222 380 203 368Q184 356 163 352V350Q176 347 186 340.5Q196 334 203.5 324.5Q211 315 215 302Q219 289 219 275Q219 238 203 203Q187 168 155.5 119.5Q124 71 109.5 42Q95 13 95 -16Q95 -31 100.5 -41Q106 -51 116 -56.5Q126 -62 139.5 -64Q153 -66 171 -66Z" glyph-name="braceleft" horiz-adv-x="252" unicode="{" /><glyph d="M198 770 214 850Q246 850 272.5 843Q299 836 319 822Q339 808 349.5 785.5Q360 763 360 732Q360 693 343.5 655.5Q327 618 294 567Q261 516 247.5 491Q234 466 234 441Q234 430 238 421Q242 412 249.5 406Q257 400 267.5 397Q278 394 290 394L272 311Q253 311 237.5 305Q222 299 211 287.5Q200 276 194 259Q188 242 188 221Q188 205 191 188.5Q194 172 200.5 143.5Q207 115 210.5 94Q214 73 214 51Q214 -2 198 -40Q182 -78 153.5 -101.5Q125 -125 87 -135.5Q49 -146 3 -146L21 -59H27Q48 -59 66 -53Q84 -47 97.5 -34.5Q111 -22 118.5 -1.5Q126 19 126 47Q126 64 123 79.5Q120 95 114 120Q108 145 105 163Q102 181 102 200Q102 232 110 258.5Q118 285 132.5 304.5Q147 324 166 336Q185 348 206 352V354Q193 357 183 363.5Q173 370 165.5 379.5Q158 389 154 402Q150 415 150 429Q150 466 166 501Q182 536 213.5 584.5Q245 633 259.5 662Q274 691 274 720Q274 735 268.5 745Q263 755 253 760.5Q243 766 229.5 768Q216 770 198 770Z" glyph-name="braceright" horiz-adv-x="252" unicode="}" /><glyph d="M203 -137H16L224 847H411L396 773H292L115 -63H218Z" glyph-name="bracketleft" horiz-adv-x="247" unicode="[" /><glyph d="M116 847H303L95 -137H-92L-77 -63H27L204 773H101Z" glyph-name="bracketright" horiz-adv-x="247" unicode="]" /><glyph d="M367 871 454 882Q452 849 441.5 823.5Q431 798 411.5 780Q392 762 363.5 752.5Q335 743 297 743Q268 743 245 749.5Q222 756 206 768.5Q190 781 181.5 799Q173 817 173 840Q173 845 173.5 850Q174 855 174.5 860.5Q175 866 176.5 871Q178 876 180 882L257 871Q256 868 255 865Q254 862 253.5 859.5Q253 857 253 854.5Q253 852 253 850Q253 841 256.5 833.5Q260 826 266 821Q272 816 280.5 813.5Q289 811 299 811Q313 811 324.5 814.5Q336 818 345.5 825.5Q355 833 360.5 844.5Q366 856 367 871Z" glyph-name="breve" horiz-adv-x="343" unicode="&#728;" /><glyph d="M90 -100H-2L86 313H178ZM197 400H105L190 800H282Z" glyph-name="brokenbar" horiz-adv-x="205" unicode="&#166;" /><glyph d="M167 219Q147 219 129.5 226Q112 233 99 246.5Q86 260 78.5 278Q71 296 71 317Q71 337 78.5 354.5Q86 372 99 385Q112 398 129.5 405Q147 412 167 412Q187 412 204.5 405Q222 398 236 385Q250 372 257.5 354.5Q265 337 265 317Q265 296 257.5 278Q250 260 236 246.5Q222 233 204.5 226Q187 219 167 219Z" glyph-name="bullet" horiz-adv-x="295" unicode="&#8226;" /><glyph d="M344 157 405 97Q387 70 369.5 51Q352 32 331 18Q310 4 285 -3Q260 -10 229 -10Q187 -10 153.5 4.5Q120 19 97.5 46Q75 73 63 111Q51 149 51 196Q51 257 66 320Q81 383 112.5 436.5Q144 490 192.5 522.5Q241 555 305 555Q337 555 363 546Q389 537 409 520.5Q429 504 443 481.5Q457 459 465 432L385 380Q383 401 376 417Q369 433 358 444.5Q347 456 332 462Q317 468 298 468Q263 468 234.5 444.5Q206 421 185.5 382.5Q165 344 154.5 298Q144 252 144 209Q144 175 150 150Q156 125 168 108.5Q180 92 197 84Q214 76 237 76Q253 76 267.5 81.5Q282 87 295 97.5Q308 108 320 123Q332 138 344 157Z" glyph-name="c" horiz-adv-x="454" unicode="c" /><glyph d="M249 882 309 936 350 880Q357 870 362 863Q367 856 371.5 849.5Q376 843 379.5 837Q383 831 386 826H388Q402 840 411.5 849.5Q421 859 432 869.5Q443 880 453 888L511 938L556 876L405 758H354Z" glyph-name="caron" horiz-adv-x="365" unicode="&#711;" /><glyph d="M87 -216 138 -177Q142 -184 147.5 -190Q153 -196 160 -200Q167 -204 176 -206Q185 -208 195 -208Q207 -208 217.5 -204Q228 -200 236 -192.5Q244 -185 248.5 -175Q253 -165 253 -153Q253 -145 250.5 -138Q248 -131 242.5 -125.5Q237 -120 229 -117Q221 -114 211 -114Q203 -114 195 -115.5Q187 -117 180.5 -120Q174 -123 168 -127.5Q162 -132 157 -137L109 -110L158 2Q132 12 112 30.5Q92 49 78.5 73.5Q65 98 58 129Q51 160 51 196Q51 257 66 320Q81 383 112.5 436.5Q144 490 192.5 522.5Q241 555 305 555Q337 555 363 546Q389 537 409 520.5Q429 504 443 481.5Q457 459 465 432L385 380Q383 401 376 417Q369 433 358 444.5Q347 456 332 462Q317 468 298 468Q263 468 234.5 444.5Q206 421 185.5 382.5Q165 344 154.5 298Q144 252 144 209Q144 175 150 150Q156 125 168 108.5Q180 92 197 84Q214 76 237 76Q253 76 267.5 81.5Q282 87 295 97.5Q308 108 320 123Q332 138 344 157L405 97Q387 70 369.5 51Q352 32 331 18Q310 4 285 -3Q260 -10 229 -10Q227 -10 224.5 -10Q222 -10 219 -9.5Q216 -9 213.5 -9Q211 -9 209 -9L182 -69L184 -70Q189 -68 193.5 -66Q198 -64 203 -63Q208 -62 213 -61.5Q218 -61 224 -61Q244 -61 261 -67.5Q278 -74 291.5 -85.5Q305 -97 312 -113.5Q319 -130 319 -149Q319 -176 309.5 -198.5Q300 -221 282.5 -237.5Q265 -254 241.5 -262.5Q218 -271 190 -271Q174 -271 158.5 -267Q143 -263 129.5 -256Q116 -249 105 -239Q94 -229 87 -216Z" glyph-name="ccedilla" horiz-adv-x="454" unicode="&#231;" /><glyph d="M-43 -216 8 -177Q12 -184 17.5 -190Q23 -196 30 -200Q37 -204 46 -206Q55 -208 65 -208Q77 -208 87.5 -204Q98 -200 106 -192.5Q114 -185 118.5 -175Q123 -165 123 -153Q123 -145 120.5 -138Q118 -131 112.5 -125.5Q107 -120 99 -117Q91 -114 81 -114Q73 -114 65 -115.5Q57 -117 50.5 -120Q44 -123 38 -127.5Q32 -132 27 -137L-21 -110L38 26H96L52 -69L54 -70Q59 -68 63.5 -66Q68 -64 73 -63Q78 -62 83 -61.5Q88 -61 94 -61Q114 -61 131 -67.5Q148 -74 161.5 -85.5Q175 -97 182 -113.5Q189 -130 189 -149Q189 -176 179.5 -198.5Q170 -221 152.5 -237.5Q135 -254 111.5 -262.5Q88 -271 60 -271Q44 -271 28.5 -267Q13 -263 -0.5 -256Q-14 -249 -25 -239Q-36 -229 -43 -216Z" glyph-name="cedilla" horiz-adv-x="242" unicode="&#184;" /><glyph d="M133 61H91L151 175Q132 187 117 203Q102 219 92.5 239Q83 259 78 281Q73 303 73 327Q73 373 88.5 416Q104 459 133 493Q162 527 203 546.5Q244 566 293 566Q302 566 309.5 565.5Q317 565 324.5 564Q332 563 339 561Q346 559 353 557L410 663H452L387 542Q398 535 408 527Q418 519 426 510Q434 501 440 491Q446 481 450 471L380 413Q375 428 366.5 440Q358 452 346.5 460.5Q335 469 320 473.5Q305 478 288 478Q262 478 239.5 467Q217 456 200.5 436.5Q184 417 175 391.5Q166 366 166 338Q166 317 172 298.5Q178 280 190 266Q202 252 221 244Q240 236 264 236Q280 236 294 239.5Q308 243 320 250.5Q332 258 343 268.5Q354 279 365 293L417 227Q400 208 381.5 194Q363 180 343 169.5Q323 159 300.5 153.5Q278 148 254 148Q244 148 235 148.5Q226 149 217.5 150.5Q209 152 200.5 154Q192 156 185 159Z" glyph-name="cent" horiz-adv-x="436" unicode="&#162;" /><glyph d="M473 804 413 750 372 806Q365 816 360 823Q355 830 350.5 836.5Q346 843 342.5 849Q339 855 336 860H334Q320 846 310.5 836.5Q301 827 290 816.5Q279 806 269 798L211 748L166 810L317 928H368Z" glyph-name="circumflex" horiz-adv-x="365" unicode="&#710;" /><glyph d="M80 -10Q69 -10 58.5 -6Q48 -2 40.5 6Q33 14 28.5 24.5Q24 35 24 47Q24 59 28.5 69Q33 79 40.5 87Q48 95 58.5 99Q69 103 80 103Q91 103 101.5 99Q112 95 120 87Q128 79 132.5 69Q137 59 137 47Q137 35 132.5 24.5Q128 14 120 6Q112 -2 102 -6Q92 -10 80 -10ZM149 317Q138 317 127.5 321Q117 325 109.5 333Q102 341 97.5 351.5Q93 362 93 374Q93 386 97.5 396Q102 406 109.5 414Q117 422 127.5 426Q138 430 149 430Q160 430 170.5 426Q181 422 189 414Q197 406 201.5 396Q206 386 206 374Q206 362 201.5 351.5Q197 341 189 333Q181 325 171 321Q161 317 149 317Z" glyph-name="colon" horiz-adv-x="213" unicode=":" /><glyph d="M14 -96 9 -65Q25 -61 38.5 -54.5Q52 -48 62.5 -39.5Q73 -31 78.5 -21.5Q84 -12 85 -2L84 0Q84 0 81 -0.5Q78 -1 76.5 -1.5Q75 -2 73.5 -2Q72 -2 71 -2Q62 -2 54 1Q46 4 40 10Q34 16 30.5 24.5Q27 33 27 43Q27 54 31 63Q35 72 42 78.5Q49 85 58 88.5Q67 92 77 92Q91 92 101 87.5Q111 83 118 74.5Q125 66 128.5 53.5Q132 41 132 24Q132 3 123.5 -16.5Q115 -36 99 -52.5Q83 -69 61.5 -80Q40 -91 14 -96Z" glyph-name="comma" horiz-adv-x="215" unicode="," /><glyph d="M769 350Q769 274 741.5 208Q714 142 665 93Q616 44 549.5 17Q483 -10 408 -10Q332 -10 266 17Q200 44 150.5 93Q101 142 73.5 208Q46 274 46 350Q46 425 73.5 491Q101 557 150.5 606.5Q200 656 266 683Q332 710 408 710Q483 710 549.5 683Q616 656 665 606.5Q714 557 741.5 491Q769 425 769 350ZM408 50Q471 50 525.5 72.5Q580 95 620 135.5Q660 176 682 231Q704 286 704 350Q704 413 682 468Q660 523 620 564Q580 605 525.5 627.5Q471 650 408 650Q345 650 290 627.5Q235 605 194.5 564Q154 523 132 468Q110 413 110 350Q110 286 132 231Q154 176 194.5 135.5Q235 95 290 72.5Q345 50 408 50ZM456 297 508 269Q502 251 493 236Q484 221 471.5 210.5Q459 200 442.5 194Q426 188 406 188Q376 188 353 200.5Q330 213 315 236Q300 259 292.5 289.5Q285 320 285 356Q285 391 292.5 421.5Q300 452 315 475Q330 498 353 510.5Q376 523 406 523Q426 523 442 517.5Q458 512 470.5 501.5Q483 491 491.5 476.5Q500 462 506 444L455 418Q452 430 447.5 438.5Q443 447 437 452.5Q431 458 423.5 460.5Q416 463 406 463Q392 463 381.5 456Q371 449 363.5 435Q356 421 352 401Q348 381 348 356Q348 330 351.5 309.5Q355 289 362.5 275.5Q370 262 381 255Q392 248 406 248Q416 248 424 251.5Q432 255 438 261Q444 267 448 276Q452 285 456 297Z" glyph-name="copyright" horiz-adv-x="783" unicode="&#169;" /><glyph d="M411 193 486 140Q468 105 447 78Q426 51 400 31Q374 11 343 0.5Q312 -10 275 -10Q227 -10 192 7.5Q157 25 136 56Q115 87 105 127.5Q95 168 95 215Q95 225 95 234Q95 243 95.5 253Q96 263 97 273Q98 283 99 293H40L48 327H103L112 373H57L65 407H119Q135 472 158.5 526Q182 580 215 621.5Q248 663 292 686.5Q336 710 391 710Q432 710 463 697Q494 684 514.5 660Q535 636 547 605Q559 574 563 536L475 497Q474 524 469 546.5Q464 569 453.5 585.5Q443 602 426 611.5Q409 621 385 621Q354 621 328 605.5Q302 590 281 561Q260 532 243.5 493.5Q227 455 214 407H389L381 373H206L197 327H371L364 293H192Q191 284 190 275Q189 266 188.5 257.5Q188 249 187.5 240Q187 231 187 223Q187 192 191.5 166Q196 140 206.5 120Q217 100 235.5 89Q254 78 281 78Q302 78 321 86Q340 94 356 109Q372 124 385.5 145Q399 166 411 193Z" glyph-name="currency" horiz-adv-x="549" unicode="&#164;" /><glyph d="M487 85 467 -6Q437 -6 414.5 0Q392 6 377 17Q362 28 353 44.5Q344 61 340 82H338Q327 63 313 46.5Q299 30 281.5 17.5Q264 5 241.5 -2.5Q219 -10 192 -10Q157 -10 130.5 4Q104 18 86 43Q68 68 59 102.5Q50 137 50 179Q50 244 67.5 311Q85 378 117.5 433Q150 488 196 521Q242 554 296 554Q318 554 336 549Q354 544 367.5 534Q381 524 390.5 511Q400 498 406 481H409Q412 499 414 511Q416 523 418.5 537Q421 551 423 562L459 730H551L434 178Q428 149 429.5 130Q431 111 438 100.5Q445 90 454 86Q463 82 473 82Q475 82 476.5 82Q478 82 480 82.5Q482 83 483.5 83.5Q485 84 487 85ZM221 75Q244 75 264 87Q284 99 300 119.5Q316 140 328 166Q340 192 348 222Q357 254 361 269.5Q365 285 370 306Q375 327 378 347.5Q381 368 381 385Q381 403 376.5 418.5Q372 434 362 446Q352 458 337.5 465Q323 472 303 472Q270 472 241 449Q212 426 189.5 385.5Q167 345 154.5 292.5Q142 240 142 183Q142 160 146 140.5Q150 121 159.5 106.5Q169 92 184 83.5Q199 75 221 75Z" glyph-name="d" horiz-adv-x="540" unicode="d" /><glyph d="M178 -100H86L198 423Q194 426 190 428Q186 430 181.5 431.5Q177 433 173 433.5Q169 434 164 434Q152 434 142.5 430Q133 426 125.5 419Q118 412 113 403Q108 394 106 383L39 385Q43 416 52.5 438.5Q62 461 76 476Q90 491 108.5 498.5Q127 506 150 506Q158 506 166 504.5Q174 503 181.5 500.5Q189 498 196 495Q203 492 211 488L278 800H370L297 461Q301 459 304 457.5Q307 456 310 455Q313 454 316.5 453.5Q320 453 324 453Q336 453 346 457Q356 461 363.5 468Q371 475 376 484Q381 493 383 504Q391 504 399 504Q407 504 415 503.5Q423 503 430.5 503Q438 503 449 502Q444 471 435 448Q426 425 412 410Q398 395 379.5 387.5Q361 380 338 380Q331 380 324 381Q317 382 310 383.5Q303 385 296.5 387.5Q290 390 283 393Z" glyph-name="dagger" horiz-adv-x="394" unicode="&#8224;" /><glyph d="M182 -100H91Q111 -7 119 30.5Q127 68 138 120Q149 172 160.5 225.5Q172 279 183 329Q179 332 175 334Q171 336 166.5 337.5Q162 339 157.5 339.5Q153 340 148 340Q136 340 126 336Q116 332 108.5 325Q101 318 95.5 308.5Q90 299 88 288L22 291Q26 321 35.5 343.5Q45 366 59 381Q73 396 91 403.5Q109 411 132 411Q140 411 148.5 409.5Q157 408 165 405.5Q173 403 180.5 399.5Q188 396 196 392Q207 443 210.5 459Q214 475 217 491Q220 507 223 521Q219 524 215 526Q211 528 207 529.5Q203 531 198.5 531.5Q194 532 189 532Q177 532 167.5 528Q158 524 150.5 516.5Q143 509 138 500Q133 491 131 480Q116 481 110.5 481Q105 481 97 481.5Q89 482 80.5 482Q72 482 64 482Q68 513 77.5 536Q87 559 101 574Q115 589 133.5 596.5Q152 604 175 604Q183 604 191 602.5Q199 601 206.5 598.5Q214 596 221.5 592.5Q229 589 237 585L283 800H374L321 556Q323 555 326.5 554Q330 553 333.5 552Q337 551 341 550.5Q345 550 348 550Q360 550 370 554Q380 558 388 565Q396 572 401 581.5Q406 591 408 602L474 600Q469 569 460 546Q451 523 437.5 508Q424 493 406.5 485.5Q389 478 367 478Q359 478 351.5 479Q344 480 337 482Q330 484 323.5 486.5Q317 489 309 493L281 363Q284 361 287 360Q290 359 293 358Q296 357 299.5 356.5Q303 356 306 356Q318 356 327.5 360.5Q337 365 345 372.5Q353 380 358 389.5Q363 399 365 410L432 408Q427 377 417.5 354.5Q408 332 394.5 316.5Q381 301 364 293.5Q347 286 326 286Q317 286 309 287Q301 288 294 290Q287 292 280.5 294.5Q274 297 268 301Q258 257 248.5 212.5Q239 168 225 100.5Q211 33 201.5 -11.5Q192 -56 182 -100Z" glyph-name="daggerdbl" horiz-adv-x="391" unicode="&#8225;" /><glyph d="M215 486Q188 486 167.5 494.5Q147 503 133 517.5Q119 532 112 550.5Q105 569 105 588Q105 613 114 636.5Q123 660 140 678.5Q157 697 182 707.5Q207 718 238 718Q264 718 284 709.5Q304 701 317.5 686.5Q331 672 337.5 654Q344 636 344 618Q344 593 335 569Q326 545 309 526.5Q292 508 268 497Q244 486 215 486ZM216 551Q229 551 240 556.5Q251 562 258.5 571.5Q266 581 270 592Q274 603 274 614Q274 622 271.5 629Q269 636 264 641Q259 646 251.5 649Q244 652 235 652Q222 652 211 646.5Q200 641 192.5 632Q185 623 181 611.5Q177 600 177 589Q177 581 179.5 574Q182 567 186.5 562Q191 557 198.5 554Q206 551 216 551Z" glyph-name="degree" horiz-adv-x="268" unicode="&#176;" /><glyph d="M259 814Q259 804 255.5 795.5Q252 787 245.5 781Q239 775 230 772Q221 769 211 769Q201 769 192.5 772Q184 775 178 781Q172 787 168.5 795.5Q165 804 165 814Q165 824 168.5 832.5Q172 841 178 847Q184 853 192.5 856.5Q201 860 211 860Q221 860 230 856.5Q239 853 245.5 847Q252 841 255.5 832.5Q259 824 259 814ZM410 814Q410 804 406.5 795.5Q403 787 396.5 781Q390 775 381.5 772Q373 769 363 769Q353 769 344.5 772Q336 775 329.5 781Q323 787 319.5 795.5Q316 804 316 814Q316 824 319.5 832.5Q323 841 329.5 847Q336 853 344.5 856.5Q353 860 363 860Q373 860 381.5 856.5Q390 853 396.5 847Q403 841 406.5 832.5Q410 824 410 814Z" glyph-name="dieresis" horiz-adv-x="296" unicode="&#168;" /><glyph d="M375 291H58L75 373H392ZM195 144Q186 144 177.5 147.5Q169 151 162.5 157.5Q156 164 152.5 172.5Q149 181 149 191Q149 201 152.5 209Q156 217 162.5 223.5Q169 230 177.5 233.5Q186 237 195 237Q205 237 213.5 233.5Q222 230 228.5 223.5Q235 217 238.5 209Q242 201 242 191Q242 181 238.5 172.5Q235 164 228.5 157.5Q222 151 213.5 147.5Q205 144 195 144ZM254 425Q245 425 236.5 428.5Q228 432 221.5 438.5Q215 445 211.5 453.5Q208 462 208 472Q208 482 211.5 490Q215 498 221.5 504.5Q228 511 236.5 514.5Q245 518 254 518Q264 518 272.5 514.5Q281 511 287.5 504.5Q294 498 297.5 490Q301 482 301 472Q301 462 297.5 453.5Q294 445 287.5 438.5Q281 432 272.5 428.5Q264 425 254 425Z" glyph-name="divide" horiz-adv-x="370" unicode="&#247;" /><glyph d="M167 -100H104L139 8L142 7Q121 16 102 28Q83 40 68.5 55Q54 70 43 88Q32 106 26 126L106 173Q113 153 127 135.5Q141 118 159.5 105Q178 92 199.5 85Q221 78 244 78Q269 78 291.5 86Q314 94 331 109Q348 124 357.5 145.5Q367 167 367 194Q367 236 339 263Q311 290 248 333Q185 376 152.5 415.5Q120 455 120 516Q120 557 135 593Q150 629 178 655Q206 681 243.5 695.5Q281 710 325 710Q330 710 335 710Q340 710 344.5 709.5Q349 709 354 708.5Q359 708 363 707L398 813H462L422 690H420Q440 681 456.5 668.5Q473 656 485.5 640.5Q498 625 507 607Q516 589 521 569L435 523Q431 544 421 562.5Q411 581 395.5 594Q380 607 360.5 614.5Q341 622 318 622Q297 622 278.5 615Q260 608 245.5 595Q231 582 222.5 563.5Q214 545 214 522Q214 480 241.5 454.5Q269 429 332.5 387.5Q396 346 428.5 306Q461 266 461 204Q461 154 443.5 113.5Q426 73 394.5 45.5Q363 18 322.5 4Q282 -10 236 -10Q231 -10 226 -10Q221 -10 216 -9.5Q211 -9 206 -8.5Q201 -8 196 -7Z" glyph-name="dollar" horiz-adv-x="495" unicode="$" /><glyph d="M157 -100H93L128 7Q110 14 93.5 23.5Q77 33 62.5 44.5Q48 56 36.5 69.5Q25 83 17 98L84 150Q94 132 110.5 118Q127 104 147 94Q167 84 189.5 78.5Q212 73 235 73Q256 73 273 78.5Q290 84 302.5 94Q315 104 321.5 118.5Q328 133 328 150Q328 184 302.5 201Q277 218 214.5 247.5Q152 277 120.5 308.5Q89 340 89 395Q89 429 102 458Q115 487 140 508.5Q165 530 200 541.5Q235 553 277 553Q279 553 281.5 553Q284 553 287.5 552.5Q291 552 293.5 552Q296 552 298 552L330 651H394L358 540Q375 535 390.5 527.5Q406 520 420 510.5Q434 501 445.5 490Q457 479 466 466L394 410Q386 425 373 437.5Q360 450 343.5 458.5Q327 467 309 471.5Q291 476 272 476Q253 476 236 471.5Q219 467 206 457.5Q193 448 185.5 433.5Q178 419 178 401Q178 371 202 355.5Q226 340 290 309.5Q354 279 386 246.5Q418 214 418 161Q418 123 404.5 91.5Q391 60 365.5 37.5Q340 15 304.5 2.5Q269 -10 226 -10Q221 -10 216 -10Q211 -10 206 -9.5Q201 -9 196 -8.5Q191 -8 186 -7Z" glyph-name="dollar.osf" horiz-adv-x="464" /><glyph d="M276 774Q267 774 259 777.5Q251 781 245 787Q239 793 235.5 801Q232 809 232 819Q232 828 235.5 836Q239 844 245 850Q251 856 259 859.5Q267 863 276 863Q285 863 293 859.5Q301 856 307.5 850Q314 844 317.5 836Q321 828 321 819Q321 809 317.5 801Q314 793 307.5 787Q301 781 293 777.5Q285 774 276 774Z" glyph-name="dotaccent" horiz-adv-x="250" unicode="&#729;" /><glyph d="M209 89 189 -2Q153 -2 127 5Q101 12 84.5 26Q68 40 60 60.5Q52 81 52 108Q52 114 52.5 120.5Q53 127 54 134Q55 141 56 148Q57 155 59 163L120 448Q123 460 124.5 472Q126 484 127.5 494.5Q129 505 129.5 514Q130 523 130 530Q130 533 130 535Q130 537 130 538.5Q130 540 129.5 542Q129 544 129 545H216Q216 543 216.5 541Q217 539 217 536Q217 533 217 529Q217 520 216.5 507Q216 494 214 476.5Q212 459 208 437Q204 415 199 390L150 159Q149 154 148 149.5Q147 145 146.5 141.5Q146 138 146 134.5Q146 131 146 128Q146 117 148.5 109Q151 101 156.5 96Q162 91 169.5 88.5Q177 86 186 86Q189 86 191.5 86Q194 86 197 86.5Q200 87 203 87.5Q206 88 209 89Z" glyph-name="dotlessi" horiz-adv-x="275" unicode="&#305;" /><glyph d="M375 149 436 86Q414 63 392.5 45.5Q371 28 348 15.5Q325 3 299.5 -3.5Q274 -10 246 -10Q197 -10 160 6.5Q123 23 98.5 52.5Q74 82 62 122Q50 162 50 210Q50 270 68 331Q86 392 119.5 443Q153 494 201 524.5Q249 555 306 555Q351 555 384.5 540Q418 525 439.5 497.5Q461 470 471.5 434Q482 398 482 356Q482 347 481.5 337Q481 327 480 317Q479 307 477.5 297Q476 287 474 277L468 242H146Q145 238 144.5 233.5Q144 229 144 225.5Q144 222 144 218Q144 214 144 209Q144 177 151 151.5Q158 126 172 108Q186 90 206 81Q226 72 251 72Q269 72 286 77.5Q303 83 319.5 93.5Q336 104 350 118Q364 132 375 149ZM159 311H391Q391 316 391.5 320.5Q392 325 392.5 329.5Q393 334 393 339Q393 344 393 348Q393 376 387.5 400Q382 424 370.5 441.5Q359 459 342.5 468.5Q326 478 304 478Q278 478 255 465Q232 452 213.5 429Q195 406 181 375.5Q167 345 159 311Z" glyph-name="e" horiz-adv-x="505" unicode="e" /><glyph d="M375 149 436 86Q414 63 392.5 45.5Q371 28 348 15.5Q325 3 299.5 -3.5Q274 -10 246 -10Q197 -10 160 6.5Q123 23 98.5 52.5Q74 82 62 122Q50 162 50 210Q50 270 68 331Q86 392 119.5 443Q153 494 201 524.5Q249 555 306 555Q351 555 384.5 540Q418 525 439.5 497.5Q461 470 471.5 434Q482 398 482 356Q482 347 481.5 337Q481 327 480 317Q479 307 477.5 297Q476 287 474 277L468 242H146Q145 238 144.5 233.5Q144 229 144 225.5Q144 222 144 218Q144 214 144 209Q144 177 151 151.5Q158 126 172 108Q186 90 206 81Q226 72 251 72Q269 72 286 77.5Q303 83 319.5 93.5Q336 104 350 118Q364 132 375 149ZM159 311H391Q391 316 391.5 320.5Q392 325 392.5 329.5Q393 334 393 339Q393 344 393 348Q393 376 387.5 400Q382 424 370.5 441.5Q359 459 342.5 468.5Q326 478 304 478Q278 478 255 465Q232 452 213.5 429Q195 406 181 375.5Q167 345 159 311ZM460 680 236 586 208 646 426 752Z" glyph-name="eacute" horiz-adv-x="505" unicode="&#233;" /><glyph d="M375 149 436 86Q414 63 392.5 45.5Q371 28 348 15.5Q325 3 299.5 -3.5Q274 -10 246 -10Q197 -10 160 6.5Q123 23 98.5 52.5Q74 82 62 122Q50 162 50 210Q50 270 68 331Q86 392 119.5 443Q153 494 201 524.5Q249 555 306 555Q351 555 384.5 540Q418 525 439.5 497.5Q461 470 471.5 434Q482 398 482 356Q482 347 481.5 337Q481 327 480 317Q479 307 477.5 297Q476 287 474 277L468 242H146Q145 238 144.5 233.5Q144 229 144 225.5Q144 222 144 218Q144 214 144 209Q144 177 151 151.5Q158 126 172 108Q186 90 206 81Q226 72 251 72Q269 72 286 77.5Q303 83 319.5 93.5Q336 104 350 118Q364 132 375 149ZM159 311H391Q391 316 391.5 320.5Q392 325 392.5 329.5Q393 334 393 339Q393 344 393 348Q393 376 387.5 400Q382 424 370.5 441.5Q359 459 342.5 468.5Q326 478 304 478Q278 478 255 465Q232 452 213.5 429Q195 406 181 375.5Q167 345 159 311ZM490 649 430 595 389 651Q382 661 377 668Q372 675 367.5 681.5Q363 688 359.5 694Q356 700 353 705H351Q337 691 327.5 681.5Q318 672 307 661.5Q296 651 286 643L228 593L183 655L334 773H385Z" glyph-name="ecircumflex" horiz-adv-x="505" unicode="&#234;" /><glyph d="M375 149 436 86Q414 63 392.5 45.5Q371 28 348 15.5Q325 3 299.5 -3.5Q274 -10 246 -10Q197 -10 160 6.5Q123 23 98.5 52.5Q74 82 62 122Q50 162 50 210Q50 270 68 331Q86 392 119.5 443Q153 494 201 524.5Q249 555 306 555Q351 555 384.5 540Q418 525 439.5 497.5Q461 470 471.5 434Q482 398 482 356Q482 347 481.5 337Q481 327 480 317Q479 307 477.5 297Q476 287 474 277L468 242H146Q145 238 144.5 233.5Q144 229 144 225.5Q144 222 144 218Q144 214 144 209Q144 177 151 151.5Q158 126 172 108Q186 90 206 81Q226 72 251 72Q269 72 286 77.5Q303 83 319.5 93.5Q336 104 350 118Q364 132 375 149ZM159 311H391Q391 316 391.5 320.5Q392 325 392.5 329.5Q393 334 393 339Q393 344 393 348Q393 376 387.5 400Q382 424 370.5 441.5Q359 459 342.5 468.5Q326 478 304 478Q278 478 255 465Q232 452 213.5 429Q195 406 181 375.5Q167 345 159 311ZM306 668Q306 658 302.5 649.5Q299 641 292.5 635Q286 629 277 626Q268 623 258 623Q248 623 239.5 626Q231 629 225 635Q219 641 215.5 649.5Q212 658 212 668Q212 678 215.5 686.5Q219 695 225 701Q231 707 239.5 710.5Q248 714 258 714Q268 714 277 710.5Q286 707 292.5 701Q299 695 302.5 686.5Q306 678 306 668ZM457 668Q457 658 453.5 649.5Q450 641 443.5 635Q437 629 428.5 626Q420 623 410 623Q400 623 391.5 626Q383 629 376.5 635Q370 641 366.5 649.5Q363 658 363 668Q363 678 366.5 686.5Q370 695 376.5 701Q383 707 391.5 710.5Q400 714 410 714Q420 714 428.5 710.5Q437 707 443.5 701Q450 695 453.5 686.5Q457 678 457 668Z" glyph-name="edieresis" horiz-adv-x="505" unicode="&#235;" /><glyph d="M375 149 436 86Q414 63 392.5 45.5Q371 28 348 15.5Q325 3 299.5 -3.5Q274 -10 246 -10Q197 -10 160 6.5Q123 23 98.5 52.5Q74 82 62 122Q50 162 50 210Q50 270 68 331Q86 392 119.5 443Q153 494 201 524.5Q249 555 306 555Q351 555 384.5 540Q418 525 439.5 497.5Q461 470 471.5 434Q482 398 482 356Q482 347 481.5 337Q481 327 480 317Q479 307 477.5 297Q476 287 474 277L468 242H146Q145 238 144.5 233.5Q144 229 144 225.5Q144 222 144 218Q144 214 144 209Q144 177 151 151.5Q158 126 172 108Q186 90 206 81Q226 72 251 72Q269 72 286 77.5Q303 83 319.5 93.5Q336 104 350 118Q364 132 375 149ZM159 311H391Q391 316 391.5 320.5Q392 325 392.5 329.5Q393 334 393 339Q393 344 393 348Q393 376 387.5 400Q382 424 370.5 441.5Q359 459 342.5 468.5Q326 478 304 478Q278 478 255 465Q232 452 213.5 429Q195 406 181 375.5Q167 345 159 311ZM450 587 226 681 260 753 478 647Z" glyph-name="egrave" horiz-adv-x="505" unicode="&#232;" /><glyph d="M392 386V384Q414 376 431.5 361.5Q449 347 460.5 328.5Q472 310 478 288.5Q484 267 484 243Q484 193 467.5 147.5Q451 102 418.5 66.5Q386 31 338.5 10.5Q291 -10 232 -10Q186 -10 150 3.5Q114 17 89 41.5Q64 66 51.5 99Q39 132 39 169Q39 208 50.5 243.5Q62 279 84 308.5Q106 338 137 359.5Q168 381 207 391V393Q193 401 181 412Q169 423 161 437Q153 451 148.5 468Q144 485 144 504Q144 545 158 582Q172 619 198.5 648Q225 677 264 693.5Q303 710 351 710Q391 710 421 697.5Q451 685 471 664Q491 643 500.5 616.5Q510 590 510 562Q510 534 501.5 506.5Q493 479 477 455.5Q461 432 439.5 414Q418 396 392 386ZM241 76Q275 76 303 89Q331 102 351 124.5Q371 147 382 176Q393 205 393 237Q393 259 386 278Q379 297 365.5 311.5Q352 326 331.5 334.5Q311 343 285 343Q251 343 223 330.5Q195 318 175 295.5Q155 273 144 244Q133 215 133 183Q133 161 140 141.5Q147 122 160.5 107Q174 92 194.5 84Q215 76 241 76ZM311 429Q335 429 355 439.5Q375 450 389 468Q403 486 410.5 507.5Q418 529 418 550Q418 565 413 578.5Q408 592 398.5 602Q389 612 375 618Q361 624 342 624Q319 624 299 615Q279 606 264 590Q249 574 241 552Q233 530 233 505Q233 489 238 475.5Q243 462 253 451.5Q263 441 277.5 435Q292 429 311 429Z" glyph-name="eight" horiz-adv-x="508" unicode="8" /><glyph d="M373 355V353Q396 343 413.5 329.5Q431 316 443 298.5Q455 281 461 259.5Q467 238 467 212Q467 168 451 128Q435 88 404 57Q373 26 328.5 8Q284 -10 230 -10Q183 -10 146.5 3Q110 16 85.5 39Q61 62 48.5 92.5Q36 123 36 159Q36 194 47.5 226Q59 258 80.5 284.5Q102 311 133 330.5Q164 350 202 360V362Q187 370 175.5 381.5Q164 393 156.5 407Q149 421 145 436.5Q141 452 141 468Q141 502 154 532.5Q167 563 192 587Q217 611 252.5 624.5Q288 638 330 638Q367 638 396 627.5Q425 617 445 598.5Q465 580 475 556Q485 532 485 504Q485 479 476.5 455.5Q468 432 453 412Q438 392 417.5 377.5Q397 363 373 355ZM377 213Q377 233 370.5 251Q364 269 350.5 283Q337 297 317 305Q297 313 271 313Q239 313 212.5 301Q186 289 167.5 268.5Q149 248 139.5 222.5Q130 197 130 172Q130 151 136.5 133.5Q143 116 156.5 103Q170 90 190.5 82.5Q211 75 238 75Q269 75 294.5 86Q320 97 338.5 116.5Q357 136 367 161Q377 186 377 213ZM298 388Q321 388 339.5 396.5Q358 405 371 420Q384 435 391 453Q398 471 398 490Q398 505 393.5 518Q389 531 380 540.5Q371 550 357.5 555.5Q344 561 326 561Q305 561 287 553Q269 545 255.5 531Q242 517 235 498Q228 479 228 458Q228 444 232 431Q236 418 244.5 408.5Q253 399 266.5 393.5Q280 388 298 388Z" glyph-name="eight.osf" horiz-adv-x="490" /><glyph d="M80 -10Q69 -10 58.5 -6Q48 -2 40.5 6Q33 14 28.5 24.5Q24 35 24 47Q24 59 28.5 69Q33 79 40.5 87Q48 95 58.5 99Q69 103 80 103Q91 103 101.5 99Q112 95 120 87Q128 79 132.5 69Q137 59 137 47Q137 35 132.5 24.5Q128 14 120 6Q112 -2 102 -6Q92 -10 80 -10ZM240 -10Q229 -10 218.5 -6Q208 -2 200.5 6Q193 14 188.5 24.5Q184 35 184 47Q184 59 188.5 69Q193 79 200.5 87Q208 95 218.5 99Q229 103 240 103Q251 103 261.5 99Q272 95 280 87Q288 79 292.5 69Q297 59 297 47Q297 35 292.5 24.5Q288 14 280 6Q272 -2 262 -6Q252 -10 240 -10ZM401 -10Q390 -10 379.5 -6Q369 -2 361.5 6Q354 14 349.5 24.5Q345 35 345 47Q345 59 349.5 69Q354 79 361.5 87Q369 95 379.5 99Q390 103 401 103Q412 103 422.5 99Q433 95 441 87Q449 79 453.5 69Q458 59 458 47Q458 35 453.5 24.5Q449 14 441 6Q433 -2 423 -6Q413 -10 401 -10Z" glyph-name="ellipsis" horiz-adv-x="536" unicode="&#8230;" /><glyph d="M585 291H68L85 373H603Z" glyph-name="emdash" horiz-adv-x="607" unicode="&#8212;" /><glyph d="M382 291H65L82 373H399Z" glyph-name="endash" horiz-adv-x="407" unicode="&#8211;" /><glyph d="M315 234H50L66 309H331ZM348 390H83L99 465H364Z" glyph-name="equal" horiz-adv-x="344" unicode="=" /><glyph d="M487 85 467 -6Q433 -6 410 0Q387 6 372.5 18Q358 30 351 46.5Q344 63 340 86H338Q327 65 313.5 48Q300 31 282.5 18Q265 5 242 -2.5Q219 -10 192 -10Q157 -10 130.5 3.5Q104 17 86.5 42.5Q69 68 60 102.5Q51 137 51 178Q51 255 69.5 321.5Q88 388 121.5 437.5Q155 487 199.5 514Q244 541 294 541Q316 541 334 535.5Q352 530 366 520Q380 510 389 496Q398 482 403 465H405Q406 468 408.5 478Q411 488 413.5 502Q416 516 417.5 531.5Q419 547 419 561Q419 567 418.5 573.5Q418 580 417 585.5Q416 591 414.5 596.5Q413 602 411 607Q405 602 399 597Q393 592 383.5 585Q374 578 367.5 573Q361 568 355 563L331 593L385 639Q376 646 365 651Q354 656 341 658.5Q328 661 313.5 662.5Q299 664 282 664L300 749Q322 748 342.5 744Q363 740 381.5 733.5Q400 727 416.5 717.5Q433 708 446 696L517 759Q523 752 526.5 747.5Q530 743 534 738Q538 733 542.5 728Q547 723 551 718L479 661Q486 650 491 638Q496 626 499.5 612.5Q503 599 505 584Q507 569 507 553Q507 548 506.5 538.5Q506 529 504.5 516Q503 503 500.5 487.5Q498 472 494 455L432 172Q427 152 427.5 135.5Q428 119 433 107Q438 95 448 89Q458 83 473 83Q475 83 477.5 83.5Q480 84 482 84Q484 84 487 85ZM360 270 376 342Q377 345 377.5 348.5Q378 352 378.5 356.5Q379 361 379 365.5Q379 370 379 373Q379 391 374 406.5Q369 422 359 433.5Q349 445 334.5 452Q320 459 301 459Q268 459 239 438Q210 417 188.5 379Q167 341 155 291Q143 241 143 186Q143 162 147 142Q151 122 159.5 107Q168 92 183.5 83.5Q199 75 221 75Q253 75 277.5 97Q302 119 318.5 150.5Q335 182 344.5 212Q354 242 360 270Z" glyph-name="eth" horiz-adv-x="538" unicode="&#240;" /><glyph d="M160 184H67L177 700H269ZM83 -10Q72 -10 61.5 -6Q51 -2 43.5 6Q36 14 31.5 24.5Q27 35 27 47Q27 59 31.5 69Q36 79 43.5 87Q51 95 61.5 99Q72 103 83 103Q94 103 104.5 99Q115 95 123 87Q131 79 135.5 69Q140 59 140 47Q140 35 135.5 24.5Q131 14 123 6Q115 -2 105 -6Q95 -10 83 -10Z" glyph-name="exclam" horiz-adv-x="225" unicode="!" /><glyph d="M119 0H27L137 515H229ZM211 596Q200 596 189.5 600Q179 604 171.5 612Q164 620 159.5 630.5Q155 641 155 653Q155 665 159.5 675Q164 685 171.5 693Q179 701 189.5 705Q200 709 211 709Q222 709 232.5 705Q243 701 251 693Q259 685 263.5 675Q268 665 268 653Q268 641 263.5 630.5Q259 620 251 612Q243 604 233 600Q223 596 211 596Z" glyph-name="exclamdown" horiz-adv-x="225" unicode="&#161;" /><glyph d="M139 0H47L146 466H74L91 545H162L172 591Q181 631 195.5 661Q210 691 231 711.5Q252 732 280.5 742Q309 752 344 752Q355 752 366 751Q377 750 387 748Q397 746 407.5 743Q418 740 428 736L391 655Q386 659 380 662Q374 665 368 666.5Q362 668 355.5 669Q349 670 342 670Q327 670 315 665.5Q303 661 293 651.5Q283 642 276.5 628Q270 614 266 596Q264 588 262.5 582Q261 576 260 570Q259 564 257.5 557.5Q256 551 255 545H354L337 466H238Z" glyph-name="f" horiz-adv-x="321" unicode="f" /><glyph d="M139 0H47L146 466H74L91 545H162L172 591Q181 631 195.5 661Q210 691 231 711.5Q252 732 280.5 742Q309 752 344 752Q355 752 366 751Q377 750 387 748Q397 746 407.5 743Q418 740 428 736L391 655Q386 659 380 662Q374 665 368 666.5Q362 668 355.5 669Q349 670 342 670Q327 670 315 665.5Q303 661 293 651.5Q283 642 276.5 628Q270 614 266 596Q264 588 262.5 582Q261 576 260 570Q259 564 257.5 557.5Q256 551 255 545H354L337 466H238ZM534 83 514 -8Q478 -8 451.5 -0.5Q425 7 409 21Q393 35 385 55Q377 75 377 102Q377 108 377.5 114.5Q378 121 379 128Q380 135 381 142Q382 149 384 157L445 448Q447 460 449.5 472.5Q452 485 453 497.5Q454 510 454.5 522.5Q455 535 454 545H541Q541 542 541.5 539Q542 536 542 533.5Q542 531 542 528.5Q542 526 542 521Q542 512 541.5 501.5Q541 491 539.5 481Q538 471 537 462Q536 453 534 446L475 153Q473 139 472.5 135.5Q472 132 471.5 128.5Q471 125 471 122Q471 109 474.5 101Q478 93 484.5 88.5Q491 84 498.5 82Q506 80 515 80Q519 80 523 80.5Q527 81 529 81.5Q531 82 534 83ZM526 620Q515 620 504.5 624Q494 628 486.5 636Q479 644 474.5 654.5Q470 665 470 677Q470 689 474.5 699Q479 709 486.5 717Q494 725 504.5 729Q515 733 526 733Q537 733 547.5 729Q558 725 566 717Q574 709 578.5 699Q583 689 583 677Q583 665 578.5 654.5Q574 644 566 636Q558 628 548 624Q538 620 526 620Z" glyph-name="fi" horiz-adv-x="584" unicode="&#64257;" /><glyph d="M51 144 139 190Q140 164 149 143.5Q158 123 172.5 108.5Q187 94 207 86.5Q227 79 250 79Q280 79 304.5 92.5Q329 106 346.5 129Q364 152 373 180.5Q382 209 382 238Q382 261 376 281Q370 301 357.5 316.5Q345 332 327.5 340.5Q310 349 287 349Q270 349 255 345.5Q240 342 227.5 336.5Q215 331 204 324Q193 317 181 307L111 347L220 700H520L501 608H279L217 415L219 414Q224 418 231.5 421.5Q239 425 249.5 427.5Q260 430 272.5 432Q285 434 300 434Q342 434 375 419.5Q408 405 431 379.5Q454 354 465.5 320Q477 286 477 248Q477 198 462.5 152Q448 106 419.5 69.5Q391 33 348 11.5Q305 -10 249 -10Q208 -10 173 2Q138 14 112 35Q86 56 70.5 84Q55 112 51 144Z" glyph-name="five" horiz-adv-x="514" unicode="5" /><glyph d="M461 453H238Q232 433 224 409.5Q216 386 208.5 364Q201 342 195 324.5Q189 307 185 299Q185 299 185.5 299Q186 299 186 298.5Q186 298 186.5 298Q187 298 187 298Q197 303 206.5 307Q216 311 226.5 314Q237 317 249.5 319Q262 321 276 321Q318 321 350 308Q382 295 403 271Q424 247 434.5 216.5Q445 186 445 150Q445 102 429.5 57.5Q414 13 384 -21.5Q354 -56 310 -76Q266 -96 210 -96Q174 -96 142 -86.5Q110 -77 84.5 -59.5Q59 -42 42.5 -18.5Q26 5 20 33L111 85Q114 65 122 48Q130 31 143 18.5Q156 6 173.5 -1Q191 -8 212 -8Q244 -8 269.5 4Q295 16 312.5 37.5Q330 59 339 85.5Q348 112 348 141Q348 161 342 177Q336 193 324 204.5Q312 216 294 222.5Q276 229 252 229Q236 229 221 225.5Q206 222 192.5 216.5Q179 211 168.5 204.5Q158 198 149 191L80 232L180 544H480Q477 531 475 520Q473 509 470.5 497.5Q468 486 466 475Q464 464 461 453Z" glyph-name="five.osf" horiz-adv-x="496" /><glyph d="M139 0H47L146 466H74L91 545H162L172 591Q181 631 195.5 661Q210 691 231 711.5Q252 732 280.5 742Q309 752 344 752Q355 752 366 751Q377 750 387 748Q397 746 407.5 743Q418 740 428 736L391 655Q386 659 380 662Q374 665 368 666.5Q362 668 355.5 669Q349 670 342 670Q327 670 315 665.5Q303 661 293 651.5Q283 642 276.5 628Q270 614 266 596Q264 588 262.5 582Q261 576 260 570Q259 564 257.5 557.5Q256 551 255 545H354L337 466H238ZM536 83 516 -8Q480 -8 454 -0.5Q428 7 411.5 21Q395 35 387 55.5Q379 76 379 102Q379 108 379.5 114.5Q380 121 381 128Q382 135 383 142Q384 149 386 157L507 730H600L478 153Q477 149 476 144Q475 139 474.5 134.5Q474 130 473.5 126Q473 122 473 119Q473 110 476 102.5Q479 95 484.5 90Q490 85 498 82.5Q506 80 517 80Q519 80 521.5 80Q524 80 526 80.5Q528 81 530.5 81.5Q533 82 536 83Z" glyph-name="fl" horiz-adv-x="600" unicode="&#64258;" /><glyph d="M418 332H295V298Q295 238 283.5 184Q272 130 246.5 86.5Q221 43 177.5 17.5Q134 -8 72 -8Q66 -8 59.5 -7.5Q53 -7 42 -6Q31 -5 29 -5L40 79Q46 79 50.5 78.5Q55 78 59.5 78Q64 78 68 78Q110 78 137 96.5Q164 115 178.5 146Q193 177 198.5 215Q204 253 204 298V332H77L84 370H202Q202 377 202 384.5Q202 392 201.5 403Q201 414 201 421Q201 428 201 435Q201 498 215 548Q229 598 257 633.5Q285 669 325.5 687.5Q366 706 418 706Q425 706 431 706Q437 706 441 705.5Q445 705 450 705L438 619Q437 619 431 619.5Q425 620 421.5 620Q418 620 414 620Q386 620 363 606Q340 592 324 566Q308 540 300 505Q292 470 293 430Q293 426 293 424.5Q293 423 293.5 409.5Q294 396 294 387Q294 378 294 370H425Z" glyph-name="florin" horiz-adv-x="425" unicode="&#402;" /><glyph d="M325 0H230L262 150H10V152L376 700H473L375 239H458L439 150H356ZM287 233 354 543H352Q352 543 350.5 540Q349 537 341.5 523.5Q334 510 328 498.5Q322 487 315 476L222 324Q212 307 201 291Q190 275 180.5 262Q171 249 165 241.5Q159 234 159 234V233Z" glyph-name="four" horiz-adv-x="478" unicode="4" /><glyph d="M296 -86H203L237 71H-22V73L340 556H432L348 159H431L412 71H329ZM260 154 300 342Q302 353 305 364Q308 375 310 384.5Q312 394 315 407H313Q312 406 305.5 395Q299 384 288.5 368Q278 352 264.5 333Q251 314 238 296L188 230Q174 212 165.5 200.5Q157 189 150 180.5Q143 172 137.5 166Q132 160 128 156V154Z" glyph-name="four.osf" horiz-adv-x="464" /><glyph d="M24 0H-52L423 700H500Z" glyph-name="fraction" horiz-adv-x="403" unicode="&#8260;" /><glyph d="M319 85H317Q307 70 295 57.5Q283 45 267.5 35.5Q252 26 233 20.5Q214 15 192 15Q157 15 130.5 28.5Q104 42 86 67Q68 92 59 126.5Q50 161 50 202Q50 267 66.5 330Q83 393 115 444Q147 495 192 524.5Q237 554 291 554Q315 554 334 548Q353 542 367 531Q381 520 390.5 505Q400 490 406 471H408Q411 484 415.5 497Q420 510 424.5 520.5Q429 531 436 545H519Q516 539 512 530Q508 521 504 510Q500 499 496.5 486.5Q493 474 490 461L395 16Q383 -42 363.5 -85.5Q344 -129 316.5 -158Q289 -187 251.5 -202Q214 -217 167 -217Q137 -217 110.5 -210Q84 -203 62.5 -190.5Q41 -178 24.5 -161Q8 -144 -3 -124L69 -65Q77 -80 88 -92Q99 -104 112.5 -113Q126 -122 143 -126.5Q160 -131 179 -131Q211 -131 234 -115.5Q257 -100 272 -72Q287 -44 297.5 -7Q308 30 319 85ZM223 100Q245 100 265.5 110.5Q286 121 303.5 141.5Q321 162 334.5 192.5Q348 223 356 262Q357 269 362 290Q367 311 370.5 326.5Q374 342 376 357Q378 372 378 384Q378 402 373 418Q368 434 358 446Q348 458 332.5 465Q317 472 298 472Q257 472 227 445.5Q197 419 178 377.5Q159 336 150.5 290.5Q142 245 142 207Q142 184 146.5 164.5Q151 145 160 130.5Q169 116 185 108Q201 100 223 100Z" glyph-name="g" horiz-adv-x="499" unicode="g" /><glyph d="M171 36 219 111Q225 103 233 96.5Q241 90 251.5 84.5Q262 79 276 76Q290 73 308 73Q326 73 342 80Q358 87 369.5 99Q381 111 387 125.5Q393 140 393 155Q393 187 376 209Q359 231 324 261Q289 291 271.5 315.5Q254 340 254 375Q254 413 273 437Q292 461 330 489Q368 517 386 537.5Q404 558 404 591Q404 607 399 619.5Q394 632 385 641Q376 650 362.5 655Q349 660 333 660Q309 660 291.5 648Q274 636 262.5 615.5Q251 595 244 570Q237 545 229 509L122 0H29L146 549Q156 596 172.5 631.5Q189 667 212.5 691.5Q236 716 268 728.5Q300 741 340 741Q372 741 399.5 732Q427 723 447.5 705Q468 687 479.5 661.5Q491 636 491 603Q491 553 471.5 522Q452 491 410.5 460Q369 429 357 418.5Q345 408 345 383Q345 358 359 344Q373 330 412 299Q451 268 470 238.5Q489 209 489 164Q489 126 477 94.5Q465 63 441 39.5Q417 16 382 3.5Q347 -9 303 -9Q281 -9 259 -4.5Q237 0 219 7.5Q201 15 188.5 22.5Q176 30 171 36Z" glyph-name="germandbls" horiz-adv-x="534" unicode="&#223;" /><glyph d="M321 734 97 828 131 900 349 794Z" glyph-name="grave" horiz-adv-x="239" unicode="`" /><glyph d="M148 554 345 381 335 330 66 159 30 224 165 307Q184 319 200 328Q216 337 228.5 344.5Q241 352 250 357Q259 362 263 363V365Q257 369 250 374Q243 379 232.5 387.5Q222 396 208.5 406.5Q195 417 180 430L102 496Z" glyph-name="greater" horiz-adv-x="294" unicode="&gt;" /><glyph d="M216 224 153 174 24 320 38 387 229 532 278 474 182 406Q168 396 152.5 386Q137 376 123.5 367.5Q110 359 99 352.5Q88 346 88 346V344Q91 342 95.5 338Q100 334 108 327.5Q116 321 127 310.5Q138 300 151 288ZM397 224 334 174 205 320 219 387 410 532 459 474 363 406Q349 396 333.5 386Q318 376 304.5 367.5Q291 359 280 352.5Q269 346 269 346V344Q272 342 276.5 338Q281 334 289 327.5Q297 321 308 310.5Q319 300 332 288Z" glyph-name="guillemotleft" horiz-adv-x="390" unicode="&#171;" /><glyph d="M56 481 119 531 248 385 234 318 43 173 -6 231 90 299Q104 309 119.5 319Q135 329 148.5 337.5Q162 346 173 352.5Q184 359 184 359V361Q181 363 176.5 367Q172 371 164 377.5Q156 384 145 394.5Q134 405 121 417ZM240 481 303 531 432 385 418 318 227 173 178 231 274 299Q288 309 303.5 319Q319 329 332.5 337.5Q346 346 357 352.5Q368 359 368 359V361Q365 363 360.5 367Q356 371 348 377.5Q340 384 329 394.5Q318 405 305 417Z" glyph-name="guillemotright" horiz-adv-x="393" unicode="&#187;" /><glyph d="M218 224 155 174 26 320 40 387 231 532 280 474 184 406Q170 396 154.5 386Q139 376 125.5 367.5Q112 359 101 352.5Q90 346 90 346V344Q93 342 97.5 338Q102 334 110 327.5Q118 321 129 310.5Q140 300 153 288Z" glyph-name="guilsinglleft" horiz-adv-x="222" unicode="&#8249;" /><glyph d="M73 481 136 531 265 385 251 318 60 173 11 231 107 299Q121 309 136.5 319Q152 329 165.5 337.5Q179 346 190 352.5Q201 359 201 359V361Q198 363 193.5 367Q189 371 181 377.5Q173 384 162 394.5Q151 405 138 417Z" glyph-name="guilsinglright" horiz-adv-x="224" unicode="&#8250;" /><glyph d="M499 85 479 -6Q444 -6 418 1Q392 8 375 22Q358 36 350 56Q342 76 342 103Q342 110 342.5 116.5Q343 123 344 130Q345 137 346 143.5Q347 150 349 158L389 347Q391 354 392 360.5Q393 367 393.5 373Q394 379 394.5 385.5Q395 392 395 398Q395 415 392 429Q389 443 381 453.5Q373 464 359.5 470Q346 476 325 476Q303 476 283.5 469Q264 462 247.5 448.5Q231 435 219 413.5Q207 392 201 364L122 0H29L184 730H277L246 583Q242 565 239 551Q236 537 233 524.5Q230 512 227.5 501.5Q225 491 222 483H224Q238 502 253.5 515.5Q269 529 286 537.5Q303 546 321.5 550.5Q340 555 360 555Q392 555 416 545Q440 535 455.5 516Q471 497 479 471Q487 445 487 412Q487 404 486.5 395Q486 386 485 376Q484 366 482.5 355.5Q481 345 479 335L440 154Q438 142 437.5 138.5Q437 135 436.5 131.5Q436 128 436 124Q436 113 439 105Q442 97 447.5 92Q453 87 461 84.5Q469 82 479 82Q482 82 484.5 82Q487 82 489 82.5Q491 83 493.5 83.5Q496 84 499 85Z" glyph-name="h" horiz-adv-x="552" unicode="h" /><glyph d="M220 751H147L199 935H284ZM335 751H262L314 935H398Z" glyph-name="hungarumlaut" horiz-adv-x="334" unicode="&#733;" /><glyph d="M290 291H53L71 373H307Z" glyph-name="hyphen" horiz-adv-x="311" unicode="-" /><glyph d="M209 83 189 -8Q153 -8 126.5 -0.5Q100 7 84 21Q68 35 60 55Q52 75 52 102Q52 108 52.5 114.5Q53 121 54 128Q55 135 56 142Q57 149 59 157L120 448Q122 460 124.5 472.5Q127 485 128 497.5Q129 510 129.5 522.5Q130 535 129 545H216Q216 542 216.5 539Q217 536 217 533.5Q217 531 217 528.5Q217 526 217 521Q217 512 216.5 501.5Q216 491 214.5 481Q213 471 212 462Q211 453 209 446L150 153Q148 139 147.5 135.5Q147 132 146.5 128.5Q146 125 146 122Q146 109 149.5 101Q153 93 159.5 88.5Q166 84 173.5 82Q181 80 190 80Q194 80 198 80.5Q202 81 204 81.5Q206 82 209 83ZM201 620Q190 620 179.5 624Q169 628 161.5 636Q154 644 149.5 654.5Q145 665 145 677Q145 689 149.5 699Q154 709 161.5 717Q169 725 179.5 729Q190 733 201 733Q212 733 222.5 729Q233 725 241 717Q249 709 253.5 699Q258 689 258 677Q258 665 253.5 654.5Q249 644 241 636Q233 628 223 624Q213 620 201 620Z" glyph-name="i" horiz-adv-x="270" unicode="i" /><glyph d="M311 674 134 583 103 641 272 744ZM209 89 189 -2Q153 -2 127 5Q101 12 84.5 26Q68 40 60 60.5Q52 81 52 108Q52 114 52.5 120.5Q53 127 54 134Q55 141 56 148Q57 155 59 163L120 448Q123 460 124.5 472Q126 484 127.5 494.5Q129 505 129.5 514Q130 523 130 530Q130 533 130 535Q130 537 130 538.5Q130 540 129.5 542Q129 544 129 545H216Q216 543 216.5 541Q217 539 217 536Q217 533 217 529Q217 520 216.5 507Q216 494 214 476.5Q212 459 208 437Q204 415 199 390L150 159Q149 154 148 149.5Q147 145 146.5 141.5Q146 138 146 134.5Q146 131 146 128Q146 117 148.5 109Q151 101 156.5 96Q162 91 169.5 88.5Q177 86 186 86Q189 86 191.5 86Q194 86 197 86.5Q200 87 203 87.5Q206 88 209 89Z" glyph-name="iacute" horiz-adv-x="275" unicode="&#237;" /><glyph d="M209 89 189 -2Q153 -2 127 5Q101 12 84.5 26Q68 40 60 60.5Q52 81 52 108Q52 114 52.5 120.5Q53 127 54 134Q55 141 56 148Q57 155 59 163L120 448Q123 460 124.5 472Q126 484 127.5 494.5Q129 505 129.5 514Q130 523 130 530Q130 533 130 535Q130 537 130 538.5Q130 540 129.5 542Q129 544 129 545H216Q216 543 216.5 541Q217 539 217 536Q217 533 217 529Q217 520 216.5 507Q216 494 214 476.5Q212 459 208 437Q204 415 199 390L150 159Q149 154 148 149.5Q147 145 146.5 141.5Q146 138 146 134.5Q146 131 146 128Q146 117 148.5 109Q151 101 156.5 96Q162 91 169.5 88.5Q177 86 186 86Q189 86 191.5 86Q194 86 197 86.5Q200 87 203 87.5Q206 88 209 89ZM326 647 274 600 238 649Q229 661 226 665.5Q223 670 219 675.5Q215 681 211.5 686.5Q208 692 206 696H205Q193 684 184.5 675.5Q176 667 166 658Q156 649 148 642L97 598L58 652L190 755H234Z" glyph-name="icircumflex" horiz-adv-x="275" unicode="&#238;" /><glyph d="M179 668Q179 658 175.5 649.5Q172 641 165.5 635Q159 629 150.5 626Q142 623 132 623Q122 623 113.5 626Q105 629 98.5 635Q92 641 88.5 649.5Q85 658 85 668Q85 678 88.5 686.5Q92 695 98.5 701Q105 707 113.5 710.5Q122 714 132 714Q142 714 150.5 710.5Q159 707 165.5 701Q172 695 175.5 686.5Q179 678 179 668ZM306 668Q306 658 302.5 649.5Q299 641 292.5 635Q286 629 277 626Q268 623 258 623Q248 623 239.5 626Q231 629 224.5 635Q218 641 214.5 649.5Q211 658 211 668Q211 678 214.5 686.5Q218 695 224.5 701Q231 707 239.5 710.5Q248 714 258 714Q268 714 277 710.5Q286 707 292.5 701Q299 695 302.5 686.5Q306 678 306 668ZM209 89 189 -2Q153 -2 127 5Q101 12 84.5 26Q68 40 60 60.5Q52 81 52 108Q52 114 52.5 120.5Q53 127 54 134Q55 141 56 148Q57 155 59 163L120 448Q123 460 124.5 472Q126 484 127.5 494.5Q129 505 129.5 514Q130 523 130 530Q130 533 130 535Q130 537 130 538.5Q130 540 129.5 542Q129 544 129 545H216Q216 543 216.5 541Q217 539 217 536Q217 533 217 529Q217 520 216.5 507Q216 494 214 476.5Q212 459 208 437Q204 415 199 390L150 159Q149 154 148 149.5Q147 145 146.5 141.5Q146 138 146 134.5Q146 131 146 128Q146 117 148.5 109Q151 101 156.5 96Q162 91 169.5 88.5Q177 86 186 86Q189 86 191.5 86Q194 86 197 86.5Q200 87 203 87.5Q206 88 209 89Z" glyph-name="idieresis" horiz-adv-x="275" unicode="&#239;" /><glyph d="M258 584 82 675 120 744 290 642ZM209 89 189 -2Q153 -2 127 5Q101 12 84.5 26Q68 40 60 60.5Q52 81 52 108Q52 114 52.5 120.5Q53 127 54 134Q55 141 56 148Q57 155 59 163L120 448Q123 460 124.5 472Q126 484 127.5 494.5Q129 505 129.5 514Q130 523 130 530Q130 533 130 535Q130 537 130 538.5Q130 540 129.5 542Q129 544 129 545H216Q216 543 216.5 541Q217 539 217 536Q217 533 217 529Q217 520 216.5 507Q216 494 214 476.5Q212 459 208 437Q204 415 199 390L150 159Q149 154 148 149.5Q147 145 146.5 141.5Q146 138 146 134.5Q146 131 146 128Q146 117 148.5 109Q151 101 156.5 96Q162 91 169.5 88.5Q177 86 186 86Q189 86 191.5 86Q194 86 197 86.5Q200 87 203 87.5Q206 88 209 89Z" glyph-name="igrave" horiz-adv-x="275" unicode="&#236;" /><glyph d="M68 7 183 545H279L160 -14Q149 -67 130.5 -105.5Q112 -144 86.5 -169Q61 -194 28.5 -206Q-4 -218 -45 -218Q-56 -218 -68.5 -216.5Q-81 -215 -93.5 -211.5Q-106 -208 -117.5 -203.5Q-129 -199 -138 -193L-97 -113Q-92 -117 -86.5 -120Q-81 -123 -74.5 -125Q-68 -127 -60.5 -128.5Q-53 -130 -45 -130Q-21 -130 -3.5 -122Q14 -114 27 -98Q40 -82 50 -56Q60 -30 68 7ZM257 620Q246 620 235.5 624Q225 628 217.5 636Q210 644 205.5 654.5Q201 665 201 677Q201 689 205.5 699Q210 709 217.5 717Q225 725 235.5 729Q246 733 257 733Q268 733 278.5 729Q289 725 297 717Q305 709 309.5 699Q314 689 314 677Q314 665 309.5 654.5Q305 644 297 636Q289 628 279 624Q269 620 257 620Z" glyph-name="j" horiz-adv-x="300" unicode="j" /><glyph d="M441 83 422 -1Q420 -1 419.5 -1Q419 -1 410 -2Q401 -3 395.5 -3.5Q390 -4 384 -4Q360 -4 341 0.5Q322 5 306 14.5Q290 24 276.5 38.5Q263 53 251 73Q240 90 224 126Q208 162 204.5 169.5Q201 177 190.5 189.5Q180 202 165 207H163Q163 206 161.5 196Q160 186 158.5 177Q157 168 154.5 157Q152 146 150 134L121 0H29L184 730H276L244 579Q240 562 237 547.5Q234 533 231 521.5Q228 510 225.5 501Q223 492 221 484H223Q235 500 248.5 513Q262 526 278.5 535.5Q295 545 314 550Q333 555 353 555Q384 555 407.5 545.5Q431 536 446.5 519Q462 502 469.5 479Q477 456 477 430Q477 395 463 359.5Q449 324 421.5 292.5Q394 261 353.5 239Q313 217 262 211Q262 211 262 210.5Q262 210 261.5 210Q261 210 261 209.5Q261 209 261 209Q277 199 304 152.5Q331 106 350 92Q369 78 399 78Q405 78 410.5 78.5Q416 79 421 79.5Q426 80 430.5 81Q435 82 441 83ZM194 342 178 266Q229 266 268.5 278.5Q308 291 333.5 312.5Q359 334 372 360.5Q385 387 385 415Q385 429 380.5 440.5Q376 452 368 461Q360 470 347.5 474.5Q335 479 319 479Q296 479 276 469Q256 459 240 440.5Q224 422 212 397Q200 372 194 342Z" glyph-name="k" horiz-adv-x="493" unicode="k" /><glyph d="M216 83 196 -8Q160 -8 134 -0.5Q108 7 91.5 21Q75 35 67 55.5Q59 76 59 102Q59 108 59.5 114.5Q60 121 61 128Q62 135 63 142Q64 149 66 157L187 730H280L158 153Q157 149 156 144Q155 139 154.5 134.5Q154 130 153.5 126Q153 122 153 119Q153 110 156 102.5Q159 95 164.5 90Q170 85 178 82.5Q186 80 197 80Q199 80 201.5 80Q204 80 206 80.5Q208 81 210.5 81.5Q213 82 216 83Z" glyph-name="l" horiz-adv-x="279" unicode="l" /><glyph d="M263 156 66 329 76 380 345 551 381 486 246 403Q227 391 211 382Q195 373 182.5 365.5Q170 358 161 353Q152 348 148 347V345Q154 341 161 336Q168 331 178.5 322.5Q189 314 202.5 303.5Q216 293 231 280L309 214Z" glyph-name="less" horiz-adv-x="294" unicode="&lt;" /><glyph d="M319 255 258 207 194 295 85 206 39 268 153 354 86 441 146 488 209 400 319 489 365 428 251 341Z" glyph-name="logicalnot" horiz-adv-x="344" unicode="&#172;" /><glyph d="M224 83 203 -8Q167 -8 141 -0.5Q115 7 98.5 21.5Q82 36 74.5 56Q67 76 67 102Q67 108 67.5 114Q68 120 69 127Q70 134 71 141Q72 148 74 156L98 270L38 247L31 282L106 311L195 730H288L207 351L309 392L315 357L199 310L165 153Q163 139 162.5 135.5Q162 132 161.5 128.5Q161 125 161 122Q161 111 164 103Q167 95 172.5 90Q178 85 186 82.5Q194 80 205 80Q207 80 209.5 80Q212 80 214 80.5Q216 81 218.5 81.5Q221 82 224 83Z" glyph-name="lslash" horiz-adv-x="287" unicode="&#322;" /><glyph d="M742 85 722 -6Q687 -6 661 1Q635 8 618.5 22Q602 36 594 56.5Q586 77 586 105Q586 111 586.5 117.5Q587 124 587.5 130.5Q588 137 589.5 144Q591 151 592 158L635 357Q636 363 637 368.5Q638 374 638.5 379Q639 384 639.5 389.5Q640 395 640 400Q640 417 636.5 430Q633 443 625 452.5Q617 462 604 467Q591 472 573 472Q548 472 529 462Q510 452 496 432.5Q482 413 471.5 384Q461 355 453 316L386 0H294L371 363Q372 369 373 374Q374 379 374.5 384Q375 389 375.5 394Q376 399 376 404Q376 421 372 433.5Q368 446 359.5 454.5Q351 463 339.5 467.5Q328 472 313 472Q283 472 260.5 455.5Q238 439 223 412Q208 385 198.5 353.5Q189 322 181 283L121 0H29L129 470Q131 478 132 486Q133 494 133.5 502Q134 510 134.5 517Q135 524 135 531Q135 534 135 535.5Q135 537 135 539Q135 541 134.5 542.5Q134 544 134 545H217V528V512L213 473H215Q227 492 241 507Q255 522 271.5 532Q288 542 307 547.5Q326 553 347 553Q371 553 390.5 546Q410 539 424.5 526.5Q439 514 448 496.5Q457 479 461 457H463Q475 482 490 500Q505 518 523 530.5Q541 543 563 549Q585 555 611 555Q641 555 664 545Q687 535 702.5 517Q718 499 725.5 474.5Q733 450 733 420Q733 411 732.5 401.5Q732 392 730.5 383Q729 374 727.5 364.5Q726 355 724 344L684 154Q683 149 682.5 145Q682 141 681.5 137Q681 133 680.5 129.5Q680 126 680 122Q680 111 683.5 103Q687 95 693.5 90.5Q700 86 707.5 84Q715 82 723 82Q726 82 728.5 82Q731 82 733.5 82.5Q736 83 738.5 83.5Q741 84 742 85Z" glyph-name="m" horiz-adv-x="784" unicode="m" /><glyph d="M400 772H142L158 846H416Z" glyph-name="macron" horiz-adv-x="306" unicode="&#175;" /><glyph d="M277 291H40L58 373H294Z" glyph-name="minus" horiz-adv-x="270" unicode="&#8722;" /><glyph d="M319 255 258 207 194 295 85 206 39 268 153 354 86 441 146 488 209 400 319 489 365 428 251 341Z" glyph-name="multiply" horiz-adv-x="344" unicode="&#215;" /><glyph d="M498 84 478 -7Q442 -7 416.5 0.5Q391 8 374.5 22Q358 36 350 56Q342 76 342 103Q342 110 342.5 116.5Q343 123 343.5 129.5Q344 136 345 143Q346 150 348 158L389 347Q390 354 391.5 360.5Q393 367 393.5 373.5Q394 380 394.5 386.5Q395 393 395 399Q395 417 391.5 431Q388 445 379.5 456Q371 467 357.5 473Q344 479 325 479Q296 479 273.5 466Q251 453 235 430Q219 407 207.5 376.5Q196 346 187 306Q179 270 170.5 232Q162 194 154.5 156.5Q147 119 140 85Q133 51 122 0H29L129 470Q131 478 132 486Q133 494 133.5 502Q134 510 134.5 517Q135 524 135 531Q135 534 135 535.5Q135 537 135 539Q135 541 134.5 542.5Q134 544 134 545H218V532Q218 527 218 520.5Q218 514 217.5 507Q217 500 216 491.5Q215 483 214 475H216Q227 493 242 507Q257 521 274.5 531.5Q292 542 312 547.5Q332 553 354 553Q389 553 414 543Q439 533 455.5 514.5Q472 496 479.5 470.5Q487 445 487 412Q487 404 486.5 395Q486 386 485.5 377Q485 368 483.5 358.5Q482 349 480 340L440 154Q439 150 438 145.5Q437 141 436.5 137.5Q436 134 436 130.5Q436 127 436 123Q436 113 438.5 105Q441 97 446 91.5Q451 86 458.5 83.5Q466 81 475 81Q478 81 480.5 81Q483 81 486 81.5Q489 82 492 82.5Q495 83 498 84Z" glyph-name="n" horiz-adv-x="547" unicode="n" /><glyph d="M419 349H417Q406 331 390 315Q374 299 354.5 287.5Q335 276 313 269.5Q291 263 269 263Q232 263 203 275Q174 287 154 310Q134 333 123.5 366Q113 399 113 441Q113 489 127.5 536.5Q142 584 171.5 623.5Q201 663 244.5 686.5Q288 710 344 710Q393 710 427.5 691.5Q462 673 483 640Q504 607 513.5 564.5Q523 522 523 472Q523 388 504 302.5Q485 217 447 146Q409 75 353 32.5Q297 -10 226 -10Q191 -10 162.5 -0.5Q134 9 112.5 26Q91 43 77 66Q63 89 56 117L138 159Q144 138 152.5 123Q161 108 172.5 98Q184 88 198.5 83Q213 78 231 78Q270 78 300.5 102Q331 126 354 165Q377 204 392.5 251Q408 298 419 349ZM293 339Q320 339 344.5 351Q369 363 388 385Q407 407 418 435.5Q429 464 429 496Q429 521 424 543.5Q419 566 407.5 583.5Q396 601 378 611Q360 621 335 621Q305 621 280.5 606Q256 591 239 566Q222 541 213 510Q204 479 204 447Q204 424 209.5 404.5Q215 385 225.5 370Q236 355 253 347Q270 339 293 339Z" glyph-name="nine" horiz-adv-x="515" unicode="9" /><glyph d="M359 206H357Q346 190 331 177.5Q316 165 298.5 156.5Q281 148 261.5 143.5Q242 139 221 139Q189 139 160 148.5Q131 158 107.5 177.5Q84 197 70 228Q56 259 56 300Q56 344 70.5 389Q85 434 113.5 471.5Q142 509 184.5 531.5Q227 554 282 554Q331 554 366 536.5Q401 519 422 488.5Q443 458 452.5 418Q462 378 462 331Q462 266 447 193.5Q432 121 399 55.5Q366 -10 312 -51.5Q258 -93 184 -93Q157 -93 132 -87Q107 -81 84.5 -69.5Q62 -58 43 -41.5Q24 -25 9 -4L77 60Q86 45 96.5 33.5Q107 22 120.5 14Q134 6 150 1.5Q166 -3 185 -3Q221 -3 249 12Q277 27 298 55Q319 83 333.5 120.5Q348 158 359 206ZM243 219Q271 219 294 230Q317 241 333.5 260Q350 279 359 302.5Q368 326 368 350Q368 373 362.5 394Q357 415 345.5 431.5Q334 448 316 457.5Q298 467 273 467Q245 467 221.5 454Q198 441 181.5 419Q165 397 156.5 370Q148 343 148 317Q148 294 154.5 276Q161 258 173.5 245Q186 232 203.5 225.5Q221 219 243 219Z" glyph-name="nine.osf" horiz-adv-x="490" /><glyph d="M309 234H159L106 138H62L114 234H44L59 309H155L199 390H77L93 465H240L295 565H340L285 465H358L342 390H244L200 309H324Z" glyph-name="notequal" horiz-adv-x="332" unicode="&#8800;" /><glyph d="M498 84 478 -7Q442 -7 416.5 0.5Q391 8 374.5 22Q358 36 350 56Q342 76 342 103Q342 110 342.5 116.5Q343 123 343.5 129.5Q344 136 345 143Q346 150 348 158L389 347Q390 354 391.5 360.5Q393 367 393.5 373.5Q394 380 394.5 386.5Q395 393 395 399Q395 417 391.5 431Q388 445 379.5 456Q371 467 357.5 473Q344 479 325 479Q296 479 273.5 466Q251 453 235 430Q219 407 207.5 376.5Q196 346 187 306Q179 270 170.5 232Q162 194 154.5 156.5Q147 119 140 85Q133 51 122 0H29L129 470Q131 478 132 486Q133 494 133.5 502Q134 510 134.5 517Q135 524 135 531Q135 534 135 535.5Q135 537 135 539Q135 541 134.5 542.5Q134 544 134 545H218V532Q218 527 218 520.5Q218 514 217.5 507Q217 500 216 491.5Q215 483 214 475H216Q227 493 242 507Q257 521 274.5 531.5Q292 542 312 547.5Q332 553 354 553Q389 553 414 543Q439 533 455.5 514.5Q472 496 479.5 470.5Q487 445 487 412Q487 404 486.5 395Q486 386 485.5 377Q485 368 483.5 358.5Q482 349 480 340L440 154Q439 150 438 145.5Q437 141 436.5 137.5Q436 134 436 130.5Q436 127 436 123Q436 113 438.5 105Q441 97 446 91.5Q451 86 458.5 83.5Q466 81 475 81Q478 81 480.5 81Q483 81 486 81.5Q489 82 492 82.5Q495 83 498 84ZM465 742 532 740Q530 714 521.5 693Q513 672 498.5 656Q484 640 464.5 631.5Q445 623 421 623Q398 623 379.5 630Q361 637 337 651Q313 665 304.5 669.5Q296 674 284 674Q275 674 268 670Q261 666 256 659.5Q251 653 248 645.5Q245 638 243 629L177 631Q180 659 189 681Q198 703 213 718Q228 733 247 740.5Q266 748 288 748Q310 748 328.5 741Q347 734 370.5 720Q394 706 403 701Q412 696 424 696Q433 696 440 700Q447 704 452 710.5Q457 717 460 725Q463 733 465 742Z" glyph-name="ntilde" horiz-adv-x="548" unicode="&#241;" /><glyph d="M579 258H436L404 108H317L349 258H249L217 108H130L161 258H38L45 330H177L203 450H76L83 523H218L249 665H335L305 523H406L436 665H523L493 523H624L617 450H477L452 330H585ZM364 330 390 450H290L264 330Z" glyph-name="numbersign" horiz-adv-x="578" unicode="#" /><glyph d="M231 74Q264 74 293 97Q322 120 343.5 159Q365 198 376.5 245Q388 292 388 337Q388 368 382 393Q376 418 364 435.5Q352 453 334 462.5Q316 472 293 472Q260 472 231.5 449Q203 426 181.5 387Q160 348 148.5 301.5Q137 255 137 209Q137 178 143 153Q149 128 161.5 110.5Q174 93 191.5 83.5Q209 74 231 74ZM222 -10Q178 -10 144.5 6Q111 22 89.5 51Q68 80 57.5 118Q47 156 47 200Q47 267 63.5 330.5Q80 394 112.5 445Q145 496 193.5 525.5Q242 555 303 555Q347 555 380.5 539Q414 523 435.5 494Q457 465 467.5 427Q478 389 478 345Q478 278 462 214.5Q446 151 414 100Q382 49 333.5 19.5Q285 -10 222 -10Z" glyph-name="o" horiz-adv-x="500" unicode="o" /><glyph d="M231 74Q264 74 293 97Q322 120 343.5 159Q365 198 376.5 245Q388 292 388 337Q388 368 382 393Q376 418 364 435.5Q352 453 334 462.5Q316 472 293 472Q260 472 231.5 449Q203 426 181.5 387Q160 348 148.5 301.5Q137 255 137 209Q137 178 143 153Q149 128 161.5 110.5Q174 93 191.5 83.5Q209 74 231 74ZM222 -10Q178 -10 144.5 6Q111 22 89.5 51Q68 80 57.5 118Q47 156 47 200Q47 267 63.5 330.5Q80 394 112.5 445Q145 496 193.5 525.5Q242 555 303 555Q347 555 380.5 539Q414 523 435.5 494Q457 465 467.5 427Q478 389 478 345Q478 278 462 214.5Q446 151 414 100Q382 49 333.5 19.5Q285 -10 222 -10ZM456 680 232 586 204 646 422 752Z" glyph-name="oacute" horiz-adv-x="500" unicode="&#243;" /><glyph d="M231 74Q264 74 293 97Q322 120 343.5 159Q365 198 376.5 245Q388 292 388 337Q388 368 382 393Q376 418 364 435.5Q352 453 334 462.5Q316 472 293 472Q260 472 231.5 449Q203 426 181.5 387Q160 348 148.5 301.5Q137 255 137 209Q137 178 143 153Q149 128 161.5 110.5Q174 93 191.5 83.5Q209 74 231 74ZM222 -10Q178 -10 144.5 6Q111 22 89.5 51Q68 80 57.5 118Q47 156 47 200Q47 267 63.5 330.5Q80 394 112.5 445Q145 496 193.5 525.5Q242 555 303 555Q347 555 380.5 539Q414 523 435.5 494Q457 465 467.5 427Q478 389 478 345Q478 278 462 214.5Q446 151 414 100Q382 49 333.5 19.5Q285 -10 222 -10ZM481 649 421 595 380 651Q373 661 368 668Q363 675 358.5 681.5Q354 688 350.5 694Q347 700 344 705H342Q328 691 318.5 681.5Q309 672 298 661.5Q287 651 277 643L219 593L174 655L325 773H376Z" glyph-name="ocircumflex" horiz-adv-x="500" unicode="&#244;" /><glyph d="M231 74Q264 74 293 97Q322 120 343.5 159Q365 198 376.5 245Q388 292 388 337Q388 368 382 393Q376 418 364 435.5Q352 453 334 462.5Q316 472 293 472Q260 472 231.5 449Q203 426 181.5 387Q160 348 148.5 301.5Q137 255 137 209Q137 178 143 153Q149 128 161.5 110.5Q174 93 191.5 83.5Q209 74 231 74ZM222 -10Q178 -10 144.5 6Q111 22 89.5 51Q68 80 57.5 118Q47 156 47 200Q47 267 63.5 330.5Q80 394 112.5 445Q145 496 193.5 525.5Q242 555 303 555Q347 555 380.5 539Q414 523 435.5 494Q457 465 467.5 427Q478 389 478 345Q478 278 462 214.5Q446 151 414 100Q382 49 333.5 19.5Q285 -10 222 -10ZM291 672Q291 662 287.5 653.5Q284 645 277.5 639Q271 633 262 630Q253 627 243 627Q233 627 224.5 630Q216 633 210 639Q204 645 200.5 653.5Q197 662 197 672Q197 682 200.5 690.5Q204 699 210 705Q216 711 224.5 714.5Q233 718 243 718Q253 718 262 714.5Q271 711 277.5 705Q284 699 287.5 690.5Q291 682 291 672ZM442 672Q442 662 438.5 653.5Q435 645 428.5 639Q422 633 413.5 630Q405 627 395 627Q385 627 376.5 630Q368 633 361.5 639Q355 645 351.5 653.5Q348 662 348 672Q348 682 351.5 690.5Q355 699 361.5 705Q368 711 376.5 714.5Q385 718 395 718Q405 718 413.5 714.5Q422 711 428.5 705Q435 699 438.5 690.5Q442 682 442 672Z" glyph-name="odieresis" horiz-adv-x="500" unicode="&#246;" /><glyph d="M703 149 764 86Q742 63 720.5 45.5Q699 28 675.5 15.5Q652 3 626.5 -3.5Q601 -10 573 -10Q538 -10 510 2.5Q482 15 462 36.5Q442 58 430 86Q418 114 413 147H411Q396 112 377 83.5Q358 55 334 34Q310 13 281.5 1.5Q253 -10 221 -10Q177 -10 144 6Q111 22 89.5 51Q68 80 57.5 117.5Q47 155 47 199Q47 265 63 328.5Q79 392 111 443.5Q143 495 190 525Q237 555 296 555Q331 555 358 543Q385 531 403 509Q421 487 431.5 458Q442 429 446 395H448Q462 429 481 457.5Q500 486 525.5 508Q551 530 581.5 542Q612 554 647 554Q688 554 719 538.5Q750 523 770 495.5Q790 468 800 432.5Q810 397 810 356Q810 349 809 338.5Q808 328 806.5 313.5Q805 299 802.5 281Q800 263 796 242H473Q473 238 472.5 233.5Q472 229 472 225.5Q472 222 472 218Q472 214 472 209Q472 177 479 151.5Q486 126 499.5 108Q513 90 533 81Q553 72 578 72Q596 72 613.5 77.5Q631 83 647 93.5Q663 104 677 118Q691 132 703 149ZM231 73Q264 73 292.5 96.5Q321 120 342.5 159Q364 198 375.5 245Q387 292 387 337Q387 368 381 392.5Q375 417 363 434.5Q351 452 333.5 461.5Q316 471 293 471Q260 471 231.5 448Q203 425 181.5 386.5Q160 348 148.5 301Q137 254 137 209Q137 178 143 153Q149 128 161.5 110Q174 92 191.5 82.5Q209 73 231 73ZM486 311H718Q719 315 719.5 320Q720 325 720.5 329.5Q721 334 721 338.5Q721 343 721 348Q721 376 715 400Q709 424 698 441.5Q687 459 670 468.5Q653 478 631 478Q606 478 583 465Q560 452 541 429Q522 406 508 375.5Q494 345 486 311Z" glyph-name="oe" horiz-adv-x="833" unicode="&#339;" /><glyph d="M168 -127 190 -212Q182 -215 175 -217.5Q168 -220 161 -221.5Q154 -223 147 -223.5Q140 -224 133 -224Q104 -224 80.5 -213Q57 -202 41 -183Q25 -164 17 -140Q9 -116 9 -90Q9 -67 15.5 -44.5Q22 -22 35.5 -2.5Q49 17 70 31.5Q91 46 118 54L138 0Q124 -4 113.5 -11.5Q103 -19 96.5 -28.5Q90 -38 86.5 -49Q83 -60 83 -72Q83 -84 86.5 -95Q90 -106 97.5 -114.5Q105 -123 115.5 -128Q126 -133 139 -133Q143 -133 146.5 -132.5Q150 -132 153.5 -131.5Q157 -131 160.5 -130Q164 -129 168 -127Z" glyph-name="ogonek" horiz-adv-x="273" unicode="&#731;" /><glyph d="M231 74Q264 74 293 97Q322 120 343.5 159Q365 198 376.5 245Q388 292 388 337Q388 368 382 393Q376 418 364 435.5Q352 453 334 462.5Q316 472 293 472Q260 472 231.5 449Q203 426 181.5 387Q160 348 148.5 301.5Q137 255 137 209Q137 178 143 153Q149 128 161.5 110.5Q174 93 191.5 83.5Q209 74 231 74ZM222 -10Q178 -10 144.5 6Q111 22 89.5 51Q68 80 57.5 118Q47 156 47 200Q47 267 63.5 330.5Q80 394 112.5 445Q145 496 193.5 525.5Q242 555 303 555Q347 555 380.5 539Q414 523 435.5 494Q457 465 467.5 427Q478 389 478 345Q478 278 462 214.5Q446 151 414 100Q382 49 333.5 19.5Q285 -10 222 -10ZM428 586 204 680 238 752 456 646Z" glyph-name="ograve" horiz-adv-x="500" unicode="&#242;" /><glyph d="M155 0H60L190 612H130L149 700H303Z" glyph-name="one" horiz-adv-x="277" unicode="1" /><glyph d="M151 0H55L152 457H88L107 545H267Z" glyph-name="one.osf" horiz-adv-x="278" /><glyph d="M53 0H-23L452 700H529ZM178 385H114L169 640H137L149 700H245ZM409 0H214L216 10L373 186Q380 194 385 200.5Q390 207 394 213.5Q398 220 400 226Q402 232 402 239Q402 246 400 251Q398 256 394 260Q390 264 384.5 266Q379 268 372 268Q362 268 353.5 263Q345 258 338 250Q331 242 325.5 231.5Q320 221 315 208L262 234Q271 254 281.5 270Q292 286 305.5 298.5Q319 311 337 318Q355 325 376 325Q397 325 414 319Q431 313 442 302Q453 291 459 276.5Q465 262 465 246Q465 232 462 219Q459 206 452.5 194Q446 182 437.5 171Q429 160 418 149L389 121Q379 111 366.5 99Q354 87 349 82Q344 77 338 71.5Q332 66 325 60V58H422Z" glyph-name="onehalf" horiz-adv-x="501" unicode="&#189;" /><glyph d="M350 0H287L299 57H181L349 316H417L375 118H410L398 57H362ZM318 114 342 229H340Q331 212 322.5 197Q314 182 305 167.5Q296 153 287.5 140.5Q279 128 271 116V114ZM53 0H-23L452 700H529ZM178 385H114L169 640H137L149 700H245Z" glyph-name="onequarter" horiz-adv-x="499" unicode="&#188;" /><glyph d="M174 385H110L165 640H133L145 700H241Z" glyph-name="onesuperior" horiz-adv-x="179" unicode="&#185;" /><glyph d="M295 383H231L230 439H150L125 383H58L218 700H269Q272 662 275 623Q278 584 281 545.5Q284 507 286.5 480.5Q289 454 295 383ZM229 485 228 556Q228 568 228 578.5Q228 589 228.5 601Q229 613 229 617.5Q229 622 229 622H227Q222 609 218.5 599.5Q215 590 210 578Q205 566 200 554L170 485Z" glyph-name="ordfeminine" horiz-adv-x="269" unicode="&#170;" /><glyph d="M190 371Q166 371 148 380.5Q130 390 119 407Q108 424 103 446Q98 468 98 493Q98 532 107.5 571Q117 610 135 641.5Q153 673 180 691.5Q207 710 240 710Q264 710 282 700.5Q300 691 311 674.5Q322 658 327 636.5Q332 615 332 590Q332 550 322.5 511Q313 472 295 440Q277 408 250 389.5Q223 371 190 371ZM196 426Q211 426 225 440Q239 454 250 478Q261 502 267 532.5Q273 563 273 595Q273 607 270.5 618Q268 629 263 637Q258 645 250.5 649.5Q243 654 232 654Q217 654 203 640Q189 626 178.5 602Q168 578 162 547.5Q156 517 156 485Q156 473 158.5 462Q161 451 166 443Q171 435 178.5 430.5Q186 426 196 426Z" glyph-name="ordmasculine" horiz-adv-x="285" unicode="&#186;" /><glyph d="M222 -10Q178 -10 144.5 6Q111 22 89.5 51Q68 80 57.5 118Q47 156 47 200Q47 267 63.5 330.5Q80 394 112.5 445Q145 496 193.5 525.5Q242 555 303 555Q347 555 380.5 539Q414 523 435.5 494Q457 465 467.5 427Q478 389 478 345Q478 278 462 214.5Q446 151 414 100Q382 49 333.5 19.5Q285 -10 222 -10ZM351 450 202 78Q205 77 208.5 76Q212 75 215.5 74.5Q219 74 223 74Q227 74 231 74Q264 74 293 97Q322 120 343.5 159Q365 198 376.5 245Q388 292 388 337Q388 356 385.5 373Q383 390 378.5 404.5Q374 419 367 430.5Q360 442 351 450ZM173 96 321 468Q318 469 314.5 470Q311 471 307.5 471.5Q304 472 300.5 472Q297 472 293 472Q260 472 231.5 449Q203 426 181.5 387Q160 348 148.5 301.5Q137 255 137 209Q137 190 139.5 173.5Q142 157 146.5 142.5Q151 128 157.5 116.5Q164 105 173 96Z" glyph-name="oslash" horiz-adv-x="500" unicode="&#248;" /><glyph d="M231 74Q264 74 293 97Q322 120 343.5 159Q365 198 376.5 245Q388 292 388 337Q388 368 382 393Q376 418 364 435.5Q352 453 334 462.5Q316 472 293 472Q260 472 231.5 449Q203 426 181.5 387Q160 348 148.5 301.5Q137 255 137 209Q137 178 143 153Q149 128 161.5 110.5Q174 93 191.5 83.5Q209 74 231 74ZM222 -10Q178 -10 144.5 6Q111 22 89.5 51Q68 80 57.5 118Q47 156 47 200Q47 267 63.5 330.5Q80 394 112.5 445Q145 496 193.5 525.5Q242 555 303 555Q347 555 380.5 539Q414 523 435.5 494Q457 465 467.5 427Q478 389 478 345Q478 278 462 214.5Q446 151 414 100Q382 49 333.5 19.5Q285 -10 222 -10ZM445 737 512 735Q510 709 501.5 688Q493 667 478.5 651Q464 635 444.5 626.5Q425 618 401 618Q378 618 359.5 625Q341 632 317 646Q293 660 284.5 664.5Q276 669 264 669Q255 669 248 665Q241 661 236 654.5Q231 648 228 640.5Q225 633 223 624L157 626Q160 654 169 676Q178 698 193 713Q208 728 227 735.5Q246 743 268 743Q290 743 308.5 736Q327 729 350.5 715Q374 701 383 696Q392 691 404 691Q413 691 420 695Q427 699 432 705.5Q437 712 440 720Q443 728 445 737Z" glyph-name="otilde" horiz-adv-x="500" unicode="&#245;" /><glyph d="M78 -200H-14Q1 -132 -2.5 -146.5Q-6 -161 34.5 29Q75 219 91.5 296.5Q108 374 124 448Q127 460 128.5 471Q130 482 131.5 492.5Q133 503 133.5 512Q134 521 134 528V545H217Q217 543 217.5 541Q218 539 218 536.5Q218 534 218 532Q218 527 217.5 521.5Q217 516 216.5 509.5Q216 503 214.5 496Q213 489 212 481H214Q225 496 239.5 509Q254 522 270.5 532.5Q287 543 306.5 549Q326 555 347 555Q381 555 407.5 542.5Q434 530 452.5 506Q471 482 480.5 446.5Q490 411 490 365Q490 306 474 240Q458 174 427 117Q396 60 349.5 25Q303 -10 246 -10Q224 -10 205.5 -4.5Q187 1 173.5 10.5Q160 20 150 33.5Q140 47 134 64H132Q129 47 126.5 35.5Q124 24 121.5 10Q119 -4 116 -17ZM186 306 162 196Q161 188 160.5 185.5Q160 183 159.5 179.5Q159 176 158.5 172.5Q158 169 158 165Q158 145 163 128.5Q168 112 178 99Q188 86 203 79Q218 72 238 72Q275 72 305 98.5Q335 125 356 168.5Q377 212 387.5 263Q398 314 398 362Q398 388 394 408Q390 428 380.5 443Q371 458 356 466Q341 474 320 474Q290 474 266.5 458Q243 442 227.5 417Q212 392 202 364Q192 336 186 306Z" glyph-name="p" horiz-adv-x="511" unicode="p" /><glyph d="M344 0H255L296 195H251Q200 195 162 211.5Q124 228 100.5 258Q77 288 65.5 327Q54 366 54 412Q54 464 73 515Q92 566 128.5 608Q165 650 218.5 675Q272 700 339 700H492ZM424 0H384L532 700H572Z" glyph-name="paragraph" horiz-adv-x="513" unicode="&#182;" /><glyph d="M170 -63 101 -88Q92 -64 85.5 -35.5Q79 -7 75 24Q71 55 69 86.5Q67 118 67 151Q67 245 83.5 339Q100 433 130 517.5Q160 602 200 672.5Q240 743 287 792L343 747Q299 700 262 633Q225 566 198 486Q171 406 156 318.5Q141 231 141 143Q141 116 143 89.5Q145 63 148.5 36.5Q152 10 157.5 -15Q163 -40 170 -63Z" glyph-name="parenleft" horiz-adv-x="222" unicode="(" /><glyph d="M114 769 183 794Q192 770 198.5 741.5Q205 713 209 682Q213 651 215 619.5Q217 588 217 555Q217 461 200.5 367Q184 273 154 188.5Q124 104 84 33.5Q44 -37 -3 -86L-59 -41Q-15 6 22 73Q59 140 86 220Q113 300 128 387.5Q143 475 143 563Q143 590 141 616.5Q139 643 135.5 669.5Q132 696 126.5 721Q121 746 114 769Z" glyph-name="parenright" horiz-adv-x="222" unicode=")" /><glyph d="M120 0H39Q86 66 171 186.5Q256 307 306 378Q356 449 416.5 534Q477 619 535 700H616ZM432 -10Q405 -10 384.5 -0.5Q364 9 350.5 26Q337 43 330.5 65.5Q324 88 324 115Q324 153 334 192Q344 231 364 263.5Q384 296 414.5 315.5Q445 335 483 335Q511 335 531.5 325.5Q552 316 565 299Q578 282 584.5 259Q591 236 591 209Q591 170 581 131.5Q571 93 551.5 61Q532 29 501.5 9.5Q471 -10 432 -10ZM441 59Q457 59 471.5 71.5Q486 84 496.5 105.5Q507 127 512.5 152Q518 177 518 201Q518 216 515.5 227.5Q513 239 507.5 247.5Q502 256 494 260.5Q486 265 475 265Q459 265 445 253Q431 241 420.5 221.5Q410 202 404 178Q398 154 398 132Q398 115 400 102Q402 89 406.5 79Q411 69 419.5 64Q428 59 441 59ZM173 365Q146 365 125.5 374.5Q105 384 91.5 401Q78 418 71.5 440.5Q65 463 65 490Q65 528 75 567Q85 606 105 638.5Q125 671 155.5 690.5Q186 710 224 710Q252 710 272.5 700.5Q293 691 306 674Q319 657 325.5 634Q332 611 332 584Q332 545 322 506.5Q312 468 292.5 436Q273 404 242.5 384.5Q212 365 173 365ZM182 434Q198 434 212.5 446.5Q227 459 237.5 480.5Q248 502 253.5 527Q259 552 259 576Q259 591 256.5 602.5Q254 614 248.5 622.5Q243 631 235 635.5Q227 640 216 640Q200 640 186 628Q172 616 161.5 596.5Q151 577 145 553Q139 529 139 507Q139 490 141 477Q143 464 147.5 454Q152 444 160.5 439Q169 434 182 434Z" glyph-name="percent" horiz-adv-x="600" unicode="%" /><glyph d="M80 -10Q69 -10 58.5 -6Q48 -2 40.5 6Q33 14 28.5 24.5Q24 35 24 47Q24 59 28.5 69Q33 79 40.5 87Q48 95 58.5 99Q69 103 80 103Q91 103 101.5 99Q112 95 120 87Q128 79 132.5 69Q137 59 137 47Q137 35 132.5 24.5Q128 14 120 6Q112 -2 102 -6Q92 -10 80 -10Z" glyph-name="period" horiz-adv-x="213" unicode="." /><glyph d="M131 263Q120 263 109.5 267Q99 271 91.5 279Q84 287 79.5 297.5Q75 308 75 320Q75 332 79.5 342Q84 352 91.5 360Q99 368 109.5 372Q120 376 131 376Q142 376 152.5 372Q163 368 171 360Q179 352 183.5 342Q188 332 188 320Q188 308 183.5 297.5Q179 287 171 279Q163 271 153 267Q143 263 131 263Z" glyph-name="periodcentered" horiz-adv-x="208" unicode="&#183;" /><glyph d="M778 59Q794 59 808.5 71.5Q823 84 833.5 105.5Q844 127 850 152Q856 177 856 201Q856 215 853.5 227Q851 239 845.5 247.5Q840 256 831.5 260.5Q823 265 812 265Q796 265 781.5 252Q767 239 756.5 218Q746 197 740 171.5Q734 146 734 122Q734 107 736.5 95.5Q739 84 744.5 76Q750 68 758.5 63.5Q767 59 778 59ZM770 -10Q742 -10 721.5 -0.5Q701 9 688 26Q675 43 668.5 65.5Q662 88 662 115Q662 154 672 193Q682 232 702 264Q722 296 752 315.5Q782 335 821 335Q848 335 868.5 325.5Q889 316 902 299Q915 282 921.5 259Q928 236 928 209Q928 171 918 132.5Q908 94 888.5 61.5Q869 29 839 9.5Q809 -10 770 -10ZM165 0H84Q131 66 216 186.5Q301 307 351 378Q401 449 461.5 534Q522 619 580 700H661ZM477 -10Q450 -10 429.5 -0.5Q409 9 395.5 26Q382 43 375.5 65.5Q369 88 369 115Q369 153 379 192Q389 231 409 263.5Q429 296 459.5 315.5Q490 335 528 335Q556 335 576.5 325.5Q597 316 610 299Q623 282 629.5 259Q636 236 636 209Q636 170 626 131.5Q616 93 596.5 61Q577 29 546.5 9.5Q516 -10 477 -10ZM486 59Q502 59 516.5 71.5Q531 84 541.5 105.5Q552 127 557.5 152Q563 177 563 201Q563 216 560.5 227.5Q558 239 552.5 247.5Q547 256 539 260.5Q531 265 520 265Q504 265 490 253Q476 241 465.5 221.5Q455 202 449 178Q443 154 443 132Q443 115 445 102Q447 89 451.5 79Q456 69 464.5 64Q473 59 486 59ZM218 365Q191 365 170.5 374.5Q150 384 136.5 401Q123 418 116.5 440.5Q110 463 110 490Q110 528 120 567Q130 606 150 638.5Q170 671 200.5 690.5Q231 710 269 710Q297 710 317.5 700.5Q338 691 351 674Q364 657 370.5 634Q377 611 377 584Q377 545 367 506.5Q357 468 337.5 436Q318 404 287.5 384.5Q257 365 218 365ZM227 434Q243 434 257.5 446.5Q272 459 282.5 480.5Q293 502 298.5 527Q304 552 304 576Q304 591 301.5 602.5Q299 614 293.5 622.5Q288 631 280 635.5Q272 640 261 640Q245 640 231 628Q217 616 206.5 596.5Q196 577 190 553Q184 529 184 507Q184 490 186 477Q188 464 192.5 454Q197 444 205.5 439Q214 434 227 434Z" glyph-name="perthousand" horiz-adv-x="951" unicode="&#8240;" /><glyph d="M768 350Q768 274 740.5 208Q713 142 664 93Q615 44 548.5 17Q482 -10 407 -10Q331 -10 265 17Q199 44 149.5 93Q100 142 72.5 208Q45 274 45 350Q45 425 72.5 491Q100 557 149.5 606.5Q199 656 265 683Q331 710 407 710Q482 710 548.5 683Q615 656 664 606.5Q713 557 740.5 491Q768 425 768 350ZM408 50Q471 50 525.5 72.5Q580 95 620 135.5Q660 176 682 231Q704 286 704 350Q704 413 682 468Q660 523 620 563.5Q580 604 525.5 626.5Q471 649 408 649Q345 649 290 626.5Q235 604 194.5 563Q154 522 131.5 467.5Q109 413 109 350Q109 286 131.5 231Q154 176 194.5 135.5Q235 95 290 72.5Q345 50 408 50ZM384 195H321V517H418Q446 517 467.5 508.5Q489 500 503.5 485Q518 470 525 448.5Q532 427 532 401Q532 379 526 358.5Q520 338 507 321.5Q494 305 472 295.5Q450 286 418 286H384ZM384 346H420Q433 346 442.5 350Q452 354 458 361.5Q464 369 466.5 379Q469 389 469 401Q469 413 466.5 423Q464 433 458 440.5Q452 448 442.5 452Q433 456 420 456H384Z" glyph-name="pi" horiz-adv-x="782" unicode="&#960;" /><glyph d="M356 312H235L208 186H128L155 312H34L50 386H170L197 512H278L251 386H372Z" glyph-name="plus" horiz-adv-x="338" unicode="+" /><glyph d="M379 401H267L242 284H161L186 401H74L90 475H202L227 592H308L283 475H395ZM301 150H48L65 232H318Z" glyph-name="plusminus" horiz-adv-x="370" unicode="&#177;" /><glyph d="M355 -200H263L294 -52Q298 -34 301.5 -17Q305 0 308 11Q311 22 315 38.5Q319 55 320 61H318Q306 46 292 33Q278 20 260.5 10.5Q243 1 223 -4.5Q203 -10 181 -10Q148 -10 122.5 2.5Q97 15 80.5 37.5Q64 60 56 91.5Q48 123 48 162Q48 232 66.5 302Q85 372 119.5 429.5Q154 487 200.5 521Q247 555 301 555Q322 555 340.5 549Q359 543 373.5 533Q388 523 398.5 509Q409 495 415 479H417Q420 491 424 503Q428 515 432 524Q436 533 442 545H525Q522 539 518 530Q514 521 510 510Q506 499 502.5 486.5Q499 474 496 461ZM223 71Q260 71 285.5 93.5Q311 116 327 153Q343 190 352.5 228Q362 266 378 342Q379 347 380 352Q381 357 382 362Q383 367 383.5 372Q384 377 384 382Q384 400 378.5 415.5Q373 431 363 443Q353 455 337.5 461.5Q322 468 303 468Q264 468 234 441Q204 414 183.5 372Q163 330 153 283.5Q143 237 143 198Q143 168 146 146Q149 124 157.5 107Q166 90 182 80.5Q198 71 223 71Z" glyph-name="q" horiz-adv-x="502" unicode="q" /><glyph d="M255 174 176 147Q172 152 169 158.5Q166 165 163.5 173.5Q161 182 159.5 191Q158 200 158 210Q158 265 188 306.5Q218 348 276.5 397Q335 446 361 475Q387 504 387 544Q387 559 381.5 572.5Q376 586 365.5 597Q355 608 339 614.5Q323 621 303 621Q278 621 256.5 611.5Q235 602 218 584Q201 566 187.5 542.5Q174 519 166 490L87 544Q103 582 125.5 612.5Q148 643 175.5 664.5Q203 686 236 698Q269 710 306 710Q348 710 381.5 697.5Q415 685 437 663.5Q459 642 470.5 613Q482 584 482 551Q482 490 451 446Q420 402 359.5 352Q299 302 273.5 274Q248 246 248 207Q248 202 248.5 197Q249 192 250 188Q251 184 252.5 180.5Q254 177 255 174ZM183 -10Q172 -10 161.5 -6Q151 -2 143.5 6Q136 14 131.5 24.5Q127 35 127 47Q127 59 131.5 69Q136 79 143.5 87Q151 95 161.5 99Q172 103 183 103Q194 103 204.5 99Q215 95 223 87Q231 79 235.5 69Q240 59 240 47Q240 35 235.5 24.5Q231 14 223 6Q215 -2 205 -6Q195 -10 183 -10Z" glyph-name="question" horiz-adv-x="428" unicode="?" /><glyph d="M328 213 407 160Q391 122 368.5 91.5Q346 61 318.5 39.5Q291 18 258 6.5Q225 -5 187 -5Q145 -5 112 7Q79 19 56.5 40.5Q34 62 22.5 91Q11 120 11 153Q11 214 42 258Q73 302 134 352Q195 402 220.5 429.5Q246 457 246 496Q246 501 245 506Q244 511 243 515Q242 519 238 530L318 557Q322 552 325 545Q328 538 330.5 529.5Q333 521 334.5 512Q336 503 336 493Q336 438 306 397Q276 356 218 307.5Q160 259 133.5 229.5Q107 200 107 160Q107 145 112.5 131Q118 117 128.5 106.5Q139 96 154.5 89.5Q170 83 190 83Q215 83 236.5 92.5Q258 102 275.5 119.5Q293 137 306.5 161Q320 185 328 213ZM313 596Q302 596 291.5 600Q281 604 273.5 612Q266 620 261.5 630.5Q257 641 257 653Q257 665 261.5 675Q266 685 273.5 693Q281 701 291.5 705Q302 709 313 709Q324 709 334.5 705Q345 701 353 693Q361 685 365.5 675Q370 665 370 653Q370 641 365.5 630.5Q361 620 353 612Q345 604 335 600Q325 596 313 596Z" glyph-name="questiondown" horiz-adv-x="428" unicode="&#191;" /><glyph d="M193 492H121L174 700H258ZM316 492H244L297 700H381Z" glyph-name="quotedbl" horiz-adv-x="329" unicode="&quot;" /><glyph d="M14 -96 9 -65Q25 -61 38.5 -54.5Q52 -48 62.5 -39.5Q73 -31 78.5 -21.5Q84 -12 85 -2L84 0Q84 0 81 -0.5Q78 -1 76.5 -1.5Q75 -2 73.5 -2Q72 -2 71 -2Q62 -2 54 1Q46 4 40 10Q34 16 30.5 24.5Q27 33 27 43Q27 54 31 63Q35 72 42 78.5Q49 85 58 88.5Q67 92 77 92Q91 92 101 87.5Q111 83 118 74.5Q125 66 128.5 53.5Q132 41 132 24Q132 3 123.5 -16.5Q115 -36 99 -52.5Q83 -69 61.5 -80Q40 -91 14 -96ZM154 -96 149 -65Q165 -61 178.5 -54.5Q192 -48 202.5 -39.5Q213 -31 218.5 -21.5Q224 -12 225 -2L224 0Q224 0 221 -0.5Q218 -1 216.5 -1.5Q215 -2 213.5 -2Q212 -2 211 -2Q202 -2 194 1Q186 4 180 10Q174 16 170.5 24.5Q167 33 167 43Q167 54 171 63Q175 72 182 78.5Q189 85 198 88.5Q207 92 217 92Q231 92 241 87.5Q251 83 258 74.5Q265 66 268.5 53.5Q272 41 272 24Q272 3 263.5 -16.5Q255 -36 239 -52.5Q223 -69 201.5 -80Q180 -91 154 -96Z" glyph-name="quotedblbase" horiz-adv-x="351" unicode="&#8222;" /><glyph d="M223 710 228 679Q212 675 198.5 668.5Q185 662 174.5 653.5Q164 645 158.5 635.5Q153 626 152 616L153 614Q153 614 156 614.5Q159 615 160.5 615.5Q162 616 163.5 616Q165 616 166 616Q175 616 183 613Q191 610 197 604Q203 598 206.5 589.5Q210 581 210 571Q210 560 206 551Q202 542 195 535.5Q188 529 179 525.5Q170 522 160 522Q146 522 136 526.5Q126 531 119 539.5Q112 548 108.5 560.5Q105 573 105 590Q105 611 113.5 630.5Q122 650 138 666.5Q154 683 175.5 694Q197 705 223 710ZM358 710 363 679Q347 675 333.5 668.5Q320 662 309.5 653.5Q299 645 293.5 635.5Q288 626 287 616L288 614Q288 614 291 614.5Q294 615 295.5 615.5Q297 616 298.5 616Q300 616 301 616Q310 616 318 613Q326 610 332 604Q338 598 341.5 589.5Q345 581 345 571Q345 560 341 551Q337 542 330 535.5Q323 529 314 525.5Q305 522 295 522Q281 522 271 526.5Q261 531 254 539.5Q247 548 243.5 560.5Q240 573 240 590Q240 611 248.5 630.5Q257 650 273 666.5Q289 683 310.5 694Q332 705 358 710Z" glyph-name="quotedblleft" horiz-adv-x="295" unicode="&#8220;" /><glyph d="M115 521 110 552Q126 556 139.5 562.5Q153 569 163.5 577.5Q174 586 179.5 595.5Q185 605 186 615L185 617Q185 617 182 616.5Q179 616 177.5 615.5Q176 615 174.5 615Q173 615 172 615Q163 615 155 618Q147 621 141 627Q135 633 131.5 641.5Q128 650 128 660Q128 671 132 680Q136 689 143 695.5Q150 702 159 705.5Q168 709 178 709Q192 709 202 704.5Q212 700 219 691.5Q226 683 229.5 670.5Q233 658 233 641Q233 620 224.5 600.5Q216 581 200 564.5Q184 548 162.5 537Q141 526 115 521ZM250 521 245 552Q261 556 274.5 562.5Q288 569 298.5 577.5Q309 586 314.5 595.5Q320 605 321 615L320 617Q320 617 317 616.5Q314 616 312.5 615.5Q311 615 309.5 615Q308 615 307 615Q298 615 290 618Q282 621 276 627Q270 633 266.5 641.5Q263 650 263 660Q263 671 267 680Q271 689 278 695.5Q285 702 294 705.5Q303 709 313 709Q327 709 337 704.5Q347 700 354 691.5Q361 683 364.5 670.5Q368 658 368 641Q368 620 359.5 600.5Q351 581 335 564.5Q319 548 297.5 537Q276 526 250 521Z" glyph-name="quotedblright" horiz-adv-x="295" unicode="&#8221;" /><glyph d="M223 709 228 678Q212 674 198.5 667.5Q185 661 174.5 652.5Q164 644 158.5 634.5Q153 625 152 615L153 613Q153 613 156 613.5Q159 614 160.5 614.5Q162 615 163.5 615Q165 615 166 615Q175 615 183 612Q191 609 197 603Q203 597 206.5 588.5Q210 580 210 570Q210 559 206 550Q202 541 195 534.5Q188 528 179 524.5Q170 521 160 521Q146 521 136 525.5Q126 530 119 538.5Q112 547 108.5 559.5Q105 572 105 589Q105 610 113.5 629.5Q122 649 138 665.5Q154 682 175.5 693Q197 704 223 709Z" glyph-name="quoteleft" horiz-adv-x="160" unicode="&#8216;" /><glyph d="M115 521 110 552Q126 556 139.5 562.5Q153 569 163.5 577.5Q174 586 179.5 595.5Q185 605 186 615L185 617Q185 617 182 616.5Q179 616 177.5 615.5Q176 615 174.5 615Q173 615 172 615Q163 615 155 618Q147 621 141 627Q135 633 131.5 641.5Q128 650 128 660Q128 671 132 680Q136 689 143 695.5Q150 702 159 705.5Q168 709 178 709Q192 709 202 704.5Q212 700 219 691.5Q226 683 229.5 670.5Q233 658 233 641Q233 620 224.5 600.5Q216 581 200 564.5Q184 548 162.5 537Q141 526 115 521Z" glyph-name="quoteright" horiz-adv-x="160" unicode="&#8217;" /><glyph d="M14 -96 9 -65Q25 -61 38.5 -54.5Q52 -48 62.5 -39.5Q73 -31 78.5 -21.5Q84 -12 85 -2L84 0Q84 0 81 -0.5Q78 -1 76.5 -1.5Q75 -2 73.5 -2Q72 -2 71 -2Q62 -2 54 1Q46 4 40 10Q34 16 30.5 24.5Q27 33 27 43Q27 54 31 63Q35 72 42 78.5Q49 85 58 88.5Q67 92 77 92Q91 92 101 87.5Q111 83 118 74.5Q125 66 128.5 53.5Q132 41 132 24Q132 3 123.5 -16.5Q115 -36 99 -52.5Q83 -69 61.5 -80Q40 -91 14 -96Z" glyph-name="quotesinglbase" horiz-adv-x="215" unicode="&#8218;" /><glyph d="M193 492H121L174 700H258Z" glyph-name="quotesingle" horiz-adv-x="196" unicode="'" /><glyph d="M122 0H29L129 470Q131 478 132 486Q133 494 133.5 502Q134 510 134.5 517Q135 524 135 531Q135 534 135 535.5Q135 537 135 539Q135 541 134.5 542.5Q134 544 134 545H218V530Q218 524 218 517.5Q218 511 217.5 503.5Q217 496 216 487.5Q215 479 214 470H216Q227 488 241 503Q255 518 273 529Q291 540 311.5 546.5Q332 553 354 553Q359 553 364.5 552.5Q370 552 375 551Q380 550 385 549Q390 548 395 546L367 457Q365 458 361 459Q357 460 352.5 461Q348 462 343 462.5Q338 463 333 463Q303 463 279 452Q255 441 236.5 420.5Q218 400 206 372Q194 344 187 310Z" glyph-name="r" horiz-adv-x="341" unicode="r" /><glyph d="M768 350Q768 274 740.5 208Q713 142 664 93Q615 44 548.5 17Q482 -10 407 -10Q331 -10 265 17Q199 44 149.5 93Q100 142 72.5 208Q45 274 45 350Q45 425 72.5 491Q100 557 149.5 606.5Q199 656 265 683Q331 710 407 710Q482 710 548.5 683Q615 656 664 606.5Q713 557 740.5 491Q768 425 768 350ZM408 50Q471 50 525.5 72.5Q580 95 620 135.5Q660 176 682 231Q704 286 704 350Q704 413 682 468Q660 523 620 563.5Q580 604 525.5 626.5Q471 649 408 649Q345 649 290 626.5Q235 604 194.5 563Q154 522 131.5 467.5Q109 413 109 350Q109 286 131.5 231Q154 176 194.5 135.5Q235 95 290 72.5Q345 50 408 50ZM528 195H458L415 294Q413 294 411 293.5Q409 293 407 293Q405 293 403.5 293Q402 293 399 293H371V195H308V517H405Q433 517 454 509Q475 501 489.5 486Q504 471 511.5 450.5Q519 430 519 405Q519 390 516.5 376Q514 362 508.5 350Q503 338 495 328Q487 318 476 311ZM371 353H406Q419 353 428.5 357Q438 361 444 368Q450 375 453 384.5Q456 394 456 405Q456 416 453 425.5Q450 435 444 441.5Q438 448 428.5 452Q419 456 406 456H371Z" glyph-name="registered" horiz-adv-x="783" unicode="&#174;" /><glyph d="M258 767Q237 767 220 774Q203 781 191.5 792.5Q180 804 174.5 819Q169 834 169 849Q169 869 176 888Q183 907 197 922Q211 937 230.5 945.5Q250 954 275 954Q296 954 313 947Q330 940 341 928.5Q352 917 357.5 902.5Q363 888 363 873Q363 853 355.5 834Q348 815 334.5 799.5Q321 784 301.5 775.5Q282 767 258 767ZM259 823Q269 823 277 827Q285 831 291 837.5Q297 844 300 852Q303 860 303 868Q303 874 301 879.5Q299 885 295.5 889Q292 893 286 895.5Q280 898 273 898Q263 898 255 894Q247 890 241 883.5Q235 877 232 868.5Q229 860 229 852Q229 846 231 840.5Q233 835 236.5 831Q240 827 245.5 825Q251 823 259 823Z" glyph-name="ring" horiz-adv-x="252" unicode="&#730;" /><glyph d="M466 466 394 410Q386 425 373 437.5Q360 450 343.5 458.5Q327 467 309 471.5Q291 476 272 476Q253 476 236 471.5Q219 467 206 457.5Q193 448 185.5 433.5Q178 419 178 401Q178 371 202 355.5Q226 340 290 309.5Q354 279 386 246.5Q418 214 418 161Q418 123 404.5 91.5Q391 60 365.5 37.5Q340 15 304.5 2.5Q269 -10 226 -10Q192 -10 160 -2Q128 6 100.5 20Q73 34 51.5 54Q30 74 17 98L84 150Q94 132 110.5 118Q127 104 147 94Q167 84 189.5 78.5Q212 73 235 73Q256 73 273 78.5Q290 84 302.5 94Q315 104 321.5 118.5Q328 133 328 150Q328 184 302.5 201Q277 218 214.5 247.5Q152 277 120.5 308.5Q89 340 89 395Q89 429 102 458Q115 487 140 508.5Q165 530 200 541.5Q235 553 277 553Q305 553 333 547.5Q361 542 386 530.5Q411 519 431.5 503Q452 487 466 466Z" glyph-name="s" horiz-adv-x="452" unicode="s" /><glyph d="M466 466 394 410Q386 425 373 437.5Q360 450 343.5 458.5Q327 467 309 471.5Q291 476 272 476Q253 476 236 471.5Q219 467 206 457.5Q193 448 185.5 433.5Q178 419 178 401Q178 371 202 355.5Q226 340 290 309.5Q354 279 386 246.5Q418 214 418 161Q418 123 404.5 91.5Q391 60 365.5 37.5Q340 15 304.5 2.5Q269 -10 226 -10Q192 -10 160 -2Q128 6 100.5 20Q73 34 51.5 54Q30 74 17 98L84 150Q94 132 110.5 118Q127 104 147 94Q167 84 189.5 78.5Q212 73 235 73Q256 73 273 78.5Q290 84 302.5 94Q315 104 321.5 118.5Q328 133 328 150Q328 184 302.5 201Q277 218 214.5 247.5Q152 277 120.5 308.5Q89 340 89 395Q89 429 102 458Q115 487 140 508.5Q165 530 200 541.5Q235 553 277 553Q305 553 333 547.5Q361 542 386 530.5Q411 519 431.5 503Q452 487 466 466ZM180 737 240 791 281 735Q288 725 293 718Q298 711 302.5 704.5Q307 698 310.5 692Q314 686 317 681H319Q333 695 342.5 704.5Q352 714 363 724.5Q374 735 384 743L442 793L487 731L336 613H285Z" glyph-name="scaron" horiz-adv-x="451" unicode="&#353;" /><glyph d="M428 224V222Q434 218 438.5 211Q443 204 446 195.5Q449 187 450.5 177Q452 167 452 156Q452 124 438 94Q424 64 397.5 40.5Q371 17 332 3.5Q293 -10 244 -10Q205 -10 171 -1.5Q137 7 109.5 23.5Q82 40 62.5 62Q43 84 32 110L108 158Q115 140 129.5 124Q144 108 164.5 96Q185 84 209 77.5Q233 71 259 71Q284 71 304 77.5Q324 84 337 95Q350 106 357 119.5Q364 133 364 148Q364 181 335.5 197.5Q307 214 238.5 239Q170 264 135.5 292.5Q101 321 101 373Q101 392 106.5 410.5Q112 429 122 444.5Q132 460 146.5 472.5Q161 485 178 493V495Q174 500 170 507Q166 514 164 521.5Q162 529 160.5 538Q159 547 159 556Q159 588 171.5 616Q184 644 208.5 665.5Q233 687 267.5 699Q302 711 344 711Q381 711 413 701.5Q445 692 469 675Q493 658 509 635Q525 612 532 585L455 541Q450 561 440.5 577.5Q431 594 417 606Q403 618 384.5 624.5Q366 631 344 631Q323 631 306 625.5Q289 620 277 610Q265 600 258.5 587Q252 574 252 560Q252 527 278.5 510Q305 493 367 466.5Q429 440 460.5 411.5Q492 383 492 334Q492 316 487 300Q482 284 473.5 269.5Q465 255 453.5 243.5Q442 232 428 224ZM218 454Q209 449 202 442Q195 435 190 427Q185 419 182 410Q179 401 179 392Q179 368 197 351.5Q215 335 226.5 330Q238 325 296 301Q354 277 378 262Q386 267 391.5 273Q397 279 401 286Q405 293 407 300.5Q409 308 409 316Q409 340 392 356.5Q375 373 308 404.5Q241 436 218 454Z" glyph-name="section" horiz-adv-x="503" unicode="&#167;" /><glyph d="M12 -96 7 -65Q23 -61 36.5 -54.5Q50 -48 60.5 -39.5Q71 -31 76.5 -21.5Q82 -12 83 -2L82 0Q82 0 79 -0.5Q76 -1 74.5 -1.5Q73 -2 71.5 -2Q70 -2 69 -2Q60 -2 52 1Q44 4 38 10Q32 16 28.5 24.5Q25 33 25 43Q25 54 29 63Q33 72 40 78.5Q47 85 56 88.5Q65 92 75 92Q89 92 99 87.5Q109 83 116 74.5Q123 66 126.5 53.5Q130 41 130 24Q130 3 121.5 -16.5Q113 -36 97 -52.5Q81 -69 59.5 -80Q38 -91 12 -96ZM147 317Q136 317 125.5 321Q115 325 107.5 333Q100 341 95.5 351.5Q91 362 91 374Q91 386 95.5 396Q100 406 107.5 414Q115 422 125.5 426Q136 430 147 430Q158 430 168.5 426Q179 422 187 414Q195 406 199.5 396Q204 386 204 374Q204 362 199.5 351.5Q195 341 187 333Q179 325 169 321Q159 317 147 317Z" glyph-name="semicolon" horiz-adv-x="212" unicode=";" /><glyph d="M144 0H38L362 612H108L126 700H515Z" glyph-name="seven" horiz-adv-x="400" unicode="7" /><glyph d="M124 -87H26L327 457H66L85 545H473Z" glyph-name="seven.osf" horiz-adv-x="411" /><glyph d="M532 582 449 540Q443 561 434.5 576Q426 591 414.5 601Q403 611 388.5 616Q374 621 356 621Q317 621 286.5 597Q256 573 233 534Q210 495 194.5 448Q179 401 168 350H170Q181 368 197 384Q213 400 232.5 411.5Q252 423 274 429.5Q296 436 318 436Q355 436 384 424Q413 412 433.5 389Q454 366 464.5 333Q475 300 475 258Q475 211 460 163.5Q445 116 416 76.5Q387 37 343 13.5Q299 -10 243 -10Q197 -10 162.5 7.5Q128 25 106.5 55.5Q85 86 74.5 126.5Q64 167 64 214Q64 301 82.5 388.5Q101 476 138 549Q175 622 232 666Q289 710 362 710Q396 710 425 700.5Q454 691 475.5 673.5Q497 656 511 633Q525 610 532 582ZM252 78Q282 78 306.5 93Q331 108 348 133Q365 158 374 189Q383 220 383 252Q383 275 378 294.5Q373 314 362 329Q351 344 334 352Q317 360 294 360Q268 360 243.5 347.5Q219 335 199.5 313.5Q180 292 169 263Q158 234 158 203Q158 178 163.5 155.5Q169 133 180 115.5Q191 98 209 88Q227 78 252 78Z" glyph-name="six" horiz-adv-x="517" unicode="6" /><glyph d="M497 548 429 484Q420 499 409 510.5Q398 522 385 530Q372 538 356 542.5Q340 547 321 547Q285 547 257 532Q229 517 208 489Q187 461 172 423Q157 385 146 338H148Q159 354 174 366.5Q189 379 207 387.5Q225 396 244.5 400.5Q264 405 284 405Q316 405 345 395.5Q374 386 397.5 366.5Q421 347 435 316.5Q449 286 449 245Q449 200 434.5 155Q420 110 391.5 72.5Q363 35 320.5 12.5Q278 -10 223 -10Q175 -10 140 7Q105 24 83.5 54Q62 84 52.5 122Q43 160 43 203Q43 271 58.5 346Q74 421 107.5 487.5Q141 554 196 595.5Q251 637 325 637Q350 637 374.5 631Q399 625 421 613.5Q443 602 462.5 585.5Q482 569 497 548ZM232 78Q260 78 283.5 91Q307 104 323.5 126Q340 148 348.5 174.5Q357 201 357 227Q357 250 350.5 268Q344 286 331.5 299Q319 312 301.5 318.5Q284 325 262 325Q234 325 211 314Q188 303 171.5 284Q155 265 146 241.5Q137 218 137 194Q137 171 142.5 150.5Q148 130 159.5 113.5Q171 97 189 87.5Q207 78 232 78Z" glyph-name="six.osf" horiz-adv-x="490" /><glyph d="M80 -60H-17L313 760H411Z" glyph-name="slash" horiz-adv-x="323" unicode="/" /><glyph glyph-name="space" horiz-adv-x="260" unicode=" " /><glyph d="M418 109 438 27Q429 20 420.5 14.5Q412 9 398.5 2Q385 -5 367.5 -9.5Q350 -14 331 -14Q310 -14 289 -11Q268 -8 238 -2.5Q208 3 189 5.5Q170 8 152 8Q141 8 130.5 6.5Q120 5 110 2Q100 -1 90.5 -6.5Q81 -12 72 -19L36 50Q60 68 78 92.5Q96 117 108.5 146Q121 175 128.5 207Q136 239 139 275H58L66 311H144Q162 488 164.5 509.5Q167 531 186.5 586.5Q206 642 247.5 676Q289 710 360 710Q396 710 427 698Q458 686 480.5 664Q503 642 516 610.5Q529 579 531 542L444 502Q444 527 438.5 548.5Q433 570 422 586.5Q411 603 395 612Q379 621 358 621Q319 621 296.5 594.5Q274 568 263.5 525.5Q253 483 243.5 397.5Q234 312 234 311H394L386 275H229Q224 244 216.5 216.5Q209 189 199.5 165.5Q190 142 178 123Q166 104 152 90Q153 89 153 88.5Q153 88 153 88Q156 88 159 88.5Q162 89 164.5 89Q167 89 169.5 89Q172 89 176 89Q190 89 204 87.5Q218 86 241 83Q264 80 280.5 78.5Q297 77 314 77Q332 77 348 80Q364 83 377.5 87.5Q391 92 401 97.5Q411 103 418 109Z" glyph-name="sterling" horiz-adv-x="518" unicode="&#163;" /><glyph d="M410 104 437 20Q431 16 420.5 11Q410 6 395 1Q380 -4 361 -7.5Q342 -11 322 -11Q304 -11 286 -8.5Q268 -6 240 -1Q212 4 193.5 6.5Q175 9 157 9Q145 9 134.5 8Q124 7 114 4Q104 1 94 -3.5Q84 -8 75 -15L42 47Q60 60 74 76Q88 92 98.5 111.5Q109 131 116.5 153.5Q124 176 129 202H63L76 267H139Q156 389 156.5 394Q157 399 176 445Q195 491 235 522.5Q275 554 341 554Q379 554 409 541.5Q439 529 460 507.5Q481 486 492.5 458Q504 430 507 399L416 378Q414 400 408.5 417Q403 434 393 445.5Q383 457 369 463Q355 469 337 469Q310 469 292 456Q274 443 261.5 418.5Q249 394 241 357.5Q233 321 225 267H375L361 202H214Q210 178 203.5 158.5Q197 139 189 124Q181 109 172 98Q163 87 153 79Q154 78 154 78Q154 78 154 77Q160 79 167 80.5Q174 82 181.5 83Q189 84 198.5 84.5Q208 85 220 85Q231 85 242.5 84Q254 83 270.5 80.5Q287 78 298 77Q309 76 320 76Q338 76 353 79Q368 82 379 86.5Q390 91 397 95Q404 99 410 104Z" glyph-name="sterling.osf" horiz-adv-x="518" /><glyph d="M271 87 272 -1Q264 -3 256 -5Q248 -7 239.5 -8Q231 -9 222 -10Q213 -11 204 -11Q172 -11 147 -1.5Q122 8 104.5 26Q87 44 78.5 68.5Q70 93 70 123Q70 130 70.5 137Q71 144 71.5 151Q72 158 73.5 165Q75 172 76 179L137 465H72L90 545H154L185 688H277L247 545H360L342 465H229L167 169Q166 165 165 161Q164 157 163.5 153Q163 149 163 145.5Q163 142 163 139Q163 124 167 112.5Q171 101 178.5 92.5Q186 84 197 80Q208 76 223 76Q230 76 236.5 76.5Q243 77 249 78.5Q255 80 260.5 82Q266 84 271 87Z" glyph-name="t" horiz-adv-x="334" unicode="t" /><glyph d="M77 -200H-15L183 730H276L254 629Q245 589 241.5 573.5Q238 558 233.5 538Q229 518 225.5 505Q222 492 221 491H223Q233 505 246 516.5Q259 528 275 536.5Q291 545 309 550Q327 555 346 555Q380 555 406.5 542.5Q433 530 451.5 506Q470 482 479.5 446.5Q489 411 489 365Q489 289 470 220.5Q451 152 417 100Q383 48 338.5 19Q294 -10 245 -10Q224 -10 205.5 -5Q187 0 172.5 9.5Q158 19 148 32.5Q138 46 132 63H130Q127 46 125 33.5Q123 21 119.5 4.5Q116 -12 113 -29ZM237 72Q274 72 304 98.5Q334 125 355 169Q376 213 386.5 264.5Q397 316 397 364Q397 389 392.5 409.5Q388 430 378.5 444.5Q369 459 354.5 466.5Q340 474 319 474Q295 474 274 462.5Q253 451 236.5 432Q220 413 208.5 389.5Q197 366 191 342Q183 310 178.5 290.5Q174 271 169.5 248Q165 225 162 204Q159 183 159 167Q159 148 163.5 131Q168 114 177 100.5Q186 87 201 79.5Q216 72 237 72Z" glyph-name="thorn" horiz-adv-x="510" unicode="&#254;" /><glyph d="M525 625 302 415 303 413Q342 410 371.5 396Q401 382 420 358.5Q439 335 448.5 305.5Q458 276 458 242Q458 191 441.5 145Q425 99 394 64Q363 29 318.5 9.5Q274 -10 220 -10Q180 -10 146 2Q112 14 86.5 35Q61 56 46 84Q31 112 27 144L115 190Q116 165 124.5 144Q133 123 148 108.5Q163 94 183.5 86Q204 78 227 78Q259 78 284.5 91Q310 104 328 126.5Q346 149 355 176Q364 203 364 230Q364 252 357.5 272Q351 292 338 308.5Q325 325 305.5 334.5Q286 344 261 344Q256 344 251.5 344Q247 344 242.5 343.5Q238 343 233 342.5Q228 342 223 341L198 422L395 610H150L170 700H541Z" glyph-name="three" horiz-adv-x="486" unicode="3" /><glyph d="M492 445 353 332Q347 327 337.5 319Q328 311 322.5 307Q317 303 311.5 298.5Q306 294 301 290L302 288Q337 284 364 271.5Q391 259 410 238Q429 217 439 189Q449 161 449 126Q449 80 433.5 40Q418 0 388 -31Q358 -62 315 -79Q272 -96 219 -96Q176 -96 140 -85Q104 -74 76.5 -53.5Q49 -33 31.5 -4.5Q14 24 8 57L95 92Q98 66 108.5 47Q119 28 135.5 16Q152 4 173 -2Q194 -8 218 -8Q251 -8 276.5 2Q302 12 319 30Q336 48 344.5 71Q353 94 353 120Q353 143 344.5 161.5Q336 180 319.5 193Q303 206 279.5 212.5Q256 219 228 219Q226 219 224.5 219Q223 219 220.5 218.5Q218 218 216.5 218Q215 218 213 218L198 303L376 454H121L140 545H514Z" glyph-name="three.osf" horiz-adv-x="496" /><glyph d="M382 0H319L331 57H213L381 316H449L407 118H442L430 57H394ZM350 114 374 229H372Q363 212 354.5 197Q346 182 337 167.5Q328 153 319.5 140.5Q311 128 303 116V114ZM81 0H5L480 700H557ZM289 655 227 603Q221 598 214 592.5Q207 587 201 583Q195 579 187 573L188 571Q203 569 216 562.5Q229 556 238.5 545.5Q248 535 253 521Q258 507 258 490Q258 468 250.5 447.5Q243 427 227.5 410.5Q212 394 189.5 384.5Q167 375 139 375Q117 375 99 381Q81 387 67.5 397.5Q54 408 46 422.5Q38 437 35 455L93 482Q94 471 98.5 462Q103 453 110 446.5Q117 440 126 436.5Q135 433 146 433Q158 433 167.5 437Q177 441 183.5 448Q190 455 193.5 464.5Q197 474 197 484Q197 494 193.5 502Q190 510 184 515.5Q178 521 170 524.5Q162 528 152 528Q150 528 147.5 528Q145 528 143 527.5Q141 527 134 526L118 571L164 610Q171 616 178.5 621.5Q186 627 192 631.5Q198 636 207 641V643H90L102 700H298Z" glyph-name="threequarters" horiz-adv-x="527" unicode="&#190;" /><glyph d="M330 655 268 603Q262 598 255 592.5Q248 587 242 583Q236 579 228 573L229 571Q244 569 257 562.5Q270 556 279.5 545.5Q289 535 294 521Q299 507 299 490Q299 468 291.5 447.5Q284 427 268.5 410.5Q253 394 230.5 384.5Q208 375 180 375Q158 375 140 381Q122 387 108.5 397.5Q95 408 87 422.5Q79 437 76 455L134 482Q135 471 139.5 462Q144 453 151 446.5Q158 440 167 436.5Q176 433 187 433Q199 433 208.5 437Q218 441 224.5 448Q231 455 234.5 464.5Q238 474 238 484Q238 494 234.5 502Q231 510 225 515.5Q219 521 211 524.5Q203 528 193 528Q191 528 188.5 528Q186 528 184 527.5Q182 527 175 526L159 571L205 610Q212 616 219.5 621.5Q227 627 233 631.5Q239 636 248 641V643H131L143 700H339Z" glyph-name="threesuperior" horiz-adv-x="264" unicode="&#179;" /><glyph d="M435 892 502 890Q500 864 491.5 843Q483 822 468.5 806Q454 790 434.5 781.5Q415 773 391 773Q368 773 349.5 780Q331 787 307 801Q283 815 274.5 819.5Q266 824 254 824Q245 824 238 820Q231 816 226 809.5Q221 803 218 795.5Q215 788 213 779L147 781Q150 809 159 831Q168 853 183 868Q198 883 217 890.5Q236 898 258 898Q280 898 298.5 891Q317 884 340.5 870Q364 856 373 851Q382 846 394 846Q403 846 410 850Q417 854 422 860.5Q427 867 430 875Q433 883 435 892Z" glyph-name="tilde" horiz-adv-x="395" unicode="&#732;" /><glyph d="M593 385H529L566 549Q568 557 570 566Q572 575 574 582.5Q576 590 579 601H577Q570 591 564.5 584Q559 577 552 567.5Q545 558 537 549L471 467H469L440 545Q437 554 433.5 563.5Q430 573 427 581Q424 589 420 601H418Q415 586 413.5 576Q412 566 409.5 554.5Q407 543 405 533L374 385H311L378 700H443L466 635Q470 625 474 614Q478 603 481 594Q484 585 488 572H490Q499 584 505.5 592.5Q512 601 521 612.5Q530 624 539 635L592 700H660ZM193 385H130L184 639H117L129 700H328L316 639H247Z" glyph-name="trademark" horiz-adv-x="587" unicode="&#8482;" /><glyph d="M388 0H-11V1L341 391Q356 407 369 425Q382 443 392.5 462Q403 481 409 501Q415 521 415 539Q415 556 409.5 571.5Q404 587 393.5 598Q383 609 367 615.5Q351 622 331 622Q308 622 287 612Q266 602 248.5 583.5Q231 565 217.5 540.5Q204 516 195 488L117 541Q134 580 155 610.5Q176 641 203 663.5Q230 686 264 698Q298 710 338 710Q381 710 413 697.5Q445 685 466.5 662.5Q488 640 498.5 610.5Q509 581 509 548Q509 519 501.5 490Q494 461 480 433Q466 405 447 379Q428 353 405 327L250 156Q240 145 229.5 134.5Q219 124 210 115Q201 106 194 100Q187 94 185 92V90H406Z" glyph-name="two" horiz-adv-x="484" unicode="2" /><glyph d="M394 0H-9Q-8 2 -7.5 4Q-7 6 -6.5 7.5Q-6 9 -6 11Q-6 13 -5 15L283 264Q303 281 317 294.5Q331 308 342.5 323.5Q354 339 361 357Q368 375 368 395Q368 409 363 422Q358 435 348.5 445.5Q339 456 324 462Q309 468 289 468Q267 468 248.5 459.5Q230 451 214.5 436Q199 421 186.5 401Q174 381 163 355L81 394Q97 431 118.5 460.5Q140 490 167.5 511.5Q195 533 228 544Q261 555 298 555Q336 555 366.5 543Q397 531 417.5 509.5Q438 488 449 460.5Q460 433 460 402Q460 380 455 359Q450 338 440 317.5Q430 297 414 276Q398 255 376 235Q361 221 333 197.5Q305 174 274 150.5Q243 127 219 110Q195 93 187 91V88H413Z" glyph-name="two.osf" horiz-adv-x="476" /><glyph d="M270 385H75L77 395L234 571Q241 579 246 585.5Q251 592 255 598.5Q259 605 261 611Q263 617 263 624Q263 631 261 636Q259 641 255 645Q251 649 245.5 651Q240 653 233 653Q223 653 214.5 648Q206 643 199 635Q192 627 186.5 616.5Q181 606 176 593L123 619Q132 639 142.5 655Q153 671 166.5 683.5Q180 696 198 703Q216 710 237 710Q258 710 275 704Q292 698 303 687Q314 676 320 661.5Q326 647 326 631Q326 617 323 604Q320 591 313.5 579Q307 567 298.5 556Q290 545 279 534L250 506Q240 496 227.5 484Q215 472 210 467Q205 462 199 456.5Q193 451 186 445V443H283Z" glyph-name="twosuperior" horiz-adv-x="280" unicode="&#178;" /><glyph d="M498 85 478 -6Q444 -6 420.5 0Q397 6 382 17Q367 28 359.5 44Q352 60 348 82H346Q335 61 321 44.5Q307 28 290.5 15.5Q274 3 253 -3.5Q232 -10 207 -10Q171 -10 143 1.5Q115 13 96.5 34Q78 55 69 83.5Q60 112 60 145Q60 152 60.5 159.5Q61 167 61.5 174Q62 181 63.5 188.5Q65 196 67 204L140 545H232L158 196Q157 191 156 186Q155 181 154.5 176.5Q154 172 153.5 167Q153 162 153 158Q153 139 157 122.5Q161 106 170.5 93Q180 80 196 73Q212 66 235 66Q259 66 279.5 78Q300 90 315.5 110Q331 130 342 154.5Q353 179 358 206L431 545H523L440 155Q438 141 437.5 137.5Q437 134 436.5 130.5Q436 127 436 124Q436 113 439 105Q442 97 447 92Q452 87 460 84.5Q468 82 479 82Q481 82 483.5 82Q486 82 488 82.5Q490 83 492.5 83.5Q495 84 498 85Z" glyph-name="u" horiz-adv-x="547" unicode="u" /><glyph d="M498 85 478 -6Q444 -6 420.5 0Q397 6 382 17Q367 28 359.5 44Q352 60 348 82H346Q335 61 321 44.5Q307 28 290.5 15.5Q274 3 253 -3.5Q232 -10 207 -10Q171 -10 143 1.5Q115 13 96.5 34Q78 55 69 83.5Q60 112 60 145Q60 152 60.5 159.5Q61 167 61.5 174Q62 181 63.5 188.5Q65 196 67 204L140 545H232L158 196Q157 191 156 186Q155 181 154.5 176.5Q154 172 153.5 167Q153 162 153 158Q153 139 157 122.5Q161 106 170.5 93Q180 80 196 73Q212 66 235 66Q259 66 279.5 78Q300 90 315.5 110Q331 130 342 154.5Q353 179 358 206L431 545H523L440 155Q438 141 437.5 137.5Q437 134 436.5 130.5Q436 127 436 124Q436 113 439 105Q442 97 447 92Q452 87 460 84.5Q468 82 479 82Q481 82 483.5 82Q486 82 488 82.5Q490 83 492.5 83.5Q495 84 498 85ZM464 680 240 586 212 646 430 752Z" glyph-name="uacute" horiz-adv-x="547" unicode="&#250;" /><glyph d="M498 85 478 -6Q444 -6 420.5 0Q397 6 382 17Q367 28 359.5 44Q352 60 348 82H346Q335 61 321 44.5Q307 28 290.5 15.5Q274 3 253 -3.5Q232 -10 207 -10Q171 -10 143 1.5Q115 13 96.5 34Q78 55 69 83.5Q60 112 60 145Q60 152 60.5 159.5Q61 167 61.5 174Q62 181 63.5 188.5Q65 196 67 204L140 545H232L158 196Q157 191 156 186Q155 181 154.5 176.5Q154 172 153.5 167Q153 162 153 158Q153 139 157 122.5Q161 106 170.5 93Q180 80 196 73Q212 66 235 66Q259 66 279.5 78Q300 90 315.5 110Q331 130 342 154.5Q353 179 358 206L431 545H523L440 155Q438 141 437.5 137.5Q437 134 436.5 130.5Q436 127 436 124Q436 113 439 105Q442 97 447 92Q452 87 460 84.5Q468 82 479 82Q481 82 483.5 82Q486 82 488 82.5Q490 83 492.5 83.5Q495 84 498 85ZM502 649 442 595 401 651Q394 661 389 668Q384 675 379.5 681.5Q375 688 371.5 694Q368 700 365 705H363Q349 691 339.5 681.5Q330 672 319 661.5Q308 651 298 643L240 593L195 655L346 773H397Z" glyph-name="ucircumflex" horiz-adv-x="547" unicode="&#251;" /><glyph d="M498 85 478 -6Q444 -6 420.5 0Q397 6 382 17Q367 28 359.5 44Q352 60 348 82H346Q335 61 321 44.5Q307 28 290.5 15.5Q274 3 253 -3.5Q232 -10 207 -10Q171 -10 143 1.5Q115 13 96.5 34Q78 55 69 83.5Q60 112 60 145Q60 152 60.5 159.5Q61 167 61.5 174Q62 181 63.5 188.5Q65 196 67 204L140 545H232L158 196Q157 191 156 186Q155 181 154.5 176.5Q154 172 153.5 167Q153 162 153 158Q153 139 157 122.5Q161 106 170.5 93Q180 80 196 73Q212 66 235 66Q259 66 279.5 78Q300 90 315.5 110Q331 130 342 154.5Q353 179 358 206L431 545H523L440 155Q438 141 437.5 137.5Q437 134 436.5 130.5Q436 127 436 124Q436 113 439 105Q442 97 447 92Q452 87 460 84.5Q468 82 479 82Q481 82 483.5 82Q486 82 488 82.5Q490 83 492.5 83.5Q495 84 498 85ZM316 663Q316 653 312.5 644.5Q309 636 302.5 630Q296 624 287 621Q278 618 268 618Q258 618 249.5 621Q241 624 235 630Q229 636 225.5 644.5Q222 653 222 663Q222 673 225.5 681.5Q229 690 235 696Q241 702 249.5 705.5Q258 709 268 709Q278 709 287 705.5Q296 702 302.5 696Q309 690 312.5 681.5Q316 673 316 663ZM467 663Q467 653 463.5 644.5Q460 636 453.5 630Q447 624 438.5 621Q430 618 420 618Q410 618 401.5 621Q393 624 386.5 630Q380 636 376.5 644.5Q373 653 373 663Q373 673 376.5 681.5Q380 690 386.5 696Q393 702 401.5 705.5Q410 709 420 709Q430 709 438.5 705.5Q447 702 453.5 696Q460 690 463.5 681.5Q467 673 467 663Z" glyph-name="udieresis" horiz-adv-x="547" unicode="&#252;" /><glyph d="M498 85 478 -6Q444 -6 420.5 0Q397 6 382 17Q367 28 359.5 44Q352 60 348 82H346Q335 61 321 44.5Q307 28 290.5 15.5Q274 3 253 -3.5Q232 -10 207 -10Q171 -10 143 1.5Q115 13 96.5 34Q78 55 69 83.5Q60 112 60 145Q60 152 60.5 159.5Q61 167 61.5 174Q62 181 63.5 188.5Q65 196 67 204L140 545H232L158 196Q157 191 156 186Q155 181 154.5 176.5Q154 172 153.5 167Q153 162 153 158Q153 139 157 122.5Q161 106 170.5 93Q180 80 196 73Q212 66 235 66Q259 66 279.5 78Q300 90 315.5 110Q331 130 342 154.5Q353 179 358 206L431 545H523L440 155Q438 141 437.5 137.5Q437 134 436.5 130.5Q436 127 436 124Q436 113 439 105Q442 97 447 92Q452 87 460 84.5Q468 82 479 82Q481 82 483.5 82Q486 82 488 82.5Q490 83 492.5 83.5Q495 84 498 85ZM436 586 212 680 246 752 464 646Z" glyph-name="ugrave" horiz-adv-x="547" unicode="&#249;" /><glyph d="M337 -183H-46L-29 -100H354Z" glyph-name="underscore" horiz-adv-x="379" unicode="_" /><glyph glyph-name="uni00A0" horiz-adv-x="260" unicode="&#160;" /><glyph d="M221 1H124L73 545H171L192 242Q193 224 194 202.5Q195 181 195 162.5Q195 144 195 116H197Q207 142 214.5 160Q222 178 231 198.5Q240 219 248 237L393 545H493Z" glyph-name="v" horiz-adv-x="446" unicode="v" /><glyph d="M518 1H421L402 292Q401 313 400 333.5Q399 354 399 370.5Q399 387 399 410H396Q387 388 380.5 372Q374 356 365 336Q356 316 347 295L210 1H113L73 545H172L183 251Q184 231 184 207.5Q184 184 184 164.5Q184 145 184 116H186Q197 144 205 162.5Q213 181 222.5 203Q232 225 241 244L382 545H468L487 251Q488 230 489 207Q490 184 490.5 164.5Q491 145 492 116H494Q505 144 512.5 163Q520 182 529 204Q538 226 546 245L679 545H779Z" glyph-name="w" horiz-adv-x="731" unicode="w" /><glyph d="M372 0H276L240 146Q230 189 228 198.5Q226 208 225 213.5Q224 219 224 219H222Q222 218 219 212.5Q216 207 211.5 198.5Q207 190 200.5 179Q194 168 186 157L80 0H-18L171 275L96 545H193L226 414Q229 400 232.5 385.5Q236 371 238.5 359Q241 347 244 330H246Q256 346 263.5 357Q271 368 280 382Q289 396 298 409L389 545H488L297 273Z" glyph-name="x" horiz-adv-x="437" unicode="x" /><glyph d="M129 0 70 545H174L189 311Q191 285 192 259.5Q193 234 195 199Q197 164 197.5 149Q198 134 199 131H201Q202 133 220 176Q238 219 250 246Q262 273 274 298L391 545H491L218 -10Q193 -62 169 -98.5Q145 -135 120 -159Q95 -183 66 -195.5Q37 -208 3 -208Q-14 -208 -28.5 -206Q-43 -204 -56 -200Q-69 -196 -80.5 -189Q-92 -182 -103 -173L-48 -99Q-42 -104 -36 -107.5Q-30 -111 -23.5 -114Q-17 -117 -10.5 -118.5Q-4 -120 3 -120Q24 -120 39.5 -113Q55 -106 69 -92Q83 -78 97 -56.5Q111 -35 129 0Z" glyph-name="y" horiz-adv-x="447" unicode="y" /><glyph d="M129 0 70 545H174L189 311Q191 285 192 259.5Q193 234 195 199Q197 164 197.5 149Q198 134 199 131H201Q202 133 220 176Q238 219 250 246Q262 273 274 298L391 545H491L218 -10Q193 -62 169 -98.5Q145 -135 120 -159Q95 -183 66 -195.5Q37 -208 3 -208Q-14 -208 -28.5 -206Q-43 -204 -56 -200Q-69 -196 -80.5 -189Q-92 -182 -103 -173L-48 -99Q-42 -104 -36 -107.5Q-30 -111 -23.5 -114Q-17 -117 -10.5 -118.5Q-4 -120 3 -120Q24 -120 39.5 -113Q55 -106 69 -92Q83 -78 97 -56.5Q111 -35 129 0ZM417 680 193 586 165 646 383 752Z" glyph-name="yacute" horiz-adv-x="447" unicode="&#253;" /><glyph d="M129 0 70 545H174L189 311Q191 285 192 259.5Q193 234 195 199Q197 164 197.5 149Q198 134 199 131H201Q202 133 220 176Q238 219 250 246Q262 273 274 298L391 545H491L218 -10Q193 -62 169 -98.5Q145 -135 120 -159Q95 -183 66 -195.5Q37 -208 3 -208Q-14 -208 -28.5 -206Q-43 -204 -56 -200Q-69 -196 -80.5 -189Q-92 -182 -103 -173L-48 -99Q-42 -104 -36 -107.5Q-30 -111 -23.5 -114Q-17 -117 -10.5 -118.5Q-4 -120 3 -120Q24 -120 39.5 -113Q55 -106 69 -92Q83 -78 97 -56.5Q111 -35 129 0ZM266 663Q266 653 262.5 644.5Q259 636 252.5 630Q246 624 237 621Q228 618 218 618Q208 618 199.5 621Q191 624 185 630Q179 636 175.5 644.5Q172 653 172 663Q172 673 175.5 681.5Q179 690 185 696Q191 702 199.5 705.5Q208 709 218 709Q228 709 237 705.5Q246 702 252.5 696Q259 690 262.5 681.5Q266 673 266 663ZM417 663Q417 653 413.5 644.5Q410 636 403.5 630Q397 624 388.5 621Q380 618 370 618Q360 618 351.5 621Q343 624 336.5 630Q330 636 326.5 644.5Q323 653 323 663Q323 673 326.5 681.5Q330 690 336.5 696Q343 702 351.5 705.5Q360 709 370 709Q380 709 388.5 705.5Q397 702 403.5 696Q410 690 413.5 681.5Q417 673 417 663Z" glyph-name="ydieresis" horiz-adv-x="447" unicode="&#255;" /><glyph d="M235 0H141Q145 19 149 37.5Q153 56 157.5 75Q162 94 165.5 113Q169 132 173 150H48L56 184H180L185 205L178 255H70L78 289H174L125 700H224L247 442Q248 425 249.5 405Q251 385 251.5 367.5Q252 350 253 324H255Q261 339 267.5 353Q274 367 285 389.5Q296 412 311 441L442 700H548L325 289H414L406 255H306L277 201L273 184H392L384 150H266Z" glyph-name="yen" horiz-adv-x="465" unicode="&#165;" /><glyph d="M382 137H264L236 0H145L173 137H52L59 171H180L169 225H71L78 259H160L92 545H191L230 336Q232 325 234 312Q236 299 237.5 288Q239 277 241 261H243Q251 277 256.5 287.5Q262 298 269 311Q276 324 283 336L410 545H520L328 259H407L400 225H306L271 171H389Z" glyph-name="yen.osf" horiz-adv-x="465" /><glyph d="M350 0H-18V2L225 328Q240 348 257.5 370Q275 392 291 411Q307 430 317.5 442Q328 454 329 454V456H111L131 545H494V542L247 216Q232 196 214 174Q196 152 180 133.5Q164 115 153.5 102.5Q143 90 142 90V88H368Z" glyph-name="z" horiz-adv-x="448" unicode="z" /><glyph d="M345 0H-23V2L220 328Q235 348 252.5 370Q270 392 286 411Q302 430 312.5 442Q323 454 324 454V456H106L126 545H489V542L242 216Q227 196 209 174Q191 152 175 133.5Q159 115 148.5 102.5Q138 90 137 90V88H363ZM198 741 258 795 299 739Q306 729 311 722Q316 715 320.5 708.5Q325 702 328.5 696Q332 690 335 685H337Q351 699 360.5 708.5Q370 718 381 728.5Q392 739 402 747L460 797L505 735L354 617H303Z" glyph-name="zcaron" horiz-adv-x="448" unicode="&#382;" /><glyph d="M223 -10Q178 -10 146 7Q114 24 94 55.5Q74 87 64.5 130.5Q55 174 55 228Q55 307 73.5 391.5Q92 476 129 548.5Q166 621 222 665.5Q278 710 349 710Q396 710 428.5 690.5Q461 671 480 637Q499 603 507 560Q515 517 515 466Q515 390 498 307Q481 224 445.5 152Q410 80 354 35Q298 -10 223 -10ZM231 78Q276 78 312.5 118Q349 158 374 221Q399 284 411.5 353Q424 422 424 478Q424 507 420 532Q416 557 407 577Q398 597 382 609Q366 621 342 621Q297 621 260 580.5Q223 540 197.5 476Q172 412 159 343Q146 274 146 219Q146 188 150.5 162.5Q155 137 165 118Q175 99 191.5 88.5Q208 78 231 78Z" glyph-name="zero" horiz-adv-x="510" unicode="0" /><glyph d="M248 -10Q204 -10 168.5 6Q133 22 107.5 51.5Q82 81 69 122Q56 163 56 212Q56 285 75.5 348Q95 411 132 457.5Q169 504 221 529.5Q273 555 335 555Q382 555 418.5 540Q455 525 480 496.5Q505 468 517.5 427.5Q530 387 530 337Q530 272 513 210Q496 148 461 98.5Q426 49 372 19.5Q318 -10 248 -10ZM258 73Q299 73 332 93Q365 113 388.5 149Q412 185 424.5 232.5Q437 280 437 334Q437 367 430 392.5Q423 418 408.5 435.5Q394 453 373.5 462Q353 471 326 471Q285 471 252 450.5Q219 430 195.5 393.5Q172 357 160 310Q148 263 148 211Q148 179 155 153.5Q162 128 176 110Q190 92 211 82.5Q232 73 258 73Z" glyph-name="zero.osf" horiz-adv-x="540" /></font>
</defs>
</svg>
