<?xml version="1.0" standalone="no"?><!DOCTYPE svg PUBLIC "-//W3C//DTD SVG 1.1//EN" "http://www.w3.org/Graphics/SVG/1.1/DTD/svg11.dtd" ><svg version="1.1" xmlns="http://www.w3.org/2000/svg"><defs><font horiz-adv-x="0" id="font"><font-face ascent="750" bbox="-72 -264 1368 930" cap-height="700" descent="-250" font-family="Mission Gothic" font-stretch="normal" font-style="normal" font-weight="420" units-per-em="1000" x-height="527" /><missing-glyph horiz-adv-x="115" /><glyph d="M463 0H399L351 171H125L77 0H14L210 700H267ZM338 227 258 521Q255 532 251.5 545Q248 558 245.5 569Q243 580 239 597H237Q233 580 230.5 569Q228 558 225 545Q222 532 219 521L139 227Z" glyph-name="A" horiz-adv-x="477" unicode="A" /><glyph d="M681 0H342V171H150L68 0H4L335 700H681V641H403V349H642V291H403V58H681ZM342 229V589H339Q334 575 329 563.5Q324 552 318.5 539.5Q313 527 306 511.5Q299 496 287 471L175 229Z" glyph-name="AE" horiz-adv-x="752" unicode="&#198;" /><glyph d="M463 0H399L351 171H125L77 0H14L210 700H267ZM338 227 258 521Q255 532 251.5 545Q248 558 245.5 569Q243 580 239 597H237Q233 580 230.5 569Q228 558 225 545Q222 532 219 521L139 227ZM357 826 141 735 121 778 333 878Z" glyph-name="Aacute" horiz-adv-x="477" unicode="&#193;" /><glyph d="M463 0H399L351 171H125L77 0H14L210 700H267ZM338 227 258 521Q255 532 251.5 545Q248 558 245.5 569Q243 580 239 597H237Q233 580 230.5 569Q228 558 225 545Q222 532 219 521L139 227ZM340 759 292 808Q281 819 272 829Q263 839 257 846.5Q251 854 244 863H242Q242 863 237.5 857.5Q233 852 227 845Q221 838 212.5 828Q204 818 194 808L146 759L106 799L233 921H254L379 799Z" glyph-name="Acircumflex" horiz-adv-x="477" unicode="&#194;" /><glyph d="M463 0H399L351 171H125L77 0H14L210 700H267ZM338 227 258 521Q255 532 251.5 545Q248 558 245.5 569Q243 580 239 597H237Q233 580 230.5 569Q228 558 225 545Q222 532 219 521L139 227ZM169 764Q162 764 155.5 766.5Q149 769 144.5 773.5Q140 778 137.5 784.5Q135 791 135 798Q135 805 137.5 811.5Q140 818 144.5 822.5Q149 827 155.5 829.5Q162 832 169 832Q176 832 182.5 829.5Q189 827 194 822.5Q199 818 201.5 811.5Q204 805 204 798Q204 791 201.5 784.5Q199 778 194 773.5Q189 769 182.5 766.5Q176 764 169 764ZM314 764Q307 764 300.5 766.5Q294 769 289.5 773.5Q285 778 282.5 784.5Q280 791 280 798Q280 805 282.5 811.5Q285 818 289.5 822.5Q294 827 300.5 829.5Q307 832 314 832Q321 832 327.5 829.5Q334 827 339 822.5Q344 818 346.5 811.5Q349 805 349 798Q349 791 346.5 784.5Q344 778 339 773.5Q334 769 327.5 766.5Q321 764 314 764Z" glyph-name="Adieresis" horiz-adv-x="477" unicode="&#196;" /><glyph d="M463 0H399L351 171H125L77 0H14L210 700H267ZM338 227 258 521Q255 532 251.5 545Q248 558 245.5 569Q243 580 239 597H237Q233 580 230.5 569Q228 558 225 545Q222 532 219 521L139 227ZM321 735 104 826 128 878 340 778Z" glyph-name="Agrave" horiz-adv-x="477" unicode="&#192;" /><glyph d="M463 0H399L351 171H125L77 0H14L210 700H267ZM338 227 258 521Q255 532 251.5 545Q248 558 245.5 569Q243 580 239 597H237Q233 580 230.5 569Q228 558 225 545Q222 532 219 521L139 227ZM323 848Q323 831 317 816.5Q311 802 300.5 792Q290 782 275 776.5Q260 771 242 771Q224 771 209 776.5Q194 782 183 792Q172 802 166 816.5Q160 831 160 848Q160 865 166 879.5Q172 894 183 904.5Q194 915 209 920.5Q224 926 242 926Q260 926 275 920.5Q290 915 300.5 904.5Q311 894 317 879.5Q323 865 323 848ZM281 848Q281 856 278 863Q275 870 269.5 875Q264 880 257 883Q250 886 242 886Q234 886 227 883Q220 880 214.5 875Q209 870 206 863Q203 856 203 848Q203 840 206 833Q209 826 214.5 821Q220 816 227 813.5Q234 811 242 811Q250 811 257 813.5Q264 816 269.5 821Q275 826 278 833Q281 840 281 848Z" glyph-name="Aring" horiz-adv-x="477" unicode="&#197;" /><glyph d="M463 0H399L351 171H125L77 0H14L210 700H267ZM338 227 258 521Q255 532 251.5 545Q248 558 245.5 569Q243 580 239 597H237Q233 580 230.5 569Q228 558 225 545Q222 532 219 521L139 227ZM340 884H387Q387 857 382.5 836.5Q378 816 367.5 801Q357 786 340 778Q323 770 298 770Q277 770 260 779Q243 788 223 805.5Q203 823 192 830Q181 837 168 837Q155 837 147 831.5Q139 826 134.5 817.5Q130 809 128.5 798.5Q127 788 127 776H79Q79 802 84 823Q89 844 99.5 858.5Q110 873 127 881Q144 889 168 889Q189 889 205.5 880Q222 871 242.5 853.5Q263 836 274 828.5Q285 821 298 821Q310 821 318.5 826.5Q327 832 331.5 841.5Q336 851 338 862Q340 873 340 884Z" glyph-name="Atilde" horiz-adv-x="477" unicode="&#195;" /><glyph d="M266 0H84V700H235Q286 700 325 689Q364 678 390.5 656Q417 634 430 600.5Q443 567 443 523Q443 496 436.5 473.5Q430 451 417 432Q404 413 384.5 399.5Q365 386 339 377V375Q373 369 399.5 354Q426 339 443.5 317Q461 295 470 265.5Q479 236 479 201Q479 155 466 118.5Q453 82 426.5 55.5Q400 29 360 14.5Q320 0 266 0ZM145 58H269Q307 58 335.5 68Q364 78 383 96.5Q402 115 411 141.5Q420 168 420 201Q420 234 411 260.5Q402 287 383 305.5Q364 324 335.5 333.5Q307 343 269 343H145ZM145 398H231Q269 398 297.5 406.5Q326 415 345 431Q364 447 373 470Q382 493 382 522Q382 555 373 578Q364 601 345.5 615Q327 629 298.5 635.5Q270 642 231 642H145Z" glyph-name="B" horiz-adv-x="529" unicode="B" /><glyph d="M416 171 470 145Q457 109 439 80.5Q421 52 396.5 32Q372 12 341.5 1Q311 -10 274 -10Q214 -10 170.5 17.5Q127 45 100 93.5Q73 142 60.5 207Q48 272 48 350Q48 428 60.5 493Q73 558 100 606.5Q127 655 170.5 682.5Q214 710 274 710Q312 710 343.5 698.5Q375 687 400 665.5Q425 644 443 613.5Q461 583 474 545L419 520Q409 551 395.5 575.5Q382 600 364.5 617.5Q347 635 324 644Q301 653 274 653Q231 653 199 631Q167 609 147 568.5Q127 528 117.5 472.5Q108 417 108 350Q108 283 117.5 227.5Q127 172 147 131.5Q167 91 199 69Q231 47 274 47Q300 47 322 55.5Q344 64 362 80Q380 96 393 119Q406 142 416 171Z" glyph-name="C" horiz-adv-x="504" unicode="C" /><glyph glyph-name="CR" horiz-adv-x="260" unicode="" /><glyph d="M165 -208 205 -176Q209 -185 215.5 -192Q222 -199 230.5 -204.5Q239 -210 248.5 -213Q258 -216 269 -216Q283 -216 294 -212Q305 -208 312.5 -201Q320 -194 323.5 -184Q327 -174 327 -163Q327 -152 322.5 -142.5Q318 -133 310 -126.5Q302 -120 291 -116.5Q280 -113 267 -113Q257 -113 248.5 -115Q240 -117 232.5 -120.5Q225 -124 219.5 -128Q214 -132 211 -136L171 -113Q174 -99 177 -85Q180 -71 183 -57Q186 -43 197 3Q158 19 129.5 51.5Q101 84 83 129.5Q65 175 56.5 230.5Q48 286 48 350Q48 428 60.5 493Q73 558 100 606.5Q127 655 170.5 682.5Q214 710 274 710Q312 710 344 698.5Q376 687 400.5 665Q425 643 443.5 613Q462 583 474 545L420 519Q410 551 396.5 575.5Q383 600 365 617Q347 634 324.5 643Q302 652 274 652Q231 652 199.5 630Q168 608 148 567.5Q128 527 118.5 472Q109 417 109 350Q109 282 118.5 227Q128 172 148 131.5Q168 91 199.5 69Q231 47 274 47Q301 47 323 55.5Q345 64 363 80Q381 96 394 118.5Q407 141 417 170Q423 167 429 164Q435 161 445.5 156Q456 151 460.5 149Q465 147 471 144Q458 108 439.5 79.5Q421 51 396.5 31Q372 11 341.5 0.5Q311 -10 274 -10Q270 -10 266 -9.5Q262 -9 258 -8.5Q254 -8 250 -7.5Q246 -7 242 -6Q240 -15 237.5 -24.5Q235 -34 232.5 -43Q230 -52 223 -82Q223 -82 223.5 -82Q224 -82 224 -82.5Q224 -83 224.5 -83Q225 -83 225 -83Q231 -80 237 -77.5Q243 -75 249.5 -73Q256 -71 264 -69.5Q272 -68 280 -68Q301 -68 319 -75Q337 -82 350 -95Q363 -108 370 -126Q377 -144 377 -164Q377 -184 370 -202.5Q363 -221 349 -234.5Q335 -248 315 -256Q295 -264 271 -264Q254 -264 237 -260Q220 -256 206 -248.5Q192 -241 181.5 -231Q171 -221 165 -208Z" glyph-name="Ccedilla" horiz-adv-x="504" unicode="&#199;" /><glyph d="M235 0H84V700H227Q295 700 344.5 674Q394 648 424.5 601Q455 554 469 491Q483 428 483 350Q483 273 469 209.5Q455 146 425 99Q395 52 347.5 26Q300 0 235 0ZM145 57H235Q283 57 318.5 77.5Q354 98 377 136Q400 174 411 228Q422 282 422 350Q422 418 410.5 472Q399 526 375.5 564Q352 602 315 622.5Q278 643 227 643H145Z" glyph-name="D" horiz-adv-x="528" unicode="D" /><glyph d="M422 0H83V700H422V641H144V349H383V291H144V58H422Z" glyph-name="E" horiz-adv-x="493" unicode="E" /><glyph d="M422 0H83V700H422V641H144V349H383V291H144V58H422ZM378 826 162 735 142 778 354 878Z" glyph-name="Eacute" horiz-adv-x="493" unicode="&#201;" /><glyph d="M422 0H83V700H422V641H144V349H383V291H144V58H422ZM346 759 298 808Q287 819 278 829Q269 839 263 846.5Q257 854 250 863H248Q248 863 243.5 857.5Q239 852 233 845Q227 838 218.5 828Q210 818 200 808L152 759L112 799L239 921H260L385 799Z" glyph-name="Ecircumflex" horiz-adv-x="493" unicode="&#202;" /><glyph d="M422 0H83V700H422V641H144V349H383V291H144V58H422ZM180 764Q173 764 166.5 766.5Q160 769 155.5 773.5Q151 778 148.5 784.5Q146 791 146 798Q146 805 148.5 811.5Q151 818 155.5 822.5Q160 827 166.5 829.5Q173 832 180 832Q187 832 193.5 829.5Q200 827 205 822.5Q210 818 212.5 811.5Q215 805 215 798Q215 791 212.5 784.5Q210 778 205 773.5Q200 769 193.5 766.5Q187 764 180 764ZM325 764Q318 764 311.5 766.5Q305 769 300.5 773.5Q296 778 293.5 784.5Q291 791 291 798Q291 805 293.5 811.5Q296 818 300.5 822.5Q305 827 311.5 829.5Q318 832 325 832Q332 832 338.5 829.5Q345 827 350 822.5Q355 818 357.5 811.5Q360 805 360 798Q360 791 357.5 784.5Q355 778 350 773.5Q345 769 338.5 766.5Q332 764 325 764Z" glyph-name="Edieresis" horiz-adv-x="493" unicode="&#203;" /><glyph d="M422 0H83V700H422V641H144V349H383V291H144V58H422ZM346 735 129 826 153 878 365 778Z" glyph-name="Egrave" horiz-adv-x="493" unicode="&#200;" /><glyph d="M234 0H83V325H26V377H83V700H226Q294 700 343.5 674Q393 648 423.5 601Q454 554 468 491Q482 428 482 350Q482 273 468 209.5Q454 146 424 99Q394 52 346.5 26Q299 0 234 0ZM144 57H234Q282 57 317.5 77.5Q353 98 376 136Q399 174 410 228Q421 282 421 350Q421 418 409.5 472Q398 526 374.5 564Q351 602 314 622.5Q277 643 226 643H144V377H265V325H144Z" glyph-name="Eth" horiz-adv-x="527" unicode="&#208;" /><glyph d="M395 172 450 148Q439 111 423 82Q407 53 384.5 32.5Q362 12 332 1Q302 -10 265 -10Q211 -10 172.5 12Q134 34 110 74.5Q86 115 74 169.5Q62 224 59 293H12V327H58V373H12V407H59Q62 475 74 529.5Q86 584 110 624.5Q134 665 172.5 687.5Q211 710 265 710Q304 710 334.5 698Q365 686 388 664Q411 642 426.5 611Q442 580 452 541Q443 537 437 534.5Q431 532 424.5 529Q418 526 411 523.5Q404 521 397 518Q390 550 378.5 574.5Q367 599 351 616.5Q335 634 313.5 643Q292 652 265 652Q228 652 201.5 634.5Q175 617 158 585Q141 553 132 508.5Q123 464 120 407H282V373H119V327H282V293H120Q123 236 132 191.5Q141 147 158 114.5Q175 82 201.5 64.5Q228 47 265 47Q291 47 312 55.5Q333 64 348.5 80Q364 96 375.5 119Q387 142 395 172Z" glyph-name="Euro" horiz-adv-x="493" unicode="&#8364;" /><glyph d="M351 151 404 123Q394 92 379 67.5Q364 43 343.5 25.5Q323 8 296 -1Q269 -10 236 -10Q197 -10 165.5 3.5Q134 17 110.5 43.5Q87 70 72.5 108.5Q58 147 53 196H13V230H50Q50 236 49.5 243Q49 250 49 257Q49 264 49 270Q49 276 49 284H13V318H51Q56 369 70.5 410Q85 451 108.5 479Q132 507 164.5 522Q197 537 236 537Q269 537 295.5 528Q322 519 342.5 502Q363 485 378 460.5Q393 436 403 405L349 377Q343 401 333 420Q323 439 309.5 452.5Q296 466 278 473Q260 480 238 480Q210 480 188.5 469Q167 458 151 437Q135 416 125.5 386Q116 356 113 318H238V284H111V230H238V196H114Q118 161 128 133Q138 105 153 85.5Q168 66 189.5 56Q211 46 238 46Q260 46 278 53.5Q296 61 310 74.5Q324 88 334 107.5Q344 127 351 151Z" glyph-name="Euro.osf" horiz-adv-x="438" /><glyph d="M144 0H83V700H422V641H144V326H382V268H144Z" glyph-name="F" horiz-adv-x="465" unicode="F" /><glyph d="M433 287H307V345H496Q496 267 484 203Q472 139 446 91Q420 43 378.5 16.5Q337 -10 279 -10Q220 -10 176.5 17Q133 44 106 93Q79 142 66 207Q53 272 53 350Q53 427 66 492.5Q79 558 106 606.5Q133 655 176.5 682.5Q220 710 279 710Q318 710 350.5 698Q383 686 408 663.5Q433 641 451.5 609.5Q470 578 482 538L426 514Q417 546 403.5 571.5Q390 597 371.5 615Q353 633 330 642.5Q307 652 279 652Q236 652 204.5 630Q173 608 153 567.5Q133 527 123.5 472Q114 417 114 350Q114 282 123.5 227Q133 172 153 131.5Q173 91 204.5 69Q236 47 279 47Q317 47 345.5 64.5Q374 82 392.5 114Q411 146 421 190Q431 234 433 287Z" glyph-name="G" horiz-adv-x="546" unicode="G" /><glyph d="M478 0H417V295H145V0H84V700H145V353H417V700H478Z" glyph-name="H" horiz-adv-x="561" unicode="H" /><glyph d="M145 0H84V700H145Z" glyph-name="I" horiz-adv-x="228" unicode="I" /><glyph d="M147 0H86V700H147ZM242 826 26 735 6 778 218 878Z" glyph-name="Iacute" horiz-adv-x="228" unicode="&#205;" /><glyph d="M145 0H84V700H145ZM214 759 166 808Q155 819 146 829Q137 839 131 846.5Q125 854 118 863H116Q116 863 111.5 857.5Q107 852 101 845Q95 838 86.5 828Q78 818 68 808L20 759L-20 799L107 921H128L253 799Z" glyph-name="Icircumflex" horiz-adv-x="228" unicode="&#206;" /><glyph d="M145 0H84V700H145ZM99 798Q99 791 96.5 784.5Q94 778 89 773.5Q84 769 77.5 766.5Q71 764 64 764Q57 764 50.5 766.5Q44 769 39.5 773.5Q35 778 32.5 784.5Q30 791 30 798Q30 805 32.5 811.5Q35 818 39.5 822.5Q44 827 50.5 829.5Q57 832 64 832Q71 832 77.5 829.5Q84 827 89 822.5Q94 818 96.5 811.5Q99 805 99 798ZM204 798Q204 791 201.5 784.5Q199 778 194 773.5Q189 769 182.5 766.5Q176 764 169 764Q162 764 155.5 766.5Q149 769 144.5 773.5Q140 778 137.5 784.5Q135 791 135 798Q135 805 137.5 811.5Q140 818 144.5 822.5Q149 827 155.5 829.5Q162 832 169 832Q176 832 182.5 829.5Q189 827 194 822.5Q199 818 201.5 811.5Q204 805 204 798Z" glyph-name="Idieresis" horiz-adv-x="228" unicode="&#207;" /><glyph d="M146 0H85V700H146ZM200 735 -17 826 7 878 219 778Z" glyph-name="Igrave" horiz-adv-x="228" unicode="&#204;" /><glyph d="M9 4 31 60Q37 57 43.5 54.5Q50 52 57 50.5Q64 49 71.5 48.5Q79 48 87 48Q119 48 142 59.5Q165 71 179.5 93.5Q194 116 201 149Q208 182 208 227V700H269V234Q269 173 257.5 127.5Q246 82 223.5 51.5Q201 21 167 5.5Q133 -10 87 -10Q76 -10 65.5 -9Q55 -8 45.5 -6.5Q36 -5 27 -2.5Q18 0 9 4Z" glyph-name="J" horiz-adv-x="342" unicode="J" /><glyph d="M482 0H414L260 290Q254 302 248 312.5Q242 323 237.5 332.5Q233 342 229.5 348.5Q226 355 226 356H223Q221 352 217.5 346.5Q214 341 209.5 334.5Q205 328 199.5 320.5Q194 313 189 306L144 244V0H83V700H144V415Q144 405 144 393Q144 381 143.5 371Q143 361 143 351Q143 341 143 340H145Q149 347 155 355.5Q161 364 168 374Q175 384 183.5 396Q192 408 206 428L399 700H472L263 410Z" glyph-name="K" horiz-adv-x="506" unicode="K" /><glyph d="M414 0H84V700H145V58H414Z" glyph-name="L" horiz-adv-x="438" unicode="L" /><glyph d="M411 0H81V253L31 232L17 267L81 294V700H142V320L303 391L317 356L142 279V58H411Z" glyph-name="Lslash" horiz-adv-x="437" unicode="&#321;" /><glyph d="M579 0H519V509Q519 522 519 535Q519 548 519.5 558.5Q520 569 520 583H518Q512 570 507.5 561Q503 552 498 541Q493 530 487 520L337 232H325L176 519Q171 529 165.5 540Q160 551 156 560.5Q152 570 146 583H144Q144 568 144.5 557Q145 546 145 533.5Q145 521 145 509V0H84V700H148L298 408Q303 398 308.5 387Q314 376 318.5 366Q323 356 330 342H332Q339 356 343.5 366Q348 376 354 387.5Q360 399 365 409L516 700H579Z" glyph-name="M" horiz-adv-x="663" unicode="M" /><glyph d="M499 0H443L173 506Q166 518 160.5 530.5Q155 543 150.5 553Q146 563 140 577H138Q139 561 139.5 549.5Q140 538 140.5 523.5Q141 509 141 495V0H83V700H139L408 195Q413 185 419 173Q425 161 430 150Q435 139 442 122H444Q444 122 443.5 132.5Q443 143 442.5 155Q442 167 441.5 180Q441 193 441 203V700H499Z" glyph-name="N" horiz-adv-x="583" unicode="N" /><glyph glyph-name="NUL" horiz-adv-x="547" /><glyph d="M479 0H423L153 506Q146 518 140.5 530.5Q135 543 130.5 553Q126 563 120 577H118Q119 561 119.5 549.5Q120 538 120.5 523.5Q121 509 121 495V0H63V700H119L388 195Q393 185 399 173Q405 161 410 150Q415 139 422 122H424Q424 122 423.5 132.5Q423 143 422.5 155Q422 167 421.5 180Q421 193 421 203V700H479ZM377 884H424Q424 857 419.5 836.5Q415 816 404.5 801Q394 786 377 778Q360 770 335 770Q314 770 297 779Q280 788 260 805.5Q240 823 229 830Q218 837 205 837Q192 837 184 831.5Q176 826 171.5 817.5Q167 809 165.5 798.5Q164 788 164 776H116Q116 802 121 823Q126 844 136.5 858.5Q147 873 164 881Q181 889 205 889Q226 889 242.5 880Q259 871 279.5 853.5Q300 836 311 828.5Q322 821 335 821Q347 821 355.5 826.5Q364 832 368.5 841.5Q373 851 375 862Q377 873 377 884Z" glyph-name="Ntilde" horiz-adv-x="539" unicode="&#209;" /><glyph d="M273 -10Q214 -10 171 17Q128 44 100.5 92.5Q73 141 60.5 206.5Q48 272 48 350Q48 428 60.5 493.5Q73 559 100.5 607.5Q128 656 171 683Q214 710 273 710Q332 710 375 683Q418 656 445 607.5Q472 559 485 493.5Q498 428 498 350Q498 272 485 206.5Q472 141 445 92.5Q418 44 375 17Q332 -10 273 -10ZM273 47Q315 47 346.5 68.5Q378 90 398 130Q418 170 427.5 225.5Q437 281 437 350Q437 419 427.5 474.5Q418 530 398 570Q378 610 346.5 631.5Q315 653 273 653Q230 653 199 631.5Q168 610 147.5 570Q127 530 117.5 474.5Q108 419 108 350Q108 281 117.5 225.5Q127 170 147.5 130Q168 90 199 68.5Q230 47 273 47Z" glyph-name="O" horiz-adv-x="546" unicode="O" /><glyph d="M652 0H268Q209 0 167 25.5Q125 51 99.5 97.5Q74 144 62.5 207.5Q51 271 51 350Q51 429 62.5 492Q74 555 100 602Q126 649 167.5 674.5Q209 700 268 700H652V641H373V349H612V291H373V58H652ZM313 57V642H268Q227 642 197 622Q167 602 148.5 564Q130 526 121 472.5Q112 419 112 350Q112 281 121 227Q130 173 148.5 135Q167 97 197 77Q227 57 268 57Z" glyph-name="OE" horiz-adv-x="700" unicode="&#338;" /><glyph d="M273 -10Q214 -10 171 17Q128 44 100.5 92.5Q73 141 60.5 206.5Q48 272 48 350Q48 428 60.5 493.5Q73 559 100.5 607.5Q128 656 171 683Q214 710 273 710Q332 710 375 683Q418 656 445 607.5Q472 559 485 493.5Q498 428 498 350Q498 272 485 206.5Q472 141 445 92.5Q418 44 375 17Q332 -10 273 -10ZM273 47Q315 47 346.5 68.5Q378 90 398 130Q418 170 427.5 225.5Q437 281 437 350Q437 419 427.5 474.5Q418 530 398 570Q378 610 346.5 631.5Q315 653 273 653Q230 653 199 631.5Q168 610 147.5 570Q127 530 117.5 474.5Q108 419 108 350Q108 281 117.5 225.5Q127 170 147.5 130Q168 90 199 68.5Q230 47 273 47ZM388 826 172 735 152 778 364 878Z" glyph-name="Oacute" horiz-adv-x="547" unicode="&#211;" /><glyph d="M273 -10Q214 -10 171 17Q128 44 100.5 92.5Q73 141 60.5 206.5Q48 272 48 350Q48 428 60.5 493.5Q73 559 100.5 607.5Q128 656 171 683Q214 710 273 710Q332 710 375 683Q418 656 445 607.5Q472 559 485 493.5Q498 428 498 350Q498 272 485 206.5Q472 141 445 92.5Q418 44 375 17Q332 -10 273 -10ZM273 47Q315 47 346.5 68.5Q378 90 398 130Q418 170 427.5 225.5Q437 281 437 350Q437 419 427.5 474.5Q418 530 398 570Q378 610 346.5 631.5Q315 653 273 653Q230 653 199 631.5Q168 610 147.5 570Q127 530 117.5 474.5Q108 419 108 350Q108 281 117.5 225.5Q127 170 147.5 130Q168 90 199 68.5Q230 47 273 47ZM371 759 323 808Q312 819 303 829Q294 839 288 846.5Q282 854 275 863H273Q273 863 268.5 857.5Q264 852 258 845Q252 838 243.5 828Q235 818 225 808L177 759L137 799L264 921H285L410 799Z" glyph-name="Ocircumflex" horiz-adv-x="547" unicode="&#212;" /><glyph d="M273 -10Q214 -10 171 17Q128 44 100.5 92.5Q73 141 60.5 206.5Q48 272 48 350Q48 428 60.5 493.5Q73 559 100.5 607.5Q128 656 171 683Q214 710 273 710Q332 710 375 683Q418 656 445 607.5Q472 559 485 493.5Q498 428 498 350Q498 272 485 206.5Q472 141 445 92.5Q418 44 375 17Q332 -10 273 -10ZM273 47Q315 47 346.5 68.5Q378 90 398 130Q418 170 427.5 225.5Q437 281 437 350Q437 419 427.5 474.5Q418 530 398 570Q378 610 346.5 631.5Q315 653 273 653Q230 653 199 631.5Q168 610 147.5 570Q127 530 117.5 474.5Q108 419 108 350Q108 281 117.5 225.5Q127 170 147.5 130Q168 90 199 68.5Q230 47 273 47ZM196 764Q189 764 182.5 766.5Q176 769 171.5 773.5Q167 778 164.5 784.5Q162 791 162 798Q162 805 164.5 811.5Q167 818 171.5 822.5Q176 827 182.5 829.5Q189 832 196 832Q203 832 209.5 829.5Q216 827 221 822.5Q226 818 228.5 811.5Q231 805 231 798Q231 791 228.5 784.5Q226 778 221 773.5Q216 769 209.5 766.5Q203 764 196 764ZM341 764Q334 764 327.5 766.5Q321 769 316.5 773.5Q312 778 309.5 784.5Q307 791 307 798Q307 805 309.5 811.5Q312 818 316.5 822.5Q321 827 327.5 829.5Q334 832 341 832Q348 832 354.5 829.5Q361 827 366 822.5Q371 818 373.5 811.5Q376 805 376 798Q376 791 373.5 784.5Q371 778 366 773.5Q361 769 354.5 766.5Q348 764 341 764Z" glyph-name="Odieresis" horiz-adv-x="546" unicode="&#214;" /><glyph d="M273 -10Q214 -10 171 17Q128 44 100.5 92.5Q73 141 60.5 206.5Q48 272 48 350Q48 428 60.5 493.5Q73 559 100.5 607.5Q128 656 171 683Q214 710 273 710Q332 710 375 683Q418 656 445 607.5Q472 559 485 493.5Q498 428 498 350Q498 272 485 206.5Q472 141 445 92.5Q418 44 375 17Q332 -10 273 -10ZM273 47Q315 47 346.5 68.5Q378 90 398 130Q418 170 427.5 225.5Q437 281 437 350Q437 419 427.5 474.5Q418 530 398 570Q378 610 346.5 631.5Q315 653 273 653Q230 653 199 631.5Q168 610 147.5 570Q127 530 117.5 474.5Q108 419 108 350Q108 281 117.5 225.5Q127 170 147.5 130Q168 90 199 68.5Q230 47 273 47ZM367 735 150 826 174 878 386 778Z" glyph-name="Ograve" horiz-adv-x="547" unicode="&#210;" /><glyph d="M273 -10Q214 -10 171 17Q128 44 101 92.5Q74 141 61 206.5Q48 272 48 350Q48 428 61 493.5Q74 559 101 607.5Q128 656 171 683Q214 710 273 710Q332 710 375.5 683Q419 656 446 607.5Q473 559 486 493.5Q499 428 499 350Q499 272 486 206.5Q473 141 446 92.5Q419 44 375.5 17Q332 -10 273 -10ZM376 598 199 73Q207 67 215 62Q223 57 232.5 54Q242 51 252 49Q262 47 273 47Q315 47 346.5 68.5Q378 90 398 130Q418 170 428 225.5Q438 281 438 350Q438 391 434.5 428Q431 465 423 496.5Q415 528 403.5 554Q392 580 376 598ZM170 103 346 629Q338 635 330 639.5Q322 644 313 647Q304 650 294 651.5Q284 653 273 653Q231 653 199.5 631.5Q168 610 148 570Q128 530 118.5 474.5Q109 419 109 350Q109 309 112.5 272Q116 235 123.5 204Q131 173 142.5 147.5Q154 122 170 103Z" glyph-name="Oslash" horiz-adv-x="547" unicode="&#216;" /><glyph d="M273 -10Q214 -10 171 17Q128 44 100.5 92.5Q73 141 60.5 206.5Q48 272 48 350Q48 428 60.5 493.5Q73 559 100.5 607.5Q128 656 171 683Q214 710 273 710Q332 710 375 683Q418 656 445 607.5Q472 559 485 493.5Q498 428 498 350Q498 272 485 206.5Q472 141 445 92.5Q418 44 375 17Q332 -10 273 -10ZM273 47Q315 47 346.5 68.5Q378 90 398 130Q418 170 427.5 225.5Q437 281 437 350Q437 419 427.5 474.5Q418 530 398 570Q378 610 346.5 631.5Q315 653 273 653Q230 653 199 631.5Q168 610 147.5 570Q127 530 117.5 474.5Q108 419 108 350Q108 281 117.5 225.5Q127 170 147.5 130Q168 90 199 68.5Q230 47 273 47ZM380 884H427Q427 857 422.5 836.5Q418 816 407.5 801Q397 786 380 778Q363 770 338 770Q317 770 300 779Q283 788 263 805.5Q243 823 232 830Q221 837 208 837Q195 837 187 831.5Q179 826 174.5 817.5Q170 809 168.5 798.5Q167 788 167 776H119Q119 802 124 823Q129 844 139.5 858.5Q150 873 167 881Q184 889 208 889Q229 889 245.5 880Q262 871 282.5 853.5Q303 836 314 828.5Q325 821 338 821Q350 821 358.5 826.5Q367 832 371.5 841.5Q376 851 378 862Q380 873 380 884Z" glyph-name="Otilde" horiz-adv-x="547" unicode="&#213;" /><glyph d="M145 0H84V700H250Q308 700 350.5 681.5Q393 663 420.5 628.5Q448 594 461 548.5Q474 503 474 448Q474 393 460.5 347.5Q447 302 419.5 268Q392 234 348.5 215Q305 196 246 196H145ZM145 254H247Q290 254 321.5 267.5Q353 281 373.5 307Q394 333 404 368.5Q414 404 414 448Q414 492 404 527.5Q394 563 373.5 589Q353 615 321 628.5Q289 642 246 642H145Z" glyph-name="P" horiz-adv-x="503" unicode="P" /><glyph d="M441 -59 409 -93Q396 -81 385 -69Q374 -57 365.5 -45.5Q357 -34 351 -23Q345 -12 339 0Q330 -2 322.5 -4Q315 -6 307 -7Q299 -8 290.5 -9Q282 -10 273 -10Q214 -10 171 17Q128 44 100.5 92.5Q73 141 60.5 206.5Q48 272 48 350Q48 428 60.5 493Q73 558 100.5 607Q128 656 171 683Q214 710 273 710Q332 710 375 683Q418 656 445 607Q472 558 485 493Q498 428 498 350Q498 293 491 242.5Q484 192 469.5 149.5Q455 107 432.5 74Q410 41 380 20Q384 10 390 0.5Q396 -9 403.5 -18.5Q411 -28 420.5 -38.5Q430 -49 441 -59ZM264 164 299 191Q309 179 319 160.5Q329 142 336 125.5Q343 109 350.5 91.5Q358 74 359 74Q379 92 394 119.5Q409 147 419 182.5Q429 218 433.5 260Q438 302 438 350Q438 418 428 473.5Q418 529 398 569Q378 609 346.5 630.5Q315 652 273 652Q230 652 199 630.5Q168 609 148 569Q128 529 118.5 474Q109 419 109 350Q109 281 118.5 225.5Q128 170 148 130Q168 90 199.5 68.5Q231 47 273 47Q279 47 285 47.5Q291 48 296.5 48.5Q302 49 307.5 50.5Q313 52 318 54Q312 71 307 82.5Q302 94 296 107Q290 120 282 134.5Q274 149 264 164Z" glyph-name="Q" horiz-adv-x="547" unicode="Q" /><glyph d="M471 0H405L297 235Q291 234 285 233Q279 232 272.5 231.5Q266 231 259.5 231Q253 231 246 231H145V0H84V700H250Q307 700 349.5 683Q392 666 419.5 634.5Q447 603 460.5 560.5Q474 518 474 466Q474 429 466.5 396Q459 363 444 335.5Q429 308 406 287Q383 266 353 253ZM145 289H247Q288 289 319.5 301.5Q351 314 372 337Q393 360 403.5 392.5Q414 425 414 466Q414 507 403.5 539.5Q393 572 372 595Q351 618 319.5 630Q288 642 246 642H145Z" glyph-name="R" horiz-adv-x="535" unicode="R" /><glyph d="M34 119 87 152Q97 128 113.5 109Q130 90 151 76.5Q172 63 197 55.5Q222 48 250 48Q284 48 310.5 58Q337 68 354.5 86Q372 104 380.5 127Q389 150 389 176Q389 235 350 265Q311 295 227.5 334Q144 373 101 414.5Q58 456 58 532Q58 570 70.5 602.5Q83 635 107.5 659Q132 683 167 696.5Q202 710 245 710Q282 710 313 700.5Q344 691 368 674Q392 657 410 632.5Q428 608 440 578L386 549Q379 570 366.5 588.5Q354 607 336 621Q318 635 294.5 643Q271 651 243 651Q217 651 194 642Q171 633 154.5 617Q138 601 129 579.5Q120 558 120 534Q120 476 158.5 447Q197 418 280.5 379.5Q364 341 407 298.5Q450 256 450 178Q450 138 436.5 104Q423 70 397.5 44.5Q372 19 334.5 4.5Q297 -10 250 -10Q213 -10 179 -0.5Q145 9 117 26.5Q89 44 68 67.5Q47 91 34 119Z" glyph-name="S" horiz-adv-x="492" unicode="S" /><glyph d="M34 119 87 152Q97 128 113.5 109Q130 90 151 76.5Q172 63 197 55.5Q222 48 250 48Q284 48 310.5 58Q337 68 354.5 86Q372 104 380.5 127Q389 150 389 176Q389 235 350 265Q311 295 227.5 334Q144 373 101 414.5Q58 456 58 532Q58 570 70.5 602.5Q83 635 107.5 659Q132 683 167 696.5Q202 710 245 710Q282 710 313 700.5Q344 691 368 674Q392 657 410 632.5Q428 608 440 578L386 549Q379 570 366.5 588.5Q354 607 336 621Q318 635 294.5 643Q271 651 243 651Q217 651 194 642Q171 633 154.5 617Q138 601 129 579.5Q120 558 120 534Q120 476 158.5 447Q197 418 280.5 379.5Q364 341 407 298.5Q450 256 450 178Q450 138 436.5 104Q423 70 397.5 44.5Q372 19 334.5 4.5Q297 -10 250 -10Q213 -10 179 -0.5Q145 9 117 26.5Q89 44 68 67.5Q47 91 34 119ZM154 930 202 881Q213 870 222 860Q231 850 237 842.5Q243 835 250 826H252Q252 826 256.5 831.5Q261 837 267 844Q273 851 281.5 861Q290 871 300 881L348 930L388 890L261 768H240L115 890Z" glyph-name="Scaron" horiz-adv-x="492" unicode="&#352;" /><glyph d="M249 0H188V641H26V700H410V641H249Z" glyph-name="T" horiz-adv-x="437" unicode="T" /><glyph d="M145 0H84V700H145V610H235Q287 610 327 591Q367 572 393 538Q419 504 431.5 458.5Q444 413 444 358Q444 303 431 257Q418 211 391.5 177Q365 143 324 124.5Q283 106 230 106H145ZM145 164H231Q268 164 296.5 178Q325 192 344.5 217.5Q364 243 373.5 278.5Q383 314 383 358Q383 402 373.5 437.5Q364 473 344.5 498.5Q325 524 296.5 538Q268 552 231 552H145Z" glyph-name="Thorn" horiz-adv-x="483" unicode="&#222;" /><glyph d="M410 245V700H471V233Q471 173 457.5 127.5Q444 82 418 51.5Q392 21 355.5 5.5Q319 -10 273 -10Q227 -10 190.5 5.5Q154 21 128 51.5Q102 82 88.5 128Q75 174 75 234V700H136V245Q136 197 144.5 160Q153 123 170.5 98Q188 73 213.5 60.5Q239 48 273 48Q307 48 332.5 60.5Q358 73 375.5 98Q393 123 401.5 160Q410 197 410 245Z" glyph-name="U" horiz-adv-x="547" unicode="U" /><glyph d="M724 199Q685 199 655 214.5Q625 230 605 259.5Q585 289 575 329Q565 369 565 419Q565 469 575 509.5Q585 550 605 579.5Q625 609 655 624.5Q685 640 724 640Q764 640 794 624.5Q824 609 844 579.5Q864 550 874 509.5Q884 469 884 419Q884 369 874 329Q864 289 844 259.5Q824 230 794 214.5Q764 199 724 199ZM724 258Q750 258 769 268.5Q788 279 801 299.5Q814 320 820.5 350Q827 380 827 419Q827 458 820.5 488Q814 518 801 539Q788 560 769 570.5Q750 581 724 581Q699 581 679.5 570.5Q660 560 647.5 539Q635 518 628.5 488Q622 458 622 419Q622 380 628.5 350Q635 320 647.5 299.5Q660 279 679.5 268.5Q699 258 724 258ZM888 53H560V105H888ZM478 0H422L152 506Q145 518 139.5 530.5Q134 543 129.5 553Q125 563 119 577H117Q118 561 118.5 549.5Q119 538 119.5 523.5Q120 509 120 495V0H62V700H118L387 195Q392 185 398 173Q404 161 409 150Q414 139 421 122H423Q423 122 422.5 132.5Q422 143 421.5 155Q421 167 420.5 180Q420 193 420 203V700H478Z" glyph-name="UNI2116" horiz-adv-x="938" unicode="&#8470;" /><glyph d="M410 245V700H471V233Q471 173 457.5 127.5Q444 82 418 51.5Q392 21 355.5 5.5Q319 -10 273 -10Q227 -10 190.5 5.5Q154 21 128 51.5Q102 82 88.5 128Q75 174 75 234V700H136V245Q136 197 144.5 160Q153 123 170.5 98Q188 73 213.5 60.5Q239 48 273 48Q307 48 332.5 60.5Q358 73 375.5 98Q393 123 401.5 160Q410 197 410 245ZM398 826 182 735 162 778 374 878Z" glyph-name="Uacute" horiz-adv-x="547" unicode="&#218;" /><glyph d="M410 245V700H471V233Q471 173 457.5 127.5Q444 82 418 51.5Q392 21 355.5 5.5Q319 -10 273 -10Q227 -10 190.5 5.5Q154 21 128 51.5Q102 82 88.5 128Q75 174 75 234V700H136V245Q136 197 144.5 160Q153 123 170.5 98Q188 73 213.5 60.5Q239 48 273 48Q307 48 332.5 60.5Q358 73 375.5 98Q393 123 401.5 160Q410 197 410 245ZM372 759 324 808Q313 819 304 829Q295 839 289 846.5Q283 854 276 863H274Q274 863 269.5 857.5Q265 852 259 845Q253 838 244.5 828Q236 818 226 808L178 759L138 799L265 921H286L411 799Z" glyph-name="Ucircumflex" horiz-adv-x="547" unicode="&#219;" /><glyph d="M410 245V700H471V233Q471 173 457.5 127.5Q444 82 418 51.5Q392 21 355.5 5.5Q319 -10 273 -10Q227 -10 190.5 5.5Q154 21 128 51.5Q102 82 88.5 128Q75 174 75 234V700H136V245Q136 197 144.5 160Q153 123 170.5 98Q188 73 213.5 60.5Q239 48 273 48Q307 48 332.5 60.5Q358 73 375.5 98Q393 123 401.5 160Q410 197 410 245ZM196 764Q189 764 182.5 766.5Q176 769 171.5 773.5Q167 778 164.5 784.5Q162 791 162 798Q162 805 164.5 811.5Q167 818 171.5 822.5Q176 827 182.5 829.5Q189 832 196 832Q203 832 209.5 829.5Q216 827 221 822.5Q226 818 228.5 811.5Q231 805 231 798Q231 791 228.5 784.5Q226 778 221 773.5Q216 769 209.5 766.5Q203 764 196 764ZM341 764Q334 764 327.5 766.5Q321 769 316.5 773.5Q312 778 309.5 784.5Q307 791 307 798Q307 805 309.5 811.5Q312 818 316.5 822.5Q321 827 327.5 829.5Q334 832 341 832Q348 832 354.5 829.5Q361 827 366 822.5Q371 818 373.5 811.5Q376 805 376 798Q376 791 373.5 784.5Q371 778 366 773.5Q361 769 354.5 766.5Q348 764 341 764Z" glyph-name="Udieresis" horiz-adv-x="547" unicode="&#220;" /><glyph d="M410 245V700H471V233Q471 173 457.5 127.5Q444 82 418 51.5Q392 21 355.5 5.5Q319 -10 273 -10Q227 -10 190.5 5.5Q154 21 128 51.5Q102 82 88.5 128Q75 174 75 234V700H136V245Q136 197 144.5 160Q153 123 170.5 98Q188 73 213.5 60.5Q239 48 273 48Q307 48 332.5 60.5Q358 73 375.5 98Q393 123 401.5 160Q410 197 410 245ZM369 735 152 826 176 878 388 778Z" glyph-name="Ugrave" horiz-adv-x="547" unicode="&#217;" /><glyph d="M266 0H209L6 700H70L218 181Q221 170 224 156.5Q227 143 229.5 130.5Q232 118 236 100H238Q242 118 244.5 130Q247 142 250.5 156Q254 170 257 181L404 700H468Z" glyph-name="V" horiz-adv-x="476" unicode="V" /><glyph d="M567 0H509L388 501Q385 515 382 529.5Q379 544 377.5 555Q376 566 374 581H372Q369 566 367 555Q365 544 362 529.5Q359 515 356 501L236 0H178L6 700H69L192 179Q194 170 196.5 157Q199 144 201.5 131.5Q204 119 207 100H209Q209 103 210.5 112Q212 121 214 132.5Q216 144 219 156.5Q222 169 224 179L345 700H399L520 179Q523 167 526 153.5Q529 140 531.5 127.5Q534 115 535 107.5Q536 100 536 100H538Q541 114 543 124.5Q545 135 548.5 149Q552 163 555 178L674 700H739Z" glyph-name="W" horiz-adv-x="745" unicode="W" /><glyph d="M443 0H377L265 235Q260 245 255 257Q250 269 245.5 280Q241 291 235 307H233Q233 307 225 287Q217 267 212 255Q207 243 202 232L92 0H25L194 350L26 700H92L202 465Q208 453 213 440Q218 427 222.5 416Q227 405 233 390H235Q241 406 245.5 416.5Q250 427 256 440Q262 453 267 465L376 700H443L274 350Z" glyph-name="X" horiz-adv-x="469" unicode="X" /><glyph d="M252 0H191V209L14 700H80L197 368Q201 355 205.5 339.5Q210 324 213.5 310.5Q217 297 222 277H224Q228 297 231.5 310.5Q235 324 239.5 339.5Q244 355 248 368L363 700H430L252 207Z" glyph-name="Y" horiz-adv-x="444" unicode="Y" /><glyph d="M252 0H191V209L14 700H80L197 368Q201 355 205.5 339.5Q210 324 213.5 310.5Q217 297 222 277H224Q228 297 231.5 310.5Q235 324 239.5 339.5Q244 355 248 368L363 700H430L252 207ZM338 826 122 735 102 778 314 878Z" glyph-name="Yacute" horiz-adv-x="444" unicode="&#221;" /><glyph d="M252 0H191V209L14 700H80L197 368Q201 355 205.5 339.5Q210 324 213.5 310.5Q217 297 222 277H224Q228 297 231.5 310.5Q235 324 239.5 339.5Q244 355 248 368L363 700H430L252 207ZM150 764Q143 764 136.5 766.5Q130 769 125.5 773.5Q121 778 118.5 784.5Q116 791 116 798Q116 805 118.5 811.5Q121 818 125.5 822.5Q130 827 136.5 829.5Q143 832 150 832Q157 832 163.5 829.5Q170 827 175 822.5Q180 818 182.5 811.5Q185 805 185 798Q185 791 182.5 784.5Q180 778 175 773.5Q170 769 163.5 766.5Q157 764 150 764ZM295 764Q288 764 281.5 766.5Q275 769 270.5 773.5Q266 778 263.5 784.5Q261 791 261 798Q261 805 263.5 811.5Q266 818 270.5 822.5Q275 827 281.5 829.5Q288 832 295 832Q302 832 308.5 829.5Q315 827 320 822.5Q325 818 327.5 811.5Q330 805 330 798Q330 791 327.5 784.5Q325 778 320 773.5Q315 769 308.5 766.5Q302 764 295 764Z" glyph-name="Ydieresis" horiz-adv-x="444" unicode="&#376;" /><glyph d="M428 0H25V2L325 593Q329 601 333.5 609.5Q338 618 342 625Q346 632 351 642L350 644Q339 643 330.5 642.5Q322 642 311 641.5Q300 641 288 641H53V700H443V698L154 124Q148 112 141.5 100Q135 88 129.5 79Q124 70 116 57Q117 56 117 56Q117 56 117 55Q128 56 136.5 56.5Q145 57 156 57.5Q167 58 179 58H428Z" glyph-name="Z" horiz-adv-x="475" unicode="Z" /><glyph d="M428 0H25V2L325 593Q329 601 333.5 609.5Q338 618 342 625Q346 632 351 642L350 644Q339 643 330.5 642.5Q322 642 311 641.5Q300 641 288 641H53V700H443V698L154 124Q148 112 141.5 100Q135 88 129.5 79Q124 70 116 57Q117 56 117 56Q117 56 117 55Q128 56 136.5 56.5Q145 57 156 57.5Q167 58 179 58H428ZM146 930 194 881Q205 870 214 860Q223 850 229 842.5Q235 835 242 826H244Q244 826 248.5 831.5Q253 837 259 844Q265 851 273.5 861Q282 871 292 881L340 930L380 890L253 768H232L107 890Z" glyph-name="Zcaron" horiz-adv-x="475" unicode="&#381;" /><glyph d="M417 0H356Q355 1 353 9Q351 17 348.5 29Q346 41 344 56Q342 71 341 87Q332 67 319.5 50Q307 33 289.5 19.5Q272 6 249.5 -2Q227 -10 200 -10Q165 -10 137 1Q109 12 89.5 32Q70 52 59.5 79.5Q49 107 49 140Q49 180 67 211.5Q85 243 121 264.5Q157 286 212 297.5Q267 309 340 309V351Q340 384 333 409Q326 434 312 450.5Q298 467 279 475Q260 483 237 483Q217 483 199 477Q181 471 166.5 460.5Q152 450 140 435Q128 420 119 401L74 437Q90 462 109 481.5Q128 501 150 513.5Q172 526 196 532Q220 538 245 538Q279 538 307.5 526Q336 514 357 490.5Q378 467 389.5 430.5Q401 394 401 347V86Q401 69 403 54Q405 39 407.5 28Q410 17 412.5 10.5Q415 4 417 0ZM340 215V259H313Q264 259 226 251.5Q188 244 161.5 229Q135 214 121.5 191.5Q108 169 108 140Q108 117 116 98.5Q124 80 137.5 67.5Q151 55 168.5 49Q186 43 206 43Q238 43 263.5 56.5Q289 70 306 94Q323 118 331.5 149Q340 180 340 215Z" glyph-name="a" horiz-adv-x="475" unicode="a" /><glyph d="M418 0H361Q360 2 358 8.5Q356 15 353.5 25Q351 35 349 47.5Q347 60 346 74H344Q336 55 323.5 39.5Q311 24 295.5 13Q280 2 260.5 -3.5Q241 -9 218 -9Q176 -9 143.5 9.5Q111 28 89.5 63Q68 98 57 149Q46 200 46 264Q46 327 58 377.5Q70 428 92.5 464Q115 500 148 518.5Q181 537 222 537Q245 537 264 531Q283 525 298.5 513.5Q314 502 325.5 487.5Q337 473 345 456H347Q348 469 349.5 481Q351 493 353.5 502.5Q356 512 358 518.5Q360 525 361 527H418Q409 501 410.5 505Q412 509 409.5 498Q407 487 405 472.5Q403 458 403 441V85Q403 69 405 54Q407 39 409.5 28Q412 17 414 10.5Q416 4 418 0ZM343 214V315Q343 351 336 381.5Q329 412 315 434Q301 456 279 468.5Q257 481 228 481Q196 481 173 465.5Q150 450 135.5 421.5Q121 393 114.5 353.5Q108 314 108 264Q108 213 114.5 173Q121 133 135.5 104.5Q150 76 173 61Q196 46 228 46Q259 46 281 59.5Q303 73 316.5 96.5Q330 120 336.5 150Q343 180 343 214Z" glyph-name="a.alt" horiz-adv-x="480" /><glyph d="M417 0H356Q355 1 353 9Q351 17 348.5 29Q346 41 344 56Q342 71 341 87Q332 67 319.5 50Q307 33 289.5 19.5Q272 6 249.5 -2Q227 -10 200 -10Q165 -10 137 1Q109 12 89.5 32Q70 52 59.5 79.5Q49 107 49 140Q49 180 67 211.5Q85 243 121 264.5Q157 286 212 297.5Q267 309 340 309V351Q340 384 333 409Q326 434 312 450.5Q298 467 279 475Q260 483 237 483Q217 483 199 477Q181 471 166.5 460.5Q152 450 140 435Q128 420 119 401L74 437Q90 462 109 481.5Q128 501 150 513.5Q172 526 196 532Q220 538 245 538Q279 538 307.5 526Q336 514 357 490.5Q378 467 389.5 430.5Q401 394 401 347V86Q401 69 403 54Q405 39 407.5 28Q410 17 412.5 10.5Q415 4 417 0ZM340 215V259H313Q264 259 226 251.5Q188 244 161.5 229Q135 214 121.5 191.5Q108 169 108 140Q108 117 116 98.5Q124 80 137.5 67.5Q151 55 168.5 49Q186 43 206 43Q238 43 263.5 56.5Q289 70 306 94Q323 118 331.5 149Q340 180 340 215ZM352 672 136 581 116 624 328 724Z" glyph-name="aacute" horiz-adv-x="475" unicode="&#225;" /><glyph d="M418 0H361Q360 2 358 8.5Q356 15 353.5 25Q351 35 349 47.5Q347 60 346 74H344Q336 55 323.5 39.5Q311 24 295.5 13Q280 2 260.5 -3.5Q241 -9 218 -9Q176 -9 143.5 9.5Q111 28 89.5 63Q68 98 57 149Q46 200 46 264Q46 327 58 377.5Q70 428 92.5 464Q115 500 148 518.5Q181 537 222 537Q245 537 264 531Q283 525 298.5 513.5Q314 502 325.5 487.5Q337 473 345 456H347Q348 469 349.5 481Q351 493 353.5 502.5Q356 512 358 518.5Q360 525 361 527H418Q409 501 410.5 505Q412 509 409.5 498Q407 487 405 472.5Q403 458 403 441V85Q403 69 405 54Q407 39 409.5 28Q412 17 414 10.5Q416 4 418 0ZM343 214V315Q343 351 336 381.5Q329 412 315 434Q301 456 279 468.5Q257 481 228 481Q196 481 173 465.5Q150 450 135.5 421.5Q121 393 114.5 353.5Q108 314 108 264Q108 213 114.5 173Q121 133 135.5 104.5Q150 76 173 61Q196 46 228 46Q259 46 281 59.5Q303 73 316.5 96.5Q330 120 336.5 150Q343 180 343 214ZM349 671 133 580 113 623 325 723Z" glyph-name="aacute.alt" horiz-adv-x="480" /><glyph d="M417 0H356Q355 1 353 9Q351 17 348.5 29Q346 41 344 56Q342 71 341 87Q332 67 319.5 50Q307 33 289.5 19.5Q272 6 249.5 -2Q227 -10 200 -10Q165 -10 137 1Q109 12 89.5 32Q70 52 59.5 79.5Q49 107 49 140Q49 180 67 211.5Q85 243 121 264.5Q157 286 212 297.5Q267 309 340 309V351Q340 384 333 409Q326 434 312 450.5Q298 467 279 475Q260 483 237 483Q217 483 199 477Q181 471 166.5 460.5Q152 450 140 435Q128 420 119 401L74 437Q90 462 109 481.5Q128 501 150 513.5Q172 526 196 532Q220 538 245 538Q279 538 307.5 526Q336 514 357 490.5Q378 467 389.5 430.5Q401 394 401 347V86Q401 69 403 54Q405 39 407.5 28Q410 17 412.5 10.5Q415 4 417 0ZM340 215V259H313Q264 259 226 251.5Q188 244 161.5 229Q135 214 121.5 191.5Q108 169 108 140Q108 117 116 98.5Q124 80 137.5 67.5Q151 55 168.5 49Q186 43 206 43Q238 43 263.5 56.5Q289 70 306 94Q323 118 331.5 149Q340 180 340 215ZM334 589 286 638Q275 649 266 659Q257 669 251 676.5Q245 684 238 693H236Q236 693 231.5 687.5Q227 682 221 675Q215 668 206.5 658Q198 648 188 638L140 589L100 629L227 751H248L373 629Z" glyph-name="acircumflex" horiz-adv-x="475" unicode="&#226;" /><glyph d="M418 0H361Q360 2 358 8.5Q356 15 353.5 25Q351 35 349 47.5Q347 60 346 74H344Q336 55 323.5 39.5Q311 24 295.5 13Q280 2 260.5 -3.5Q241 -9 218 -9Q176 -9 143.5 9.5Q111 28 89.5 63Q68 98 57 149Q46 200 46 264Q46 327 58 377.5Q70 428 92.5 464Q115 500 148 518.5Q181 537 222 537Q245 537 264 531Q283 525 298.5 513.5Q314 502 325.5 487.5Q337 473 345 456H347Q348 469 349.5 481Q351 493 353.5 502.5Q356 512 358 518.5Q360 525 361 527H418Q409 501 410.5 505Q412 509 409.5 498Q407 487 405 472.5Q403 458 403 441V85Q403 69 405 54Q407 39 409.5 28Q412 17 414 10.5Q416 4 418 0ZM343 214V315Q343 351 336 381.5Q329 412 315 434Q301 456 279 468.5Q257 481 228 481Q196 481 173 465.5Q150 450 135.5 421.5Q121 393 114.5 353.5Q108 314 108 264Q108 213 114.5 173Q121 133 135.5 104.5Q150 76 173 61Q196 46 228 46Q259 46 281 59.5Q303 73 316.5 96.5Q330 120 336.5 150Q343 180 343 214ZM327 605 279 654Q268 665 259 675Q250 685 244 692.5Q238 700 231 709H229Q229 709 224.5 703.5Q220 698 214 691Q208 684 199.5 674Q191 664 181 654L133 605L93 645L220 767H241L366 645Z" glyph-name="acircumflex.alt" horiz-adv-x="480" /><glyph d="M250 826 34 735 14 778 226 878Z" glyph-name="acute" horiz-adv-x="267" unicode="&#180;" /><glyph d="M417 0H356Q355 1 353 9Q351 17 348.5 29Q346 41 344 56Q342 71 341 87Q332 67 319.5 50Q307 33 289.5 19.5Q272 6 249.5 -2Q227 -10 200 -10Q165 -10 137 1Q109 12 89.5 32Q70 52 59.5 79.5Q49 107 49 140Q49 180 67 211.5Q85 243 121 264.5Q157 286 212 297.5Q267 309 340 309V351Q340 384 333 409Q326 434 312 450.5Q298 467 279 475Q260 483 237 483Q217 483 199 477Q181 471 166.5 460.5Q152 450 140 435Q128 420 119 401L74 437Q90 462 109 481.5Q128 501 150 513.5Q172 526 196 532Q220 538 245 538Q279 538 307.5 526Q336 514 357 490.5Q378 467 389.5 430.5Q401 394 401 347V86Q401 69 403 54Q405 39 407.5 28Q410 17 412.5 10.5Q415 4 417 0ZM340 215V259H313Q264 259 226 251.5Q188 244 161.5 229Q135 214 121.5 191.5Q108 169 108 140Q108 117 116 98.5Q124 80 137.5 67.5Q151 55 168.5 49Q186 43 206 43Q238 43 263.5 56.5Q289 70 306 94Q323 118 331.5 149Q340 180 340 215ZM160 610Q153 610 146.5 612.5Q140 615 135.5 619.5Q131 624 128.5 630.5Q126 637 126 644Q126 651 128.5 657.5Q131 664 135.5 668.5Q140 673 146.5 675.5Q153 678 160 678Q167 678 173.5 675.5Q180 673 185 668.5Q190 664 192.5 657.5Q195 651 195 644Q195 637 192.5 630.5Q190 624 185 619.5Q180 615 173.5 612.5Q167 610 160 610ZM305 610Q298 610 291.5 612.5Q285 615 280.5 619.5Q276 624 273.5 630.5Q271 637 271 644Q271 651 273.5 657.5Q276 664 280.5 668.5Q285 673 291.5 675.5Q298 678 305 678Q312 678 318.5 675.5Q325 673 330 668.5Q335 664 337.5 657.5Q340 651 340 644Q340 637 337.5 630.5Q335 624 330 619.5Q325 615 318.5 612.5Q312 610 305 610Z" glyph-name="adieresis" horiz-adv-x="475" unicode="&#228;" /><glyph d="M418 0H361Q360 2 358 8.5Q356 15 353.5 25Q351 35 349 47.5Q347 60 346 74H344Q336 55 323.5 39.5Q311 24 295.5 13Q280 2 260.5 -3.5Q241 -9 218 -9Q176 -9 143.5 9.5Q111 28 89.5 63Q68 98 57 149Q46 200 46 264Q46 327 58 377.5Q70 428 92.5 464Q115 500 148 518.5Q181 537 222 537Q245 537 264 531Q283 525 298.5 513.5Q314 502 325.5 487.5Q337 473 345 456H347Q348 469 349.5 481Q351 493 353.5 502.5Q356 512 358 518.5Q360 525 361 527H418Q409 501 410.5 505Q412 509 409.5 498Q407 487 405 472.5Q403 458 403 441V85Q403 69 405 54Q407 39 409.5 28Q412 17 414 10.5Q416 4 418 0ZM343 214V315Q343 351 336 381.5Q329 412 315 434Q301 456 279 468.5Q257 481 228 481Q196 481 173 465.5Q150 450 135.5 421.5Q121 393 114.5 353.5Q108 314 108 264Q108 213 114.5 173Q121 133 135.5 104.5Q150 76 173 61Q196 46 228 46Q259 46 281 59.5Q303 73 316.5 96.5Q330 120 336.5 150Q343 180 343 214ZM155 611Q148 611 141.5 613.5Q135 616 130.5 620.5Q126 625 123.5 631.5Q121 638 121 645Q121 652 123.5 658.5Q126 665 130.5 669.5Q135 674 141.5 676.5Q148 679 155 679Q162 679 168.5 676.5Q175 674 180 669.5Q185 665 187.5 658.5Q190 652 190 645Q190 638 187.5 631.5Q185 625 180 620.5Q175 616 168.5 613.5Q162 611 155 611ZM300 611Q293 611 286.5 613.5Q280 616 275.5 620.5Q271 625 268.5 631.5Q266 638 266 645Q266 652 268.5 658.5Q271 665 275.5 669.5Q280 674 286.5 676.5Q293 679 300 679Q307 679 313.5 676.5Q320 674 325 669.5Q330 665 332.5 658.5Q335 652 335 645Q335 638 332.5 631.5Q330 625 325 620.5Q320 616 313.5 613.5Q307 611 300 611Z" glyph-name="adieresis.alt" horiz-adv-x="480" /><glyph d="M657 150 707 122Q694 89 678.5 64.5Q663 40 642 23.5Q621 7 594.5 -1.5Q568 -10 534 -10Q500 -10 473.5 1Q447 12 427 32.5Q407 53 393 82.5Q379 112 369 150Q362 115 348.5 86Q335 57 314.5 35.5Q294 14 266 2Q238 -10 202 -10Q167 -10 138.5 0.5Q110 11 90 31Q70 51 59.5 78.5Q49 106 49 140Q49 180 67 211.5Q85 243 121 264.5Q157 286 212 297.5Q267 309 340 309V351Q340 383 333 407.5Q326 432 312.5 449Q299 466 280 474.5Q261 483 237 483Q217 483 199 477Q181 471 166.5 460.5Q152 450 140 435Q128 420 119 401L74 437Q90 462 108.5 481Q127 500 148.5 512.5Q170 525 193.5 531.5Q217 538 242 538Q270 538 292.5 528.5Q315 519 332 500.5Q349 482 359.5 455Q370 428 374 392H376Q385 426 399.5 452.5Q414 479 433.5 498Q453 517 478 527Q503 537 533 537Q582 537 616.5 516.5Q651 496 672 459Q693 422 702 371.5Q711 321 711 258H398V255Q398 206 407 167Q416 128 433 101Q450 74 474.5 59.5Q499 45 530 45Q554 45 573.5 51.5Q593 58 608 70.5Q623 83 635.5 103Q648 123 657 150ZM340 215V259H313Q264 259 226 251.5Q188 244 161.5 229Q135 214 121.5 191.5Q108 169 108 140Q108 117 116 98.5Q124 80 137.5 67.5Q151 55 168.5 49Q186 43 206 43Q238 43 263.5 56.5Q289 70 306 94Q323 118 331.5 149Q340 180 340 215ZM399 308H650Q648 350 640 382.5Q632 415 617.5 438Q603 461 580.5 472.5Q558 484 528 484Q500 484 477 472Q454 460 438 437Q422 414 412 381.5Q402 349 399 308Z" glyph-name="ae" horiz-adv-x="756" unicode="&#230;" /><glyph d="M417 0H356Q355 1 353 9Q351 17 348.5 29Q346 41 344 56Q342 71 341 87Q332 67 319.5 50Q307 33 289.5 19.5Q272 6 249.5 -2Q227 -10 200 -10Q165 -10 137 1Q109 12 89.5 32Q70 52 59.5 79.5Q49 107 49 140Q49 180 67 211.5Q85 243 121 264.5Q157 286 212 297.5Q267 309 340 309V351Q340 384 333 409Q326 434 312 450.5Q298 467 279 475Q260 483 237 483Q217 483 199 477Q181 471 166.5 460.5Q152 450 140 435Q128 420 119 401L74 437Q90 462 109 481.5Q128 501 150 513.5Q172 526 196 532Q220 538 245 538Q279 538 307.5 526Q336 514 357 490.5Q378 467 389.5 430.5Q401 394 401 347V86Q401 69 403 54Q405 39 407.5 28Q410 17 412.5 10.5Q415 4 417 0ZM340 215V259H313Q264 259 226 251.5Q188 244 161.5 229Q135 214 121.5 191.5Q108 169 108 140Q108 117 116 98.5Q124 80 137.5 67.5Q151 55 168.5 49Q186 43 206 43Q238 43 263.5 56.5Q289 70 306 94Q323 118 331.5 149Q340 180 340 215ZM337 580 120 671 144 723 356 623Z" glyph-name="agrave" horiz-adv-x="475" unicode="&#224;" /><glyph d="M418 0H361Q360 2 358 8.5Q356 15 353.5 25Q351 35 349 47.5Q347 60 346 74H344Q336 55 323.5 39.5Q311 24 295.5 13Q280 2 260.5 -3.5Q241 -9 218 -9Q176 -9 143.5 9.5Q111 28 89.5 63Q68 98 57 149Q46 200 46 264Q46 327 58 377.5Q70 428 92.5 464Q115 500 148 518.5Q181 537 222 537Q245 537 264 531Q283 525 298.5 513.5Q314 502 325.5 487.5Q337 473 345 456H347Q348 469 349.5 481Q351 493 353.5 502.5Q356 512 358 518.5Q360 525 361 527H418Q409 501 410.5 505Q412 509 409.5 498Q407 487 405 472.5Q403 458 403 441V85Q403 69 405 54Q407 39 409.5 28Q412 17 414 10.5Q416 4 418 0ZM343 214V315Q343 351 336 381.5Q329 412 315 434Q301 456 279 468.5Q257 481 228 481Q196 481 173 465.5Q150 450 135.5 421.5Q121 393 114.5 353.5Q108 314 108 264Q108 213 114.5 173Q121 133 135.5 104.5Q150 76 173 61Q196 46 228 46Q259 46 281 59.5Q303 73 316.5 96.5Q330 120 336.5 150Q343 180 343 214ZM334 580 117 671 141 723 353 623Z" glyph-name="agrave.alt" horiz-adv-x="480" /><glyph d="M427 84H425Q411 61 393 43Q375 25 352.5 12.5Q330 0 304.5 -7Q279 -14 250 -14Q203 -14 164.5 3Q126 20 99 50.5Q72 81 58 120Q44 159 44 202Q44 238 54 272Q64 306 83.5 334Q103 362 131.5 382.5Q160 403 195 412Q172 422 154.5 437Q137 452 125 470.5Q113 489 107 510Q101 531 101 554Q101 584 111.5 612Q122 640 143 662Q164 684 194 697Q224 710 262 710Q284 710 303.5 705.5Q323 701 340 692.5Q357 684 371.5 673Q386 662 399 649L357 601Q350 612 341 620.5Q332 629 320.5 636Q309 643 294.5 647Q280 651 263 651Q240 651 221 643.5Q202 636 189 622Q176 608 169 590Q162 572 162 551Q162 530 169.5 509.5Q177 489 192.5 472Q208 455 232 445Q256 435 288 435L421 192H423Q429 213 434 238Q439 263 442 290.5Q445 318 446.5 346.5Q448 375 448 403Q448 407 448 411.5Q448 416 447.5 422.5Q447 429 447 433.5Q447 438 447 442H507Q507 396 504 354Q501 312 495.5 273.5Q490 235 480.5 199.5Q471 164 458 133Q467 115 476 102Q485 89 494.5 79Q504 69 514.5 63Q525 57 537 56Q536 50 535.5 43.5Q535 37 533.5 27Q532 17 531 10.5Q530 4 529 -2Q513 -2 498 5Q483 12 469.5 24.5Q456 37 445.5 52Q435 67 427 84ZM395 136 259 383Q222 380 193 364.5Q164 349 144.5 323.5Q125 298 115.5 267.5Q106 237 106 205Q106 172 116 143Q126 114 145.5 91.5Q165 69 192.5 56.5Q220 44 254 44Q277 44 297.5 50Q318 56 336 67.5Q354 79 368.5 96.5Q383 114 395 136Z" glyph-name="ampersand" horiz-adv-x="573" unicode="&amp;" /><glyph d="M205 494V639H165V491Q165 483 163.5 477Q162 471 159 466Q156 461 151 458.5Q146 456 139 456Q137 456 135 456.5Q133 457 131.5 457.5Q130 458 128.5 458.5Q127 459 125 460L109 424Q112 423 116 421.5Q120 420 123.5 419.5Q127 419 131 418.5Q135 418 139 418Q154 418 166 422.5Q178 427 186.5 436.5Q195 446 200 460.5Q205 475 205 494ZM189 72V251H228V289H111V251H149V72ZM514 421V460H439V505H502V544H439V600H514V639H398V421ZM395 72H456Q476 72 490 77Q504 82 513.5 90.5Q523 99 527 111Q531 123 531 137Q531 146 528.5 154Q526 162 521.5 168Q517 174 511.5 178Q506 182 499 185Q505 188 509.5 192.5Q514 197 517.5 203Q521 209 523 216Q525 223 525 230Q525 244 520.5 255Q516 266 507 273.5Q498 281 485 285Q472 289 455 289H395ZM459 110H436V165H459Q468 165 474.5 163Q481 161 485 157Q489 153 491 148.5Q493 144 493 139Q493 133 491.5 127.5Q490 122 486 118Q482 114 475.5 112Q469 110 459 110ZM450 201H436V251H450Q459 251 465.5 249.5Q472 248 476 245Q480 242 482 237.5Q484 233 484 228Q484 222 482.5 217Q481 212 477 208.5Q473 205 466 203Q459 201 450 201ZM320 421V600H358V639H242V600H280V421ZM374 72 322 290H276L224 72H266L273 106H323L331 72ZM317 143H281L298 223Q298 224 298 225Q298 226 298.5 227Q299 228 299 229Q299 230 299 231V223V220ZM548 336V375H93V336ZM1257 201Q1254 200 1251.5 199Q1249 198 1246 197.5Q1243 197 1240.5 196.5Q1238 196 1236 196Q1234 196 1232.5 196Q1231 196 1229.5 196.5Q1228 197 1227.5 198Q1227 199 1227 200Q1227 200 1227 200.5Q1227 201 1227.5 201.5Q1228 202 1228.5 202.5Q1229 203 1230 204Q1266 236 1282 258.5Q1298 281 1309.5 315Q1321 349 1321 393Q1321 444 1309.5 493Q1298 542 1270 584Q1242 626 1192.5 651.5Q1143 677 1071 677Q1008 677 962 661.5Q916 646 887.5 621.5Q859 597 846 570Q833 543 833 520Q833 513 832.5 509Q832 505 831 502Q830 499 827 496.5Q824 494 820 493Q797 485 780.5 472Q764 459 753.5 443Q743 427 738.5 409Q734 391 734 372Q734 354 738 336Q742 318 749 302Q756 286 765.5 275Q775 264 785 258Q787 257 788.5 256Q790 255 790.5 254Q791 253 791.5 252.5Q792 252 792 251Q792 251 792 250.5Q792 250 791.5 249.5Q791 249 790 249Q789 249 788 249Q786 249 784.5 249.5Q783 250 780.5 250.5Q778 251 776 252.5Q774 254 771 256Q756 266 745 279Q734 292 727 307Q720 322 716.5 338Q713 354 713 370Q713 392 718.5 413Q724 434 734.5 453Q745 472 760 486.5Q775 501 794 509Q798 511 800 512Q802 513 803.5 514.5Q805 516 805.5 518Q806 520 806 524Q806 555 823 588Q840 621 873.5 649.5Q907 678 957 695Q1007 712 1071 712Q1138 712 1192.5 692.5Q1247 673 1286.5 633Q1326 593 1347 532.5Q1368 472 1368 393Q1368 348 1354.5 312.5Q1341 277 1321.5 254Q1302 231 1285 219Q1268 207 1257 201ZM993 137 988 161Q988 162 987.5 162.5Q987 163 987 163.5Q987 164 986.5 164Q986 164 986 164L984 162L965 128Q964 127 963.5 125.5Q963 124 963 123.5Q963 123 963 122.5Q963 122 963 121Q963 116 963.5 110.5Q964 105 965 97.5Q966 90 966.5 88Q967 86 967 83Q967 78 966 74Q965 70 963 67.5Q961 65 958.5 63.5Q956 62 953 62Q950 62 948 63Q946 64 944 66.5Q942 69 941 72.5Q940 76 940 80Q940 83 941 87.5Q942 92 945 100.5Q948 109 948.5 111.5Q949 114 949 115Q949 122 947.5 130Q946 138 943.5 145.5Q941 153 934 175L911 134Q910 132 909.5 130.5Q909 129 908.5 128Q908 127 907.5 125.5Q907 124 907 123Q907 120 908 115.5Q909 111 910.5 105Q912 99 913 95.5Q914 92 914 90Q914 83 913 78Q912 73 910 70Q908 67 905 65.5Q902 64 898 64Q896 64 893.5 65Q891 66 889.5 68.5Q888 71 887 75Q886 79 886 84Q886 87 886 89.5Q886 92 886.5 94.5Q887 97 888 100.5Q889 104 890 108Q890 108 890.5 110Q891 112 891 113Q891 114 891 115Q891 116 891 117Q891 118 890.5 119Q890 120 890 120.5Q890 121 890 122Q889 127 886.5 135Q884 143 881 150.5Q878 158 875.5 163Q873 168 872 168Q874 168 870.5 165Q867 162 863.5 159Q860 156 857 149.5Q854 143 854 135Q854 130 855 125Q856 120 857.5 113.5Q859 107 860 103.5Q861 100 861 96Q861 91 860 87Q859 83 857 80Q855 77 852.5 75.5Q850 74 846 74Q843 74 841 75.5Q839 77 837 80Q835 83 834 87.5Q833 92 833 97Q833 100 833.5 103.5Q834 107 835 112.5Q836 118 836 119.5Q836 121 836 122Q836 124 833.5 131.5Q831 139 827 147.5Q823 156 820 162Q817 168 816 168Q814 168 812.5 160Q811 152 809.5 140.5Q808 129 807 117Q806 105 806 98Q806 74 817.5 59.5Q829 45 850.5 38.5Q872 32 899.5 30Q927 28 970 28Q1006 28 1034.5 29.5Q1063 31 1088.5 36Q1114 41 1130.5 51.5Q1147 62 1149 79Q1154 124 1160.5 159.5Q1167 195 1175.5 222.5Q1184 250 1195 269.5Q1206 289 1220 299Q1221 300 1221.5 300.5Q1222 301 1223 301Q1224 301 1225 301Q1226 301 1227 301Q1229 301 1230 300.5Q1231 300 1232.5 299.5Q1234 299 1234.5 298Q1235 297 1235 296Q1235 295 1235 294.5Q1235 294 1234.5 293Q1234 292 1233.5 291.5Q1233 291 1232 290Q1215 271 1204 240.5Q1193 210 1187.5 177.5Q1182 145 1181 128.5Q1180 112 1177 72Q1176 57 1169.5 44Q1163 31 1144.5 18.5Q1126 6 1089 -2Q1052 -10 994 -10Q932 -10 893 -4Q854 2 833 14Q812 26 804 43.5Q796 61 796 87Q796 97 797 108.5Q798 120 800 131.5Q802 143 802 144Q802 145 808 177Q808 177 808.5 177.5Q809 178 809 178.5Q809 179 809 180Q809 184 807 188.5Q805 193 800 202Q795 211 792.5 217.5Q790 224 790 230Q790 233 791 236Q792 239 794 240.5Q796 242 798 243Q800 244 803 244Q806 244 809 242.5Q812 241 814.5 238.5Q817 236 819 232Q821 228 821 223Q821 221 821 218.5Q821 216 820.5 211.5Q820 207 819.5 203.5Q819 200 819 197Q819 198 822 193.5Q825 189 833 175Q841 161 845.5 154Q850 147 851 147Q851 147 851.5 147Q852 147 852.5 147.5Q853 148 853.5 148.5Q854 149 854 150L867 177Q867 177 867 177.5Q867 178 867.5 178.5Q868 179 868 179.5Q868 180 868 180Q868 185 866.5 190Q865 195 862 203Q859 211 857.5 216.5Q856 222 856 227Q856 233 857.5 238.5Q859 244 862 248Q865 252 868.5 254Q872 256 875 256Q878 256 880 255Q882 254 884 251.5Q886 249 887 245Q888 241 888 236Q888 231 887 226.5Q886 222 884.5 215Q883 208 882 203.5Q881 199 881 195Q881 198 887 178Q893 158 896.5 149.5Q900 141 903 141Q903 141 908 146.5Q913 152 918 159.5Q923 167 927 174Q931 181 931 184Q931 184 930.5 185.5Q930 187 930 187.5Q930 188 930 189Q925 203 924.5 205Q924 207 922.5 212Q921 217 920 221Q919 225 919 229Q919 235 920.5 240Q922 245 925 248.5Q928 252 931.5 253.5Q935 255 939 255Q942 255 945 253.5Q948 252 950 249.5Q952 247 953.5 242.5Q955 238 955 232Q955 229 954 225Q953 221 950.5 214.5Q948 208 947 204Q946 200 946 197Q946 193 948 183.5Q950 174 954 158.5Q958 143 959.5 138Q961 133 960 133Q961 133 965 138.5Q969 144 973.5 152Q978 160 981 167.5Q984 175 984 180Q984 186 983.5 192Q983 198 982 205.5Q981 213 980.5 217Q980 221 980 225Q980 231 981 235.5Q982 240 984 242.5Q986 245 989 246.5Q992 248 996 248Q999 248 1001.5 247Q1004 246 1006 244Q1008 242 1009.5 239Q1011 236 1011 232Q1011 228 1009.5 223Q1008 218 1005 210.5Q1002 203 1000.5 198Q999 193 999 188Q999 188 999 187.5Q999 187 999.5 186.5Q1000 186 1000 185.5Q1000 185 1000 185L1005 162Q1005 161 1005 160Q1005 159 1005.5 158.5Q1006 158 1006.5 157.5Q1007 157 1008 157Q1009 157 1011 159Q1013 161 1021.5 169Q1030 177 1034.5 181Q1039 185 1040 185Q1041 185 1041 185Q1041 185 1041 184Q1041 183 1030 171.5Q1019 160 1019 160Q1019 160 1014.5 154Q1010 148 1010 143Q1010 138 1010.5 133Q1011 128 1012 121.5Q1013 115 1013.5 112Q1014 109 1014 106Q1014 99 1013 94.5Q1012 90 1010 87Q1008 84 1005.5 82.5Q1003 81 999 81Q995 81 992 82.5Q989 84 988 86Q987 88 986.5 91Q986 94 986 97Q986 100 987 103.5Q988 107 989.5 113.5Q991 120 992 124.5Q993 129 993 133ZM1064 262Q1039 262 1020 270.5Q1001 279 989 294.5Q977 310 971 329Q965 348 965 370Q965 390 973 408Q981 426 994.5 439Q1008 452 1026.5 459Q1045 466 1066 466Q1086 466 1103.5 458.5Q1121 451 1133 438Q1145 425 1151.5 407.5Q1158 390 1158 371Q1158 351 1153 332Q1148 313 1136.5 297Q1125 281 1107 271.5Q1089 262 1064 262ZM852 269Q830 269 812 275.5Q794 282 781 294.5Q768 307 761 325.5Q754 344 754 368Q754 385 759.5 402.5Q765 420 777 434.5Q789 449 807.5 457.5Q826 466 850 466Q872 466 890 460.5Q908 455 921 443.5Q934 432 941 415Q948 398 948 376Q948 351 941 331Q934 311 921.5 297.5Q909 284 891 276.5Q873 269 852 269ZM771 148Q773 148 774.5 147Q776 146 777 145.5Q778 145 778.5 144Q779 143 779 142Q779 134 766 128Q753 122 734.5 118Q716 114 698.5 112Q681 110 673 110Q667 110 661 110.5Q655 111 646.5 112Q638 113 633 113.5Q628 114 623 114Q617 114 612 112Q607 110 603 106.5Q599 103 596 97Q593 91 591 83Q585 59 575.5 45Q566 31 552.5 23.5Q539 16 522 12.5Q505 9 472 4Q452 1 438.5 -0.5Q425 -2 410.5 -3.5Q396 -5 379.5 -5.5Q363 -6 343 -6Q323 -6 307.5 -5.5Q292 -5 279 -3.5Q266 -2 255 -0.5Q244 1 224 4Q160 14 130.5 23Q101 32 81.5 57Q62 82 53 134.5Q44 187 44 283Q44 363 49.5 431.5Q55 500 65.5 552.5Q76 605 91 637.5Q106 670 125 680Q136 686 162.5 691.5Q189 697 224 702Q259 707 296 709.5Q333 712 365 712Q407 712 443 706Q479 700 506.5 690Q534 680 552 667.5Q570 655 578 642Q589 624 595 604Q601 584 604.5 560.5Q608 537 609 510.5Q610 484 610 446V383Q610 335 617 295Q624 255 642 223.5Q660 192 691.5 172Q723 152 771 148ZM923 330V410H908L892 378H891L874 410H860V330H875V381L890 356H893L907 381H908V330ZM1042 324 1027 364 1042 404H1027L1018 374H1016L1007 404H992L1007 364L992 324H1007L1016 353H1018L1027 324ZM1134 324V404H1119V324ZM843 330V410H828L812 378H811L794 410H780V330H795V381L810 356H813L827 381H828V330ZM1067 324V404H1052V324ZM1100 324V404H1085V324Z" glyph-name="apple" horiz-adv-x="1412" unicode="&#63743;" /><glyph d="M417 0H356Q355 1 353 9Q351 17 348.5 29Q346 41 344 56Q342 71 341 87Q332 67 319.5 50Q307 33 289.5 19.5Q272 6 249.5 -2Q227 -10 200 -10Q165 -10 137 1Q109 12 89.5 32Q70 52 59.5 79.5Q49 107 49 140Q49 180 67 211.5Q85 243 121 264.5Q157 286 212 297.5Q267 309 340 309V351Q340 384 333 409Q326 434 312 450.5Q298 467 279 475Q260 483 237 483Q217 483 199 477Q181 471 166.5 460.5Q152 450 140 435Q128 420 119 401L74 437Q90 462 109 481.5Q128 501 150 513.5Q172 526 196 532Q220 538 245 538Q279 538 307.5 526Q336 514 357 490.5Q378 467 389.5 430.5Q401 394 401 347V86Q401 69 403 54Q405 39 407.5 28Q410 17 412.5 10.5Q415 4 417 0ZM340 215V259H313Q264 259 226 251.5Q188 244 161.5 229Q135 214 121.5 191.5Q108 169 108 140Q108 117 116 98.5Q124 80 137.5 67.5Q151 55 168.5 49Q186 43 206 43Q238 43 263.5 56.5Q289 70 306 94Q323 118 331.5 149Q340 180 340 215ZM318 665Q318 648 312 633.5Q306 619 295.5 609Q285 599 270 593.5Q255 588 237 588Q219 588 204 593.5Q189 599 178 609Q167 619 161 633.5Q155 648 155 665Q155 682 161 696.5Q167 711 178 721.5Q189 732 204 737.5Q219 743 237 743Q255 743 270 737.5Q285 732 295.5 721.5Q306 711 312 696.5Q318 682 318 665ZM276 665Q276 673 273 680Q270 687 264.5 692Q259 697 252 700Q245 703 237 703Q229 703 222 700Q215 697 209.5 692Q204 687 201 680Q198 673 198 665Q198 657 201 650Q204 643 209.5 638Q215 633 222 630.5Q229 628 237 628Q245 628 252 630.5Q259 633 264.5 638Q270 643 273 650Q276 657 276 665Z" glyph-name="aring" horiz-adv-x="475" unicode="&#229;" /><glyph d="M312 680Q312 663 306 648.5Q300 634 289.5 624Q279 614 264 608.5Q249 603 231 603Q213 603 198 608.5Q183 614 172 624Q161 634 155 648.5Q149 663 149 680Q149 697 155 711.5Q161 726 172 736.5Q183 747 198 752.5Q213 758 231 758Q249 758 264 752.5Q279 747 289.5 736.5Q300 726 306 711.5Q312 697 312 680ZM270 680Q270 688 267 695Q264 702 258.5 707Q253 712 246 715Q239 718 231 718Q223 718 216 715Q209 712 203.5 707Q198 702 195 695Q192 688 192 680Q192 672 195 665Q198 658 203.5 653Q209 648 216 645.5Q223 643 231 643Q239 643 246 645.5Q253 648 258.5 653Q264 658 267 665Q270 672 270 680ZM418 0H361Q360 2 358 8.5Q356 15 353.5 25Q351 35 349 47.5Q347 60 346 74H344Q336 55 323.5 39.5Q311 24 295.5 13Q280 2 260.5 -3.5Q241 -9 218 -9Q176 -9 143.5 9.5Q111 28 89.5 63Q68 98 57 149Q46 200 46 264Q46 327 58 377.5Q70 428 92.5 464Q115 500 148 518.5Q181 537 222 537Q245 537 264 531Q283 525 298.5 513.5Q314 502 325.5 487.5Q337 473 345 456H347Q348 469 349.5 481Q351 493 353.5 502.5Q356 512 358 518.5Q360 525 361 527H418Q409 501 410.5 505Q412 509 409.5 498Q407 487 405 472.5Q403 458 403 441V85Q403 69 405 54Q407 39 409.5 28Q412 17 414 10.5Q416 4 418 0ZM343 214V315Q343 351 336 381.5Q329 412 315 434Q301 456 279 468.5Q257 481 228 481Q196 481 173 465.5Q150 450 135.5 421.5Q121 393 114.5 353.5Q108 314 108 264Q108 213 114.5 173Q121 133 135.5 104.5Q150 76 173 61Q196 46 228 46Q259 46 281 59.5Q303 73 316.5 96.5Q330 120 336.5 150Q343 180 343 214Z" glyph-name="aring.alt" horiz-adv-x="480" /><glyph d="M257 759 209 808Q198 819 189 829Q180 839 174 846.5Q168 854 161 863H159Q159 863 154.5 857.5Q150 852 144 845Q138 838 129.5 828Q121 818 111 808L63 759L23 799L150 921H171L296 799Z" glyph-name="asciicircum" horiz-adv-x="319" unicode="^" /><glyph d="M313 444H360Q360 417 355.5 396.5Q351 376 340.5 361Q330 346 313 338Q296 330 271 330Q250 330 233 339Q216 348 196 365.5Q176 383 165 390Q154 397 141 397Q128 397 120 391.5Q112 386 107.5 377.5Q103 369 101.5 358.5Q100 348 100 336H52Q52 362 57 383Q62 404 72.5 418.5Q83 433 100 441Q117 449 141 449Q162 449 178.5 440Q195 431 215.5 413.5Q236 396 247 388.5Q258 381 271 381Q283 381 291.5 386.5Q300 392 304.5 401.5Q309 411 311 422Q313 433 313 444Z" glyph-name="asciitilde" horiz-adv-x="414" unicode="~" /><glyph d="M324 396 277 361Q265 379 252.5 399.5Q240 420 229 440Q218 460 209.5 477Q201 494 195 506Q191 499 175.5 471Q160 443 154 432Q148 421 136 400Q124 379 112 361L65 396Q77 412 92 429.5Q107 447 122 463Q137 479 150 491.5Q163 504 174 515Q174 516 172.5 516Q171 516 124.5 525.5Q78 535 54 540.5Q30 546 16 550L34 605Q53 598 74 589Q95 580 114.5 571Q134 562 149.5 554Q165 546 181 538L183 539Q178 568 176.5 579Q175 590 172 611Q169 632 167 655.5Q165 679 165 700H223Q223 679 221 656Q219 633 216 611Q213 589 210.5 571Q208 553 205 539L207 537Q230 549 241.5 555Q253 561 272.5 570Q292 579 313.5 588.5Q335 598 355 605L373 550Q354 544 332 539Q310 534 320 536Q330 538 277 527.5Q224 517 214 515Q223 507 236 494Q249 481 264.5 465Q280 449 295.5 431Q311 413 324 396Z" glyph-name="asterisk" horiz-adv-x="391" unicode="*" /><glyph d="M494 258H492Q484 236 472 219.5Q460 203 445 192Q430 181 413.5 175.5Q397 170 379 170Q351 170 326.5 181Q302 192 283.5 214Q265 236 254.5 270.5Q244 305 244 350Q244 389 254.5 422Q265 455 284.5 479.5Q304 504 331 517Q358 530 391 530Q407 530 422 526Q437 522 449 514.5Q461 507 471 496.5Q481 486 487 473H489Q490 481 492 488.5Q494 496 495.5 502Q497 508 499 516H546Q542 501 540.5 491.5Q539 482 537.5 468.5Q536 455 536 440V332Q536 307 541 287Q546 267 555.5 253Q565 239 578 232Q591 225 607 225Q625 225 638.5 233.5Q652 242 661 259Q670 276 674.5 301Q679 326 679 359Q679 423 661 482.5Q643 542 607.5 590Q572 638 518 666Q464 694 395 694Q334 694 281.5 670Q229 646 189.5 600.5Q150 555 128.5 491Q107 427 107 350Q107 274 128.5 211Q150 148 189 102Q228 56 280.5 31.5Q333 7 395 7Q422 7 445 11Q468 15 488 22.5Q508 30 525.5 40.5Q543 51 561 64Q563 58 566 51.5Q569 45 571 41.5Q573 38 578 28Q583 18 585 13Q565 -2 543.5 -13.5Q522 -25 498 -32.5Q474 -40 448.5 -44Q423 -48 395 -48Q320 -48 256.5 -19Q193 10 147 63.5Q101 117 76 190Q51 263 51 350Q51 437 76 510Q101 583 147 636.5Q193 690 256.5 719Q320 748 395 748Q480 748 545 713.5Q610 679 652 622Q694 565 714 497Q734 429 734 362Q734 318 726 283Q718 248 702 222.5Q686 197 661.5 183.5Q637 170 604 170Q585 170 568.5 175Q552 180 537.5 191Q523 202 512 218.5Q501 235 494 258ZM385 224Q403 224 419.5 232Q436 240 449.5 257Q463 274 471 300.5Q479 327 479 362Q479 388 472.5 409Q466 430 454 445Q442 460 426.5 467.5Q411 475 394 475Q374 475 357 467Q340 459 327.5 443Q315 427 308.5 403.5Q302 380 302 350Q302 317 308.5 293Q315 269 327 253.5Q339 238 353.5 231Q368 224 385 224Z" glyph-name="at" horiz-adv-x="786" unicode="@" /><glyph d="M417 0H356Q355 1 353 9Q351 17 348.5 29Q346 41 344 56Q342 71 341 87Q332 67 319.5 50Q307 33 289.5 19.5Q272 6 249.5 -2Q227 -10 200 -10Q165 -10 137 1Q109 12 89.5 32Q70 52 59.5 79.5Q49 107 49 140Q49 180 67 211.5Q85 243 121 264.5Q157 286 212 297.5Q267 309 340 309V351Q340 384 333 409Q326 434 312 450.5Q298 467 279 475Q260 483 237 483Q217 483 199 477Q181 471 166.5 460.5Q152 450 140 435Q128 420 119 401L74 437Q90 462 109 481.5Q128 501 150 513.5Q172 526 196 532Q220 538 245 538Q279 538 307.5 526Q336 514 357 490.5Q378 467 389.5 430.5Q401 394 401 347V86Q401 69 403 54Q405 39 407.5 28Q410 17 412.5 10.5Q415 4 417 0ZM340 215V259H313Q264 259 226 251.5Q188 244 161.5 229Q135 214 121.5 191.5Q108 169 108 140Q108 117 116 98.5Q124 80 137.5 67.5Q151 55 168.5 49Q186 43 206 43Q238 43 263.5 56.5Q289 70 306 94Q323 118 331.5 149Q340 180 340 215ZM338 698H385Q385 671 380.5 650.5Q376 630 365.5 615Q355 600 338 592Q321 584 296 584Q275 584 258 593Q241 602 221 619.5Q201 637 190 644Q179 651 166 651Q153 651 145 645.5Q137 640 132.5 631.5Q128 623 126.5 612.5Q125 602 125 590H77Q77 616 82 637Q87 658 97.5 672.5Q108 687 125 695Q142 703 166 703Q187 703 203.5 694Q220 685 240.5 667.5Q261 650 272 642.5Q283 635 296 635Q308 635 316.5 640.5Q325 646 329.5 655.5Q334 665 336 676Q338 687 338 698Z" glyph-name="atilde" horiz-adv-x="475" unicode="&#227;" /><glyph d="M418 0H361Q360 2 358 8.5Q356 15 353.5 25Q351 35 349 47.5Q347 60 346 74H344Q336 55 323.5 39.5Q311 24 295.5 13Q280 2 260.5 -3.5Q241 -9 218 -9Q176 -9 143.5 9.5Q111 28 89.5 63Q68 98 57 149Q46 200 46 264Q46 327 58 377.5Q70 428 92.5 464Q115 500 148 518.5Q181 537 222 537Q245 537 264 531Q283 525 298.5 513.5Q314 502 325.5 487.5Q337 473 345 456H347Q348 469 349.5 481Q351 493 353.5 502.5Q356 512 358 518.5Q360 525 361 527H418Q409 501 410.5 505Q412 509 409.5 498Q407 487 405 472.5Q403 458 403 441V85Q403 69 405 54Q407 39 409.5 28Q412 17 414 10.5Q416 4 418 0ZM343 214V315Q343 351 336 381.5Q329 412 315 434Q301 456 279 468.5Q257 481 228 481Q196 481 173 465.5Q150 450 135.5 421.5Q121 393 114.5 353.5Q108 314 108 264Q108 213 114.5 173Q121 133 135.5 104.5Q150 76 173 61Q196 46 228 46Q259 46 281 59.5Q303 73 316.5 96.5Q330 120 336.5 150Q343 180 343 214ZM334 729H381Q381 702 376.5 681.5Q372 661 361.5 646Q351 631 334 623Q317 615 292 615Q271 615 254 624Q237 633 217 650.5Q197 668 186 675Q175 682 162 682Q149 682 141 676.5Q133 671 128.5 662.5Q124 654 122.5 643.5Q121 633 121 621H73Q73 647 78 668Q83 689 93.5 703.5Q104 718 121 726Q138 734 162 734Q183 734 199.5 725Q216 716 236.5 698.5Q257 681 268 673.5Q279 666 292 666Q304 666 312.5 671.5Q321 677 325.5 686.5Q330 696 332 707Q334 718 334 729Z" glyph-name="atilde.alt" horiz-adv-x="480" /><glyph d="M117 0H60Q62 5 64 11Q66 17 68.5 28Q71 39 73 54Q75 69 75 86V730H135V534Q135 523 135 510Q135 497 134.5 485.5Q134 474 134 456H136Q145 474 157 488.5Q169 503 184.5 514Q200 525 218.5 531Q237 537 259 537Q302 537 334.5 518.5Q367 500 388.5 464.5Q410 429 421 378.5Q432 328 432 264Q432 201 420 150Q408 99 385.5 63Q363 27 331 8.5Q299 -10 258 -10Q235 -10 215.5 -3.5Q196 3 180.5 14.5Q165 26 153.5 41Q142 56 133 73H131Q130 60 128.5 47Q127 34 124.5 24Q122 14 120 7.5Q118 1 117 0ZM135 330V223Q135 184 141.5 152Q148 120 162 96.5Q176 73 197.5 60Q219 47 249 47Q281 47 304 62Q327 77 341.5 105.5Q356 134 363 174Q370 214 370 264Q370 315 363 355Q356 395 341.5 423.5Q327 452 304 467Q281 482 249 482Q221 482 199.5 470.5Q178 459 163.5 438Q149 417 142 389.5Q135 362 135 330Z" glyph-name="b" horiz-adv-x="481" unicode="b" /><glyph d="M229 -60H169L9 760H70Z" glyph-name="backslash" horiz-adv-x="240" unicode="\" /><glyph d="M137 -100H74V800H137Z" glyph-name="bar" horiz-adv-x="211" unicode="|" /><glyph d="M206 -80V-135Q167 -135 136 -126.5Q105 -118 83 -100.5Q61 -83 49.5 -56Q38 -29 38 7Q38 41 48.5 73Q59 105 79.5 147.5Q100 190 109 212.5Q118 235 118 259Q118 278 112 291Q106 304 95.5 311Q85 318 71 321Q57 324 40 324V379Q57 379 71 382Q85 385 95.5 392Q106 399 112 412Q118 425 118 444Q118 468 109 490.5Q100 513 79.5 555.5Q59 598 48.5 630Q38 662 38 696Q38 732 50 759.5Q62 787 84 804.5Q106 822 137 830.5Q168 839 206 839V784Q181 784 161.5 779.5Q142 775 127 764.5Q112 754 104 736.5Q96 719 96 693Q96 664 105.5 637Q115 610 134.5 570Q154 530 164 502.5Q174 475 174 445Q174 427 168.5 412Q163 397 153 385Q143 373 129.5 364.5Q116 356 101 351Q117 347 130.5 339Q144 331 153.5 318.5Q163 306 168.5 291Q174 276 174 258Q174 228 164 200.5Q154 173 134.5 133Q115 93 105.5 66Q96 39 96 10Q96 -11 104 -28Q112 -45 127 -56.5Q142 -68 162 -74Q182 -80 206 -80Z" glyph-name="braceleft" horiz-adv-x="258" unicode="{" /><glyph d="M43 -135V-80Q67 -80 87 -74Q107 -68 122 -56.5Q137 -45 145 -28Q153 -11 153 10Q153 39 143.5 66Q134 93 114.5 133Q95 173 85 200.5Q75 228 75 258Q75 276 80.5 291Q86 306 95.5 318.5Q105 331 118.5 339Q132 347 148 351Q133 356 119.5 364.5Q106 373 96 385Q86 397 80.5 412Q75 427 75 445Q75 475 85 502.5Q95 530 114.5 570Q134 610 143.5 637Q153 664 153 693Q153 719 145 736.5Q137 754 122 764.5Q107 775 87.5 779.5Q68 784 43 784V839Q81 839 112 830.5Q143 822 165 804.5Q187 787 199 759.5Q211 732 211 696Q211 662 200.5 630Q190 598 169.5 555.5Q149 513 140 490.5Q131 468 131 444Q131 425 137 412Q143 399 153.5 392Q164 385 178 382Q192 379 209 379V324Q192 324 178 321Q164 318 153.5 311Q143 304 137 291Q131 278 131 259Q131 235 140 212.5Q149 190 169.5 147.5Q190 105 200.5 73Q211 41 211 7Q211 -29 199.5 -56Q188 -83 166 -100.5Q144 -118 113 -126.5Q82 -135 43 -135Z" glyph-name="braceright" horiz-adv-x="258" unicode="}" /><glyph d="M251 -127H82V837H251V785H139V-75H251Z" glyph-name="bracketleft" horiz-adv-x="261" unicode="[" /><glyph d="M10 837H179V-127H10V-75H122V785H10Z" glyph-name="bracketright" horiz-adv-x="261" unicode="]" /><glyph d="M244 856 299 866Q299 863 299.5 860.5Q300 858 300.5 855Q301 852 301 848.5Q301 845 301 842Q301 820 293 802Q285 784 269.5 770.5Q254 757 230 750Q206 743 174 743Q142 743 118 750Q94 757 78.5 770.5Q63 784 55 802Q47 820 47 842Q47 845 47 848.5Q47 852 47.5 855Q48 858 48.5 860.5Q49 863 49 866L104 856Q104 854 103.5 852.5Q103 851 103 849.5Q103 848 103 846Q103 834 107.5 825Q112 816 121 810Q130 804 143 801Q156 798 174 798Q192 798 205 801Q218 804 227 810Q236 816 240.5 825Q245 834 245 846Q245 848 245 849.5Q245 851 244.5 852.5Q244 854 244 856Z" glyph-name="breve" horiz-adv-x="351" unicode="&#728;" /><glyph d="M133 -98H74V315H133ZM133 402H74V802H133Z" glyph-name="brokenbar" horiz-adv-x="206" unicode="&#166;" /><glyph d="M194 284Q194 271 189 259Q184 247 175 238Q166 229 153.5 224Q141 219 127 219Q114 219 102 224Q90 229 81 238Q72 247 67 259Q62 271 62 284Q62 298 67 310.5Q72 323 81 332Q90 341 102 346Q114 351 127 351Q141 351 153.5 346Q166 341 175 332Q184 323 189 310.5Q194 298 194 284Z" glyph-name="bullet" horiz-adv-x="250" unicode="&#8226;" /><glyph d="M352 152 404 124Q394 92 379 67.5Q364 43 343.5 25.5Q323 8 296.5 -1Q270 -10 237 -10Q192 -10 157 8.5Q122 27 98 62.5Q74 98 61.5 148.5Q49 199 49 263Q49 327 61.5 378Q74 429 98 464.5Q122 500 157 518.5Q192 537 237 537Q269 537 295.5 528Q322 519 342.5 502Q363 485 378 461Q393 437 403 406L350 377Q344 401 333.5 420Q323 439 309.5 452.5Q296 466 278 473Q260 480 238 480Q206 480 182 465Q158 450 142 421.5Q126 393 118.5 353Q111 313 111 263Q111 213 118.5 173.5Q126 134 141.5 105.5Q157 77 181.5 62Q206 47 238 47Q260 47 278 54.5Q296 62 310 75.5Q324 89 334.5 108Q345 127 352 152Z" glyph-name="c" horiz-adv-x="438" unicode="c" /><glyph d="M104 930 152 881Q163 870 172 860Q181 850 187 842.5Q193 835 200 826H202Q202 826 206.5 831.5Q211 837 217 844Q223 851 231.5 861Q240 871 250 881L298 930L338 890L211 768H190L65 890Z" glyph-name="caron" horiz-adv-x="373" unicode="&#711;" /><glyph d="M140 -208 181 -176Q185 -185 191.5 -192Q198 -199 206.5 -204.5Q215 -210 224.5 -213Q234 -216 245 -216Q259 -216 269.5 -212Q280 -208 287.5 -201Q295 -194 298.5 -184Q302 -174 302 -163Q302 -153 297.5 -143.5Q293 -134 285 -127.5Q277 -121 266 -117Q255 -113 242 -113Q232 -113 223.5 -115Q215 -117 208 -120.5Q201 -124 195.5 -128Q190 -132 187 -136Q183 -133 183 -133.5Q183 -134 171.5 -127.5Q160 -121 155 -118.5Q150 -116 146 -113Q149 -101 151.5 -89Q154 -77 158.5 -57.5Q163 -38 166 -24.5Q169 -11 172 1Q142 12 119 35Q96 58 80.5 91Q65 124 57 167.5Q49 211 49 263Q49 327 61.5 377.5Q74 428 98 464Q122 500 157 518.5Q192 537 236 537Q269 537 295.5 528Q322 519 342.5 502Q363 485 378 460.5Q393 436 403 405Q397 402 391 399Q385 396 376 391.5Q367 387 361 383.5Q355 380 349 377Q343 401 333 420Q323 439 309.5 452.5Q296 466 278 473Q260 480 238 480Q206 480 181.5 465Q157 450 141.5 421.5Q126 393 118.5 353Q111 313 111 263Q111 213 118.5 173Q126 133 141.5 104.5Q157 76 181 61Q205 46 238 46Q260 46 278 53.5Q296 61 310 74.5Q324 88 334 107.5Q344 127 351 151L404 123Q394 92 379 67.5Q364 43 343.5 25.5Q323 8 296 -1Q269 -10 236 -10Q234 -10 231.5 -10Q229 -10 226 -9.5Q223 -9 221 -9Q219 -9 217 -9Q214 -21 212 -29Q210 -37 207.5 -46Q205 -55 203 -63.5Q201 -72 198 -81L200 -83Q206 -80 212 -77.5Q218 -75 224.5 -73Q231 -71 239 -69.5Q247 -68 255 -68Q277 -68 295 -75.5Q313 -83 326 -96.5Q339 -110 346 -127.5Q353 -145 353 -164Q353 -185 345.5 -203.5Q338 -222 324.5 -235.5Q311 -249 291 -256.5Q271 -264 246 -264Q229 -264 212.5 -260Q196 -256 182 -248.5Q168 -241 157 -231Q146 -221 140 -208Z" glyph-name="ccedilla" horiz-adv-x="438" unicode="&#231;" /><glyph d="M35 -208 75 -176Q79 -185 85.5 -192Q92 -199 100.5 -204.5Q109 -210 118.5 -213Q128 -216 139 -216Q153 -216 163.5 -212Q174 -208 181.5 -201Q189 -194 192.5 -184Q196 -174 196 -163Q196 -153 191.5 -143.5Q187 -134 179.5 -127.5Q172 -121 161 -117Q150 -113 137 -113Q127 -113 118 -115Q109 -117 102 -120.5Q95 -124 89.5 -128Q84 -132 81 -136L40 -113L72 25L118 21L93 -82L95 -83Q102 -80 107.5 -77.5Q113 -75 119.5 -73Q126 -71 133.5 -69.5Q141 -68 149 -68Q171 -68 189 -75Q207 -82 220 -95Q233 -108 240 -126Q247 -144 247 -164Q247 -185 239.5 -203.5Q232 -222 218.5 -235.5Q205 -249 185 -256.5Q165 -264 140 -264Q123 -264 106.5 -260Q90 -256 76 -248.5Q62 -241 51.5 -231Q41 -221 35 -208Z" glyph-name="cedilla" horiz-adv-x="271" unicode="&#184;" /><glyph d="M146 61 106 64 140 171Q116 184 98.5 203.5Q81 223 69 247.5Q57 272 51 300Q45 328 45 358Q45 401 56.5 438.5Q68 476 91.5 504.5Q115 533 150 549.5Q185 566 229 566Q234 566 238 566Q242 566 246.5 565.5Q251 565 255.5 564.5Q260 564 264 563L293 651H333L301 551Q314 545 325.5 536Q337 527 347 516Q357 505 365 491.5Q373 478 380 462L336 427Q328 447 317.5 462Q307 477 293.5 487Q280 497 264 502.5Q248 508 229 508Q199 508 176 496.5Q153 485 137.5 464.5Q122 444 114 417Q106 390 106 358Q106 326 114 299Q122 272 137.5 251.5Q153 231 176.5 219.5Q200 208 230 208Q250 208 266.5 213.5Q283 219 296.5 230Q310 241 320 256.5Q330 272 338 292L386 258Q375 233 360.5 213Q346 193 327 179Q308 165 283.5 157.5Q259 150 230 150Q222 150 215 150.5Q208 151 201.5 151.5Q195 152 188.5 153Q182 154 176 156Z" glyph-name="cent" horiz-adv-x="429" unicode="&#162;" /><glyph d="M272 759 224 808Q213 819 204 829Q195 839 189 846.5Q183 854 176 863H174Q174 863 169.5 857.5Q165 852 159 845Q153 838 144.5 828Q136 818 126 808L78 759L38 799L165 921H186L311 799Z" glyph-name="circumflex" horiz-adv-x="350" unicode="&#710;" /><glyph d="M130 28Q130 20 127 13Q124 6 118.5 1Q113 -4 106 -7Q99 -10 91 -10Q83 -10 76 -7Q69 -4 64 1Q59 6 56 13Q53 20 53 28Q53 36 56 43Q59 50 64 55.5Q69 61 76 64Q83 67 91 67Q99 67 106 64Q113 61 118.5 55.5Q124 50 127 43Q130 36 130 28ZM130 355Q130 347 127 340Q124 333 118.5 328Q113 323 106 320Q99 317 91 317Q83 317 76 320Q69 323 64 328Q59 333 56 340Q53 347 53 355Q53 363 56 370Q59 377 64 382.5Q69 388 76 391Q83 394 91 394Q99 394 106 391Q113 388 118.5 382.5Q124 377 127 370Q130 363 130 355Z" glyph-name="colon" horiz-adv-x="183" unicode=":" /><glyph d="M51 -62Q61 -56 68.5 -49.5Q76 -43 81.5 -36Q87 -29 91 -20Q95 -11 97 -1Q96 0 95.5 0Q95 0 95 0Q94 -1 92.5 -2Q91 -3 90 -3.5Q89 -4 87.5 -4Q86 -4 84 -4Q78 -4 72 -2Q66 0 61.5 4.5Q57 9 54.5 15Q52 21 52 29Q52 36 54.5 42Q57 48 61.5 52.5Q66 57 72.5 59.5Q79 62 86 62Q95 62 102 58.5Q109 55 114.5 48.5Q120 42 122.5 32.5Q125 23 125 11Q125 -4 121 -19.5Q117 -35 109.5 -48.5Q102 -62 91 -71.5Q80 -81 67 -85Q65 -83 63 -80Q61 -77 58.5 -73Q56 -69 54.5 -67Q53 -65 51 -62Z" glyph-name="comma" horiz-adv-x="182" unicode="," /><glyph d="M757 350Q757 274 729.5 208Q702 142 653 93Q604 44 537.5 17Q471 -10 396 -10Q320 -10 254 17Q188 44 138.5 93Q89 142 61.5 208Q34 274 34 350Q34 425 61.5 491Q89 557 138.5 606.5Q188 656 254 683Q320 710 396 710Q471 710 537.5 683Q604 656 653 606.5Q702 557 729.5 491Q757 425 757 350ZM397 37Q463 37 520 60.5Q577 84 619 126Q661 168 684 226Q707 284 707 350Q707 416 684 473.5Q661 531 619 573.5Q577 616 520 639.5Q463 663 397 663Q331 663 273.5 639.5Q216 616 173 573.5Q130 531 106.5 473.5Q83 416 83 350Q83 284 106.5 226.5Q130 169 173 126.5Q216 84 273.5 60.5Q331 37 397 37ZM451 292 495 275Q489 255 480 239.5Q471 224 458.5 212.5Q446 201 429.5 194.5Q413 188 393 188Q365 188 343 200Q321 212 306 234Q291 256 283 287Q275 318 275 355Q275 393 283 424Q291 455 306 477Q321 499 343 511Q365 523 393 523Q413 523 429 517Q445 511 457.5 500Q470 489 478.5 474.5Q487 460 493 441L450 423Q446 437 441 446.5Q436 456 429 463Q422 470 413 473Q404 476 393 476Q377 476 364 468Q351 460 342 445Q333 430 328.5 407Q324 384 324 355Q324 326 328.5 303.5Q333 281 342 266Q351 251 364 243Q377 235 393 235Q405 235 414 238.5Q423 242 430 249.5Q437 257 442 267.5Q447 278 451 292Z" glyph-name="copyright" horiz-adv-x="791" unicode="&#169;" /><glyph d="M395 172 450 148Q439 111 423 82Q407 53 384.5 32.5Q362 12 332 1Q302 -10 265 -10Q211 -10 172.5 12Q134 34 110 74.5Q86 115 74 169.5Q62 224 59 293H12V327H58V373H12V407H59Q62 475 74 529.5Q86 584 110 624.5Q134 665 172.5 687.5Q211 710 265 710Q304 710 334.5 698Q365 686 388 664Q411 642 426.5 611Q442 580 452 541L397 518Q390 550 378.5 574.5Q367 599 351 616.5Q335 634 313.5 643Q292 652 265 652Q228 652 201.5 634.5Q175 617 158 585Q141 553 132 508.5Q123 464 120 407H282V373H119V327H282V293H120Q123 236 132 191.5Q141 147 158 114.5Q175 82 201.5 64.5Q228 47 265 47Q291 47 312 55.5Q333 64 348.5 80Q364 96 375.5 119Q387 142 395 172Z" glyph-name="currency" horiz-adv-x="484" unicode="&#164;" /><glyph d="M421 0H363Q358 16 356 25.5Q354 35 352 47.5Q350 60 350 73H348Q339 55 327.5 40.5Q316 26 300.5 14.5Q285 3 265 -3.5Q245 -10 221 -10Q180 -10 148 8.5Q116 27 94 63Q72 99 60.5 149.5Q49 200 49 264Q49 327 60.5 378Q72 429 94 464.5Q116 500 149 518.5Q182 537 225 537Q246 537 264 531.5Q282 526 297 515.5Q312 505 323.5 491Q335 477 344 460H346Q346 475 345.5 485.5Q345 496 345 509Q345 522 345 534V730H406V85Q406 69 408 54Q410 39 412.5 28Q415 17 417 10.5Q419 4 421 0ZM345 208V311Q345 346 339 376.5Q333 407 319 430.5Q305 454 283 467.5Q261 481 231 481Q199 481 176 465.5Q153 450 138.5 421.5Q124 393 117 353.5Q110 314 110 264Q110 213 117 173Q124 133 138.5 104.5Q153 76 176 61Q199 46 231 46Q259 46 280 57.5Q301 69 315.5 91Q330 113 337.5 142.5Q345 172 345 208Z" glyph-name="d" horiz-adv-x="482" unicode="d" /><glyph d="M240 -100H181V434Q176 438 171 441Q166 444 161 446Q156 448 151 449Q146 450 140 450Q126 450 116.5 445Q107 440 102.5 431Q98 422 96.5 411.5Q95 401 95 388H44Q44 415 49 436.5Q54 458 64 473.5Q74 489 91 497Q108 505 132 505Q140 505 146.5 504Q153 503 159 501Q165 499 170.5 496.5Q176 494 181 491V800H240V459Q245 455 250 452Q255 449 260 447Q265 445 270 444Q275 443 281 443Q295 443 304.5 448Q314 453 318.5 462Q323 471 324.5 481.5Q326 492 326 505H377Q377 478 372 456.5Q367 435 357 419.5Q347 404 330 396Q313 388 289 388Q281 388 274.5 389Q268 390 262 392Q256 394 250.5 396.5Q245 399 240 402Z" glyph-name="dagger" horiz-adv-x="420" unicode="&#8224;" /><glyph d="M241 -100H181V352Q176 356 171 359Q166 362 161 364Q156 366 151 367Q146 368 140 368Q126 368 116.5 363Q107 358 102.5 349Q98 340 96.5 329.5Q95 319 95 306H44Q44 333 49 354.5Q54 376 64 391.5Q74 407 91 415Q108 423 132 423Q140 423 146.5 422Q153 421 159 419Q165 417 170.5 414.5Q176 412 181 409V502Q176 506 171 509Q166 512 161 514Q156 516 151 517Q146 518 140 518Q126 518 116.5 513Q107 508 102.5 499Q98 490 96.5 479.5Q95 469 95 456H44Q44 483 49 504.5Q54 526 64 541.5Q74 557 91 565Q108 573 132 573Q140 573 146.5 572Q153 571 159 569Q165 567 170.5 564.5Q176 562 181 559V800H241V526Q246 522 250.5 519.5Q255 517 260 515Q265 513 270 512Q275 511 281 511Q295 511 304.5 516Q314 521 318.5 530Q323 539 324.5 549.5Q326 560 326 573H377Q377 546 372 524.5Q367 503 357 487.5Q347 472 330 464Q313 456 289 456Q281 456 274.5 457Q268 458 262.5 460Q257 462 252 464Q247 466 241 469V376Q246 372 250.5 369.5Q255 367 260 365Q265 363 270 362Q275 361 281 361Q295 361 304.5 366Q314 371 318.5 380Q323 389 324.5 399.5Q326 410 326 423H377Q377 396 372 374.5Q367 353 357 337.5Q347 322 330 314Q313 306 289 306Q281 306 274.5 307Q268 308 262.5 310Q257 312 252 314Q247 316 241 319Z" glyph-name="daggerdbl" horiz-adv-x="420" unicode="&#8225;" /><glyph d="M282 606Q282 579 273 557.5Q264 536 247 521Q230 506 207.5 498Q185 490 158 490Q131 490 108.5 498Q86 506 69.5 521Q53 536 44 557.5Q35 579 35 606Q35 632 44 654Q53 676 69.5 691.5Q86 707 108.5 715.5Q131 724 158 724Q185 724 207.5 715.5Q230 707 247 691.5Q264 676 273 654Q282 632 282 606ZM225 606Q225 621 220 633Q215 645 206 654Q197 663 184.5 667.5Q172 672 158 672Q143 672 131 667.5Q119 663 109.5 654Q100 645 95 633Q90 621 90 606Q90 591 95 579Q100 567 109.5 558Q119 549 131 544.5Q143 540 158 540Q172 540 184.5 544.5Q197 549 206 558Q215 567 220 579Q225 591 225 606Z" glyph-name="degree" horiz-adv-x="316" unicode="&#176;" /><glyph d="M84 764Q77 764 70.5 766.5Q64 769 59.5 773.5Q55 778 52.5 784.5Q50 791 50 798Q50 805 52.5 811.5Q55 818 59.5 822.5Q64 827 70.5 829.5Q77 832 84 832Q91 832 97.5 829.5Q104 827 109 822.5Q114 818 116.5 811.5Q119 805 119 798Q119 791 116.5 784.5Q114 778 109 773.5Q104 769 97.5 766.5Q91 764 84 764ZM229 764Q222 764 215.5 766.5Q209 769 204.5 773.5Q200 778 197.5 784.5Q195 791 195 798Q195 805 197.5 811.5Q200 818 204.5 822.5Q209 827 215.5 829.5Q222 832 229 832Q236 832 242.5 829.5Q249 827 254 822.5Q259 818 261.5 811.5Q264 805 264 798Q264 791 261.5 784.5Q259 778 254 773.5Q249 769 242.5 766.5Q236 764 229 764Z" glyph-name="dieresis" horiz-adv-x="317" unicode="&#168;" /><glyph d="M372 316H39V371H372ZM245 214Q245 207 242 200Q239 193 234 188Q229 183 222 180Q215 177 207 177Q200 177 193 180Q186 183 181 188Q176 193 173 200Q170 207 170 214Q170 222 173 229Q176 236 181 241Q186 246 193 249Q200 252 207 252Q215 252 222 249Q229 246 234 241Q239 236 242 229Q245 222 245 214ZM245 466Q245 459 242 452Q239 445 234 440Q229 435 222 432Q215 429 207 429Q200 429 193 432Q186 435 181 440Q176 445 173 452Q170 459 170 466Q170 474 173 481Q176 488 181 493Q186 498 193 501Q200 504 207 504Q215 504 222 501Q229 498 234 493Q239 488 242 481Q245 474 245 466Z" glyph-name="divide" horiz-adv-x="411" unicode="&#247;" /><glyph d="M224 -95H177L186 -2Q160 4 136.5 15.5Q113 27 93.5 42.5Q74 58 59 77.5Q44 97 34 119L87 152Q97 128 113.5 109Q130 90 151 76.5Q172 63 197 55.5Q222 48 250 48Q284 48 310.5 58Q337 68 354.5 86Q372 104 380.5 127Q389 150 389 176Q389 235 350 265Q311 295 227.5 334Q144 373 101 414.5Q58 456 58 532Q58 570 70.5 602.5Q83 635 107.5 659Q132 683 167 696.5Q202 710 245 710Q248 710 250 710Q252 710 254 710Q256 710 258.5 709.5Q261 709 263 709L275 813H323L311 701Q334 694 354 682.5Q374 671 390 655.5Q406 640 418.5 620.5Q431 601 440 578L386 549Q379 570 366.5 588.5Q354 607 336 621Q318 635 294.5 643Q271 651 243 651Q217 651 194 642Q171 633 154.5 617Q138 601 129 579.5Q120 558 120 534Q120 476 158.5 447Q197 418 280.5 379.5Q364 341 407 298.5Q450 256 450 178Q450 138 436.5 104Q423 70 397.5 44.5Q372 19 334.5 4.5Q297 -10 250 -10Q247 -10 245 -10Q243 -10 241 -10Q239 -10 237 -9.5Q235 -9 233 -9Z" glyph-name="dollar" horiz-adv-x="492" unicode="$" /><glyph d="M224 -95H176L185 -4Q163 1 142.5 9Q122 17 104 29Q86 41 71 56.5Q56 72 45 91L92 129Q103 109 119.5 93.5Q136 78 156 67Q176 56 198.5 50.5Q221 45 244 45Q269 45 289.5 51Q310 57 324.5 69Q339 81 347 98.5Q355 116 355 139Q355 183 321 204.5Q287 226 213.5 252.5Q140 279 102.5 309.5Q65 340 65 397Q65 426 76.5 451.5Q88 477 110 495.5Q132 514 162.5 524.5Q193 535 229 535H244L255 635H304L292 528Q307 524 321.5 517Q336 510 349 500.5Q362 491 374.5 478.5Q387 466 400 451L357 413Q344 431 330 444Q316 457 300.5 465.5Q285 474 267 478Q249 482 227 482Q206 482 188 476.5Q170 471 156 460Q142 449 134.5 433.5Q127 418 127 399Q127 360 158.5 342Q190 324 265.5 296Q341 268 379 235Q417 202 417 142Q417 105 405 76.5Q393 48 370 29Q347 10 314.5 0Q282 -10 241 -10H233Z" glyph-name="dollar.osf" horiz-adv-x="490" /><glyph d="M128 814Q128 807 125.5 800.5Q123 794 118 790Q113 786 106.5 783.5Q100 781 93 781Q86 781 79.5 783.5Q73 786 68.5 790Q64 794 61.5 800.5Q59 807 59 814Q59 821 61.5 827.5Q64 834 69 839Q74 844 80 846.5Q86 849 93 849Q100 849 106.5 846.5Q113 844 118 839Q123 834 125.5 827.5Q128 821 128 814Z" glyph-name="dotaccent" horiz-adv-x="187" unicode="&#729;" /><glyph d="M135 0H75V527H135Z" glyph-name="dotlessi" horiz-adv-x="210" unicode="&#305;" /><glyph d="M369 150 419 122Q406 89 389.5 64.5Q373 40 351 23.5Q329 7 301 -1.5Q273 -10 238 -10Q193 -10 158 8.5Q123 27 98.5 62.5Q74 98 61.5 148.5Q49 199 49 263Q49 326 61.5 377Q74 428 98.5 464Q123 500 158.5 518.5Q194 537 238 537Q289 537 324.5 517.5Q360 498 381.5 461.5Q403 425 413 375Q423 325 423 261V242H110Q111 196 120 159.5Q129 123 145.5 97.5Q162 72 186.5 58.5Q211 45 242 45Q266 45 285.5 51.5Q305 58 320 70.5Q335 83 347.5 103Q360 123 369 150ZM110 293H362Q361 339 353.5 374.5Q346 410 331.5 434.5Q317 459 294 471.5Q271 484 240 484Q210 484 187 471Q164 458 147.5 433Q131 408 121.5 372.5Q112 337 110 293Z" glyph-name="e" horiz-adv-x="468" unicode="e" /><glyph d="M369 150 419 122Q406 89 389.5 64.5Q373 40 351 23.5Q329 7 301 -1.5Q273 -10 238 -10Q193 -10 158 8.5Q123 27 98.5 62.5Q74 98 61.5 148.5Q49 199 49 263Q49 326 61.5 377Q74 428 98.5 464Q123 500 158.5 518.5Q194 537 238 537Q289 537 324.5 517.5Q360 498 381.5 461.5Q403 425 413 375Q423 325 423 261V242H110Q111 196 120 159.5Q129 123 145.5 97.5Q162 72 186.5 58.5Q211 45 242 45Q266 45 285.5 51.5Q305 58 320 70.5Q335 83 347.5 103Q360 123 369 150ZM110 293H362Q361 339 353.5 374.5Q346 410 331.5 434.5Q317 459 294 471.5Q271 484 240 484Q210 484 187 471Q164 458 147.5 433Q131 408 121.5 372.5Q112 337 110 293ZM357 671 141 580 121 623 333 723Z" glyph-name="eacute" horiz-adv-x="468" unicode="&#233;" /><glyph d="M369 150 419 122Q406 89 389.5 64.5Q373 40 351 23.5Q329 7 301 -1.5Q273 -10 238 -10Q193 -10 158 8.5Q123 27 98.5 62.5Q74 98 61.5 148.5Q49 199 49 263Q49 326 61.5 377Q74 428 98.5 464Q123 500 158.5 518.5Q194 537 238 537Q289 537 324.5 517.5Q360 498 381.5 461.5Q403 425 413 375Q423 325 423 261V242H110Q111 196 120 159.5Q129 123 145.5 97.5Q162 72 186.5 58.5Q211 45 242 45Q266 45 285.5 51.5Q305 58 320 70.5Q335 83 347.5 103Q360 123 369 150ZM110 293H362Q361 339 353.5 374.5Q346 410 331.5 434.5Q317 459 294 471.5Q271 484 240 484Q210 484 187 471Q164 458 147.5 433Q131 408 121.5 372.5Q112 337 110 293ZM335 605 287 654Q276 665 267 675Q258 685 252 692.5Q246 700 239 709H237Q237 709 232.5 703.5Q228 698 222 691Q216 684 207.5 674Q199 664 189 654L141 605L101 645L228 767H249L374 645Z" glyph-name="ecircumflex" horiz-adv-x="468" unicode="&#234;" /><glyph d="M369 150 419 122Q406 89 389.5 64.5Q373 40 351 23.5Q329 7 301 -1.5Q273 -10 238 -10Q193 -10 158 8.5Q123 27 98.5 62.5Q74 98 61.5 148.5Q49 199 49 263Q49 326 61.5 377Q74 428 98.5 464Q123 500 158.5 518.5Q194 537 238 537Q289 537 324.5 517.5Q360 498 381.5 461.5Q403 425 413 375Q423 325 423 261V242H110Q111 196 120 159.5Q129 123 145.5 97.5Q162 72 186.5 58.5Q211 45 242 45Q266 45 285.5 51.5Q305 58 320 70.5Q335 83 347.5 103Q360 123 369 150ZM110 293H362Q361 339 353.5 374.5Q346 410 331.5 434.5Q317 459 294 471.5Q271 484 240 484Q210 484 187 471Q164 458 147.5 433Q131 408 121.5 372.5Q112 337 110 293ZM160 611Q153 611 146.5 613.5Q140 616 135.5 620.5Q131 625 128.5 631.5Q126 638 126 645Q126 652 128.5 658.5Q131 665 135.5 669.5Q140 674 146.5 676.5Q153 679 160 679Q167 679 173.5 676.5Q180 674 185 669.5Q190 665 192.5 658.5Q195 652 195 645Q195 638 192.5 631.5Q190 625 185 620.5Q180 616 173.5 613.5Q167 611 160 611ZM305 611Q298 611 291.5 613.5Q285 616 280.5 620.5Q276 625 273.5 631.5Q271 638 271 645Q271 652 273.5 658.5Q276 665 280.5 669.5Q285 674 291.5 676.5Q298 679 305 679Q312 679 318.5 676.5Q325 674 330 669.5Q335 665 337.5 658.5Q340 652 340 645Q340 638 337.5 631.5Q335 625 330 620.5Q325 616 318.5 613.5Q312 611 305 611Z" glyph-name="edieresis" horiz-adv-x="468" unicode="&#235;" /><glyph d="M369 150 419 122Q406 89 389.5 64.5Q373 40 351 23.5Q329 7 301 -1.5Q273 -10 238 -10Q193 -10 158 8.5Q123 27 98.5 62.5Q74 98 61.5 148.5Q49 199 49 263Q49 326 61.5 377Q74 428 98.5 464Q123 500 158.5 518.5Q194 537 238 537Q289 537 324.5 517.5Q360 498 381.5 461.5Q403 425 413 375Q423 325 423 261V242H110Q111 196 120 159.5Q129 123 145.5 97.5Q162 72 186.5 58.5Q211 45 242 45Q266 45 285.5 51.5Q305 58 320 70.5Q335 83 347.5 103Q360 123 369 150ZM110 293H362Q361 339 353.5 374.5Q346 410 331.5 434.5Q317 459 294 471.5Q271 484 240 484Q210 484 187 471Q164 458 147.5 433Q131 408 121.5 372.5Q112 337 110 293ZM334 580 117 671 141 723 353 623Z" glyph-name="egrave" horiz-adv-x="468" unicode="&#232;" /><glyph d="M242 46Q275 46 301.5 59Q328 72 345.5 94Q363 116 372 144Q381 172 381 203Q381 230 372 257.5Q363 285 345 308Q327 331 301 344.5Q275 358 242 358Q209 358 182.5 344.5Q156 331 138.5 308Q121 285 112 257.5Q103 230 103 203Q103 172 112 144Q121 116 138.5 94Q156 72 182.5 59Q209 46 242 46ZM242 413Q268 413 288.5 423Q309 433 322.5 450Q336 467 343 488.5Q350 510 350 533Q350 559 343 581Q336 603 322.5 619Q309 635 288.5 644Q268 653 242 653Q216 653 195.5 644Q175 635 161 619Q147 603 140 581Q133 559 133 533Q133 510 140 489Q147 468 161 450.5Q175 433 195.5 423Q216 413 242 413ZM317 388V386Q346 376 369 357Q392 338 408 313.5Q424 289 432.5 261Q441 233 441 203Q441 162 428 123.5Q415 85 389.5 55Q364 25 326.5 7.5Q289 -10 242 -10Q195 -10 157.5 7.5Q120 25 94.5 55Q69 85 56 123.5Q43 162 43 203Q43 233 51 261Q59 289 74.5 314Q90 339 113.5 357.5Q137 376 166 386V388Q145 398 127.5 413Q110 428 98 447.5Q86 467 80 489.5Q74 512 74 535Q74 571 85.5 602.5Q97 634 118.5 658.5Q140 683 171.5 696.5Q203 710 242 710Q281 710 312.5 696.5Q344 683 365.5 658.5Q387 634 398.5 602.5Q410 571 410 535Q410 512 403.5 489.5Q397 467 385 447.5Q373 428 355.5 413Q338 398 317 388Z" glyph-name="eight" horiz-adv-x="484" unicode="8" /><glyph d="M384 176Q384 202 375.5 226.5Q367 251 349.5 270Q332 289 307 300.5Q282 312 250 312Q218 312 193 300.5Q168 289 150.5 270Q133 251 124.5 226.5Q116 202 116 176Q116 148 124.5 124.5Q133 101 150 83.5Q167 66 192 56Q217 46 250 46Q283 46 308 56Q333 66 350 83.5Q367 101 375.5 124.5Q384 148 384 176ZM250 361Q274 361 293 369Q312 377 324.5 391Q337 405 343 423.5Q349 442 349 463Q349 484 342 502Q335 520 322 533.5Q309 547 290.5 554.5Q272 562 250 562Q228 562 209.5 554.5Q191 547 177.5 534Q164 521 157 502.5Q150 484 150 463Q150 442 156.5 423.5Q163 405 175.5 391Q188 377 207 369Q226 361 250 361ZM314 341V339Q345 331 369.5 315Q394 299 410.5 277.5Q427 256 436 229.5Q445 203 445 173Q445 135 432 101.5Q419 68 394 43Q369 18 332.5 4Q296 -10 250 -10Q204 -10 167.5 4Q131 18 106 43Q81 68 68 101.5Q55 135 55 173Q55 203 64 229.5Q73 256 89.5 277.5Q106 299 130.5 315Q155 331 185 339V341Q163 348 145.5 360Q128 372 116 388.5Q104 405 98 425Q92 445 92 466Q92 497 103 524Q114 551 134.5 571.5Q155 592 184.5 603.5Q214 615 250 615Q285 615 314.5 603.5Q344 592 365 571.5Q386 551 397 524Q408 497 408 466Q408 445 402 425Q396 405 384 388.5Q372 372 354 360Q336 348 314 341Z" glyph-name="eight.osf" horiz-adv-x="499" /><glyph d="M130 28Q130 20 127 13Q124 6 118.5 1Q113 -4 106 -7Q99 -10 91 -10Q83 -10 76 -7Q69 -4 64 1Q59 6 56 13Q53 20 53 28Q53 36 56 43Q59 50 64 55.5Q69 61 76 64Q83 67 91 67Q99 67 106 64Q113 61 118.5 55.5Q124 50 127 43Q130 36 130 28ZM255 28Q255 20 252 13Q249 6 243.5 1Q238 -4 231 -7Q224 -10 216 -10Q208 -10 201 -7Q194 -4 189 1Q184 6 181 13Q178 20 178 28Q178 36 181 43Q184 50 189 55.5Q194 61 201 64Q208 67 216 67Q224 67 231 64Q238 61 243.5 55.5Q249 50 252 43Q255 36 255 28ZM375 28Q375 20 372 13Q369 6 363.5 1Q358 -4 351 -7Q344 -10 336 -10Q328 -10 321 -7Q314 -4 309 1Q304 6 301 13Q298 20 298 28Q298 36 301 43Q304 50 309 55.5Q314 61 321 64Q328 67 336 67Q344 67 351 64Q358 61 363.5 55.5Q369 50 372 43Q375 36 375 28Z" glyph-name="ellipsis" horiz-adv-x="429" unicode="&#8230;" /><glyph d="M573 316H39V371H573Z" glyph-name="emdash" horiz-adv-x="612" unicode="&#8212;" /><glyph d="M372 316H39V371H372Z" glyph-name="endash" horiz-adv-x="411" unicode="&#8211;" /><glyph d="M290 255H39V309H290ZM290 391H39V445H290Z" glyph-name="equal" horiz-adv-x="329" unicode="=" /><glyph d="M420 0H363Q358 16 356 26Q354 36 352 48Q350 60 350 73H348Q340 55 328 40Q316 25 300.5 14Q285 3 265 -3.5Q245 -10 221 -10Q180 -10 148 8.5Q116 27 94 62Q72 97 60.5 147.5Q49 198 49 261Q49 325 60.5 375Q72 425 94 460Q116 495 149 513.5Q182 532 225 532Q246 532 264 526.5Q282 521 297 510.5Q312 500 323.5 486Q335 472 344 455H346V536Q346 552 345 564.5Q344 577 342 588Q340 599 336 608.5Q332 618 326 628L267 574L244 599L301 656Q294 662 285 666.5Q276 671 266 674Q256 677 244.5 678.5Q233 680 220 680H208V737Q229 737 247.5 734.5Q266 732 283 727.5Q300 723 314.5 715.5Q329 708 341 698L406 762L436 730L369 668Q378 655 385 640Q392 625 396.5 607.5Q401 590 403 570Q405 550 405 528V85Q405 69 407 54Q409 39 411.5 28Q414 17 416 10.5Q418 4 420 0ZM345 203V307Q345 342 339 372Q333 402 319 426Q305 450 283 463.5Q261 477 231 477Q199 477 176 462Q153 447 138.5 418.5Q124 390 117 350.5Q110 311 110 261Q110 210 117 170.5Q124 131 138.5 103.5Q153 76 176 61Q199 46 231 46Q258 46 279.5 57.5Q301 69 315.5 90Q330 111 337.5 139.5Q345 168 345 203Z" glyph-name="eth" horiz-adv-x="481" unicode="&#240;" /><glyph d="M132 161H72V700H132ZM141 28Q141 20 138 13Q135 6 129.5 1Q124 -4 117 -7Q110 -10 102 -10Q94 -10 87 -7Q80 -4 75 1Q70 6 67 13Q64 20 64 28Q64 36 67 43Q70 50 75 55.5Q80 61 87 64Q94 67 102 67Q110 67 117 64Q124 61 129.5 55.5Q135 50 138 43Q141 36 141 28Z" glyph-name="exclam" horiz-adv-x="205" unicode="!" /><glyph d="M72 539H132V0H72ZM63 672Q63 680 66 687Q69 694 74.5 699Q80 704 87 707Q94 710 102 710Q110 710 117 707Q124 704 129 699Q134 694 137 687Q140 680 140 672Q140 664 137 657Q134 650 129 644.5Q124 639 117 636Q110 633 102 633Q94 633 87 636Q80 639 74.5 644.5Q69 650 66 657Q63 664 63 672Z" glyph-name="exclamdown" horiz-adv-x="205" unicode="&#161;" /><glyph d="M168 0H107V473H27V527H107V596Q107 631 114.5 658.5Q122 686 137 705Q152 724 175 734Q198 744 229 744Q242 744 255 742Q268 740 279 736.5Q290 733 299.5 728.5Q309 724 317 719L293 668Q287 673 279.5 676.5Q272 680 264.5 682.5Q257 685 249 686.5Q241 688 233 688Q217 688 205 682.5Q193 677 184.5 666.5Q176 656 172 639.5Q168 623 168 602V527H276V473H168Z" glyph-name="f" horiz-adv-x="297" unicode="f" /><glyph d="M168 0H107V473H27V527H107V596Q107 631 114.5 658.5Q122 686 137 705Q152 724 175 734Q198 744 229 744Q242 744 255 742Q268 740 279 736.5Q290 733 299.5 728.5Q309 724 317 719L293 668Q287 673 279.5 676.5Q272 680 264.5 682.5Q257 685 249 686.5Q241 688 233 688Q217 688 205 682.5Q193 677 184.5 666.5Q176 656 172 639.5Q168 623 168 602V527H276V473H168ZM431 638Q431 630 428 623Q425 616 419.5 611Q414 606 407 603Q400 600 392 600Q384 600 377 603Q370 606 365 611Q360 616 357 623Q354 630 354 638Q354 646 357 653Q360 660 365 665.5Q370 671 377 674Q384 677 392 677Q400 677 407 674Q414 671 419.5 665.5Q425 660 428 653Q431 646 431 638ZM422 0H362V527H422Z" glyph-name="fi" horiz-adv-x="496" unicode="&#64257;" /><glyph d="M47 153 104 179Q111 146 123.5 121.5Q136 97 154 80.5Q172 64 194 56Q216 48 241 48Q273 48 298 61.5Q323 75 339.5 98Q356 121 364.5 150Q373 179 373 209Q373 240 365 268.5Q357 297 340.5 319.5Q324 342 297.5 355Q271 368 235 368Q217 368 201.5 365Q186 362 173 356.5Q160 351 150 344.5Q140 338 131 330L78 354L109 700H383V638H162L138 399Q138 399 138.5 399Q139 399 139 398.5Q139 398 139.5 398Q140 398 140 398Q149 404 160 409Q171 414 183.5 417.5Q196 421 210.5 423.5Q225 426 240 426Q291 426 329 408Q367 390 390 359.5Q413 329 424 290.5Q435 252 435 210Q435 168 422 128.5Q409 89 384 57.5Q359 26 322.5 8Q286 -10 240 -10Q201 -10 168.5 3Q136 16 112 38.5Q88 61 72 90Q56 119 47 153Z" glyph-name="five" horiz-adv-x="483" unicode="5" /><glyph d="M42 33 96 65Q105 41 118.5 23Q132 5 149 -7Q166 -19 185.5 -25Q205 -31 228 -31Q260 -31 284.5 -20Q309 -9 325.5 10.5Q342 30 350.5 56Q359 82 359 112Q359 143 350 168.5Q341 194 323.5 213Q306 232 280.5 242.5Q255 253 222 253Q204 253 188 249.5Q172 246 159 240Q146 234 136 227.5Q126 221 116 213L63 240L95 526H369V465H147L125 287Q125 287 125.5 287Q126 287 126 286.5Q126 286 126.5 286Q127 286 127 286Q136 291 147 295.5Q158 300 170.5 303.5Q183 307 198 309Q213 311 229 311Q276 311 312.5 295.5Q349 280 373 252.5Q397 225 409 189.5Q421 154 421 114Q421 72 408 35Q395 -2 370 -30Q345 -58 309 -73.5Q273 -89 228 -89Q194 -89 164.5 -80Q135 -71 111.5 -54.5Q88 -38 71 -16Q54 6 42 33Z" glyph-name="five.osf" horiz-adv-x="466" /><glyph d="M168 0H107V473H27V527H107V596Q107 631 114.5 658.5Q122 686 137 705Q152 724 175 734Q198 744 229 744Q242 744 255 742Q268 740 279 736.5Q290 733 299.5 728.5Q309 724 317 719L293 668Q287 673 279.5 676.5Q272 680 264.5 682.5Q257 685 249 686.5Q241 688 233 688Q217 688 205 682.5Q193 677 184.5 666.5Q176 656 172 639.5Q168 623 168 602V527H276V473H168ZM445 0H384V730H445Z" glyph-name="fl" horiz-adv-x="515" unicode="&#64258;" /><glyph d="M412 332H277Q265 244 249 185Q233 126 205 82.5Q177 39 130.5 15.5Q84 -8 13 -8L17 49Q73 49 109.5 70.5Q146 92 166 129.5Q186 167 196.5 212.5Q207 258 218 332H85V370H223Q233 453 248 513.5Q263 574 288.5 617.5Q314 661 354 684.5Q394 708 451 708L447 650Q406 650 378 631.5Q350 613 332.5 578Q315 543 304 493Q293 443 283 370H412Z" glyph-name="florin" horiz-adv-x="467" unicode="&#402;" /><glyph d="M323 0H262V164H9L262 700H323V222H420V164H323ZM264 220V582H262Q262 582 259 574.5Q256 567 253 558.5Q250 550 245 539Q240 528 235 517L132 297Q127 285 120.5 272Q114 259 108.5 248.5Q103 238 95 222V220Z" glyph-name="four" horiz-adv-x="446" unicode="4" /><glyph d="M332 -80H271V76H18V77L271 540H332V134H429V76H332ZM273 132V443H271Q265 428 260.5 418Q256 408 250.5 396Q245 384 239 373L147 198Q140 185 133.5 173.5Q127 162 121.5 153.5Q116 145 109 134V132Z" glyph-name="four.osf" horiz-adv-x="450" /><glyph d="M64 0H10L373 700H428Z" glyph-name="fraction" horiz-adv-x="445" unicode="&#8260;" /><glyph d="M346 -18V30Q346 44 346 56Q346 68 346.5 77Q347 86 347 97H345Q337 79 326 63.5Q315 48 300 36.5Q285 25 265.5 18.5Q246 12 222 12Q181 12 148.5 30Q116 48 94 82Q72 116 60.5 165Q49 214 49 276Q49 338 60.5 387Q72 436 94.5 469.5Q117 503 150 520Q183 537 226 537Q247 537 265.5 531Q284 525 299.5 514Q315 503 327 488.5Q339 474 348 457H350Q351 470 353 483Q355 496 357.5 505.5Q360 515 364 527H423Q416 509 413.5 498Q411 487 409 472.5Q407 458 407 441V-12Q407 -59 396 -96.5Q385 -134 363 -160.5Q341 -187 310 -201Q279 -215 239 -215Q211 -215 186 -208Q161 -201 140 -187Q119 -173 102.5 -151.5Q86 -130 74 -101L126 -69Q133 -90 144 -106.5Q155 -123 169 -134Q183 -145 200.5 -150.5Q218 -156 237 -156Q265 -156 285.5 -146Q306 -136 319.5 -118Q333 -100 339.5 -74.5Q346 -49 346 -18ZM346 228V320Q346 353 339.5 382Q333 411 319 433.5Q305 456 283 468.5Q261 481 232 481Q200 481 177 467Q154 453 139.5 427Q125 401 118 363Q111 325 111 276Q111 227 117.5 188.5Q124 150 138.5 123.5Q153 97 175.5 83Q198 69 230 69Q258 69 279.5 80.5Q301 92 316 113.5Q331 135 338.5 164Q346 193 346 228Z" glyph-name="g" horiz-adv-x="484" unicode="g" /><glyph d="M131 0H70V523Q70 572 83 609.5Q96 647 120 672Q144 697 177 709.5Q210 722 250 722Q285 722 314 713Q343 704 364 686Q385 668 396 641.5Q407 615 407 581Q407 533 387 505Q367 477 326.5 451Q286 425 271 411Q256 397 256 370Q256 337 278 322.5Q300 308 357.5 282Q415 256 443.5 225.5Q472 195 472 139Q472 110 463 83.5Q454 57 435 36Q416 15 385 2.5Q354 -10 312 -10Q287 -10 265 -5.5Q243 -1 226 7Q209 15 196 25Q183 35 173 46L210 93Q216 84 225.5 75.5Q235 67 248 60.5Q261 54 277 50Q293 46 312 46Q336 46 355 52Q374 58 387 70Q400 82 407 98Q414 114 414 134Q414 175 387.5 196.5Q361 218 306.5 242.5Q252 267 224 293.5Q196 320 196 369Q196 409 215.5 432.5Q235 456 273 481Q311 506 329.5 526.5Q348 547 348 582Q348 603 340.5 619Q333 635 319.5 645.5Q306 656 288 661.5Q270 667 249 667Q221 667 199 657.5Q177 648 161.5 630Q146 612 138.5 586Q131 560 131 527Z" glyph-name="germandbls" horiz-adv-x="507" unicode="&#223;" /><glyph d="M232 735 15 826 39 878 251 778Z" glyph-name="grave" horiz-adv-x="263" unicode="`" /><glyph d="M77 553 280 366V345L77 158L40 202L155 307Q166 317 175.5 325Q185 333 192 339Q199 345 204 349Q209 353 211 354V356Q202 363 195 369Q188 375 177.5 384Q167 393 155 404L40 509Z" glyph-name="greater" horiz-adv-x="315" unicode="&gt;" /><glyph d="M215 177 34 328V380L215 531L253 489L140 400Q129 392 118.5 384Q108 376 99 369.5Q90 363 78 355V353Q78 353 85.5 347.5Q93 342 101 336.5Q109 331 119.5 323.5Q130 316 140 308L253 220ZM397 177 216 328V380L397 531L435 489L322 400Q311 392 300.5 384Q290 376 281 369.5Q272 363 260 355V353Q260 353 267.5 347.5Q275 342 283 336.5Q291 331 301.5 323.5Q312 316 322 308L435 220Z" glyph-name="guillemotleft" horiz-adv-x="480" unicode="&#171;" /><glyph d="M255 328 74 177 36 220 149 308Q159 316 169.5 323.5Q180 331 188 336.5Q196 342 203.5 347.5Q211 353 211 353V355Q199 363 190 369.5Q181 376 170.5 384Q160 392 149 400L36 489L74 531L255 380ZM438 328 257 177 219 220 332 308Q342 316 352.5 323.5Q363 331 371 336.5Q379 342 386.5 347.5Q394 353 394 353V355Q382 363 373 369.5Q364 376 353.5 384Q343 392 332 400L219 489L257 531L438 380Z" glyph-name="guillemotright" horiz-adv-x="480" unicode="&#187;" /><glyph d="M215 177 34 328V380L215 531L253 489L140 400Q129 392 118.5 384Q108 376 99 369.5Q90 363 78 355V353Q78 353 85.5 347.5Q93 342 101 336.5Q109 331 119.5 323.5Q130 316 140 308L253 220Z" glyph-name="guilsinglleft" horiz-adv-x="298" unicode="&#8249;" /><glyph d="M255 328 74 177 36 220 149 308Q159 316 169.5 323.5Q180 331 188 336.5Q196 342 203.5 347.5Q211 353 211 353V355Q199 363 190 369.5Q181 376 170.5 384Q160 392 149 400L36 489L74 531L255 380Z" glyph-name="guilsinglright" horiz-adv-x="305" unicode="&#8250;" /><glyph d="M426 0H366V324Q366 360 359 389Q352 418 338.5 438.5Q325 459 305 470.5Q285 482 258 482Q230 482 206.5 471Q183 460 166 439Q149 418 139.5 388.5Q130 359 130 324V0H70V730H130V518Q130 507 130 494.5Q130 482 129.5 471Q129 460 129 444H131Q142 466 156 483Q170 500 187 512Q204 524 224.5 530.5Q245 537 268 537Q313 537 343.5 520.5Q374 504 392 475Q410 446 418 408.5Q426 371 426 325Z" glyph-name="h" horiz-adv-x="491" unicode="h" /><glyph d="M107 752H57L92 904H152ZM200 752H151L185 904H246Z" glyph-name="hungarumlaut" horiz-adv-x="275" unicode="&#733;" /><glyph d="M252 316H39V371H252Z" glyph-name="hyphen" horiz-adv-x="291" unicode="-" /><glyph d="M134 0H73V527H134ZM142 647Q142 639 139 632Q136 625 130.5 620Q125 615 118 612Q111 609 103 609Q95 609 88 612Q81 615 76 620Q71 625 68 632Q65 639 65 647Q65 655 68 662Q71 669 76 674.5Q81 680 88 683Q95 686 103 686Q111 686 118 683Q125 680 130.5 674.5Q136 669 139 662Q142 655 142 647Z" glyph-name="i" horiz-adv-x="208" unicode="i" /><glyph d="M216 656 58 590 39 633 192 708ZM158 0H98V527H158Z" glyph-name="iacute" horiz-adv-x="244" unicode="&#237;" /><glyph d="M202 608 177 633Q167 643 158.5 652.5Q150 662 144 669Q138 676 131 685H130Q130 685 125.5 680Q121 675 115.5 668Q110 661 101.5 652Q93 643 84 633L59 607L20 645L121 741H141L240 646ZM158 0H98V527H158Z" glyph-name="icircumflex" horiz-adv-x="260" unicode="&#238;" /><glyph d="M95 645Q95 638 92.5 631.5Q90 625 85 620.5Q80 616 73.5 613.5Q67 611 60 611Q53 611 46.5 613.5Q40 616 35.5 620.5Q31 625 28.5 631.5Q26 638 26 645Q26 652 28.5 658.5Q31 665 35.5 669.5Q40 674 46.5 676.5Q53 679 60 679Q67 679 73.5 676.5Q80 674 85 669.5Q90 665 92.5 658.5Q95 652 95 645ZM200 645Q200 638 197.5 631.5Q195 625 190 620.5Q185 616 178.5 613.5Q172 611 165 611Q158 611 151.5 613.5Q145 616 140.5 620.5Q136 625 133.5 631.5Q131 638 131 645Q131 652 133.5 658.5Q136 665 140.5 669.5Q145 674 151.5 676.5Q158 679 165 679Q172 679 178.5 676.5Q185 674 190 669.5Q195 665 197.5 658.5Q200 652 200 645ZM140 0H80V527H140Z" glyph-name="idieresis" horiz-adv-x="224" unicode="&#239;" /><glyph d="M187 590 29 656 53 708 206 633ZM151 0H91V527H151Z" glyph-name="igrave" horiz-adv-x="244" unicode="&#236;" /><glyph d="M-72 -200 -52 -145Q-46 -148 -39.5 -150Q-33 -152 -26 -153Q-19 -154 -12 -154.5Q-5 -155 2 -155Q29 -155 48 -146.5Q67 -138 79.5 -120Q92 -102 98.5 -72Q105 -42 105 1V527H167V4Q167 -52 156 -93.5Q145 -135 124.5 -161.5Q104 -188 73.5 -200.5Q43 -213 3 -213Q-6 -213 -15.5 -212Q-25 -211 -34 -209.5Q-43 -208 -52.5 -205.5Q-62 -203 -72 -200ZM174 647Q174 639 171 632Q168 625 162.5 620Q157 615 150 612Q143 609 135 609Q127 609 120 612Q113 615 108 620Q103 625 100 632Q97 639 97 647Q97 655 100 662Q103 669 108 674.5Q113 680 120 683Q127 686 135 686Q143 686 150 683Q157 680 162.5 674.5Q168 669 171 662Q174 655 174 647Z" glyph-name="j" horiz-adv-x="240" unicode="j" /><glyph d="M436 0H365Q336 48 319 77Q302 106 282 139.5Q262 173 243 207Q224 241 207 273H205Q198 264 193 257Q188 250 181 241Q174 232 166 222L130 179V0H70V730H130V341Q130 330 130 317Q130 304 129.5 292.5Q129 281 129 264H131Q141 278 148 287Q155 296 163 307Q171 318 179 327L341 527H416L246 319Q263 291 294.5 237Q326 183 346.5 149Q367 115 390.5 76Q414 37 436 0Z" glyph-name="k" horiz-adv-x="464" unicode="k" /><glyph d="M131 0H70V730H131Z" glyph-name="l" horiz-adv-x="201" unicode="l" /><glyph d="M230 157 27 344V365L230 552L267 508L152 403Q141 393 131.5 385Q122 377 115 371Q108 365 103 361Q98 357 96 356V354Q105 347 112 341Q119 335 129.5 326Q140 317 152 306L267 201Z" glyph-name="less" horiz-adv-x="315" unicode="&lt;" /><glyph d="M271 210 173 307 77 211 39 249 136 345 38 442 78 482 175 384 272 481 310 443 212 347 310 249Z" glyph-name="logicalnot" horiz-adv-x="349" unicode="&#172;" /><glyph d="M156 0H95V268L27 238L13 273L95 309V730H156V335L223 364L237 329L156 294Z" glyph-name="lslash" horiz-adv-x="251" unicode="&#322;" /><glyph d="M668 0H607V330Q607 369 602 397Q597 425 586 443Q575 461 558.5 470Q542 479 518 479Q492 479 470.5 469Q449 459 434 439Q419 419 410.5 388.5Q402 358 402 318V0H341V330Q341 369 336 397Q331 425 320 443Q309 461 292.5 470Q276 479 252 479Q227 479 205.5 469.5Q184 460 168.5 441Q153 422 144.5 392.5Q136 363 136 325V0H75V441Q75 458 73 472.5Q71 487 68.5 498.5Q66 510 64 517Q62 524 60 527H118Q122 513 124.5 502Q127 491 129 476.5Q131 462 132 447H134Q144 470 157.5 487Q171 504 186.5 514.5Q202 525 220.5 530Q239 535 261 535Q288 535 309.5 528Q331 521 347 507.5Q363 494 373.5 475Q384 456 390 433H392Q401 459 414.5 479Q428 499 445 511.5Q462 524 482.5 530.5Q503 537 527 537Q569 537 597 521.5Q625 506 640.5 478.5Q656 451 662 415Q668 379 668 332Z" glyph-name="m" horiz-adv-x="732" unicode="m" /><glyph d="M252 826H39V881H252Z" glyph-name="macron" horiz-adv-x="291" unicode="&#175;" /><glyph d="M252 316H39V371H252Z" glyph-name="minus" horiz-adv-x="291" unicode="&#8722;" /><glyph d="M269 212 173 307 79 213 42 251 136 345 41 440 80 480 175 384 269 479 307 441 212 347 308 252Z" glyph-name="multiply" horiz-adv-x="349" unicode="&#215;" /><glyph d="M432 0H371V310Q371 351 365.5 382Q360 413 347.5 435.5Q335 458 314 470Q293 482 263 482Q232 482 207.5 468.5Q183 455 167.5 430.5Q152 406 144 374Q136 342 136 304V0H75V441Q75 458 73 472.5Q71 487 68.5 498.5Q66 510 64 517Q62 524 60 527H118Q123 511 125.5 499Q128 487 130 471.5Q132 456 132 440H134Q145 463 159 481Q173 499 190.5 511.5Q208 524 229 530.5Q250 537 274 537Q319 537 349.5 520.5Q380 504 398 475Q416 446 424 408.5Q432 371 432 325Z" glyph-name="n" horiz-adv-x="499" unicode="n" /><glyph d="M387 379H385Q375 356 361 337Q347 318 328 304Q309 290 285 282.5Q261 275 234 275Q188 275 152 292Q116 309 92.5 338.5Q69 368 57 405Q45 442 45 483Q45 526 58 566.5Q71 607 96 639.5Q121 672 158 691Q195 710 242 710Q300 710 340 682.5Q380 655 403 606Q426 557 436 492.5Q446 428 446 348Q446 270 435 205.5Q424 141 400 92.5Q376 44 337 17Q298 -10 243 -10Q209 -10 182 -1Q155 8 134.5 25.5Q114 43 98.5 67.5Q83 92 72 123Q78 127 85 130.5Q92 134 98.5 137Q105 140 111 143.5Q117 147 126 151Q135 126 145.5 107.5Q156 89 170 75Q184 61 202.5 54Q221 47 243 47Q283 47 310.5 69.5Q338 92 354.5 134.5Q371 177 378.5 237.5Q386 298 387 379ZM239 330Q271 330 296 341Q321 352 338 373Q355 394 364 423Q373 452 373 487Q373 523 363.5 553.5Q354 584 336.5 606Q319 628 295 639.5Q271 651 242 651Q210 651 184.5 637.5Q159 624 141.5 600.5Q124 577 115.5 547.5Q107 518 107 487Q107 456 115.5 428Q124 400 140.5 378Q157 356 182 343Q207 330 239 330Z" glyph-name="nine" horiz-adv-x="499" unicode="9" /><glyph d="M238 189Q271 189 296 200.5Q321 212 336.5 232Q352 252 359.5 277.5Q367 303 367 331Q367 366 357 393.5Q347 421 329 440.5Q311 460 288 470Q265 480 239 480Q208 480 183.5 469Q159 458 142.5 438Q126 418 117.5 391Q109 364 109 332Q109 301 117.5 275Q126 249 143 229.5Q160 210 184 199.5Q208 189 238 189ZM382 245H380Q373 220 360.5 200Q348 180 330 165Q312 150 287 141.5Q262 133 232 133Q188 133 153 148.5Q118 164 94.5 191.5Q71 219 59.5 255Q48 291 48 332Q48 373 60 410Q72 447 96 475.5Q120 504 156.5 520.5Q193 537 240 537Q292 537 330.5 514.5Q369 492 393 450.5Q417 409 428.5 351Q440 293 440 221Q440 149 427 92Q414 35 388 -5Q362 -45 322.5 -66.5Q283 -88 231 -88Q204 -88 181.5 -83Q159 -78 140 -68Q121 -58 104 -44.5Q87 -31 70 -12L110 33Q121 18 133.5 6Q146 -6 161 -14Q176 -22 194.5 -26Q213 -30 234 -30Q281 -30 311 -4.5Q341 21 356 62Q371 103 376.5 149Q382 195 382 245Z" glyph-name="nine.osf" horiz-adv-x="495" /><glyph d="M290 255H145L109 180H65L102 255H39V309H125L164 391H39V445H187L222 515H264L231 445H290V391H207L168 309H290Z" glyph-name="notequal" horiz-adv-x="330" unicode="&#8800;" /><glyph d="M432 0H371V310Q371 351 365.5 382Q360 413 347.5 435.5Q335 458 314 470Q293 482 263 482Q232 482 207.5 468.5Q183 455 167.5 430.5Q152 406 144 374Q136 342 136 304V0H75V441Q75 458 73 472.5Q71 487 68.5 498.5Q66 510 64 517Q62 524 60 527H118Q123 511 125.5 499Q128 487 130 471.5Q132 456 132 440H134Q145 463 159 481Q173 499 190.5 511.5Q208 524 229 530.5Q250 537 274 537Q319 537 349.5 520.5Q380 504 398 475Q416 446 424 408.5Q432 371 432 325ZM366 729H413Q413 702 408.5 681.5Q404 661 393.5 646Q383 631 366 623Q349 615 324 615Q303 615 286 624Q269 633 249 650.5Q229 668 218 675Q207 682 194 682Q181 682 173 676.5Q165 671 160.5 662.5Q156 654 154.5 643.5Q153 633 153 621H105Q105 647 110 668Q115 689 125.5 703.5Q136 718 153 726Q170 734 194 734Q215 734 231.5 725Q248 716 268.5 698.5Q289 681 300 673.5Q311 666 324 666Q336 666 344.5 671.5Q353 677 357.5 686.5Q362 696 364 707Q366 718 366 729Z" glyph-name="ntilde" horiz-adv-x="499" unicode="&#241;" /><glyph d="M548 275H396L361 108H301L336 275H219L184 108H124L159 275H21L25 324H169L198 460H58L63 509H208L241 665H300L268 509H385L418 665H477L445 509H590L585 460H435L406 324H552ZM346 324 375 460H258L229 324Z" glyph-name="numbersign" horiz-adv-x="611" unicode="#" /><glyph d="M237 46Q269 46 293 61Q317 76 333 104.5Q349 133 356.5 173.5Q364 214 364 264Q364 314 356.5 354Q349 394 333 423Q317 452 293 467Q269 482 237 482Q205 482 181.5 467Q158 452 142 423Q126 394 118.5 354Q111 314 111 264Q111 214 118.5 174Q126 134 142 105.5Q158 77 181.5 61.5Q205 46 237 46ZM237 -10Q191 -10 156 8.5Q121 27 97 62.5Q73 98 61 149Q49 200 49 264Q49 328 61 378.5Q73 429 97 464.5Q121 500 156 518.5Q191 537 237 537Q283 537 318.5 518.5Q354 500 378 464.5Q402 429 414 378.5Q426 328 426 264Q426 200 414 149Q402 98 378 62.5Q354 27 318.5 8.5Q283 -10 237 -10Z" glyph-name="o" horiz-adv-x="475" unicode="o" /><glyph d="M237 46Q269 46 293 61Q317 76 333 104.5Q349 133 356.5 173.5Q364 214 364 264Q364 314 356.5 354Q349 394 333 423Q317 452 293 467Q269 482 237 482Q205 482 181.5 467Q158 452 142 423Q126 394 118.5 354Q111 314 111 264Q111 214 118.5 174Q126 134 142 105.5Q158 77 181.5 61.5Q205 46 237 46ZM237 -10Q191 -10 156 8.5Q121 27 97 62.5Q73 98 61 149Q49 200 49 264Q49 328 61 378.5Q73 429 97 464.5Q121 500 156 518.5Q191 537 237 537Q283 537 318.5 518.5Q354 500 378 464.5Q402 429 414 378.5Q426 328 426 264Q426 200 414 149Q402 98 378 62.5Q354 27 318.5 8.5Q283 -10 237 -10ZM349 678 133 587 113 630 325 730Z" glyph-name="oacute" horiz-adv-x="475" unicode="&#243;" /><glyph d="M237 46Q269 46 293 61Q317 76 333 104.5Q349 133 356.5 173.5Q364 214 364 264Q364 314 356.5 354Q349 394 333 423Q317 452 293 467Q269 482 237 482Q205 482 181.5 467Q158 452 142 423Q126 394 118.5 354Q111 314 111 264Q111 214 118.5 174Q126 134 142 105.5Q158 77 181.5 61.5Q205 46 237 46ZM237 -10Q191 -10 156 8.5Q121 27 97 62.5Q73 98 61 149Q49 200 49 264Q49 328 61 378.5Q73 429 97 464.5Q121 500 156 518.5Q191 537 237 537Q283 537 318.5 518.5Q354 500 378 464.5Q402 429 414 378.5Q426 328 426 264Q426 200 414 149Q402 98 378 62.5Q354 27 318.5 8.5Q283 -10 237 -10ZM336 605 288 654Q277 665 268 675Q259 685 253 692.5Q247 700 240 709H238Q238 709 233.5 703.5Q229 698 223 691Q217 684 208.5 674Q200 664 190 654L142 605L102 645L229 767H250L375 645Z" glyph-name="ocircumflex" horiz-adv-x="475" unicode="&#244;" /><glyph d="M237 46Q269 46 293 61Q317 76 333 104.5Q349 133 356.5 173.5Q364 214 364 264Q364 314 356.5 354Q349 394 333 423Q317 452 293 467Q269 482 237 482Q205 482 181.5 467Q158 452 142 423Q126 394 118.5 354Q111 314 111 264Q111 214 118.5 174Q126 134 142 105.5Q158 77 181.5 61.5Q205 46 237 46ZM237 -10Q191 -10 156 8.5Q121 27 97 62.5Q73 98 61 149Q49 200 49 264Q49 328 61 378.5Q73 429 97 464.5Q121 500 156 518.5Q191 537 237 537Q283 537 318.5 518.5Q354 500 378 464.5Q402 429 414 378.5Q426 328 426 264Q426 200 414 149Q402 98 378 62.5Q354 27 318.5 8.5Q283 -10 237 -10ZM165 611Q158 611 151.5 613.5Q145 616 140.5 620.5Q136 625 133.5 631.5Q131 638 131 645Q131 652 133.5 658.5Q136 665 140.5 669.5Q145 674 151.5 676.5Q158 679 165 679Q172 679 178.5 676.5Q185 674 190 669.5Q195 665 197.5 658.5Q200 652 200 645Q200 638 197.5 631.5Q195 625 190 620.5Q185 616 178.5 613.5Q172 611 165 611ZM310 611Q303 611 296.5 613.5Q290 616 285.5 620.5Q281 625 278.5 631.5Q276 638 276 645Q276 652 278.5 658.5Q281 665 285.5 669.5Q290 674 296.5 676.5Q303 679 310 679Q317 679 323.5 676.5Q330 674 335 669.5Q340 665 342.5 658.5Q345 652 345 645Q345 638 342.5 631.5Q340 625 335 620.5Q330 616 323.5 613.5Q317 611 310 611Z" glyph-name="odieresis" horiz-adv-x="475" unicode="&#246;" /><glyph d="M683 150 734 122Q721 88 705 64Q689 40 668.5 23.5Q648 7 621.5 -1.5Q595 -10 561 -10Q527 -10 499.5 2.5Q472 15 451 39Q430 63 416 97Q402 131 395 173H393Q386 130 373 96Q360 62 340 38.5Q320 15 293 2.5Q266 -10 232 -10Q189 -10 155 8.5Q121 27 97 62.5Q73 98 61 149Q49 200 49 263Q49 327 61 378Q73 429 97 464.5Q121 500 155 518.5Q189 537 232 537Q266 537 293 524.5Q320 512 340 488.5Q360 465 373.5 431.5Q387 398 394 356H396Q403 399 416.5 432.5Q430 466 451 489.5Q472 513 499.5 525Q527 537 561 537Q609 537 643 516.5Q677 496 698 458.5Q719 421 728.5 370.5Q738 320 738 258H425V255Q425 210 434.5 171.5Q444 133 461.5 105.5Q479 78 502.5 63Q526 48 555 48Q579 48 598 53.5Q617 59 633 71Q649 83 661.5 102.5Q674 122 683 150ZM237 46Q269 46 293 61Q317 76 333 104.5Q349 133 356.5 173Q364 213 364 263Q364 313 356.5 353Q349 393 333 422Q317 451 293 466Q269 481 237 481Q205 481 181 466Q157 451 141.5 422Q126 393 118 353Q110 313 110 263Q110 214 118 174Q126 134 141.5 105.5Q157 77 181 61.5Q205 46 237 46ZM426 308H677Q675 351 667 383.5Q659 416 644.5 438.5Q630 461 607.5 472.5Q585 484 555 484Q527 484 504 472Q481 460 464.5 437Q448 414 438.5 381.5Q429 349 426 308Z" glyph-name="oe" horiz-adv-x="783" unicode="&#339;" /><glyph d="M200 -142 217 -198Q211 -201 205 -203Q199 -205 192.5 -206.5Q186 -208 180 -208.5Q174 -209 168 -209Q143 -209 122.5 -199Q102 -189 88 -172Q74 -155 67 -133.5Q60 -112 60 -88Q60 -67 66 -47Q72 -27 83.5 -9Q95 9 113 22.5Q131 36 155 44L172 0Q158 -4 147.5 -13Q137 -22 130 -33.5Q123 -45 119.5 -58Q116 -71 116 -84Q116 -98 119.5 -109.5Q123 -121 130.5 -130Q138 -139 148.5 -144Q159 -149 173 -149Q177 -149 180.5 -148.5Q184 -148 187 -147.5Q190 -147 193.5 -145.5Q197 -144 200 -142Z" glyph-name="ogonek" horiz-adv-x="281" unicode="&#731;" /><glyph d="M237 46Q269 46 293 61Q317 76 333 104.5Q349 133 356.5 173.5Q364 214 364 264Q364 314 356.5 354Q349 394 333 423Q317 452 293 467Q269 482 237 482Q205 482 181.5 467Q158 452 142 423Q126 394 118.5 354Q111 314 111 264Q111 214 118.5 174Q126 134 142 105.5Q158 77 181.5 61.5Q205 46 237 46ZM237 -10Q191 -10 156 8.5Q121 27 97 62.5Q73 98 61 149Q49 200 49 264Q49 328 61 378.5Q73 429 97 464.5Q121 500 156 518.5Q191 537 237 537Q283 537 318.5 518.5Q354 500 378 464.5Q402 429 414 378.5Q426 328 426 264Q426 200 414 149Q402 98 378 62.5Q354 27 318.5 8.5Q283 -10 237 -10ZM338 580 121 671 145 723 357 623Z" glyph-name="ograve" horiz-adv-x="475" unicode="&#242;" /><glyph d="M174 0H113V642H49V700H174Z" glyph-name="one" horiz-adv-x="270" unicode="1" /><glyph d="M161 0H99V469H27V527H161Z" glyph-name="one.osf" horiz-adv-x="246" /><glyph d="M71 0H17L380 700H435ZM137 385H88V653H54V700H137ZM448 0H251V2L374 167Q381 177 386 184.5Q391 192 394.5 199.5Q398 207 399.5 215Q401 223 401 232Q401 242 398 250.5Q395 259 389.5 265Q384 271 376 274.5Q368 278 358 278Q345 278 335 272.5Q325 267 318 258Q311 249 307 237Q303 225 301 213L254 231Q259 250 267.5 266.5Q276 283 288.5 296.5Q301 310 318.5 317.5Q336 325 359 325Q381 325 398.5 317.5Q416 310 428 297.5Q440 285 446 268Q452 251 452 232Q452 221 450 210.5Q448 200 443.5 189.5Q439 179 433 169Q427 159 419 148Q403 127 388.5 108.5Q374 90 363.5 77Q353 64 339 48V45H448Z" glyph-name="onehalf" horiz-adv-x="503" unicode="&#189;" /><glyph d="M396 0H347V64H223L350 316H396V111H437V64H396ZM352 107V241H349Q341 219 333 199.5Q325 180 316.5 164Q308 148 300 134.5Q292 121 284 109V107ZM74 0H20L383 700H438ZM139 385H90V653H56V700H139Z" glyph-name="onequarter" horiz-adv-x="476" unicode="&#188;" /><glyph d="M118 385H69V653H35V700H118Z" glyph-name="onesuperior" horiz-adv-x="168" unicode="&#185;" /><glyph d="M242 383H192L177 444H87L72 383H23L111 700H153ZM168 482 150 559Q146 577 142.5 592.5Q139 608 136.5 619Q134 630 133 636Q132 642 133 642H131Q129 628 127 617Q125 606 122 591Q119 576 115 559L96 482Z" glyph-name="ordfeminine" horiz-adv-x="262" unicode="&#170;" /><glyph d="M135 370Q106 370 84.5 382Q63 394 49.5 417Q36 440 29.5 471Q23 502 23 540Q23 578 29.5 609Q36 640 49.5 663Q63 686 84.5 698Q106 710 135 710Q164 710 185.5 698Q207 686 221 663Q235 640 241.5 609Q248 578 248 540Q248 502 241.5 471Q235 440 221 417Q207 394 185.5 382Q164 370 135 370ZM135 413Q152 413 164 422Q176 431 184 447.5Q192 464 195.5 487.5Q199 511 199 540Q199 569 195.5 592Q192 615 184 631.5Q176 648 164 657Q152 666 135 666Q118 666 106 657Q94 648 86.5 631.5Q79 615 75.5 592Q72 569 72 540Q72 511 75.5 487.5Q79 464 86.5 447.5Q94 431 106 422Q118 413 135 413Z" glyph-name="ordmasculine" horiz-adv-x="272" unicode="&#186;" /><glyph d="M266 -10Q220 -10 185 8.5Q150 27 126 62.5Q102 98 90 149Q78 200 78 264Q78 328 90 378.5Q102 429 126 464.5Q150 500 185 518.5Q220 537 266 537Q312 537 347 518.5Q382 500 406 464.5Q430 429 442 378.5Q454 328 454 264Q454 200 442 149Q430 98 406 62.5Q382 27 347 8.5Q312 -10 266 -10ZM358 427 199 69Q206 63 213.5 59Q221 55 229.5 52Q238 49 247 47.5Q256 46 266 46Q298 46 322 61Q346 76 361.5 104.5Q377 133 384.5 173Q392 213 392 264Q392 290 390 313.5Q388 337 383.5 357.5Q379 378 373 395.5Q367 413 358 427ZM173 102 331 459Q325 464 317.5 468.5Q310 473 302 476Q294 479 285 480.5Q276 482 266 482Q234 482 210 467Q186 452 170.5 423Q155 394 147 354Q139 314 139 264Q139 238 141 215Q143 192 147.5 171.5Q152 151 158 133.5Q164 116 173 102Z" glyph-name="oslash" horiz-adv-x="533" unicode="&#248;" /><glyph d="M237 46Q269 46 293 61Q317 76 333 104.5Q349 133 356.5 173.5Q364 214 364 264Q364 314 356.5 354Q349 394 333 423Q317 452 293 467Q269 482 237 482Q205 482 181.5 467Q158 452 142 423Q126 394 118.5 354Q111 314 111 264Q111 214 118.5 174Q126 134 142 105.5Q158 77 181.5 61.5Q205 46 237 46ZM237 -10Q191 -10 156 8.5Q121 27 97 62.5Q73 98 61 149Q49 200 49 264Q49 328 61 378.5Q73 429 97 464.5Q121 500 156 518.5Q191 537 237 537Q283 537 318.5 518.5Q354 500 378 464.5Q402 429 414 378.5Q426 328 426 264Q426 200 414 149Q402 98 378 62.5Q354 27 318.5 8.5Q283 -10 237 -10ZM337 729H384Q384 702 379.5 681.5Q375 661 364.5 646Q354 631 337 623Q320 615 295 615Q274 615 257 624Q240 633 220 650.5Q200 668 189 675Q178 682 165 682Q152 682 144 676.5Q136 671 131.5 662.5Q127 654 125.5 643.5Q124 633 124 621H76Q76 647 81 668Q86 689 96.5 703.5Q107 718 124 726Q141 734 165 734Q186 734 202.5 725Q219 716 239.5 698.5Q260 681 271 673.5Q282 666 295 666Q307 666 315.5 671.5Q324 677 328.5 686.5Q333 696 335 707Q337 718 337 729Z" glyph-name="otilde" horiz-adv-x="475" unicode="&#245;" /><glyph d="M136 -200H75V441Q75 458 73 472.5Q71 487 68.5 498.5Q66 510 64 517Q62 524 60 527H118Q122 513 124.5 503Q127 493 129 480.5Q131 468 132 455H134Q143 472 154.5 486.5Q166 501 181 512.5Q196 524 216 530.5Q236 537 259 537Q300 537 332 518Q364 499 386.5 463Q409 427 420.5 376Q432 325 432 261Q432 198 421 148Q410 98 389 62.5Q368 27 336 8.5Q304 -10 263 -10Q240 -10 221 -4.5Q202 1 186.5 11.5Q171 22 159 36.5Q147 51 137 70H135Q135 56 135.5 46Q136 36 136 22.5Q136 9 136 -4ZM136 314V213Q136 178 142.5 148Q149 118 162.5 94.5Q176 71 198 58Q220 45 250 45Q282 45 305 60Q328 75 342.5 103.5Q357 132 364 171.5Q371 211 371 262Q371 312 364 352Q357 392 342.5 420.5Q328 449 305.5 464.5Q283 480 251 480Q222 480 200 468Q178 456 164 433.5Q150 411 143 381Q136 351 136 314Z" glyph-name="p" horiz-adv-x="482" unicode="p" /><glyph d="M411 0H371V700H411ZM341 0H283V195H280Q221 195 174.5 216.5Q128 238 96.5 274.5Q65 311 49.5 356.5Q34 402 34 450Q34 498 47 542Q60 586 88 622Q116 658 159 679Q202 700 259 700H341Z" glyph-name="paragraph" horiz-adv-x="480" unicode="&#182;" /><glyph d="M187 -61 141 -92Q121 -61 103.5 -20.5Q86 20 72.5 74Q59 128 51 198Q43 268 43 351Q43 434 51 503Q59 572 72.5 626.5Q86 681 103.5 721Q121 761 141 792L187 761Q167 733 151.5 694Q136 655 124.5 604Q113 553 107 489.5Q101 426 101 351Q101 276 107 212Q113 148 124.5 97Q136 46 151.5 6.5Q167 -33 187 -61Z" glyph-name="parenleft" horiz-adv-x="219" unicode="(" /><glyph d="M70 -92 24 -61Q44 -33 59.5 6.5Q75 46 86.5 97Q98 148 104 212Q110 276 110 351Q110 426 104 489.5Q98 553 86.5 604Q75 655 59.5 694Q44 733 24 761L70 792Q90 761 107.5 721Q125 681 138.5 626.5Q152 572 160 503Q168 434 168 351Q168 268 160 198Q152 128 138.5 74Q125 20 107.5 -20.5Q90 -61 70 -92Z" glyph-name="parenright" horiz-adv-x="217" unicode=")" /><glyph d="M140 0H80L473 700H533ZM165 366Q133 366 109.5 378.5Q86 391 71 414Q56 437 49 468.5Q42 500 42 538Q42 576 49 607.5Q56 639 71 662Q86 685 109.5 697.5Q133 710 165 710Q197 710 220.5 697.5Q244 685 259 662Q274 639 281 607.5Q288 576 288 538Q288 500 281 468.5Q274 437 259 414Q244 391 220.5 378.5Q197 366 165 366ZM165 414Q183 414 196.5 423Q210 432 218.5 449Q227 466 231 488.5Q235 511 235 538Q235 565 231 587.5Q227 610 218.5 626.5Q210 643 196.5 652Q183 661 165 661Q147 661 134 652Q121 643 112.5 626.5Q104 610 100 587.5Q96 565 96 538Q96 511 100 488.5Q104 466 112.5 449Q121 432 134 423Q147 414 165 414ZM448 -10Q416 -10 392.5 2.5Q369 15 354 38Q339 61 332 92.5Q325 124 325 162Q325 200 332 231.5Q339 263 354 286Q369 309 392.5 321.5Q416 334 448 334Q480 334 503.5 321.5Q527 309 542 286Q557 263 564 231.5Q571 200 571 162Q571 124 564 92.5Q557 61 542 38Q527 15 503.5 2.5Q480 -10 448 -10ZM448 39Q466 39 479.5 48Q493 57 501.5 73.5Q510 90 514 112.5Q518 135 518 162Q518 189 514 211.5Q510 234 501.5 250.5Q493 267 479.5 276Q466 285 448 285Q430 285 416.5 276Q403 267 395 250.5Q387 234 383 211.5Q379 189 379 162Q379 135 383 112.5Q387 90 395 73.5Q403 57 416.5 48Q430 39 448 39Z" glyph-name="percent" horiz-adv-x="614" unicode="%" /><glyph d="M130 28Q130 20 127 13Q124 6 118.5 1Q113 -4 106 -7Q99 -10 91 -10Q83 -10 76 -7Q69 -4 64 1Q59 6 56 13Q53 20 53 28Q53 36 56 43Q59 50 64 55.5Q69 61 76 64Q83 67 91 67Q99 67 106 64Q113 61 118.5 55.5Q124 50 127 43Q130 36 130 28Z" glyph-name="period" horiz-adv-x="183" unicode="." /><glyph d="M129 301Q129 293 126 286Q123 279 117.5 274Q112 269 105 266Q98 263 90 263Q82 263 75 266Q68 269 63 274Q58 279 55 286Q52 293 52 301Q52 309 55 316Q58 323 63 328.5Q68 334 75 337Q82 340 90 340Q98 340 105 337Q112 334 117.5 328.5Q123 323 126 316Q129 309 129 301Z" glyph-name="periodcentered" horiz-adv-x="180" unicode="&#183;" /><glyph d="M732 -10Q700 -10 676.5 2.5Q653 15 638 38Q623 61 616 92.5Q609 124 609 162Q609 200 616 231.5Q623 263 638 286Q653 309 676.5 321.5Q700 334 732 334Q764 334 787.5 321.5Q811 309 826 286Q841 263 848 231.5Q855 200 855 162Q855 124 848 92.5Q841 61 826 38Q811 15 787.5 2.5Q764 -10 732 -10ZM732 39Q750 39 763 48Q776 57 784.5 73.5Q793 90 797 112.5Q801 135 801 162Q801 189 797 211.5Q793 234 784.5 250.5Q776 267 763 276Q750 285 732 285Q714 285 700.5 276Q687 267 679 250.5Q671 234 667 211.5Q663 189 663 162Q663 135 667 112.5Q671 90 679 73.5Q687 57 700.5 48Q714 39 732 39ZM140 0H80L473 700H533ZM165 366Q133 366 109.5 378.5Q86 391 71 414Q56 437 49 468.5Q42 500 42 538Q42 576 49 607.5Q56 639 71 662Q86 685 109.5 697.5Q133 710 165 710Q197 710 220.5 697.5Q244 685 259 662Q274 639 281 607.5Q288 576 288 538Q288 500 281 468.5Q274 437 259 414Q244 391 220.5 378.5Q197 366 165 366ZM165 414Q183 414 196.5 423Q210 432 218.5 449Q227 466 231 488.5Q235 511 235 538Q235 565 231 587.5Q227 610 218.5 626.5Q210 643 196.5 652Q183 661 165 661Q147 661 134 652Q121 643 112.5 626.5Q104 610 100 587.5Q96 565 96 538Q96 511 100 488.5Q104 466 112.5 449Q121 432 134 423Q147 414 165 414ZM448 -10Q416 -10 392.5 2.5Q369 15 354 38Q339 61 332 92.5Q325 124 325 162Q325 200 332 231.5Q339 263 354 286Q369 309 392.5 321.5Q416 334 448 334Q480 334 503.5 321.5Q527 309 542 286Q557 263 564 231.5Q571 200 571 162Q571 124 564 92.5Q557 61 542 38Q527 15 503.5 2.5Q480 -10 448 -10ZM448 39Q466 39 479.5 48Q493 57 501.5 73.5Q510 90 514 112.5Q518 135 518 162Q518 189 514 211.5Q510 234 501.5 250.5Q493 267 479.5 276Q466 285 448 285Q430 285 416.5 276Q403 267 395 250.5Q387 234 383 211.5Q379 189 379 162Q379 135 383 112.5Q387 90 395 73.5Q403 57 416.5 48Q430 39 448 39Z" glyph-name="perthousand" horiz-adv-x="896" unicode="&#8240;" /><glyph d="M757 350Q757 274 729.5 208Q702 142 653 93Q604 44 537.5 17Q471 -10 396 -10Q320 -10 254 17Q188 44 138.5 93Q89 142 61.5 208Q34 274 34 350Q34 425 61.5 491Q89 557 138.5 606.5Q188 656 254 683Q320 710 396 710Q471 710 537.5 683Q604 656 653 606.5Q702 557 729.5 491Q757 425 757 350ZM397 37Q463 37 520 60.5Q577 84 619 126Q661 168 684 226Q707 284 707 350Q707 416 684 473.5Q661 531 619 573.5Q577 616 520 639.5Q463 663 397 663Q331 663 273.5 639.5Q216 616 173 573.5Q130 531 106.5 473.5Q83 416 83 350Q83 284 106.5 226.5Q130 169 173 126.5Q216 84 273.5 60.5Q331 37 397 37ZM367 195H318V517H409Q435 517 455 508Q475 499 488.5 483Q502 467 508.5 446Q515 425 515 401Q515 378 509 357.5Q503 337 490.5 320.5Q478 304 457.5 294.5Q437 285 409 285H367ZM367 332H410Q424 332 434.5 337Q445 342 452 351.5Q459 361 462.5 373.5Q466 386 466 401Q466 416 462.5 428.5Q459 441 452 450.5Q445 460 434.5 465Q424 470 410 470H367Z" glyph-name="pi" horiz-adv-x="790" unicode="&#960;" /><glyph d="M212 185H156V323H23V375H156V513H212V375H345V323H212Z" glyph-name="plus" horiz-adv-x="369" unicode="+" /><glyph d="M199 293H143V423H18V475H143V605H199V475H325V423H199ZM300 156H40V211H300Z" glyph-name="plusminus" horiz-adv-x="343" unicode="&#177;" /><glyph d="M409 -200H348V2Q348 14 348.5 27Q349 40 349 51Q349 62 350 78H348Q340 59 328 43Q316 27 300 15Q284 3 264.5 -3.5Q245 -10 222 -10Q179 -10 146.5 8.5Q114 27 92.5 62.5Q71 98 60 148Q49 198 49 262Q49 326 60.5 377Q72 428 94.5 463.5Q117 499 149.5 518Q182 537 223 537Q247 537 267 530Q287 523 303 511Q319 499 330.5 483.5Q342 468 350 449H352Q353 464 355 478Q357 492 359.5 502.5Q362 513 366 527H424Q415 501 416.5 505Q418 509 415.5 498Q413 487 411 472.5Q409 458 409 441ZM348 211V310Q348 347 340.5 377.5Q333 408 318.5 431.5Q304 455 282 467.5Q260 480 231 480Q199 480 176 464.5Q153 449 138.5 420.5Q124 392 117 352Q110 312 110 262Q110 211 117 171.5Q124 132 138.5 103.5Q153 75 176 60Q199 45 231 45Q261 45 283.5 58Q306 71 320.5 94.5Q335 118 341.5 147.5Q348 177 348 211Z" glyph-name="q" horiz-adv-x="485" unicode="q" /><glyph d="M233 160 183 127Q180 131 175 138.5Q170 146 165.5 157Q161 168 158 182.5Q155 197 155 213Q155 257 176 293.5Q197 330 238.5 377.5Q280 425 300.5 457Q321 489 321 529Q321 557 313 579.5Q305 602 290 618Q275 634 253 642.5Q231 651 204 651Q179 651 157.5 641Q136 631 118.5 612.5Q101 594 90.5 568Q80 542 78 511L21 531Q25 570 40.5 603Q56 636 80.5 660Q105 684 136 697Q167 710 203 710Q245 710 278.5 697.5Q312 685 335.5 661Q359 637 371 603.5Q383 570 383 528Q383 479 361.5 439.5Q340 400 297.5 352.5Q255 305 236 277Q217 249 217 214Q217 203 219 193.5Q221 184 223.5 177Q226 170 228.5 166.5Q231 163 233 160ZM202 -10Q194 -10 187 -7Q180 -4 174.5 1Q169 6 166 13Q163 20 163 28Q163 36 166 43Q169 50 174.5 55Q180 60 187 63Q194 66 202 66Q210 66 217 63Q224 60 229 55Q234 50 237 43Q240 36 240 28Q240 20 237 13Q234 6 229 1Q224 -4 217 -7Q210 -10 202 -10Z" glyph-name="question" horiz-adv-x="407" unicode="?" /><glyph d="M165 540 215 573Q218 569 223 561.5Q228 554 232.5 543Q237 532 240 517.5Q243 503 243 487Q243 443 222 406.5Q201 370 159.5 322.5Q118 275 97.5 243Q77 211 77 171Q77 143 85 120.5Q93 98 108 82Q123 66 145 57.5Q167 49 194 49Q219 49 240.5 59Q262 69 279.5 87.5Q297 106 307.5 132Q318 158 320 189L377 169Q373 130 357.5 97Q342 64 317.5 40Q293 16 262 3Q231 -10 195 -10Q153 -10 119.5 2.5Q86 15 62.5 39Q39 63 27 96.5Q15 130 15 172Q15 221 36.5 260.5Q58 300 100.5 347.5Q143 395 162 423Q181 451 181 486Q181 497 179 506.5Q177 516 174.5 523Q172 530 169.5 533.5Q167 537 165 540ZM196 710Q204 710 211 707Q218 704 223.5 699Q229 694 232 687Q235 680 235 672Q235 664 232 657Q229 650 223.5 645Q218 640 211 637Q204 634 196 634Q188 634 181 637Q174 640 169 645Q164 650 161 657Q158 664 158 672Q158 680 161 687Q164 694 169 699Q174 704 181 707Q188 710 196 710Z" glyph-name="questiondown" horiz-adv-x="407" unicode="&#191;" /><glyph d="M95 492H48L65 700H123ZM202 492H155L172 700H230Z" glyph-name="quotedbl" horiz-adv-x="278" unicode="&quot;" /><glyph d="M51 -62Q61 -56 68.5 -49.5Q76 -43 81.5 -36Q87 -29 91 -20Q95 -11 97 -1Q96 0 95.5 0Q95 0 95 0Q94 -1 92.5 -2Q91 -3 90 -3.5Q89 -4 87.5 -4Q86 -4 84 -4Q78 -4 72 -2Q66 0 61.5 4.5Q57 9 54.5 15Q52 21 52 29Q52 36 54.5 42Q57 48 61.5 52.5Q66 57 72.5 59.5Q79 62 86 62Q95 62 102 58.5Q109 55 114.5 48.5Q120 42 122.5 32.5Q125 23 125 11Q125 -4 121 -19.5Q117 -35 109.5 -48.5Q102 -62 91 -71.5Q80 -81 67 -85Q65 -83 63 -80Q61 -77 58.5 -73Q56 -69 54.5 -67Q53 -65 51 -62ZM167 -62Q177 -56 184.5 -49.5Q192 -43 197.5 -36Q203 -29 207 -20Q211 -11 213 -1Q212 0 211.5 0Q211 0 211 0Q210 -1 208.5 -2Q207 -3 206 -3.5Q205 -4 203.5 -4Q202 -4 200 -4Q194 -4 188 -2Q182 0 177.5 4.5Q173 9 170.5 15Q168 21 168 29Q168 36 170.5 42Q173 48 177.5 52.5Q182 57 188.5 59.5Q195 62 202 62Q211 62 218 58.5Q225 55 230.5 48.5Q236 42 238.5 32.5Q241 23 241 11Q241 -4 237 -19.5Q233 -35 225.5 -48.5Q218 -62 207 -71.5Q196 -81 183 -85Q181 -83 179 -80Q177 -77 174.5 -73Q172 -69 170.5 -67Q169 -65 167 -62Z" glyph-name="quotedblbase" horiz-adv-x="296" unicode="&#8222;" /><glyph d="M116 688Q106 682 98.5 675.5Q91 669 85.5 662Q80 655 76 646Q72 637 70 627Q71 626 71.5 626Q72 626 72 626Q73 627 74.5 628Q76 629 77 629.5Q78 630 79.5 630Q81 630 83 630Q89 630 95 628Q101 626 105.5 621.5Q110 617 112.5 611Q115 605 115 597Q115 590 112.5 584Q110 578 105.5 573.5Q101 569 94.5 566.5Q88 564 81 564Q72 564 65 567.5Q58 571 52.5 577.5Q47 584 44.5 593.5Q42 603 42 615Q42 630 46 645.5Q50 661 57.5 674.5Q65 688 76 697.5Q87 707 100 711Q102 709 104 706Q106 703 108.5 699Q111 695 112.5 693Q114 691 116 688ZM233 688Q223 682 215.5 675.5Q208 669 202.5 662Q197 655 193 646Q189 637 187 627Q188 626 188.5 626Q189 626 189 626Q190 627 191.5 628Q193 629 194 629.5Q195 630 196.5 630Q198 630 200 630Q206 630 212 628Q218 626 222.5 621.5Q227 617 229.5 611Q232 605 232 597Q232 590 229.5 584Q227 578 222.5 573.5Q218 569 211.5 566.5Q205 564 198 564Q189 564 182 567.5Q175 571 169.5 577.5Q164 584 161.5 593.5Q159 603 159 615Q159 630 163 645.5Q167 661 174.5 674.5Q182 688 193 697.5Q204 707 217 711Q219 709 221 706Q223 703 225.5 699Q228 695 229.5 693Q231 691 233 688Z" glyph-name="quotedblleft" horiz-adv-x="287" unicode="&#8220;" /><glyph d="M46 585Q56 591 63.5 597.5Q71 604 76.5 611Q82 618 86 627Q90 636 92 646Q91 647 90.5 647Q90 647 90 647Q89 646 87.5 645Q86 644 85 643.5Q84 643 82.5 643Q81 643 79 643Q73 643 67 645Q61 647 56.5 651.5Q52 656 49.5 662Q47 668 47 676Q47 683 49.5 689Q52 695 56.5 699.5Q61 704 67.5 706.5Q74 709 81 709Q90 709 97 705.5Q104 702 109.5 695.5Q115 689 117.5 679.5Q120 670 120 658Q120 643 116 627.5Q112 612 104.5 598.5Q97 585 86 575.5Q75 566 62 562Q60 564 58 567Q56 570 53.5 574Q51 578 49.5 580Q48 582 46 585ZM161 585Q171 591 178.5 597.5Q186 604 191.5 611Q197 618 201 627Q205 636 207 646Q206 647 205.5 647Q205 647 205 647Q204 646 202.5 645Q201 644 200 643.5Q199 643 197.5 643Q196 643 194 643Q188 643 182 645Q176 647 171.5 651.5Q167 656 164.5 662Q162 668 162 676Q162 683 164.5 689Q167 695 171.5 699.5Q176 704 182.5 706.5Q189 709 196 709Q205 709 212 705.5Q219 702 224.5 695.5Q230 689 232.5 679.5Q235 670 235 658Q235 643 231 627.5Q227 612 219.5 598.5Q212 585 201 575.5Q190 566 177 562Q175 564 173 567Q171 570 168.5 574Q166 578 164.5 580Q163 582 161 585Z" glyph-name="quotedblright" horiz-adv-x="286" unicode="&#8221;" /><glyph d="M116 687Q106 681 98.5 674.5Q91 668 85.5 661Q80 654 76 645Q72 636 70 626Q71 625 71.5 625Q72 625 72 625Q73 626 74.5 627Q76 628 77 628.5Q78 629 79.5 629Q81 629 83 629Q89 629 95 627Q101 625 105.5 620.5Q110 616 112.5 610Q115 604 115 596Q115 589 112.5 583Q110 577 105.5 572.5Q101 568 94.5 565.5Q88 563 81 563Q72 563 65 566.5Q58 570 52.5 576.5Q47 583 44.5 592.5Q42 602 42 614Q42 629 46 644.5Q50 660 57.5 673.5Q65 687 76 696.5Q87 706 100 710Q102 708 104 705Q106 702 108.5 698Q111 694 112.5 692Q114 690 116 687Z" glyph-name="quoteleft" horiz-adv-x="171" unicode="&#8216;" /><glyph d="M46 585Q56 591 63.5 597.5Q71 604 76.5 611Q82 618 86 627Q90 636 92 646Q91 647 90.5 647Q90 647 90 647Q89 646 87.5 645Q86 644 85 643.5Q84 643 82.5 643Q81 643 79 643Q73 643 67 645Q61 647 56.5 651.5Q52 656 49.5 662Q47 668 47 676Q47 683 49.5 689Q52 695 56.5 699.5Q61 704 67.5 706.5Q74 709 81 709Q90 709 97 705.5Q104 702 109.5 695.5Q115 689 117.5 679.5Q120 670 120 658Q120 643 116 627.5Q112 612 104.5 598.5Q97 585 86 575.5Q75 566 62 562Q60 564 58 567Q56 570 53.5 574Q51 578 49.5 580Q48 582 46 585Z" glyph-name="quoteright" horiz-adv-x="171" unicode="&#8217;" /><glyph d="M51 -62Q61 -56 68.5 -49.5Q76 -43 81.5 -36Q87 -29 91 -20Q95 -11 97 -1Q96 0 95.5 0Q95 0 95 0Q94 -1 92.5 -2Q91 -3 90 -3.5Q89 -4 87.5 -4Q86 -4 84 -4Q78 -4 72 -2Q66 0 61.5 4.5Q57 9 54.5 15Q52 21 52 29Q52 36 54.5 42Q57 48 61.5 52.5Q66 57 72.5 59.5Q79 62 86 62Q95 62 102 58.5Q109 55 114.5 48.5Q120 42 122.5 32.5Q125 23 125 11Q125 -4 121 -19.5Q117 -35 109.5 -48.5Q102 -62 91 -71.5Q80 -81 67 -85Q65 -83 63 -80Q61 -77 58.5 -73Q56 -69 54.5 -67Q53 -65 51 -62Z" glyph-name="quotesinglbase" horiz-adv-x="182" unicode="&#8218;" /><glyph d="M89 492H42L59 700H117Z" glyph-name="quotesingle" horiz-adv-x="156" unicode="'" /><glyph d="M136 0H75V441Q75 458 73 472.5Q71 487 68.5 498.5Q66 510 64 517Q62 524 60 527H118Q123 510 125.5 497Q128 484 130.5 467.5Q133 451 133 434H135Q145 459 159.5 478Q174 497 192.5 510Q211 523 233.5 529.5Q256 536 282 536Q286 536 290.5 536Q295 536 299 535.5Q303 535 307 534.5Q311 534 315 533L303 468Q299 469 295 470Q291 471 286.5 472Q282 473 277 473.5Q272 474 267 474Q239 474 215 462.5Q191 451 173 430Q155 409 145.5 379.5Q136 350 136 314Z" glyph-name="r" horiz-adv-x="327" unicode="r" /><glyph d="M756 350Q756 274 728.5 208Q701 142 652 93Q603 44 536.5 17Q470 -10 395 -10Q319 -10 253 17Q187 44 137.5 93Q88 142 60.5 208Q33 274 33 350Q33 425 60.5 491Q88 557 137.5 606.5Q187 656 253 683Q319 710 395 710Q470 710 536.5 683Q603 656 652 606.5Q701 557 728.5 491Q756 425 756 350ZM396 36Q462 36 519 59.5Q576 83 618 125.5Q660 168 683 225.5Q706 283 706 350Q706 415 683 472.5Q660 530 618 573Q576 616 519 639.5Q462 663 396 663Q330 663 272.5 639.5Q215 616 172.5 573Q130 530 106.5 472.5Q83 415 83 350Q83 284 106.5 226Q130 168 172.5 125.5Q215 83 272.5 59.5Q330 36 396 36ZM510 195H455L407 300Q406 300 404 299.5Q402 299 400 299Q398 299 396.5 299Q395 299 392 299H350V195H301V517H392Q418 517 438 508.5Q458 500 471.5 485Q485 470 491.5 450Q498 430 498 408Q498 393 495 379.5Q492 366 486.5 354Q481 342 472.5 331.5Q464 321 453 314ZM350 346H393Q407 346 417 350.5Q427 355 434 363.5Q441 372 444.5 383.5Q448 395 448 408Q448 421 444.5 432Q441 443 434 451.5Q427 460 416.5 465Q406 470 393 470H350Z" glyph-name="registered" horiz-adv-x="791" unicode="&#174;" /><glyph d="M220 848Q220 831 214 816.5Q208 802 197.5 792Q187 782 172 776.5Q157 771 139 771Q121 771 106 776.5Q91 782 80 792Q69 802 63 816.5Q57 831 57 848Q57 865 63 879.5Q69 894 80 904.5Q91 915 106 920.5Q121 926 139 926Q157 926 172 920.5Q187 915 197.5 904.5Q208 894 214 879.5Q220 865 220 848ZM178 848Q178 856 175 863Q172 870 166.5 875Q161 880 154 883Q147 886 139 886Q131 886 124 883Q117 880 111.5 875Q106 870 103 863Q100 856 100 848Q100 840 103 833Q106 826 111.5 821Q117 816 124 813.5Q131 811 139 811Q147 811 154 813.5Q161 816 166.5 821Q172 826 175 833Q178 840 178 848Z" glyph-name="ring" horiz-adv-x="277" unicode="&#730;" /><glyph d="M400 451 357 413Q344 431 330 444Q316 457 300.5 465.5Q285 474 267 478Q249 482 227 482Q206 482 188 476.5Q170 471 156 460Q142 449 134.5 433.5Q127 418 127 399Q127 360 158.5 342Q190 324 265.5 296Q341 268 379 235Q417 202 417 142Q417 105 405 76.5Q393 48 370 29Q347 10 314.5 0Q282 -10 241 -10Q211 -10 182 -3.5Q153 3 127.5 16Q102 29 81 48Q60 67 45 91Q49 94 57 100.5Q65 107 70 111Q75 115 81 119.5Q87 124 92 129Q103 109 119.5 93.5Q136 78 156 67Q176 56 198.5 50.5Q221 45 244 45Q269 45 289.5 51Q310 57 324.5 69Q339 81 347 98.5Q355 116 355 139Q355 183 321 204.5Q287 226 213.5 252.5Q140 279 102.5 309.5Q65 340 65 397Q65 426 76.5 451.5Q88 477 110 495.5Q132 514 162.5 524.5Q193 535 229 535Q258 535 282 530Q306 525 326.5 514.5Q347 504 365 488.5Q383 473 400 451Z" glyph-name="s" horiz-adv-x="456" unicode="s" /><glyph d="M400 451 357 413Q344 431 330 444Q316 457 300.5 465.5Q285 474 267 478Q249 482 227 482Q206 482 188 476.5Q170 471 156 460Q142 449 134.5 433.5Q127 418 127 399Q127 360 158.5 342Q190 324 265.5 296Q341 268 379 235Q417 202 417 142Q417 105 405 76.5Q393 48 370 29Q347 10 314.5 0Q282 -10 241 -10Q211 -10 182 -3.5Q153 3 127.5 16Q102 29 81 48Q60 67 45 91Q49 94 57 100.5Q65 107 70 111Q75 115 81 119.5Q87 124 92 129Q103 109 119.5 93.5Q136 78 156 67Q176 56 198.5 50.5Q221 45 244 45Q269 45 289.5 51Q310 57 324.5 69Q339 81 347 98.5Q355 116 355 139Q355 183 321 204.5Q287 226 213.5 252.5Q140 279 102.5 309.5Q65 340 65 397Q65 426 76.5 451.5Q88 477 110 495.5Q132 514 162.5 524.5Q193 535 229 535Q258 535 282 530Q306 525 326.5 514.5Q347 504 365 488.5Q383 473 400 451ZM139 753 187 704Q198 693 207 683Q216 673 222 665.5Q228 658 235 649H237Q237 649 241.5 654.5Q246 660 252 667Q258 674 266.5 684Q275 694 285 704L333 753L373 713L246 591H225L100 713Z" glyph-name="scaron" horiz-adv-x="456" unicode="&#353;" /><glyph d="M386 226V224Q394 216 400 207.5Q406 199 410.5 188.5Q415 178 417.5 166.5Q420 155 420 141Q420 110 408.5 82.5Q397 55 374 34Q351 13 317 1.5Q283 -10 241 -10Q208 -10 178 -2.5Q148 5 123 19.5Q98 34 78 53.5Q58 73 43 97L89 135Q103 115 119 98.5Q135 82 154 70.5Q173 59 196 52.5Q219 46 245 46Q274 46 295.5 53.5Q317 61 330.5 74Q344 87 350.5 103.5Q357 120 357 137Q357 160 346.5 176Q336 192 317 203Q298 214 275 221.5Q252 229 210 241L200 244Q165 254 139.5 264Q114 274 93 289.5Q72 305 59.5 328Q47 351 47 384Q47 401 51 415.5Q55 430 62 442.5Q69 455 78.5 465Q88 475 100 483V485Q94 492 89 500.5Q84 509 80 519Q76 529 74 540.5Q72 552 72 564Q72 597 83.5 624.5Q95 652 117 671Q139 690 170 700Q201 710 239 710Q274 710 303 701Q332 692 354.5 675Q377 658 393.5 635Q410 612 422 583L368 553Q360 574 348 592Q336 610 320 624Q304 638 282.5 645.5Q261 653 235 653Q214 653 195 646.5Q176 640 161 628.5Q146 617 137.5 600.5Q129 584 129 565Q129 516 165 496Q201 476 277.5 455.5Q354 435 393 407Q432 379 432 317Q432 302 428.5 288.5Q425 275 419 263.5Q413 252 404.5 242.5Q396 233 386 226ZM136 453Q128 448 121.5 441Q115 434 110.5 425.5Q106 417 103.5 407Q101 397 101 386Q101 353 124 334Q147 315 164.5 309.5Q182 304 250 285.5Q318 267 346 252Q354 258 360 264.5Q366 271 370.5 279Q375 287 377 295.5Q379 304 379 314Q379 348 356 367Q333 386 343.5 383Q354 380 258 408Q162 436 136 453Z" glyph-name="section" horiz-adv-x="496" unicode="&#167;" /><glyph d="M52 -62Q62 -56 69.5 -49.5Q77 -43 82.5 -36Q88 -29 92 -20Q96 -11 98 -1Q97 0 96.5 0Q96 0 96 0Q95 -1 93.5 -2Q92 -3 91 -3.5Q90 -4 88.5 -4Q87 -4 85 -4Q79 -4 73 -2Q67 0 62.5 4.5Q58 9 55.5 15Q53 21 53 29Q53 36 55.5 42Q58 48 62.5 52.5Q67 57 73.5 59.5Q80 62 87 62Q96 62 103 58.5Q110 55 115.5 48.5Q121 42 123.5 32.5Q126 23 126 11Q126 -4 122 -19.5Q118 -35 110.5 -48.5Q103 -62 92 -71.5Q81 -81 68 -85Q66 -83 64 -80Q62 -77 59.5 -73Q57 -69 55.5 -67Q54 -65 52 -62ZM130 355Q130 347 127 340Q124 333 118.5 328Q113 323 106 320Q99 317 91 317Q83 317 76 320Q69 323 64 328Q59 333 56 340Q53 347 53 355Q53 363 56 370Q59 377 64 382.5Q69 388 76 391Q83 394 91 394Q99 394 106 391Q113 388 118.5 382.5Q124 377 127 370Q130 363 130 355Z" glyph-name="semicolon" horiz-adv-x="182" unicode=";" /><glyph d="M164 0H100L304 642H15V700H387Z" glyph-name="seven" horiz-adv-x="380" unicode="7" /><glyph d="M163 -80H99L299 469H23V527H382Z" glyph-name="seven.osf" horiz-adv-x="395" /><glyph d="M256 47Q284 47 308 62.5Q332 78 349 104Q366 130 375 161.5Q384 193 384 225Q384 254 376 280Q368 306 352.5 326Q337 346 313.5 357.5Q290 369 260 369Q228 369 203 358Q178 347 161 326Q144 305 135 276Q126 247 126 212Q126 176 135.5 145.5Q145 115 162.5 93Q180 71 204 59Q228 47 256 47ZM427 576 373 548Q364 573 353.5 591.5Q343 610 329 624Q315 638 296.5 645Q278 652 256 652Q219 652 190.5 629Q162 606 143.5 562Q125 518 117 456.5Q109 395 112 318H114Q123 341 137 360.5Q151 380 170 394Q189 408 213 416Q237 424 265 424Q309 424 343.5 408Q378 392 400.5 364Q423 336 434.5 300.5Q446 265 446 226Q446 183 432.5 140.5Q419 98 394 64Q369 30 334 10Q299 -10 257 -10Q199 -10 159 17.5Q119 45 96 93.5Q73 142 63 206.5Q53 271 53 351Q53 429 64 493.5Q75 558 99 607Q123 656 162 683Q201 710 255 710Q289 710 316 700.5Q343 691 364 673.5Q385 656 400.5 631.5Q416 607 427 576Z" glyph-name="six" horiz-adv-x="500" unicode="6" /><glyph d="M427 538 387 493Q376 508 364 520Q352 532 337.5 540Q323 548 306 552Q289 556 269 556Q224 556 193 531Q162 506 145 465Q128 424 121 376Q114 328 115 278H117Q124 303 137.5 324Q151 345 170.5 360.5Q190 376 215 384.5Q240 393 270 393Q314 393 348 377.5Q382 362 404.5 334.5Q427 307 438 271Q449 235 449 194Q449 153 437 116.5Q425 80 401 51.5Q377 23 340.5 6.5Q304 -10 257 -10Q204 -10 166 12.5Q128 35 104 76.5Q80 118 68.5 175.5Q57 233 57 305Q57 376 71 433Q85 490 112.5 530.5Q140 571 180 592.5Q220 614 270 614Q295 614 317 609Q339 604 357.5 594Q376 584 393 570.5Q410 557 427 538ZM258 46Q289 46 313.5 57Q338 68 354.5 88Q371 108 379.5 135Q388 162 388 194Q388 225 379.5 251Q371 277 354.5 296.5Q338 316 315 326.5Q292 337 263 337Q231 337 206 325.5Q181 314 164 293.5Q147 273 138.5 247Q130 221 130 193Q130 158 140 130.5Q150 103 168 84Q186 65 209 55.5Q232 46 258 46Z" glyph-name="six.osf" horiz-adv-x="495" /><glyph d="M101 -60H41L200 760H261Z" glyph-name="slash" horiz-adv-x="302" unicode="/" /><glyph glyph-name="space" horiz-adv-x="260" unicode=" " /><glyph d="M411 81 444 29Q435 20 424.5 13Q414 6 401 0.5Q388 -5 373 -8Q358 -11 342 -11Q322 -11 301 -8Q280 -5 250 0.5Q220 6 201.5 9Q183 12 165 12Q153 12 142 10.5Q131 9 121.5 6Q112 3 103 -2Q94 -7 86 -14L51 32Q71 51 85 71.5Q99 92 108.5 115Q118 138 122.5 164Q127 190 127 220Q127 226 127 232Q127 238 126.5 245Q126 252 125.5 259Q125 266 124 273H29V322H120Q118 339 114.5 370Q111 401 109 419Q107 437 105.5 457Q104 477 104 494Q104 542 113.5 581.5Q123 621 143 650Q163 679 195 694.5Q227 710 272 710Q308 710 335.5 699Q363 688 383.5 666.5Q404 645 417.5 613.5Q431 582 439 540L383 517Q378 549 369.5 574Q361 599 348 616Q335 633 316 642Q297 651 272 651Q244 651 224 640Q204 629 191 608.5Q178 588 172 559Q166 530 166 494Q166 479 167.5 459.5Q169 440 170 428Q171 416 174.5 378Q178 340 180 322H357V273H184Q185 262 185 257Q185 252 185.5 246Q186 240 186 234.5Q186 229 186 224Q186 198 182 175Q178 152 171.5 132Q165 112 155.5 94.5Q146 77 134 62Q134 62 134 61.5Q134 61 134.5 61Q135 61 135 60.5Q135 60 135 60Q140 61 145 62Q150 63 155 64Q160 65 165 65Q170 65 175 65Q191 65 207 63Q223 61 248 56.5Q273 52 289.5 49.5Q306 47 322 47Q336 47 349 49.5Q362 52 373.5 56.5Q385 61 394 67Q403 73 411 81Z" glyph-name="sterling" horiz-adv-x="503" unicode="&#163;" /><glyph d="M390 75 418 23Q410 16 400.5 10.5Q391 5 379.5 0Q368 -5 354 -7.5Q340 -10 325 -10Q308 -10 290 -7.5Q272 -5 243 0.5Q214 6 195 8.5Q176 11 158 11Q147 11 137 10Q127 9 117.5 6Q108 3 99.5 -1.5Q91 -6 83 -12L53 29Q73 44 86 62Q99 80 105.5 100Q112 120 113.5 142Q115 164 113 190H45V239H110Q105 279 103.5 293.5Q102 308 101 327Q100 346 100 368Q100 404 109.5 434.5Q119 465 138 488Q157 511 187 524Q217 537 257 537Q289 537 315 527.5Q341 518 360.5 500Q380 482 393.5 456.5Q407 431 414 398L358 376Q354 401 346.5 420.5Q339 440 326.5 453Q314 466 296.5 473Q279 480 256 480Q231 480 213 471.5Q195 463 183 447Q171 431 165 409Q159 387 159 359Q159 347 160 332.5Q161 318 162 303Q163 288 162.5 294.5Q162 301 168 239H319V190H170Q170 169 169 152Q168 135 164 118.5Q160 102 151.5 86Q143 70 130 56Q130 56 130.5 55Q131 54 131.5 54Q132 54 132 54Q138 55 143.5 56.5Q149 58 155.5 58.5Q162 59 168 59.5Q174 60 180 60Q194 60 207.5 59Q221 58 242 55.5Q263 53 276.5 51.5Q290 50 304 50Q318 50 330 52Q342 54 353 57Q364 60 373 64.5Q382 69 390 75Z" glyph-name="sterling.osf" horiz-adv-x="503" /><glyph d="M289 69 309 17Q300 11 290 6.5Q280 2 269 -2Q258 -6 245.5 -8Q233 -10 220 -10Q189 -10 165.5 -0.5Q142 9 127 27.5Q112 46 104.5 72Q97 98 97 132V473H26V527H97V653H157V527H278V473H157V135Q157 114 161.5 97.5Q166 81 175 69.5Q184 58 197 52.5Q210 47 226 47Q234 47 242.5 48.5Q251 50 259.5 53Q268 56 275.5 60Q283 64 289 69Z" glyph-name="t" horiz-adv-x="331" unicode="t" /><glyph d="M131 -200H71V730H131V527Q131 514 131 501Q131 488 130.5 477.5Q130 467 130 453H132Q140 471 151.5 486Q163 501 177.5 512.5Q192 524 211.5 530.5Q231 537 254 537Q295 537 327.5 518Q360 499 382.5 463.5Q405 428 416.5 377Q428 326 428 262Q428 198 417 148Q406 98 384.5 62.5Q363 27 330.5 8.5Q298 -10 255 -10Q233 -10 214 -4.5Q195 1 180 11.5Q165 22 153 36.5Q141 51 132 68H130Q130 55 130.5 45.5Q131 36 131 23.5Q131 11 131 -3ZM131 312V212Q131 178 137.5 148Q144 118 157.5 95Q171 72 193.5 58.5Q216 45 246 45Q278 45 301 60Q324 75 338.5 103.5Q353 132 359.5 171.5Q366 211 366 262Q366 312 359.5 352Q353 392 338.5 420.5Q324 449 301 464.5Q278 480 246 480Q217 480 195.5 467.5Q174 455 159.5 432Q145 409 138 378.5Q131 348 131 312Z" glyph-name="thorn" horiz-adv-x="478" unicode="&#254;" /><glyph d="M180 365 153 414 282 584Q288 593 294.5 601Q301 609 307 616.5Q313 624 318 629.5Q323 635 327 639V641H61V700H414V664L222 417L223 415L249 413Q292 410 325 392.5Q358 375 380 346.5Q402 318 413 283Q424 248 424 209Q424 166 411 126.5Q398 87 373 56Q348 25 310.5 7.5Q273 -10 227 -10Q188 -10 155.5 3Q123 16 98.5 38.5Q74 61 57.5 90Q41 119 33 153Q39 156 46 159Q53 162 63 167Q73 172 78 174Q83 176 89 179Q96 146 109 121.5Q122 97 140.5 80.5Q159 64 181.5 56Q204 48 229 48Q262 48 288 61Q314 74 330.5 97Q347 120 355.5 148.5Q364 177 364 207Q364 241 354.5 270Q345 299 325.5 321Q306 343 278 355.5Q250 368 214 368Q210 368 206 368Q202 368 197.5 367.5Q193 367 189 366.5Q185 366 180 365Z" glyph-name="three" horiz-adv-x="464" unicode="3" /><glyph d="M21 60 77 87Q85 55 100.5 32Q116 9 137 -5Q158 -19 181.5 -25Q205 -31 230 -31Q264 -31 291 -21Q318 -11 336 7.5Q354 26 363 51Q372 76 372 105Q372 135 360.5 160Q349 185 328 202.5Q307 220 279.5 229Q252 238 221 238Q217 238 214.5 238Q212 238 209 238Q206 238 203 237.5Q200 237 197 237L169 287L286 416Q295 426 304 435Q313 444 320 450.5Q327 457 331.5 461.5Q336 466 338 467V468H53V527H433V492L237 288L239 286Q283 285 318.5 272Q354 259 379.5 236Q405 213 418.5 180.5Q432 148 432 108Q432 66 418.5 30Q405 -6 378.5 -33Q352 -60 313.5 -74.5Q275 -89 228 -89Q188 -89 153.5 -78Q119 -67 92.5 -47Q66 -27 47.5 0.5Q29 28 21 60Z" glyph-name="three.osf" horiz-adv-x="476" /><glyph d="M421 0H372V64H248L375 316H421V111H462V64H421ZM377 107V241H374Q366 219 358 199.5Q350 180 342 164Q334 148 326 134.5Q318 121 309 109V107ZM104 0H50L413 700H468ZM113 534 91 569 125 605Q132 613 138.5 619Q145 625 150.5 630.5Q156 636 160 640Q164 644 173 652V654H46V700H241V670L147 572V570Q167 570 185 564Q203 558 216.5 546.5Q230 535 238 517.5Q246 500 246 477Q246 456 239.5 438Q233 420 220.5 405.5Q208 391 189 383Q170 375 145 375Q122 375 104 381Q86 387 72.5 398Q59 409 49.5 424Q40 439 35 458L80 477Q82 466 87.5 455.5Q93 445 101 437Q109 429 119.5 424.5Q130 420 143 420Q155 420 165.5 424Q176 428 183.5 435.5Q191 443 195 453.5Q199 464 199 477Q199 492 193.5 503.5Q188 515 178.5 522Q169 529 157.5 532.5Q146 536 134 536Q131 536 128.5 536Q126 536 123 535.5Q120 535 118 534.5Q116 534 113 534Z" glyph-name="threequarters" horiz-adv-x="503" unicode="&#190;" /><glyph d="M102 534 80 569 114 605Q121 613 127.5 619Q134 625 139.5 630.5Q145 636 149 640Q153 644 162 652V654H35V700H230V670L136 572V570Q156 570 174 564Q192 558 205.5 546.5Q219 535 227 517.5Q235 500 235 477Q235 456 228.5 438Q222 420 209.5 405.5Q197 391 178 383Q159 375 134 375Q111 375 93 381Q75 387 61.5 398Q48 409 38.5 424Q29 439 24 458L69 477Q71 466 76.5 455.5Q82 445 90 437Q98 429 108.5 424.5Q119 420 132 420Q144 420 154.5 424Q165 428 172.5 435.5Q180 443 184 453.5Q188 464 188 477Q188 492 182.5 503.5Q177 515 167.5 522Q158 529 146.5 532.5Q135 536 123 536Q120 536 117.5 536Q115 536 112 535.5Q109 535 107 534.5Q105 534 102 534Z" glyph-name="threesuperior" horiz-adv-x="256" unicode="&#179;" /><glyph d="M300 884H347Q347 857 342.5 836.5Q338 816 327.5 801Q317 786 300 778Q283 770 258 770Q237 770 220 779Q203 788 183 805.5Q163 823 152 830Q141 837 128 837Q115 837 107 831.5Q99 826 94.5 817.5Q90 809 88.5 798.5Q87 788 87 776H39Q39 802 44 823Q49 844 59.5 858.5Q70 873 87 881Q104 889 128 889Q149 889 165.5 880Q182 871 202.5 853.5Q223 836 234 828.5Q245 821 258 821Q270 821 278.5 826.5Q287 832 291.5 841.5Q296 851 298 862Q300 873 300 884Z" glyph-name="tilde" horiz-adv-x="388" unicode="&#732;" /><glyph d="M144 385H95V653H21V700H217V653H144ZM544 385H494V539Q494 553 494.5 567.5Q495 582 495 592.5Q495 603 496 618H494Q494 618 491.5 613.5Q489 609 481 596Q473 583 467.5 574Q462 565 456 554L411 480H407L366 547Q358 560 350.5 573Q343 586 338 595.5Q333 605 326 617H324Q324 603 324.5 592Q325 581 325 567Q325 553 325 539V385H276V700H325L369 630Q375 620 382 609Q389 598 393.5 589.5Q398 581 402.5 572.5Q407 564 408 563H410Q411 564 420.5 580.5Q430 597 437 608Q444 619 450 630L494 700H544Z" glyph-name="trademark" horiz-adv-x="588" unicode="&#8482;" /><glyph d="M413 0H34L301 366Q314 384 325 402.5Q336 421 344.5 440.5Q353 460 357.5 479.5Q362 499 362 519Q362 542 355 565.5Q348 589 332.5 608.5Q317 628 293 639.5Q269 651 236 651Q210 651 188 642Q166 633 149 615.5Q132 598 121 571.5Q110 545 106 511L48 530Q52 569 67.5 602.5Q83 636 108 660Q133 684 165.5 697Q198 710 236 710Q282 710 317.5 695Q353 680 376.5 653.5Q400 627 411.5 593Q423 559 423 521Q423 497 418 472Q413 447 403.5 423Q394 399 381 376.5Q368 354 352 333L187 109Q182 103 171.5 89.5Q161 76 158.5 73Q156 70 153 65.5Q150 61 150 60H413Z" glyph-name="two" horiz-adv-x="471" unicode="2" /><glyph d="M417 0H19V2L274 242Q288 256 300 269.5Q312 283 321 298.5Q330 314 335.5 331.5Q341 349 341 368Q341 389 334.5 408.5Q328 428 314.5 444.5Q301 461 280 470.5Q259 480 230 480Q204 480 183 471.5Q162 463 145.5 446Q129 429 117.5 406Q106 383 99 353L43 372Q52 410 68.5 440.5Q85 471 109 492.5Q133 514 163.5 525.5Q194 537 231 537Q273 537 305.5 523.5Q338 510 359.5 486.5Q381 463 391.5 433Q402 403 402 371Q402 349 396.5 327Q391 305 380.5 283.5Q370 262 354.5 242.5Q339 223 319 205Q240 133 217.5 113Q195 93 177 78.5Q159 64 149 58V56Q179 57 200.5 57Q222 57 249.5 57.5Q277 58 303 58H417Z" glyph-name="two.osf" horiz-adv-x="468" /><glyph d="M224 385H27V387L150 552Q157 562 162 569.5Q167 577 170.5 584.5Q174 592 175.5 600Q177 608 177 617Q177 627 174 635.5Q171 644 165.5 650Q160 656 152 659.5Q144 663 134 663Q121 663 111 657.5Q101 652 94 643Q87 634 83 622Q79 610 77 598L30 616Q35 635 43.5 651.5Q52 668 64.5 681.5Q77 695 94.5 702.5Q112 710 135 710Q157 710 174.5 702.5Q192 695 204 682.5Q216 670 222 653Q228 636 228 617Q228 606 226 595.5Q224 585 219.5 574.5Q215 564 209 554Q203 544 195 533Q179 512 164.5 493.5Q150 475 139.5 462Q129 449 115 433V430H224Z" glyph-name="twosuperior" horiz-adv-x="265" unicode="&#178;" /><glyph d="M435 0H377Q372 16 369.5 28Q367 40 365 55.5Q363 71 363 87H361Q351 64 336.5 46Q322 28 304.5 15.5Q287 3 265.5 -3.5Q244 -10 221 -10Q176 -10 145.5 6.5Q115 23 97 52Q79 81 71 118.5Q63 156 63 202V527H124V216Q124 175 129.5 144Q135 113 147 90.5Q159 68 180 56.5Q201 45 232 45Q261 45 285 58Q309 71 325.5 94Q342 117 350.5 148.5Q359 180 359 217V527H420V85Q420 68 422 53.5Q424 39 426.5 28Q429 17 431 10.5Q433 4 435 0Z" glyph-name="u" horiz-adv-x="496" unicode="u" /><glyph d="M435 0H377Q372 16 369.5 28Q367 40 365 55.5Q363 71 363 87H361Q351 64 336.5 46Q322 28 304.5 15.5Q287 3 265.5 -3.5Q244 -10 221 -10Q176 -10 145.5 6.5Q115 23 97 52Q79 81 71 118.5Q63 156 63 202V527H124V216Q124 175 129.5 144Q135 113 147 90.5Q159 68 180 56.5Q201 45 232 45Q261 45 285 58Q309 71 325.5 94Q342 117 350.5 148.5Q359 180 359 217V527H420V85Q420 68 422 53.5Q424 39 426.5 28Q429 17 431 10.5Q433 4 435 0ZM357 671 141 580 121 623 333 723Z" glyph-name="uacute" horiz-adv-x="496" unicode="&#250;" /><glyph d="M435 0H377Q372 16 369.5 28Q367 40 365 55.5Q363 71 363 87H361Q351 64 336.5 46Q322 28 304.5 15.5Q287 3 265.5 -3.5Q244 -10 221 -10Q176 -10 145.5 6.5Q115 23 97 52Q79 81 71 118.5Q63 156 63 202V527H124V216Q124 175 129.5 144Q135 113 147 90.5Q159 68 180 56.5Q201 45 232 45Q261 45 285 58Q309 71 325.5 94Q342 117 350.5 148.5Q359 180 359 217V527H420V85Q420 68 422 53.5Q424 39 426.5 28Q429 17 431 10.5Q433 4 435 0ZM336 605 288 654Q277 665 268 675Q259 685 253 692.5Q247 700 240 709H238Q238 709 233.5 703.5Q229 698 223 691Q217 684 208.5 674Q200 664 190 654L142 605L102 645L229 767H250L375 645Z" glyph-name="ucircumflex" horiz-adv-x="496" unicode="&#251;" /><glyph d="M435 0H377Q372 16 369.5 28Q367 40 365 55.5Q363 71 363 87H361Q351 64 336.5 46Q322 28 304.5 15.5Q287 3 265.5 -3.5Q244 -10 221 -10Q176 -10 145.5 6.5Q115 23 97 52Q79 81 71 118.5Q63 156 63 202V527H124V216Q124 175 129.5 144Q135 113 147 90.5Q159 68 180 56.5Q201 45 232 45Q261 45 285 58Q309 71 325.5 94Q342 117 350.5 148.5Q359 180 359 217V527H420V85Q420 68 422 53.5Q424 39 426.5 28Q429 17 431 10.5Q433 4 435 0ZM169 611Q162 611 155.5 613.5Q149 616 144.5 620.5Q140 625 137.5 631.5Q135 638 135 645Q135 652 137.5 658.5Q140 665 144.5 669.5Q149 674 155.5 676.5Q162 679 169 679Q176 679 182.5 676.5Q189 674 194 669.5Q199 665 201.5 658.5Q204 652 204 645Q204 638 201.5 631.5Q199 625 194 620.5Q189 616 182.5 613.5Q176 611 169 611ZM314 611Q307 611 300.5 613.5Q294 616 289.5 620.5Q285 625 282.5 631.5Q280 638 280 645Q280 652 282.5 658.5Q285 665 289.5 669.5Q294 674 300.5 676.5Q307 679 314 679Q321 679 327.5 676.5Q334 674 339 669.5Q344 665 346.5 658.5Q349 652 349 645Q349 638 346.5 631.5Q344 625 339 620.5Q334 616 327.5 613.5Q321 611 314 611Z" glyph-name="udieresis" horiz-adv-x="496" unicode="&#252;" /><glyph d="M435 0H377Q372 16 369.5 28Q367 40 365 55.5Q363 71 363 87H361Q351 64 336.5 46Q322 28 304.5 15.5Q287 3 265.5 -3.5Q244 -10 221 -10Q176 -10 145.5 6.5Q115 23 97 52Q79 81 71 118.5Q63 156 63 202V527H124V216Q124 175 129.5 144Q135 113 147 90.5Q159 68 180 56.5Q201 45 232 45Q261 45 285 58Q309 71 325.5 94Q342 117 350.5 148.5Q359 180 359 217V527H420V85Q420 68 422 53.5Q424 39 426.5 28Q429 17 431 10.5Q433 4 435 0ZM334 580 117 671 141 723 353 623Z" glyph-name="ugrave" horiz-adv-x="496" unicode="&#249;" /><glyph d="M390 -157H-1V-100H390Z" glyph-name="underscore" horiz-adv-x="389" unicode="_" /><glyph glyph-name="uni00A0" horiz-adv-x="260" unicode="&#160;" /><glyph glyph-name="uni00AD" horiz-adv-x="833" unicode="&#173;" /><glyph d="M245 0H189L22 527H87L194 171Q197 161 201 146.5Q205 132 208 119Q211 106 216 85H218Q223 106 226 119Q229 132 232.5 146.5Q236 161 239 171L346 527H411Z" glyph-name="v" horiz-adv-x="434" unicode="v" /><glyph d="M551 0H495L390 356Q387 367 384 377.5Q381 388 378 398.5Q375 409 373 418.5Q371 428 368 439H366Q363 424 360.5 413Q358 402 354 387.5Q350 373 345 357L239 0H184L22 527H87L190 176Q193 166 196.5 152Q200 138 203 124.5Q206 111 211 90H213Q218 110 221 123.5Q224 137 227.5 151Q231 165 234 176L340 527H394L501 175Q504 164 507.5 150Q511 136 514 123Q517 110 522 90H524Q525 92 528 107.5Q531 123 533.5 133Q536 143 538.5 154Q541 165 544 175L647 527H712Z" glyph-name="w" horiz-adv-x="735" unicode="w" /><glyph d="M396 0H331L246 160Q240 172 234.5 184Q229 196 224.5 205Q220 214 215 227H213Q207 214 202.5 205Q198 196 192.5 183.5Q187 171 180 159L96 0H31L172 263L31 527H96L180 366Q186 354 191.5 343.5Q197 333 201.5 324.5Q206 316 209 310Q212 304 213 300H215Q216 303 219 309.5Q222 316 226 324.5Q230 333 235.5 344Q241 355 247 367L331 527H396L255 263Z" glyph-name="x" horiz-adv-x="431" unicode="x" /><glyph d="M197 1 25 527H92L203 172Q208 155 212 141Q216 127 219 117.5Q222 108 223 103Q224 98 224 96H226Q230 111 233 121.5Q236 132 239.5 145Q243 158 247 171L350 527H413L244 -41Q231 -83 216.5 -114Q202 -145 184 -166Q166 -187 142.5 -198Q119 -209 89 -209Q77 -209 65 -207.5Q53 -206 42 -203Q31 -200 20.5 -195.5Q10 -191 0 -185L28 -133Q34 -137 40.5 -140Q47 -143 54.5 -145.5Q62 -148 69.5 -149Q77 -150 85 -150Q110 -150 127.5 -137Q145 -124 157 -103Q169 -82 175 -64.5Q181 -47 197 1Z" glyph-name="y" horiz-adv-x="439" unicode="y" /><glyph d="M197 1 25 527H92L203 172Q208 155 212 141Q216 127 219 117.5Q222 108 223 103Q224 98 224 96H226Q230 111 233 121.5Q236 132 239.5 145Q243 158 247 171L350 527H413L244 -41Q231 -83 216.5 -114Q202 -145 184 -166Q166 -187 142.5 -198Q119 -209 89 -209Q77 -209 65 -207.5Q53 -206 42 -203Q31 -200 20.5 -195.5Q10 -191 0 -185L28 -133Q34 -137 40.5 -140Q47 -143 54.5 -145.5Q62 -148 69.5 -149Q77 -150 85 -150Q110 -150 127.5 -137Q145 -124 157 -103Q169 -82 175 -64.5Q181 -47 197 1ZM332 671 116 580 96 623 308 723Z" glyph-name="yacute" horiz-adv-x="439" unicode="&#253;" /><glyph d="M197 1 25 527H92L203 172Q208 155 212 141Q216 127 219 117.5Q222 108 223 103Q224 98 224 96H226Q230 111 233 121.5Q236 132 239.5 145Q243 158 247 171L350 527H413L244 -41Q231 -83 216.5 -114Q202 -145 184 -166Q166 -187 142.5 -198Q119 -209 89 -209Q77 -209 65 -207.5Q53 -206 42 -203Q31 -200 20.5 -195.5Q10 -191 0 -185L28 -133Q34 -137 40.5 -140Q47 -143 54.5 -145.5Q62 -148 69.5 -149Q77 -150 85 -150Q110 -150 127.5 -137Q145 -124 157 -103Q169 -82 175 -64.5Q181 -47 197 1ZM152 611Q145 611 138.5 613.5Q132 616 127.5 620.5Q123 625 120.5 631.5Q118 638 118 645Q118 652 120.5 658.5Q123 665 127.5 669.5Q132 674 138.5 676.5Q145 679 152 679Q159 679 165.5 676.5Q172 674 177 669.5Q182 665 184.5 658.5Q187 652 187 645Q187 638 184.5 631.5Q182 625 177 620.5Q172 616 165.5 613.5Q159 611 152 611ZM297 611Q290 611 283.5 613.5Q277 616 272.5 620.5Q268 625 265.5 631.5Q263 638 263 645Q263 652 265.5 658.5Q268 665 272.5 669.5Q277 674 283.5 676.5Q290 679 297 679Q304 679 310.5 676.5Q317 674 322 669.5Q327 665 329.5 658.5Q332 652 332 645Q332 638 329.5 631.5Q327 625 322 620.5Q317 616 310.5 613.5Q304 611 297 611Z" glyph-name="ydieresis" horiz-adv-x="439" unicode="&#255;" /><glyph d="M252 0H191V139H71V173H191V214L171 266H71V300H158L14 700H80L198 366Q202 355 205 344.5Q208 334 211 323.5Q214 313 216.5 302.5Q219 292 221 281H223Q227 300 230.5 312.5Q234 325 238.5 339.5Q243 354 247 366L363 700H430L285 300H372V266H273L253 214V173H372V139H252Z" glyph-name="yen" horiz-adv-x="444" unicode="&#165;" /><glyph d="M238 0H181V134H56V168H183L154 230H56V264H138L14 527H82L179 306Q185 294 190 280.5Q195 267 199 255.5Q203 244 209 228H211Q216 244 220 255.5Q224 267 229.5 280.5Q235 294 240 306L338 527H405L280 264H355V230H265L236 168H355V134H238Z" glyph-name="yen.osf" horiz-adv-x="413" /><glyph d="M379 0H26V2L255 403Q263 417 270 428.5Q277 440 282 448.5Q287 457 294 467V469H52V527H393V525L171 136Q163 122 154.5 108.5Q146 95 139 84.5Q132 74 122 60V58H379Z" glyph-name="z" horiz-adv-x="428" unicode="z" /><glyph d="M379 0H26V2L255 403Q263 417 270 428.5Q277 440 282 448.5Q287 457 294 467V469H52V527H393V525L171 136Q163 122 154.5 108.5Q146 95 139 84.5Q132 74 122 60V58H379ZM123 754 171 705Q182 694 191 684Q200 674 206 666.5Q212 659 219 650H221Q221 650 225.5 655.5Q230 661 236 668Q242 675 250.5 685Q259 695 269 705L317 754L357 714L230 592H209L84 714Z" glyph-name="zcaron" horiz-adv-x="428" unicode="&#382;" /><glyph d="M248 -10Q192 -10 154 18Q116 46 93.5 95.5Q71 145 61.5 209Q52 273 52 350Q52 427 61.5 491Q71 555 93.5 604.5Q116 654 154 682Q192 710 248 710Q304 710 342 682Q380 654 402.5 604.5Q425 555 434.5 491Q444 427 444 350Q444 273 434.5 209Q425 145 402.5 95.5Q380 46 342 18Q304 -10 248 -10ZM248 47Q286 47 312.5 70Q339 93 354.5 134Q370 175 377 229.5Q384 284 384 350Q384 416 377 470.5Q370 525 354.5 566Q339 607 312.5 630Q286 653 248 653Q210 653 183.5 630Q157 607 141.5 566Q126 525 119 470.5Q112 416 112 350Q112 284 119 229.5Q126 175 141.5 134Q157 93 183.5 70Q210 47 248 47Z" glyph-name="zero" horiz-adv-x="496" unicode="0" /><glyph d="M247 46Q279 46 304.5 61Q330 76 348 105Q366 134 375 174Q384 214 384 264Q384 313 375 353.5Q366 394 348 422.5Q330 451 304.5 466.5Q279 482 247 482Q215 482 189.5 466.5Q164 451 146.5 422.5Q129 394 120 353.5Q111 313 111 264Q111 215 120 175Q129 135 146.5 106Q164 77 189.5 61.5Q215 46 247 46ZM247 -10Q201 -10 164.5 8.5Q128 27 102 63Q76 99 62.5 149.5Q49 200 49 264Q49 327 62.5 378Q76 429 102 464.5Q128 500 164.5 518.5Q201 537 247 537Q293 537 330 518.5Q367 500 393 464.5Q419 429 432.5 378Q446 327 446 264Q446 200 432.5 149.5Q419 99 393 63Q367 27 330 8.5Q293 -10 247 -10Z" glyph-name="zero.osf" horiz-adv-x="495" /></font>
</defs>
</svg>
