<?xml version="1.0" standalone="no"?><!DOCTYPE svg PUBLIC "-//W3C//DTD SVG 1.1//EN" "http://www.w3.org/Graphics/SVG/1.1/DTD/svg11.dtd" ><svg version="1.1" xmlns="http://www.w3.org/2000/svg"><defs><font horiz-adv-x="0" id="font"><font-face ascent="750" bbox="-69 -260 1368 924" cap-height="700" descent="-250" font-family="Mission Gothic" font-stretch="normal" font-style="normal" font-weight="400" units-per-em="1000" x-height="516" /><missing-glyph horiz-adv-x="0" /><glyph d="M455 0H413L358 190H112L57 0H15L220 700H250ZM347 228 257 542Q254 554 250 568Q246 582 243 593.5Q240 605 236 622H234Q230 605 227 593.5Q224 582 220 568Q216 554 213 542L123 228Z" glyph-name="A" horiz-adv-x="470" unicode="A" /><glyph d="M669 0H340V190H140L47 0H5L350 700H669V662H380V336H629V298H380V38H669ZM340 228V599L158 228Z" glyph-name="AE" horiz-adv-x="719" unicode="&#198;" /><glyph d="M455 0H413L358 190H112L57 0H15L220 700H250ZM347 228 257 542Q254 554 250 568Q246 582 243 593.5Q240 605 236 622H234Q230 605 227 593.5Q224 582 220 568Q216 554 213 542L123 228ZM351 825 139 736 125 767 333 864Z" glyph-name="Aacute" horiz-adv-x="470" unicode="&#193;" /><glyph d="M455 0H413L358 190H112L57 0H15L220 700H250ZM347 228 257 542Q254 554 250 568Q246 582 243 593.5Q240 605 236 622H234Q230 605 227 593.5Q224 582 220 568Q216 554 213 542L123 228ZM335 765 295 806Q283 818 273 829Q263 840 256.5 848Q250 856 242 866H240Q232 855 225 847Q218 839 208.5 828.5Q199 818 187 806L147 765L118 793L241 915L363 793Z" glyph-name="Acircumflex" horiz-adv-x="470" unicode="&#194;" /><glyph d="M455 0H413L358 190H112L57 0H15L220 700H250ZM347 228 257 542Q254 554 250 568Q246 582 243 593.5Q240 605 236 622H234Q230 605 227 593.5Q224 582 220 568Q216 554 213 542L123 228ZM196 793Q196 787 194 782.5Q192 778 188 774.5Q184 771 179.5 769Q175 767 169 767Q163 767 158.5 769Q154 771 150.5 774.5Q147 778 145 782.5Q143 787 143 793Q143 799 145 803.5Q147 808 150.5 812Q154 816 158.5 818Q163 820 169 820Q175 820 179.5 818Q184 816 188 812Q192 808 194 803.5Q196 799 196 793ZM336 793Q336 787 334 782.5Q332 778 328 774.5Q324 771 319.5 769Q315 767 309 767Q303 767 298.5 769Q294 771 290.5 774.5Q287 778 285 782.5Q283 787 283 793Q283 799 285 803.5Q287 808 290.5 812Q294 816 298.5 818Q303 820 309 820Q315 820 319.5 818Q324 816 328 812Q332 808 334 803.5Q336 799 336 793Z" glyph-name="Adieresis" horiz-adv-x="470" unicode="&#196;" /><glyph d="M455 0H413L358 190H112L57 0H15L220 700H250ZM347 228 257 542Q254 554 250 568Q246 582 243 593.5Q240 605 236 622H234Q230 605 227 593.5Q224 582 220 568Q216 554 213 542L123 228ZM312 736 100 825 118 864 326 767Z" glyph-name="Agrave" horiz-adv-x="470" unicode="&#192;" /><glyph d="M455 0H413L358 190H112L57 0H15L220 700H250ZM347 228 257 542Q254 554 250 568Q246 582 243 593.5Q240 605 236 622H234Q230 605 227 593.5Q224 582 220 568Q216 554 213 542L123 228ZM311 842Q311 827 306 814.5Q301 802 291.5 793Q282 784 269 779.5Q256 775 240 775Q224 775 211 779.5Q198 784 188.5 793Q179 802 173.5 814.5Q168 827 168 842Q168 858 173.5 870.5Q179 883 188.5 892Q198 901 211 906Q224 911 240 911Q256 911 269 906Q282 901 291.5 892Q301 883 306 870.5Q311 858 311 842ZM280 842Q280 850 277 857.5Q274 865 268.5 870Q263 875 256 878Q249 881 240 881Q231 881 224 878Q217 875 211.5 870Q206 865 203 857.5Q200 850 200 842Q200 834 203 827Q206 820 211.5 815Q217 810 224 807.5Q231 805 240 805Q249 805 256 807.5Q263 810 268.5 815Q274 820 277 827Q280 834 280 842Z" glyph-name="Aring" horiz-adv-x="470" unicode="&#197;" /><glyph d="M455 0H413L358 190H112L57 0H15L220 700H250ZM347 228 257 542Q254 554 250 568Q246 582 243 593.5Q240 605 236 622H234Q230 605 227 593.5Q224 582 220 568Q216 554 213 542L123 228ZM346 883H385Q385 857 380.5 836.5Q376 816 365.5 801.5Q355 787 338.5 779.5Q322 772 298 772Q276 772 259 782Q242 792 222 812Q202 832 190.5 840.5Q179 849 165 849Q150 849 140 843Q130 837 125 826.5Q120 816 118.5 804Q117 792 117 777H78Q78 803 83 823Q88 843 98.5 857.5Q109 872 125.5 879.5Q142 887 164 887Q186 887 203 876.5Q220 866 240 846Q260 826 271.5 817.5Q283 809 297 809Q313 809 323 815.5Q333 822 338 832.5Q343 843 344.5 855.5Q346 868 346 883Z" glyph-name="Atilde" horiz-adv-x="470" unicode="&#195;" /><glyph d="M263 0H85V700H223Q274 700 312 689Q350 678 375.5 656.5Q401 635 414 603Q427 571 427 528Q427 500 419.5 476.5Q412 453 398 434Q384 415 362.5 401.5Q341 388 313 380V378Q351 372 380 357.5Q409 343 428.5 320.5Q448 298 457.5 267Q467 236 467 197Q467 151 454.5 115Q442 79 416.5 53Q391 27 352.5 13.5Q314 0 263 0ZM125 38H263Q303 38 334 48.5Q365 59 385.5 79.5Q406 100 416.5 129.5Q427 159 427 197Q427 235 416.5 264.5Q406 294 385.5 314.5Q365 335 334 345.5Q303 356 263 356H125ZM125 394H223Q264 394 294.5 403Q325 412 345.5 429Q366 446 376.5 471Q387 496 387 528Q387 565 377 591Q367 617 346.5 632.5Q326 648 295.5 655Q265 662 223 662H125Z" glyph-name="B" horiz-adv-x="516" unicode="B" /><glyph d="M426 161 463 150Q450 113 432 83.5Q414 54 390.5 33Q367 12 336.5 1Q306 -10 270 -10Q213 -10 171 16.5Q129 43 102.5 91.5Q76 140 63 205.5Q50 271 50 350Q50 429 63 494.5Q76 560 102.5 608.5Q129 657 171 683.5Q213 710 270 710Q307 710 338 698.5Q369 687 393.5 664.5Q418 642 436 611Q454 580 466 541L429 529Q419 563 404 589.5Q389 616 369.5 635Q350 654 325 663.5Q300 673 270 673Q224 673 189.5 650Q155 627 133 584Q111 541 100.5 482Q90 423 90 350Q90 277 100.5 218Q111 159 133 116Q155 73 189.5 50Q224 27 270 27Q299 27 323 36Q347 45 366.5 62.5Q386 80 401 104.5Q416 129 426 161Z" glyph-name="C" horiz-adv-x="499" unicode="C" /><glyph glyph-name="CR" horiz-adv-x="260" unicode="" /><glyph d="M163 -203 196 -176Q200 -186 207 -194Q214 -202 223 -208Q232 -214 242.5 -217.5Q253 -221 265 -221Q280 -221 291.5 -217Q303 -213 310.5 -205.5Q318 -198 322 -187.5Q326 -177 326 -165Q326 -153 321.5 -143.5Q317 -134 308 -127Q299 -120 287.5 -116Q276 -112 262 -112Q251 -112 241.5 -114.5Q232 -117 224.5 -120.5Q217 -124 211.5 -128Q206 -132 203 -136L169 -116L196 3Q159 18 131 50Q103 82 85 127.5Q67 173 58.5 229Q50 285 50 350Q50 429 63 494.5Q76 560 102.5 608.5Q129 657 171 683.5Q213 710 270 710Q307 710 338 698.5Q369 687 393.5 664.5Q418 642 436 611Q454 580 466 541L429 529Q419 563 404 589.5Q389 616 369.5 635Q350 654 325 663.5Q300 673 270 673Q224 673 189.5 650Q155 627 133 584Q111 541 100.5 482Q90 423 90 350Q90 277 100.5 218Q111 159 133 116Q155 73 189.5 50Q224 27 270 27Q299 27 323 36Q347 45 366.5 62.5Q386 80 401 104.5Q416 129 426 161L463 150Q450 113 432 83.5Q414 54 390.5 33Q367 12 336.5 1Q306 -10 270 -10Q265 -10 260.5 -9.5Q256 -9 251 -8.5Q246 -8 241.5 -7.5Q237 -7 232 -6L211 -91L213 -92Q219 -88 225.5 -85Q232 -82 240 -79.5Q248 -77 256.5 -75.5Q265 -74 275 -74Q296 -74 313 -81Q330 -88 342 -100.5Q354 -113 360.5 -129.5Q367 -146 367 -165Q367 -184 360.5 -201Q354 -218 341.5 -231.5Q329 -245 310 -252.5Q291 -260 266 -260Q249 -260 233 -256Q217 -252 203 -244.5Q189 -237 178.5 -226.5Q168 -216 163 -203Z" glyph-name="Ccedilla" horiz-adv-x="499" unicode="&#199;" /><glyph d="M227 0H85V700H217Q285 700 334 675Q383 650 413.5 603.5Q444 557 458.5 493Q473 429 473 350Q473 271 459 207Q445 143 415 96.5Q385 50 338 25Q291 0 227 0ZM125 37H227Q279 37 318.5 58.5Q358 80 383 120.5Q408 161 420.5 219Q433 277 433 350Q433 424 420.5 481.5Q408 539 381.5 579.5Q355 620 314 641.5Q273 663 217 663H125Z" glyph-name="D" horiz-adv-x="528" unicode="D" /><glyph d="M414 0H85V700H414V662H125V336H374V298H125V38H414Z" glyph-name="E" horiz-adv-x="484" unicode="E" /><glyph d="M414 0H85V700H414V662H125V336H374V298H125V38H414ZM371 825 159 736 145 767 353 864Z" glyph-name="Eacute" horiz-adv-x="484" unicode="&#201;" /><glyph d="M414 0H85V700H414V662H125V336H374V298H125V38H414ZM339 765 299 806Q287 818 277 829Q267 840 260.5 848Q254 856 246 866H244Q236 855 229 847Q222 839 212.5 828.5Q203 818 191 806L151 765L122 793L245 915L367 793Z" glyph-name="Ecircumflex" horiz-adv-x="484" unicode="&#202;" /><glyph d="M414 0H85V700H414V662H125V336H374V298H125V38H414ZM204 793Q204 787 202 782.5Q200 778 196 774.5Q192 771 187.5 769Q183 767 177 767Q171 767 166.5 769Q162 771 158.5 774.5Q155 778 153 782.5Q151 787 151 793Q151 799 153 803.5Q155 808 158.5 812Q162 816 166.5 818Q171 820 177 820Q183 820 187.5 818Q192 816 196 812Q200 808 202 803.5Q204 799 204 793ZM344 793Q344 787 342 782.5Q340 778 336 774.5Q332 771 327.5 769Q323 767 317 767Q311 767 306.5 769Q302 771 298.5 774.5Q295 778 293 782.5Q291 787 291 793Q291 799 293 803.5Q295 808 298.5 812Q302 816 306.5 818Q311 820 317 820Q323 820 327.5 818Q332 816 336 812Q340 808 342 803.5Q344 799 344 793Z" glyph-name="Edieresis" horiz-adv-x="484" unicode="&#203;" /><glyph d="M414 0H85V700H414V662H125V336H374V298H125V38H414ZM340 736 128 825 146 864 354 767Z" glyph-name="Egrave" horiz-adv-x="484" unicode="&#200;" /><glyph d="M227 0H85V332H28V370H85V700H217Q285 700 334 675Q383 650 413.5 603.5Q444 557 458.5 493Q473 429 473 350Q473 271 459 207Q445 143 415 96.5Q385 50 338 25Q291 0 227 0ZM125 37H227Q279 37 318.5 58.5Q358 80 383 120.5Q408 161 420.5 219Q433 277 433 350Q433 424 420.5 481.5Q408 539 381.5 579.5Q355 620 314 641.5Q273 663 217 663H125V370H256V332H125Z" glyph-name="Eth" horiz-adv-x="528" unicode="&#208;" /><glyph d="M390 163 428 154Q418 115 403.5 85Q389 55 367.5 34Q346 13 317 1.5Q288 -10 251 -10Q200 -10 163.5 12Q127 34 104 74Q81 114 70 168.5Q59 223 56 293H11V327H55V373H11V407H56Q59 476 70 531Q81 586 104 626Q127 666 163.5 688Q200 710 251 710Q289 710 318.5 698Q348 686 369.5 663.5Q391 641 406 609Q421 577 430 536L392 527Q384 562 372 588.5Q360 615 343 634Q326 653 303 663Q280 673 251 673Q211 673 182 654.5Q153 636 135 601Q117 566 108 517.5Q99 469 96 407H249V373H95V327H249V293H96Q99 231 108 182.5Q117 134 135 99Q153 64 182 45.5Q211 27 251 27Q279 27 301.5 36Q324 45 341 62.5Q358 80 370 105Q382 130 390 163Z" glyph-name="Euro" horiz-adv-x="473" unicode="&#8364;" /><glyph d="M352 140 391 129Q382 96 368 70.5Q354 45 334.5 27Q315 9 288.5 -0.5Q262 -10 230 -10Q194 -10 164 3.5Q134 17 112 42.5Q90 68 76 105Q62 142 56 189H16V223H53Q53 227 52.5 231Q52 235 52 239.5Q52 244 52 248Q52 252 52 258V279H16V313H54Q59 363 73 402.5Q87 442 109.5 469.5Q132 497 162 511.5Q192 526 230 526Q262 526 288 516.5Q314 507 333.5 489Q353 471 367 446Q381 421 390 389L351 378Q344 404 333 424.5Q322 445 307 459Q292 473 272.5 480.5Q253 488 230 488Q201 488 177.5 476.5Q154 465 137 442.5Q120 420 109.5 387.5Q99 355 95 313H229V279H93V258Q93 252 93 248Q93 244 93 239.5Q93 235 93.5 231Q94 227 94 223H229V189H97Q102 150 113 120Q124 90 140.5 69.5Q157 49 179.5 38.5Q202 28 230 28Q253 28 272.5 35.5Q292 43 307.5 57.5Q323 72 334 93Q345 114 352 140Z" glyph-name="Euro.osf" horiz-adv-x="426" /><glyph d="M125 0H85V700H414V662H125V317H374V279H125Z" glyph-name="F" horiz-adv-x="459" unicode="F" /><glyph d="M449 296H310V334H490Q490 259 478 196.5Q466 134 440 87.5Q414 41 373.5 15.5Q333 -10 278 -10Q221 -10 179 16.5Q137 43 110.5 91.5Q84 140 71 205.5Q58 271 58 350Q58 429 71 494.5Q84 560 110.5 608.5Q137 657 179 683.5Q221 710 278 710Q316 710 348 697.5Q380 685 404.5 662Q429 639 447 606.5Q465 574 477 533L438 522Q428 557 413.5 585Q399 613 379 632.5Q359 652 333.5 662.5Q308 673 278 673Q232 673 197.5 650Q163 627 141 584Q119 541 108.5 482Q98 423 98 350Q98 277 108.5 218Q119 159 141 116Q163 73 197.5 50Q232 27 278 27Q319 27 350.5 46Q382 65 403 100.5Q424 136 435 185.5Q446 235 449 296Z" glyph-name="G" horiz-adv-x="542" unicode="G" /><glyph d="M465 0H425V305H125V0H85V700H125V343H425V700H465Z" glyph-name="H" horiz-adv-x="550" unicode="H" /><glyph d="M125 0H85V700H125Z" glyph-name="I" horiz-adv-x="210" unicode="I" /><glyph d="M128 0H88V700H128ZM229 825 17 736 3 767 211 864Z" glyph-name="Iacute" horiz-adv-x="210" unicode="&#205;" /><glyph d="M125 0H85V700H125ZM202 765 162 806Q150 818 140 829Q130 840 123.5 848Q117 856 109 866H107Q99 855 92 847Q85 839 75.5 828.5Q66 818 54 806L14 765L-15 793L108 915L230 793Z" glyph-name="Icircumflex" horiz-adv-x="210" unicode="&#206;" /><glyph d="M127 0H87V700H127ZM66 793Q66 787 64 782.5Q62 778 58 774.5Q54 771 49.5 769Q45 767 39 767Q33 767 28.5 769Q24 771 20.5 774.5Q17 778 15 782.5Q13 787 13 793Q13 799 15 803.5Q17 808 20.5 812Q24 816 28.5 818Q33 820 39 820Q45 820 49.5 818Q54 816 58 812Q62 808 64 803.5Q66 799 66 793ZM206 793Q206 787 204 782.5Q202 778 198 774.5Q194 771 189.5 769Q185 767 179 767Q173 767 168.5 769Q164 771 160.5 774.5Q157 778 155 782.5Q153 787 153 793Q153 799 155 803.5Q157 808 160.5 812Q164 816 168.5 818Q173 820 179 820Q185 820 189.5 818Q194 816 198 812Q202 808 204 803.5Q206 799 206 793Z" glyph-name="Idieresis" horiz-adv-x="210" unicode="&#207;" /><glyph d="M127 0H87V700H127ZM191 736 -21 825 -3 864 205 767Z" glyph-name="Igrave" horiz-adv-x="210" unicode="&#204;" /><glyph d="M8 3 22 40Q28 37 35 34.5Q42 32 49.5 30.5Q57 29 64.5 28.5Q72 28 81 28Q115 28 140 40.5Q165 53 181 77.5Q197 102 205 139.5Q213 177 213 227V700H253V234Q253 173 243 127.5Q233 82 212.5 51.5Q192 21 159 5.5Q126 -10 81 -10Q70 -10 60.5 -9Q51 -8 42 -6.5Q33 -5 24.5 -2.5Q16 0 8 3Z" glyph-name="J" horiz-adv-x="327" unicode="J" /><glyph d="M474 0H428L255 308Q249 319 242.5 330.5Q236 342 230.5 352Q225 362 218 376H215Q206 362 199.5 352.5Q193 343 185 331.5Q177 320 169 310L125 252V0H85V700H125V393Q125 382 125 368Q125 354 124.5 342Q124 330 124 312H126Q136 327 143 337Q150 347 158 358.5Q166 370 173 379L410 700H460L242 408Z" glyph-name="K" horiz-adv-x="499" unicode="K" /><glyph d="M414 0H85V700H125V38H414Z" glyph-name="L" horiz-adv-x="439" unicode="L" /><glyph d="M408 0H79V250L36 232L22 267L79 292V700H119V309L295 386L309 351L119 268V38H408Z" glyph-name="Lslash" horiz-adv-x="434" unicode="&#321;" /><glyph d="M565 0H525V538Q525 552 525 566.5Q525 581 525.5 592Q526 603 526 619H524Q518 605 513.5 595Q509 585 503 572.5Q497 560 491 549L332 236H316L159 549Q153 560 147 572.5Q141 585 136.5 595Q132 605 126 619H124Q124 602 124.5 590.5Q125 579 125 565Q125 551 125 538V0H85V700H125L288 377Q294 366 300 353.5Q306 341 311 330.5Q316 320 323 304H325Q332 320 337.5 330.5Q343 341 349 354Q355 367 361 378L525 700H565Z" glyph-name="M" horiz-adv-x="650" unicode="M" /><glyph d="M495 0H459L161 540Q153 554 146.5 568Q140 582 135 593Q130 604 123 619H121Q122 602 123 589.5Q124 577 124.5 561Q125 545 125 528V0H85V700H120L417 159Q423 148 429.5 134.5Q436 121 442 109Q448 97 456 79H458Q457 100 456.5 114Q456 128 455.5 143Q455 158 455 169V700H495Z" glyph-name="N" horiz-adv-x="580" unicode="N" /><glyph glyph-name="NUL" horiz-adv-x="412" /><glyph d="M495 0H459L161 540Q153 554 146.5 568Q140 582 135 593Q130 604 123 619H121Q122 602 123 589.5Q124 577 124.5 561Q125 545 125 528V0H85V700H120L417 159Q423 148 429.5 134.5Q436 121 442 109Q448 97 456 79H458Q457 100 456.5 114Q456 128 455.5 143Q455 158 455 169V700H495ZM406 883H445Q445 857 440.5 836.5Q436 816 425.5 801.5Q415 787 398.5 779.5Q382 772 358 772Q336 772 319 782Q302 792 282 812Q262 832 250.5 840.5Q239 849 225 849Q210 849 200 843Q190 837 185 826.5Q180 816 178.5 804Q177 792 177 777H138Q138 803 143 823Q148 843 158.5 857.5Q169 872 185.5 879.5Q202 887 224 887Q246 887 263 876.5Q280 866 300 846Q320 826 331.5 817.5Q343 809 357 809Q373 809 383 815.5Q393 822 398 832.5Q403 843 404.5 855.5Q406 868 406 883Z" glyph-name="Ntilde" horiz-adv-x="580" unicode="&#209;" /><glyph d="M270 -10Q213 -10 171 16.5Q129 43 102.5 91.5Q76 140 63 205.5Q50 271 50 350Q50 429 63 494.5Q76 560 102.5 608.5Q129 657 171 683.5Q213 710 270 710Q327 710 369 683.5Q411 657 438 608.5Q465 560 478 494.5Q491 429 491 350Q491 271 478 205.5Q465 140 438 91.5Q411 43 369 16.5Q327 -10 270 -10ZM270 27Q316 27 350.5 50Q385 73 407.5 116Q430 159 440.5 218Q451 277 451 350Q451 423 440.5 482Q430 541 407.5 584Q385 627 350.5 650Q316 673 270 673Q224 673 189.5 650Q155 627 133 584Q111 541 100.5 482Q90 423 90 350Q90 277 100.5 218Q111 159 133 116Q155 73 189.5 50Q224 27 270 27Z" glyph-name="O" horiz-adv-x="541" unicode="O" /><glyph d="M641 0H265Q208 0 167.5 25Q127 50 102.5 96.5Q78 143 66.5 206.5Q55 270 55 350Q55 430 66.5 493.5Q78 557 102.5 603.5Q127 650 167.5 675Q208 700 265 700H641V662H352V336H601V298H352V38H641ZM312 37V663H265Q220 663 187.5 641Q155 619 134.5 578.5Q114 538 104.5 480.5Q95 423 95 350Q95 277 104.5 219.5Q114 162 134.5 121.5Q155 81 187.5 59Q220 37 265 37Z" glyph-name="OE" horiz-adv-x="682" unicode="&#338;" /><glyph d="M270 -10Q213 -10 171 16.5Q129 43 102.5 91.5Q76 140 63 205.5Q50 271 50 350Q50 429 63 494.5Q76 560 102.5 608.5Q129 657 171 683.5Q213 710 270 710Q327 710 369 683.5Q411 657 438 608.5Q465 560 478 494.5Q491 429 491 350Q491 271 478 205.5Q465 140 438 91.5Q411 43 369 16.5Q327 -10 270 -10ZM270 27Q316 27 350.5 50Q385 73 407.5 116Q430 159 440.5 218Q451 277 451 350Q451 423 440.5 482Q430 541 407.5 584Q385 627 350.5 650Q316 673 270 673Q224 673 189.5 650Q155 627 133 584Q111 541 100.5 482Q90 423 90 350Q90 277 100.5 218Q111 159 133 116Q155 73 189.5 50Q224 27 270 27ZM380 825 168 736 154 767 362 864Z" glyph-name="Oacute" horiz-adv-x="541" unicode="&#211;" /><glyph d="M270 -10Q213 -10 171 16.5Q129 43 102.5 91.5Q76 140 63 205.5Q50 271 50 350Q50 429 63 494.5Q76 560 102.5 608.5Q129 657 171 683.5Q213 710 270 710Q327 710 369 683.5Q411 657 438 608.5Q465 560 478 494.5Q491 429 491 350Q491 271 478 205.5Q465 140 438 91.5Q411 43 369 16.5Q327 -10 270 -10ZM270 27Q316 27 350.5 50Q385 73 407.5 116Q430 159 440.5 218Q451 277 451 350Q451 423 440.5 482Q430 541 407.5 584Q385 627 350.5 650Q316 673 270 673Q224 673 189.5 650Q155 627 133 584Q111 541 100.5 482Q90 423 90 350Q90 277 100.5 218Q111 159 133 116Q155 73 189.5 50Q224 27 270 27ZM365 765 325 806Q313 818 303 829Q293 840 286.5 848Q280 856 272 866H270Q262 855 255 847Q248 839 238.5 828.5Q229 818 217 806L177 765L148 793L271 915L393 793Z" glyph-name="Ocircumflex" horiz-adv-x="541" unicode="&#212;" /><glyph d="M270 -10Q213 -10 171 16.5Q129 43 102.5 91.5Q76 140 63 205.5Q50 271 50 350Q50 429 63 494.5Q76 560 102.5 608.5Q129 657 171 683.5Q213 710 270 710Q327 710 369 683.5Q411 657 438 608.5Q465 560 478 494.5Q491 429 491 350Q491 271 478 205.5Q465 140 438 91.5Q411 43 369 16.5Q327 -10 270 -10ZM270 27Q316 27 350.5 50Q385 73 407.5 116Q430 159 440.5 218Q451 277 451 350Q451 423 440.5 482Q430 541 407.5 584Q385 627 350.5 650Q316 673 270 673Q224 673 189.5 650Q155 627 133 584Q111 541 100.5 482Q90 423 90 350Q90 277 100.5 218Q111 159 133 116Q155 73 189.5 50Q224 27 270 27ZM226 793Q226 787 224 782.5Q222 778 218 774.5Q214 771 209.5 769Q205 767 199 767Q193 767 188.5 769Q184 771 180.5 774.5Q177 778 175 782.5Q173 787 173 793Q173 799 175 803.5Q177 808 180.5 812Q184 816 188.5 818Q193 820 199 820Q205 820 209.5 818Q214 816 218 812Q222 808 224 803.5Q226 799 226 793ZM366 793Q366 787 364 782.5Q362 778 358 774.5Q354 771 349.5 769Q345 767 339 767Q333 767 328.5 769Q324 771 320.5 774.5Q317 778 315 782.5Q313 787 313 793Q313 799 315 803.5Q317 808 320.5 812Q324 816 328.5 818Q333 820 339 820Q345 820 349.5 818Q354 816 358 812Q362 808 364 803.5Q366 799 366 793Z" glyph-name="Odieresis" horiz-adv-x="541" unicode="&#214;" /><glyph d="M270 -10Q213 -10 171 16.5Q129 43 102.5 91.5Q76 140 63 205.5Q50 271 50 350Q50 429 63 494.5Q76 560 102.5 608.5Q129 657 171 683.5Q213 710 270 710Q327 710 369 683.5Q411 657 438 608.5Q465 560 478 494.5Q491 429 491 350Q491 271 478 205.5Q465 140 438 91.5Q411 43 369 16.5Q327 -10 270 -10ZM270 27Q316 27 350.5 50Q385 73 407.5 116Q430 159 440.5 218Q451 277 451 350Q451 423 440.5 482Q430 541 407.5 584Q385 627 350.5 650Q316 673 270 673Q224 673 189.5 650Q155 627 133 584Q111 541 100.5 482Q90 423 90 350Q90 277 100.5 218Q111 159 133 116Q155 73 189.5 50Q224 27 270 27ZM361 736 149 825 167 864 375 767Z" glyph-name="Ograve" horiz-adv-x="541" unicode="&#210;" /><glyph d="M271 -10Q214 -10 172 16.5Q130 43 103.5 91.5Q77 140 64 205.5Q51 271 51 350Q51 429 64 494.5Q77 560 103.5 608.5Q130 657 172 683.5Q214 710 271 710Q328 710 370 683.5Q412 657 439 608.5Q466 560 479 494.5Q492 429 492 350Q492 271 479 205.5Q466 140 439 91.5Q412 43 370 16.5Q328 -10 271 -10ZM376 629 198 46Q206 41 214.5 37.5Q223 34 232 32Q241 30 251 28.5Q261 27 271 27Q317 27 351.5 50Q386 73 408.5 116Q431 159 441.5 218Q452 277 452 350Q452 397 447.5 438.5Q443 480 433.5 516Q424 552 409.5 580.5Q395 609 376 629ZM165 71 343 655Q335 659 326.5 662.5Q318 666 309 668.5Q300 671 290.5 672Q281 673 271 673Q225 673 190.5 650Q156 627 134 584Q112 541 101.5 482Q91 423 91 350Q91 303 95.5 261Q100 219 109 183.5Q118 148 132 119.5Q146 91 165 71Z" glyph-name="Oslash" horiz-adv-x="542" unicode="&#216;" /><glyph d="M270 -10Q213 -10 171 16.5Q129 43 102.5 91.5Q76 140 63 205.5Q50 271 50 350Q50 429 63 494.5Q76 560 102.5 608.5Q129 657 171 683.5Q213 710 270 710Q327 710 369 683.5Q411 657 438 608.5Q465 560 478 494.5Q491 429 491 350Q491 271 478 205.5Q465 140 438 91.5Q411 43 369 16.5Q327 -10 270 -10ZM270 27Q316 27 350.5 50Q385 73 407.5 116Q430 159 440.5 218Q451 277 451 350Q451 423 440.5 482Q430 541 407.5 584Q385 627 350.5 650Q316 673 270 673Q224 673 189.5 650Q155 627 133 584Q111 541 100.5 482Q90 423 90 350Q90 277 100.5 218Q111 159 133 116Q155 73 189.5 50Q224 27 270 27ZM385 883H424Q424 857 419.5 836.5Q415 816 404.5 801.5Q394 787 377.5 779.5Q361 772 337 772Q315 772 298 782Q281 792 261 812Q241 832 229.5 840.5Q218 849 204 849Q189 849 179 843Q169 837 164 826.5Q159 816 157.5 804Q156 792 156 777H117Q117 803 122 823Q127 843 137.5 857.5Q148 872 164.5 879.5Q181 887 203 887Q225 887 242 876.5Q259 866 279 846Q299 826 310.5 817.5Q322 809 336 809Q352 809 362 815.5Q372 822 377 832.5Q382 843 383.5 855.5Q385 868 385 883Z" glyph-name="Otilde" horiz-adv-x="541" unicode="&#213;" /><glyph d="M125 0H85V700H243Q301 700 343.5 682Q386 664 413.5 630.5Q441 597 454 551Q467 505 467 448Q467 391 454 345Q441 299 413.5 265.5Q386 232 343.5 214Q301 196 243 196H125ZM125 234H243Q291 234 326 249Q361 264 383 292Q405 320 416 359Q427 398 427 448Q427 498 416 537Q405 576 383 604Q361 632 326 647Q291 662 243 662H125Z" glyph-name="P" horiz-adv-x="496" unicode="P" /><glyph d="M437 -62 411 -90Q398 -78 387 -66Q376 -54 368 -42.5Q360 -31 354 -20.5Q348 -10 342 2Q334 -1 325.5 -3Q317 -5 308 -6.5Q299 -8 290 -9Q281 -10 271 -10Q214 -10 172 16.5Q130 43 103.5 91.5Q77 140 64 205.5Q51 271 51 350Q51 429 64 494.5Q77 560 103.5 608.5Q130 657 172 683.5Q214 710 271 710Q328 710 370 683.5Q412 657 439 608.5Q466 560 479 494.5Q492 429 492 350Q492 293 485 242Q478 191 463.5 148.5Q449 106 426.5 73Q404 40 375 20V18Q380 8 386 -1.5Q392 -11 399.5 -21Q407 -31 416.5 -41Q426 -51 437 -62ZM359 53 361 52Q384 70 401.5 99.5Q419 129 430 167.5Q441 206 446.5 252Q452 298 452 350Q452 423 441.5 482Q431 541 408.5 584Q386 627 351.5 650Q317 673 271 673Q225 673 190.5 650Q156 627 134 584Q112 541 101.5 482Q91 423 91 350Q91 277 101.5 218Q112 159 134 116Q156 73 190.5 50Q225 27 271 27Q279 27 286 27.5Q293 28 300 29.5Q307 31 314 32.5Q321 34 327 37Q319 58 315 67.5Q311 77 305 90.5Q299 104 290.5 119Q282 134 272 150L301 172Q312 157 320 141.5Q328 126 334.5 112Q341 98 349.5 77Q358 56 359 53Z" glyph-name="Q" horiz-adv-x="542" unicode="Q" /><glyph d="M460 0H415L300 241Q294 240 287 239Q280 238 273 237Q266 236 258.5 236Q251 236 243 236H125V0H85V700H243Q299 700 341.5 683.5Q384 667 412 636.5Q440 606 453.5 563.5Q467 521 467 468Q467 428 459 393.5Q451 359 435 331Q419 303 394.5 282.5Q370 262 338 251ZM125 274H243Q289 274 323.5 287.5Q358 301 381 326Q404 351 415.5 387Q427 423 427 468Q427 513 415.5 549Q404 585 381 610Q358 635 323.5 648.5Q289 662 243 662H125Z" glyph-name="R" horiz-adv-x="528" unicode="R" /><glyph d="M39 117 74 138Q86 113 104 92.5Q122 72 145 57.5Q168 43 195.5 35.5Q223 28 253 28Q292 28 321 40Q350 52 369 72.5Q388 93 397 118.5Q406 144 406 171Q406 205 392.5 231Q379 257 357 276Q335 295 309 308.5Q283 322 245 339Q202 359 173 374.5Q144 390 118.5 412.5Q93 435 77.5 466Q62 497 62 537Q62 573 75 605Q88 637 112.5 660.5Q137 684 172 697Q207 710 251 710Q286 710 315.5 701.5Q345 693 368 676.5Q391 660 408.5 636.5Q426 613 437 584L401 567Q393 588 380 606.5Q367 625 348 640Q329 655 304 663.5Q279 672 249 672Q216 672 188.5 662Q161 652 142 633.5Q123 615 112.5 590.5Q102 566 102 538Q102 506 115.5 481Q129 456 151 437.5Q173 419 197.5 406Q222 393 258 377Q303 357 334 340Q365 323 390.5 300Q416 277 431 246Q446 215 446 174Q446 136 433.5 102.5Q421 69 396.5 43.5Q372 18 336 4Q300 -10 253 -10Q216 -10 183 -0.5Q150 9 122 26Q94 43 73 66Q52 89 39 117Z" glyph-name="S" horiz-adv-x="489" unicode="S" /><glyph d="M74 138 39 117Q52 89 73 66Q94 43 122 26Q150 9 183 -0.5Q216 -10 253 -10Q300 -10 336 4Q372 18 396.5 43.5Q421 69 433.5 102.5Q446 136 446 174Q446 215 431 246Q416 277 390.5 300Q365 323 334 340Q303 357 258 377Q222 393 197.5 406Q173 419 151 437.5Q129 456 115.5 481Q102 506 102 538Q102 566 112.5 590.5Q123 615 142 633.5Q161 652 188.5 662Q216 672 249 672Q279 672 304 663.5Q329 655 348 640Q367 625 380 606.5Q393 588 401 567L437 584Q426 613 408.5 636.5Q391 660 368 676.5Q345 693 315.5 701.5Q286 710 251 710Q207 710 172 697Q137 684 112.5 660.5Q88 637 75 605Q62 573 62 537Q62 497 77.5 466Q93 435 118.5 412.5Q144 390 173 374.5Q202 359 245 339Q283 322 309 308.5Q335 295 357 276Q379 257 392.5 231Q406 205 406 171Q406 144 397 118.5Q388 93 369 72.5Q350 52 321 40Q292 28 253 28Q223 28 195.5 35.5Q168 43 145 57.5Q122 72 104 92.5Q86 113 74 138ZM157 924 197 883Q209 871 219 860Q229 849 235.5 841Q242 833 250 823H252Q260 834 267 842Q274 850 283.5 860.5Q293 871 305 883L345 924L374 896L251 774L129 896Z" glyph-name="Scaron" horiz-adv-x="489" unicode="&#352;" /><glyph d="M239 0H199V662H25V700H412V662H239Z" glyph-name="T" horiz-adv-x="437" unicode="T" /><glyph d="M125 0H85V700H125V610H223Q274 610 312.5 592Q351 574 376.5 540.5Q402 507 414.5 460.5Q427 414 427 358Q427 301 414.5 254.5Q402 208 376.5 175Q351 142 312.5 124Q274 106 223 106H125ZM125 144H223Q263 144 294 159Q325 174 345.5 202Q366 230 376.5 269.5Q387 309 387 358Q387 407 376.5 446.5Q366 486 345.5 514Q325 542 294 557Q263 572 223 572H125Z" glyph-name="Thorn" horiz-adv-x="466" unicode="&#222;" /><glyph d="M420 227V700H460V234Q460 174 447 128.5Q434 83 409.5 52Q385 21 349 5.5Q313 -10 267 -10Q221 -10 185 5.5Q149 21 124.5 52Q100 83 87 128.5Q74 174 74 234V700H114V227Q114 178 125 140.5Q136 103 156 78Q176 53 204 40.5Q232 28 267 28Q302 28 330.5 40.5Q359 53 379 77.5Q399 102 409.5 140Q420 178 420 227Z" glyph-name="U" horiz-adv-x="534" unicode="U" /><glyph d="M870 69V107H542V69ZM705 199Q666 199 636.5 214.5Q607 230 587.5 259Q568 288 558.5 328.5Q549 369 549 419Q549 469 558.5 509.5Q568 550 587.5 579.5Q607 609 636.5 624.5Q666 640 705 640Q744 640 773.5 624.5Q803 609 823 579.5Q843 550 852.5 509.5Q862 469 862 419Q862 369 852.5 328.5Q843 288 823 259Q803 230 773.5 214.5Q744 199 705 199ZM705 240Q734 240 756 252Q778 264 793 287Q808 310 815 343.5Q822 377 822 419Q822 462 815 495Q808 528 793 551.5Q778 575 756 587Q734 599 705 599Q676 599 654 587Q632 575 617.5 551.5Q603 528 596 495Q589 462 589 419Q589 377 596 343.5Q603 310 617.5 287Q632 264 654 252Q676 240 705 240ZM465 0H429L131 540Q123 554 116.5 568Q110 582 105 593Q100 604 93 619H91Q92 602 93 589.5Q94 577 94.5 561Q95 545 95 528V0H55V700H90L387 159Q393 148 399.5 134.5Q406 121 412 109Q418 97 426 79H428Q427 100 426.5 114Q426 128 425.5 143Q425 158 425 169V700H465Z" glyph-name="UNI2116" horiz-adv-x="921" unicode="&#8470;" /><glyph d="M420 227V700H460V234Q460 174 447 128.5Q434 83 409.5 52Q385 21 349 5.5Q313 -10 267 -10Q221 -10 185 5.5Q149 21 124.5 52Q100 83 87 128.5Q74 174 74 234V700H114V227Q114 178 125 140.5Q136 103 156 78Q176 53 204 40.5Q232 28 267 28Q302 28 330.5 40.5Q359 53 379 77.5Q399 102 409.5 140Q420 178 420 227ZM389 825 177 736 163 767 371 864Z" glyph-name="Uacute" horiz-adv-x="534" unicode="&#218;" /><glyph d="M420 227V700H460V234Q460 174 447 128.5Q434 83 409.5 52Q385 21 349 5.5Q313 -10 267 -10Q221 -10 185 5.5Q149 21 124.5 52Q100 83 87 128.5Q74 174 74 234V700H114V227Q114 178 125 140.5Q136 103 156 78Q176 53 204 40.5Q232 28 267 28Q302 28 330.5 40.5Q359 53 379 77.5Q399 102 409.5 140Q420 178 420 227ZM363 765 323 806Q311 818 301 829Q291 840 284.5 848Q278 856 270 866H268Q260 855 253 847Q246 839 236.5 828.5Q227 818 215 806L175 765L146 793L269 915L391 793Z" glyph-name="Ucircumflex" horiz-adv-x="534" unicode="&#219;" /><glyph d="M420 227V700H460V234Q460 174 447 128.5Q434 83 409.5 52Q385 21 349 5.5Q313 -10 267 -10Q221 -10 185 5.5Q149 21 124.5 52Q100 83 87 128.5Q74 174 74 234V700H114V227Q114 178 125 140.5Q136 103 156 78Q176 53 204 40.5Q232 28 267 28Q302 28 330.5 40.5Q359 53 379 77.5Q399 102 409.5 140Q420 178 420 227ZM224 793Q224 787 222 782.5Q220 778 216 774.5Q212 771 207.5 769Q203 767 197 767Q191 767 186.5 769Q182 771 178.5 774.5Q175 778 173 782.5Q171 787 171 793Q171 799 173 803.5Q175 808 178.5 812Q182 816 186.5 818Q191 820 197 820Q203 820 207.5 818Q212 816 216 812Q220 808 222 803.5Q224 799 224 793ZM364 793Q364 787 362 782.5Q360 778 356 774.5Q352 771 347.5 769Q343 767 337 767Q331 767 326.5 769Q322 771 318.5 774.5Q315 778 313 782.5Q311 787 311 793Q311 799 313 803.5Q315 808 318.5 812Q322 816 326.5 818Q331 820 337 820Q343 820 347.5 818Q352 816 356 812Q360 808 362 803.5Q364 799 364 793Z" glyph-name="Udieresis" horiz-adv-x="534" unicode="&#220;" /><glyph d="M420 227V700H460V234Q460 174 447 128.5Q434 83 409.5 52Q385 21 349 5.5Q313 -10 267 -10Q221 -10 185 5.5Q149 21 124.5 52Q100 83 87 128.5Q74 174 74 234V700H114V227Q114 178 125 140.5Q136 103 156 78Q176 53 204 40.5Q232 28 267 28Q302 28 330.5 40.5Q359 53 379 77.5Q399 102 409.5 140Q420 178 420 227ZM362 736 150 825 168 864 376 767Z" glyph-name="Ugrave" horiz-adv-x="534" unicode="&#217;" /><glyph d="M250 0H220L5 700H47L213 159Q216 147 220 132.5Q224 118 227 105Q230 92 234 72H236Q240 92 243 105Q246 118 250 132.5Q254 147 257 159L422 700H465Z" glyph-name="V" horiz-adv-x="470" unicode="V" /><glyph d="M548 0H518L386 529Q382 546 378.5 562.5Q375 579 373 592.5Q371 606 368 624H366Q363 606 361 592.5Q359 579 355.5 562.5Q352 546 348 529L217 0H187L5 700H47L182 170Q185 159 188 143.5Q191 128 194 113.5Q197 99 201 77H203Q207 99 209.5 113.5Q212 128 215 143.5Q218 159 221 170L352 700H381L513 170Q516 158 519.5 142.5Q523 127 525.5 113Q528 99 532 77H534Q538 99 540.5 113Q543 127 546.5 142.5Q550 158 553 170L686 700H729Z" glyph-name="W" horiz-adv-x="734" unicode="W" /><glyph d="M438 0H394L268 248Q263 259 257 271.5Q251 284 246 295Q241 306 234 322H232Q225 306 220 294.5Q215 283 209 270Q203 257 197 245L74 0H28L207 350L29 700H74L197 453Q203 441 209 428Q215 415 220 403.5Q225 392 232 376H234Q241 393 246 404Q251 415 257 428Q263 441 268 452L393 700H438L260 350Z" glyph-name="X" horiz-adv-x="467" unicode="X" /><glyph d="M235 0H195V213L15 700H57L187 344Q192 330 196.5 314.5Q201 299 205 285.5Q209 272 214 252H216Q221 272 224.5 285.5Q228 299 233 314.5Q238 330 243 344L372 700H415L235 213Z" glyph-name="Y" horiz-adv-x="430" unicode="Y" /><glyph d="M235 0H195V213L15 700H57L187 344Q192 330 196.5 314.5Q201 299 205 285.5Q209 272 214 252H216Q221 272 224.5 285.5Q228 299 233 314.5Q238 330 243 344L372 700H415L235 213ZM326 825 114 736 100 767 308 864Z" glyph-name="Yacute" horiz-adv-x="430" unicode="&#221;" /><glyph d="M235 0H195V213L15 700H57L187 344Q192 330 196.5 314.5Q201 299 205 285.5Q209 272 214 252H216Q221 272 224.5 285.5Q228 299 233 314.5Q238 330 243 344L372 700H415L235 213ZM172 793Q172 787 170 782.5Q168 778 164 774.5Q160 771 155.5 769Q151 767 145 767Q139 767 134.5 769Q130 771 126.5 774.5Q123 778 121 782.5Q119 787 119 793Q119 799 121 803.5Q123 808 126.5 812Q130 816 134.5 818Q139 820 145 820Q151 820 155.5 818Q160 816 164 812Q168 808 170 803.5Q172 799 172 793ZM312 793Q312 787 310 782.5Q308 778 304 774.5Q300 771 295.5 769Q291 767 285 767Q279 767 274.5 769Q270 771 266.5 774.5Q263 778 261 782.5Q259 787 259 793Q259 799 261 803.5Q263 808 266.5 812Q270 816 274.5 818Q279 820 285 820Q291 820 295.5 818Q300 816 304 812Q308 808 310 803.5Q312 799 312 793Z" glyph-name="Ydieresis" horiz-adv-x="430" unicode="&#376;" /><glyph d="M426 0H27L332 590Q339 603 346.5 616Q354 629 360 639Q366 649 374 663V665Q359 664 348 663.5Q337 663 323 662.5Q309 662 294 662H52V700H436L130 110Q123 97 116 84Q109 71 103 61Q97 51 88 37V35Q103 36 114 36.5Q125 37 139 37.5Q153 38 168 38H426Z" glyph-name="Z" horiz-adv-x="470" unicode="Z" /><glyph d="M426 0H27L332 590Q339 603 346.5 616Q354 629 360 639Q366 649 374 663V665Q359 664 348 663.5Q337 663 323 662.5Q309 662 294 662H52V700H436L130 110Q123 97 116 84Q109 71 103 61Q97 51 88 37V35Q103 36 114 36.5Q125 37 139 37.5Q153 38 168 38H426ZM144 924 184 883Q196 871 206 860Q216 849 222.5 841Q229 833 237 823H239Q247 834 254 842Q261 850 270.5 860.5Q280 871 292 883L332 924L361 896L238 774L116 896Z" glyph-name="Zcaron" horiz-adv-x="470" unicode="&#381;" /><glyph glyph-name="_0003" horiz-adv-x="0" /><glyph glyph-name="_0004" horiz-adv-x="0" /><glyph glyph-name="_0005" horiz-adv-x="0" /><glyph d="M405 0H364Q360 17 357.5 30Q355 43 353 60Q351 77 351 96H349Q340 74 327.5 55.5Q315 37 297.5 22Q280 7 257 -1.5Q234 -10 205 -10Q171 -10 143.5 0.5Q116 11 96 30Q76 49 65.5 76Q55 103 55 135Q55 175 73 206Q91 237 128 258Q165 279 220 289.5Q275 300 349 300V348Q349 384 341 411Q333 438 318 455.5Q303 473 282.5 481.5Q262 490 238 490Q217 490 198.5 484.5Q180 479 164.5 468Q149 457 136.5 441.5Q124 426 114 406L79 426Q93 451 110.5 470Q128 489 149 501.5Q170 514 193.5 520.5Q217 527 242 527Q274 527 301 515.5Q328 504 347.5 481Q367 458 378 424.5Q389 391 389 347V87Q389 68 391.5 51.5Q394 35 397 24Q400 13 405 0ZM349 215V262Q287 265 239.5 258Q192 251 160 234.5Q128 218 111.5 193Q95 168 95 135Q95 110 103.5 89.5Q112 69 127.5 55.5Q143 42 163 35Q183 28 205 28Q240 28 267 43Q294 58 312.5 84Q331 110 340 143.5Q349 177 349 215Z" glyph-name="a" horiz-adv-x="465" unicode="a" /><glyph d="M404 0H363Q358 14 355.5 25Q353 36 351 50.5Q349 65 349 80H347Q339 60 327 43.5Q315 27 299.5 15Q284 3 264.5 -3.5Q245 -10 223 -10Q181 -10 148.5 8Q116 26 94.5 60.5Q73 95 62.5 145Q52 195 52 258Q52 321 63.5 370.5Q75 420 96.5 455Q118 490 150 508Q182 526 222 526Q246 526 266 519Q286 512 301.5 500Q317 488 328.5 472Q340 456 347 437H349Q350 451 352 465.5Q354 480 356.5 490.5Q359 501 363 516H404Q399 503 396 492Q393 481 390.5 464.5Q388 448 388 429V87Q388 68 390.5 51.5Q393 35 396 24Q399 13 404 0ZM348 205V312Q348 352 339.5 384.5Q331 417 315 440Q299 463 275.5 475.5Q252 488 223 488Q190 488 165 472.5Q140 457 124 427.5Q108 398 100.5 355.5Q93 313 93 258Q93 203 100.5 160.5Q108 118 124 88.5Q140 59 165 43.5Q190 28 223 28Q254 28 277.5 41.5Q301 55 317 79Q333 103 340.5 135Q348 167 348 205Z" glyph-name="a.alt" horiz-adv-x="464" /><glyph d="M405 0H364Q360 17 357.5 30Q355 43 353 60Q351 77 351 96H349Q340 74 327.5 55.5Q315 37 297.5 22Q280 7 257 -1.5Q234 -10 205 -10Q171 -10 143.5 0.5Q116 11 96 30Q76 49 65.5 76Q55 103 55 135Q55 175 73 206Q91 237 128 258Q165 279 220 289.5Q275 300 349 300V348Q349 384 341 411Q333 438 318 455.5Q303 473 282.5 481.5Q262 490 238 490Q217 490 198.5 484.5Q180 479 164.5 468Q149 457 136.5 441.5Q124 426 114 406L79 426Q93 451 110.5 470Q128 489 149 501.5Q170 514 193.5 520.5Q217 527 242 527Q274 527 301 515.5Q328 504 347.5 481Q367 458 378 424.5Q389 391 389 347V87Q389 68 391.5 51.5Q394 35 397 24Q400 13 405 0ZM349 215V262Q287 265 239.5 258Q192 251 160 234.5Q128 218 111.5 193Q95 168 95 135Q95 110 103.5 89.5Q112 69 127.5 55.5Q143 42 163 35Q183 28 205 28Q240 28 267 43Q294 58 312.5 84Q331 110 340 143.5Q349 177 349 215ZM344 666 132 577 118 608 326 705Z" glyph-name="aacute" horiz-adv-x="465" unicode="&#225;" /><glyph d="M404 0H363Q358 14 355.5 25Q353 36 351 50.5Q349 65 349 80H347Q339 60 327 43.5Q315 27 299.5 15Q284 3 264.5 -3.5Q245 -10 223 -10Q181 -10 148.5 8Q116 26 94.5 60.5Q73 95 62.5 145Q52 195 52 258Q52 321 63.5 370.5Q75 420 96.5 455Q118 490 150 508Q182 526 222 526Q246 526 266 519Q286 512 301.5 500Q317 488 328.5 472Q340 456 347 437H349Q350 451 352 465.5Q354 480 356.5 490.5Q359 501 363 516H404Q399 503 396 492Q393 481 390.5 464.5Q388 448 388 429V87Q388 68 390.5 51.5Q393 35 396 24Q399 13 404 0ZM348 205V312Q348 352 339.5 384.5Q331 417 315 440Q299 463 275.5 475.5Q252 488 223 488Q190 488 165 472.5Q140 457 124 427.5Q108 398 100.5 355.5Q93 313 93 258Q93 203 100.5 160.5Q108 118 124 88.5Q140 59 165 43.5Q190 28 223 28Q254 28 277.5 41.5Q301 55 317 79Q333 103 340.5 135Q348 167 348 205ZM336 665 124 576 110 607 318 704Z" glyph-name="aacute.alt" horiz-adv-x="464" /><glyph d="M405 0H364Q360 17 357.5 30Q355 43 353 60Q351 77 351 96H349Q340 74 327.5 55.5Q315 37 297.5 22Q280 7 257 -1.5Q234 -10 205 -10Q171 -10 143.5 0.5Q116 11 96 30Q76 49 65.5 76Q55 103 55 135Q55 175 73 206Q91 237 128 258Q165 279 220 289.5Q275 300 349 300V348Q349 384 341 411Q333 438 318 455.5Q303 473 282.5 481.5Q262 490 238 490Q217 490 198.5 484.5Q180 479 164.5 468Q149 457 136.5 441.5Q124 426 114 406L79 426Q93 451 110.5 470Q128 489 149 501.5Q170 514 193.5 520.5Q217 527 242 527Q274 527 301 515.5Q328 504 347.5 481Q367 458 378 424.5Q389 391 389 347V87Q389 68 391.5 51.5Q394 35 397 24Q400 13 405 0ZM349 215V262Q287 265 239.5 258Q192 251 160 234.5Q128 218 111.5 193Q95 168 95 135Q95 110 103.5 89.5Q112 69 127.5 55.5Q143 42 163 35Q183 28 205 28Q240 28 267 43Q294 58 312.5 84Q331 110 340 143.5Q349 177 349 215ZM328 585 288 626Q276 638 266 649Q256 660 249.5 668Q243 676 235 686H233Q225 675 218 667Q211 659 201.5 648.5Q192 638 180 626L140 585L111 613L234 735L356 613Z" glyph-name="acircumflex" horiz-adv-x="465" unicode="&#226;" /><glyph d="M404 0H363Q358 14 355.5 25Q353 36 351 50.5Q349 65 349 80H347Q339 60 327 43.5Q315 27 299.5 15Q284 3 264.5 -3.5Q245 -10 223 -10Q181 -10 148.5 8Q116 26 94.5 60.5Q73 95 62.5 145Q52 195 52 258Q52 321 63.5 370.5Q75 420 96.5 455Q118 490 150 508Q182 526 222 526Q246 526 266 519Q286 512 301.5 500Q317 488 328.5 472Q340 456 347 437H349Q350 451 352 465.5Q354 480 356.5 490.5Q359 501 363 516H404Q399 503 396 492Q393 481 390.5 464.5Q388 448 388 429V87Q388 68 390.5 51.5Q393 35 396 24Q399 13 404 0ZM348 205V312Q348 352 339.5 384.5Q331 417 315 440Q299 463 275.5 475.5Q252 488 223 488Q190 488 165 472.5Q140 457 124 427.5Q108 398 100.5 355.5Q93 313 93 258Q93 203 100.5 160.5Q108 118 124 88.5Q140 59 165 43.5Q190 28 223 28Q254 28 277.5 41.5Q301 55 317 79Q333 103 340.5 135Q348 167 348 205ZM323 585 283 626Q271 638 261 649Q251 660 244.5 668Q238 676 230 686H228Q220 675 213 667Q206 659 196.5 648.5Q187 638 175 626L135 585L106 613L229 735L351 613Z" glyph-name="acircumflex.alt" horiz-adv-x="464" /><glyph d="M247 825 35 736 21 767 229 864Z" glyph-name="acute" horiz-adv-x="270" unicode="&#180;" /><glyph d="M405 0H364Q360 17 357.5 30Q355 43 353 60Q351 77 351 96H349Q340 74 327.5 55.5Q315 37 297.5 22Q280 7 257 -1.5Q234 -10 205 -10Q171 -10 143.5 0.5Q116 11 96 30Q76 49 65.5 76Q55 103 55 135Q55 175 73 206Q91 237 128 258Q165 279 220 289.5Q275 300 349 300V348Q349 384 341 411Q333 438 318 455.5Q303 473 282.5 481.5Q262 490 238 490Q217 490 198.5 484.5Q180 479 164.5 468Q149 457 136.5 441.5Q124 426 114 406L79 426Q93 451 110.5 470Q128 489 149 501.5Q170 514 193.5 520.5Q217 527 242 527Q274 527 301 515.5Q328 504 347.5 481Q367 458 378 424.5Q389 391 389 347V87Q389 68 391.5 51.5Q394 35 397 24Q400 13 405 0ZM349 215V262Q287 265 239.5 258Q192 251 160 234.5Q128 218 111.5 193Q95 168 95 135Q95 110 103.5 89.5Q112 69 127.5 55.5Q143 42 163 35Q183 28 205 28Q240 28 267 43Q294 58 312.5 84Q331 110 340 143.5Q349 177 349 215ZM185 631Q185 625 183 620.5Q181 616 177 612.5Q173 609 168.5 607Q164 605 158 605Q152 605 147.5 607Q143 609 139.5 612.5Q136 616 134 620.5Q132 625 132 631Q132 637 134 641.5Q136 646 139.5 650Q143 654 147.5 656Q152 658 158 658Q164 658 168.5 656Q173 654 177 650Q181 646 183 641.5Q185 637 185 631ZM325 631Q325 625 323 620.5Q321 616 317 612.5Q313 609 308.5 607Q304 605 298 605Q292 605 287.5 607Q283 609 279.5 612.5Q276 616 274 620.5Q272 625 272 631Q272 637 274 641.5Q276 646 279.5 650Q283 654 287.5 656Q292 658 298 658Q304 658 308.5 656Q313 654 317 650Q321 646 323 641.5Q325 637 325 631Z" glyph-name="adieresis" horiz-adv-x="465" unicode="&#228;" /><glyph d="M404 0H363Q358 14 355.5 25Q353 36 351 50.5Q349 65 349 80H347Q339 60 327 43.5Q315 27 299.5 15Q284 3 264.5 -3.5Q245 -10 223 -10Q181 -10 148.5 8Q116 26 94.5 60.5Q73 95 62.5 145Q52 195 52 258Q52 321 63.5 370.5Q75 420 96.5 455Q118 490 150 508Q182 526 222 526Q246 526 266 519Q286 512 301.5 500Q317 488 328.5 472Q340 456 347 437H349Q350 451 352 465.5Q354 480 356.5 490.5Q359 501 363 516H404Q399 503 396 492Q393 481 390.5 464.5Q388 448 388 429V87Q388 68 390.5 51.5Q393 35 396 24Q399 13 404 0ZM348 205V312Q348 352 339.5 384.5Q331 417 315 440Q299 463 275.5 475.5Q252 488 223 488Q190 488 165 472.5Q140 457 124 427.5Q108 398 100.5 355.5Q93 313 93 258Q93 203 100.5 160.5Q108 118 124 88.5Q140 59 165 43.5Q190 28 223 28Q254 28 277.5 41.5Q301 55 317 79Q333 103 340.5 135Q348 167 348 205ZM180 633Q180 627 178 622.5Q176 618 172 614.5Q168 611 163.5 609Q159 607 153 607Q147 607 142.5 609Q138 611 134.5 614.5Q131 618 129 622.5Q127 627 127 633Q127 639 129 643.5Q131 648 134.5 652Q138 656 142.5 658Q147 660 153 660Q159 660 163.5 658Q168 656 172 652Q176 648 178 643.5Q180 639 180 633ZM320 633Q320 627 318 622.5Q316 618 312 614.5Q308 611 303.5 609Q299 607 293 607Q287 607 282.5 609Q278 611 274.5 614.5Q271 618 269 622.5Q267 627 267 633Q267 639 269 643.5Q271 648 274.5 652Q278 656 282.5 658Q287 660 293 660Q299 660 303.5 658Q308 656 312 652Q316 648 318 643.5Q320 639 320 633Z" glyph-name="adieresis.alt" horiz-adv-x="464" /><glyph d="M660 141 698 128Q687 93 672 67.5Q657 42 637 24.5Q617 7 590 -1.5Q563 -10 529 -10Q496 -10 469.5 2Q443 14 423 36.5Q403 59 390 91.5Q377 124 370 165H368Q363 128 351.5 96.5Q340 65 320.5 41Q301 17 272 3.5Q243 -10 205 -10Q171 -10 143.5 0.5Q116 11 96 30Q76 49 65.5 76Q55 103 55 135Q55 175 73 206Q91 237 128 258Q165 279 220 289.5Q275 300 349 300V348Q349 384 341 411Q333 438 318 455.5Q303 473 282.5 481.5Q262 490 238 490Q217 490 198.5 484.5Q180 479 164.5 468Q149 457 136.5 441.5Q124 426 114 406L79 426Q93 451 110.5 470Q128 489 149 501.5Q170 514 193.5 520.5Q217 527 242 527Q272 527 295 516.5Q318 506 334.5 486Q351 466 360 436Q369 406 371 367H373Q381 404 395 433Q409 462 428 483Q447 504 472.5 515Q498 526 529 526Q575 526 608 508.5Q641 491 662 457Q683 423 693 374.5Q703 326 703 263H385V258Q385 204 394 161Q403 118 421 88.5Q439 59 465.5 43.5Q492 28 525 28Q551 28 572 34.5Q593 41 609 54.5Q625 68 638 89.5Q651 111 660 141ZM349 215V262Q287 265 239.5 258Q192 251 160 234.5Q128 218 111.5 193Q95 168 95 135Q95 110 103.5 89.5Q112 69 127.5 55.5Q143 42 163 35Q183 28 205 28Q240 28 267 43Q294 58 312.5 84Q331 110 340 143.5Q349 177 349 215ZM386 301H661Q658 348 649 382.5Q640 417 624 440.5Q608 464 583 476Q558 488 525 488Q495 488 470.5 475.5Q446 463 428.5 439Q411 415 400 380Q389 345 386 301Z" glyph-name="ae" horiz-adv-x="749" unicode="&#230;" /><glyph d="M405 0H364Q360 17 357.5 30Q355 43 353 60Q351 77 351 96H349Q340 74 327.5 55.5Q315 37 297.5 22Q280 7 257 -1.5Q234 -10 205 -10Q171 -10 143.5 0.5Q116 11 96 30Q76 49 65.5 76Q55 103 55 135Q55 175 73 206Q91 237 128 258Q165 279 220 289.5Q275 300 349 300V348Q349 384 341 411Q333 438 318 455.5Q303 473 282.5 481.5Q262 490 238 490Q217 490 198.5 484.5Q180 479 164.5 468Q149 457 136.5 441.5Q124 426 114 406L79 426Q93 451 110.5 470Q128 489 149 501.5Q170 514 193.5 520.5Q217 527 242 527Q274 527 301 515.5Q328 504 347.5 481Q367 458 378 424.5Q389 391 389 347V87Q389 68 391.5 51.5Q394 35 397 24Q400 13 405 0ZM349 215V262Q287 265 239.5 258Q192 251 160 234.5Q128 218 111.5 193Q95 168 95 135Q95 110 103.5 89.5Q112 69 127.5 55.5Q143 42 163 35Q183 28 205 28Q240 28 267 43Q294 58 312.5 84Q331 110 340 143.5Q349 177 349 215ZM333 576 121 665 139 704 347 607Z" glyph-name="agrave" horiz-adv-x="465" unicode="&#224;" /><glyph d="M404 0H363Q358 14 355.5 25Q353 36 351 50.5Q349 65 349 80H347Q339 60 327 43.5Q315 27 299.5 15Q284 3 264.5 -3.5Q245 -10 223 -10Q181 -10 148.5 8Q116 26 94.5 60.5Q73 95 62.5 145Q52 195 52 258Q52 321 63.5 370.5Q75 420 96.5 455Q118 490 150 508Q182 526 222 526Q246 526 266 519Q286 512 301.5 500Q317 488 328.5 472Q340 456 347 437H349Q350 451 352 465.5Q354 480 356.5 490.5Q359 501 363 516H404Q399 503 396 492Q393 481 390.5 464.5Q388 448 388 429V87Q388 68 390.5 51.5Q393 35 396 24Q399 13 404 0ZM348 205V312Q348 352 339.5 384.5Q331 417 315 440Q299 463 275.5 475.5Q252 488 223 488Q190 488 165 472.5Q140 457 124 427.5Q108 398 100.5 355.5Q93 313 93 258Q93 203 100.5 160.5Q108 118 124 88.5Q140 59 165 43.5Q190 28 223 28Q254 28 277.5 41.5Q301 55 317 79Q333 103 340.5 135Q348 167 348 205ZM312 576 100 665 118 704 326 607Z" glyph-name="agrave.alt" horiz-adv-x="464" /><glyph d="M531 37 527 -2Q511 -2 495.5 6Q480 14 466.5 27.5Q453 41 442.5 57.5Q432 74 425 91H423Q410 67 392 47.5Q374 28 352 14.5Q330 1 303.5 -6.5Q277 -14 248 -14Q203 -14 166 2.5Q129 19 103 48.5Q77 78 63 116Q49 154 49 197Q49 234 59.5 268.5Q70 303 90 332Q110 361 140 381.5Q170 402 207 412V414Q182 422 162.5 437Q143 452 130 471.5Q117 491 110.5 513Q104 535 104 558Q104 587 114.5 614.5Q125 642 145 663.5Q165 685 194 697.5Q223 710 258 710Q280 710 299.5 705.5Q319 701 335.5 692.5Q352 684 366.5 673Q381 662 394 648L366 618Q357 629 347 638.5Q337 648 324.5 655.5Q312 663 295.5 667.5Q279 672 260 672Q233 672 211 663Q189 654 174 638.5Q159 623 151 602Q143 581 143 558Q143 534 151.5 511Q160 488 177 469.5Q194 451 219.5 440Q245 429 279 429L420 169H422Q431 196 437 227.5Q443 259 446.5 293.5Q450 328 451.5 364.5Q453 401 453 442H493Q493 397 490.5 354.5Q488 312 482 272Q476 232 466.5 195.5Q457 159 444 128L464 92Q471 79 478.5 69.5Q486 60 494.5 53Q503 46 512 42Q521 38 531 37ZM403 128 261 392Q219 390 186.5 373Q154 356 132.5 329Q111 302 100 268Q89 234 89 199Q89 163 100 131Q111 99 132.5 75Q154 51 184 37.5Q214 24 250 24Q275 24 297.5 30.5Q320 37 339.5 50.5Q359 64 375 83.5Q391 103 403 128Z" glyph-name="ampersand" horiz-adv-x="566" unicode="&amp;" /><glyph d="M109 424 125 460Q127 459 128.5 458.5Q130 458 131.5 457.5Q133 457 135 456.5Q137 456 139 456Q146 456 151 458.5Q156 461 159 466Q162 471 163.5 477Q165 483 165 491V639H205V494Q205 475 200 460.5Q195 446 186.5 436.5Q178 427 166 422.5Q154 418 139 418Q135 418 131 418.5Q127 419 123.5 419.5Q120 420 116 421.5Q112 423 109 424ZM189 72H149V251H111V289H228V251H189ZM514 421H398V639H514V600H439V544H502V505H439V460H514ZM456 72H395V289H455Q472 289 485 285Q498 281 507 273.5Q516 266 520.5 255Q525 244 525 230Q525 223 523 216.5Q521 210 518 204Q515 198 510 193.5Q505 189 499 186V185Q506 182 511.5 178Q517 174 521.5 168Q526 162 528.5 154Q531 146 531 137Q531 123 527 111Q523 99 513.5 90.5Q504 82 490 77Q476 72 456 72ZM436 110H459Q469 110 475.5 112Q482 114 486 118Q490 122 491.5 127.5Q493 133 493 139Q493 145 491.5 149.5Q490 154 486 157.5Q482 161 475 163Q468 165 459 165H436ZM436 201H450Q459 201 466 203Q473 205 477 208.5Q481 212 482.5 217Q484 222 484 228Q484 234 482.5 238Q481 242 477 245Q473 248 466.5 249.5Q460 251 450 251H436ZM320 421H280V600H242V639H358V600H320ZM374 72H331L323 106H273L266 72H224L276 290H322ZM317 143 299 223V231L298 223L281 143ZM548 336H93V375H548ZM1257 201Q1252 199 1247 197.5Q1242 196 1237.5 196Q1233 196 1230 197Q1227 198 1227 200Q1227 200 1227 200.5Q1227 201 1227.5 201.5Q1228 202 1228.5 202.5Q1229 203 1230 204Q1266 236 1282 258.5Q1298 281 1309.5 315Q1321 349 1321 393Q1321 444 1309.5 493Q1298 542 1270 584Q1242 626 1192.5 651.5Q1143 677 1071 677Q1008 677 962 661.5Q916 646 887.5 621.5Q859 597 846 570Q833 543 833 520Q833 513 832.5 509Q832 505 831 502Q830 499 827 496.5Q824 494 820 493Q797 485 780.5 472Q764 459 753.5 443Q743 427 738.5 409Q734 391 734 372Q734 354 738 336Q742 318 749 302Q756 286 765.5 275Q775 264 785 258Q791 255 792 252.5Q793 250 790 249.5Q787 249 782 250.5Q777 252 771 256Q756 266 745 279Q734 292 727 307Q720 322 716.5 338Q713 354 713 370Q713 392 718.5 413Q724 434 734.5 453Q745 472 760 486.5Q775 501 794 509Q798 511 800 512Q802 513 803.5 514.5Q805 516 805.5 518Q806 520 806 524Q806 555 823 588Q840 621 873.5 649.5Q907 678 957 695Q1007 712 1071 712Q1138 712 1192.5 692.5Q1247 673 1286.5 633Q1326 593 1347 532.5Q1368 472 1368 393Q1368 348 1354.5 312.5Q1341 277 1321.5 254Q1302 231 1285 219Q1268 207 1257 201ZM1005 162 1000 185Q1000 186 999.5 187.5Q999 189 999.5 190Q1000 191 1000.5 192.5Q1001 194 1002 196Q1005 201 1006.5 205.5Q1008 210 1009 214.5Q1010 219 1010.5 223.5Q1011 228 1011 232Q1011 239 1006.5 243.5Q1002 248 996 248Q990 248 985.5 243.5Q981 239 980 231Q980 227 980 222Q980 217 980.5 211.5Q981 206 982 199.5Q983 193 984 185Q984 185 984 183Q984 181 984 180Q984 179 984 177Q984 175 983 174Q981 168 978.5 163.5Q976 159 973.5 154Q971 149 968.5 145Q966 141 963 136Q962 134 961.5 133.5Q961 133 960.5 133Q960 133 959.5 134Q959 135 959 137Q957 147 955.5 153Q954 159 952.5 166Q951 173 949.5 180.5Q948 188 946 195Q946 197 946 198.5Q946 200 946.5 201.5Q947 203 948 205Q950 209 951 212.5Q952 216 953 219.5Q954 223 954.5 226Q955 229 955 232Q955 244 949.5 250Q944 256 937 255Q930 254 924.5 247Q919 240 919 229Q919 225 920 221Q921 217 922.5 212Q924 207 924.5 205Q925 203 930 189Q931 188 931 187Q931 186 931 184.5Q931 183 931 182Q931 181 930 180Q928 177 926 174Q924 171 920 165Q916 159 913.5 155Q911 151 909 147Q907 144 906 142.5Q905 141 903.5 141Q902 141 901 142Q900 143 899 146Q897 154 895 158.5Q893 163 891 168.5Q889 174 887 179Q885 184 883 189Q882 191 882 192.5Q882 194 882 195.5Q882 197 882 198.5Q882 200 883 201Q884 205 885 209.5Q886 214 887 218Q888 222 888 226.5Q888 231 888 236Q888 247 883.5 252Q879 257 872.5 255Q866 253 861 245.5Q856 238 856 227Q856 222 856.5 216.5Q857 211 858.5 206Q860 201 862 196Q864 191 866 186Q867 185 867.5 183.5Q868 182 868 181Q868 180 867.5 179Q867 178 867 177L854 150Q853 149 852.5 148.5Q852 148 851.5 148Q851 148 850 148.5Q849 149 848 151Q845 156 842.5 161Q840 166 836.5 171Q833 176 830 180.5Q827 185 823 190Q821 192 820.5 193.5Q820 195 820 196.5Q820 198 820 199Q820 200 820 200Q820 203 820.5 206Q821 209 821 212Q821 215 821 217.5Q821 220 821 223Q820 234 814.5 239.5Q809 245 802.5 244.5Q796 244 792.5 238.5Q789 233 791 223Q792 218 793.5 213.5Q795 209 797 205Q799 201 802 195.5Q805 190 807 187Q808 184 808.5 182.5Q809 181 809 180Q809 179 808.5 178.5Q808 178 808 177Q804 155 801.5 141.5Q799 128 797.5 112.5Q796 97 796.5 82Q797 67 800 56Q805 39 816.5 26.5Q828 14 849.5 6Q871 -2 906.5 -6Q942 -10 994 -10Q1052 -10 1089 -2Q1126 6 1144.5 18.5Q1163 31 1169.5 44Q1176 57 1177 72Q1183 145 1188 177.5Q1193 210 1204 240.5Q1215 271 1232 290Q1235 294 1235 296.5Q1235 299 1232 300.5Q1229 302 1226 301.5Q1223 301 1220 299Q1206 289 1195 269.5Q1184 250 1175.5 222.5Q1167 195 1160.5 159.5Q1154 124 1149 79Q1147 62 1130.5 51.5Q1114 41 1088.5 36Q1063 31 1034.5 29.5Q1006 28 970 28Q935 28 908.5 29.5Q882 31 859.5 36Q837 41 823 51.5Q809 62 807 79Q806 90 806 101Q806 112 807.5 123Q809 134 810.5 144Q812 154 814 165Q814 166 814.5 167Q815 168 816 168Q817 168 817.5 167.5Q818 167 818 166Q820 161 822.5 156.5Q825 152 827 147Q829 142 831 136.5Q833 131 835 126Q835 125 835.5 124Q836 123 836 122.5Q836 122 835.5 121Q835 120 835 118Q835 116 834.5 113Q834 110 833.5 107.5Q833 105 833 102Q833 99 833 97Q833 92 834 87.5Q835 83 837 80Q839 77 841 75.5Q843 74 846 74Q850 74 852.5 75.5Q855 77 857 80Q859 83 860 87Q861 91 861 96Q861 100 861 103.5Q861 107 860 111Q859 115 858 119Q857 123 856 128Q855 130 855 132Q855 134 855 135.5Q855 137 855 139Q855 141 856 142Q862 154 863.5 156.5Q865 159 866.5 161Q868 163 869 165Q871 168 871.5 168.5Q872 169 872.5 168.5Q873 168 874 166Q877 158 879 154Q881 150 883 145Q885 140 886.5 134.5Q888 129 890 122Q890 121 890.5 119Q891 117 891 115Q891 113 890.5 111Q890 109 890 108Q889 104 888 100.5Q887 97 886.5 94.5Q886 92 886 89.5Q886 87 886 84Q886 79 887 75Q888 71 889.5 68.5Q891 66 893.5 65Q896 64 898 64Q902 64 905 65.5Q908 67 910 70Q912 73 913 78Q914 83 914 90Q914 92 913.5 95.5Q913 99 912.5 103Q912 107 910.5 111Q909 115 908 119Q907 121 907 122.5Q907 124 907.5 126Q908 128 909 129.5Q910 131 911 134L934 175Q936 169 938 162.5Q940 156 941.5 149Q943 142 941.5 149.5Q940 157 949 117Q949 114 949 112.5Q949 111 948 108.5Q947 106 946 103Q945 100 943.5 96.5Q942 93 941.5 90Q941 87 940.5 84.5Q940 82 940 80Q940 71 944 66.5Q948 62 953.5 62.5Q959 63 963 68Q967 73 967 83Q967 86 967 90Q967 94 966.5 98.5Q966 103 965 108.5Q964 114 963 119Q963 119 963 120Q963 121 963 122Q963 123 963.5 124.5Q964 126 965 128L984 162Q985 163 985.5 163.5Q986 164 986.5 164Q987 164 987.5 163.5Q988 163 988 161L993 137Q993 135 993 133.5Q993 132 993 131Q993 130 993 130Q993 130 992 127Q991 123 989.5 119Q988 115 987.5 111Q987 107 986.5 103.5Q986 100 986 97Q986 94 986.5 91Q987 88 988 86Q989 84 992 82.5Q995 81 999 81Q1003 81 1005.5 82.5Q1008 84 1010 87Q1012 90 1013 94.5Q1014 99 1014 106Q1014 109 1014 113Q1014 117 1013.5 121Q1013 125 1012.5 129.5Q1012 134 1011 139Q1011 141 1011 143Q1011 145 1011 147Q1011 149 1011.5 150.5Q1012 152 1013 153Q1015 157 1017.5 160Q1020 163 1023 166.5Q1026 170 1029.5 173Q1033 176 1037 179Q1039 181 1040.5 182.5Q1042 184 1041.5 185Q1041 186 1038.5 185Q1036 184 1033 181Q1030 179 1027 176.5Q1024 174 1021.5 171.5Q1019 169 1016 166Q1013 163 1011 160Q1010 158 1009 157.5Q1008 157 1007.5 157.5Q1007 158 1006 159Q1005 160 1005 162ZM1064 262Q1089 262 1107 271.5Q1125 281 1136.5 297Q1148 313 1153 332Q1158 351 1158 371Q1158 390 1151.5 407.5Q1145 425 1133 438Q1121 451 1103.5 458.5Q1086 466 1066 466Q1045 466 1026.5 459Q1008 452 994.5 439Q981 426 973 408Q965 390 965 370Q965 348 971 329Q977 310 989 294.5Q1001 279 1020 270.5Q1039 262 1064 262ZM852 269Q830 269 812 275.5Q794 282 781 294.5Q768 307 761 325.5Q754 344 754 368Q754 385 759.5 402.5Q765 420 777 434.5Q789 449 807.5 457.5Q826 466 850 466Q872 466 890 460.5Q908 455 921 443.5Q934 432 941 415Q948 398 948 376Q948 351 941 331Q934 311 921.5 297.5Q909 284 891 276.5Q873 269 852 269ZM772 134Q776 136 777.5 138.5Q779 141 779 143Q779 145 776.5 146.5Q774 148 771 148Q723 152 691.5 172Q660 192 642 223.5Q624 255 617 295Q610 335 610 383Q610 476 610 493Q610 510 607.5 540Q605 570 598 595.5Q591 621 578 642Q570 655 552 667.5Q534 680 506.5 690Q479 700 443 706Q407 712 365 712Q333 712 296 709.5Q259 707 224 702Q189 697 162.5 691.5Q136 686 125 680Q106 670 91 637.5Q76 605 65.5 552.5Q55 500 49.5 431.5Q44 363 44 283Q44 187 53 134.5Q62 82 81.5 57Q101 32 130.5 23Q160 14 224 4Q244 1 255 -0.5Q266 -2 279 -3.5Q292 -5 307.5 -5.5Q323 -6 343 -6Q363 -6 379.5 -5.5Q396 -5 410.5 -3.5Q425 -2 438.5 -0.5Q452 1 472 4Q505 9 522 12.5Q539 16 552.5 23.5Q566 31 575.5 45Q585 59 591 83Q594 93 597.5 99.5Q601 106 606 109.5Q611 113 618 114Q625 115 635 113Q651 111 667 110.5Q683 110 700.5 112Q718 114 736 119.5Q754 125 772 134ZM923 330V410H908L892 378H891L874 410H860V330H875V381L890 356H893L908 381V330ZM1042 324H1027L1018 353H1016L1007 324H992L1007 364L992 404H1007L1016 374H1018L1027 404H1042L1027 364ZM1134 324H1119V404H1134ZM843 330V410H828L812 378H811L794 410H780V330H795V381L810 356H813L828 381V330ZM1067 324H1052V404H1067ZM1100 324H1085V404H1100Z" glyph-name="apple" horiz-adv-x="1412" unicode="&#63743;" /><glyph d="M405 0H364Q360 17 357.5 30Q355 43 353 60Q351 77 351 96H349Q340 74 327.5 55.5Q315 37 297.5 22Q280 7 257 -1.5Q234 -10 205 -10Q171 -10 143.5 0.5Q116 11 96 30Q76 49 65.5 76Q55 103 55 135Q55 175 73 206Q91 237 128 258Q165 279 220 289.5Q275 300 349 300V348Q349 384 341 411Q333 438 318 455.5Q303 473 282.5 481.5Q262 490 238 490Q217 490 198.5 484.5Q180 479 164.5 468Q149 457 136.5 441.5Q124 426 114 406L79 426Q93 451 110.5 470Q128 489 149 501.5Q170 514 193.5 520.5Q217 527 242 527Q274 527 301 515.5Q328 504 347.5 481Q367 458 378 424.5Q389 391 389 347V87Q389 68 391.5 51.5Q394 35 397 24Q400 13 405 0ZM349 215V262Q287 265 239.5 258Q192 251 160 234.5Q128 218 111.5 193Q95 168 95 135Q95 110 103.5 89.5Q112 69 127.5 55.5Q143 42 163 35Q183 28 205 28Q240 28 267 43Q294 58 312.5 84Q331 110 340 143.5Q349 177 349 215ZM305 643Q305 628 300 615.5Q295 603 285.5 594Q276 585 263 580.5Q250 576 234 576Q218 576 205 580.5Q192 585 182.5 594Q173 603 167.5 615.5Q162 628 162 643Q162 659 167.5 671.5Q173 684 182.5 693Q192 702 205 707Q218 712 234 712Q250 712 263 707Q276 702 285.5 693Q295 684 300 671.5Q305 659 305 643ZM274 643Q274 651 271 658.5Q268 666 262.5 671Q257 676 250 679Q243 682 234 682Q225 682 218 679Q211 676 205.5 671Q200 666 197 658.5Q194 651 194 643Q194 635 197 628Q200 621 205.5 616Q211 611 218 608.5Q225 606 234 606Q243 606 250 608.5Q257 611 262.5 616Q268 621 271 628Q274 635 274 643Z" glyph-name="aring" horiz-adv-x="465" unicode="&#229;" /><glyph d="M404 0H363Q358 14 355.5 25Q353 36 351 50.5Q349 65 349 80H347Q339 60 327 43.5Q315 27 299.5 15Q284 3 264.5 -3.5Q245 -10 223 -10Q181 -10 148.5 8Q116 26 94.5 60.5Q73 95 62.5 145Q52 195 52 258Q52 321 63.5 370.5Q75 420 96.5 455Q118 490 150 508Q182 526 222 526Q246 526 266 519Q286 512 301.5 500Q317 488 328.5 472Q340 456 347 437H349Q350 451 352 465.5Q354 480 356.5 490.5Q359 501 363 516H404Q399 503 396 492Q393 481 390.5 464.5Q388 448 388 429V87Q388 68 390.5 51.5Q393 35 396 24Q399 13 404 0ZM348 205V312Q348 352 339.5 384.5Q331 417 315 440Q299 463 275.5 475.5Q252 488 223 488Q190 488 165 472.5Q140 457 124 427.5Q108 398 100.5 355.5Q93 313 93 258Q93 203 100.5 160.5Q108 118 124 88.5Q140 59 165 43.5Q190 28 223 28Q254 28 277.5 41.5Q301 55 317 79Q333 103 340.5 135Q348 167 348 205ZM298 662Q298 647 293 634.5Q288 622 278.5 613Q269 604 256 599.5Q243 595 227 595Q211 595 198 599.5Q185 604 175.5 613Q166 622 160.5 634.5Q155 647 155 662Q155 678 160.5 690.5Q166 703 175.5 712Q185 721 198 726Q211 731 227 731Q243 731 256 726Q269 721 278.5 712Q288 703 293 690.5Q298 678 298 662ZM267 662Q267 670 264 677.5Q261 685 255.5 690Q250 695 243 698Q236 701 227 701Q218 701 211 698Q204 695 198.5 690Q193 685 190 677.5Q187 670 187 662Q187 654 190 647Q193 640 198.5 635Q204 630 211 627.5Q218 625 227 625Q236 625 243 627.5Q250 630 255.5 635Q261 640 264 647Q267 654 267 662Z" glyph-name="aring.alt" horiz-adv-x="464" /><glyph d="M247 765 207 806Q195 818 185 829Q175 840 168.5 848Q162 856 154 866H152Q144 855 137 847Q130 839 120.5 828.5Q111 818 99 806L59 765L30 793L153 915L275 793Z" glyph-name="asciicircum" horiz-adv-x="305" unicode="^" /><glyph d="M323 443H362Q362 417 357.5 396.5Q353 376 342.5 361.5Q332 347 315.5 339.5Q299 332 275 332Q253 332 236 342Q219 352 199 372Q179 392 167.5 400.5Q156 409 142 409Q127 409 117 403Q107 397 102 386.5Q97 376 95.5 364Q94 352 94 337H55Q55 363 60 383Q65 403 75.5 417.5Q86 432 102.5 439.5Q119 447 141 447Q163 447 180 436.5Q197 426 217 406Q237 386 248.5 377.5Q260 369 274 369Q290 369 300 375.5Q310 382 315 392.5Q320 403 321.5 415.5Q323 428 323 443Z" glyph-name="asciitilde" horiz-adv-x="417" unicode="~" /><glyph d="M315 391 283 367Q271 384 257.5 404.5Q244 425 233 443Q222 461 209.5 482Q197 503 193 509H191Q165 466 153.5 446.5Q142 427 128.5 406Q115 385 102 367L70 391Q82 408 96.5 426.5Q111 445 125.5 461.5Q140 478 151.5 491Q163 504 175 517L174 519Q168 521 145 526Q122 531 102 535.5Q82 540 59.5 546Q37 552 17 559L29 597Q48 590 70 582Q92 574 111 566Q130 558 152.5 548.5Q175 539 181 536L183 538Q178 589 176 610Q174 631 173 654.5Q172 678 172 700H212Q212 679 211 656Q210 633 208.5 611.5Q207 590 205.5 575.5Q204 561 202 538L204 536Q211 539 232.5 548.5Q254 558 273 565.5Q292 573 314 581.5Q336 590 356 597L368 559Q348 553 326 547Q304 541 283 536Q262 531 282.5 535.5Q303 540 211 519L210 517Q220 506 231.5 493Q243 480 257.5 463Q272 446 287 427.5Q302 409 315 391Z" glyph-name="asterisk" horiz-adv-x="385" unicode="*" /><glyph d="M570 48 589 13Q569 -2 547.5 -13.5Q526 -25 502 -32.5Q478 -40 452.5 -44Q427 -48 399 -48Q324 -48 260.5 -19Q197 10 151 63.5Q105 117 80 190Q55 263 55 350Q55 437 80 510Q105 583 151 636.5Q197 690 260.5 719Q324 748 399 748Q484 748 549 713.5Q614 679 656 622Q698 565 718 497Q738 429 738 362Q738 318 731 283Q724 248 708.5 222.5Q693 197 670 183.5Q647 170 615 170Q597 170 580.5 176Q564 182 550 194.5Q536 207 525.5 225Q515 243 509 266H507Q498 242 485 224Q472 206 456.5 194Q441 182 423.5 176Q406 170 388 170Q360 170 335 181Q310 192 291 214.5Q272 237 261.5 271Q251 305 251 350Q251 390 261.5 423Q272 456 292 480Q312 504 338.5 517Q365 530 397 530Q412 530 426.5 526.5Q441 523 454 515.5Q467 508 478 497Q489 486 496 471H498Q499 479 501 487Q503 495 504.5 501.5Q506 508 508 516H544Q540 504 538 493.5Q536 483 534.5 468.5Q533 454 533 437V328Q533 299 538.5 276.5Q544 254 554.5 238.5Q565 223 580 215.5Q595 208 615 208Q636 208 652 218Q668 228 678 247Q688 266 693 295Q698 324 698 362Q698 424 680 485.5Q662 547 625 598Q588 649 531 679.5Q474 710 399 710Q333 710 277 684.5Q221 659 180.5 611Q140 563 117.5 496.5Q95 430 95 350Q95 272 116.5 206.5Q138 141 178.5 92.5Q219 44 275.5 18Q332 -8 399 -8Q428 -8 452 -4Q476 0 496 7.5Q516 15 533 25Q550 35 570 48ZM388 208Q408 208 427 216.5Q446 225 461.5 243.5Q477 262 486 291Q495 320 495 360Q495 390 487.5 415Q480 440 466.5 457Q453 474 435 483Q417 492 397 492Q373 492 353.5 482.5Q334 473 320 455Q306 437 298.5 410.5Q291 384 291 350Q291 313 298.5 285.5Q306 258 319.5 241Q333 224 350.5 216Q368 208 388 208Z" glyph-name="at" horiz-adv-x="793" unicode="@" /><glyph d="M405 0H364Q360 17 357.5 30Q355 43 353 60Q351 77 351 96H349Q340 74 327.5 55.5Q315 37 297.5 22Q280 7 257 -1.5Q234 -10 205 -10Q171 -10 143.5 0.5Q116 11 96 30Q76 49 65.5 76Q55 103 55 135Q55 175 73 206Q91 237 128 258Q165 279 220 289.5Q275 300 349 300V348Q349 384 341 411Q333 438 318 455.5Q303 473 282.5 481.5Q262 490 238 490Q217 490 198.5 484.5Q180 479 164.5 468Q149 457 136.5 441.5Q124 426 114 406L79 426Q93 451 110.5 470Q128 489 149 501.5Q170 514 193.5 520.5Q217 527 242 527Q274 527 301 515.5Q328 504 347.5 481Q367 458 378 424.5Q389 391 389 347V87Q389 68 391.5 51.5Q394 35 397 24Q400 13 405 0ZM349 215V262Q287 265 239.5 258Q192 251 160 234.5Q128 218 111.5 193Q95 168 95 135Q95 110 103.5 89.5Q112 69 127.5 55.5Q143 42 163 35Q183 28 205 28Q240 28 267 43Q294 58 312.5 84Q331 110 340 143.5Q349 177 349 215ZM342 683H381Q381 657 376.5 636.5Q372 616 361.5 601.5Q351 587 334.5 579.5Q318 572 294 572Q272 572 255 582Q238 592 218 612Q198 632 186.5 640.5Q175 649 161 649Q146 649 136 643Q126 637 121 626.5Q116 616 114.5 604Q113 592 113 577H74Q74 603 79 623Q84 643 94.5 657.5Q105 672 121.5 679.5Q138 687 160 687Q182 687 199 676.5Q216 666 236 646Q256 626 267.5 617.5Q279 609 293 609Q309 609 319 615.5Q329 622 334 632.5Q339 643 340.5 655.5Q342 668 342 683Z" glyph-name="atilde" horiz-adv-x="465" unicode="&#227;" /><glyph d="M404 0H363Q358 14 355.5 25Q353 36 351 50.5Q349 65 349 80H347Q339 60 327 43.5Q315 27 299.5 15Q284 3 264.5 -3.5Q245 -10 223 -10Q181 -10 148.5 8Q116 26 94.5 60.5Q73 95 62.5 145Q52 195 52 258Q52 321 63.5 370.5Q75 420 96.5 455Q118 490 150 508Q182 526 222 526Q246 526 266 519Q286 512 301.5 500Q317 488 328.5 472Q340 456 347 437H349Q350 451 352 465.5Q354 480 356.5 490.5Q359 501 363 516H404Q399 503 396 492Q393 481 390.5 464.5Q388 448 388 429V87Q388 68 390.5 51.5Q393 35 396 24Q399 13 404 0ZM348 205V312Q348 352 339.5 384.5Q331 417 315 440Q299 463 275.5 475.5Q252 488 223 488Q190 488 165 472.5Q140 457 124 427.5Q108 398 100.5 355.5Q93 313 93 258Q93 203 100.5 160.5Q108 118 124 88.5Q140 59 165 43.5Q190 28 223 28Q254 28 277.5 41.5Q301 55 317 79Q333 103 340.5 135Q348 167 348 205ZM338 723H377Q377 697 372.5 676.5Q368 656 357.5 641.5Q347 627 330.5 619.5Q314 612 290 612Q268 612 251 622Q234 632 214 652Q194 672 182.5 680.5Q171 689 157 689Q142 689 132 683Q122 677 117 666.5Q112 656 110.5 644Q109 632 109 617H70Q70 643 75 663Q80 683 90.5 697.5Q101 712 117.5 719.5Q134 727 156 727Q178 727 195 716.5Q212 706 232 686Q252 666 263.5 657.5Q275 649 289 649Q305 649 315 655.5Q325 662 330 672.5Q335 683 336.5 695.5Q338 708 338 723Z" glyph-name="atilde.alt" horiz-adv-x="464" /><glyph d="M101 0H60Q66 13 69 24Q72 35 74 51.5Q76 68 76 87V730H116V518Q116 507 116 493Q116 479 115.5 466.5Q115 454 115 435H117Q126 455 138 471.5Q150 488 165 500Q180 512 199 519Q218 526 241 526Q283 526 315.5 508Q348 490 369.5 455.5Q391 421 401.5 371Q412 321 412 258Q412 195 400.5 145.5Q389 96 367.5 61Q346 26 314 8Q282 -10 242 -10Q218 -10 198 -3Q178 4 162.5 16.5Q147 29 135.5 45Q124 61 116 80H114Q114 65 112 50.5Q110 36 107.5 25Q105 14 101 0ZM116 318V212Q116 170 124 136Q132 102 148 78Q164 54 187.5 41Q211 28 241 28Q274 28 299 43.5Q324 59 340 88.5Q356 118 363.5 160.5Q371 203 371 258Q371 313 363.5 355.5Q356 398 340 427.5Q324 457 299 472.5Q274 488 241 488Q211 488 187 475.5Q163 463 147.5 439.5Q132 416 124 385Q116 354 116 318Z" glyph-name="b" horiz-adv-x="464" unicode="b" /><glyph d="M165 -60 4 760H45L205 -60Z" glyph-name="backslash" horiz-adv-x="209" unicode="\" /><glyph d="M115 800V-100H75V800Z" glyph-name="bar" horiz-adv-x="190" unicode="|" /><glyph d="M201 -90V-129Q163 -129 132.5 -120Q102 -111 81 -93Q60 -75 49 -48.5Q38 -22 38 12Q38 48 49.5 79Q61 110 83 150.5Q105 191 115 213.5Q125 236 125 262Q125 284 118.5 298Q112 312 100 320Q88 328 73.5 331Q59 334 40 334V370Q59 370 73.5 373Q88 376 100 384Q112 392 118.5 406Q125 420 125 442Q125 468 115 490.5Q105 513 83 553.5Q61 594 49.5 625Q38 656 38 692Q38 726 49.5 752.5Q61 779 82.5 797Q104 815 134 824Q164 833 201 833V794Q174 794 151.5 789Q129 784 112 772Q95 760 85 740Q75 720 75 691Q75 659 86 630.5Q97 602 119 562.5Q141 523 151.5 497Q162 471 162 441Q162 425 156.5 410.5Q151 396 141 384.5Q131 373 117.5 365Q104 357 89 353V351Q104 347 117.5 339Q131 331 141 319.5Q151 308 156.5 293.5Q162 279 162 263Q162 233 151.5 207Q141 181 119 141.5Q97 102 86 73.5Q75 45 75 13Q75 -16 85 -36Q95 -56 112 -68Q129 -80 151.5 -85Q174 -90 201 -90Z" glyph-name="braceleft" horiz-adv-x="253" unicode="{" /><glyph d="M42 -129V-90Q69 -90 91.5 -85Q114 -80 131 -68Q148 -56 158 -36Q168 -16 168 13Q168 45 157 73.5Q146 102 124 141.5Q102 181 91.5 207Q81 233 81 263Q81 279 86.5 293.5Q92 308 102 319.5Q112 331 125.5 339Q139 347 154 351V353Q139 357 125.5 365Q112 373 102 384.5Q92 396 86.5 410.5Q81 425 81 441Q81 471 91.5 497Q102 523 124 562.5Q146 602 157 630.5Q168 659 168 691Q168 720 158 740Q148 760 131 772Q114 784 91.5 789Q69 794 42 794V833Q79 833 109 824Q139 815 160.5 797Q182 779 193.5 752.5Q205 726 205 692Q205 656 193.5 625Q182 594 160 553.5Q138 513 128 490.5Q118 468 118 442Q118 420 124.5 406Q131 392 143 384Q155 376 169.5 373Q184 370 203 370V334Q184 334 169.5 331Q155 328 143 320Q131 312 124.5 298Q118 284 118 262Q118 236 128 213.5Q138 191 160 150.5Q182 110 193.5 79Q205 48 205 12Q205 -22 194 -48.5Q183 -75 162 -93Q141 -111 110.5 -120Q80 -129 42 -129Z" glyph-name="braceright" horiz-adv-x="253" unicode="}" /><glyph d="M243 -120H85V830H243V792H125V-82H243Z" glyph-name="bracketleft" horiz-adv-x="253" unicode="[" /><glyph d="M10 830H168V-120H10V-82H128V792H10Z" glyph-name="bracketright" horiz-adv-x="253" unicode="]" /><glyph d="M254 847 293 856Q293 853 293.5 850.5Q294 848 294.5 845Q295 842 295 839.5Q295 837 295 834Q295 814 287.5 797.5Q280 781 265 768.5Q250 756 227.5 749.5Q205 743 176 743Q147 743 124.5 749.5Q102 756 87 768.5Q72 781 64.5 797.5Q57 814 57 834Q57 837 57 839.5Q57 842 57.5 845Q58 848 58.5 850.5Q59 853 59 856L98 847Q98 845 97.5 843.5Q97 842 97 840.5Q97 839 97 837.5Q97 836 97 834Q97 822 102 812.5Q107 803 117 796.5Q127 790 142 786.5Q157 783 176 783Q195 783 210 786.5Q225 790 235 796.5Q245 803 250 812.5Q255 822 255 834Q255 836 255 837.5Q255 839 255 840.5Q255 842 254.5 843.5Q254 845 254 847Z" glyph-name="breve" horiz-adv-x="353" unicode="&#728;" /><glyph d="M113 315V-98H75V315ZM113 802V402H75V802Z" glyph-name="brokenbar" horiz-adv-x="188" unicode="&#166;" /><glyph d="M159 263Q159 254 155.5 246Q152 238 145.5 232Q139 226 130.5 222.5Q122 219 113 219Q103 219 95 222.5Q87 226 81 232Q75 238 71.5 246Q68 254 68 263Q68 273 71.5 281.5Q75 290 81 296.5Q87 303 95 306.5Q103 310 113 310Q122 310 130.5 306.5Q139 303 145.5 296.5Q152 290 155.5 281.5Q159 273 159 263Z" glyph-name="bullet" horiz-adv-x="220" unicode="&#8226;" /><glyph d="M352 140 391 129Q382 96 368 70.5Q354 45 334.5 27Q315 9 288.5 -0.5Q262 -10 230 -10Q188 -10 154.5 8Q121 26 98 61Q75 96 63.5 145.5Q52 195 52 258Q52 321 63.5 370.5Q75 420 98 455Q121 490 154.5 508Q188 526 230 526Q262 526 288 516.5Q314 507 333.5 489Q353 471 367 446Q381 421 390 389L351 378Q344 404 333 424.5Q322 445 307 459Q292 473 272.5 480.5Q253 488 230 488Q197 488 171 472.5Q145 457 128 427.5Q111 398 102 355Q93 312 93 258Q93 204 102 161Q111 118 128 88.5Q145 59 171 43.5Q197 28 230 28Q253 28 272.5 35.5Q292 43 307.5 57.5Q323 72 334 93Q345 114 352 140Z" glyph-name="c" horiz-adv-x="426" unicode="c" /><glyph d="M113 924 153 883Q165 871 175 860Q185 849 191.5 841Q198 833 206 823H208Q216 834 223 842Q230 850 239.5 860.5Q249 871 261 883L301 924L330 896L207 774L85 896Z" glyph-name="caron" horiz-adv-x="375" unicode="&#711;" /><glyph d="M131 -203 164 -176Q168 -186 175 -194Q182 -202 191 -208Q200 -214 210.5 -217.5Q221 -221 233 -221Q248 -221 259.5 -217Q271 -213 278.5 -205.5Q286 -198 290 -187.5Q294 -177 294 -165Q294 -153 289.5 -143.5Q285 -134 276 -127Q267 -120 255.5 -116Q244 -112 230 -112Q219 -112 209.5 -114.5Q200 -117 192.5 -120.5Q185 -124 179.5 -128Q174 -132 171 -136L137 -116L164 3Q137 15 116 37.5Q95 60 80.5 92.5Q66 125 59 166.5Q52 208 52 258Q52 321 63.5 370.5Q75 420 98 455Q121 490 154.5 508Q188 526 230 526Q262 526 288 516.5Q314 507 333.5 489Q353 471 367 446Q381 421 390 389L351 378Q344 404 333 424.5Q322 445 307 459Q292 473 272.5 480.5Q253 488 230 488Q197 488 171 472.5Q145 457 128 427.5Q111 398 102 355Q93 312 93 258Q93 204 102 161Q111 118 128 88.5Q145 59 171 43.5Q197 28 230 28Q253 28 272.5 35.5Q292 43 307.5 57.5Q323 72 334 93Q345 114 352 140L391 129Q382 96 368 70.5Q354 45 334.5 27Q315 9 288.5 -0.5Q262 -10 230 -10Q226 -10 222 -10Q218 -10 214 -9.5Q210 -9 206.5 -8.5Q203 -8 199 -7L179 -91L181 -92Q187 -88 193.5 -85Q200 -82 208 -79.5Q216 -77 224.5 -75.5Q233 -74 243 -74Q264 -74 281 -81Q298 -88 310 -100.5Q322 -113 328.5 -129.5Q335 -146 335 -165Q335 -184 328.5 -201Q322 -218 309.5 -231.5Q297 -245 278 -252.5Q259 -260 234 -260Q217 -260 201 -256Q185 -252 171 -244.5Q157 -237 146.5 -226.5Q136 -216 131 -203Z" glyph-name="ccedilla" horiz-adv-x="426" unicode="&#231;" /><glyph d="M34 -203 67 -176Q71 -186 78 -194Q85 -202 94 -208Q103 -214 113.5 -217.5Q124 -221 136 -221Q151 -221 162.5 -217Q174 -213 181.5 -205.5Q189 -198 193 -187.5Q197 -177 197 -165Q197 -153 192.5 -143.5Q188 -134 179 -127Q170 -120 158.5 -116Q147 -112 133 -112Q122 -112 112.5 -114.5Q103 -117 95.5 -120.5Q88 -124 82.5 -128Q77 -132 74 -136L40 -116L72 23L109 18L82 -91L84 -92Q90 -88 96.5 -85Q103 -82 111 -79.5Q119 -77 127.5 -75.5Q136 -74 146 -74Q167 -74 184 -81Q201 -88 213 -100.5Q225 -113 231.5 -129.5Q238 -146 238 -165Q238 -184 231.5 -201Q225 -218 212.5 -231.5Q200 -245 181 -252.5Q162 -260 137 -260Q120 -260 104 -256Q88 -252 74 -244.5Q60 -237 49.5 -226.5Q39 -216 34 -203Z" glyph-name="cedilla" horiz-adv-x="270" unicode="&#184;" /><glyph d="M137 61H96L131 174Q110 187 94 206Q78 225 67.5 249Q57 273 51.5 300.5Q46 328 46 358Q46 401 57 439Q68 477 90.5 505.5Q113 534 146.5 550Q180 566 223 566Q227 566 231 566Q235 566 239 565.5Q243 565 247 564.5Q251 564 255 563L282 647H323L292 551Q307 544 319.5 534Q332 524 342.5 510.5Q353 497 361.5 481.5Q370 466 377 447L340 432Q332 455 321.5 473Q311 491 296 503Q281 515 263 521.5Q245 528 223 528Q190 528 164 515Q138 502 120.5 479Q103 456 94.5 425Q86 394 86 358Q86 322 94.5 291Q103 260 120.5 237Q138 214 164 201Q190 188 223 188Q244 188 262.5 194.5Q281 201 295.5 213Q310 225 321 243Q332 261 340 283L379 271Q369 242 355 220Q341 198 322 182Q303 166 278 158Q253 150 223 150Q215 150 208 150.5Q201 151 194 151.5Q187 152 180.5 153.5Q174 155 168 157Z" glyph-name="cent" horiz-adv-x="424" unicode="&#162;" /><glyph d="M267 765 227 806Q215 818 205 829Q195 840 188.5 848Q182 856 174 866H172Q164 855 157 847Q150 839 140.5 828.5Q131 818 119 806L79 765L50 793L173 915L295 793Z" glyph-name="circumflex" horiz-adv-x="345" unicode="&#710;" /><glyph d="M108 16Q108 10 106 5.5Q104 1 100 -2.5Q96 -6 91.5 -8Q87 -10 81 -10Q75 -10 70.5 -8Q66 -6 62.5 -2.5Q59 1 57 5.5Q55 10 55 16Q55 22 57 26.5Q59 31 62.5 35Q66 39 70.5 41Q75 43 81 43Q87 43 91.5 41Q96 39 100 35Q104 31 106 26.5Q108 22 108 16ZM108 343Q108 337 106 332.5Q104 328 100 324.5Q96 321 91.5 319Q87 317 81 317Q75 317 70.5 319Q66 321 62.5 324.5Q59 328 57 332.5Q55 337 55 343Q55 349 57 353.5Q59 358 62.5 362Q66 366 70.5 368Q75 370 81 370Q87 370 91.5 368Q96 366 100 362Q104 358 106 353.5Q108 349 108 343Z" glyph-name="colon" horiz-adv-x="163" unicode=":" /><glyph d="M71 -79 51 -61Q59 -53 64.5 -46Q70 -39 74.5 -32Q79 -25 82.5 -17.5Q86 -10 89 -1L87 0Q86 -1 84 -2Q82 -3 80.5 -4Q79 -5 77.5 -5Q76 -5 74 -5Q70 -5 66 -3Q62 -1 59 2Q56 5 54 9.5Q52 14 52 19Q52 24 53.5 28.5Q55 33 58.5 36Q62 39 66.5 41Q71 43 77 43Q83 43 88.5 40.5Q94 38 97.5 33Q101 28 103 20.5Q105 13 105 4Q105 -7 102 -19Q99 -31 94.5 -42.5Q90 -54 83.5 -63.5Q77 -73 71 -79Z" glyph-name="comma" horiz-adv-x="160" unicode="," /><glyph d="M758 350Q758 274 730.5 208Q703 142 654 93Q605 44 538.5 17Q472 -10 397 -10Q321 -10 255 17Q189 44 139.5 93Q90 142 62.5 208Q35 274 35 350Q35 425 62.5 491Q90 557 139.5 606.5Q189 656 255 683Q321 710 397 710Q472 710 538.5 683Q605 656 654 606.5Q703 557 730.5 491Q758 425 758 350ZM398 28Q466 28 525 52Q584 76 627 119.5Q670 163 694 222.5Q718 282 718 350Q718 418 694 477Q670 536 626.5 580Q583 624 524.5 648Q466 672 398 672Q330 672 271 648Q212 624 167.5 580Q123 536 99 477Q75 418 75 350Q75 282 99 222.5Q123 163 167 119.5Q211 76 270.5 52Q330 28 398 28ZM457 288 495 278Q490 258 481 241.5Q472 225 459.5 213Q447 201 430.5 194.5Q414 188 394 188Q367 188 345.5 199.5Q324 211 308.5 232.5Q293 254 285 285Q277 316 277 355Q277 394 285 425.5Q293 457 308.5 478.5Q324 500 345.5 511.5Q367 523 394 523Q413 523 429 517Q445 511 457.5 500Q470 489 478.5 473.5Q487 458 493 438L456 427Q452 442 446 452.5Q440 463 432.5 470.5Q425 478 415.5 481.5Q406 485 394 485Q376 485 361.5 477Q347 469 337 452.5Q327 436 322 411.5Q317 387 317 355Q317 324 322 299.5Q327 275 337 259Q347 243 361.5 234.5Q376 226 394 226Q407 226 416.5 230Q426 234 434 242Q442 250 447.5 261.5Q453 273 457 288Z" glyph-name="copyright" horiz-adv-x="793" unicode="&#169;" /><glyph d="M390 163 428 154Q418 115 403.5 85Q389 55 367.5 34Q346 13 317 1.5Q288 -10 251 -10Q200 -10 163.5 12Q127 34 104 74Q81 114 70 168.5Q59 223 56 293H11V327H55V373H11V407H56Q59 476 70 531Q81 586 104 626Q127 666 163.5 688Q200 710 251 710Q289 710 318.5 698Q348 686 369.5 663.5Q391 641 406 609Q421 577 430 536L392 527Q384 562 372 588.5Q360 615 343 634Q326 653 303 663Q280 673 251 673Q211 673 182 654.5Q153 636 135 601Q117 566 108 517.5Q99 469 96 407H249V373H95V327H249V293H96Q99 231 108 182.5Q117 134 135 99Q153 64 182 45.5Q211 27 251 27Q279 27 301.5 36Q324 45 341 62.5Q358 80 370 105Q382 130 390 163Z" glyph-name="currency" horiz-adv-x="461" unicode="&#164;" /><glyph d="M404 0H363Q359 14 356.5 24.5Q354 35 352 49.5Q350 64 350 79H348Q339 60 328 44.5Q317 29 302 16.5Q287 4 267 -3Q247 -10 222 -10Q182 -10 150 8Q118 26 96.5 61Q75 96 63.5 145.5Q52 195 52 258Q52 321 62.5 371Q73 421 94.5 455.5Q116 490 148.5 508Q181 526 223 526Q245 526 264 519.5Q283 513 298.5 501.5Q314 490 326 474Q338 458 347 438H349Q349 454 348.5 465.5Q348 477 348 491Q348 505 348 518V730H388V87Q388 68 390.5 51.5Q393 35 396 24Q399 13 404 0ZM348 212V311Q348 349 340.5 381Q333 413 317 437Q301 461 277.5 474.5Q254 488 223 488Q190 488 165 472.5Q140 457 124 427.5Q108 398 100.5 355.5Q93 313 93 258Q93 203 100.5 160.5Q108 118 124 88.5Q140 59 165 43.5Q190 28 223 28Q253 28 276.5 41Q300 54 316 78Q332 102 340 136Q348 170 348 212Z" glyph-name="d" horiz-adv-x="464" unicode="d" /><glyph d="M224 410V-100H186V440Q179 447 173.5 452Q168 457 162 461Q156 465 149.5 467Q143 469 137 469Q122 469 112 463Q102 457 97 446.5Q92 436 90.5 424Q89 412 89 397H50Q50 423 55 443Q60 463 70.5 477.5Q81 492 97 499.5Q113 507 135 507Q142 507 149.5 505.5Q157 504 163.5 501Q170 498 175.5 494Q181 490 186 485V800H224V454Q230 448 235 443.5Q240 439 245.5 436Q251 433 257 431Q263 429 269 429Q285 429 295 435.5Q305 442 310 452.5Q315 463 316.5 475.5Q318 488 318 503H357Q357 477 352.5 456.5Q348 436 338 421.5Q328 407 311.5 399.5Q295 392 271 392Q264 392 257.5 393.5Q251 395 245 397Q239 399 233.5 402.5Q228 406 224 410Z" glyph-name="dagger" horiz-adv-x="407" unicode="&#8224;" /><glyph d="M225 330V-100H187V359Q180 366 174 371Q168 376 162 380Q156 384 149.5 386.5Q143 389 137 389Q122 389 112 383Q102 377 97 366.5Q92 356 90.5 344Q89 332 89 317H50Q50 343 55 363Q60 383 70 397.5Q80 412 96 419.5Q112 427 134 427Q141 427 148.5 425.5Q156 424 162.5 421Q169 418 175.5 413.5Q182 409 187 404V499Q180 506 174 511Q168 516 162 520Q156 524 149.5 526.5Q143 529 137 529Q122 529 112 523Q102 517 97 506.5Q92 496 90.5 484Q89 472 89 457H50Q50 483 55 503Q60 523 70 537.5Q80 552 96 559.5Q112 567 134 567Q141 567 148.5 565.5Q156 564 162.5 561Q169 558 175.5 553.5Q182 549 187 544V800H225V513Q231 507 236 503Q241 499 246 495.5Q251 492 257 490.5Q263 489 269 489Q285 489 295 495.5Q305 502 310 512.5Q315 523 316.5 535.5Q318 548 318 563H357Q357 537 352.5 516.5Q348 496 338.5 481.5Q329 467 312.5 459.5Q296 452 272 452Q265 452 259 453Q253 454 247 456.5Q241 459 235.5 462.5Q230 466 225 470V373Q231 367 236 363Q241 359 246 355.5Q251 352 257 350.5Q263 349 269 349Q285 349 295 355.5Q305 362 310 372.5Q315 383 316.5 395.5Q318 408 318 423H357Q357 397 352.5 376.5Q348 356 338.5 341.5Q329 327 312.5 319.5Q296 312 272 312Q265 312 259 313Q253 314 247 316.5Q241 319 235.5 322.5Q230 326 225 330Z" glyph-name="daggerdbl" horiz-adv-x="407" unicode="&#8225;" /><glyph d="M285 609Q285 583 276 562Q267 541 251 526.5Q235 512 213 504Q191 496 165 496Q139 496 117 504Q95 512 79 526.5Q63 541 54 562Q45 583 45 609Q45 634 54 655.5Q63 677 79 692.5Q95 708 117 716Q139 724 165 724Q191 724 213 716Q235 708 251 692.5Q267 677 276 655.5Q285 634 285 609ZM240 609Q240 626 234.5 639.5Q229 653 219 663Q209 673 195 678Q181 683 165 683Q149 683 135 678Q121 673 110.5 663Q100 653 94.5 639.5Q89 626 89 609Q89 593 94.5 579.5Q100 566 110.5 556Q121 546 135 541Q149 536 165 536Q181 536 195 541Q209 546 219 556Q229 566 234.5 579.5Q240 593 240 609Z" glyph-name="degree" horiz-adv-x="330" unicode="&#176;" /><glyph d="M111 793Q111 787 109 782.5Q107 778 103 774.5Q99 771 94.5 769Q90 767 84 767Q78 767 73.5 769Q69 771 65.5 774.5Q62 778 60 782.5Q58 787 58 793Q58 799 60 803.5Q62 808 65.5 812Q69 816 73.5 818Q78 820 84 820Q90 820 94.5 818Q99 816 103 812Q107 808 109 803.5Q111 799 111 793ZM251 793Q251 787 249 782.5Q247 778 243 774.5Q239 771 234.5 769Q230 767 224 767Q218 767 213.5 769Q209 771 205.5 774.5Q202 778 200 782.5Q198 787 198 793Q198 799 200 803.5Q202 808 205.5 812Q209 816 213.5 818Q218 820 224 820Q230 820 234.5 818Q239 816 243 812Q247 808 249 803.5Q251 799 251 793Z" glyph-name="dieresis" horiz-adv-x="313" unicode="&#168;" /><glyph d="M241 233Q241 227 239 222.5Q237 218 233 214.5Q229 211 224.5 209Q220 207 214 207Q208 207 203.5 209Q199 211 195.5 214.5Q192 218 190 222.5Q188 227 188 233Q188 239 190 243.5Q192 248 195.5 252Q199 256 203.5 258Q208 260 214 260Q220 260 224.5 258Q229 256 233 252Q237 248 239 243.5Q241 239 241 233ZM241 458Q241 452 239 447.5Q237 443 233 439.5Q229 436 224.5 434Q220 432 214 432Q208 432 203.5 434Q199 436 195.5 439.5Q192 443 190 447.5Q188 452 188 458Q188 464 190 468.5Q192 473 195.5 477Q199 481 203.5 483Q208 485 214 485Q220 485 224.5 483Q229 481 233 477Q237 473 239 468.5Q241 464 241 458ZM378 332V370H45V332Z" glyph-name="divide" horiz-adv-x="423" unicode="&#247;" /><glyph d="M231 -9 222 -94H183L192 -3Q166 3 142.5 14.5Q119 26 99 41.5Q79 57 64 76Q49 95 39 117L74 138Q86 113 104 92.5Q122 72 145 57.5Q168 43 195.5 35.5Q223 28 253 28Q292 28 321 40Q350 52 369 72.5Q388 93 397 118.5Q406 144 406 171Q406 205 392.5 231Q379 257 357 276Q335 295 309 308.5Q283 322 245 339Q202 359 173 374.5Q144 390 118.5 412.5Q93 435 77.5 466Q62 497 62 537Q62 573 75 605Q88 637 112.5 660.5Q137 684 172 697Q207 710 251 710Q253 710 255 710Q257 710 260 709.5Q263 709 265 709Q267 709 269 709L281 813H321L309 703Q332 697 352 686Q372 675 387.5 660Q403 645 415.5 626Q428 607 437 584L401 567Q393 588 380 606.5Q367 625 348 640Q329 655 304 663.5Q279 672 249 672Q216 672 188.5 662Q161 652 142 633.5Q123 615 112.5 590.5Q102 566 102 538Q102 506 115.5 481Q129 456 151 437.5Q173 419 197.5 406Q222 393 258 377Q303 357 334 340Q365 323 390.5 300Q416 277 431 246Q446 215 446 174Q446 136 433.5 102.5Q421 69 396.5 43.5Q372 18 336 4Q300 -10 253 -10Q250 -10 247.5 -10Q245 -10 241.5 -9.5Q238 -9 235.5 -9Q233 -9 231 -9Z" glyph-name="dollar" horiz-adv-x="489" unicode="$" /><glyph d="M216 -94H177L186 -5Q164 -1 144 7Q124 15 106 26.5Q88 38 73 54Q58 70 47 89L81 111Q92 91 109 75.5Q126 60 147 49.5Q168 39 191.5 33.5Q215 28 239 28Q267 28 290.5 34.5Q314 41 331.5 54Q349 67 358.5 87Q368 107 368 134Q368 181 332 203.5Q296 226 220 252Q144 278 105.5 307Q67 336 67 393Q67 422 79 446.5Q91 471 112 488Q133 505 162 514.5Q191 524 224 524Q226 524 228.5 524Q231 524 234.5 523.5Q238 523 240 523Q242 523 244 523L255 624H295L283 517Q299 513 313 506Q327 499 339.5 490Q352 481 364.5 469Q377 457 389 442L359 416Q345 435 330.5 448Q316 461 300 469.5Q284 478 265 482Q246 486 222 486Q199 486 178.5 480Q158 474 141.5 462Q125 450 116 432.5Q107 415 107 394Q107 351 141.5 331Q176 311 252.5 284Q329 257 368.5 225.5Q408 194 408 134Q408 99 396 71.5Q384 44 361.5 26Q339 8 308 -1Q277 -10 238 -10H225Z" glyph-name="dollar.osf" horiz-adv-x="489" /><glyph d="M108 814Q108 808 106 803.5Q104 799 100 795.5Q96 792 91.5 790Q87 788 81 788Q75 788 70.5 790Q66 792 62.5 795.5Q59 799 57 803.5Q55 808 55 814Q55 820 57 824.5Q59 829 62.5 833Q66 837 70.5 839Q75 841 81 841Q87 841 91.5 839Q96 837 100 833Q104 829 106 824.5Q108 820 108 814Z" glyph-name="dotaccent" horiz-adv-x="161" unicode="&#729;" /><glyph d="M115 0H75V516H115Z" glyph-name="dotlessi" horiz-adv-x="190" unicode="&#305;" /><glyph d="M368 141 406 128Q395 93 379.5 67.5Q364 42 343 24.5Q322 7 294.5 -1.5Q267 -10 233 -10Q191 -10 157 8Q123 26 99.5 61Q76 96 64 145.5Q52 195 52 258Q52 321 64 370.5Q76 420 99.5 455Q123 490 157 508Q191 526 233 526Q280 526 313.5 508Q347 490 368.5 455.5Q390 421 400.5 371.5Q411 322 411 258V243H93Q94 192 104 152Q114 112 131.5 84.5Q149 57 175 42.5Q201 28 233 28Q259 28 280 34.5Q301 41 317 54.5Q333 68 346 89.5Q359 111 368 141ZM93 281H369Q367 333 359 371Q351 409 334.5 435.5Q318 462 293 475Q268 488 233 488Q201 488 176 474Q151 460 133 433.5Q115 407 105 368.5Q95 330 93 281Z" glyph-name="e" horiz-adv-x="457" unicode="e" /><glyph d="M368 141 406 128Q395 93 379.5 67.5Q364 42 343 24.5Q322 7 294.5 -1.5Q267 -10 233 -10Q191 -10 157 8Q123 26 99.5 61Q76 96 64 145.5Q52 195 52 258Q52 321 64 370.5Q76 420 99.5 455Q123 490 157 508Q191 526 233 526Q280 526 313.5 508Q347 490 368.5 455.5Q390 421 400.5 371.5Q411 322 411 258V243H93Q94 192 104 152Q114 112 131.5 84.5Q149 57 175 42.5Q201 28 233 28Q259 28 280 34.5Q301 41 317 54.5Q333 68 346 89.5Q359 111 368 141ZM93 281H369Q367 333 359 371Q351 409 334.5 435.5Q318 462 293 475Q268 488 233 488Q201 488 176 474Q151 460 133 433.5Q115 407 105 368.5Q95 330 93 281ZM348 665 136 576 122 607 330 704Z" glyph-name="eacute" horiz-adv-x="457" unicode="&#233;" /><glyph d="M368 141 406 128Q395 93 379.5 67.5Q364 42 343 24.5Q322 7 294.5 -1.5Q267 -10 233 -10Q191 -10 157 8Q123 26 99.5 61Q76 96 64 145.5Q52 195 52 258Q52 321 64 370.5Q76 420 99.5 455Q123 490 157 508Q191 526 233 526Q280 526 313.5 508Q347 490 368.5 455.5Q390 421 400.5 371.5Q411 322 411 258V243H93Q94 192 104 152Q114 112 131.5 84.5Q149 57 175 42.5Q201 28 233 28Q259 28 280 34.5Q301 41 317 54.5Q333 68 346 89.5Q359 111 368 141ZM93 281H369Q367 333 359 371Q351 409 334.5 435.5Q318 462 293 475Q268 488 233 488Q201 488 176 474Q151 460 133 433.5Q115 407 105 368.5Q95 330 93 281ZM327 586 287 627Q275 639 265 650Q255 661 248.5 669Q242 677 234 687H232Q224 676 217 668Q210 660 200.5 649.5Q191 639 179 627L139 586L110 614L233 736L355 614Z" glyph-name="ecircumflex" horiz-adv-x="457" unicode="&#234;" /><glyph d="M368 141 406 128Q395 93 379.5 67.5Q364 42 343 24.5Q322 7 294.5 -1.5Q267 -10 233 -10Q191 -10 157 8Q123 26 99.5 61Q76 96 64 145.5Q52 195 52 258Q52 321 64 370.5Q76 420 99.5 455Q123 490 157 508Q191 526 233 526Q280 526 313.5 508Q347 490 368.5 455.5Q390 421 400.5 371.5Q411 322 411 258V243H93Q94 192 104 152Q114 112 131.5 84.5Q149 57 175 42.5Q201 28 233 28Q259 28 280 34.5Q301 41 317 54.5Q333 68 346 89.5Q359 111 368 141ZM93 281H369Q367 333 359 371Q351 409 334.5 435.5Q318 462 293 475Q268 488 233 488Q201 488 176 474Q151 460 133 433.5Q115 407 105 368.5Q95 330 93 281ZM182 633Q182 627 180 622.5Q178 618 174 614.5Q170 611 165.5 609Q161 607 155 607Q149 607 144.5 609Q140 611 136.5 614.5Q133 618 131 622.5Q129 627 129 633Q129 639 131 643.5Q133 648 136.5 652Q140 656 144.5 658Q149 660 155 660Q161 660 165.5 658Q170 656 174 652Q178 648 180 643.5Q182 639 182 633ZM322 633Q322 627 320 622.5Q318 618 314 614.5Q310 611 305.5 609Q301 607 295 607Q289 607 284.5 609Q280 611 276.5 614.5Q273 618 271 622.5Q269 627 269 633Q269 639 271 643.5Q273 648 276.5 652Q280 656 284.5 658Q289 660 295 660Q301 660 305.5 658Q310 656 314 652Q318 648 320 643.5Q322 639 322 633Z" glyph-name="edieresis" horiz-adv-x="457" unicode="&#235;" /><glyph d="M368 141 406 128Q395 93 379.5 67.5Q364 42 343 24.5Q322 7 294.5 -1.5Q267 -10 233 -10Q191 -10 157 8Q123 26 99.5 61Q76 96 64 145.5Q52 195 52 258Q52 321 64 370.5Q76 420 99.5 455Q123 490 157 508Q191 526 233 526Q280 526 313.5 508Q347 490 368.5 455.5Q390 421 400.5 371.5Q411 322 411 258V243H93Q94 192 104 152Q114 112 131.5 84.5Q149 57 175 42.5Q201 28 233 28Q259 28 280 34.5Q301 41 317 54.5Q333 68 346 89.5Q359 111 368 141ZM93 281H369Q367 333 359 371Q351 409 334.5 435.5Q318 462 293 475Q268 488 233 488Q201 488 176 474Q151 460 133 433.5Q115 407 105 368.5Q95 330 93 281ZM327 576 115 665 133 704 341 607Z" glyph-name="egrave" horiz-adv-x="457" unicode="&#232;" /><glyph d="M234 28Q270 28 298 42Q326 56 345 80Q364 104 373.5 135Q383 166 383 200Q383 229 373.5 259Q364 289 344.5 313.5Q325 338 297 353Q269 368 234 368Q199 368 171 353Q143 338 123.5 313.5Q104 289 94.5 259Q85 229 85 200Q85 166 94.5 135Q104 104 123 80Q142 56 170 42Q198 28 234 28ZM234 402Q263 402 285.5 413.5Q308 425 323.5 444Q339 463 346.5 487.5Q354 512 354 538Q354 567 346.5 591.5Q339 616 324 634Q309 652 286 662Q263 672 234 672Q205 672 182 662Q159 652 143.5 634.5Q128 617 120.5 592Q113 567 113 538Q113 512 121 488Q129 464 144 444.5Q159 425 182 413.5Q205 402 234 402ZM293 387V385Q323 375 347.5 356.5Q372 338 388.5 313Q405 288 414 259Q423 230 423 200Q423 159 410.5 121Q398 83 373.5 53.5Q349 24 313.5 7Q278 -10 234 -10Q190 -10 154.5 7Q119 24 94.5 53.5Q70 83 57.5 121Q45 159 45 200Q45 230 53.5 259Q62 288 79 313Q96 338 120 356.5Q144 375 174 385V387Q151 396 132 412Q113 428 100 448.5Q87 469 80 492Q73 515 73 539Q73 575 84 606Q95 637 116 660.5Q137 684 167 697Q197 710 234 710Q271 710 300.5 697Q330 684 351 660.5Q372 637 383 606Q394 575 394 539Q394 515 387 492Q380 469 367 448.5Q354 428 335 412Q316 396 293 387Z" glyph-name="eight" horiz-adv-x="468" unicode="8" /><glyph d="M387 165Q387 193 377.5 219Q368 245 350 266Q332 287 305 299Q278 311 244 311Q210 311 183 299Q156 287 138 266Q120 245 110.5 219Q101 193 101 165Q101 135 110 110Q119 85 137 66Q155 47 182 37Q209 27 244 27Q279 27 306 37Q333 47 351 66Q369 85 378 110Q387 135 387 165ZM244 344Q271 344 292 352.5Q313 361 326.5 376Q340 391 347 411Q354 431 354 455Q354 478 346 497.5Q338 517 323.5 531.5Q309 546 288.5 554Q268 562 244 562Q220 562 199.5 554Q179 546 164 532Q149 518 141 498Q133 478 133 455Q133 431 140 411Q147 391 161 376Q175 361 196 352.5Q217 344 244 344ZM294 329V327Q325 320 349.5 305Q374 290 391.5 268.5Q409 247 418 220.5Q427 194 427 165Q427 129 414.5 97Q402 65 378.5 41Q355 17 320.5 3.5Q286 -10 244 -10Q201 -10 167 3.5Q133 17 109 41Q85 65 73 96.5Q61 128 61 165Q61 195 70 221Q79 247 96 268.5Q113 290 137.5 305Q162 320 193 327V329Q169 334 150.5 345.5Q132 357 119 373.5Q106 390 99.5 411Q93 432 93 456Q93 486 104 512.5Q115 539 135.5 558.5Q156 578 183.5 589Q211 600 244 600Q276 600 303.5 589Q331 578 351.5 558.5Q372 539 383 512.5Q394 486 394 456Q394 432 387.5 411Q381 390 368 373.5Q355 357 336.5 345.5Q318 334 294 329Z" glyph-name="eight.osf" horiz-adv-x="488" /><glyph d="M108 16Q108 10 106 5.5Q104 1 100 -2.5Q96 -6 91.5 -8Q87 -10 81 -10Q75 -10 70.5 -8Q66 -6 62.5 -2.5Q59 1 57 5.5Q55 10 55 16Q55 22 57 26.5Q59 31 62.5 35Q66 39 70.5 41Q75 43 81 43Q87 43 91.5 41Q96 39 100 35Q104 31 106 26.5Q108 22 108 16ZM211 16Q211 10 209 5.5Q207 1 203 -2.5Q199 -6 194.5 -8Q190 -10 184 -10Q178 -10 173.5 -8Q169 -6 165.5 -2.5Q162 1 160 5.5Q158 10 158 16Q158 22 160 26.5Q162 31 165.5 35Q169 39 173.5 41Q178 43 184 43Q190 43 194.5 41Q199 39 203 35Q207 31 209 26.5Q211 22 211 16ZM307 16Q307 10 305 5.5Q303 1 299 -2.5Q295 -6 290.5 -8Q286 -10 280 -10Q274 -10 269.5 -8Q265 -6 261.5 -2.5Q258 1 256 5.5Q254 10 254 16Q254 22 256 26.5Q258 31 261.5 35Q265 39 269.5 41Q274 43 280 43Q286 43 290.5 41Q295 39 299 35Q303 31 305 26.5Q307 22 307 16Z" glyph-name="ellipsis" horiz-adv-x="362" unicode="&#8230;" /><glyph d="M579 370V332H45V370Z" glyph-name="emdash" horiz-adv-x="624" unicode="&#8212;" /><glyph d="M378 370V332H45V370Z" glyph-name="endash" horiz-adv-x="423" unicode="&#8211;" /><glyph d="M287 269H45V309H287ZM287 391H45V431H287Z" glyph-name="equal" horiz-adv-x="332" unicode="=" /><glyph d="M404 0H363Q359 14 356.5 24.5Q354 35 352 49.5Q350 64 350 79H348Q340 60 328.5 43.5Q317 27 301.5 15Q286 3 266 -3.5Q246 -10 222 -10Q182 -10 150 8Q118 26 96.5 61Q75 96 63.5 145.5Q52 195 52 258Q52 321 62.5 371Q73 421 94.5 455.5Q116 490 148.5 508Q181 526 223 526Q245 526 264 519.5Q283 513 298.5 501Q314 489 326 473Q338 457 347 437H349Q349 454 348.5 466.5Q348 479 348 496Q348 513 348 531Q348 548 346.5 562.5Q345 577 342.5 590Q340 603 336.5 614.5Q333 626 328 635L261 575L240 598L306 662Q298 669 288 674.5Q278 680 266 684Q254 688 240.5 689.5Q227 691 211 691V730Q231 730 248.5 727.5Q266 725 282 720Q298 715 311 707.5Q324 700 335 690L405 758L432 729L358 662Q366 650 371.5 636Q377 622 380.5 605.5Q384 589 386 570.5Q388 552 388 531V87Q388 68 390.5 51.5Q393 35 396 24Q399 13 404 0ZM348 203V311Q348 349 340.5 381Q333 413 317 437Q301 461 277.5 474.5Q254 488 223 488Q190 488 165 472.5Q140 457 124 427.5Q108 398 100.5 355.5Q93 313 93 258Q93 203 100.5 160.5Q108 118 124 88.5Q140 59 165 43.5Q190 28 223 28Q252 28 275 40.5Q298 53 314 76Q330 99 338.5 131Q347 163 348 203Z" glyph-name="eth" horiz-adv-x="464" unicode="&#240;" /><glyph d="M115 147H75V700H115ZM122 16Q122 10 120 5.5Q118 1 114 -2.5Q110 -6 105.5 -8Q101 -10 95 -10Q89 -10 84.5 -8Q80 -6 76.5 -2.5Q73 1 71 5.5Q69 10 69 16Q69 22 71 26.5Q73 31 76.5 35Q80 39 84.5 41Q89 43 95 43Q101 43 105.5 41Q110 39 114 35Q118 31 120 26.5Q122 22 122 16Z" glyph-name="exclam" horiz-adv-x="191" unicode="!" /><glyph d="M76 553H116V0H76ZM69 684Q69 690 71 694.5Q73 699 77 702.5Q81 706 85.5 708Q90 710 96 710Q102 710 106.5 708Q111 706 114.5 702.5Q118 699 120 694.5Q122 690 122 684Q122 678 120 673.5Q118 669 114.5 665Q111 661 106.5 659Q102 657 96 657Q90 657 85.5 659Q81 661 77 665Q73 669 71 673.5Q69 678 69 684Z" glyph-name="exclamdown" horiz-adv-x="191" unicode="&#161;" /><glyph d="M151 0H111V478H25V516H111V607Q111 638 118 662.5Q125 687 139 704.5Q153 722 174 731Q195 740 223 740Q236 740 248.5 737.5Q261 735 272 730.5Q283 726 293 720.5Q303 715 312 708L292 676Q285 682 277 687Q269 692 259.5 695Q250 698 241 700Q232 702 223 702Q205 702 191.5 696Q178 690 169 678Q160 666 155.5 648Q151 630 151 607V516H265V478H151Z" glyph-name="f" horiz-adv-x="280" unicode="f" /><glyph d="M151 0H111V478H25V516H111V607Q111 638 118 662.5Q125 687 139 704.5Q153 722 174 731Q195 740 223 740Q236 740 248.5 737.5Q261 735 272 730.5Q283 726 293 720.5Q303 715 312 708L292 676Q285 682 277 687Q269 692 259.5 695Q250 698 241 700Q232 702 223 702Q205 702 191.5 696Q178 690 169 678Q160 666 155.5 648Q151 630 151 607V516H265V478H151ZM382 0H342V516H382ZM389 621Q389 615 387 610.5Q385 606 381 602.5Q377 599 372.5 597Q368 595 362 595Q356 595 351.5 597Q347 599 343.5 602.5Q340 606 338 610.5Q336 615 336 621Q336 627 338 631.5Q340 636 343.5 640Q347 644 351.5 646Q356 648 362 648Q368 648 372.5 646Q377 644 381 640Q385 636 387 631.5Q389 627 389 621Z" glyph-name="fi" horiz-adv-x="456" unicode="&#64257;" /><glyph d="M43 161 83 171Q90 134 104 107Q118 80 138 62.5Q158 45 182 36.5Q206 28 233 28Q268 28 295.5 43Q323 58 341.5 83.5Q360 109 369 141Q378 173 378 206Q378 242 369.5 273Q361 304 342.5 328.5Q324 353 294.5 367Q265 381 224 381Q206 381 189.5 378Q173 375 159.5 370.5Q146 366 135 359.5Q124 353 115 346L78 360L109 700H365V659H145L118 389L120 388Q129 394 140.5 399.5Q152 405 165.5 409.5Q179 414 194.5 416.5Q210 419 226 419Q278 419 315.5 401.5Q353 384 375.5 353.5Q398 323 408 285.5Q418 248 418 206Q418 165 405.5 126Q393 87 368.5 56.5Q344 26 309 8Q274 -10 231 -10Q192 -10 160 3.5Q128 17 104 41Q80 65 65 96Q50 127 43 161Z" glyph-name="five" horiz-adv-x="463" unicode="5" /><glyph d="M42 34 79 51Q89 26 103.5 7.5Q118 -11 136.5 -23Q155 -35 176.5 -41Q198 -47 221 -47Q256 -47 283 -35Q310 -23 328.5 -1Q347 21 356 49.5Q365 78 365 111Q365 145 355 173.5Q345 202 326 223Q307 244 278 255Q249 266 212 266Q193 266 177 263Q161 260 147.5 254.5Q134 249 123 242.5Q112 236 102 228L65 245L96 515H352V474H131L106 277L108 276Q117 282 128.5 287Q140 292 153.5 295.5Q167 299 183.5 301.5Q200 304 218 304Q264 304 299.5 289Q335 274 358.5 247.5Q382 221 393.5 186Q405 151 405 112Q405 71 392.5 35Q380 -1 356 -28Q332 -55 297.5 -70Q263 -85 220 -85Q187 -85 159 -76Q131 -67 108.5 -51Q86 -35 69.5 -13.5Q53 8 42 34Z" glyph-name="five.osf" horiz-adv-x="450" /><glyph d="M151 0H111V478H25V516H111V607Q111 638 118 662.5Q125 687 139 704.5Q153 722 174 731Q195 740 223 740Q236 740 248.5 737.5Q261 735 272 730.5Q283 726 293 720.5Q303 715 312 708L292 676Q285 682 277 687Q269 692 259.5 695Q250 698 241 700Q232 702 223 702Q205 702 191.5 696Q178 690 169 678Q160 666 155.5 648Q151 630 151 607V516H265V478H151ZM411 0H371V730H411Z" glyph-name="fl" horiz-adv-x="481" unicode="&#64258;" /><glyph d="M413 370 405 332H274Q255 250 238.5 195.5Q222 141 194 93.5Q166 46 120.5 18Q75 -10 9 -10V30Q64 30 101.5 53Q139 76 163.5 116.5Q188 157 203 207.5Q218 258 233 332H87L95 370H241Q259 455 275 512Q291 569 314.5 614.5Q338 660 373.5 685.5Q409 711 459 711V671Q420 671 393 651Q366 631 347.5 593.5Q329 556 315.5 506.5Q302 457 283 370Z" glyph-name="florin" horiz-adv-x="470" unicode="&#402;" /><glyph d="M300 0H260V174H11L260 700H300V212H406V174H300ZM260 212V619H258Q252 604 248 593.5Q244 583 238 569.5Q232 556 226 543L104 285Q99 273 92.5 261Q86 249 80.5 238.5Q75 228 67 214V212Z" glyph-name="four" horiz-adv-x="425" unicode="4" /><glyph d="M311 -75H271V87H22L271 530H311V125H417V87H311ZM271 125V462H269Q262 446 257 435Q252 424 245.5 411Q239 398 232 386L128 197Q120 183 112.5 170Q105 157 99 148Q93 139 85 127V125Z" glyph-name="four.osf" horiz-adv-x="430" /><glyph d="M419 700 55 0H11L374 700Z" glyph-name="fraction" horiz-adv-x="432" unicode="&#8260;" /><glyph d="M348 -27V37Q348 51 348 63.5Q348 76 348.5 85Q349 94 349 105H347Q339 85 328.5 68Q318 51 302.5 38Q287 25 267 17.5Q247 10 222 10Q182 10 150 27Q118 44 96.5 77.5Q75 111 63.5 159Q52 207 52 268Q52 330 62.5 378Q73 426 94.5 459Q116 492 148.5 509Q181 526 223 526Q245 526 264 519.5Q283 513 298.5 501Q314 489 326 473Q338 457 347 438H349Q349 453 351 467Q353 481 355.5 491.5Q358 502 363 516H404Q399 503 396 492Q393 481 390.5 464.5Q388 448 388 429V-24Q388 -67 377.5 -102Q367 -137 347 -162Q327 -187 298.5 -200Q270 -213 234 -213Q207 -213 183.5 -206.5Q160 -200 140 -185.5Q120 -171 104 -149Q88 -127 77 -97L115 -83Q122 -106 134 -123Q146 -140 161.5 -151Q177 -162 195 -167.5Q213 -173 233 -173Q262 -173 284 -162.5Q306 -152 320 -132Q334 -112 341 -85.5Q348 -59 348 -27ZM348 223V318Q348 354 340 385Q332 416 316.5 439.5Q301 463 277 475.5Q253 488 223 488Q190 488 165 473.5Q140 459 124 431Q108 403 100.5 362Q93 321 93 268Q93 215 100.5 174Q108 133 124 105Q140 77 165 62.5Q190 48 223 48Q252 48 275.5 60.5Q299 73 315 96Q331 119 339.5 151Q348 183 348 223Z" glyph-name="g" horiz-adv-x="464" unicode="g" /><glyph d="M111 0H70V508Q70 558 82.5 596.5Q95 635 118.5 660Q142 685 174.5 697.5Q207 710 247 710Q281 710 308.5 701Q336 692 355.5 675Q375 658 385 633.5Q395 609 395 577Q395 527 372.5 498Q350 469 305 443Q260 417 242.5 403Q225 389 225 359Q225 324 250 308.5Q275 293 336.5 269Q398 245 429 215.5Q460 186 460 130Q460 104 452.5 79.5Q445 55 427.5 34.5Q410 14 380.5 2Q351 -10 310 -10Q281 -10 256 -3.5Q231 3 212 13.5Q193 24 179 36.5Q165 49 155 63L186 94Q193 82 204.5 70.5Q216 59 231 49.5Q246 40 266 34Q286 28 308 28Q335 28 356 35Q377 42 391.5 55Q406 68 413.5 86Q421 104 421 126Q421 171 392 193.5Q363 216 304 239.5Q245 263 215 287.5Q185 312 185 360Q185 399 206 421Q227 443 269.5 468Q312 493 333.5 515Q355 537 355 577Q355 600 346.5 618Q338 636 323 648Q308 660 287.5 666Q267 672 243 672Q210 672 185.5 661Q161 650 144.5 629.5Q128 609 119.5 578.5Q111 548 111 510Z" glyph-name="germandbls" horiz-adv-x="497" unicode="&#223;" /><glyph d="M235 736 23 825 41 864 249 767Z" glyph-name="grave" horiz-adv-x="270" unicode="`" /><glyph d="M74 551 268 356V354L74 159L45 188L157 300Q168 311 178 320.5Q188 330 195.5 336.5Q203 343 217 354V356Q208 363 200.5 369Q193 375 182 385.5Q171 396 157 410L45 522Z" glyph-name="greater" horiz-adv-x="308" unicode="&gt;" /><glyph d="M230 179 31 334V375L230 530L254 497L129 402Q117 393 105.5 384.5Q94 376 84.5 369.5Q75 363 62 355V353Q75 345 84.5 338.5Q94 332 105.5 323.5Q117 315 129 306L254 212ZM410 179 211 334V375L410 530L434 497L309 402Q297 393 285.5 384.5Q274 376 264.5 369.5Q255 363 242 355V353Q255 345 264.5 338.5Q274 332 285.5 323.5Q297 315 309 306L434 212Z" glyph-name="guillemotleft" horiz-adv-x="484" unicode="&#171;" /><glyph d="M263 334 64 179 40 212 165 306Q177 315 188.5 323.5Q200 332 209.5 338.5Q219 345 232 353V355Q219 363 209.5 369.5Q200 376 188.5 384.5Q177 393 165 402L40 497L64 530L263 375ZM443 334 244 179 220 212 345 306Q357 315 368.5 323.5Q380 332 389.5 338.5Q399 345 412 353V355Q399 363 389.5 369.5Q380 376 368.5 384.5Q357 393 345 402L220 497L244 530L443 375Z" glyph-name="guillemotright" horiz-adv-x="484" unicode="&#187;" /><glyph d="M230 179 31 334V375L230 530L254 497L129 402Q117 393 105.5 384.5Q94 376 84.5 369.5Q75 363 62 355V353Q75 345 84.5 338.5Q94 332 105.5 323.5Q117 315 129 306L254 212Z" glyph-name="guilsinglleft" horiz-adv-x="304" unicode="&#8249;" /><glyph d="M263 334 64 179 40 212 165 306Q177 315 188.5 323.5Q200 332 209.5 338.5Q219 345 232 353V355Q219 363 209.5 369.5Q200 376 188.5 384.5Q177 393 165 402L40 497L64 530L263 375Z" glyph-name="guilsinglright" horiz-adv-x="314" unicode="&#8250;" /><glyph d="M406 0H366V315Q366 358 359.5 390Q353 422 339 444Q325 466 303 477Q281 488 250 488Q221 488 195 476Q169 464 150 440.5Q131 417 120.5 384.5Q110 352 110 313V0H70V730H110V503Q110 492 110 478Q110 464 109.5 452Q109 440 109 422H111Q121 446 135 465.5Q149 485 166.5 498.5Q184 512 205.5 519Q227 526 251 526Q296 526 326 510Q356 494 373.5 465.5Q391 437 398.5 399.5Q406 362 406 316Z" glyph-name="h" horiz-adv-x="471" unicode="h" /><glyph d="M99 752H65L105 904H150ZM179 752H145L185 904H230Z" glyph-name="hungarumlaut" horiz-adv-x="262" unicode="&#733;" /><glyph d="M243 370V332H45V370Z" glyph-name="hyphen" horiz-adv-x="288" unicode="-" /><glyph d="M113 0H73V516H113ZM120 632Q120 626 118 621.5Q116 617 112 613.5Q108 610 103.5 608Q99 606 93 606Q87 606 82.5 608Q78 610 74.5 613.5Q71 617 69 621.5Q67 626 67 632Q67 638 69 642.5Q71 647 74.5 651Q78 655 82.5 657Q87 659 93 659Q99 659 103.5 657Q108 655 112 651Q116 647 118 642.5Q120 638 120 632Z" glyph-name="i" horiz-adv-x="187" unicode="i" /><glyph d="M145 0H105V516H145ZM238 665 26 576 12 607 220 704Z" glyph-name="iacute" horiz-adv-x="234" unicode="&#237;" /><glyph d="M146 0H106V516H146ZM222 586 182 627Q170 639 160 650Q150 661 143.5 669Q137 677 129 687H127Q119 676 112 668Q105 660 95.5 649.5Q86 639 74 627L34 586L5 614L128 736L250 614Z" glyph-name="icircumflex" horiz-adv-x="255" unicode="&#238;" /><glyph d="M122 0H82V516H122ZM61 632Q61 626 59 621.5Q57 617 53 613.5Q49 610 44.5 608Q40 606 34 606Q28 606 23.5 608Q19 610 15.5 613.5Q12 617 10 621.5Q8 626 8 632Q8 638 10 642.5Q12 647 15.5 651Q19 655 23.5 657Q28 659 34 659Q40 659 44.5 657Q49 655 53 651Q57 647 59 642.5Q61 638 61 632ZM201 632Q201 626 199 621.5Q197 617 193 613.5Q189 610 184.5 608Q180 606 174 606Q168 606 163.5 608Q159 610 155.5 613.5Q152 617 150 621.5Q148 626 148 632Q148 638 150 642.5Q152 647 155.5 651Q159 655 163.5 657Q168 659 174 659Q180 659 184.5 657Q189 655 193 651Q197 647 199 642.5Q201 638 201 632Z" glyph-name="idieresis" horiz-adv-x="209" unicode="&#239;" /><glyph d="M136 0H96V516H136ZM208 576 -4 665 14 704 222 607Z" glyph-name="igrave" horiz-adv-x="234" unicode="&#236;" /><glyph d="M-69 -200 -56 -163Q-50 -166 -43 -167.5Q-36 -169 -29.5 -169.5Q-23 -170 -16.5 -170.5Q-10 -171 -3 -171Q25 -171 46 -162.5Q67 -154 81 -134.5Q95 -115 102.5 -82Q110 -49 110 -2V516H150V5Q150 -53 140 -94Q130 -135 110 -160.5Q90 -186 62 -198Q34 -210 -4 -210Q-12 -210 -19.5 -209.5Q-27 -209 -35.5 -207.5Q-44 -206 -52 -204.5Q-60 -203 -69 -200ZM156 632Q156 626 154 621.5Q152 617 148 613.5Q144 610 139.5 608Q135 606 129 606Q123 606 118.5 608Q114 610 110.5 613.5Q107 617 105 621.5Q103 626 103 632Q103 638 105 642.5Q107 647 110.5 651Q114 655 118.5 657Q123 659 129 659Q135 659 139.5 657Q144 655 148 651Q152 647 154 642.5Q156 638 156 632Z" glyph-name="j" horiz-adv-x="223" unicode="j" /><glyph d="M412 0H364L199 280H197Q189 268 182.5 259.5Q176 251 167.5 240Q159 229 149 217L110 170V0H70V730H110V311Q110 299 110 285Q110 271 109.5 258.5Q109 246 109 227H111Q122 242 129.5 252Q137 262 146 274Q155 286 163 296L340 516H392L224 310Z" glyph-name="k" horiz-adv-x="444" unicode="k" /><glyph d="M110 0H70V730H110Z" glyph-name="l" horiz-adv-x="180" unicode="l" /><glyph d="M224 159 30 354V356L224 551L253 522L141 410Q130 399 120 389.5Q110 380 102.5 373.5Q95 367 81 356V354Q90 347 97.5 341Q105 335 116 324.5Q127 314 141 300L253 188Z" glyph-name="less" horiz-adv-x="308" unicode="&lt;" /><glyph d="M273 217 173 317 73 217 45 245 145 345 45 445 73 473 173 373 273 473 301 445 201 345 301 245Z" glyph-name="logicalnot" horiz-adv-x="346" unicode="&#172;" /><glyph d="M143 0H103V272L29 240L15 275L103 313V730H143V330L216 362L230 327L143 289Z" glyph-name="lslash" horiz-adv-x="245" unicode="&#322;" /><glyph d="M648 0H608V315Q608 359 603 391Q598 423 586 444.5Q574 466 554.5 477Q535 488 507 488Q479 488 456 476.5Q433 465 416.5 441.5Q400 418 391 384Q382 350 382 305V0H342V315Q342 359 337 391Q332 423 320 444.5Q308 466 288.5 477Q269 488 241 488Q214 488 191 477Q168 466 151 444Q134 422 125 389Q116 356 116 314V0H76V429Q76 448 74 464.5Q72 481 69 492Q66 503 60 516H101Q106 500 108.5 488.5Q111 477 113 461.5Q115 446 115 430H117Q126 454 139 471.5Q152 489 168 501.5Q184 514 202.5 520Q221 526 242 526Q271 526 293 518Q315 510 330.5 495.5Q346 481 356 461Q366 441 372 415H374Q382 443 395 464Q408 485 425.5 498.5Q443 512 464 519Q485 526 508 526Q551 526 578.5 510Q606 494 621 465.5Q636 437 642 400Q648 363 648 316Z" glyph-name="m" horiz-adv-x="713" unicode="m" /><glyph d="M243 880V842H45V880Z" glyph-name="macron" horiz-adv-x="288" unicode="&#175;" /><glyph d="M243 370V332H45V370Z" glyph-name="minus" horiz-adv-x="288" unicode="&#8722;" /><glyph d="M273 217 173 317 73 217 45 245 145 345 45 445 73 473 173 373 273 473 301 445 201 345 301 245Z" glyph-name="multiply" horiz-adv-x="346" unicode="&#215;" /><glyph d="M412 0H372V315Q372 358 365.5 390Q359 422 345 444Q331 466 309 477Q287 488 256 488Q226 488 200 475Q174 462 155.5 438Q137 414 126.5 380Q116 346 116 305V0H76V429Q76 448 74 464.5Q72 481 69 492Q66 503 60 516H101Q106 498 108.5 485Q111 472 113 455.5Q115 439 115 422H117Q127 446 141 465.5Q155 485 172.5 498.5Q190 512 211.5 519Q233 526 257 526Q302 526 332 510Q362 494 379.5 465.5Q397 437 404.5 399.5Q412 362 412 316Z" glyph-name="n" horiz-adv-x="477" unicode="n" /><glyph d="M392 401H390Q381 375 366.5 353.5Q352 332 332 316Q312 300 286 291.5Q260 283 230 283Q185 283 150 300Q115 317 91.5 346Q68 375 56.5 411.5Q45 448 45 488Q45 530 57.5 569.5Q70 609 94 641Q118 673 154 691.5Q190 710 234 710Q290 710 328.5 683.5Q367 657 389 609Q411 561 420.5 496.5Q430 432 430 350Q430 269 420 204Q410 139 387.5 91Q365 43 328 16.5Q291 -10 238 -10Q205 -10 178.5 -0.5Q152 9 132 27Q112 45 97.5 70Q83 95 73 128L111 142Q120 115 131.5 94Q143 73 158 58Q173 43 193 35Q213 27 238 27Q282 27 311.5 52Q341 77 358.5 124.5Q376 172 384 240.5Q392 309 392 401ZM230 321Q265 321 292.5 332.5Q320 344 339 366.5Q358 389 367.5 420.5Q377 452 377 492Q377 533 366.5 566.5Q356 600 336.5 623.5Q317 647 291 659.5Q265 672 234 672Q199 672 170.5 657Q142 642 123 616Q104 590 94.5 558Q85 526 85 492Q85 459 94 428Q103 397 121.5 373Q140 349 167.5 335Q195 321 230 321Z" glyph-name="nine" horiz-adv-x="485" unicode="9" /><glyph d="M227 168Q263 168 291 180.5Q319 193 336.5 214.5Q354 236 362.5 263.5Q371 291 371 321Q371 361 360 392.5Q349 424 329.5 445.5Q310 467 284 478Q258 489 229 489Q195 489 168.5 477Q142 465 123.5 443Q105 421 96 391.5Q87 362 87 327Q87 293 96.5 264Q106 235 124 213.5Q142 192 168.5 180Q195 168 227 168ZM383 262H381Q375 233 363 209Q351 185 332 167.5Q313 150 286.5 140Q260 130 226 130Q183 130 149.5 145.5Q116 161 93.5 189Q71 217 59.5 252.5Q48 288 48 328Q48 368 59 403.5Q70 439 93 466.5Q116 494 151 510Q186 526 231 526Q280 526 316 505.5Q352 485 375.5 445.5Q399 406 410.5 350Q422 294 422 222Q422 150 411 94Q400 38 376 -2Q352 -42 315 -63.5Q278 -85 226 -85Q198 -85 174.5 -79.5Q151 -74 132.5 -63.5Q114 -53 98.5 -38.5Q83 -24 69 -5L99 20Q110 4 122.5 -8.5Q135 -21 151 -30Q167 -39 186 -43.5Q205 -48 228 -48Q281 -48 313.5 -18Q346 12 361 59.5Q376 107 380 157.5Q384 208 383 262Z" glyph-name="nine.osf" horiz-adv-x="482" /><glyph d="M287 269H148L102 180L65 192L105 269H45V309H125L168 391H45V431H188L224 499L261 487L232 431H287V391H211L169 309H287Z" glyph-name="notequal" horiz-adv-x="332" unicode="&#8800;" /><glyph d="M412 0H372V315Q372 358 365.5 390Q359 422 345 444Q331 466 309 477Q287 488 256 488Q226 488 200 475Q174 462 155.5 438Q137 414 126.5 380Q116 346 116 305V0H76V429Q76 448 74 464.5Q72 481 69 492Q66 503 60 516H101Q106 498 108.5 485Q111 472 113 455.5Q115 439 115 422H117Q127 446 141 465.5Q155 485 172.5 498.5Q190 512 211.5 519Q233 526 257 526Q302 526 332 510Q362 494 379.5 465.5Q397 437 404.5 399.5Q412 362 412 316ZM352 723H391Q391 697 386.5 676.5Q382 656 371.5 641.5Q361 627 344.5 619.5Q328 612 304 612Q282 612 265 622Q248 632 228 652Q208 672 196.5 680.5Q185 689 171 689Q156 689 146 683Q136 677 131 666.5Q126 656 124.5 644Q123 632 123 617H84Q84 643 89 663Q94 683 104.5 697.5Q115 712 131.5 719.5Q148 727 170 727Q192 727 209 716.5Q226 706 246 686Q266 666 277.5 657.5Q289 649 303 649Q319 649 329 655.5Q339 662 344 672.5Q349 683 350.5 695.5Q352 708 352 723Z" glyph-name="ntilde" horiz-adv-x="477" unicode="&#241;" /><glyph d="M542 321 539 287H380L342 108H300L338 287H210L172 108H130L168 287H21L24 321H175L206 467H58L61 501H214L249 665H290L255 501H384L419 665H460L425 501H579L576 467H418L387 321ZM217 321H345L376 467H248Z" glyph-name="numbersign" horiz-adv-x="600" unicode="#" /><glyph d="M230 28Q263 28 289 43.5Q315 59 332 88.5Q349 118 358 161Q367 204 367 258Q367 312 358 355Q349 398 332 427.5Q315 457 289 472.5Q263 488 230 488Q197 488 171 472.5Q145 457 128 427.5Q111 398 102 355Q93 312 93 258Q93 204 102 161Q111 118 128 88.5Q145 59 171 43.5Q197 28 230 28ZM230 -10Q188 -10 154.5 8Q121 26 98 61Q75 96 63.5 145.5Q52 195 52 258Q52 321 63.5 370.5Q75 420 98 455Q121 490 154.5 508Q188 526 230 526Q272 526 305.5 508Q339 490 362 455Q385 420 396.5 370.5Q408 321 408 258Q408 195 396.5 145.5Q385 96 362 61Q339 26 305.5 8Q272 -10 230 -10Z" glyph-name="o" horiz-adv-x="460" unicode="o" /><glyph d="M230 28Q263 28 289 43.5Q315 59 332 88.5Q349 118 358 161Q367 204 367 258Q367 312 358 355Q349 398 332 427.5Q315 457 289 472.5Q263 488 230 488Q197 488 171 472.5Q145 457 128 427.5Q111 398 102 355Q93 312 93 258Q93 204 102 161Q111 118 128 88.5Q145 59 171 43.5Q197 28 230 28ZM230 -10Q188 -10 154.5 8Q121 26 98 61Q75 96 63.5 145.5Q52 195 52 258Q52 321 63.5 370.5Q75 420 98 455Q121 490 154.5 508Q188 526 230 526Q272 526 305.5 508Q339 490 362 455Q385 420 396.5 370.5Q408 321 408 258Q408 195 396.5 145.5Q385 96 362 61Q339 26 305.5 8Q272 -10 230 -10ZM335 674 123 585 109 616 317 713Z" glyph-name="oacute" horiz-adv-x="460" unicode="&#243;" /><glyph d="M230 28Q263 28 289 43.5Q315 59 332 88.5Q349 118 358 161Q367 204 367 258Q367 312 358 355Q349 398 332 427.5Q315 457 289 472.5Q263 488 230 488Q197 488 171 472.5Q145 457 128 427.5Q111 398 102 355Q93 312 93 258Q93 204 102 161Q111 118 128 88.5Q145 59 171 43.5Q197 28 230 28ZM230 -10Q188 -10 154.5 8Q121 26 98 61Q75 96 63.5 145.5Q52 195 52 258Q52 321 63.5 370.5Q75 420 98 455Q121 490 154.5 508Q188 526 230 526Q272 526 305.5 508Q339 490 362 455Q385 420 396.5 370.5Q408 321 408 258Q408 195 396.5 145.5Q385 96 362 61Q339 26 305.5 8Q272 -10 230 -10ZM327 587 287 628Q275 640 265 651Q255 662 248.5 670Q242 678 234 688H232Q224 677 217 669Q210 661 200.5 650.5Q191 640 179 628L139 587L110 615L233 737L355 615Z" glyph-name="ocircumflex" horiz-adv-x="460" unicode="&#244;" /><glyph d="M230 28Q263 28 289 43.5Q315 59 332 88.5Q349 118 358 161Q367 204 367 258Q367 312 358 355Q349 398 332 427.5Q315 457 289 472.5Q263 488 230 488Q197 488 171 472.5Q145 457 128 427.5Q111 398 102 355Q93 312 93 258Q93 204 102 161Q111 118 128 88.5Q145 59 171 43.5Q197 28 230 28ZM230 -10Q188 -10 154.5 8Q121 26 98 61Q75 96 63.5 145.5Q52 195 52 258Q52 321 63.5 370.5Q75 420 98 455Q121 490 154.5 508Q188 526 230 526Q272 526 305.5 508Q339 490 362 455Q385 420 396.5 370.5Q408 321 408 258Q408 195 396.5 145.5Q385 96 362 61Q339 26 305.5 8Q272 -10 230 -10ZM187 633Q187 627 185 622.5Q183 618 179 614.5Q175 611 170.5 609Q166 607 160 607Q154 607 149.5 609Q145 611 141.5 614.5Q138 618 136 622.5Q134 627 134 633Q134 639 136 643.5Q138 648 141.5 652Q145 656 149.5 658Q154 660 160 660Q166 660 170.5 658Q175 656 179 652Q183 648 185 643.5Q187 639 187 633ZM327 633Q327 627 325 622.5Q323 618 319 614.5Q315 611 310.5 609Q306 607 300 607Q294 607 289.5 609Q285 611 281.5 614.5Q278 618 276 622.5Q274 627 274 633Q274 639 276 643.5Q278 648 281.5 652Q285 656 289.5 658Q294 660 300 660Q306 660 310.5 658Q315 656 319 652Q323 648 325 643.5Q327 639 327 633Z" glyph-name="odieresis" horiz-adv-x="460" unicode="&#246;" /><glyph d="M683 141 721 128Q710 93 695 67.5Q680 42 660 24.5Q640 7 613 -1.5Q586 -10 552 -10Q517 -10 489 3.5Q461 17 440.5 43Q420 69 407 105Q394 141 388 186H386Q381 139 369 103Q357 67 338 42Q319 17 292 3.5Q265 -10 230 -10Q188 -10 154.5 8Q121 26 98 61Q75 96 63.5 145.5Q52 195 52 258Q52 321 63.5 370.5Q75 420 98 455Q121 490 154.5 508Q188 526 230 526Q265 526 292 513Q319 500 338.5 475Q358 450 370 414.5Q382 379 387 333H389Q394 379 407 415Q420 451 440 475.5Q460 500 488 513Q516 526 552 526Q598 526 631 508.5Q664 491 685 457Q706 423 716 374.5Q726 326 726 263H408V258Q408 204 417 161Q426 118 444 88.5Q462 59 488.5 43.5Q515 28 548 28Q574 28 595 34.5Q616 41 632 54.5Q648 68 661 89.5Q674 111 683 141ZM230 28Q263 28 289 43.5Q315 59 332 88.5Q349 118 358 161Q367 204 367 258Q367 312 358 355Q349 398 332 427.5Q315 457 289 472.5Q263 488 230 488Q197 488 171 472.5Q145 457 128 427.5Q111 398 102 355Q93 312 93 258Q93 204 102 161Q111 118 128 88.5Q145 59 171 43.5Q197 28 230 28ZM409 301H684Q681 348 672 382.5Q663 417 647 440.5Q631 464 606 476Q581 488 548 488Q518 488 493.5 475.5Q469 463 451.5 439Q434 415 423 380Q412 345 409 301Z" glyph-name="oe" horiz-adv-x="772" unicode="&#339;" /><glyph d="M200 -152 214 -188Q209 -191 203.5 -193.5Q198 -196 192.5 -197.5Q187 -199 181 -199.5Q175 -200 169 -200Q147 -200 129 -191Q111 -182 98.5 -166Q86 -150 79.5 -129.5Q73 -109 73 -87Q73 -67 78 -48.5Q83 -30 93.5 -13.5Q104 3 120.5 16Q137 29 158 37L173 0Q158 -4 147.5 -12.5Q137 -21 130 -32.5Q123 -44 119.5 -57Q116 -70 116 -84Q116 -98 119.5 -111.5Q123 -125 130.5 -136Q138 -147 149 -153Q160 -159 173 -159Q177 -159 180.5 -158.5Q184 -158 187.5 -157Q191 -156 194 -155Q197 -154 200 -152Z" glyph-name="ogonek" horiz-adv-x="283" unicode="&#731;" /><glyph d="M230 28Q263 28 289 43.5Q315 59 332 88.5Q349 118 358 161Q367 204 367 258Q367 312 358 355Q349 398 332 427.5Q315 457 289 472.5Q263 488 230 488Q197 488 171 472.5Q145 457 128 427.5Q111 398 102 355Q93 312 93 258Q93 204 102 161Q111 118 128 88.5Q145 59 171 43.5Q197 28 230 28ZM230 -10Q188 -10 154.5 8Q121 26 98 61Q75 96 63.5 145.5Q52 195 52 258Q52 321 63.5 370.5Q75 420 98 455Q121 490 154.5 508Q188 526 230 526Q272 526 305.5 508Q339 490 362 455Q385 420 396.5 370.5Q408 321 408 258Q408 195 396.5 145.5Q385 96 362 61Q339 26 305.5 8Q272 -10 230 -10ZM318 576 106 665 124 704 332 607Z" glyph-name="ograve" horiz-adv-x="460" unicode="&#242;" /><glyph d="M163 0H123V662H55V700H163Z" glyph-name="one" horiz-adv-x="268" unicode="1" /><glyph d="M146 0H105V478H27V516H146Z" glyph-name="one.osf" horiz-adv-x="237" /><glyph d="M136 385H96V662H62V700H136ZM65 0 429 700H384L21 0ZM441 0H244V2L373 165Q381 175 387 183.5Q393 192 397 200Q401 208 403 216.5Q405 225 405 234Q405 246 401 256Q397 266 390 273Q383 280 373.5 283.5Q364 287 353 287Q339 287 328 281Q317 275 309 264.5Q301 254 296 242Q291 230 289 217L249 229Q254 249 262 265.5Q270 282 282.5 295.5Q295 309 312.5 317Q330 325 353 325Q375 325 392 318Q409 311 421 298Q433 285 439 268.5Q445 252 445 233Q445 221 442.5 210Q440 199 435.5 188.5Q431 178 424 167.5Q417 157 408 145L375 103Q364 89 354.5 77.5Q345 66 338 58Q331 50 322 41V38H441Z" glyph-name="onehalf" horiz-adv-x="494" unicode="&#189;" /><glyph d="M394 0H354V69H226L361 316H394V107H439V69H394ZM357 103V250H355Q346 226 334.5 203.5Q323 181 312.5 162Q302 143 293.5 129.5Q285 116 278 105V103ZM136 385H96V662H62V700H136ZM65 0 429 700H384L21 0Z" glyph-name="onequarter" horiz-adv-x="477" unicode="&#188;" /><glyph d="M111 385H71V662H37V700H111Z" glyph-name="onesuperior" horiz-adv-x="165" unicode="&#185;" /><glyph d="M238 383H198L181 448H81L64 383H24L114 700H148ZM172 481 151 564Q146 583 142.5 599.5Q139 616 136.5 628.5Q134 641 132 657H130Q128 641 125.5 628.5Q123 616 119.5 599.5Q116 583 111 564L89 481Z" glyph-name="ordfeminine" horiz-adv-x="257" unicode="&#170;" /><glyph d="M133 370Q104 370 83 382Q62 394 48 416Q34 438 27.5 469.5Q21 501 21 540Q21 579 27.5 610.5Q34 642 48 664Q62 686 83 698Q104 710 133 710Q162 710 183 698Q204 686 218 664Q232 642 238.5 610.5Q245 579 245 540Q245 501 238.5 469.5Q232 438 218 416Q204 394 183 382Q162 370 133 370ZM133 405Q152 405 165.5 414.5Q179 424 187.5 442Q196 460 200 484.5Q204 509 204 540Q204 571 200 595.5Q196 620 187.5 638Q179 656 165.5 665.5Q152 675 133 675Q114 675 100.5 665.5Q87 656 78.5 638Q70 620 66 595.5Q62 571 62 540Q62 509 66 484.5Q70 460 78.5 442Q87 424 100.5 414.5Q114 405 133 405Z" glyph-name="ordmasculine" horiz-adv-x="267" unicode="&#186;" /><glyph d="M267 -10Q225 -10 191.5 8Q158 26 135 61Q112 96 100.5 145.5Q89 195 89 258Q89 321 100.5 370.5Q112 420 135 455Q158 490 191.5 508Q225 526 267 526Q309 526 342.5 508Q376 490 399 455Q422 420 433.5 370.5Q445 321 445 258Q445 195 433.5 145.5Q422 96 399 61Q376 26 342.5 8Q309 -10 267 -10ZM363 437 197 50Q204 44 212 40Q220 36 229 33.5Q238 31 247.5 29.5Q257 28 267 28Q300 28 326 43.5Q352 59 369 88.5Q386 118 395 161Q404 204 404 258Q404 288 401.5 314Q399 340 393.5 362.5Q388 385 380.5 403.5Q373 422 363 437ZM170 80 335 466Q328 471 320 475Q312 479 303.5 482Q295 485 286 486.5Q277 488 267 488Q234 488 208 472.5Q182 457 165 427.5Q148 398 139 355Q130 312 130 258Q130 229 132.5 203Q135 177 140 154.5Q145 132 152.5 113.5Q160 95 170 80Z" glyph-name="oslash" horiz-adv-x="535" unicode="&#248;" /><glyph d="M230 28Q263 28 289 43.5Q315 59 332 88.5Q349 118 358 161Q367 204 367 258Q367 312 358 355Q349 398 332 427.5Q315 457 289 472.5Q263 488 230 488Q197 488 171 472.5Q145 457 128 427.5Q111 398 102 355Q93 312 93 258Q93 204 102 161Q111 118 128 88.5Q145 59 171 43.5Q197 28 230 28ZM230 -10Q188 -10 154.5 8Q121 26 98 61Q75 96 63.5 145.5Q52 195 52 258Q52 321 63.5 370.5Q75 420 98 455Q121 490 154.5 508Q188 526 230 526Q272 526 305.5 508Q339 490 362 455Q385 420 396.5 370.5Q408 321 408 258Q408 195 396.5 145.5Q385 96 362 61Q339 26 305.5 8Q272 -10 230 -10ZM338 723H377Q377 697 372.5 676.5Q368 656 357.5 641.5Q347 627 330.5 619.5Q314 612 290 612Q268 612 251 622Q234 632 214 652Q194 672 182.5 680.5Q171 689 157 689Q142 689 132 683Q122 677 117 666.5Q112 656 110.5 644Q109 632 109 617H70Q70 643 75 663Q80 683 90.5 697.5Q101 712 117.5 719.5Q134 727 156 727Q178 727 195 716.5Q212 706 232 686Q252 666 263.5 657.5Q275 649 289 649Q305 649 315 655.5Q325 662 330 672.5Q335 683 336.5 695.5Q338 708 338 723Z" glyph-name="otilde" horiz-adv-x="460" unicode="&#245;" /><glyph d="M116 -200H76V429Q76 448 74 464.5Q72 481 69 492Q66 503 60 516H101Q105 501 107.5 490Q110 479 112 465Q114 451 115 437H117Q125 456 136.5 471.5Q148 487 163 499.5Q178 512 198 519Q218 526 243 526Q283 526 314.5 508Q346 490 367.5 455Q389 420 400.5 369.5Q412 319 412 256Q412 194 401 145Q390 96 369 61Q348 26 316.5 8Q285 -10 245 -10Q221 -10 201.5 -3.5Q182 3 166.5 14.5Q151 26 139 42.5Q127 59 117 80H115Q115 65 115.5 54Q116 43 116 28Q116 13 116 -2ZM116 312V205Q116 167 123.5 135Q131 103 147 79Q163 55 186.5 41.5Q210 28 241 28Q274 28 299 43.5Q324 59 340 88.5Q356 118 363.5 160.5Q371 203 371 258Q371 313 363.5 355.5Q356 398 340 427.5Q324 457 299.5 472.5Q275 488 242 488Q212 488 188.5 476Q165 464 149 441Q133 418 124.5 385Q116 352 116 312Z" glyph-name="p" horiz-adv-x="464" unicode="p" /><glyph d="M391 700V0H351V700ZM321 700V0H281V195H276Q215 195 168.5 216.5Q122 238 91.5 275Q61 312 46.5 357.5Q32 403 32 450Q32 498 45 542Q58 586 86 622Q114 658 157 679Q200 700 257 700Z" glyph-name="paragraph" horiz-adv-x="466" unicode="&#182;" /><glyph d="M173 -67 141 -90Q121 -59 103.5 -19Q86 21 73 74.5Q60 128 52.5 197Q45 266 45 351Q45 435 52.5 504Q60 573 73 626.5Q86 680 103.5 719.5Q121 759 141 790L173 767Q153 740 136.5 701.5Q120 663 108 611.5Q96 560 89.5 494.5Q83 429 83 351Q83 272 89.5 206.5Q96 141 108 89Q120 37 136.5 -1.5Q153 -40 173 -67Z" glyph-name="parenleft" horiz-adv-x="208" unicode="(" /><glyph d="M57 -90 25 -67Q45 -40 61.5 -1.5Q78 37 90 89Q102 141 108.5 206.5Q115 272 115 351Q115 429 108.5 494.5Q102 560 90 611.5Q78 663 61.5 701.5Q45 740 25 767L57 790Q77 759 94.5 719.5Q112 680 125 626.5Q138 573 145.5 504Q153 435 153 351Q153 266 145.5 197Q138 128 125 74.5Q112 21 94.5 -19Q77 -59 57 -90Z" glyph-name="parenright" horiz-adv-x="208" unicode=")" /><glyph d="M133 0 517 700H472L88 0ZM162 366Q131 366 108 378Q85 390 70 413Q55 436 47.5 467.5Q40 499 40 538Q40 577 47.5 608.5Q55 640 70 663Q85 686 108 698Q131 710 162 710Q193 710 216 698Q239 686 254 663Q269 640 276.5 608.5Q284 577 284 538Q284 499 276.5 467.5Q269 436 254 413Q239 390 216 378Q193 366 162 366ZM162 401Q183 401 198.5 411Q214 421 224 439Q234 457 238.5 482Q243 507 243 538Q243 569 238.5 594Q234 619 224 637Q214 655 198.5 665Q183 675 162 675Q141 675 125.5 665Q110 655 100 637Q90 619 85.5 594Q81 569 81 538Q81 507 85.5 482Q90 457 100 439Q110 421 125.5 411Q141 401 162 401ZM443 -10Q412 -10 389 2Q366 14 351 37Q336 60 328.5 91.5Q321 123 321 162Q321 201 328.5 232.5Q336 264 351 287Q366 310 389 322Q412 334 443 334Q474 334 497 322Q520 310 535 287Q550 264 557.5 232.5Q565 201 565 162Q565 123 557.5 91.5Q550 60 535 37Q520 14 497 2Q474 -10 443 -10ZM443 25Q464 25 479.5 35Q495 45 505 63Q515 81 519.5 106Q524 131 524 162Q524 193 519.5 218Q515 243 505 261Q495 279 479.5 289Q464 299 443 299Q422 299 406.5 289Q391 279 381 261Q371 243 366.5 218Q362 193 362 162Q362 131 366.5 106Q371 81 381 63Q391 45 406.5 35Q422 25 443 25Z" glyph-name="percent" horiz-adv-x="605" unicode="%" /><glyph d="M108 16Q108 10 106 5.5Q104 1 100 -2.5Q96 -6 91.5 -8Q87 -10 81 -10Q75 -10 70.5 -8Q66 -6 62.5 -2.5Q59 1 57 5.5Q55 10 55 16Q55 22 57 26.5Q59 31 62.5 35Q66 39 70.5 41Q75 43 81 43Q87 43 91.5 41Q96 39 100 35Q104 31 106 26.5Q108 22 108 16Z" glyph-name="period" horiz-adv-x="163" unicode="." /><glyph d="M108 289Q108 283 106 278.5Q104 274 100 270.5Q96 267 91.5 265Q87 263 81 263Q75 263 70.5 265Q66 267 62.5 270.5Q59 274 57 278.5Q55 283 55 289Q55 295 57 299.5Q59 304 62.5 308Q66 312 70.5 314Q75 316 81 316Q87 316 91.5 314Q96 312 100 308Q104 304 106 299.5Q108 295 108 289Z" glyph-name="periodcentered" horiz-adv-x="163" unicode="&#183;" /><glyph d="M727 -10Q696 -10 673 2Q650 14 635 37Q620 60 612.5 91.5Q605 123 605 162Q605 201 612.5 232.5Q620 264 635 287Q650 310 673 322Q696 334 727 334Q758 334 781 322Q804 310 819 287Q834 264 841.5 232.5Q849 201 849 162Q849 123 841.5 91.5Q834 60 819 37Q804 14 781 2Q758 -10 727 -10ZM727 25Q748 25 763.5 35Q779 45 789 63Q799 81 803.5 106Q808 131 808 162Q808 193 803.5 218Q799 243 789 261Q779 279 763.5 289Q748 299 727 299Q706 299 690.5 289Q675 279 665 261Q655 243 650.5 218Q646 193 646 162Q646 131 650.5 106Q655 81 665 63Q675 45 690.5 35Q706 25 727 25ZM133 0 517 700H472L88 0ZM162 366Q131 366 108 378Q85 390 70 413Q55 436 47.5 467.5Q40 499 40 538Q40 577 47.5 608.5Q55 640 70 663Q85 686 108 698Q131 710 162 710Q193 710 216 698Q239 686 254 663Q269 640 276.5 608.5Q284 577 284 538Q284 499 276.5 467.5Q269 436 254 413Q239 390 216 378Q193 366 162 366ZM162 401Q183 401 198.5 411Q214 421 224 439Q234 457 238.5 482Q243 507 243 538Q243 569 238.5 594Q234 619 224 637Q214 655 198.5 665Q183 675 162 675Q141 675 125.5 665Q110 655 100 637Q90 619 85.5 594Q81 569 81 538Q81 507 85.5 482Q90 457 100 439Q110 421 125.5 411Q141 401 162 401ZM443 -10Q412 -10 389 2Q366 14 351 37Q336 60 328.5 91.5Q321 123 321 162Q321 201 328.5 232.5Q336 264 351 287Q366 310 389 322Q412 334 443 334Q474 334 497 322Q520 310 535 287Q550 264 557.5 232.5Q565 201 565 162Q565 123 557.5 91.5Q550 60 535 37Q520 14 497 2Q474 -10 443 -10ZM443 25Q464 25 479.5 35Q495 45 505 63Q515 81 519.5 106Q524 131 524 162Q524 193 519.5 218Q515 243 505 261Q495 279 479.5 289Q464 299 443 299Q422 299 406.5 289Q391 279 381 261Q371 243 366.5 218Q362 193 362 162Q362 131 366.5 106Q371 81 381 63Q391 45 406.5 35Q422 25 443 25Z" glyph-name="perthousand" horiz-adv-x="889" unicode="&#8240;" /><glyph d="M758 350Q758 274 730.5 208Q703 142 654 93Q605 44 538.5 17Q472 -10 397 -10Q321 -10 255 17Q189 44 139.5 93Q90 142 62.5 208Q35 274 35 350Q35 425 62.5 491Q90 557 139.5 606.5Q189 656 255 683Q321 710 397 710Q472 710 538.5 683Q605 656 654 606.5Q703 557 730.5 491Q758 425 758 350ZM398 28Q466 28 525 52Q584 76 627 119.5Q670 163 694 222.5Q718 282 718 350Q718 418 694 477Q670 536 626.5 580Q583 624 524.5 648Q466 672 398 672Q330 672 271 648Q212 624 167.5 580Q123 536 99 477Q75 418 75 350Q75 282 99 222.5Q123 163 167 119.5Q211 76 270.5 52Q330 28 398 28ZM365 195H325V517H412Q437 517 456.5 507.5Q476 498 488 481.5Q500 465 506 444.5Q512 424 512 401Q512 378 506 357Q500 336 488 320Q476 304 456.5 294.5Q437 285 412 285H365ZM365 323H412Q426 323 437.5 328.5Q449 334 456.5 344.5Q464 355 468 369.5Q472 384 472 401Q472 418 468 432Q464 446 456.5 456.5Q449 467 437.5 473Q426 479 412 479H365Z" glyph-name="pi" horiz-adv-x="793" unicode="&#960;" /><glyph d="M206 184H166V330H25V368H166V514H206V368H347V330H206Z" glyph-name="plus" horiz-adv-x="372" unicode="+" /><glyph d="M297 172V210H37V172ZM189 294H149V430H18V468H149V604H189V468H320V430H189Z" glyph-name="plusminus" horiz-adv-x="338" unicode="&#177;" /><glyph d="M392 -200H352V7Q352 20 352.5 35Q353 50 353 62Q353 74 354 91H352Q344 69 332 51Q320 33 304 19Q288 5 267.5 -2.5Q247 -10 223 -10Q181 -10 148.5 8Q116 26 94.5 60.5Q73 95 62.5 145Q52 195 52 258Q52 321 63.5 370.5Q75 420 96.5 455Q118 490 150 508Q182 526 222 526Q248 526 268.5 518.5Q289 511 305 497.5Q321 484 332 467Q343 450 351 429H353Q353 446 355 461.5Q357 477 359.5 488.5Q362 500 367 516H408Q403 503 400 492Q397 481 394.5 464.5Q392 448 392 429ZM352 203V307Q352 347 343.5 380.5Q335 414 318 438Q301 462 277 475Q253 488 223 488Q190 488 165 472.5Q140 457 124 427.5Q108 398 100.5 355.5Q93 313 93 258Q93 203 100.5 160.5Q108 118 124 88.5Q140 59 165 43.5Q190 28 223 28Q254 28 278.5 41.5Q303 55 319 79Q335 103 343.5 134.5Q352 166 352 203Z" glyph-name="q" horiz-adv-x="468" unicode="q" /><glyph d="M217 140 185 116Q177 129 172.5 139.5Q168 150 164.5 164.5Q161 179 161 197Q161 241 182 277.5Q203 314 244.5 364Q286 414 307 450.5Q328 487 328 531Q328 564 319 590Q310 616 293 634.5Q276 653 252 662.5Q228 672 197 672Q171 672 147.5 661.5Q124 651 105.5 631Q87 611 76 583.5Q65 556 63 523L23 525Q26 566 40 600.5Q54 635 78 659.5Q102 684 132.5 697Q163 710 197 710Q237 710 269 697.5Q301 685 323 662Q345 639 356.5 605.5Q368 572 368 530Q368 480 346.5 440Q325 400 282.5 349.5Q240 299 220.5 267.5Q201 236 201 197Q201 184 203.5 173.5Q206 163 209 156Q212 149 217 140ZM222 16Q222 10 220 5.5Q218 1 214 -2.5Q210 -6 205.5 -8Q201 -10 195 -10Q189 -10 184.5 -8Q180 -6 176.5 -2.5Q173 1 171 5.5Q169 10 169 16Q169 22 171 26.5Q173 31 176.5 35Q180 39 184.5 41Q189 43 195 43Q201 43 205.5 41Q210 39 214 35Q218 31 220 26.5Q222 22 222 16Z" glyph-name="question" horiz-adv-x="393" unicode="?" /><glyph d="M166 560 198 584Q206 571 210.5 560.5Q215 550 218.5 535.5Q222 521 222 503Q222 459 201 422.5Q180 386 138.5 336Q97 286 76 249.5Q55 213 55 169Q55 136 64 110Q73 84 90 65.5Q107 47 131 37.5Q155 28 186 28Q212 28 235.5 38.5Q259 49 277.5 69Q296 89 307 116.5Q318 144 320 177L360 175Q357 134 343 99.5Q329 65 305 40.5Q281 16 250.5 3Q220 -10 186 -10Q146 -10 114 2.5Q82 15 60 38Q38 61 26.5 94.5Q15 128 15 170Q15 220 36.5 260Q58 300 100.5 350.5Q143 401 162.5 432.5Q182 464 182 503Q182 516 180 526.5Q178 537 175 544Q172 551 166 560ZM161 684Q161 690 163 694.5Q165 699 169 702.5Q173 706 177.5 708Q182 710 188 710Q194 710 198.5 708Q203 706 206.5 702.5Q210 699 212 694.5Q214 690 214 684Q214 678 212 673.5Q210 669 206.5 665Q203 661 198.5 659Q194 657 188 657Q182 657 177.5 659Q173 661 169 665Q165 669 163 673.5Q161 678 161 684Z" glyph-name="questiondown" horiz-adv-x="393" unicode="&#191;" /><glyph d="M76 492H45L62 700H104ZM173 492H142L159 700H201Z" glyph-name="quotedbl" horiz-adv-x="246" unicode="&quot;" /><glyph d="M71 -79 51 -61Q59 -53 64.5 -46Q70 -39 74.5 -32Q79 -25 82.5 -17.5Q86 -10 89 -1L87 0Q86 -1 84 -2Q82 -3 80.5 -4Q79 -5 77.5 -5Q76 -5 74 -5Q70 -5 66 -3Q62 -1 59 2Q56 5 54 9.5Q52 14 52 19Q52 24 53.5 28.5Q55 33 58.5 36Q62 39 66.5 41Q71 43 77 43Q83 43 88.5 40.5Q94 38 97.5 33Q101 28 103 20.5Q105 13 105 4Q105 -7 102 -19Q99 -31 94.5 -42.5Q90 -54 83.5 -63.5Q77 -73 71 -79ZM171 -79 151 -61Q159 -53 164.5 -46Q170 -39 174.5 -32Q179 -25 182.5 -17.5Q186 -10 189 -1L187 0Q186 -1 184 -2Q182 -3 180.5 -4Q179 -5 177.5 -5Q176 -5 174 -5Q170 -5 166 -3Q162 -1 159 2Q156 5 154 9.5Q152 14 152 19Q152 24 153.5 28.5Q155 33 158.5 36Q162 39 166.5 41Q171 43 177 43Q183 43 188.5 40.5Q194 38 197.5 33Q201 28 203 20.5Q205 13 205 4Q205 -7 202 -19Q199 -31 194.5 -42.5Q190 -54 183.5 -63.5Q177 -73 171 -79Z" glyph-name="quotedblbase" horiz-adv-x="260" unicode="&#8222;" /><glyph d="M79 713 99 695Q91 687 85.5 680Q80 673 75.5 666Q71 659 67.5 651.5Q64 644 61 635L63 634Q64 635 66 636Q68 637 69.5 638Q71 639 72.5 639Q74 639 76 639Q80 639 84 637Q88 635 91 632Q94 629 96 624.5Q98 620 98 615Q98 610 96.5 605.5Q95 601 91.5 598Q88 595 83.5 593Q79 591 73 591Q67 591 61.5 593.5Q56 596 52.5 601Q49 606 47 613.5Q45 621 45 630Q45 641 48 653Q51 665 55.5 676.5Q60 688 66.5 697.5Q73 707 79 713ZM183 713 203 695Q195 687 189.5 680Q184 673 179.5 666Q175 659 171.5 651.5Q168 644 165 635L167 634Q168 635 170 636Q172 637 173.5 638Q175 639 176.5 639Q178 639 180 639Q184 639 188 637Q192 635 195 632Q198 629 200 624.5Q202 620 202 615Q202 610 200.5 605.5Q199 601 195.5 598Q192 595 187.5 593Q183 591 177 591Q171 591 165.5 593.5Q160 596 156.5 601Q153 606 151 613.5Q149 621 149 630Q149 641 152 653Q155 665 159.5 676.5Q164 688 170.5 697.5Q177 707 183 713Z" glyph-name="quotedblleft" horiz-adv-x="264" unicode="&#8220;" /><glyph d="M71 588 51 606Q59 614 64.5 621Q70 628 74.5 635Q79 642 82.5 649.5Q86 657 89 666L87 667Q86 666 84 665Q82 664 80.5 663Q79 662 77.5 662Q76 662 74 662Q70 662 66 664Q62 666 59 669Q56 672 54 676.5Q52 681 52 686Q52 691 53.5 695.5Q55 700 58.5 703Q62 706 66.5 708Q71 710 77 710Q83 710 88.5 707.5Q94 705 97.5 700Q101 695 103 687.5Q105 680 105 671Q105 660 102 648Q99 636 94.5 624.5Q90 613 83.5 603.5Q77 594 71 588ZM173 588 153 606Q161 614 166.5 621Q172 628 176.5 635Q181 642 184.5 649.5Q188 657 191 666L189 667Q188 666 186 665Q184 664 182.5 663Q181 662 179.5 662Q178 662 176 662Q172 662 168 664Q164 666 161 669Q158 672 156 676.5Q154 681 154 686Q154 691 155.5 695.5Q157 700 160.5 703Q164 706 168.5 708Q173 710 179 710Q185 710 190.5 707.5Q196 705 199.5 700Q203 695 205 687.5Q207 680 207 671Q207 660 204 648Q201 636 196.5 624.5Q192 613 185.5 603.5Q179 594 173 588Z" glyph-name="quotedblright" horiz-adv-x="262" unicode="&#8221;" /><glyph d="M79 712 99 694Q91 686 85.5 679Q80 672 75.5 665Q71 658 67.5 650.5Q64 643 61 634L63 633Q64 634 66 635Q68 636 69.5 637Q71 638 72.5 638Q74 638 76 638Q80 638 84 636Q88 634 91 631Q94 628 96 623.5Q98 619 98 614Q98 609 96.5 604.5Q95 600 91.5 597Q88 594 83.5 592Q79 590 73 590Q67 590 61.5 592.5Q56 595 52.5 600Q49 605 47 612.5Q45 620 45 629Q45 640 48 652Q51 664 55.5 675.5Q60 687 66.5 696.5Q73 706 79 712Z" glyph-name="quoteleft" horiz-adv-x="160" unicode="&#8216;" /><glyph d="M71 588 51 606Q59 614 64.5 621Q70 628 74.5 635Q79 642 82.5 649.5Q86 657 89 666L87 667Q86 666 84 665Q82 664 80.5 663Q79 662 77.5 662Q76 662 74 662Q70 662 66 664Q62 666 59 669Q56 672 54 676.5Q52 681 52 686Q52 691 53.5 695.5Q55 700 58.5 703Q62 706 66.5 708Q71 710 77 710Q83 710 88.5 707.5Q94 705 97.5 700Q101 695 103 687.5Q105 680 105 671Q105 660 102 648Q99 636 94.5 624.5Q90 613 83.5 603.5Q77 594 71 588Z" glyph-name="quoteright" horiz-adv-x="160" unicode="&#8217;" /><glyph d="M71 -79 51 -61Q59 -53 64.5 -46Q70 -39 74.5 -32Q79 -25 82.5 -17.5Q86 -10 89 -1L87 0Q86 -1 84 -2Q82 -3 80.5 -4Q79 -5 77.5 -5Q76 -5 74 -5Q70 -5 66 -3Q62 -1 59 2Q56 5 54 9.5Q52 14 52 19Q52 24 53.5 28.5Q55 33 58.5 36Q62 39 66.5 41Q71 43 77 43Q83 43 88.5 40.5Q94 38 97.5 33Q101 28 103 20.5Q105 13 105 4Q105 -7 102 -19Q99 -31 94.5 -42.5Q90 -54 83.5 -63.5Q77 -73 71 -79Z" glyph-name="quotesinglbase" horiz-adv-x="160" unicode="&#8218;" /><glyph d="M76 492H45L62 700H104Z" glyph-name="quotesingle" horiz-adv-x="149" unicode="'" /><glyph d="M116 0H76V429Q76 448 74 464.5Q72 481 69 492Q66 503 60 516H101Q106 498 108.5 484.5Q111 471 113 454Q115 437 115 420H117Q126 444 140 464Q154 484 172 497.5Q190 511 211.5 518.5Q233 526 257 526Q264 526 270 525.5Q276 525 281 524.5Q286 524 291.5 523Q297 522 302 520L292 483Q288 484 283.5 485Q279 486 274.5 486.5Q270 487 265.5 487.5Q261 488 256 488Q227 488 201 476Q175 464 156 440.5Q137 417 126.5 384.5Q116 352 116 313Z" glyph-name="r" horiz-adv-x="311" unicode="r" /><glyph d="M758 350Q758 274 730.5 208Q703 142 654 93Q605 44 538.5 17Q472 -10 397 -10Q321 -10 255 17Q189 44 139.5 93Q90 142 62.5 208Q35 274 35 350Q35 425 62.5 491Q90 557 139.5 606.5Q189 656 255 683Q321 710 397 710Q472 710 538.5 683Q605 656 654 606.5Q703 557 730.5 491Q758 425 758 350ZM398 28Q466 28 525 52Q584 76 627 119.5Q670 163 694 222.5Q718 282 718 350Q718 418 694 477Q670 536 626.5 580Q583 624 524.5 648Q466 672 398 672Q330 672 271 648Q212 624 167.5 580Q123 536 99 477Q75 418 75 350Q75 282 99 222.5Q123 163 167 119.5Q211 76 270.5 52Q330 28 398 28ZM508 195H463L411 304Q409 304 406.5 303.5Q404 303 402 303Q400 303 398 303Q396 303 393 303H346V195H306V517H393Q418 517 437 508Q456 499 468.5 484Q481 469 487 450Q493 431 493 410Q493 396 490.5 382.5Q488 369 482 357Q476 345 467.5 334.5Q459 324 448 317ZM346 341H393Q407 341 418.5 346Q430 351 437.5 360.5Q445 370 449 382.5Q453 395 453 410Q453 424 449 436.5Q445 449 437.5 458.5Q430 468 418.5 473.5Q407 479 393 479H346Z" glyph-name="registered" horiz-adv-x="793" unicode="&#174;" /><glyph d="M211 842Q211 827 206 814.5Q201 802 191.5 793Q182 784 169 779.5Q156 775 140 775Q124 775 111 779.5Q98 784 88.5 793Q79 802 73.5 814.5Q68 827 68 842Q68 858 73.5 870.5Q79 883 88.5 892Q98 901 111 906Q124 911 140 911Q156 911 169 906Q182 901 191.5 892Q201 883 206 870.5Q211 858 211 842ZM180 842Q180 850 177 857.5Q174 865 168.5 870Q163 875 156 878Q149 881 140 881Q131 881 124 878Q117 875 111.5 870Q106 865 103 857.5Q100 850 100 842Q100 834 103 827Q106 820 111.5 815Q117 810 124 807.5Q131 805 140 805Q149 805 156 807.5Q163 810 168.5 815Q174 820 177 827Q180 834 180 842Z" glyph-name="ring" horiz-adv-x="280" unicode="&#730;" /><glyph d="M47 89 81 111Q92 91 109 75.5Q126 60 147 49.5Q168 39 191.5 33.5Q215 28 239 28Q267 28 290.5 34.5Q314 41 331.5 54Q349 67 358.5 87Q368 107 368 134Q368 181 332 203.5Q296 226 220 252Q144 278 105.5 307Q67 336 67 393Q67 422 79 446.5Q91 471 112 488Q133 505 162 514.5Q191 524 224 524Q252 524 275 519Q298 514 317.5 504Q337 494 354 478.5Q371 463 389 442L359 416Q345 435 330.5 448Q316 461 300 469.5Q284 478 265 482Q246 486 222 486Q199 486 178.5 480Q158 474 141.5 462Q125 450 116 432.5Q107 415 107 394Q107 351 141.5 331Q176 311 252.5 284Q329 257 368.5 225.5Q408 194 408 134Q408 99 396 71.5Q384 44 361.5 26Q339 8 308 -1Q277 -10 238 -10Q209 -10 181.5 -4Q154 2 128.5 14.5Q103 27 82 45.5Q61 64 47 89Z" glyph-name="s" horiz-adv-x="445" unicode="s" /><glyph d="M47 89 81 111Q92 91 109 75.5Q126 60 147 49.5Q168 39 191.5 33.5Q215 28 239 28Q267 28 290.5 34.5Q314 41 331.5 54Q349 67 358.5 87Q368 107 368 134Q368 181 332 203.5Q296 226 220 252Q144 278 105.5 307Q67 336 67 393Q67 422 79 446.5Q91 471 112 488Q133 505 162 514.5Q191 524 224 524Q252 524 275 519Q298 514 317.5 504Q337 494 354 478.5Q371 463 389 442L359 416Q345 435 330.5 448Q316 461 300 469.5Q284 478 265 482Q246 486 222 486Q199 486 178.5 480Q158 474 141.5 462Q125 450 116 432.5Q107 415 107 394Q107 351 141.5 331Q176 311 252.5 284Q329 257 368.5 225.5Q408 194 408 134Q408 99 396 71.5Q384 44 361.5 26Q339 8 308 -1Q277 -10 238 -10Q209 -10 181.5 -4Q154 2 128.5 14.5Q103 27 82 45.5Q61 64 47 89ZM137 735 177 694Q189 682 199 671Q209 660 215.5 652Q222 644 230 634H232Q240 645 247 653Q254 661 263.5 671.5Q273 682 285 694L325 735L354 707L231 585L109 707Z" glyph-name="scaron" horiz-adv-x="445" unicode="&#353;" /><glyph d="M370 218V216Q378 208 384 199.5Q390 191 394.5 180.5Q399 170 401.5 158.5Q404 147 404 133Q404 103 393.5 77Q383 51 362 31.5Q341 12 309.5 1Q278 -10 238 -10Q205 -10 176 -2.5Q147 5 122.5 19Q98 33 78.5 52.5Q59 72 44 95L74 122Q89 100 106 83Q123 66 143 54Q163 42 187 35Q211 28 239 28Q271 28 295 36.5Q319 45 334.5 60Q350 75 357 93Q364 111 364 131Q364 157 351 175.5Q338 194 316 206Q294 218 273 225Q252 232 202 246Q164 257 138.5 266.5Q113 276 91.5 291Q70 306 57 329Q44 352 44 385Q44 402 48.5 417.5Q53 433 60.5 445.5Q68 458 78.5 468Q89 478 101 486V488Q95 495 90 503.5Q85 512 81 522Q77 532 75 543.5Q73 555 73 567Q73 599 84 625.5Q95 652 116 671Q137 690 167 700Q197 710 233 710Q267 710 295.5 701Q324 692 346 675Q368 658 384 635Q400 612 412 583L375 565Q366 588 354 607Q342 626 325 640.5Q308 655 285 663.5Q262 672 233 672Q208 672 186 665.5Q164 659 147.5 646Q131 633 122 614Q113 595 113 570Q113 515 150.5 493Q188 471 265.5 450.5Q343 430 382.5 403Q422 376 422 314Q422 297 418 282.5Q414 268 407 256Q400 244 390.5 234.5Q381 225 370 218ZM344 238Q354 245 361.5 253Q369 261 374.5 270Q380 279 382.5 289.5Q385 300 385 312Q385 349 360 369Q335 389 244.5 416Q154 443 126 462Q116 456 108.5 448.5Q101 441 95.5 431.5Q90 422 87 410Q84 398 84 385Q84 349 108.5 328Q133 307 137.5 306Q142 305 228.5 280Q315 255 344 238Z" glyph-name="section" horiz-adv-x="491" unicode="&#167;" /><glyph d="M107 343Q107 337 105 332.5Q103 328 99 324.5Q95 321 90.5 319Q86 317 80 317Q74 317 69.5 319Q65 321 61.5 324.5Q58 328 56 332.5Q54 337 54 343Q54 349 56 353.5Q58 358 61.5 362Q65 366 69.5 368Q74 370 80 370Q86 370 90.5 368Q95 366 99 362Q103 358 105 353.5Q107 349 107 343ZM73 -79 53 -61Q61 -53 66.5 -46Q72 -39 76.5 -32Q81 -25 84.5 -17.5Q88 -10 91 -1L89 0Q88 -1 86 -2Q84 -3 82.5 -4Q81 -5 79.5 -5Q78 -5 76 -5Q72 -5 68 -3Q64 -1 61 2Q58 5 56 9.5Q54 14 54 19Q54 24 55.5 28.5Q57 33 60.5 36Q64 39 68.5 41Q73 43 79 43Q85 43 90.5 40.5Q96 38 99.5 33Q103 28 105 20.5Q107 13 107 4Q107 -7 104 -19Q101 -31 96.5 -42.5Q92 -54 85.5 -63.5Q79 -73 73 -79Z" glyph-name="semicolon" horiz-adv-x="162" unicode=";" /><glyph d="M146 0H104L314 662H13V700H369Z" glyph-name="seven" horiz-adv-x="366" unicode="7" /><glyph d="M142 -75H99L308 478H23V516H363Z" glyph-name="seven.osf" horiz-adv-x="386" /><glyph d="M251 27Q281 27 306.5 44Q332 61 351 90Q370 119 380 154Q390 189 390 224Q390 256 381.5 284Q373 312 355.5 333.5Q338 355 312.5 367Q287 379 255 379Q220 379 192.5 367.5Q165 356 146 333.5Q127 311 117.5 279.5Q108 248 108 208Q108 167 118.5 133.5Q129 100 148.5 76Q168 52 194 39.5Q220 27 251 27ZM412 572 374 558Q365 585 353.5 606Q342 627 327 642Q312 657 292 665Q272 673 247 673Q206 673 176 648.5Q146 624 127 576.5Q108 529 99.5 459Q91 389 93 298H95Q104 324 118.5 346Q133 368 153 384Q173 400 199 408.5Q225 417 255 417Q298 417 331 401.5Q364 386 386 359Q408 332 419 297.5Q430 263 430 225Q430 182 417 140Q404 98 380 64Q356 30 323 10Q290 -10 251 -10Q195 -10 156.5 16.5Q118 43 96 91Q74 139 64.5 203.5Q55 268 55 350Q55 431 65 496Q75 561 97.5 609Q120 657 157 683.5Q194 710 247 710Q280 710 306.5 700.5Q333 691 353 673Q373 655 387.5 630Q402 605 412 572Z" glyph-name="six" horiz-adv-x="489" unicode="6" /><glyph d="M413 520 383 495Q372 511 359.5 523.5Q347 536 332.5 545Q318 554 300 558.5Q282 563 261 563Q210 563 176 532Q142 501 124.5 452Q107 403 101.5 350.5Q96 298 99 250H101Q107 279 120.5 304Q134 329 154.5 347Q175 365 202 375Q229 385 262 385Q305 385 337.5 369.5Q370 354 391.5 327Q413 300 423.5 264Q434 228 434 187Q434 147 423 111.5Q412 76 389 48.5Q366 21 331 5Q296 -11 251 -11Q202 -11 166 9.5Q130 30 106.5 69.5Q83 109 71.5 165Q60 221 60 293Q60 363 73 420Q86 477 111 517Q136 557 174 578.5Q212 600 261 600Q287 600 309.5 594.5Q332 589 350.5 578.5Q369 568 384 553.5Q399 539 413 520ZM253 26Q287 26 313.5 38Q340 50 358.5 72Q377 94 386 123.5Q395 153 395 188Q395 222 385.5 251Q376 280 358.5 301.5Q341 323 315.5 335Q290 347 259 347Q225 347 197.5 333.5Q170 320 151 297.5Q132 275 122.5 246Q113 217 113 187Q113 158 122.5 129Q132 100 150 77Q168 54 194.5 40Q221 26 253 26Z" glyph-name="six.osf" horiz-adv-x="483" /><glyph d="M246 760 85 -60H45L205 760Z" glyph-name="slash" horiz-adv-x="291" unicode="/" /><glyph glyph-name="space" horiz-adv-x="260" unicode=" " /><glyph d="M403 63 433 31Q422 20 410.5 12.5Q399 5 386.5 0Q374 -5 360.5 -7Q347 -9 333 -9Q313 -9 292 -5.5Q271 -2 240 4.5Q209 11 189.5 14Q170 17 151 17Q140 17 129.5 15.5Q119 14 109 11Q99 8 90.5 2.5Q82 -3 74 -11L50 21Q71 39 85.5 59Q100 79 110 102Q120 125 125 152.5Q130 180 130 213Q130 219 130 226.5Q130 234 129.5 241.5Q129 249 128.5 257Q128 265 127 273H28V311H124Q122 330 117.5 379Q113 428 112.5 431Q112 434 110.5 455Q109 476 109 493Q109 541 118.5 580.5Q128 620 148 649Q168 678 199.5 694Q231 710 273 710Q308 710 335 699Q362 688 381 666Q400 644 412 611.5Q424 579 431 535L392 526Q387 561 378.5 587.5Q370 614 356.5 633Q343 652 323 662Q303 672 274 672Q242 672 218.5 659.5Q195 647 180 623.5Q165 600 157.5 567Q150 534 150 493Q150 477 151.5 456.5Q153 436 152 446.5Q151 457 157 394Q163 331 165 311H356V273H168Q169 254 169 251Q169 248 169.5 241Q170 234 170 227Q170 220 170 214Q170 185 165.5 160Q161 135 153.5 114Q146 93 135.5 75.5Q125 58 112 44L113 42Q118 44 123 45.5Q128 47 133.5 47.5Q139 48 144.5 48.5Q150 49 155 49Q173 49 191 46.5Q209 44 236 39Q263 34 280.5 31.5Q298 29 315 29Q328 29 339.5 30.5Q351 32 362 36Q373 40 383 46.5Q393 53 403 63Z" glyph-name="sterling" horiz-adv-x="498" unicode="&#163;" /><glyph d="M375 53 400 20Q390 12 380 6Q370 0 358.5 -3.5Q347 -7 335.5 -8.5Q324 -10 311 -10Q290 -10 242.5 -1.5Q195 7 172.5 10Q150 13 121 9.5Q92 6 71 -11L53 14Q71 27 84 41.5Q97 56 105 72.5Q113 89 117 109Q121 129 121 153Q121 156 121 159.5Q121 163 120.5 166.5Q120 170 120 172Q120 174 119 183H48V221H116Q112 248 110.5 263Q109 278 107 295Q105 312 104 328Q103 344 103 357Q103 392 111.5 422.5Q120 453 138 476.5Q156 500 184 513Q212 526 249 526Q280 526 305 516.5Q330 507 348.5 489.5Q367 472 379.5 446.5Q392 421 398 390L359 381Q355 406 347 425.5Q339 445 326 459Q313 473 294 480.5Q275 488 249 488Q222 488 201.5 479Q181 470 168.5 452.5Q156 435 149.5 411Q143 387 143 357Q143 343 144 327Q145 311 146.5 297.5Q148 284 150.5 259Q153 234 154 221H306V183H158Q158 179 158.5 175Q159 171 159 167.5Q159 164 159 161Q159 158 159 153Q159 134 155.5 117Q152 100 145.5 85.5Q139 71 131 59Q123 47 113 37L114 35Q142 43 165.5 41.5Q189 40 241.5 34Q294 28 323 31.5Q352 35 375 53Z" glyph-name="sterling.osf" horiz-adv-x="498" /><glyph d="M280 54 300 22Q291 16 281 10Q271 4 260 -0.5Q249 -5 236.5 -7.5Q224 -10 211 -10Q183 -10 162 -1Q141 8 127 25.5Q113 43 106 67.5Q99 92 99 123V478H25V516H99V630H139V516H263V478H139V123Q139 100 143.5 82Q148 64 157 52Q166 40 179.5 34Q193 28 211 28Q220 28 229 30Q238 32 247.5 35Q257 38 265 43Q273 48 280 54Z" glyph-name="t" horiz-adv-x="316" unicode="t" /><glyph d="M110 -200H70V730H110V512Q110 497 110 482.5Q110 468 109.5 457Q109 446 109 431H111Q119 451 129.5 468Q140 485 155.5 498Q171 511 191.5 518.5Q212 526 237 526Q277 526 308.5 508Q340 490 362 455Q384 420 395 370.5Q406 321 406 258Q406 195 395.5 145Q385 95 363.5 60.5Q342 26 309.5 8Q277 -10 235 -10Q212 -10 193 -3.5Q174 3 158.5 14.5Q143 26 131 42Q119 58 110 78H108Q109 65 109 54.5Q109 44 109.5 29.5Q110 15 110 -1ZM110 312V205Q110 167 117.5 135Q125 103 141 79Q157 55 180.5 41.5Q204 28 235 28Q268 28 293 43.5Q318 59 334 88.5Q350 118 357.5 160.5Q365 203 365 258Q365 313 357.5 355.5Q350 398 334 427.5Q318 457 293 472.5Q268 488 235 488Q206 488 182.5 475.5Q159 463 143 440Q127 417 118.5 384.5Q110 352 110 312Z" glyph-name="thorn" horiz-adv-x="458" unicode="&#254;" /><glyph d="M34 161 74 171Q81 134 95 107Q109 80 129 62.5Q149 45 173 36.5Q197 28 224 28Q259 28 286.5 42.5Q314 57 332.5 82.5Q351 108 360 139.5Q369 171 369 204Q369 239 359 271.5Q349 304 329.5 329.5Q310 355 280.5 370Q251 385 214 385Q209 385 204 385Q199 385 194 384.5Q189 384 184 383.5Q179 383 174 382L150 409L286 598Q293 607 301 618Q309 629 316 638Q323 647 334 660V662H62V700H403V698L197 417L198 416L217 417Q264 417 300 399Q336 381 360.5 350.5Q385 320 397 282Q409 244 409 204Q409 163 396.5 124.5Q384 86 359.5 55.5Q335 25 300 7.5Q265 -10 222 -10Q183 -10 151 3.5Q119 17 95 41Q71 65 56 96Q41 127 34 161Z" glyph-name="three" horiz-adv-x="449" unicode="3" /><glyph d="M22 66 61 79Q69 44 86 19.5Q103 -5 126.5 -19.5Q150 -34 175 -40.5Q200 -47 226 -47Q263 -47 292 -34.5Q321 -22 340 -0.5Q359 21 368.5 48.5Q378 76 378 106Q378 144 363.5 172.5Q349 201 323.5 219Q298 237 265.5 244.5Q233 252 198 249L173 279L294 419Q305 432 315.5 442.5Q326 453 333.5 460Q341 467 351 476V478H54V516H430V514L219 284L221 282Q266 282 302.5 270.5Q339 259 364.5 236Q390 213 404 180.5Q418 148 418 108Q418 68 405 33Q392 -2 366.5 -28.5Q341 -55 305 -70Q269 -85 225 -85Q186 -85 152 -74Q118 -63 91 -43Q64 -23 46.5 5Q29 33 22 66Z" glyph-name="three.osf" horiz-adv-x="467" /><glyph d="M414 0H374V69H246L381 316H414V107H459V69H414ZM377 103V250H375Q366 226 354.5 203.5Q343 181 332.5 162Q322 143 313.5 129.5Q305 116 298 105V103ZM37 461 76 473Q78 461 83.5 450Q89 439 98 430.5Q107 422 118.5 417Q130 412 144 412Q158 412 169.5 417Q181 422 189.5 430.5Q198 439 202.5 451.5Q207 464 207 478Q207 496 201.5 508.5Q196 521 186 528.5Q176 536 163.5 539.5Q151 543 137 543Q134 543 130.5 542.5Q127 542 123.5 542Q120 542 116 541Q112 540 112 540L93 568L128 606Q139 618 149.5 628.5Q160 639 167.5 645.5Q175 652 185 660V662H50V700H245V682L138 572L139 570Q160 572 179 567Q198 562 213.5 550Q229 538 237.5 519.5Q246 501 246 477Q246 457 239.5 438.5Q233 420 220 405.5Q207 391 187.5 383Q168 375 143 375Q121 375 103 381.5Q85 388 72 399.5Q59 411 50.5 426.5Q42 442 37 461ZM95 0 459 700H414L51 0Z" glyph-name="threequarters" horiz-adv-x="497" unicode="&#190;" /><glyph d="M22 461 61 473Q63 461 68.5 450Q74 439 83 430.5Q92 422 103.5 417Q115 412 129 412Q143 412 154.5 417Q166 422 174.5 430.5Q183 439 187.5 451.5Q192 464 192 478Q192 496 186.5 508.5Q181 521 171 528.5Q161 536 148.5 539.5Q136 543 122 543Q119 543 115.5 542.5Q112 542 108.5 542Q105 542 101 541Q97 540 97 540L78 568L113 606Q124 618 134.5 628.5Q145 639 152.5 645.5Q160 652 170 660V662H35V700H230V682L123 572L124 570Q145 572 164 567Q183 562 198.5 550Q214 538 222.5 519.5Q231 501 231 477Q231 457 224.5 438.5Q218 420 205 405.5Q192 391 172.5 383Q153 375 128 375Q106 375 88 381.5Q70 388 57 399.5Q44 411 35.5 426.5Q27 442 22 461Z" glyph-name="threesuperior" horiz-adv-x="252" unicode="&#179;" /><glyph d="M306 883H345Q345 857 340.5 836.5Q336 816 325.5 801.5Q315 787 298.5 779.5Q282 772 258 772Q236 772 219 782Q202 792 182 812Q162 832 150.5 840.5Q139 849 125 849Q110 849 100 843Q90 837 85 826.5Q80 816 78.5 804Q77 792 77 777H38Q38 803 43 823Q48 843 58.5 857.5Q69 872 85.5 879.5Q102 887 124 887Q146 887 163 876.5Q180 866 200 846Q220 826 231.5 817.5Q243 809 257 809Q273 809 283 815.5Q293 822 298 832.5Q303 843 304.5 855.5Q306 868 306 883Z" glyph-name="tilde" horiz-adv-x="383" unicode="&#732;" /><glyph d="M140 385H100V662H22V700H216V662H140ZM539 385H499V547Q499 564 499.5 579Q500 594 500 606Q500 618 501 633H499Q491 620 485.5 610.5Q480 601 472.5 588.5Q465 576 457 564L411 491H407L360 565Q352 577 345.5 589Q339 601 334 610Q329 619 322 632H320Q320 617 320.5 605.5Q321 594 321 579Q321 564 321 547V385H281V700H319L365 630Q373 618 380.5 605.5Q388 593 394 582.5Q400 572 408 557H410Q418 572 424 582.5Q430 593 438 605.5Q446 618 454 630L500 700H539Z" glyph-name="trademark" horiz-adv-x="588" unicode="&#8482;" /><glyph d="M404 0H37L306 357Q320 376 332.5 395.5Q345 415 354 436Q363 457 368.5 479.5Q374 502 374 524Q374 553 365.5 579Q357 605 339.5 626.5Q322 648 295.5 660Q269 672 234 672Q205 672 180 661.5Q155 651 136 631Q117 611 106 583.5Q95 556 93 523L53 525Q56 566 70 600.5Q84 635 108 659.5Q132 684 164 697Q196 710 234 710Q279 710 313.5 695Q348 680 370.5 653.5Q393 627 404 594Q415 561 415 525Q415 500 409 475Q403 450 393 425.5Q383 401 369 378Q355 355 338 333L154 89Q149 82 143 74.5Q137 67 131 60Q125 53 116 43V41H404Z" glyph-name="two" horiz-adv-x="463" unicode="2" /><glyph d="M409 0H25V2L280 229Q296 243 309 257.5Q322 272 332 288.5Q342 305 347.5 324Q353 343 353 364Q353 388 346 410Q339 432 324 449.5Q309 467 285.5 477.5Q262 488 230 488Q202 488 178.5 478.5Q155 469 137.5 451Q120 433 107.5 407.5Q95 382 88 350L49 358Q57 397 73 428Q89 459 112 481Q135 503 164.5 514.5Q194 526 230 526Q271 526 302 513Q333 500 353.5 477Q374 454 383.5 425.5Q393 397 393 366Q393 343 387 320.5Q381 298 369.5 277Q358 256 341.5 236.5Q325 217 304 198L182 92Q171 82 159 72.5Q147 63 137.5 56Q128 49 114 40V38H409Z" glyph-name="two.osf" horiz-adv-x="459" /><glyph d="M222 385H25V387L154 550Q162 560 168 568.5Q174 577 178 585Q182 593 184 601.5Q186 610 186 619Q186 631 182 641Q178 651 171 658Q164 665 154.5 668.5Q145 672 134 672Q120 672 109 666Q98 660 90 649.5Q82 639 77 627Q72 615 70 602L30 614Q35 634 43 650.5Q51 667 63.5 680.5Q76 694 93.5 702Q111 710 134 710Q156 710 173 703Q190 696 202 683Q214 670 220 653.5Q226 637 226 618Q226 606 223.5 595Q221 584 216.5 573.5Q212 563 205 552.5Q198 542 189 530L156 488Q145 474 135.5 462.5Q126 451 119 443Q112 435 103 426V423H222Z" glyph-name="twosuperior" horiz-adv-x="260" unicode="&#178;" /><glyph d="M417 0H376Q371 18 368.5 31.5Q366 45 364 61.5Q362 78 362 95H360Q351 70 337 50.5Q323 31 305 17.5Q287 4 265.5 -3Q244 -10 220 -10Q175 -10 145 6Q115 22 97.5 50.5Q80 79 72.5 116.5Q65 154 65 200V516H105V201Q105 158 111.5 126Q118 94 132 72Q146 50 168 39Q190 28 221 28Q250 28 276 40Q302 52 321 75Q340 98 350.5 130.5Q361 163 361 202V516H401V87Q401 68 403.5 51.5Q406 35 409 24Q412 13 417 0Z" glyph-name="u" horiz-adv-x="477" unicode="u" /><glyph d="M461 0H420Q415 18 412.5 31.5Q410 45 408 61.5Q406 78 406 95H404Q395 70 381 50.5Q367 31 349 17.5Q331 4 309.5 -3Q288 -10 264 -10Q219 -10 189 6Q159 22 141.5 50.5Q124 79 116.5 116.5Q109 154 109 200V516H149V201Q149 158 155.5 126Q162 94 176 72Q190 50 212 39Q234 28 265 28Q294 28 320 40Q346 52 365 75Q384 98 394.5 130.5Q405 163 405 202V516H445V87Q445 68 447.5 51.5Q450 35 453 24Q456 13 461 0ZM387 665 175 576 161 607 369 704Z" glyph-name="uacute" horiz-adv-x="571" unicode="&#250;" /><glyph d="M461 0H420Q415 18 412.5 31.5Q410 45 408 61.5Q406 78 406 95H404Q395 70 381 50.5Q367 31 349 17.5Q331 4 309.5 -3Q288 -10 264 -10Q219 -10 189 6Q159 22 141.5 50.5Q124 79 116.5 116.5Q109 154 109 200V516H149V201Q149 158 155.5 126Q162 94 176 72Q190 50 212 39Q234 28 265 28Q294 28 320 40Q346 52 365 75Q384 98 394.5 130.5Q405 163 405 202V516H445V87Q445 68 447.5 51.5Q450 35 453 24Q456 13 461 0ZM368 586 328 627Q316 639 306 650Q296 661 289.5 669Q283 677 275 687H273Q265 676 258 668Q251 660 241.5 649.5Q232 639 220 627L180 586L151 614L274 736L396 614Z" glyph-name="ucircumflex" horiz-adv-x="571" unicode="&#251;" /><glyph d="M461 0H420Q415 18 412.5 31.5Q410 45 408 61.5Q406 78 406 95H404Q395 70 381 50.5Q367 31 349 17.5Q331 4 309.5 -3Q288 -10 264 -10Q219 -10 189 6Q159 22 141.5 50.5Q124 79 116.5 116.5Q109 154 109 200V516H149V201Q149 158 155.5 126Q162 94 176 72Q190 50 212 39Q234 28 265 28Q294 28 320 40Q346 52 365 75Q384 98 394.5 130.5Q405 163 405 202V516H445V87Q445 68 447.5 51.5Q450 35 453 24Q456 13 461 0ZM232 633Q232 627 230 622.5Q228 618 224 614.5Q220 611 215.5 609Q211 607 205 607Q199 607 194.5 609Q190 611 186.5 614.5Q183 618 181 622.5Q179 627 179 633Q179 639 181 643.5Q183 648 186.5 652Q190 656 194.5 658Q199 660 205 660Q211 660 215.5 658Q220 656 224 652Q228 648 230 643.5Q232 639 232 633ZM372 633Q372 627 370 622.5Q368 618 364 614.5Q360 611 355.5 609Q351 607 345 607Q339 607 334.5 609Q330 611 326.5 614.5Q323 618 321 622.5Q319 627 319 633Q319 639 321 643.5Q323 648 326.5 652Q330 656 334.5 658Q339 660 345 660Q351 660 355.5 658Q360 656 364 652Q368 648 370 643.5Q372 639 372 633Z" glyph-name="udieresis" horiz-adv-x="571" unicode="&#252;" /><glyph d="M461 0H420Q415 18 412.5 31.5Q410 45 408 61.5Q406 78 406 95H404Q395 70 381 50.5Q367 31 349 17.5Q331 4 309.5 -3Q288 -10 264 -10Q219 -10 189 6Q159 22 141.5 50.5Q124 79 116.5 116.5Q109 154 109 200V516H149V201Q149 158 155.5 126Q162 94 176 72Q190 50 212 39Q234 28 265 28Q294 28 320 40Q346 52 365 75Q384 98 394.5 130.5Q405 163 405 202V516H445V87Q445 68 447.5 51.5Q450 35 453 24Q456 13 461 0ZM367 576 155 665 173 704 381 607Z" glyph-name="ugrave" horiz-adv-x="571" unicode="&#249;" /><glyph d="M392 -100V-140H-2V-100Z" glyph-name="underscore" horiz-adv-x="390" unicode="_" /><glyph glyph-name="uni00A0" horiz-adv-x="260" unicode="&#160;" /><glyph d="M224 0H194L25 516H67L184 152Q187 141 191.5 126Q196 111 199.5 96.5Q203 82 208 60H210Q215 82 218.5 96.5Q222 111 226.5 126Q231 141 234 152L350 516H393Z" glyph-name="v" horiz-adv-x="418" unicode="v" /><glyph d="M529 0H499L383 372Q378 390 373.5 406Q369 422 366 433.5Q363 445 360 459H358Q355 445 352 433.5Q349 422 345 406Q341 390 335 372L220 0H190L25 516H67L181 161Q184 150 188 135Q192 120 195.5 106Q199 92 204 70H206Q211 92 214.5 106Q218 120 222 135Q226 150 229 161L342 516H376L489 161Q492 150 496.5 135Q501 120 504.5 106Q508 92 513 70H515Q520 92 523.5 106Q527 120 531 135Q535 150 538 161L651 516H694Z" glyph-name="w" horiz-adv-x="719" unicode="w" /><glyph d="M379 0H335L245 162Q238 175 231 188.5Q224 202 219 212.5Q214 223 207 237H205Q198 222 192.5 211.5Q187 201 180.5 187.5Q174 174 167 162L77 0H33L178 258L33 516H77L167 354Q173 343 179.5 330.5Q186 318 191.5 307Q197 296 205 279H207Q215 295 220.5 306Q226 317 232.5 330Q239 343 245 354L335 516H379L234 258Z" glyph-name="x" horiz-adv-x="417" unicode="x" /><glyph d="M185 -23 193 3 25 516H67L190 144Q196 125 200 110.5Q204 96 206.5 86.5Q209 77 208 83.5Q207 90 211 63H213L351 516H391L225 -30Q211 -76 197.5 -108Q184 -140 167 -163Q150 -186 126.5 -198Q103 -210 72 -210Q62 -210 52 -209Q42 -208 32.5 -205.5Q23 -203 14 -200Q5 -197 -4 -193L13 -155Q19 -158 26.5 -161Q34 -164 41 -166Q48 -168 56 -169Q64 -170 71 -170Q96 -170 113.5 -159Q131 -148 143.5 -128.5Q156 -109 164 -86Q172 -63 185 -23Z" glyph-name="y" horiz-adv-x="415" unicode="y" /><glyph d="M185 -23 193 3 25 516H67L190 144Q196 125 200 110.5Q204 96 206.5 86.5Q209 77 208 83.5Q207 90 211 63H213L351 516H391L225 -30Q211 -76 197.5 -108Q184 -140 167 -163Q150 -186 126.5 -198Q103 -210 72 -210Q62 -210 52 -209Q42 -208 32.5 -205.5Q23 -203 14 -200Q5 -197 -4 -193L13 -155Q19 -158 26.5 -161Q34 -164 41 -166Q48 -168 56 -169Q64 -170 71 -170Q96 -170 113.5 -159Q131 -148 143.5 -128.5Q156 -109 164 -86Q172 -63 185 -23ZM317 665 105 576 91 607 299 704Z" glyph-name="yacute" horiz-adv-x="415" unicode="&#253;" /><glyph d="M185 -23 193 3 25 516H67L190 144Q196 125 200 110.5Q204 96 206.5 86.5Q209 77 208 83.5Q207 90 211 63H213L351 516H391L225 -30Q211 -76 197.5 -108Q184 -140 167 -163Q150 -186 126.5 -198Q103 -210 72 -210Q62 -210 52 -209Q42 -208 32.5 -205.5Q23 -203 14 -200Q5 -197 -4 -193L13 -155Q19 -158 26.5 -161Q34 -164 41 -166Q48 -168 56 -169Q64 -170 71 -170Q96 -170 113.5 -159Q131 -148 143.5 -128.5Q156 -109 164 -86Q172 -63 185 -23ZM170 633Q170 627 168 622.5Q166 618 162 614.5Q158 611 153.5 609Q149 607 143 607Q137 607 132.5 609Q128 611 124.5 614.5Q121 618 119 622.5Q117 627 117 633Q117 639 119 643.5Q121 648 124.5 652Q128 656 132.5 658Q137 660 143 660Q149 660 153.5 658Q158 656 162 652Q166 648 168 643.5Q170 639 170 633ZM310 633Q310 627 308 622.5Q306 618 302 614.5Q298 611 293.5 609Q289 607 283 607Q277 607 272.5 609Q268 611 264.5 614.5Q261 618 259 622.5Q257 627 257 633Q257 639 259 643.5Q261 648 264.5 652Q268 656 272.5 658Q277 660 283 660Q289 660 293.5 658Q298 656 302 652Q306 648 308 643.5Q310 639 310 633Z" glyph-name="ydieresis" horiz-adv-x="415" unicode="&#255;" /><glyph d="M235 0H195V133H75V167H195V213L173 273H75V307H160L15 700H57L187 344Q192 330 196.5 314.5Q201 299 205 285.5Q209 272 214 252H216Q221 272 224.5 285.5Q228 299 233 314.5Q238 330 243 344L372 700H415L269 307H353V273H257L235 213V167H353V133H235Z" glyph-name="yen" horiz-adv-x="430" unicode="&#165;" /><glyph d="M217 0H181V133H55V167H181V176L153 233H55V267H136L15 516H60L165 291Q171 279 176.5 265Q182 251 186.5 238.5Q191 226 198 208H200Q207 226 211.5 238.5Q216 251 222 265.5Q228 280 234 292L339 516H383L261 267H333V233H245L217 176V167H333V133H217Z" glyph-name="yen.osf" horiz-adv-x="390" /><glyph d="M369 0H28V2L268 409Q277 424 285 436.5Q293 449 298.5 457.5Q304 466 311 476V478H52V516H378V514L136 106Q129 95 121.5 83.5Q114 72 107.5 62.5Q101 53 92 40V38H369Z" glyph-name="z" horiz-adv-x="409" unicode="z" /><glyph d="M369 0H28V2L268 409Q277 424 285 436.5Q293 449 298.5 457.5Q304 466 311 476V478H52V516H378V514L136 106Q129 95 121.5 83.5Q114 72 107.5 62.5Q101 53 92 40V38H369ZM120 736 160 695Q172 683 182 672Q192 661 198.5 653Q205 645 213 635H215Q223 646 230 654Q237 662 246.5 672.5Q256 683 268 695L308 736L337 708L214 586L92 708Z" glyph-name="zcaron" horiz-adv-x="409" unicode="&#382;" /><glyph d="M241 -10Q188 -10 152 17.5Q116 45 94.5 94Q73 143 64 207.5Q55 272 55 350Q55 428 64 492.5Q73 557 94.5 606Q116 655 152 682.5Q188 710 241 710Q294 710 330 682.5Q366 655 387.5 606Q409 557 418 492.5Q427 428 427 350Q427 272 418 207.5Q409 143 387.5 94Q366 45 330 17.5Q294 -10 241 -10ZM241 27Q282 27 310 51.5Q338 76 355 119.5Q372 163 379.5 221Q387 279 387 350Q387 421 379.5 479Q372 537 355 580.5Q338 624 310 648.5Q282 673 241 673Q200 673 172 648.5Q144 624 127 580.5Q110 537 102.5 479Q95 421 95 350Q95 279 102.5 221Q110 163 127 119.5Q144 76 172 51.5Q200 27 241 27Z" glyph-name="zero" horiz-adv-x="482" unicode="0" /><glyph d="M269 -10Q218 -10 178.5 8.5Q139 27 112.5 62.5Q86 98 73 147.5Q60 197 60 258Q60 319 73 368.5Q86 418 112.5 453.5Q139 489 178.5 507.5Q218 526 269 526Q321 526 360.5 507.5Q400 489 426.5 453.5Q453 418 466 368.5Q479 319 479 258Q479 197 466 147.5Q453 98 426.5 62.5Q400 27 360.5 8.5Q321 -10 269 -10ZM269 28Q311 28 342.5 43.5Q374 59 395.5 89Q417 119 428 161.5Q439 204 439 258Q439 312 428 354.5Q417 397 395.5 427Q374 457 342.5 472.5Q311 488 269 488Q229 488 197 472.5Q165 457 143.5 427Q122 397 111 354.5Q100 312 100 258Q100 204 111 161.5Q122 119 143.5 89Q165 59 197 43.5Q229 28 269 28Z" glyph-name="zero.osf" horiz-adv-x="539" /></font>
</defs>
</svg>
