<?xml version="1.0" standalone="no"?><!DOCTYPE svg PUBLIC "-//W3C//DTD SVG 1.1//EN" "http://www.w3.org/Graphics/SVG/1.1/DTD/svg11.dtd" ><svg version="1.1" xmlns="http://www.w3.org/2000/svg"><defs><font horiz-adv-x="0" id="font"><font-face ascent="750" bbox="-111 -298 1368 1002" cap-height="700" descent="-250" font-family="Mission Gothic" font-stretch="normal" font-style="normal" font-weight="480" units-per-em="1000" x-height="586" /><missing-glyph horiz-adv-x="700" /><glyph d="M499 0H324L314 78H185L177 0H3L153 700H349ZM291 224 263 434Q261 448 259 464.5Q257 481 255.5 495.5Q254 510 252 531H250Q248 510 246 495.5Q244 481 242 464.5Q240 448 238 434L210 224Z" glyph-name="A" horiz-adv-x="502" unicode="A" /><glyph d="M739 0H350V78H195L173 0H-6L256 700H739V548H516V414H702V268H516V152H739ZM350 238V574H348Q344 553 339 533Q334 513 329 494.5Q324 476 305 411L255 238Z" glyph-name="AE" horiz-adv-x="805" unicode="&#198;" /><glyph d="M499 0H324L314 78H185L177 0H3L153 700H349ZM291 224 263 434Q261 448 259 464.5Q257 481 255.5 495.5Q254 510 252 531H250Q248 510 246 495.5Q244 481 242 464.5Q240 448 238 434L210 224ZM388 832 148 730 100 833 332 951Z" glyph-name="Aacute" horiz-adv-x="502" unicode="&#193;" /><glyph d="M499 0H324L314 78H185L177 0H3L153 700H349ZM291 224 263 434Q261 448 259 464.5Q257 481 255.5 495.5Q254 510 252 531H250Q248 510 246 495.5Q244 481 242 464.5Q240 448 238 434L210 224ZM354 731 305 783Q294 795 284 806Q274 817 267 825Q260 833 252 843H248Q240 833 233 825Q226 817 216 806Q206 795 195 783L146 731L63 825L205 937H295L437 825Z" glyph-name="Acircumflex" horiz-adv-x="502" unicode="&#194;" /><glyph d="M499 0H324L314 78H185L177 0H3L153 700H349ZM291 224 263 434Q261 448 259 464.5Q257 481 255.5 495.5Q254 510 252 531H250Q248 510 246 495.5Q244 481 242 464.5Q240 448 238 434L210 224ZM232 822Q232 806 226.5 793Q221 780 211 770.5Q201 761 187 756.5Q173 752 156 752Q140 752 126 756.5Q112 761 101.5 770.5Q91 780 85.5 793Q80 806 80 822Q80 839 85.5 852.5Q91 866 101.5 876Q112 886 126 891Q140 896 156 896Q173 896 187 891Q201 886 211 876Q221 866 226.5 852.5Q232 839 232 822ZM420 822Q420 806 414.5 793Q409 780 399 770.5Q389 761 375 756.5Q361 752 344 752Q328 752 314 756.5Q300 761 289.5 770.5Q279 780 273.5 793Q268 806 268 822Q268 839 273.5 852.5Q279 866 289.5 876Q300 886 314 891Q328 896 344 896Q361 896 375 891Q389 886 399 876Q409 866 414.5 852.5Q420 839 420 822Z" glyph-name="Adieresis" horiz-adv-x="502" unicode="&#196;" /><glyph d="M499 0H324L314 78H185L177 0H3L153 700H349ZM291 224 263 434Q261 448 259 464.5Q257 481 255.5 495.5Q254 510 252 531H250Q248 510 246 495.5Q244 481 242 464.5Q240 448 238 434L210 224ZM360 730 120 832 176 951 408 833Z" glyph-name="Agrave" horiz-adv-x="502" unicode="&#192;" /><glyph d="M499 0H324L314 78H185L177 0H3L153 700H349ZM291 224 263 434Q261 448 259 464.5Q257 481 255.5 495.5Q254 510 252 531H250Q248 510 246 495.5Q244 481 242 464.5Q240 448 238 434L210 224ZM380 866Q380 837 370.5 814Q361 791 343.5 774.5Q326 758 302 749.5Q278 741 249 741Q220 741 196 749.5Q172 758 154 774.5Q136 791 126.5 814Q117 837 117 866Q117 893 126.5 916.5Q136 940 154 957Q172 974 196 983Q220 992 249 992Q277 992 301.5 983Q326 974 343.5 957Q361 940 370.5 916.5Q380 893 380 866ZM282 866Q282 873 279.5 879.5Q277 886 272.5 890Q268 894 262 896.5Q256 899 249 899Q242 899 235.5 896.5Q229 894 224.5 890Q220 886 217.5 879.5Q215 873 215 866Q215 859 217.5 852.5Q220 846 224.5 842Q229 838 235.5 835.5Q242 833 249 833Q256 833 262 835.5Q268 838 272.5 842Q277 846 279.5 852.5Q282 859 282 866Z" glyph-name="Aring" horiz-adv-x="502" unicode="&#197;" /><glyph d="M499 0H324L314 78H185L177 0H3L153 700H349ZM291 224 263 434Q261 448 259 464.5Q257 481 255.5 495.5Q254 510 252 531H250Q248 510 246 495.5Q244 481 242 464.5Q240 448 238 434L210 224ZM307 890H398Q398 860 392.5 836.5Q387 813 375 796.5Q363 780 343 771Q323 762 294 762Q278 762 263 765Q248 768 226 775.5Q204 783 199.5 784.5Q195 786 188 786Q184 786 181.5 784.5Q179 783 177 780.5Q175 778 174.5 775.5Q174 773 174 771H83Q83 801 88 824.5Q93 848 104.5 865Q116 882 136 891Q156 900 186 900Q203 900 218 896.5Q233 893 255.5 885.5Q278 878 282 876.5Q286 875 293 875Q297 875 299.5 876.5Q302 878 303.5 880.5Q305 883 306 885.5Q307 888 307 890Z" glyph-name="Atilde" horiz-adv-x="502" unicode="&#195;" /><glyph d="M209 413H265Q283 413 297 417.5Q311 422 320 430.5Q329 439 333.5 451.5Q338 464 338 481Q338 498 333.5 510.5Q329 523 319.5 532Q310 541 296.5 545.5Q283 550 264 550H209ZM209 150H288Q308 150 322 155.5Q336 161 344 170.5Q352 180 355.5 191.5Q359 203 359 217Q359 230 355.5 242Q352 254 343.5 263.5Q335 273 321 278.5Q307 284 287 284H209ZM256 0H50V700H266Q321 700 362 685Q403 670 429 644.5Q455 619 467.5 585Q480 551 480 513Q480 482 475 456.5Q470 431 459.5 411.5Q449 392 433.5 379Q418 366 398 361V358Q419 353 438.5 340.5Q458 328 473.5 308Q489 288 497.5 262.5Q506 237 506 209Q506 164 491 126Q476 88 445 59.5Q414 31 366.5 15.5Q319 0 256 0Z" glyph-name="B" horiz-adv-x="523" unicode="B" /><glyph d="M325 211 459 138Q444 103 427 76Q410 49 386 28.5Q362 8 329 -3Q296 -14 253 -14Q181 -14 134 16.5Q87 47 62.5 98Q38 149 29 209.5Q20 270 20 342Q20 417 29.5 481Q39 545 64.5 598Q90 651 137.5 682.5Q185 714 257 714Q301 714 335 702Q369 690 394 668.5Q419 647 436.5 618Q454 589 467 552L328 487Q322 507 315 521.5Q308 536 300 545Q292 554 282.5 558Q273 562 260 562Q240 562 226 550.5Q212 539 203 513.5Q194 488 190 446.5Q186 405 186 343Q186 288 189.5 249.5Q193 211 201 186.5Q209 162 222.5 150Q236 138 257 138Q268 138 277.5 141.5Q287 145 295.5 153.5Q304 162 311 176Q318 190 325 211Z" glyph-name="C" horiz-adv-x="472" unicode="C" /><glyph glyph-name="CR" horiz-adv-x="200" unicode="" /><glyph d="M162 -250 233 -185Q237 -189 241 -192.5Q245 -196 249.5 -198.5Q254 -201 259 -202Q264 -203 269 -203Q278 -203 285.5 -200.5Q293 -198 298 -193Q303 -188 305.5 -181.5Q308 -175 308 -167Q308 -159 305.5 -152Q303 -145 298 -140Q293 -135 286 -132Q279 -129 270 -129Q265 -129 260 -130Q255 -131 250 -133.5Q245 -136 240.5 -139.5Q236 -143 231 -149L157 -112L181 -4Q132 10 99.5 44.5Q67 79 50 126Q33 173 26.5 227Q20 281 20 342Q20 417 29.5 481Q39 545 64.5 598Q90 651 137.5 682.5Q185 714 257 714Q301 714 335 702Q369 690 394 668.5Q419 647 436.5 618Q454 589 467 552L328 487Q322 507 315 521.5Q308 536 300 545Q292 554 282.5 558Q273 562 260 562Q240 562 226 550.5Q212 539 203 513.5Q194 488 190 446.5Q186 405 186 343Q186 288 189.5 249.5Q193 211 201 186.5Q209 162 222.5 150Q236 138 257 138Q268 138 277.5 141.5Q287 145 295.5 153.5Q304 162 311 176Q318 190 325 211L459 138Q444 103 427 76.5Q410 50 387 30Q364 10 332.5 -1.5Q301 -13 260 -14L251 -53L253 -54Q257 -53 261 -52Q265 -51 269.5 -50Q274 -49 279 -48.5Q284 -48 290 -48Q320 -48 342.5 -58Q365 -68 379 -85Q393 -102 399.5 -124.5Q406 -147 406 -172Q406 -200 396.5 -223.5Q387 -247 369 -263.5Q351 -280 326.5 -289Q302 -298 273 -298Q254 -298 237.5 -294.5Q221 -291 207.5 -284.5Q194 -278 182.5 -269.5Q171 -261 162 -250Z" glyph-name="Ccedilla" horiz-adv-x="472" unicode="&#199;" /><glyph d="M247 0H50V700H251Q321 700 371 671Q421 642 451 592Q481 542 494 480.5Q507 419 507 350Q507 281 494 219.5Q481 158 450.5 108Q420 58 369.5 29Q319 0 247 0ZM216 152H247Q272 152 290 164.5Q308 177 319 202Q330 227 335.5 264Q341 301 341 350Q341 402 336 439.5Q331 477 320 501Q309 525 292 536.5Q275 548 251 548H216Z" glyph-name="D" horiz-adv-x="527" unicode="D" /><glyph d="M439 0H50V700H439V548H216V414H402V268H216V152H439Z" glyph-name="E" horiz-adv-x="479" unicode="E" /><glyph d="M439 0H50V700H439V548H216V414H402V268H216V152H439ZM392 832 152 730 104 833 336 951Z" glyph-name="Eacute" horiz-adv-x="479" unicode="&#201;" /><glyph d="M439 0H50V700H439V548H216V414H402V268H216V152H439ZM350 731 301 783Q290 795 280 806Q270 817 263 825Q256 833 248 843H244Q236 833 229 825Q222 817 212 806Q202 795 191 783L142 731L59 825L201 937H291L433 825Z" glyph-name="Ecircumflex" horiz-adv-x="479" unicode="&#202;" /><glyph d="M439 0H50V700H439V548H216V414H402V268H216V152H439ZM227 822Q227 806 221.5 793Q216 780 206 770.5Q196 761 182 756.5Q168 752 151 752Q135 752 121 756.5Q107 761 96.5 770.5Q86 780 80.5 793Q75 806 75 822Q75 839 80.5 852.5Q86 866 96.5 876Q107 886 121 891Q135 896 151 896Q168 896 182 891Q196 886 206 876Q216 866 221.5 852.5Q227 839 227 822ZM415 822Q415 806 409.5 793Q404 780 394 770.5Q384 761 370 756.5Q356 752 339 752Q323 752 309 756.5Q295 761 284.5 770.5Q274 780 268.5 793Q263 806 263 822Q263 839 268.5 852.5Q274 866 284.5 876Q295 886 309 891Q323 896 339 896Q356 896 370 891Q384 886 394 876Q404 866 409.5 852.5Q415 839 415 822Z" glyph-name="Edieresis" horiz-adv-x="479" unicode="&#203;" /><glyph d="M439 0H50V700H439V548H216V414H402V268H216V152H439ZM348 730 108 832 164 951 396 833Z" glyph-name="Egrave" horiz-adv-x="479" unicode="&#200;" /><glyph d="M267 0H70V300H12V402H70V700H271Q341 700 391 671Q441 642 471 592Q501 542 514 480.5Q527 419 527 350Q527 281 514 219.5Q501 158 470.5 108Q440 58 389.5 29Q339 0 267 0ZM236 160H267Q292 160 310 175Q328 190 339 216.5Q350 243 355.5 277Q361 311 361 350Q361 388 356 422.5Q351 457 340 483.5Q329 510 311.5 525Q294 540 271 540H236V402H300V300H236Z" glyph-name="Eth" horiz-adv-x="547" unicode="&#208;" /><glyph d="M363 211 497 138Q482 103 465 76Q448 49 424 28.5Q400 8 367 -3Q334 -14 291 -14Q225 -14 180.5 11Q136 36 110.5 79.5Q85 123 73 176.5Q61 230 59 293H10V327H58V342V373H10V407H60Q64 471 76.5 525Q89 579 115.5 621.5Q142 664 186.5 689Q231 714 295 714Q339 714 373 702Q407 690 432 668.5Q457 647 474.5 618Q492 589 505 552L366 487Q360 507 353 521.5Q346 536 338 545Q330 554 320.5 558Q311 562 298 562Q280 562 267.5 553.5Q255 545 246.5 527Q238 509 232.5 479.5Q227 450 225 407H347V373H224V343V327H347V293H225Q227 252 231 223Q235 194 243.5 175Q252 156 264.5 147Q277 138 295 138Q306 138 315.5 141.5Q325 145 333.5 153.5Q342 162 349 176Q356 190 363 211Z" glyph-name="Euro" horiz-adv-x="521" unicode="&#8364;" /><glyph d="M287 347V313H10V347ZM287 267V233H10V267ZM351 197 480 99Q465 73 444.5 52Q424 31 398.5 16.5Q373 2 342 -6Q311 -14 276 -14Q219 -14 174.5 7Q130 28 100 67.5Q70 107 54.5 163Q39 219 39 289Q39 358 55 415.5Q71 473 102 514Q133 555 177 577.5Q221 600 276 600Q311 600 341 593Q371 586 395 572.5Q419 559 439 539.5Q459 520 475 494L347 386Q344 400 339 410.5Q334 421 326 428.5Q318 436 307.5 440Q297 444 284 444Q264 444 250 435Q236 426 226.5 407Q217 388 212.5 359Q208 330 208 289Q208 251 212.5 223Q217 195 226.5 176Q236 157 250 148Q264 139 284 139Q298 139 309 144Q320 149 327.5 157Q335 165 340.5 175Q346 185 351 197Z" glyph-name="Euro.osf" horiz-adv-x="500" /><glyph d="M216 0H50V700H439V548H216V373H401V221H216Z" glyph-name="F" horiz-adv-x="459" unicode="F" /><glyph d="M278 391H490Q491 369 491.5 363Q492 357 492 350.5Q492 344 492 337Q492 259 481.5 197Q471 135 445 87.5Q419 40 373.5 13Q328 -14 260 -14Q191 -14 143.5 16.5Q96 47 69 98Q42 149 31 211Q20 273 20 342Q20 417 29.5 481Q39 545 64.5 598Q90 651 137.5 682.5Q185 714 257 714Q301 714 335 702Q369 690 394 668.5Q419 647 436.5 618Q454 589 467 552L328 487Q322 507 315 521.5Q308 536 300 545Q292 554 282.5 558Q273 562 260 562Q240 562 226 550.5Q212 539 203 513.5Q194 488 190 446.5Q186 405 186 343Q186 289 191 250.5Q196 212 205.5 187Q215 162 230 150Q245 138 266 138Q287 138 301.5 147.5Q316 157 325 173.5Q334 190 338 211Q342 232 344 259H278Z" glyph-name="G" horiz-adv-x="512" unicode="G" /><glyph d="M508 0H342V246H216V0H50V700H216V406H342V700H508Z" glyph-name="H" horiz-adv-x="558" unicode="H" /><glyph d="M216 0H50V700H216Z" glyph-name="I" horiz-adv-x="266" unicode="I" /><glyph d="M217 0H51V700H217ZM283 832 43 730 -5 833 227 951Z" glyph-name="Iacute" horiz-adv-x="266" unicode="&#205;" /><glyph d="M219 0H53V700H219ZM240 731 191 783Q180 795 170 806Q160 817 153 825Q146 833 138 843H134Q126 833 119 825Q112 817 102 806Q92 795 81 783L32 731L-51 825L91 937H181L323 825Z" glyph-name="Icircumflex" horiz-adv-x="266" unicode="&#206;" /><glyph d="M218 0H52V700H218ZM137 814Q137 798 131.5 784.5Q126 771 115.5 762Q105 753 91 748Q77 743 61 743Q44 743 30 748Q16 753 5.5 762Q-5 771 -10.5 784.5Q-16 798 -16 814Q-16 830 -10.5 843.5Q-5 857 5.5 867Q16 877 30 882Q44 887 61 887Q77 887 91 882Q105 877 115.5 867Q126 857 131.5 843.5Q137 830 137 814ZM297 814Q297 798 291.5 784.5Q286 771 275.5 762Q265 753 251 748Q237 743 221 743Q204 743 190 748Q176 753 165.5 762Q155 771 149.5 784.5Q144 798 144 814Q144 830 149.5 843.5Q155 857 165.5 867Q176 877 190 882Q204 887 221 887Q237 887 251 882Q265 877 275.5 867Q286 857 291.5 843.5Q297 830 297 814Z" glyph-name="Idieresis" horiz-adv-x="266" unicode="&#207;" /><glyph d="M218 0H52V700H218ZM214 730 -26 832 30 951 262 833Z" glyph-name="Igrave" horiz-adv-x="266" unicode="&#204;" /><glyph d="M9 1 56 156Q59 154 62 153Q65 152 69 151.5Q73 151 77 150.5Q81 150 85 150Q97 150 106 154.5Q115 159 121.5 167.5Q128 176 131 188.5Q134 201 134 217V700H300V233Q300 170 284.5 123.5Q269 77 241 47.5Q213 18 175 4Q137 -10 90 -10Q80 -10 69.5 -9.5Q59 -9 48.5 -7.5Q38 -6 28 -4Q18 -2 9 1Z" glyph-name="J" horiz-adv-x="350" unicode="J" /><glyph d="M496 0H319L263 181Q259 193 255.5 207Q252 221 249 232.5Q246 244 242 260H240L216 197V0H50V700H216V543Q216 526 215.5 506.5Q215 487 215 470.5Q215 454 214 430H216Q222 450 227 465Q232 480 239 499Q246 518 253 537L316 700H496L344 403Z" glyph-name="K" horiz-adv-x="501" unicode="K" /><glyph d="M386 0H50V700H216V160H386Z" glyph-name="L" horiz-adv-x="398" unicode="L" /><glyph d="M410 0H74V270L18 244L4 279L74 310V700H240V382L325 420L339 385L240 341V160H410Z" glyph-name="Lslash" horiz-adv-x="422" unicode="&#321;" /><glyph d="M605 0H449V356Q449 371 449.5 386Q450 401 450.5 412.5Q451 424 452 440H450Q444 428 438.5 419Q433 410 425 398Q417 386 408 373L330 266H326L248 373Q239 386 231 398Q223 410 218 419Q213 428 207 440H205Q205 424 205.5 412Q206 400 206 385.5Q206 371 206 356V0H50V700H216L278 611Q288 596 297 582.5Q306 569 312.5 558.5Q319 548 327 534H329Q338 548 344.5 558.5Q351 569 360 582.5Q369 596 379 611L440 700H605Z" glyph-name="M" horiz-adv-x="655" unicode="M" /><glyph d="M534 0H369L249 268Q241 286 233.5 305.5Q226 325 220 342Q214 359 206 383H204Q205 357 205 339Q205 321 205.5 300Q206 279 206 259V0H50V700H220L329 460Q337 443 345.5 422.5Q354 402 360.5 384Q367 366 377 340H379Q378 368 378 387Q378 406 377.5 428.5Q377 451 377 471V700H534Z" glyph-name="N" horiz-adv-x="584" unicode="N" /><glyph glyph-name="NUL" horiz-adv-x="1235" /><glyph d="M534 0H369L249 268Q241 286 233.5 305.5Q226 325 220 342Q214 359 206 383H204Q205 357 205 339Q205 321 205.5 300Q206 279 206 259V0H50V700H220L329 460Q337 443 345.5 422.5Q354 402 360.5 384Q367 366 377 340H379Q378 368 378 387Q378 406 377.5 428.5Q377 451 377 471V700H534ZM354 890H445Q445 860 439.5 836.5Q434 813 422 796.5Q410 780 390 771Q370 762 341 762Q325 762 310 765Q295 768 273 775.5Q251 783 246.5 784.5Q242 786 235 786Q231 786 228.5 784.5Q226 783 224 780.5Q222 778 221.5 775.5Q221 773 221 771H130Q130 801 135 824.5Q140 848 151.5 865Q163 882 183 891Q203 900 233 900Q250 900 265 896.5Q280 893 302.5 885.5Q325 878 329 876.5Q333 875 340 875Q344 875 346.5 876.5Q349 878 350.5 880.5Q352 883 353 885.5Q354 888 354 890Z" glyph-name="Ntilde" horiz-adv-x="584" unicode="&#209;" /><glyph d="M257 -14Q187 -14 140 15.5Q93 45 67 95.5Q41 146 30.5 210Q20 274 20 350Q20 426 30.5 490Q41 554 67 604.5Q93 655 140 684.5Q187 714 257 714Q327 714 374 684.5Q421 655 447 604.5Q473 554 483.5 490Q494 426 494 350Q494 274 483.5 210Q473 146 447 95.5Q421 45 374 15.5Q327 -14 257 -14ZM257 146Q279 146 293.5 159.5Q308 173 315.5 199Q323 225 325.5 261.5Q328 298 328 350Q328 403 325.5 439Q323 475 315.5 501Q308 527 294 540.5Q280 554 257 554Q235 554 220.5 540.5Q206 527 198.5 501Q191 475 188.5 438.5Q186 402 186 350Q186 298 189 261.5Q192 225 199.5 199Q207 173 221 159.5Q235 146 257 146Z" glyph-name="O" horiz-adv-x="514" unicode="O" /><glyph d="M707 0H279Q209 0 162 27.5Q115 55 89 103Q63 151 52.5 212.5Q42 274 42 350Q42 426 52.5 487.5Q63 549 89 597Q115 645 162 672.5Q209 700 279 700H707V548H484V414H670V268H484V152H707ZM318 152V548H288Q265 548 250 535Q235 522 225.5 497.5Q216 473 212 436.5Q208 400 208 350Q208 301 212 264Q216 227 225.5 202.5Q235 178 250.5 165Q266 152 288 152Z" glyph-name="OE" horiz-adv-x="773" unicode="&#338;" /><glyph d="M257 -14Q187 -14 140 15.5Q93 45 67 95.5Q41 146 30.5 210Q20 274 20 350Q20 426 30.5 490Q41 554 67 604.5Q93 655 140 684.5Q187 714 257 714Q327 714 374 684.5Q421 655 447 604.5Q473 554 483.5 490Q494 426 494 350Q494 274 483.5 210Q473 146 447 95.5Q421 45 374 15.5Q327 -14 257 -14ZM257 146Q279 146 293.5 159.5Q308 173 315.5 199Q323 225 325.5 261.5Q328 298 328 350Q328 403 325.5 439Q323 475 315.5 501Q308 527 294 540.5Q280 554 257 554Q235 554 220.5 540.5Q206 527 198.5 501Q191 475 188.5 438.5Q186 402 186 350Q186 298 189 261.5Q192 225 199.5 199Q207 173 221 159.5Q235 146 257 146ZM396 832 156 730 108 833 340 951Z" glyph-name="Oacute" horiz-adv-x="514" unicode="&#211;" /><glyph d="M257 -14Q187 -14 140 15.5Q93 45 67 95.5Q41 146 30.5 210Q20 274 20 350Q20 426 30.5 490Q41 554 67 604.5Q93 655 140 684.5Q187 714 257 714Q327 714 374 684.5Q421 655 447 604.5Q473 554 483.5 490Q494 426 494 350Q494 274 483.5 210Q473 146 447 95.5Q421 45 374 15.5Q327 -14 257 -14ZM257 146Q279 146 293.5 159.5Q308 173 315.5 199Q323 225 325.5 261.5Q328 298 328 350Q328 403 325.5 439Q323 475 315.5 501Q308 527 294 540.5Q280 554 257 554Q235 554 220.5 540.5Q206 527 198.5 501Q191 475 188.5 438.5Q186 402 186 350Q186 298 189 261.5Q192 225 199.5 199Q207 173 221 159.5Q235 146 257 146ZM362 731 313 783Q302 795 292 806Q282 817 275 825Q268 833 260 843H256Q248 833 241 825Q234 817 224 806Q214 795 203 783L154 731L71 825L213 937H303L445 825Z" glyph-name="Ocircumflex" horiz-adv-x="514" unicode="&#212;" /><glyph d="M257 -14Q187 -14 140 15.5Q93 45 67 95.5Q41 146 30.5 210Q20 274 20 350Q20 426 30.5 490Q41 554 67 604.5Q93 655 140 684.5Q187 714 257 714Q327 714 374 684.5Q421 655 447 604.5Q473 554 483.5 490Q494 426 494 350Q494 274 483.5 210Q473 146 447 95.5Q421 45 374 15.5Q327 -14 257 -14ZM257 146Q279 146 293.5 159.5Q308 173 315.5 199Q323 225 325.5 261.5Q328 298 328 350Q328 403 325.5 439Q323 475 315.5 501Q308 527 294 540.5Q280 554 257 554Q235 554 220.5 540.5Q206 527 198.5 501Q191 475 188.5 438.5Q186 402 186 350Q186 298 189 261.5Q192 225 199.5 199Q207 173 221 159.5Q235 146 257 146ZM239 822Q239 806 233.5 793Q228 780 218 770.5Q208 761 194 756.5Q180 752 163 752Q147 752 133 756.5Q119 761 108.5 770.5Q98 780 92.5 793Q87 806 87 822Q87 839 92.5 852.5Q98 866 108.5 876Q119 886 133 891Q147 896 163 896Q180 896 194 891Q208 886 218 876Q228 866 233.5 852.5Q239 839 239 822ZM427 822Q427 806 421.5 793Q416 780 406 770.5Q396 761 382 756.5Q368 752 351 752Q335 752 321 756.5Q307 761 296.5 770.5Q286 780 280.5 793Q275 806 275 822Q275 839 280.5 852.5Q286 866 296.5 876Q307 886 321 891Q335 896 351 896Q368 896 382 891Q396 886 406 876Q416 866 421.5 852.5Q427 839 427 822Z" glyph-name="Odieresis" horiz-adv-x="514" unicode="&#214;" /><glyph d="M257 -14Q187 -14 140 15.5Q93 45 67 95.5Q41 146 30.5 210Q20 274 20 350Q20 426 30.5 490Q41 554 67 604.5Q93 655 140 684.5Q187 714 257 714Q327 714 374 684.5Q421 655 447 604.5Q473 554 483.5 490Q494 426 494 350Q494 274 483.5 210Q473 146 447 95.5Q421 45 374 15.5Q327 -14 257 -14ZM257 146Q279 146 293.5 159.5Q308 173 315.5 199Q323 225 325.5 261.5Q328 298 328 350Q328 403 325.5 439Q323 475 315.5 501Q308 527 294 540.5Q280 554 257 554Q235 554 220.5 540.5Q206 527 198.5 501Q191 475 188.5 438.5Q186 402 186 350Q186 298 189 261.5Q192 225 199.5 199Q207 173 221 159.5Q235 146 257 146ZM355 730 115 832 171 951 403 833Z" glyph-name="Ograve" horiz-adv-x="514" unicode="&#210;" /><glyph d="M257 -14Q187 -14 140 15.5Q93 45 67 95.5Q41 146 30.5 210Q20 274 20 350Q20 426 30.5 490Q41 554 67 604.5Q93 655 140 684.5Q187 714 257 714Q327 714 374 684.5Q421 655 447 604.5Q473 554 483.5 490Q494 426 494 350Q494 274 483.5 210Q473 146 447 95.5Q421 45 374 15.5Q327 -14 257 -14ZM190 244 306 523Q302 531 297 536.5Q292 542 286 546Q280 550 273 552Q266 554 257 554Q235 554 220.5 540.5Q206 527 198.5 501Q191 475 188.5 438.5Q186 402 186 350Q186 334 186 319.5Q186 305 186.5 292Q187 279 188 267Q189 255 190 244ZM324 454 209 175Q213 168 218 162.5Q223 157 229 153.5Q235 150 242 148Q249 146 257 146Q279 146 293.5 159.5Q308 173 315.5 199Q323 225 325.5 261.5Q328 298 328 350Q328 366 328 379.5Q328 393 327.5 406Q327 419 326 431Q325 443 324 454Z" glyph-name="Oslash" horiz-adv-x="514" unicode="&#216;" /><glyph d="M257 -14Q187 -14 140 15.5Q93 45 67 95.5Q41 146 30.5 210Q20 274 20 350Q20 426 30.5 490Q41 554 67 604.5Q93 655 140 684.5Q187 714 257 714Q327 714 374 684.5Q421 655 447 604.5Q473 554 483.5 490Q494 426 494 350Q494 274 483.5 210Q473 146 447 95.5Q421 45 374 15.5Q327 -14 257 -14ZM257 146Q279 146 293.5 159.5Q308 173 315.5 199Q323 225 325.5 261.5Q328 298 328 350Q328 403 325.5 439Q323 475 315.5 501Q308 527 294 540.5Q280 554 257 554Q235 554 220.5 540.5Q206 527 198.5 501Q191 475 188.5 438.5Q186 402 186 350Q186 298 189 261.5Q192 225 199.5 199Q207 173 221 159.5Q235 146 257 146ZM324 890H415Q415 860 409.5 836.5Q404 813 392 796.5Q380 780 360 771Q340 762 311 762Q295 762 280 765Q265 768 243 775.5Q221 783 216.5 784.5Q212 786 205 786Q201 786 198.5 784.5Q196 783 194 780.5Q192 778 191.5 775.5Q191 773 191 771H100Q100 801 105 824.5Q110 848 121.5 865Q133 882 153 891Q173 900 203 900Q220 900 235 896.5Q250 893 272.5 885.5Q295 878 299 876.5Q303 875 310 875Q314 875 316.5 876.5Q319 878 320.5 880.5Q322 883 323 885.5Q324 888 324 890Z" glyph-name="Otilde" horiz-adv-x="514" unicode="&#213;" /><glyph d="M216 0H50V700H258Q315 700 358.5 678Q402 656 429.5 619Q457 582 470.5 538.5Q484 495 484 451Q484 400 469.5 354Q455 308 426 272Q397 236 352.5 215.5Q308 195 251 195H216ZM216 344H247Q266 344 279.5 352.5Q293 361 302 375.5Q311 390 315 408.5Q319 427 319 448Q319 470 315 489Q311 508 302 522Q293 536 279 544Q265 552 246 552H216Z" glyph-name="P" horiz-adv-x="494" unicode="P" /><glyph d="M448 -43 373 -119Q361 -107 350 -93.5Q339 -80 330 -66.5Q321 -53 312.5 -39Q304 -25 297 -11Q293 -12 288 -12.5Q283 -13 278 -13.5Q273 -14 267.5 -14Q262 -14 257 -14Q187 -14 140 15.5Q93 45 67 95.5Q41 146 30.5 210Q20 274 20 350Q20 426 30.5 490Q41 554 67 604.5Q93 655 140 684.5Q187 714 257 714Q327 714 374 684.5Q421 655 447 604.5Q473 554 483.5 490Q494 426 494 350Q494 297 489 250.5Q484 204 472.5 162Q461 120 441 85.5Q421 51 392 28Q398 19 404 10Q410 1 417 -7.5Q424 -16 431.5 -25Q439 -34 448 -43ZM257 146Q279 146 293.5 159.5Q308 173 315.5 199Q323 225 325.5 261.5Q328 298 328 350Q328 403 325.5 439Q323 475 315.5 501Q308 527 294 540.5Q280 554 257 554Q235 554 220.5 540.5Q206 527 198.5 501Q191 475 188.5 438.5Q186 402 186 350Q186 298 189 261.5Q192 225 199.5 199Q207 173 221 159.5Q235 146 257 146Z" glyph-name="Q" horiz-adv-x="514" unicode="Q" /><glyph d="M502 0H327L261 215H216V0H50V700H258Q315 700 358.5 679.5Q402 659 429.5 624Q457 589 470.5 546.5Q484 504 484 461Q484 430 478.5 400.5Q473 371 462 345Q451 319 434 297Q417 275 395 258ZM216 364H247Q266 364 280 371Q294 378 302.5 390.5Q311 403 315 420.5Q319 438 319 458Q319 480 315 497Q311 514 302 526.5Q293 539 279 545.5Q265 552 246 552H216Z" glyph-name="R" horiz-adv-x="510" unicode="R" /><glyph d="M13 131 152 215Q158 199 168 185.5Q178 172 190.5 162.5Q203 153 217.5 148Q232 143 247 143Q259 143 269 146.5Q279 150 285.5 156Q292 162 295.5 170.5Q299 179 299 188Q299 219 281.5 231.5Q264 244 182 296Q100 348 63.5 395Q27 442 27 511Q27 554 42.5 591Q58 628 86.5 655.5Q115 683 154.5 698.5Q194 714 241 714Q278 714 310.5 704Q343 694 370 675Q397 656 417.5 628Q438 600 452 563L320 485Q316 502 308 517Q300 532 289.5 543.5Q279 555 265.5 561Q252 567 238 567Q227 567 218.5 563.5Q210 560 203.5 554Q197 548 193.5 539.5Q190 531 190 521Q190 489 203 480.5Q216 472 303.5 419.5Q391 367 428 319.5Q465 272 465 196Q465 148 448.5 109Q432 70 401.5 42.5Q371 15 330 0.5Q289 -14 241 -14Q200 -14 164.5 -3.5Q129 7 101 26.5Q73 46 51 72.5Q29 99 13 131Z" glyph-name="S" horiz-adv-x="478" unicode="S" /><glyph d="M152 215 13 131Q29 99 51 72.5Q73 46 101 26.5Q129 7 164.5 -3.5Q200 -14 241 -14Q289 -14 330 0.5Q371 15 401.5 42.5Q432 70 448.5 109Q465 148 465 196Q465 272 428 319.5Q391 367 303.5 419.5Q216 472 203 480.5Q190 489 190 521Q190 531 193.5 539.5Q197 548 203.5 554Q210 560 218.5 563.5Q227 567 238 567Q252 567 265.5 561Q279 555 289.5 543.5Q300 532 308 517Q316 502 320 485L452 563Q438 600 417.5 628Q397 656 370 675Q343 694 310.5 704Q278 714 241 714Q194 714 154.5 698.5Q115 683 86.5 655.5Q58 628 42.5 591Q27 554 27 511Q27 442 63.5 395Q100 348 182 296Q264 244 281.5 231.5Q299 219 299 188Q299 179 295.5 170.5Q292 162 285.5 156Q279 150 269 146.5Q259 143 247 143Q232 143 217.5 148Q203 153 190.5 162.5Q178 172 168 185.5Q158 199 152 215ZM139 968 188 916Q199 904 209 893Q219 882 226 874Q233 866 241 856H245Q253 866 260 874Q267 882 277 893Q287 904 298 916L347 968L430 874L288 762H198L56 874Z" glyph-name="Scaron" horiz-adv-x="492" unicode="&#352;" /><glyph d="M290 0H123V540H20V700H393V540H290Z" glyph-name="T" horiz-adv-x="413" unicode="T" /><glyph d="M216 0H50V700H216V610H273Q330 610 373.5 588Q417 566 444.5 529Q472 492 485.5 448.5Q499 405 499 361Q499 310 484.5 264Q470 218 441 182Q412 146 367.5 125.5Q323 105 266 105H216ZM216 254H262Q281 254 294.5 262.5Q308 271 317 285.5Q326 300 330 318.5Q334 337 334 358Q334 380 330 399Q326 418 317 432Q308 446 294 454Q280 462 261 462H216Z" glyph-name="Thorn" horiz-adv-x="515" unicode="&#222;" /><glyph d="M332 228V700H498V233Q498 170 481 123.5Q464 77 434 47.5Q404 18 364 4Q324 -10 277 -10Q230 -10 189 4Q148 18 116.5 47.5Q85 77 67.5 124Q50 171 50 234V700H216V227Q216 210 218.5 196Q221 182 227.5 172Q234 162 245.5 156Q257 150 274 150Q292 150 304 156Q316 162 322 173Q328 184 330 197.5Q332 211 332 228Z" glyph-name="U" horiz-adv-x="548" unicode="U" /><glyph d="M775 189Q731 189 697 205.5Q663 222 640 252Q617 282 605.5 323.5Q594 365 594 416Q594 467 605.5 508.5Q617 550 640 580.5Q663 611 697 627Q731 643 775 643Q819 643 853 627Q887 611 909.5 580.5Q932 550 943.5 508.5Q955 467 955 416Q955 365 943.5 323.5Q932 282 909.5 252Q887 222 853 205.5Q819 189 775 189ZM775 334Q783 334 789 338.5Q795 343 799.5 353Q804 363 806.5 379Q809 395 809 417Q809 439 806.5 454.5Q804 470 799.5 480Q795 490 789 494.5Q783 499 775 499Q767 499 760.5 494.5Q754 490 749.5 480Q745 470 743 454.5Q741 439 741 417Q741 395 743 379Q745 363 749.5 353Q754 343 760.5 338.5Q767 334 775 334ZM946 0V125H600V0ZM534 0H369L249 268Q241 286 233.5 305.5Q226 325 220 342Q214 359 206 383H204Q205 357 205 339Q205 321 205.5 300Q206 279 206 259V0H50V700H220L329 460Q337 443 345.5 422.5Q354 402 360.5 384Q367 366 377 340H379Q378 368 378 387Q378 406 377.5 428.5Q377 451 377 471V700H534Z" glyph-name="UNI2116" horiz-adv-x="988" unicode="&#8470;" /><glyph d="M332 228V700H498V233Q498 170 481 123.5Q464 77 434 47.5Q404 18 364 4Q324 -10 277 -10Q230 -10 189 4Q148 18 116.5 47.5Q85 77 67.5 124Q50 171 50 234V700H216V227Q216 210 218.5 196Q221 182 227.5 172Q234 162 245.5 156Q257 150 274 150Q292 150 304 156Q316 162 322 173Q328 184 330 197.5Q332 211 332 228ZM419 832 179 730 131 833 363 951Z" glyph-name="Uacute" horiz-adv-x="548" unicode="&#218;" /><glyph d="M332 228V700H498V233Q498 170 481 123.5Q464 77 434 47.5Q404 18 364 4Q324 -10 277 -10Q230 -10 189 4Q148 18 116.5 47.5Q85 77 67.5 124Q50 171 50 234V700H216V227Q216 210 218.5 196Q221 182 227.5 172Q234 162 245.5 156Q257 150 274 150Q292 150 304 156Q316 162 322 173Q328 184 330 197.5Q332 211 332 228ZM380 731 331 783Q320 795 310 806Q300 817 293 825Q286 833 278 843H274Q266 833 259 825Q252 817 242 806Q232 795 221 783L172 731L89 825L231 937H321L463 825Z" glyph-name="Ucircumflex" horiz-adv-x="548" unicode="&#219;" /><glyph d="M332 228V700H498V233Q498 170 481 123.5Q464 77 434 47.5Q404 18 364 4Q324 -10 277 -10Q230 -10 189 4Q148 18 116.5 47.5Q85 77 67.5 124Q50 171 50 234V700H216V227Q216 210 218.5 196Q221 182 227.5 172Q234 162 245.5 156Q257 150 274 150Q292 150 304 156Q316 162 322 173Q328 184 330 197.5Q332 211 332 228ZM255 822Q255 806 249.5 793Q244 780 234 770.5Q224 761 210 756.5Q196 752 179 752Q163 752 149 756.5Q135 761 124.5 770.5Q114 780 108.5 793Q103 806 103 822Q103 839 108.5 852.5Q114 866 124.5 876Q135 886 149 891Q163 896 179 896Q196 896 210 891Q224 886 234 876Q244 866 249.5 852.5Q255 839 255 822ZM443 822Q443 806 437.5 793Q432 780 422 770.5Q412 761 398 756.5Q384 752 367 752Q351 752 337 756.5Q323 761 312.5 770.5Q302 780 296.5 793Q291 806 291 822Q291 839 296.5 852.5Q302 866 312.5 876Q323 886 337 891Q351 896 367 896Q384 896 398 891Q412 886 422 876Q432 866 437.5 852.5Q443 839 443 822Z" glyph-name="Udieresis" horiz-adv-x="548" unicode="&#220;" /><glyph d="M332 228V700H498V233Q498 170 481 123.5Q464 77 434 47.5Q404 18 364 4Q324 -10 277 -10Q230 -10 189 4Q148 18 116.5 47.5Q85 77 67.5 124Q50 171 50 234V700H216V227Q216 210 218.5 196Q221 182 227.5 172Q234 162 245.5 156Q257 150 274 150Q292 150 304 156Q316 162 322 173Q328 184 330 197.5Q332 211 332 228ZM371 730 131 832 187 951 419 833Z" glyph-name="Ugrave" horiz-adv-x="548" unicode="&#217;" /><glyph d="M477 700 337 0H142L3 700H176L221 355Q224 334 227 304Q230 274 233 245Q236 216 240 170H242Q246 216 249 245.5Q252 275 255 305Q258 335 260 356L302 700Z" glyph-name="V" horiz-adv-x="480" unicode="V" /><glyph d="M781 700 656 0H457L416 232Q411 259 407 288Q403 317 399.5 342Q396 367 394.5 384.5Q393 402 393 408H392H391Q391 403 389 386Q387 369 383.5 343.5Q380 318 376 289Q372 260 367 232L327 0H128L3 700H177L217 355Q220 325 223 293Q226 261 228 234.5Q230 208 233 170H235Q238 209 240.5 235.5Q243 262 247.5 294Q252 326 257 355L322 700H462L528 355Q534 326 538 294Q542 262 544.5 235.5Q547 209 549 170H551Q555 208 557.5 234.5Q560 261 563 293Q566 325 569 355L607 700Z" glyph-name="W" horiz-adv-x="784" unicode="W" /><glyph d="M341 350 459 0H285L244 191Q242 203 239.5 217Q237 231 235.5 243.5Q234 256 232 275H230Q228 256 226.5 243.5Q225 231 222.5 217Q220 203 218 191L176 0H4L121 350L4 700H176L218 510Q220 498 222.5 484Q225 470 226.5 457.5Q228 445 230 426H232Q234 445 235.5 457.5Q237 470 239.5 484Q242 498 244 509L285 700H459Z" glyph-name="X" horiz-adv-x="463" unicode="X" /><glyph d="M334 191V0H169V191L3 700H180L235 491Q239 477 242 458.5Q245 440 247 422.5Q249 405 251 379H253Q256 405 258.5 422.5Q261 440 264.5 458.5Q268 477 271 491L322 700H501Z" glyph-name="Y" horiz-adv-x="504" unicode="Y" /><glyph d="M334 0V191L501 700H322L271 491Q268 477 264.5 458.5Q261 440 258.5 422.5Q256 405 253 379H251Q249 405 247 422.5Q245 440 242 458.5Q239 477 235 491L180 700H3L169 191V0ZM395 832 155 730 107 833 339 951Z" glyph-name="Yacute" horiz-adv-x="504" unicode="&#221;" /><glyph d="M334 0V191L501 700H322L271 491Q268 477 264.5 458.5Q261 440 258.5 422.5Q256 405 253 379H251Q249 405 247 422.5Q245 440 242 458.5Q239 477 235 491L180 700H3L169 191V0ZM234 822Q234 806 228.5 793Q223 780 213 770.5Q203 761 189 756.5Q175 752 158 752Q142 752 128 756.5Q114 761 103.5 770.5Q93 780 87.5 793Q82 806 82 822Q82 839 87.5 852.5Q93 866 103.5 876Q114 886 128 891Q142 896 158 896Q175 896 189 891Q203 886 213 876Q223 866 228.5 852.5Q234 839 234 822ZM422 822Q422 806 416.5 793Q411 780 401 770.5Q391 761 377 756.5Q363 752 346 752Q330 752 316 756.5Q302 761 291.5 770.5Q281 780 275.5 793Q270 806 270 822Q270 839 275.5 852.5Q281 866 291.5 876Q302 886 316 891Q330 896 346 896Q363 896 377 891Q391 886 401 876Q411 866 416.5 852.5Q422 839 422 822Z" glyph-name="Ydieresis" horiz-adv-x="504" unicode="&#376;" /><glyph d="M426 0H5V2L181 430Q189 449 197.5 468Q206 487 213.5 502.5Q221 518 232 539V540H48V700H477V698L299 262Q290 241 281.5 222.5Q273 204 265.5 191Q258 178 248 162V160H426Z" glyph-name="Z" horiz-adv-x="456" unicode="Z" /><glyph d="M426 0H5V2L181 430Q189 449 197.5 468Q206 487 213.5 502.5Q221 518 232 539V540H48V700H477V698L299 262Q290 241 281.5 222.5Q273 204 265.5 191Q258 178 248 162V160H426ZM164 958 213 906Q224 894 234 883Q244 872 251 864Q258 856 266 846H270Q278 856 285 864Q292 872 302 883Q312 894 323 906L372 958L455 864L313 752H223L81 864Z" glyph-name="Zcaron" horiz-adv-x="456" unicode="&#381;" /><glyph d="M482 0H322Q318 11 315.5 18.5Q313 26 311 34.5Q309 43 307 53Q305 63 304 76H302Q294 57 282 40.5Q270 24 253.5 12Q237 0 215.5 -6.5Q194 -13 169 -13Q131 -13 101.5 1Q72 15 53 39Q34 63 25 92.5Q16 122 16 154Q16 199 34.5 236.5Q53 274 89.5 301.5Q126 329 179 343Q232 357 300 354V372Q300 388 296 402.5Q292 417 283 429.5Q274 442 261 449Q248 456 230 456Q213 456 198 450.5Q183 445 171.5 435.5Q160 426 151 414Q142 402 136 389L42 503Q66 528 91 546.5Q116 565 141.5 577Q167 589 193 594.5Q219 600 245 600Q291 600 331 585.5Q371 571 401.5 540.5Q432 510 449 461.5Q466 413 466 347V83Q466 72 466.5 62Q467 52 469 42Q471 32 474 21.5Q477 11 482 0ZM300 213V244Q277 245 254.5 241Q232 237 214 227Q196 217 185 201Q174 185 174 163Q174 152 177 143Q180 134 186 128Q192 122 200.5 119Q209 116 219 116Q236 116 250.5 123.5Q265 131 276.5 144Q288 157 294 175Q300 193 300 213Z" glyph-name="a" horiz-adv-x="517" unicode="a" /><glyph d="M319 192V367Q319 387 315 402.5Q311 418 303.5 428.5Q296 439 285 444.5Q274 450 260 450Q235 450 219.5 435Q204 420 197 397Q190 374 188.5 350Q187 326 187 296Q187 262 188.5 238Q190 214 197 192Q204 170 219 156.5Q234 143 260 143Q275 143 286 148Q297 153 304.5 160.5Q312 168 315.5 176.5Q319 185 319 192ZM494 0H352Q349 7 346.5 13.5Q344 20 342 27Q340 34 338.5 41.5Q337 49 336 57H334Q323 41 311.5 28Q300 15 285.5 5.5Q271 -4 253.5 -9Q236 -14 215 -14Q166 -14 129 9.5Q92 33 68 75.5Q44 118 32 175Q20 232 20 301Q20 368 34 423Q48 478 73.5 517.5Q99 557 134 578Q169 599 211 599Q233 599 252.5 593Q272 587 288 576Q304 565 316 550Q328 535 336 516H338Q339 528 341 540.5Q343 553 345 562.5Q347 572 351 586H497Q493 572 490.5 560.5Q488 549 486.5 532.5Q485 516 485 497V80Q485 59 485 54Q485 49 486 40.5Q487 32 488.5 22Q490 12 494 0Z" glyph-name="a.alt" horiz-adv-x="532" /><glyph d="M482 0H322Q318 11 315.5 18.5Q313 26 311 34.5Q309 43 307 53Q305 63 304 76H302Q294 57 282 40.5Q270 24 253.5 12Q237 0 215.5 -6.5Q194 -13 169 -13Q131 -13 101.5 1Q72 15 53 39Q34 63 25 92.5Q16 122 16 154Q16 199 34.5 236.5Q53 274 89.5 301.5Q126 329 179 343Q232 357 300 354V372Q300 388 296 402.5Q292 417 283 429.5Q274 442 261 449Q248 456 230 456Q213 456 198 450.5Q183 445 171.5 435.5Q160 426 151 414Q142 402 136 389L42 503Q66 528 91 546.5Q116 565 141.5 577Q167 589 193 594.5Q219 600 245 600Q291 600 331 585.5Q371 571 401.5 540.5Q432 510 449 461.5Q466 413 466 347V83Q466 72 466.5 62Q467 52 469 42Q471 32 474 21.5Q477 11 482 0ZM300 213V244Q277 245 254.5 241Q232 237 214 227Q196 217 185 201Q174 185 174 163Q174 152 177 143Q180 134 186 128Q192 122 200.5 119Q209 116 219 116Q236 116 250.5 123.5Q265 131 276.5 144Q288 157 294 175Q300 193 300 213ZM389 704 149 602 101 705 333 823Z" glyph-name="aacute" horiz-adv-x="517" unicode="&#225;" /><glyph d="M319 192V367Q319 387 315 402.5Q311 418 303.5 428.5Q296 439 285 444.5Q274 450 260 450Q235 450 219.5 435Q204 420 197 397Q190 374 188.5 350Q187 326 187 296Q187 262 188.5 238Q190 214 197 192Q204 170 219 156.5Q234 143 260 143Q275 143 286 148Q297 153 304.5 160.5Q312 168 315.5 176.5Q319 185 319 192ZM494 0H352Q349 7 346.5 13.5Q344 20 342 27Q340 34 338.5 41.5Q337 49 336 57H334Q323 41 311.5 28Q300 15 285.5 5.5Q271 -4 253.5 -9Q236 -14 215 -14Q166 -14 129 9.5Q92 33 68 75.5Q44 118 32 175Q20 232 20 301Q20 368 34 423Q48 478 73.5 517.5Q99 557 134 578Q169 599 211 599Q233 599 252.5 593Q272 587 288 576Q304 565 316 550Q328 535 336 516H338Q339 528 341 540.5Q343 553 345 562.5Q347 572 351 586H497Q493 572 490.5 560.5Q488 549 486.5 532.5Q485 516 485 497V80Q485 59 485 54Q485 49 486 40.5Q487 32 488.5 22Q490 12 494 0ZM399 719 159 617 111 720 343 838Z" glyph-name="aacute.alt" horiz-adv-x="532" /><glyph d="M482 0H322Q318 11 315.5 18.5Q313 26 311 34.5Q309 43 307 53Q305 63 304 76H302Q294 57 282 40.5Q270 24 253.5 12Q237 0 215.5 -6.5Q194 -13 169 -13Q131 -13 101.5 1Q72 15 53 39Q34 63 25 92.5Q16 122 16 154Q16 199 34.5 236.5Q53 274 89.5 301.5Q126 329 179 343Q232 357 300 354V372Q300 388 296 402.5Q292 417 283 429.5Q274 442 261 449Q248 456 230 456Q213 456 198 450.5Q183 445 171.5 435.5Q160 426 151 414Q142 402 136 389L42 503Q66 528 91 546.5Q116 565 141.5 577Q167 589 193 594.5Q219 600 245 600Q291 600 331 585.5Q371 571 401.5 540.5Q432 510 449 461.5Q466 413 466 347V83Q466 72 466.5 62Q467 52 469 42Q471 32 474 21.5Q477 11 482 0ZM300 213V244Q277 245 254.5 241Q232 237 214 227Q196 217 185 201Q174 185 174 163Q174 152 177 143Q180 134 186 128Q192 122 200.5 119Q209 116 219 116Q236 116 250.5 123.5Q265 131 276.5 144Q288 157 294 175Q300 193 300 213ZM361 616 312 668Q301 680 291 691Q281 702 274 710Q267 718 259 728H255Q247 718 240 710Q233 702 223 691Q213 680 202 668L153 616L70 710L212 822H302L444 710Z" glyph-name="acircumflex" horiz-adv-x="517" unicode="&#226;" /><glyph d="M319 192V367Q319 387 315 402.5Q311 418 303.5 428.5Q296 439 285 444.5Q274 450 260 450Q235 450 219.5 435Q204 420 197 397Q190 374 188.5 350Q187 326 187 296Q187 262 188.5 238Q190 214 197 192Q204 170 219 156.5Q234 143 260 143Q275 143 286 148Q297 153 304.5 160.5Q312 168 315.5 176.5Q319 185 319 192ZM494 0H352Q349 7 346.5 13.5Q344 20 342 27Q340 34 338.5 41.5Q337 49 336 57H334Q323 41 311.5 28Q300 15 285.5 5.5Q271 -4 253.5 -9Q236 -14 215 -14Q166 -14 129 9.5Q92 33 68 75.5Q44 118 32 175Q20 232 20 301Q20 368 34 423Q48 478 73.5 517.5Q99 557 134 578Q169 599 211 599Q233 599 252.5 593Q272 587 288 576Q304 565 316 550Q328 535 336 516H338Q339 528 341 540.5Q343 553 345 562.5Q347 572 351 586H497Q493 572 490.5 560.5Q488 549 486.5 532.5Q485 516 485 497V80Q485 59 485 54Q485 49 486 40.5Q487 32 488.5 22Q490 12 494 0ZM368 623 319 675Q308 687 298 698Q288 709 281 717Q274 725 266 735H262Q254 725 247 717Q240 709 230 698Q220 687 209 675L160 623L77 717L219 829H309L451 717Z" glyph-name="acircumflex.alt" horiz-adv-x="532" /><glyph d="M261 832 21 730 -27 833 205 951Z" glyph-name="acute" horiz-adv-x="238" unicode="&#180;" /><glyph d="M482 0H322Q318 11 315.5 18.5Q313 26 311 34.5Q309 43 307 53Q305 63 304 76H302Q294 57 282 40.5Q270 24 253.5 12Q237 0 215.5 -6.5Q194 -13 169 -13Q131 -13 101.5 1Q72 15 53 39Q34 63 25 92.5Q16 122 16 154Q16 199 34.5 236.5Q53 274 89.5 301.5Q126 329 179 343Q232 357 300 354V372Q300 388 296 402.5Q292 417 283 429.5Q274 442 261 449Q248 456 230 456Q213 456 198 450.5Q183 445 171.5 435.5Q160 426 151 414Q142 402 136 389L42 503Q66 528 91 546.5Q116 565 141.5 577Q167 589 193 594.5Q219 600 245 600Q291 600 331 585.5Q371 571 401.5 540.5Q432 510 449 461.5Q466 413 466 347V83Q466 72 466.5 62Q467 52 469 42Q471 32 474 21.5Q477 11 482 0ZM300 213V244Q277 245 254.5 241Q232 237 214 227Q196 217 185 201Q174 185 174 163Q174 152 177 143Q180 134 186 128Q192 122 200.5 119Q209 116 219 116Q236 116 250.5 123.5Q265 131 276.5 144Q288 157 294 175Q300 193 300 213ZM240 706Q240 690 234.5 677Q229 664 219 654.5Q209 645 195 640.5Q181 636 164 636Q148 636 134 640.5Q120 645 109.5 654.5Q99 664 93.5 677Q88 690 88 706Q88 723 93.5 736.5Q99 750 109.5 760Q120 770 134 775Q148 780 164 780Q181 780 195 775Q209 770 219 760Q229 750 234.5 736.5Q240 723 240 706ZM428 706Q428 690 422.5 677Q417 664 407 654.5Q397 645 383 640.5Q369 636 352 636Q336 636 322 640.5Q308 645 297.5 654.5Q287 664 281.5 677Q276 690 276 706Q276 723 281.5 736.5Q287 750 297.5 760Q308 770 322 775Q336 780 352 780Q369 780 383 775Q397 770 407 760Q417 750 422.5 736.5Q428 723 428 706Z" glyph-name="adieresis" horiz-adv-x="517" unicode="&#228;" /><glyph d="M319 192V367Q319 387 315 402.5Q311 418 303.5 428.5Q296 439 285 444.5Q274 450 260 450Q235 450 219.5 435Q204 420 197 397Q190 374 188.5 350Q187 326 187 296Q187 262 188.5 238Q190 214 197 192Q204 170 219 156.5Q234 143 260 143Q275 143 286 148Q297 153 304.5 160.5Q312 168 315.5 176.5Q319 185 319 192ZM494 0H352Q349 7 346.5 13.5Q344 20 342 27Q340 34 338.5 41.5Q337 49 336 57H334Q323 41 311.5 28Q300 15 285.5 5.5Q271 -4 253.5 -9Q236 -14 215 -14Q166 -14 129 9.5Q92 33 68 75.5Q44 118 32 175Q20 232 20 301Q20 368 34 423Q48 478 73.5 517.5Q99 557 134 578Q169 599 211 599Q233 599 252.5 593Q272 587 288 576Q304 565 316 550Q328 535 336 516H338Q339 528 341 540.5Q343 553 345 562.5Q347 572 351 586H497Q493 572 490.5 560.5Q488 549 486.5 532.5Q485 516 485 497V80Q485 59 485 54Q485 49 486 40.5Q487 32 488.5 22Q490 12 494 0ZM247 703Q247 687 241.5 674Q236 661 226 651.5Q216 642 202 637.5Q188 633 171 633Q155 633 141 637.5Q127 642 116.5 651.5Q106 661 100.5 674Q95 687 95 703Q95 720 100.5 733.5Q106 747 116.5 757Q127 767 141 772Q155 777 171 777Q188 777 202 772Q216 767 226 757Q236 747 241.5 733.5Q247 720 247 703ZM435 703Q435 687 429.5 674Q424 661 414 651.5Q404 642 390 637.5Q376 633 359 633Q343 633 329 637.5Q315 642 304.5 651.5Q294 661 288.5 674Q283 687 283 703Q283 720 288.5 733.5Q294 747 304.5 757Q315 767 329 772Q343 777 359 777Q376 777 390 772Q404 767 414 757Q424 747 429.5 733.5Q435 720 435 703Z" glyph-name="adieresis.alt" horiz-adv-x="532" /><glyph d="M291 215V244H281Q260 244 240.5 239.5Q221 235 205 225.5Q189 216 180 201.5Q171 187 171 169Q171 159 173.5 150.5Q176 142 181.5 135.5Q187 129 195.5 125Q204 121 215 121Q231 121 245 128.5Q259 136 269.5 149.5Q280 163 285.5 180Q291 197 291 215ZM748 234H460Q462 214 467.5 196Q473 178 483.5 164Q494 150 510 142Q526 134 548 134Q562 134 573.5 138Q585 142 595 149.5Q605 157 614.5 168.5Q624 180 635 197L747 93Q725 67 704.5 48.5Q684 30 661 17Q638 4 610.5 -3Q583 -10 550 -10Q517 -10 490.5 -3.5Q464 3 443 16Q422 29 405 47Q388 65 374 88H372Q354 64 333 45.5Q312 27 288 15Q264 3 237.5 -3.5Q211 -10 182 -10Q142 -10 111 2Q80 14 58.5 36.5Q37 59 26 90Q15 121 15 159Q15 203 30.5 239Q46 275 79.5 301Q113 327 166 341.5Q219 356 291 356V368Q291 385 288.5 399.5Q286 414 279 426Q272 438 260.5 445Q249 452 231 452Q213 452 197.5 445Q182 438 170.5 427Q159 416 151 403.5Q143 391 137 378L43 499Q69 525 93 543Q117 561 140 573Q163 585 186 590.5Q209 596 233 596Q257 596 278.5 590.5Q300 585 319 574Q338 563 354 546.5Q370 530 384 509H386Q399 529 415 544.5Q431 560 450.5 571.5Q470 583 494.5 589.5Q519 596 548 596Q615 596 656.5 563Q698 530 717.5 477Q737 424 742.5 365.5Q748 307 748 234ZM461 349H591Q591 370 587.5 390.5Q584 411 577 428Q570 445 557.5 455.5Q545 466 528 466Q512 466 499.5 456.5Q487 447 479 430.5Q471 414 466.5 393.5Q462 373 461 349Z" glyph-name="ae" horiz-adv-x="763" unicode="&#230;" /><glyph d="M482 0H322Q318 11 315.5 18.5Q313 26 311 34.5Q309 43 307 53Q305 63 304 76H302Q294 57 282 40.5Q270 24 253.5 12Q237 0 215.5 -6.5Q194 -13 169 -13Q131 -13 101.5 1Q72 15 53 39Q34 63 25 92.5Q16 122 16 154Q16 199 34.5 236.5Q53 274 89.5 301.5Q126 329 179 343Q232 357 300 354V372Q300 388 296 402.5Q292 417 283 429.5Q274 442 261 449Q248 456 230 456Q213 456 198 450.5Q183 445 171.5 435.5Q160 426 151 414Q142 402 136 389L42 503Q66 528 91 546.5Q116 565 141.5 577Q167 589 193 594.5Q219 600 245 600Q291 600 331 585.5Q371 571 401.5 540.5Q432 510 449 461.5Q466 413 466 347V83Q466 72 466.5 62Q467 52 469 42Q471 32 474 21.5Q477 11 482 0ZM300 213V244Q277 245 254.5 241Q232 237 214 227Q196 217 185 201Q174 185 174 163Q174 152 177 143Q180 134 186 128Q192 122 200.5 119Q209 116 219 116Q236 116 250.5 123.5Q265 131 276.5 144Q288 157 294 175Q300 193 300 213ZM356 598 116 700 172 819 404 701Z" glyph-name="agrave" horiz-adv-x="517" unicode="&#224;" /><glyph d="M319 192V367Q319 387 315 402.5Q311 418 303.5 428.5Q296 439 285 444.5Q274 450 260 450Q235 450 219.5 435Q204 420 197 397Q190 374 188.5 350Q187 326 187 296Q187 262 188.5 238Q190 214 197 192Q204 170 219 156.5Q234 143 260 143Q275 143 286 148Q297 153 304.5 160.5Q312 168 315.5 176.5Q319 185 319 192ZM494 0H352Q349 7 346.5 13.5Q344 20 342 27Q340 34 338.5 41.5Q337 49 336 57H334Q323 41 311.5 28Q300 15 285.5 5.5Q271 -4 253.5 -9Q236 -14 215 -14Q166 -14 129 9.5Q92 33 68 75.5Q44 118 32 175Q20 232 20 301Q20 368 34 423Q48 478 73.5 517.5Q99 557 134 578Q169 599 211 599Q233 599 252.5 593Q272 587 288 576Q304 565 316 550Q328 535 336 516H338Q339 528 341 540.5Q343 553 345 562.5Q347 572 351 586H497Q493 572 490.5 560.5Q488 549 486.5 532.5Q485 516 485 497V80Q485 59 485 54Q485 49 486 40.5Q487 32 488.5 22Q490 12 494 0ZM356 617 116 719 172 838 404 720Z" glyph-name="agrave.alt" horiz-adv-x="532" /><glyph d="M355 168 248 346Q234 341 222 332Q210 323 200 310Q190 297 184.5 279Q179 261 179 239Q179 214 186.5 195Q194 176 207.5 163.5Q221 151 238.5 145Q256 139 275 139Q286 139 297 141Q308 143 318 147Q328 151 337 156Q346 161 355 168ZM563 157 538 -2Q523 -2 508.5 3.5Q494 9 480 19Q466 29 454 43.5Q442 58 433 75H431Q415 54 397 38Q379 22 357 10.5Q335 -1 308 -7.5Q281 -14 248 -14Q191 -14 147.5 4.5Q104 23 75 54.5Q46 86 32 125Q18 164 18 205Q18 242 29 276Q40 310 59.5 338Q79 366 105.5 385Q132 404 161 411V413Q143 421 128.5 434.5Q114 448 104 465.5Q94 483 89 503Q84 523 84 544Q84 576 95.5 606Q107 636 130.5 660.5Q154 685 190.5 699.5Q227 714 274 714Q299 714 321 710Q343 706 361.5 698Q380 690 395 679.5Q410 669 423 656L318 531Q314 538 310.5 542.5Q307 547 302.5 551Q298 555 292 557.5Q286 560 278 560Q270 560 263.5 557Q257 554 252.5 549Q248 544 245.5 537.5Q243 531 243 523Q243 513 247.5 503.5Q252 494 260.5 485.5Q269 477 283 471.5Q297 466 315 465L426 274H428Q428 293 428.5 308.5Q429 324 428 344.5Q427 365 425 389.5Q423 414 419 442H567Q567 392 563 354.5Q559 317 551.5 288Q544 259 537.5 240Q531 221 511 170Q516 167 521.5 164.5Q527 162 533.5 160.5Q540 159 547.5 158Q555 157 563 157Z" glyph-name="ampersand" horiz-adv-x="599" unicode="&amp;" /><glyph d="M109 424 125 460Q127 459 128.5 458.5Q130 458 131.5 457.5Q133 457 135 456.5Q137 456 139 456Q146 456 151 458.5Q156 461 159 466Q162 471 163.5 477Q165 483 165 491V639H205V494Q205 475 200 460.5Q195 446 186.5 436.5Q178 427 166 422.5Q154 418 139 418Q135 418 131 418.5Q127 419 123.5 419.5Q120 420 116 421.5Q112 423 109 424ZM189 72H149V251H111V289H228V251H189ZM514 421H398V639H514V600H439V544H502V505H439V460H514ZM456 72H395V289H455Q472 289 485 285Q498 281 507 273.5Q516 266 520.5 255Q525 244 525 230Q525 223 523 216.5Q521 210 518 204Q515 198 510 193.5Q505 189 499 186V185Q506 182 511.5 178Q517 174 521.5 168Q526 162 528.5 154Q531 146 531 137Q531 123 527 111Q523 99 513.5 90.5Q504 82 490 77Q476 72 456 72ZM436 110H459Q469 110 475.5 112Q482 114 486 118Q490 122 491.5 127.5Q493 133 493 139Q493 145 491.5 149.5Q490 154 486 157.5Q482 161 475 163Q468 165 459 165H436ZM436 201H450Q459 201 466 203Q473 205 477 208.5Q481 212 482.5 217Q484 222 484 228Q484 234 482.5 238Q481 242 477 245Q473 248 466.5 249.5Q460 251 450 251H436ZM320 421H280V600H242V639H358V600H320ZM374 72H331L323 106H273L266 72H224L276 290H322ZM317 143 299 223V231L298 223L281 143ZM548 336H93V375H548ZM1257 201Q1252 199 1247 197.5Q1242 196 1237.5 196Q1233 196 1230 197Q1227 198 1227 200Q1227 200 1227 200.5Q1227 201 1227.5 201.5Q1228 202 1228.5 202.5Q1229 203 1230 204Q1266 236 1282 258.5Q1298 281 1309.5 315Q1321 349 1321 393Q1321 444 1309.5 493Q1298 542 1270 584Q1242 626 1192.5 651.5Q1143 677 1071 677Q1008 677 962 661.5Q916 646 887.5 621.5Q859 597 846 570Q833 543 833 520Q833 513 832.5 509Q832 505 831 502Q830 499 827 496.5Q824 494 820 493Q797 485 780.5 472Q764 459 753.5 443Q743 427 738.5 409Q734 391 734 372Q734 354 738 336Q742 318 749 302Q756 286 765.5 275Q775 264 785 258Q791 255 792 252.5Q793 250 790 249.5Q787 249 782 250.5Q777 252 771 256Q756 266 745 279Q734 292 727 307Q720 322 716.5 338Q713 354 713 370Q713 392 718.5 413Q724 434 734.5 453Q745 472 760 486.5Q775 501 794 509Q798 511 800 512Q802 513 803.5 514.5Q805 516 805.5 518Q806 520 806 524Q806 555 823 588Q840 621 873.5 649.5Q907 678 957 695Q1007 712 1071 712Q1138 712 1192.5 692.5Q1247 673 1286.5 633Q1326 593 1347 532.5Q1368 472 1368 393Q1368 348 1354.5 312.5Q1341 277 1321.5 254Q1302 231 1285 219Q1268 207 1257 201ZM1005 162 1000 185Q1000 186 999.5 187.5Q999 189 999.5 190Q1000 191 1000.5 192.5Q1001 194 1002 196Q1005 201 1006.5 205.5Q1008 210 1009 214.5Q1010 219 1010.5 223.5Q1011 228 1011 232Q1011 239 1006.5 243.5Q1002 248 996 248Q990 248 985.5 243.5Q981 239 980 231Q980 227 980 222Q980 217 980.5 211.5Q981 206 982 199.5Q983 193 984 185Q984 185 984 183Q984 181 984 180Q984 179 984 177Q984 175 983 174Q981 168 978.5 163.5Q976 159 973.5 154Q971 149 968.5 145Q966 141 963 136Q962 134 961.5 133.5Q961 133 960.5 133Q960 133 959.5 134Q959 135 959 137Q957 147 955.5 153Q954 159 952.5 166Q951 173 949.5 180.5Q948 188 946 195Q946 197 946 198.5Q946 200 946.5 201.5Q947 203 948 205Q950 209 951 212.5Q952 216 953 219.5Q954 223 954.5 226Q955 229 955 232Q955 244 949.5 250Q944 256 937 255Q930 254 924.5 247Q919 240 919 229Q919 225 920 221Q921 217 922.5 212Q924 207 924.5 205Q925 203 930 189Q931 188 931 187Q931 186 931 184.5Q931 183 931 182Q931 181 930 180Q928 177 926 174Q924 171 920 165Q916 159 913.5 155Q911 151 909 147Q907 144 906 142.5Q905 141 903.5 141Q902 141 901 142Q900 143 899 146Q897 154 895 158.5Q893 163 891 168.5Q889 174 887 179Q885 184 883 189Q882 191 882 192.5Q882 194 882 195.5Q882 197 882 198.5Q882 200 883 201Q884 205 885 209.5Q886 214 887 218Q888 222 888 226.5Q888 231 888 236Q888 247 883.5 252Q879 257 872.5 255Q866 253 861 245.5Q856 238 856 227Q856 222 856.5 216.5Q857 211 858.5 206Q860 201 862 196Q864 191 866 186Q867 185 867.5 183.5Q868 182 868 181Q868 180 867.5 179Q867 178 867 177L854 150Q853 149 852.5 148.5Q852 148 851.5 148Q851 148 850 148.5Q849 149 848 151Q845 156 842.5 161Q840 166 836.5 171Q833 176 830 180.5Q827 185 823 190Q821 192 820.5 193.5Q820 195 820 196.5Q820 198 820 199Q820 200 820 200Q820 203 820.5 206Q821 209 821 212Q821 215 821 217.5Q821 220 821 223Q820 234 814.5 239.5Q809 245 802.5 244.5Q796 244 792.5 238.5Q789 233 791 223Q792 218 793.5 213.5Q795 209 797 205Q799 201 802 195.5Q805 190 807 187Q808 184 808.5 182.5Q809 181 809 180Q809 179 808.5 178.5Q808 178 808 177Q804 155 801.5 141.5Q799 128 797.5 112.5Q796 97 796.5 82Q797 67 800 56Q805 39 816.5 26.5Q828 14 849.5 6Q871 -2 906.5 -6Q942 -10 994 -10Q1052 -10 1089 -2Q1126 6 1144.5 18.5Q1163 31 1169.5 44Q1176 57 1177 72Q1183 145 1188 177.5Q1193 210 1204 240.5Q1215 271 1232 290Q1235 294 1235 296.5Q1235 299 1232 300.5Q1229 302 1226 301.5Q1223 301 1220 299Q1206 289 1195 269.5Q1184 250 1175.5 222.5Q1167 195 1160.5 159.5Q1154 124 1149 79Q1147 62 1130.5 51.5Q1114 41 1088.5 36Q1063 31 1034.5 29.5Q1006 28 970 28Q935 28 908.5 29.5Q882 31 859.5 36Q837 41 823 51.5Q809 62 807 79Q806 90 806 101Q806 112 807.5 123Q809 134 810.5 144Q812 154 814 165Q814 166 814.5 167Q815 168 816 168Q817 168 817.5 167.5Q818 167 818 166Q820 161 822.5 156.5Q825 152 827 147Q829 142 831 136.5Q833 131 835 126Q835 125 835.5 124Q836 123 836 122.5Q836 122 835.5 121Q835 120 835 118Q835 116 834.5 113Q834 110 833.5 107.5Q833 105 833 102Q833 99 833 97Q833 92 834 87.5Q835 83 837 80Q839 77 841 75.5Q843 74 846 74Q850 74 852.5 75.5Q855 77 857 80Q859 83 860 87Q861 91 861 96Q861 100 861 103.5Q861 107 860 111Q859 115 858 119Q857 123 856 128Q855 130 855 132Q855 134 855 135.5Q855 137 855 139Q855 141 856 142Q862 154 863.5 156.5Q865 159 866.5 161Q868 163 869 165Q871 168 871.5 168.5Q872 169 872.5 168.5Q873 168 874 166Q877 158 879 154Q881 150 883 145Q885 140 886.5 134.5Q888 129 890 122Q890 121 890.5 119Q891 117 891 115Q891 113 890.5 111Q890 109 890 108Q889 104 888 100.5Q887 97 886.5 94.5Q886 92 886 89.5Q886 87 886 84Q886 79 887 75Q888 71 889.5 68.5Q891 66 893.5 65Q896 64 898 64Q902 64 905 65.5Q908 67 910 70Q912 73 913 78Q914 83 914 90Q914 92 913.5 95.5Q913 99 912.5 103Q912 107 910.5 111Q909 115 908 119Q907 121 907 122.5Q907 124 907.5 126Q908 128 909 129.5Q910 131 911 134L934 175Q936 169 938 162.5Q940 156 941.5 149Q943 142 941.5 149.5Q940 157 949 117Q949 114 949 112.5Q949 111 948 108.5Q947 106 946 103Q945 100 943.5 96.5Q942 93 941.5 90Q941 87 940.5 84.5Q940 82 940 80Q940 71 944 66.5Q948 62 953.5 62.5Q959 63 963 68Q967 73 967 83Q967 86 967 90Q967 94 966.5 98.5Q966 103 965 108.5Q964 114 963 119Q963 119 963 120Q963 121 963 122Q963 123 963.5 124.5Q964 126 965 128L984 162Q985 163 985.5 163.5Q986 164 986.5 164Q987 164 987.5 163.5Q988 163 988 161L993 137Q993 135 993 133.5Q993 132 993 131Q993 130 993 130Q993 130 992 127Q991 123 989.5 119Q988 115 987.5 111Q987 107 986.5 103.5Q986 100 986 97Q986 94 986.5 91Q987 88 988 86Q989 84 992 82.5Q995 81 999 81Q1003 81 1005.5 82.5Q1008 84 1010 87Q1012 90 1013 94.5Q1014 99 1014 106Q1014 109 1014 113Q1014 117 1013.5 121Q1013 125 1012.5 129.5Q1012 134 1011 139Q1011 141 1011 143Q1011 145 1011 147Q1011 149 1011.5 150.5Q1012 152 1013 153Q1015 157 1017.5 160Q1020 163 1023 166.5Q1026 170 1029.5 173Q1033 176 1037 179Q1039 181 1040.5 182.5Q1042 184 1041.5 185Q1041 186 1038.5 185Q1036 184 1033 181Q1030 179 1027 176.5Q1024 174 1021.5 171.5Q1019 169 1016 166Q1013 163 1011 160Q1010 158 1009 157.5Q1008 157 1007.5 157.5Q1007 158 1006 159Q1005 160 1005 162ZM1064 262Q1089 262 1107 271.5Q1125 281 1136.5 297Q1148 313 1153 332Q1158 351 1158 371Q1158 390 1151.5 407.5Q1145 425 1133 438Q1121 451 1103.5 458.5Q1086 466 1066 466Q1045 466 1026.5 459Q1008 452 994.5 439Q981 426 973 408Q965 390 965 370Q965 348 971 329Q977 310 989 294.5Q1001 279 1020 270.5Q1039 262 1064 262ZM852 269Q830 269 812 275.5Q794 282 781 294.5Q768 307 761 325.5Q754 344 754 368Q754 385 759.5 402.5Q765 420 777 434.5Q789 449 807.5 457.5Q826 466 850 466Q872 466 890 460.5Q908 455 921 443.5Q934 432 941 415Q948 398 948 376Q948 351 941 331Q934 311 921.5 297.5Q909 284 891 276.5Q873 269 852 269ZM772 134Q776 136 777.5 138.5Q779 141 779 143Q779 145 776.5 146.5Q774 148 771 148Q723 152 691.5 172Q660 192 642 223.5Q624 255 617 295Q610 335 610 383Q610 476 610 493Q610 510 607.5 540Q605 570 598 595.5Q591 621 578 642Q570 655 552 667.5Q534 680 506.5 690Q479 700 443 706Q407 712 365 712Q333 712 296 709.5Q259 707 224 702Q189 697 162.5 691.5Q136 686 125 680Q106 670 91 637.5Q76 605 65.5 552.5Q55 500 49.5 431.5Q44 363 44 283Q44 187 53 134.5Q62 82 81.5 57Q101 32 130.5 23Q160 14 224 4Q244 1 255 -0.5Q266 -2 279 -3.5Q292 -5 307.5 -5.5Q323 -6 343 -6Q363 -6 379.5 -5.5Q396 -5 410.5 -3.5Q425 -2 438.5 -0.5Q452 1 472 4Q505 9 522 12.5Q539 16 552.5 23.5Q566 31 575.5 45Q585 59 591 83Q594 93 597.5 99.5Q601 106 606 109.5Q611 113 618 114Q625 115 635 113Q651 111 667 110.5Q683 110 700.5 112Q718 114 736 119.5Q754 125 772 134ZM923 330V410H908L892 378H891L874 410H860V330H875V381H876L890 356H893L907 381H908V330ZM1042 324H1027L1018 353H1016L1007 324H992L1007 364L992 404H1007L1016 374H1018L1027 404H1042L1027 364ZM1134 324H1119V404H1134ZM843 330V410H828L812 378H811L794 410H780V330H795V381H796L810 356H813L827 381H828V330ZM1067 324H1052V404H1067ZM1100 324H1085V404H1100Z" glyph-name="apple" horiz-adv-x="1412" unicode="&#63743;" /><glyph d="M482 0H322Q318 11 315.5 18.5Q313 26 311 34.5Q309 43 307 53Q305 63 304 76H302Q294 57 282 40.5Q270 24 253.5 12Q237 0 215.5 -6.5Q194 -13 169 -13Q131 -13 101.5 1Q72 15 53 39Q34 63 25 92.5Q16 122 16 154Q16 199 34.5 236.5Q53 274 89.5 301.5Q126 329 179 343Q232 357 300 354V372Q300 388 296 402.5Q292 417 283 429.5Q274 442 261 449Q248 456 230 456Q213 456 198 450.5Q183 445 171.5 435.5Q160 426 151 414Q142 402 136 389L42 503Q66 528 91 546.5Q116 565 141.5 577Q167 589 193 594.5Q219 600 245 600Q291 600 331 585.5Q371 571 401.5 540.5Q432 510 449 461.5Q466 413 466 347V83Q466 72 466.5 62Q467 52 469 42Q471 32 474 21.5Q477 11 482 0ZM300 213V244Q277 245 254.5 241Q232 237 214 227Q196 217 185 201Q174 185 174 163Q174 152 177 143Q180 134 186 128Q192 122 200.5 119Q209 116 219 116Q236 116 250.5 123.5Q265 131 276.5 144Q288 157 294 175Q300 193 300 213ZM387 771Q387 742 377.5 719Q368 696 350.5 679.5Q333 663 309 654.5Q285 646 256 646Q227 646 203 654.5Q179 663 161 679.5Q143 696 133.5 719Q124 742 124 771Q124 798 133.5 821.5Q143 845 161 862Q179 879 203 888Q227 897 256 897Q284 897 308.5 888Q333 879 350.5 862Q368 845 377.5 821.5Q387 798 387 771ZM289 771Q289 778 286.5 784.5Q284 791 279.5 795Q275 799 269 801.5Q263 804 256 804Q249 804 242.5 801.5Q236 799 231.5 795Q227 791 224.5 784.5Q222 778 222 771Q222 764 224.5 757.5Q227 751 231.5 747Q236 743 242.5 740.5Q249 738 256 738Q263 738 269 740.5Q275 743 279.5 747Q284 751 286.5 757.5Q289 764 289 771Z" glyph-name="aring" horiz-adv-x="517" unicode="&#229;" /><glyph d="M319 192V367Q319 387 315 402.5Q311 418 303.5 428.5Q296 439 285 444.5Q274 450 260 450Q235 450 219.5 435Q204 420 197 397Q190 374 188.5 350Q187 326 187 296Q187 262 188.5 238Q190 214 197 192Q204 170 219 156.5Q234 143 260 143Q275 143 286 148Q297 153 304.5 160.5Q312 168 315.5 176.5Q319 185 319 192ZM494 0H352Q349 7 346.5 13.5Q344 20 342 27Q340 34 338.5 41.5Q337 49 336 57H334Q323 41 311.5 28Q300 15 285.5 5.5Q271 -4 253.5 -9Q236 -14 215 -14Q166 -14 129 9.5Q92 33 68 75.5Q44 118 32 175Q20 232 20 301Q20 368 34 423Q48 478 73.5 517.5Q99 557 134 578Q169 599 211 599Q233 599 252.5 593Q272 587 288 576Q304 565 316 550Q328 535 336 516H338Q339 528 341 540.5Q343 553 345 562.5Q347 572 351 586H497Q493 572 490.5 560.5Q488 549 486.5 532.5Q485 516 485 497V80Q485 59 485 54Q485 49 486 40.5Q487 32 488.5 22Q490 12 494 0ZM390 756Q390 727 380.5 704Q371 681 353.5 664.5Q336 648 312 639.5Q288 631 259 631Q230 631 206 639.5Q182 648 164 664.5Q146 681 136.5 704Q127 727 127 756Q127 783 136.5 806.5Q146 830 164 847Q182 864 206 873Q230 882 259 882Q287 882 311.5 873Q336 864 353.5 847Q371 830 380.5 806.5Q390 783 390 756ZM292 756Q292 763 289.5 769.5Q287 776 282.5 780Q278 784 272 786.5Q266 789 259 789Q252 789 245.5 786.5Q239 784 234.5 780Q230 776 227.5 769.5Q225 763 225 756Q225 749 227.5 742.5Q230 736 234.5 732Q239 728 245.5 725.5Q252 723 259 723Q266 723 272 725.5Q278 728 282.5 732Q287 736 289.5 742.5Q292 749 292 756Z" glyph-name="aring.alt" horiz-adv-x="532" /><glyph d="M293 731 244 783Q233 795 223 806Q213 817 206 825Q199 833 191 843H187Q179 833 172 825Q165 817 155 806Q145 795 134 783L85 731L2 825L144 937H234L376 825Z" glyph-name="asciicircum" horiz-adv-x="377" unicode="^" /><glyph d="M259 450H350Q350 420 344.5 396.5Q339 373 327 356.5Q315 340 295 331Q275 322 246 322Q230 322 215 325Q200 328 178 335.5Q156 343 151.5 344.5Q147 346 140 346Q136 346 133.5 344.5Q131 343 129 340.5Q127 338 126.5 335.5Q126 333 126 331H35Q35 361 40 384.5Q45 408 56.5 425Q68 442 88 451Q108 460 138 460Q155 460 170 456.5Q185 453 207.5 445.5Q230 438 234 436.5Q238 435 245 435Q249 435 251.5 436.5Q254 438 255.5 440.5Q257 443 258 445.5Q259 448 259 450Z" glyph-name="asciitilde" horiz-adv-x="385" unicode="~" /><glyph d="M366 422 245 336Q236 353 229 373.5Q222 394 217 415.5Q212 437 208.5 455Q205 473 202 494H200Q186 415 188 425.5Q190 436 185 415Q180 394 173.5 373Q167 352 158 336L35 422Q47 436 63 448.5Q79 461 97 472Q115 483 133.5 492Q152 501 170 508L169 510Q145 507 127 505.5Q109 504 90 503Q71 502 50.5 502.5Q30 503 10 506L55 647Q71 640 88 628Q105 616 121 602.5Q137 589 150.5 576Q164 563 179 547L181 549Q171 569 163.5 584.5Q156 600 148 619.5Q140 639 133.5 660Q127 681 125 700H275Q273 681 266.5 660.5Q260 640 252 620Q244 600 235.5 582.5Q227 565 218 549L220 547Q237 564 249.5 576Q262 588 278 601.5Q294 615 312 627.5Q330 640 347 647L393 506Q375 502 354.5 501Q334 500 313 501.5Q292 503 275 505Q258 507 233 510L232 508Q359 444 321.5 463Q284 482 302 471.5Q320 461 337 448.5Q354 436 366 422Z" glyph-name="asterisk" horiz-adv-x="403" unicode="*" /><glyph d="M515 111 566 9Q547 -6 524.5 -16.5Q502 -27 477.5 -34Q453 -41 427 -44.5Q401 -48 373 -48Q293 -48 228.5 -19Q164 10 119.5 63.5Q75 117 51.5 190Q28 263 28 350Q28 437 52 510.5Q76 584 122.5 637Q169 690 234.5 719Q300 748 381 748Q461 748 523 720Q585 692 627 641.5Q669 591 690 523Q711 455 711 376Q711 326 700.5 287.5Q690 249 669 223Q648 197 618 183.5Q588 170 549 170Q527 170 508.5 175Q490 180 475.5 190.5Q461 201 450 215.5Q439 230 433 248H431Q427 232 417.5 217.5Q408 203 394.5 192.5Q381 182 364.5 176Q348 170 330 170Q304 170 281 180.5Q258 191 241 213Q224 235 214 268Q204 301 204 344Q204 385 213 419.5Q222 454 239.5 478.5Q257 503 281.5 516.5Q306 530 336 530Q354 530 368 526.5Q382 523 392 516.5Q402 510 409 502Q416 494 420 484H422Q423 492 425 498.5Q427 505 428.5 509.5Q430 514 433 519H534Q532 509 531 501Q530 493 529.5 482.5Q529 472 529 461V333Q529 323 531.5 316.5Q534 310 538.5 306Q543 302 548 300.5Q553 299 558 299Q565 299 571 302.5Q577 306 581.5 313Q586 320 588.5 330Q591 340 591 352Q591 420 576 473Q561 526 533 562.5Q505 599 466.5 617.5Q428 636 381 636Q329 636 287 616Q245 596 215 558.5Q185 521 169.5 468Q154 415 154 350Q154 278 173 224Q192 170 224.5 135Q257 100 296 83.5Q335 67 376 67Q393 67 410.5 69Q428 71 446 76.5Q464 82 481.5 90.5Q499 99 515 111ZM373 295Q381 295 388 300.5Q395 306 400.5 315Q406 324 408.5 336Q411 348 411 361Q411 375 408 384.5Q405 394 400 399Q395 404 390 406Q385 408 379 408Q371 408 364 404Q357 400 352.5 392Q348 384 345.5 373Q343 362 343 349Q343 337 345 327Q347 317 351 310Q355 303 360.5 299Q366 295 373 295Z" glyph-name="at" horiz-adv-x="739" unicode="@" /><glyph d="M482 0H322Q318 11 315.5 18.5Q313 26 311 34.5Q309 43 307 53Q305 63 304 76H302Q294 57 282 40.5Q270 24 253.5 12Q237 0 215.5 -6.5Q194 -13 169 -13Q131 -13 101.5 1Q72 15 53 39Q34 63 25 92.5Q16 122 16 154Q16 199 34.5 236.5Q53 274 89.5 301.5Q126 329 179 343Q232 357 300 354V372Q300 388 296 402.5Q292 417 283 429.5Q274 442 261 449Q248 456 230 456Q213 456 198 450.5Q183 445 171.5 435.5Q160 426 151 414Q142 402 136 389L42 503Q66 528 91 546.5Q116 565 141.5 577Q167 589 193 594.5Q219 600 245 600Q291 600 331 585.5Q371 571 401.5 540.5Q432 510 449 461.5Q466 413 466 347V83Q466 72 466.5 62Q467 52 469 42Q471 32 474 21.5Q477 11 482 0ZM300 213V244Q277 245 254.5 241Q232 237 214 227Q196 217 185 201Q174 185 174 163Q174 152 177 143Q180 134 186 128Q192 122 200.5 119Q209 116 219 116Q236 116 250.5 123.5Q265 131 276.5 144Q288 157 294 175Q300 193 300 213ZM323 778H414Q414 748 408.5 724.5Q403 701 391 684.5Q379 668 359 659Q339 650 310 650Q294 650 279 653Q264 656 242 663.5Q220 671 215.5 672.5Q211 674 204 674Q200 674 197.5 672.5Q195 671 193 668.5Q191 666 190.5 663.5Q190 661 190 659H99Q99 689 104 712.5Q109 736 120.5 753Q132 770 152 779Q172 788 202 788Q219 788 234 784.5Q249 781 271.5 773.5Q294 766 298 764.5Q302 763 309 763Q313 763 315.5 764.5Q318 766 319.5 768.5Q321 771 322 773.5Q323 776 323 778Z" glyph-name="atilde" horiz-adv-x="517" unicode="&#227;" /><glyph d="M319 192V367Q319 387 315 402.5Q311 418 303.5 428.5Q296 439 285 444.5Q274 450 260 450Q235 450 219.5 435Q204 420 197 397Q190 374 188.5 350Q187 326 187 296Q187 262 188.5 238Q190 214 197 192Q204 170 219 156.5Q234 143 260 143Q275 143 286 148Q297 153 304.5 160.5Q312 168 315.5 176.5Q319 185 319 192ZM494 0H352Q349 7 346.5 13.5Q344 20 342 27Q340 34 338.5 41.5Q337 49 336 57H334Q323 41 311.5 28Q300 15 285.5 5.5Q271 -4 253.5 -9Q236 -14 215 -14Q166 -14 129 9.5Q92 33 68 75.5Q44 118 32 175Q20 232 20 301Q20 368 34 423Q48 478 73.5 517.5Q99 557 134 578Q169 599 211 599Q233 599 252.5 593Q272 587 288 576Q304 565 316 550Q328 535 336 516H338Q339 528 341 540.5Q343 553 345 562.5Q347 572 351 586H497Q493 572 490.5 560.5Q488 549 486.5 532.5Q485 516 485 497V80Q485 59 485 54Q485 49 486 40.5Q487 32 488.5 22Q490 12 494 0ZM328 780H419Q419 750 413.5 726.5Q408 703 396 686.5Q384 670 364 661Q344 652 315 652Q299 652 284 655Q269 658 247 665.5Q225 673 220.5 674.5Q216 676 209 676Q205 676 202.5 674.5Q200 673 198 670.5Q196 668 195.5 665.5Q195 663 195 661H104Q104 691 109 714.5Q114 738 125.5 755Q137 772 157 781Q177 790 207 790Q224 790 239 786.5Q254 783 276.5 775.5Q299 768 303 766.5Q307 765 314 765Q318 765 320.5 766.5Q323 768 324.5 770.5Q326 773 327 775.5Q328 778 328 780Z" glyph-name="atilde.alt" horiz-adv-x="532" /><glyph d="M172 0H35Q38 13 39 24.5Q40 36 40 46Q40 56 39.5 67.5Q39 79 39 83V730H205V619Q205 611 205 601Q205 591 204.5 581.5Q204 572 204 558H206Q216 568 229.5 576Q243 584 258 589.5Q273 595 288 597.5Q303 600 317 600Q363 600 398 578.5Q433 557 457 517Q481 477 492.5 422.5Q504 368 504 302Q504 234 491.5 176Q479 118 454.5 75.5Q430 33 393.5 9.5Q357 -14 310 -14Q288 -14 269 -8Q250 -2 234.5 8Q219 18 208 30.5Q197 43 189 57H187Q186 50 184.5 42.5Q183 35 181 28Q179 21 176.5 14Q174 7 172 0ZM205 368V215Q205 203 207.5 191Q210 179 216 167.5Q222 156 234 149Q246 142 263 142Q289 142 304.5 156.5Q320 171 327 194Q334 217 335.5 241.5Q337 266 337 299Q337 332 335.5 355.5Q334 379 327 401.5Q320 424 305.5 438Q291 452 266 452Q250 452 238.5 446.5Q227 441 219.5 430Q212 419 208.5 403.5Q205 388 205 368Z" glyph-name="b" horiz-adv-x="524" unicode="b" /><glyph d="M201 -60 46 760H209L363 -60Z" glyph-name="backslash" horiz-adv-x="383" unicode="\" /><glyph d="M242 800V-100H62V800Z" glyph-name="bar" horiz-adv-x="304" unicode="|" /><glyph d="M226 -33V-171Q185 -173 150 -167Q115 -161 86.5 -143.5Q58 -126 41.5 -93Q25 -60 25 -11Q25 22 31.5 52Q38 82 51 121.5Q64 161 69.5 183Q75 205 75 228Q75 241 72.5 250.5Q70 260 64.5 266Q59 272 49.5 275Q40 278 27 278V426Q40 426 49.5 429Q59 432 64.5 438Q70 444 72.5 453.5Q75 463 75 476Q75 499 69.5 521Q64 543 51 582.5Q38 622 31.5 652Q25 682 25 715Q25 764 41.5 797Q58 830 86.5 847.5Q115 865 150 871Q185 877 226 875V737Q214 738 205.5 736Q197 734 192 729.5Q187 725 184.5 717.5Q182 710 182 699Q182 685 184.5 669Q187 653 195 608Q203 563 206.5 532.5Q210 502 210 474Q210 444 205 422.5Q200 401 191 386.5Q182 372 168.5 364Q155 356 137 353V351V353V351V353V351V353V351Q155 348 168.5 340Q182 332 191 317.5Q200 303 205 281.5Q210 260 210 230Q210 202 206.5 171.5Q203 141 195 96Q187 51 184.5 35Q182 19 182 5Q182 -6 184.5 -13.5Q187 -21 192 -25.5Q197 -30 205.5 -32Q214 -34 226 -33Z" glyph-name="braceleft" horiz-adv-x="269" unicode="{" /><glyph d="M43 -171V-33Q55 -34 63.5 -32Q72 -30 77 -25.5Q82 -21 84.5 -13.5Q87 -6 87 5Q87 19 84.5 35Q82 51 74 96Q66 141 62.5 171.5Q59 202 59 230Q59 260 64 281.5Q69 303 78 317.5Q87 332 100.5 340Q114 348 132 351V353V351V353V351V353V351V353Q114 356 100.5 364Q87 372 78 386.5Q69 401 64 422.5Q59 444 59 474Q59 502 62.5 532.5Q66 563 74 608Q82 653 84.5 669Q87 685 87 699Q87 710 84.5 717.5Q82 725 77 729.5Q72 734 63.5 736Q55 738 43 737V875Q84 877 119 871Q154 865 182.5 847.5Q211 830 227.5 797Q244 764 244 715Q244 682 237.5 652Q231 622 218 582.5Q205 543 199.5 521Q194 499 194 476Q194 463 196.5 453.5Q199 444 204.5 438Q210 432 219.5 429Q229 426 242 426V278Q229 278 219.5 275Q210 272 204.5 266Q199 260 196.5 250.5Q194 241 194 228Q194 205 199.5 183Q205 161 218 121.5Q231 82 237.5 52Q244 22 244 -11Q244 -60 227.5 -93Q211 -126 182.5 -143.5Q154 -161 119 -167Q84 -173 43 -171Z" glyph-name="braceright" horiz-adv-x="269" unicode="}" /><glyph d="M258 -162H30V872H258V747H175V-37H258Z" glyph-name="bracketleft" horiz-adv-x="273" unicode="[" /><glyph d="M15 872H243V-162H15V-37H98V747H15Z" glyph-name="bracketright" horiz-adv-x="263" unicode="]" /><glyph d="M204 910 339 919Q340 910 340 908Q340 906 340.5 902.5Q341 899 341 895.5Q341 892 341 889Q341 854 330.5 826.5Q320 799 298.5 780Q277 761 244.5 751Q212 741 169 741Q126 741 93.5 751Q61 761 39.5 779.5Q18 798 7 825Q-4 852 -4 887Q-4 890 -4 894Q-4 898 -3.5 901.5Q-3 905 -3 907Q-3 909 -2 919L133 910Q132 906 131 903Q130 900 129.5 896.5Q129 893 129 890.5Q129 888 129 885Q129 875 131.5 867.5Q134 860 139 855Q144 850 151.5 847.5Q159 845 169 845Q178 845 185.5 847.5Q193 850 198 855Q203 860 205.5 867.5Q208 875 208 885Q208 887 207.5 890Q207 893 206.5 896Q206 899 205 904Q204 909 204 910Z" glyph-name="breve" horiz-adv-x="338" unicode="&#728;" /><glyph d="M214 799V399H50V799ZM214 312V-101H50V312Z" glyph-name="brokenbar" horiz-adv-x="264" unicode="&#166;" /><glyph d="M181 212Q147 212 116 225.5Q85 239 61 263Q37 287 23.5 318Q10 349 10 383Q10 417 23.5 448Q37 479 61 502.5Q85 526 116 539.5Q147 553 181 553Q215 553 246 540Q277 527 300 503Q323 479 336 448Q349 417 349 383Q349 349 336 318Q323 287 300 263Q277 239 246 225.5Q215 212 181 212Z" glyph-name="bullet" horiz-adv-x="359" unicode="&#8226;" /><glyph d="M332 197 461 99Q446 73 425.5 52Q405 31 379.5 16.5Q354 2 323 -6Q292 -14 257 -14Q200 -14 155.5 7Q111 28 81 67.5Q51 107 35.5 163Q20 219 20 289Q20 358 36 415.5Q52 473 83 514Q114 555 158 577.5Q202 600 257 600Q292 600 322 593Q352 586 376 572.5Q400 559 420 539.5Q440 520 456 494L328 386Q325 400 320 410.5Q315 421 307 428.5Q299 436 288.5 440Q278 444 265 444Q245 444 231 435Q217 426 207.5 407Q198 388 193.5 359Q189 330 189 289Q189 251 193.5 223Q198 195 207.5 176Q217 157 231 148Q245 139 265 139Q279 139 290 144Q301 149 308.5 157Q316 165 321.5 175Q327 185 332 197Z" glyph-name="c" horiz-adv-x="470" unicode="c" /><glyph d="M74 958 123 906Q134 894 144 883Q154 872 161 864Q168 856 176 846H180Q188 856 195 864Q202 872 212 883Q222 894 233 906L282 958L365 864L223 752H133L-9 864Z" glyph-name="caron" horiz-adv-x="349" unicode="&#711;" /><glyph d="M138 -250 209 -185Q213 -189 217 -192.5Q221 -196 225.5 -198.5Q230 -201 235 -202Q240 -203 245 -203Q254 -203 261.5 -200.5Q269 -198 274 -193Q279 -188 281.5 -181.5Q284 -175 284 -167Q284 -159 281.5 -152Q279 -145 274 -140Q269 -135 262 -132Q255 -129 246 -129Q241 -129 236 -130Q231 -131 226 -133.5Q221 -136 216.5 -139.5Q212 -143 207 -149L133 -112L160 4Q126 19 99.5 45Q73 71 55.5 107.5Q38 144 29 189.5Q20 235 20 289Q20 358 36 415.5Q52 473 83 514Q114 555 158 577.5Q202 600 257 600Q292 600 322 593Q352 586 376 572.5Q400 559 420 539.5Q440 520 456 494L328 386Q325 400 320 410.5Q315 421 307 428.5Q299 436 288.5 440Q278 444 265 444Q245 444 231 435Q217 426 207.5 407Q198 388 193.5 359Q189 330 189 289Q189 251 193.5 223Q198 195 207.5 176Q217 157 231 148Q245 139 265 139Q279 139 290 144Q301 149 308.5 157Q316 165 321.5 175Q327 185 332 197L461 99Q446 73 425.5 52Q405 31 379.5 16.5Q354 2 323 -6Q292 -14 257 -14Q255 -14 252.5 -14Q250 -14 246.5 -13.5Q243 -13 240.5 -13Q238 -13 236 -13L227 -53L229 -54Q233 -53 237 -52Q241 -51 245.5 -50Q250 -49 255 -48.5Q260 -48 266 -48Q296 -48 318.5 -58Q341 -68 355 -85Q369 -102 375.5 -124.5Q382 -147 382 -172Q382 -200 372.5 -223.5Q363 -247 345 -263.5Q327 -280 302.5 -289Q278 -298 249 -298Q230 -298 213.5 -294.5Q197 -291 183.5 -284.5Q170 -278 158.5 -269.5Q147 -261 138 -250Z" glyph-name="ccedilla" horiz-adv-x="470" unicode="&#231;" /><glyph d="M45 -250 116 -185Q120 -189 124 -192.5Q128 -196 132.5 -198.5Q137 -201 142 -202Q147 -203 152 -203Q161 -203 168.5 -200.5Q176 -198 181 -193Q186 -188 188.5 -181.5Q191 -175 191 -167Q191 -159 188.5 -152Q186 -145 181 -140Q176 -135 169 -132Q162 -129 153 -129Q148 -129 143 -130Q138 -131 133 -133.5Q128 -136 123.5 -139.5Q119 -143 114 -149L40 -112L72 27L153 29L134 -53L136 -54Q140 -53 144 -52Q148 -51 152.5 -50Q157 -49 162 -48.5Q167 -48 173 -48Q203 -48 225.5 -58Q248 -68 262 -85Q276 -102 282.5 -124.5Q289 -147 289 -172Q289 -200 279.5 -223.5Q270 -247 252 -263.5Q234 -280 209.5 -289Q185 -298 156 -298Q137 -298 120.5 -294.5Q104 -291 90.5 -284.5Q77 -278 65.5 -269.5Q54 -261 45 -250Z" glyph-name="cedilla" horiz-adv-x="266" unicode="&#184;" /><glyph d="M318 331 411 208Q393 193 377.5 182.5Q362 172 343.5 164Q325 156 302.5 151.5Q280 147 254 147Q247 147 240.5 147Q234 147 227.5 147.5Q221 148 215.5 149Q210 150 204 151L176 61H137L168 161Q137 172 112.5 191Q88 210 71.5 235.5Q55 261 46 292Q37 323 37 357Q37 399 50.5 437Q64 475 90.5 504.5Q117 534 158 550.5Q199 567 252 567Q258 567 263.5 567Q269 567 274 566.5Q279 566 284 565.5Q289 565 294 564L326 666H366L331 556Q344 552 355.5 547Q367 542 374.5 537.5Q382 533 391 527L309 400Q303 405 298 409Q293 413 287 415.5Q281 418 273.5 419.5Q266 421 258 421Q244 421 233 416.5Q222 412 214 403.5Q206 395 201.5 384Q197 373 197 360Q197 346 201.5 335Q206 324 214.5 316.5Q223 309 234.5 305Q246 301 260 301Q269 301 277 302.5Q285 304 292 308Q299 312 305 317.5Q311 323 318 331Z" glyph-name="cent" horiz-adv-x="440" unicode="&#162;" /><glyph d="M285 731 236 783Q225 795 215 806Q205 817 198 825Q191 833 183 843H179Q171 833 164 825Q157 817 147 806Q137 795 126 783L77 731L-6 825L136 937H226L368 825Z" glyph-name="circumflex" horiz-adv-x="362" unicode="&#710;" /><glyph d="M138 -14Q118 -14 100 -6Q82 2 68 16Q54 30 46 48Q38 66 38 86Q38 106 46 124Q54 142 68 156Q82 170 100 177.5Q118 185 138 185Q158 185 176 177.5Q194 170 207.5 156Q221 142 228.5 124Q236 106 236 86Q236 66 228.5 48Q221 30 207.5 16Q194 2 176 -6Q158 -14 138 -14ZM138 313Q118 313 100 321Q82 329 68 343Q54 357 46 375Q38 393 38 413Q38 433 46 451Q54 469 68 483Q82 497 100 504.5Q118 512 138 512Q158 512 176 504.5Q194 497 207.5 483Q221 469 228.5 451Q236 433 236 413Q236 393 228.5 375Q221 357 207.5 343Q194 329 176 321Q158 313 138 313Z" glyph-name="colon" horiz-adv-x="264" unicode=":" /><glyph d="M31 -135 40 -72Q47 -73 47.5 -73Q48 -73 50.5 -73.5Q53 -74 55.5 -74Q58 -74 61 -74Q76 -74 89.5 -69.5Q103 -65 113.5 -55.5Q124 -46 130.5 -32Q137 -18 138 -1L136 0Q134 -1 130.5 -2Q127 -3 123 -3.5Q119 -4 115.5 -4Q112 -4 109 -4Q93 -4 77.5 2.5Q62 9 50 21.5Q38 34 31 51Q24 68 24 89Q24 110 31 128Q38 146 51 160Q64 174 82.5 181.5Q101 189 123 189Q145 189 164 181Q183 173 197 156Q211 139 218.5 114.5Q226 90 226 57Q226 15 213.5 -20.5Q201 -56 177.5 -82.5Q154 -109 123.5 -123.5Q93 -138 57 -138Q50 -137 45.5 -136.5Q41 -136 37 -135.5Q33 -135 31 -135Z" glyph-name="comma" horiz-adv-x="246" unicode="," /><glyph d="M745 350Q745 274 717.5 208Q690 142 641 93Q592 44 525.5 17Q459 -10 384 -10Q308 -10 242 17Q176 44 126.5 93Q77 142 49.5 208Q22 274 22 350Q22 425 49.5 491Q77 557 126.5 606.5Q176 656 242 683Q308 710 384 710Q459 710 525.5 683Q592 656 641 606.5Q690 557 717.5 491Q745 425 745 350ZM384 81Q440 81 488 101Q536 121 571 158Q606 195 625.5 244Q645 293 645 350Q645 406 625.5 455.5Q606 505 571 541.5Q536 578 488 598.5Q440 619 384 619Q327 619 278.5 598.5Q230 578 194 541.5Q158 505 138.5 455.5Q119 406 119 350Q119 293 138.5 244Q158 195 194 158Q230 121 278.5 101Q327 81 384 81ZM503 253 407 309Q404 302 401.5 297Q399 292 396 289Q393 286 389.5 284.5Q386 283 382 283Q376 283 371.5 287Q367 291 364 299.5Q361 308 359.5 321.5Q358 335 358 354Q358 375 360 389.5Q362 404 365.5 413Q369 422 373.5 426Q378 430 383 430Q387 430 390 428.5Q393 427 395.5 423.5Q398 420 400.5 415.5Q403 411 405 405L500 458Q492 475 482 489.5Q472 504 458 515Q444 526 425 532Q406 538 383 538Q345 538 317.5 522.5Q290 507 273.5 480.5Q257 454 249 422Q241 390 241 356Q241 322 248.5 290Q256 258 273 231.5Q290 205 318 189Q346 173 384 173Q408 173 427 179Q446 185 460.5 196Q475 207 485.5 221.5Q496 236 503 253Z" glyph-name="copyright" horiz-adv-x="767" unicode="&#169;" /><glyph d="M363 211 497 138Q482 103 465 76Q448 49 424 28.5Q400 8 367 -3Q334 -14 291 -14Q225 -14 180.5 11Q136 36 110.5 79.5Q85 123 73 176.5Q61 230 59 293H10V327H58V342V373H10V407H60Q64 471 76.5 525Q89 579 115.5 621.5Q142 664 186.5 689Q231 714 295 714Q339 714 373 702Q407 690 432 668.5Q457 647 474.5 618Q492 589 505 552L366 487Q360 507 353 521.5Q346 536 338 545Q330 554 320.5 558Q311 562 298 562Q280 562 267.5 553.5Q255 545 246.5 527Q238 509 232.5 479.5Q227 450 225 407H347V373H224V343V327H347V293H225Q227 252 231 223Q235 194 243.5 175Q252 156 264.5 147Q277 138 295 138Q306 138 315.5 141.5Q325 145 333.5 153.5Q342 162 349 176Q356 190 363 211Z" glyph-name="currency" horiz-adv-x="521" unicode="&#164;" /><glyph d="M494 0H352Q349 7 346.5 13.5Q344 20 342 27Q340 34 338.5 41.5Q337 49 336 57H334Q323 41 311.5 28Q300 15 285.5 5.5Q271 -4 253.5 -9.5Q236 -15 215 -15Q166 -15 128.5 8Q91 31 67 73Q43 115 31.5 171.5Q20 228 20 296Q20 363 34 418.5Q48 474 74.5 515Q101 556 139 578Q177 600 224 600Q242 600 255.5 597.5Q269 595 280 590Q291 585 300 578.5Q309 572 318 562H320Q320 576 319.5 585.5Q319 595 319 605Q319 615 319 623V730H485V80Q484 60 484.5 49Q485 38 487.5 25Q490 12 494 0ZM319 192V371Q319 391 315 406.5Q311 422 303.5 432.5Q296 443 285 448.5Q274 454 260 454Q235 454 219.5 438.5Q204 423 197 399Q190 375 188.5 351Q187 327 187 296Q187 262 188.5 238Q190 214 197 192Q204 170 219 156.5Q234 143 260 143Q275 143 286 148Q297 153 304.5 160.5Q312 168 315.5 176.5Q319 185 319 192Z" glyph-name="d" horiz-adv-x="529" unicode="d" /><glyph d="M332 384V-100H165V418Q156 418 148.5 415Q141 412 134.5 407Q128 402 124 394.5Q120 387 118 378H12Q13 416 20 444Q27 472 41 491Q55 510 76.5 519Q98 528 128 528Q132 528 137 528Q142 528 146.5 527.5Q151 527 155.5 526.5Q160 526 165 525V800H332V491Q341 491 348.5 494Q356 497 362.5 502Q369 507 373 514.5Q377 522 379 531H485Q484 493 477 465Q470 437 455.5 418Q441 399 419.5 390Q398 381 368 381Q364 381 359.5 381Q355 381 350.5 381.5Q346 382 341.5 382.5Q337 383 332 384Z" glyph-name="dagger" horiz-adv-x="497" unicode="&#8224;" /><glyph d="M332 274V-100H165V308Q156 308 148.5 305Q141 302 134.5 297Q128 292 124 284.5Q120 277 118 268H12Q13 306 20 334Q27 362 41 381Q55 400 76.5 409Q98 418 128 418Q132 418 137 418Q142 418 146.5 417.5Q151 417 155.5 416.5Q160 416 165 415V508Q156 508 148.5 505Q141 502 134.5 497Q128 492 124 484.5Q120 477 118 468H12Q13 506 20 534Q27 562 41 581Q55 600 76.5 609Q98 618 128 618Q132 618 137 618Q142 618 146.5 617.5Q151 617 155.5 616.5Q160 616 165 615V800H332V581Q341 581 348.5 584Q356 587 362.5 592Q369 597 373 604.5Q377 612 379 621H485Q484 583 477 555Q470 527 455.5 508Q441 489 419.5 480Q398 471 368 471Q364 471 359.5 471Q355 471 350.5 471.5Q346 472 341.5 472.5Q337 473 332 474V381Q341 381 348.5 384Q356 387 362.5 392Q369 397 373 404.5Q377 412 379 421H485Q484 383 477 355Q470 327 455.5 308Q441 289 419.5 280Q398 271 368 271Q364 271 359.5 271Q355 271 350.5 271.5Q346 272 341.5 272.5Q337 273 332 274Z" glyph-name="daggerdbl" horiz-adv-x="497" unicode="&#8225;" /><glyph d="M292 589Q292 559 282 534.5Q272 510 253 492.5Q234 475 208 466Q182 457 151 457Q120 457 94 466Q68 475 49 492.5Q30 510 20 534.5Q10 559 10 589Q10 619 20 644Q30 669 49 687Q68 705 94 714.5Q120 724 151 724Q182 724 208 714.5Q234 705 253 687Q272 669 282 644Q292 619 292 589ZM194 589Q194 599 190.5 606.5Q187 614 181.5 619Q176 624 168 627Q160 630 151 630Q142 630 134 627Q126 624 120.5 619Q115 614 111.5 606.5Q108 599 108 589Q108 579 111.5 571.5Q115 564 120.5 559Q126 554 134 551Q142 548 151 548Q160 548 168 551Q176 554 181.5 559Q187 564 190.5 571.5Q194 579 194 589Z" glyph-name="degree" horiz-adv-x="302" unicode="&#176;" /><glyph d="M145 822Q145 806 139.5 793Q134 780 124 770.5Q114 761 100 756.5Q86 752 69 752Q53 752 39 756.5Q25 761 14.5 770.5Q4 780 -1.5 793Q-7 806 -7 822Q-7 839 -1.5 852.5Q4 866 14.5 876Q25 886 39 891Q53 896 69 896Q86 896 100 891Q114 886 124 876Q134 866 139.5 852.5Q145 839 145 822ZM333 822Q333 806 327.5 793Q322 780 312 770.5Q302 761 288 756.5Q274 752 257 752Q241 752 227 756.5Q213 761 202.5 770.5Q192 780 186.5 793Q181 806 181 822Q181 839 186.5 852.5Q192 866 202.5 876Q213 886 227 891Q241 896 257 896Q274 896 288 891Q302 886 312 876Q322 866 327.5 852.5Q333 839 333 822Z" glyph-name="dieresis" horiz-adv-x="323" unicode="&#168;" /><glyph d="M345 281H10V426H345ZM182 462Q170 462 159.5 466.5Q149 471 140.5 479.5Q132 488 127.5 498.5Q123 509 123 521Q123 533 127.5 543.5Q132 554 140.5 562.5Q149 571 159.5 575.5Q170 580 182 580Q194 580 204.5 575.5Q215 571 223 562.5Q231 554 235.5 543.5Q240 533 240 521Q240 509 235.5 498.5Q231 488 223 479.5Q215 471 204.5 466.5Q194 462 182 462ZM182 122Q170 122 159.5 126.5Q149 131 140.5 139.5Q132 148 127.5 158.5Q123 169 123 181Q123 193 127.5 203.5Q132 214 140.5 222.5Q149 231 159.5 235.5Q170 240 182 240Q194 240 204.5 235.5Q215 231 223 222.5Q231 214 235.5 203.5Q240 193 240 181Q240 169 235.5 158.5Q231 148 223 139.5Q215 131 204.5 126.5Q194 122 182 122Z" glyph-name="divide" horiz-adv-x="355" unicode="&#247;" /><glyph d="M243 -14 234 -102H141L152 0Q129 8 108 21.5Q87 35 70 51.5Q53 68 39 88Q25 108 13 131L152 215Q158 199 168 185.5Q178 172 190.5 162.5Q203 153 217.5 148Q232 143 247 143Q259 143 269 146.5Q279 150 285.5 156Q292 162 295.5 170.5Q299 179 299 188Q299 219 281.5 231.5Q264 244 182 296Q100 348 63.5 395Q27 442 27 511Q27 552 41.5 588.5Q56 625 82.5 652Q109 679 146.5 695.5Q184 712 229 714L240 813H333L320 701Q342 693 362 680Q382 667 398.5 649.5Q415 632 428.5 610.5Q442 589 452 563L320 485Q316 502 308 517Q300 532 289.5 543.5Q279 555 265.5 561Q252 567 238 567Q227 567 218.5 563.5Q210 560 203.5 554Q197 548 193.5 539.5Q190 531 190 521Q190 489 203 480.5Q216 472 303.5 419.5Q391 367 428 319.5Q465 272 465 196Q465 148 448.5 109Q432 70 402 42.5Q372 15 331.5 0.5Q291 -14 243 -14Z" glyph-name="dollar" horiz-adv-x="492" unicode="$" /><glyph d="M259 -102H165L176 -4Q152 2 130 11.5Q108 21 89.5 34Q71 47 55.5 61.5Q40 76 26 93L133 207Q148 190 163.5 175.5Q179 161 196 150.5Q213 140 229.5 134Q246 128 262 128Q274 128 282 131Q290 134 295 139Q300 144 302 150Q304 156 304 162Q304 188 293.5 193.5Q283 199 198 240Q113 281 77.5 319.5Q42 358 42 420Q42 455 54 486.5Q66 518 91 543Q116 568 154 583.5Q192 599 242 601L252 693H345L333 590Q351 585 367 577.5Q383 570 398.5 560Q414 550 428 537Q442 524 455 509L346 409Q340 418 329.5 428Q319 438 305.5 446Q292 454 276.5 458.5Q261 463 247 463Q236 463 228 460.5Q220 458 214 453.5Q208 449 205 442.5Q202 436 202 429Q202 405 297.5 363.5Q393 322 429 282Q465 242 465 174Q465 136 452.5 102.5Q440 69 415 44Q390 19 353 4Q316 -11 269 -13Z" glyph-name="dollar.osf" horiz-adv-x="485" /><glyph d="M227 814Q227 798 221.5 784.5Q216 771 205.5 762Q195 753 181 748Q167 743 151 743Q134 743 120 748Q106 753 95.5 762Q85 771 79.5 784.5Q74 798 74 814Q74 830 79.5 843.5Q85 857 95.5 867Q106 877 120 882Q134 887 151 887Q167 887 181 882Q195 877 205.5 867Q216 857 221.5 843.5Q227 830 227 814Z" glyph-name="dotaccent" horiz-adv-x="304" unicode="&#729;" /><glyph d="M232 0H66V586H232Z" glyph-name="dotlessi" horiz-adv-x="298" unicode="&#305;" /><glyph d="M473 252H184Q186 227 191 206Q196 185 206 167.5Q216 150 232.5 140Q249 130 273 130Q287 130 298.5 134Q310 138 320 145.5Q330 153 339.5 164.5Q349 176 360 193L468 93Q447 69 426 50Q405 31 380 16.5Q355 2 325 -6Q295 -14 259 -14Q200 -14 155 7Q110 28 80 67Q50 106 35 161.5Q20 217 20 286Q20 357 35.5 414.5Q51 472 81.5 513.5Q112 555 157.5 577.5Q203 600 261 600Q329 600 372 571Q415 542 436.5 495.5Q458 449 465.5 396Q473 343 473 282ZM186 351H316Q316 380 312 402.5Q308 425 300.5 441.5Q293 458 281 467Q269 476 254 476Q238 476 226 467Q214 458 205.5 441.5Q197 425 192.5 402.5Q188 380 186 351Z" glyph-name="e" horiz-adv-x="488" unicode="e" /><glyph d="M473 252H184Q186 227 191 206Q196 185 206 167.5Q216 150 232.5 140Q249 130 273 130Q287 130 298.5 134Q310 138 320 145.5Q330 153 339.5 164.5Q349 176 360 193L468 93Q447 69 426 50Q405 31 380 16.5Q355 2 325 -6Q295 -14 259 -14Q200 -14 155 7Q110 28 80 67Q50 106 35 161.5Q20 217 20 286Q20 357 35.5 414.5Q51 472 81.5 513.5Q112 555 157.5 577.5Q203 600 261 600Q329 600 372 571Q415 542 436.5 495.5Q458 449 465.5 396Q473 343 473 282ZM186 351H316Q316 380 312 402.5Q308 425 300.5 441.5Q293 458 281 467Q269 476 254 476Q238 476 226 467Q214 458 205.5 441.5Q197 425 192.5 402.5Q188 380 186 351ZM394 700 154 598 106 701 338 819Z" glyph-name="eacute" horiz-adv-x="488" unicode="&#233;" /><glyph d="M473 252H184Q186 227 191 206Q196 185 206 167.5Q216 150 232.5 140Q249 130 273 130Q287 130 298.5 134Q310 138 320 145.5Q330 153 339.5 164.5Q349 176 360 193L468 93Q447 69 426 50Q405 31 380 16.5Q355 2 325 -6Q295 -14 259 -14Q200 -14 155 7Q110 28 80 67Q50 106 35 161.5Q20 217 20 286Q20 357 35.5 414.5Q51 472 81.5 513.5Q112 555 157.5 577.5Q203 600 261 600Q329 600 372 571Q415 542 436.5 495.5Q458 449 465.5 396Q473 343 473 282ZM186 351H316Q316 380 312 402.5Q308 425 300.5 441.5Q293 458 281 467Q269 476 254 476Q238 476 226 467Q214 458 205.5 441.5Q197 425 192.5 402.5Q188 380 186 351ZM360 616 311 668Q300 680 290 691Q280 702 273 710Q266 718 258 728H254Q246 718 239 710Q232 702 222 691Q212 680 201 668L152 616L69 710L211 822H301L443 710Z" glyph-name="ecircumflex" horiz-adv-x="488" unicode="&#234;" /><glyph d="M473 252H184Q186 227 191 206Q196 185 206 167.5Q216 150 232.5 140Q249 130 273 130Q287 130 298.5 134Q310 138 320 145.5Q330 153 339.5 164.5Q349 176 360 193L468 93Q447 69 426 50Q405 31 380 16.5Q355 2 325 -6Q295 -14 259 -14Q200 -14 155 7Q110 28 80 67Q50 106 35 161.5Q20 217 20 286Q20 357 35.5 414.5Q51 472 81.5 513.5Q112 555 157.5 577.5Q203 600 261 600Q329 600 372 571Q415 542 436.5 495.5Q458 449 465.5 396Q473 343 473 282ZM186 351H316Q316 380 312 402.5Q308 425 300.5 441.5Q293 458 281 467Q269 476 254 476Q238 476 226 467Q214 458 205.5 441.5Q197 425 192.5 402.5Q188 380 186 351ZM238 706Q238 690 232.5 677Q227 664 217 654.5Q207 645 193 640.5Q179 636 162 636Q146 636 132 640.5Q118 645 107.5 654.5Q97 664 91.5 677Q86 690 86 706Q86 723 91.5 736.5Q97 750 107.5 760Q118 770 132 775Q146 780 162 780Q179 780 193 775Q207 770 217 760Q227 750 232.5 736.5Q238 723 238 706ZM426 706Q426 690 420.5 677Q415 664 405 654.5Q395 645 381 640.5Q367 636 350 636Q334 636 320 640.5Q306 645 295.5 654.5Q285 664 279.5 677Q274 690 274 706Q274 723 279.5 736.5Q285 750 295.5 760Q306 770 320 775Q334 780 350 780Q367 780 381 775Q395 770 405 760Q415 750 420.5 736.5Q426 723 426 706Z" glyph-name="edieresis" horiz-adv-x="488" unicode="&#235;" /><glyph d="M473 252H184Q186 227 191 206Q196 185 206 167.5Q216 150 232.5 140Q249 130 273 130Q287 130 298.5 134Q310 138 320 145.5Q330 153 339.5 164.5Q349 176 360 193L468 93Q447 69 426 50Q405 31 380 16.5Q355 2 325 -6Q295 -14 259 -14Q200 -14 155 7Q110 28 80 67Q50 106 35 161.5Q20 217 20 286Q20 357 35.5 414.5Q51 472 81.5 513.5Q112 555 157.5 577.5Q203 600 261 600Q329 600 372 571Q415 542 436.5 495.5Q458 449 465.5 396Q473 343 473 282ZM186 351H316Q316 380 312 402.5Q308 425 300.5 441.5Q293 458 281 467Q269 476 254 476Q238 476 226 467Q214 458 205.5 441.5Q197 425 192.5 402.5Q188 380 186 351ZM357 601 117 703 173 822 405 704Z" glyph-name="egrave" horiz-adv-x="488" unicode="&#232;" /><glyph d="M274 445Q288 445 298.5 450Q309 455 316.5 464Q324 473 328 485Q332 497 332 511Q332 525 328 536.5Q324 548 316.5 557Q309 566 298.5 571Q288 576 274 576Q260 576 249 571Q238 566 230.5 557Q223 548 219 536.5Q215 525 215 511Q215 497 219 485Q223 473 230.5 464Q238 455 249 450Q260 445 274 445ZM362 228Q362 245 356.5 260.5Q351 276 339.5 288.5Q328 301 311 308.5Q294 316 272 316Q250 316 233 308.5Q216 301 204.5 288.5Q193 276 187.5 260.5Q182 245 182 228Q182 211 187.5 195Q193 179 204.5 166.5Q216 154 233 146.5Q250 139 272 139Q294 139 311 146.5Q328 154 339.5 166.5Q351 179 356.5 195Q362 211 362 228ZM410 395V393Q438 380 459 362Q480 344 494.5 320.5Q509 297 516 268.5Q523 240 523 208Q523 162 508 121.5Q493 81 462 50.5Q431 20 383.5 3Q336 -14 273 -14Q210 -14 162.5 3Q115 20 84 51Q53 82 38 122Q23 162 23 209Q23 241 30 268.5Q37 296 51 319Q65 342 86.5 360.5Q108 379 136 393V395Q119 406 106 421.5Q93 437 84.5 455Q76 473 71.5 492.5Q67 512 67 532Q67 566 80 598.5Q93 631 119 657Q145 683 184 698.5Q223 714 273 714Q323 714 362 698.5Q401 683 427 657Q453 631 466 598.5Q479 566 479 532Q479 512 474.5 492.5Q470 473 461.5 455Q453 437 440 421.5Q427 406 410 395Z" glyph-name="eight" horiz-adv-x="546" unicode="8" /><glyph d="M272 437Q285 437 295 442Q305 447 312.5 455.5Q320 464 323.5 475Q327 486 327 499Q327 512 323.5 522.5Q320 533 312.5 541Q305 549 295 553.5Q285 558 272 558Q259 558 249 553.5Q239 549 231.5 541Q224 533 220.5 522.5Q217 512 217 499Q217 486 220.5 475Q224 464 231.5 455.5Q239 447 249 442Q259 437 272 437ZM358 220Q358 236 352.5 250.5Q347 265 336 276Q325 287 309 293.5Q293 300 272 300Q251 300 235 293.5Q219 287 208 276Q197 265 191.5 250.5Q186 236 186 220Q186 204 191.5 189.5Q197 175 208 163.5Q219 152 235 145.5Q251 139 272 139Q293 139 309 145.5Q325 152 336 163.5Q347 175 352.5 189.5Q358 204 358 220ZM409 383V381Q437 368 458 350.5Q479 333 493.5 310.5Q508 288 515 261Q522 234 522 204Q522 160 507 121Q492 82 461 51.5Q430 21 382.5 3.5Q335 -14 272 -14Q209 -14 161.5 3.5Q114 21 83 51.5Q52 82 37 121.5Q22 161 22 205Q22 235 29 261Q36 287 50 309Q64 331 85.5 349Q107 367 135 381V383Q118 394 105 409Q92 424 83.5 441Q75 458 70.5 477Q66 496 66 516Q66 550 79 582Q92 614 118 639.5Q144 665 183 680Q222 695 272 695Q322 695 361 680Q400 665 426 639.5Q452 614 465 582Q478 550 478 516Q478 496 473.5 477Q469 458 460.5 441Q452 424 439 409Q426 394 409 383Z" glyph-name="eight.osf" horiz-adv-x="544" /><glyph d="M138 -14Q118 -14 100 -6Q82 2 68 16Q54 30 46 48Q38 66 38 86Q38 106 46 124Q54 142 68 156Q82 170 100 177.5Q118 185 138 185Q158 185 176 177.5Q194 170 207.5 156Q221 142 228.5 124Q236 106 236 86Q236 66 228.5 48Q221 30 207.5 16Q194 2 176 -6Q158 -14 138 -14ZM377 -14Q357 -14 339 -6Q321 2 307 16Q293 30 285 48Q277 66 277 86Q277 106 285 124Q293 142 307 156Q321 170 339 177.5Q357 185 377 185Q397 185 415 177.5Q433 170 446.5 156Q460 142 467.5 124Q475 106 475 86Q475 66 467.5 48Q460 30 446.5 16Q433 2 415 -6Q397 -14 377 -14ZM618 -14Q598 -14 580 -6Q562 2 548 16Q534 30 526 48Q518 66 518 86Q518 106 526 124Q534 142 548 156Q562 170 580 177.5Q598 185 618 185Q638 185 656 177.5Q674 170 687.5 156Q701 142 708.5 124Q716 106 716 86Q716 66 708.5 48Q701 30 687.5 16Q674 2 656 -6Q638 -14 618 -14Z" glyph-name="ellipsis" horiz-adv-x="756" unicode="&#8230;" /><glyph d="M544 233H10V378H544Z" glyph-name="emdash" horiz-adv-x="554" unicode="&#8212;" /><glyph d="M345 233H10V378H345Z" glyph-name="endash" horiz-adv-x="355" unicode="&#8211;" /><glyph d="M308 390H10V514H308ZM308 185H10V309H308Z" glyph-name="equal" horiz-adv-x="318" unicode="=" /><glyph d="M494 0H352Q349 7 346.5 13.5Q344 20 342 27Q340 34 338.5 41.5Q337 49 336 57H334Q323 41 311.5 28Q300 15 285.5 5.5Q271 -4 253.5 -9.5Q236 -15 215 -15Q166 -15 129 6.5Q92 28 67.5 67.5Q43 107 31.5 159.5Q20 212 20 274Q20 344 34.5 397.5Q49 451 75 486Q101 521 136 538.5Q171 556 212 556Q234 556 250.5 553.5Q267 551 279.5 546Q292 541 301.5 534.5Q311 528 322 518H324Q325 530 324.5 541Q324 552 322 561.5Q320 571 316.5 579Q313 587 308 594L286 569L250 598L270 623Q261 626 251.5 628Q242 630 231 631Q220 632 208 631Q196 630 183 628V778Q210 779 235 777Q260 775 282.5 770.5Q305 766 326 759Q347 752 365 742L401 787L444 753L409 712Q427 696 441.5 675.5Q456 655 465.5 630.5Q475 606 480 577.5Q485 549 485 517V80Q485 67 485 58Q485 49 486 39.5Q487 30 489 20Q491 10 494 0ZM319 192V357Q319 377 315 392.5Q311 408 303.5 418.5Q296 429 285 434.5Q274 440 260 440Q235 440 219.5 426.5Q204 413 197 392Q190 371 188.5 348.5Q187 326 187 296Q187 262 188.5 238Q190 214 197 192Q204 170 219 156.5Q234 143 260 143Q275 143 286 148Q297 153 304.5 160.5Q312 168 315.5 176.5Q319 185 319 192Z" glyph-name="eth" horiz-adv-x="529" unicode="&#240;" /><glyph d="M214 235H48V700H214ZM132 -10Q112 -10 94 -2Q76 6 62 20Q48 34 40 52Q32 70 32 90Q32 110 40 128Q48 146 62 160Q76 174 94 181.5Q112 189 132 189Q152 189 170 181.5Q188 174 202 160Q216 146 223.5 128Q231 110 231 90Q231 70 223.5 52Q216 34 202 20Q188 6 170 -2Q152 -10 132 -10Z" glyph-name="exclam" horiz-adv-x="263" unicode="!" /><glyph d="M49 465H215V0H49ZM131 710Q151 710 169 702Q187 694 201 680Q215 666 223 648Q231 630 231 610Q231 590 223 572Q215 554 201 540Q187 526 169 518.5Q151 511 131 511Q111 511 93 518.5Q75 526 61 540Q47 554 39.5 572Q32 590 32 610Q32 630 39.5 648Q47 666 61 680Q75 694 93 702Q111 710 131 710Z" glyph-name="exclamdown" horiz-adv-x="263" unicode="&#161;" /><glyph d="M237 0H71V450H20V586H71Q71 636 87 674.5Q103 713 131.5 738.5Q160 764 199 776.5Q238 789 285 789Q290 789 295.5 789Q301 789 306.5 788.5Q312 788 317.5 787.5Q323 787 329 786L312 652Q309 653 305.5 653.5Q302 654 299 654.5Q296 655 293 655Q290 655 287 655Q274 655 264.5 651Q255 647 249 639.5Q243 632 240 621Q237 610 237 596V586H316V450H237Z" glyph-name="f" horiz-adv-x="335" unicode="f" /><glyph d="M237 0H71V450H20V586H71Q71 636 87 674.5Q103 713 131.5 738.5Q160 764 199 776.5Q238 789 285 789Q290 789 295.5 789Q301 789 306.5 788.5Q312 788 317.5 787.5Q323 787 329 786L312 652Q309 653 305.5 653.5Q302 654 299 654.5Q296 655 293 655Q290 655 287 655Q274 655 264.5 651Q255 647 249 639.5Q243 632 240 621Q237 610 237 596V586H316V450H237ZM555 0H389V586H555ZM475 631Q455 631 437 639Q419 647 405 661Q391 675 383 693Q375 711 375 731Q375 751 383 769Q391 787 405 801Q419 815 437 822.5Q455 830 475 830Q495 830 513 822.5Q531 815 544.5 801Q558 787 565.5 769Q573 751 573 731Q573 711 565.5 693Q558 675 544.5 661Q531 647 513 639Q495 631 475 631Z" glyph-name="fi" horiz-adv-x="613" unicode="&#64257;" /><glyph d="M180 265 47 335 83 700H446V547H210L205 503Q203 485 200.5 470.5Q198 456 196 445.5Q194 435 191 423L193 422Q202 430 212.5 435.5Q223 441 235 444.5Q247 448 261.5 450Q276 452 293 452Q339 452 376.5 435Q414 418 440.5 387.5Q467 357 481 315.5Q495 274 495 227Q495 182 483 139.5Q471 97 444 62Q417 27 374 6.5Q331 -14 272 -14Q224 -14 186.5 -4Q149 6 121.5 24.5Q94 43 74.5 67.5Q55 92 38 124L175 209Q180 194 187.5 182Q195 170 205 161.5Q215 153 228 148.5Q241 144 256 144Q275 144 289.5 151Q304 158 313.5 170Q323 182 327.5 197Q332 212 332 228Q332 244 327.5 259Q323 274 313.5 285Q304 296 290 302.5Q276 309 257 309Q243 309 231 305Q219 301 209 294.5Q199 288 192 280.5Q185 273 180 265Z" glyph-name="five" horiz-adv-x="519" unicode="5" /><glyph d="M181 152 52 216 89 586H442V424H227L216 333L218 332Q225 336 233 339Q241 342 251 344.5Q261 347 272 348Q283 349 295 349Q343 349 381 332.5Q419 316 445 286Q471 256 484.5 216Q498 176 498 130Q498 82 483.5 38.5Q469 -5 439.5 -39.5Q410 -74 365 -93.5Q320 -113 262 -113Q221 -113 186.5 -103Q152 -93 124.5 -73.5Q97 -54 76.5 -27.5Q56 -1 42 33L179 107Q185 94 192.5 83Q200 72 209.5 64Q219 56 231 51.5Q243 47 258 47Q275 47 289 52.5Q303 58 312.5 68.5Q322 79 326.5 92Q331 105 331 120Q331 135 326.5 148.5Q322 162 312.5 172.5Q303 183 289 189Q275 195 257 195Q243 195 231 191Q219 187 209.5 181Q200 175 193 167.5Q186 160 181 152Z" glyph-name="five.osf" horiz-adv-x="518" /><glyph d="M250 0H84V450H33V586H84Q84 636 100 674.5Q116 713 144.5 738.5Q173 764 212 776.5Q251 789 298 789Q303 789 308.5 789Q314 789 319.5 788.5Q325 788 330.5 787.5Q336 787 342 786L325 652Q322 653 318.5 653.5Q315 654 312 654.5Q309 655 306 655Q303 655 300 655Q287 655 277.5 651Q268 647 262 639.5Q256 632 253 621Q250 610 250 596V586H329V450H250ZM614 0H448V730H614Z" glyph-name="fl" horiz-adv-x="678" unicode="&#64258;" /><glyph d="M408 370V332H312Q319 312 324.5 294Q330 276 334.5 258Q339 240 341.5 222Q344 204 344 187Q344 146 329.5 109.5Q315 73 287 45Q259 17 217 1.5Q175 -14 123 -14Q102 -14 82 -11.5Q62 -9 46.5 -6Q31 -3 10 3L49 152Q57 148 63.5 145.5Q70 143 79.5 141Q89 139 100 139Q116 139 128 144Q140 149 148 158Q156 167 160 180Q164 193 164 209Q164 222 161.5 236.5Q159 251 155 266.5Q151 282 145.5 297.5Q140 313 133 332H25V370H119Q112 390 106.5 408.5Q101 427 96.5 446Q92 465 89.5 485Q87 505 87 525Q87 567 99.5 602Q112 637 137.5 663Q163 689 203.5 703Q244 717 298 717Q321 717 342.5 714.5Q364 712 380 709Q396 706 417 700L378 551Q371 555 364.5 557.5Q358 560 349 562Q340 564 329 564Q315 564 303.5 559.5Q292 555 284 546.5Q276 538 271.5 525Q267 512 267 496Q267 482 269.5 467Q272 452 276 436.5Q280 421 285.5 405Q291 389 298 370Z" glyph-name="florin" horiz-adv-x="443" unicode="&#402;" /><glyph d="M437 0H271V118H-5V120L271 702H437V278H487V118H437ZM287 264V474H285Q280 457 276 445Q272 433 267 419Q262 405 258 393L229 315Q225 305 221 296Q217 287 214 280.5Q211 274 206 266V264Z" glyph-name="four" horiz-adv-x="501" unicode="4" /><glyph d="M432 -103H266V21H-9V23L266 593H432V181H482V21H432ZM279 167V347H276Q274 337 272 329Q270 321 267 311Q264 301 261 290L241 221Q238 211 235 201.5Q232 192 229.5 185Q227 178 224 169V167Z" glyph-name="four.osf" horiz-adv-x="520" /><glyph d="M470 700 106 0H-2L361 700Z" glyph-name="fraction" horiz-adv-x="471" unicode="&#8260;" /><glyph d="M326 110H324Q315 90 303.5 74Q292 58 277 46.5Q262 35 241 29Q220 23 193 23Q152 23 120 44Q88 65 65.5 104.5Q43 144 31.5 198.5Q20 253 20 320Q20 386 34 438.5Q48 491 73.5 527Q99 563 134 581.5Q169 600 211 600Q233 600 252.5 594Q272 588 288 577Q304 566 316 550.5Q328 535 336 516H338Q339 528 341 540.5Q343 553 345 562.5Q347 572 351 586H503Q498 574 494.5 561Q491 548 489 537Q487 526 486 518Q485 510 485 507V46Q485 -21 470.5 -72Q456 -123 426.5 -157.5Q397 -192 352 -209.5Q307 -227 247 -227Q210 -227 179 -220Q148 -213 123.5 -199.5Q99 -186 78.5 -167Q58 -148 40 -122L153 -10Q158 -24 167 -36Q176 -48 188 -56.5Q200 -65 214 -70Q228 -75 243 -75Q262 -75 276.5 -69.5Q291 -64 301 -52Q311 -40 316 -21Q321 -2 321 25Q321 37 321.5 51.5Q322 66 323 78Q324 90 326 110ZM319 254V364Q319 380 316.5 395Q314 410 307.5 422.5Q301 435 289 442.5Q277 450 260 450Q234 450 219 439Q204 428 197 409.5Q190 391 188.5 370.5Q187 350 187 320Q187 286 188.5 264Q190 242 195.5 222Q201 202 214.5 189.5Q228 177 250 177Q270 177 284 185Q298 193 305.5 205Q313 217 316 230Q319 243 319 254Z" glyph-name="g" horiz-adv-x="538" unicode="g" /><glyph d="M232 16 287 151Q291 148 295 145.5Q299 143 304 141.5Q309 140 314 139Q319 138 324 138Q333 138 340.5 140Q348 142 353.5 147Q359 152 362.5 159Q366 166 366 176Q366 198 357 209.5Q348 221 312.5 260.5Q277 300 260.5 334Q244 368 244 415Q244 450 253 475Q262 500 281 528.5Q300 557 306 568Q312 579 312 597Q312 611 307.5 621.5Q303 632 295.5 638.5Q288 645 278.5 648Q269 651 258 651Q247 651 237 647.5Q227 644 219 636.5Q211 629 206.5 617.5Q202 606 202 590V0H40V578Q40 623 53.5 660.5Q67 698 93.5 726.5Q120 755 159 770.5Q198 786 248 786Q291 786 328.5 774.5Q366 763 395 739.5Q424 716 440 680.5Q456 645 456 600Q456 566 448 541.5Q440 517 421.5 487Q403 457 399 449Q395 441 395 426Q395 403 404 392Q413 381 451 341Q489 301 506.5 266Q524 231 524 181Q524 138 510 102.5Q496 67 470 42Q444 17 409.5 3.5Q375 -10 334 -10Q317 -10 300.5 -7.5Q284 -5 270.5 -1Q257 3 247.5 7.5Q238 12 232 16Z" glyph-name="germandbls" horiz-adv-x="535" unicode="&#223;" /><glyph d="M208 730 -32 832 24 951 256 833Z" glyph-name="grave" horiz-adv-x="215" unicode="`" /><glyph d="M81 558 331 405V305L81 152L6 271L78 311Q93 319 110.5 327Q128 335 143 340.5Q158 346 181 354V356Q158 363 143 368.5Q128 374 110.5 381.5Q93 389 78 398L6 439Z" glyph-name="greater" horiz-adv-x="337" unicode="&gt;" /><glyph d="M220 258 114 168 20 300V404L114 536L220 447L169 389Q165 384 158.5 378Q152 372 146 367Q140 362 131 354V352Q134 350 138.5 346Q143 342 149 336.5Q155 331 160 325.5Q165 320 169 316ZM414 258 308 168 214 300V404L308 536L414 447L363 389Q359 384 352.5 378Q346 372 340 367Q334 362 325 354V352Q328 350 332.5 346Q337 342 343 336.5Q349 331 354 325.5Q359 320 363 316Z" glyph-name="guillemotleft" horiz-adv-x="427" unicode="&#171;" /><glyph d="M119 168 13 258 64 316Q68 320 73 325.5Q78 331 84 336.5Q90 342 94.5 346Q99 350 102 352V354Q93 362 87 367Q81 372 74.5 378Q68 384 64 389L13 447L119 536L213 404V300ZM313 168 207 258 258 316Q262 320 267 325.5Q272 331 278 336.5Q284 342 288.5 346Q293 350 296 352V354Q287 362 281 367Q275 372 268.5 378Q262 384 258 389L207 447L313 536L407 404V300Z" glyph-name="guillemotright" horiz-adv-x="427" unicode="&#187;" /><glyph d="M220 258 114 168 20 300V404L114 536L220 447L169 389Q165 384 158.5 378Q152 372 146 367Q140 362 131 354V352Q134 350 138.5 346Q143 342 149 336.5Q155 331 160 325.5Q165 320 169 316Z" glyph-name="guilsinglleft" horiz-adv-x="233" unicode="&#8249;" /><glyph d="M119 168 13 258 64 316Q68 320 73 325.5Q78 331 84 336.5Q90 342 94.5 346Q99 350 102 352V354Q93 362 87 367Q81 372 74.5 378Q68 384 64 389L13 447L119 536L213 404V300Z" glyph-name="guilsinglright" horiz-adv-x="233" unicode="&#8250;" /><glyph d="M502 0H336V371Q336 384 332.5 398Q329 412 321 424.5Q313 437 300 444.5Q287 452 269 452Q252 452 240 446Q228 440 220.5 430Q213 420 209.5 408Q206 396 206 383V0H40V730H206V595Q206 590 206 583.5Q206 577 205.5 571.5Q205 566 205 558H207Q220 569 233.5 576Q247 583 262 587.5Q277 592 293.5 594Q310 596 329 596Q373 596 406.5 578Q440 560 461 528.5Q482 497 492 457Q502 417 502 372Z" glyph-name="h" horiz-adv-x="542" unicode="h" /><glyph d="M305 751H176L184 904H324ZM137 751H8L16 904H156Z" glyph-name="hungarumlaut" horiz-adv-x="327" unicode="&#733;" /><glyph d="M289 233H10V378H289Z" glyph-name="hyphen" horiz-adv-x="299" unicode="-" /><glyph d="M222 0H56V586H222ZM140 631Q120 631 102 639Q84 647 70 661Q56 675 48 693Q40 711 40 731Q40 751 48 769Q56 787 70 801Q84 815 102 822.5Q120 830 140 830Q160 830 178 822.5Q196 815 209.5 801Q223 787 230.5 769Q238 751 238 731Q238 711 230.5 693Q223 675 209.5 661Q196 647 178 639Q160 631 140 631Z" glyph-name="i" horiz-adv-x="278" unicode="i" /><glyph d="M275 709 64 620 22 710 226 814ZM224 0H58V586H224Z" glyph-name="iacute" horiz-adv-x="278" unicode="&#237;" /><glyph d="M225 0H59V586H225ZM216 646 180 684Q172 693 164.5 701Q157 709 152 715Q147 721 141 729H138Q132 721 127 715Q122 709 114.5 701Q107 693 99 684L63 646L2 715L106 798H173L277 715Z" glyph-name="icircumflex" horiz-adv-x="278" unicode="&#238;" /><glyph d="M125 723Q125 709 120.5 698.5Q116 688 107.5 680.5Q99 673 87 669Q75 665 61 665Q47 665 35.5 669Q24 673 15.5 680.5Q7 688 2.5 698.5Q-2 709 -2 723Q-2 737 2.5 748.5Q7 760 16 768Q25 776 36.5 780.5Q48 785 61 785Q75 785 87 780.5Q99 776 107.5 768Q116 760 120.5 748.5Q125 737 125 723ZM281 723Q281 709 276.5 698.5Q272 688 263.5 680.5Q255 673 243.5 669Q232 665 218 665Q204 665 192.5 669Q181 673 172.5 680.5Q164 688 159.5 698.5Q155 709 155 723Q155 737 159.5 748.5Q164 760 172.5 768Q181 776 192.5 780.5Q204 785 218 785Q232 785 243.5 780.5Q255 776 263.5 768Q272 760 276.5 748.5Q281 737 281 723ZM224 0H58V586H224Z" glyph-name="idieresis" horiz-adv-x="278" unicode="&#239;" /><glyph d="M217 620 6 709 55 814 259 710ZM222 0H56V586H222Z" glyph-name="igrave" horiz-adv-x="278" unicode="&#236;" /><glyph d="M-111 -203 -53 -52Q-50 -57 -44.5 -61Q-39 -65 -31.5 -68Q-24 -71 -16 -72.5Q-8 -74 1 -74Q19 -74 30 -67.5Q41 -61 47 -50Q53 -39 55 -23Q57 -7 57 15V586H231V-1Q231 -49 217 -90Q203 -131 175.5 -162Q148 -193 108 -210Q68 -227 17 -227Q-4 -227 -20 -226Q-36 -225 -50.5 -222Q-65 -219 -79.5 -214.5Q-94 -210 -111 -203ZM148 622Q128 622 110 630Q92 638 78 652Q64 666 56 684Q48 702 48 722Q48 742 56 760Q64 778 78 792Q92 806 110 813.5Q128 821 148 821Q168 821 186 813.5Q204 806 217.5 792Q231 778 238.5 760Q246 742 246 722Q246 702 238.5 684Q231 666 217.5 652Q204 638 186 630Q168 622 148 622Z" glyph-name="j" horiz-adv-x="286" unicode="j" /><glyph d="M529 0H342L249 178Q244 189 238.5 200Q233 211 229 220Q225 229 219 241H217L206 226V0H40V730H206V532Q206 520 206 506Q206 492 205.5 480.5Q205 469 205 452H207Q218 466 225.5 476Q233 486 242 497.5Q251 509 260 519L317 586H509L330 370Z" glyph-name="k" horiz-adv-x="526" unicode="k" /><glyph d="M206 0H40V730H206Z" glyph-name="l" horiz-adv-x="246" unicode="l" /><glyph d="M256 152 6 305V405L256 558L331 439L259 399Q244 391 226.5 383Q209 375 194 369.5Q179 364 156 356V354Q179 347 194 341.5Q209 336 226.5 328.5Q244 321 259 312L331 271Z" glyph-name="less" horiz-adv-x="337" unicode="&lt;" /><glyph d="M254 174 180 259 106 174 8 272 98 351 13 434 101 522 180 439 259 522 347 434 262 351 352 272Z" glyph-name="logicalnot" horiz-adv-x="360" unicode="&#172;" /><glyph d="M218 0H52V245L14 229L0 264L52 286V730H218V358L256 375L270 340L218 317Z" glyph-name="lslash" horiz-adv-x="270" unicode="&#322;" /><glyph d="M738 0H579V410Q579 426 574.5 437.5Q570 449 562.5 457Q555 465 545.5 468.5Q536 472 525 472Q515 472 505 468.5Q495 465 487.5 457Q480 449 475.5 437.5Q471 426 471 410V0H312V410Q312 426 307.5 437.5Q303 449 295.5 457Q288 465 278 468.5Q268 472 257 472Q246 472 236.5 468.5Q227 465 219.5 457Q212 449 207.5 437.5Q203 426 203 410V0H44V507Q44 520 44 528.5Q44 537 43 546.5Q42 556 40 566Q38 576 35 586H176Q181 574 184 564.5Q187 555 190 541.5Q193 528 194 514H196Q204 534 216.5 550.5Q229 567 245.5 579Q262 591 283.5 597.5Q305 604 330 604Q356 604 377 597.5Q398 591 413.5 579.5Q429 568 440 551.5Q451 535 458 514H460Q470 534 483 549.5Q496 565 513 576.5Q530 588 550 594Q570 600 593 600Q633 600 660.5 586.5Q688 573 705 546Q722 519 730 478.5Q738 438 738 383Z" glyph-name="m" horiz-adv-x="778" unicode="m" /><glyph d="M289 743H10V888H289Z" glyph-name="macron" horiz-adv-x="299" unicode="&#175;" /><glyph d="M289 233H10V378H289Z" glyph-name="minus" horiz-adv-x="299" unicode="&#8722;" /><glyph d="M254 174 180 259 106 174 8 272 98 351 13 434 101 522 180 439 259 522 347 434 262 351 352 272Z" glyph-name="multiply" horiz-adv-x="360" unicode="&#215;" /><glyph d="M506 0H340V384Q340 399 336.5 413.5Q333 428 325 439.5Q317 451 304 458Q291 465 273 465Q257 465 245 459.5Q233 454 225.5 444.5Q218 435 214.5 423.5Q211 412 210 399V0H44V507Q44 525 42.5 540Q41 555 39.5 565Q38 575 35 586H178Q183 574 185.5 564.5Q188 555 190.5 542Q193 529 194 514H196Q205 531 217 546.5Q229 562 246 574Q263 586 284 593Q305 600 331 600Q376 600 409.5 583.5Q443 567 464.5 537Q486 507 496 466Q506 425 506 376Z" glyph-name="n" horiz-adv-x="541" unicode="n" /><glyph d="M276 374Q295 374 309.5 381.5Q324 389 333.5 402Q343 415 348 432Q353 449 353 468Q353 489 348.5 506.5Q344 524 334.5 537Q325 550 310 557Q295 564 276 564Q255 564 239 557Q223 550 212.5 537Q202 524 197 506.5Q192 489 192 468Q192 449 197.5 432Q203 415 213.5 402Q224 389 240 381.5Q256 374 276 374ZM368 313H366Q355 298 340.5 284.5Q326 271 308.5 261.5Q291 252 271 246.5Q251 241 230 241Q182 241 144 258.5Q106 276 81 306.5Q56 337 43.5 377Q31 417 31 461Q31 513 46.5 559Q62 605 92.5 640Q123 675 168.5 694.5Q214 714 273 714Q332 714 378.5 688Q425 662 457 615Q489 568 505.5 505Q522 442 522 369Q522 286 505.5 216.5Q489 147 455 95Q421 43 369 14.5Q317 -14 247 -14Q216 -14 188.5 -8Q161 -2 137.5 9.5Q114 21 93.5 38.5Q73 56 56 79L181 184Q187 174 196 167Q205 160 215 155Q225 150 235.5 148Q246 146 255 146Q283 146 303 157.5Q323 169 336.5 191Q350 213 357.5 243.5Q365 274 368 313Z" glyph-name="nine" horiz-adv-x="536" unicode="9" /><glyph d="M264 276Q283 276 298 282Q313 288 323 299.5Q333 311 338.5 327Q344 343 344 362Q344 382 339 398.5Q334 415 324 426.5Q314 438 299 444Q284 450 264 450Q243 450 227 444Q211 438 201 426.5Q191 415 186 399Q181 383 181 362Q181 343 186.5 327Q192 311 202 299.5Q212 288 228 282Q244 276 264 276ZM359 218H357Q346 203 331.5 189.5Q317 176 299.5 166.5Q282 157 262 151.5Q242 146 221 146Q172 146 134.5 162Q97 178 72 206.5Q47 235 34.5 273Q22 311 22 355Q22 407 37.5 451.5Q53 496 83.5 529.5Q114 563 159.5 581.5Q205 600 264 600Q323 600 370 576Q417 552 448.5 508Q480 464 496.5 404Q513 344 513 271Q513 188 496.5 119Q480 50 446 -1.5Q412 -53 360 -81Q308 -109 238 -109Q206 -109 177.5 -102.5Q149 -96 125 -82.5Q101 -69 80 -50Q59 -31 41 -6L172 89Q178 79 187 72Q196 65 206 60Q216 55 226.5 53Q237 51 246 51Q274 51 294 62.5Q314 74 327.5 96Q341 118 348.5 148.5Q356 179 359 218Z" glyph-name="nine.osf" horiz-adv-x="535" /><glyph d="M308 207H140L115 121H72L96 207H10V331H132L146 380H10V504H182L207 591H251L226 504H308V380H190L176 331H308Z" glyph-name="notequal" horiz-adv-x="318" unicode="&#8800;" /><glyph d="M531 0H365V384Q365 399 361.5 413.5Q358 428 350 439.5Q342 451 329 458Q316 465 298 465Q282 465 270 459.5Q258 454 250.5 444.5Q243 435 239.5 423.5Q236 412 235 399V0H69V507Q69 525 67.5 540Q66 555 64.5 565Q63 575 60 586H203Q208 574 210.5 564.5Q213 555 215.5 542Q218 529 219 514H221Q230 531 242 546.5Q254 562 271 574Q288 586 309 593Q330 600 356 600Q401 600 434.5 583.5Q468 567 489.5 537Q511 507 521 466Q531 425 531 376ZM374 778H465Q465 748 459.5 724.5Q454 701 442 684.5Q430 668 410 659Q390 650 361 650Q345 650 330 653Q315 656 293 663.5Q271 671 266.5 672.5Q262 674 255 674Q251 674 248.5 672.5Q246 671 244 668.5Q242 666 241.5 663.5Q241 661 241 659H150Q150 689 155 712.5Q160 736 171.5 753Q183 770 203 779Q223 788 253 788Q270 788 285 784.5Q300 781 322.5 773.5Q345 766 349 764.5Q353 763 360 763Q364 763 366.5 764.5Q369 766 370.5 768.5Q372 771 373 773.5Q374 776 374 778Z" glyph-name="ntilde" horiz-adv-x="597" unicode="&#241;" /><glyph d="M596 232H468L445 108H324L347 232H256L233 108H112L135 232H24L32 328H153L175 443H64L73 539H193L217 665H339L315 539H405L429 665H551L527 539H646L636 443H509L487 328H605ZM365 328 387 443H297L275 328Z" glyph-name="numbersign" horiz-adv-x="657" unicode="#" /><glyph d="M260 135Q285 135 300 149Q315 163 322.5 186.5Q330 210 332 235.5Q334 261 334 294Q334 325 332 350.5Q330 376 322.5 399.5Q315 423 300 438Q285 453 260 453Q236 453 221 438Q206 423 198.5 399.5Q191 376 189 350Q187 324 187 294Q187 267 189 241Q191 215 198.5 191Q206 167 221 151Q236 135 260 135ZM260 -14Q198 -14 152 8Q106 30 77 70.5Q48 111 34 167.5Q20 224 20 294Q20 364 34 420Q48 476 77 516.5Q106 557 152 578.5Q198 600 260 600Q322 600 368 578.5Q414 557 443.5 516.5Q473 476 487 420Q501 364 501 294Q501 224 487 167.5Q473 111 443.5 70.5Q414 30 368 8Q322 -14 260 -14Z" glyph-name="o" horiz-adv-x="521" unicode="o" /><glyph d="M260 135Q285 135 300 149Q315 163 322.5 186.5Q330 210 332 235.5Q334 261 334 294Q334 325 332 350.5Q330 376 322.5 399.5Q315 423 300 438Q285 453 260 453Q236 453 221 438Q206 423 198.5 399.5Q191 376 189 350Q187 324 187 294Q187 267 189 241Q191 215 198.5 191Q206 167 221 151Q236 135 260 135ZM260 -14Q198 -14 152 8Q106 30 77 70.5Q48 111 34 167.5Q20 224 20 294Q20 364 34 420Q48 476 77 516.5Q106 557 152 578.5Q198 600 260 600Q322 600 368 578.5Q414 557 443.5 516.5Q473 476 487 420Q501 364 501 294Q501 224 487 167.5Q473 111 443.5 70.5Q414 30 368 8Q322 -14 260 -14ZM402 709 162 607 114 710 346 828Z" glyph-name="oacute" horiz-adv-x="521" unicode="&#243;" /><glyph d="M260 135Q285 135 300 149Q315 163 322.5 186.5Q330 210 332 235.5Q334 261 334 294Q334 325 332 350.5Q330 376 322.5 399.5Q315 423 300 438Q285 453 260 453Q236 453 221 438Q206 423 198.5 399.5Q191 376 189 350Q187 324 187 294Q187 267 189 241Q191 215 198.5 191Q206 167 221 151Q236 135 260 135ZM260 -14Q198 -14 152 8Q106 30 77 70.5Q48 111 34 167.5Q20 224 20 294Q20 364 34 420Q48 476 77 516.5Q106 557 152 578.5Q198 600 260 600Q322 600 368 578.5Q414 557 443.5 516.5Q473 476 487 420Q501 364 501 294Q501 224 487 167.5Q473 111 443.5 70.5Q414 30 368 8Q322 -14 260 -14ZM363 616 314 668Q303 680 293 691Q283 702 276 710Q269 718 261 728H257Q249 718 242 710Q235 702 225 691Q215 680 204 668L155 616L72 710L214 822H304L446 710Z" glyph-name="ocircumflex" horiz-adv-x="521" unicode="&#244;" /><glyph d="M260 135Q285 135 300 149Q315 163 322.5 186.5Q330 210 332 235.5Q334 261 334 294Q334 325 332 350.5Q330 376 322.5 399.5Q315 423 300 438Q285 453 260 453Q236 453 221 438Q206 423 198.5 399.5Q191 376 189 350Q187 324 187 294Q187 267 189 241Q191 215 198.5 191Q206 167 221 151Q236 135 260 135ZM260 -14Q198 -14 152 8Q106 30 77 70.5Q48 111 34 167.5Q20 224 20 294Q20 364 34 420Q48 476 77 516.5Q106 557 152 578.5Q198 600 260 600Q322 600 368 578.5Q414 557 443.5 516.5Q473 476 487 420Q501 364 501 294Q501 224 487 167.5Q473 111 443.5 70.5Q414 30 368 8Q322 -14 260 -14ZM244 706Q244 690 238.5 677Q233 664 223 654.5Q213 645 199 640.5Q185 636 168 636Q152 636 138 640.5Q124 645 113.5 654.5Q103 664 97.5 677Q92 690 92 706Q92 723 97.5 736.5Q103 750 113.5 760Q124 770 138 775Q152 780 168 780Q185 780 199 775Q213 770 223 760Q233 750 238.5 736.5Q244 723 244 706ZM432 706Q432 690 426.5 677Q421 664 411 654.5Q401 645 387 640.5Q373 636 356 636Q340 636 326 640.5Q312 645 301.5 654.5Q291 664 285.5 677Q280 690 280 706Q280 723 285.5 736.5Q291 750 301.5 760Q312 770 326 775Q340 780 356 780Q373 780 387 775Q401 770 411 760Q421 750 426.5 736.5Q432 723 432 706Z" glyph-name="odieresis" horiz-adv-x="521" unicode="&#246;" /><glyph d="M798 252H509Q511 227 516 206.5Q521 186 531 169.5Q541 153 557.5 143.5Q574 134 598 134Q612 134 623.5 138Q635 142 645 149.5Q655 157 664.5 168.5Q674 180 685 197L793 97Q773 73 753.5 54Q734 35 712 20.5Q690 6 665 -2Q640 -10 613 -10Q578 -10 549 0Q520 10 497.5 29Q475 48 457 75Q439 102 426 138H424Q415 104 401 77Q387 50 366.5 30.5Q346 11 316.5 0Q287 -11 249 -11Q198 -11 157 8.5Q116 28 87.5 67Q59 106 44 163Q29 220 29 293Q29 361 43.5 417Q58 473 86 513Q114 553 155 574.5Q196 596 248 596Q285 596 314.5 584.5Q344 573 365 553.5Q386 534 400.5 508.5Q415 483 423 453H426Q435 482 451.5 507.5Q468 533 490.5 553Q513 573 541.5 584.5Q570 596 602 596Q663 596 702.5 566Q742 536 762.5 488.5Q783 441 790.5 388.5Q798 336 798 282ZM271 139Q295 139 310 153Q325 167 332 190Q339 213 341 237.5Q343 262 343 293Q343 324 341 349Q339 374 332 397Q325 420 309.5 434.5Q294 449 270 449Q246 449 230.5 435Q215 421 207.5 398.5Q200 376 198 351Q196 326 196 297Q196 267 198.5 241.5Q201 216 208 192.5Q215 169 230.5 154Q246 139 271 139ZM511 347H641Q641 376 637 398.5Q633 421 625.5 437.5Q618 454 606 463Q594 472 579 472Q563 472 551 463Q539 454 530.5 437.5Q522 421 517.5 398.5Q513 376 511 347Z" glyph-name="oe" horiz-adv-x="827" unicode="&#339;" /><glyph d="M195 -92 228 -247Q218 -250 208 -252Q198 -254 188.5 -255Q179 -256 170.5 -256.5Q162 -257 155 -257Q116 -257 84.5 -245Q53 -233 32 -211Q11 -189 0.5 -160Q-10 -131 -10 -97Q-10 -67 -1.5 -39Q7 -11 24.5 12.5Q42 36 69 53.5Q96 71 132 79L160 0Q147 -4 137.5 -10Q128 -16 122.5 -23Q117 -30 114.5 -38Q112 -46 112 -54Q112 -63 115 -70.5Q118 -78 124 -84Q130 -90 139.5 -93.5Q149 -97 162 -97Q165 -97 169 -97Q173 -97 177 -96Q181 -95 185.5 -94Q190 -93 195 -92Z" glyph-name="ogonek" horiz-adv-x="257" unicode="&#731;" /><glyph d="M260 135Q285 135 300 149Q315 163 322.5 186.5Q330 210 332 235.5Q334 261 334 294Q334 325 332 350.5Q330 376 322.5 399.5Q315 423 300 438Q285 453 260 453Q236 453 221 438Q206 423 198.5 399.5Q191 376 189 350Q187 324 187 294Q187 267 189 241Q191 215 198.5 191Q206 167 221 151Q236 135 260 135ZM260 -14Q198 -14 152 8Q106 30 77 70.5Q48 111 34 167.5Q20 224 20 294Q20 364 34 420Q48 476 77 516.5Q106 557 152 578.5Q198 600 260 600Q322 600 368 578.5Q414 557 443.5 516.5Q473 476 487 420Q501 364 501 294Q501 224 487 167.5Q473 111 443.5 70.5Q414 30 368 8Q322 -14 260 -14ZM359 607 119 709 175 828 407 710Z" glyph-name="ograve" horiz-adv-x="521" unicode="&#242;" /><glyph d="M236 0H70V540H23V700H236Z" glyph-name="one" horiz-adv-x="286" unicode="1" /><glyph d="M230 0H64V426H21V586H230Z" glyph-name="one.osf" horiz-adv-x="281" /><glyph d="M157 385H61V609H31V700H157ZM110 0 474 700H365L2 0ZM488 0H290V2L399 200Q400 202 401.5 205.5Q403 209 404.5 212.5Q406 216 407 220Q408 224 408 228Q408 231 407 233.5Q406 236 403.5 237.5Q401 239 398.5 240Q396 241 393 241Q388 241 384 239Q380 237 376 233Q372 229 369 221.5Q366 214 364 204L288 238Q295 257 303.5 272Q312 287 324.5 299Q337 311 354.5 318Q372 325 395 325Q419 325 438 317.5Q457 310 470 296.5Q483 283 489.5 265.5Q496 248 496 229Q496 217 493.5 206Q491 195 487 183.5Q483 172 477.5 161.5Q472 151 465 139Q460 130 454 120.5Q448 111 443 104Q438 97 431 87V86H488Z" glyph-name="onehalf" horiz-adv-x="523" unicode="&#189;" /><glyph d="M443 0H355V42H243L355 316H443V135H466V42H443ZM366 125V201H364L340 127V125ZM157 385H61V609H31V700H157ZM110 0 474 700H365L2 0Z" glyph-name="onequarter" horiz-adv-x="485" unicode="&#188;" /><glyph d="M147 385H51V609H21V700H147Z" glyph-name="onesuperior" horiz-adv-x="173" unicode="&#185;" /><glyph d="M259 383H164L158 427H113L107 383H12L95 700H176ZM119 492H152Q151 501 148 521.5Q145 542 143 554Q141 566 139.5 582Q138 598 137 613H135Q134 598 132 581.5Q130 565 128 550Q126 535 119 492Z" glyph-name="ordfeminine" horiz-adv-x="271" unicode="&#170;" /><glyph d="M141 371Q109 371 86.5 383.5Q64 396 51.5 419Q39 442 33.5 472.5Q28 503 28 541Q28 579 33.5 609Q39 639 51.5 662Q64 685 86.5 697.5Q109 710 141 710Q174 710 196.5 697.5Q219 685 232 662Q245 639 250.5 609Q256 579 256 541Q256 503 250.5 472.5Q245 442 232 419Q219 396 196.5 383.5Q174 371 141 371ZM141 455Q148 455 153 461Q158 467 161 478Q164 489 165.5 504.5Q167 520 167 541Q167 562 165.5 577Q164 592 161 602.5Q158 613 153 618Q148 623 141 623Q135 623 130 618Q125 613 122 602.5Q119 592 117.5 576.5Q116 561 116 541Q116 521 117.5 505Q119 489 122 478Q125 467 130 461Q135 455 141 455Z" glyph-name="ordmasculine" horiz-adv-x="283" unicode="&#186;" /><glyph d="M260 -14Q198 -14 152 8Q106 30 77 70.5Q48 111 34 167.5Q20 224 20 294Q20 364 34 420Q48 476 77 516.5Q106 557 152 578.5Q198 600 260 600Q322 600 368 578.5Q414 557 443.5 516.5Q473 476 487 420Q501 364 501 294Q501 224 487 167.5Q473 111 443.5 70.5Q414 30 368 8Q322 -14 260 -14ZM328 378 206 172Q210 163 215.5 156.5Q221 150 227.5 145Q234 140 242 137.5Q250 135 260 135Q285 135 300 149Q315 163 322.5 186.5Q330 210 332 235.5Q334 261 334 294Q334 305 333.5 315.5Q333 326 332.5 336.5Q332 347 331 357.5Q330 368 328 378ZM191 224 310 426Q306 432 301 437Q296 442 289.5 445.5Q283 449 275.5 451Q268 453 260 453Q236 453 221 438Q206 423 198.5 399.5Q191 376 189 350Q187 324 187 294Q187 286 187 277.5Q187 269 187.5 260.5Q188 252 189 242.5Q190 233 191 224Z" glyph-name="oslash" horiz-adv-x="521" unicode="&#248;" /><glyph d="M260 135Q285 135 300 149Q315 163 322.5 186.5Q330 210 332 235.5Q334 261 334 294Q334 325 332 350.5Q330 376 322.5 399.5Q315 423 300 438Q285 453 260 453Q236 453 221 438Q206 423 198.5 399.5Q191 376 189 350Q187 324 187 294Q187 267 189 241Q191 215 198.5 191Q206 167 221 151Q236 135 260 135ZM260 -14Q198 -14 152 8Q106 30 77 70.5Q48 111 34 167.5Q20 224 20 294Q20 364 34 420Q48 476 77 516.5Q106 557 152 578.5Q198 600 260 600Q322 600 368 578.5Q414 557 443.5 516.5Q473 476 487 420Q501 364 501 294Q501 224 487 167.5Q473 111 443.5 70.5Q414 30 368 8Q322 -14 260 -14ZM325 774H416Q416 744 410.5 720.5Q405 697 393 680.5Q381 664 361 655Q341 646 312 646Q296 646 281 649Q266 652 244 659.5Q222 667 217.5 668.5Q213 670 206 670Q202 670 199.5 668.5Q197 667 195 664.5Q193 662 192.5 659.5Q192 657 192 655H101Q101 685 106 708.5Q111 732 122.5 749Q134 766 154 775Q174 784 204 784Q221 784 236 780.5Q251 777 273.5 769.5Q296 762 300 760.5Q304 759 311 759Q315 759 317.5 760.5Q320 762 321.5 764.5Q323 767 324 769.5Q325 772 325 774Z" glyph-name="otilde" horiz-adv-x="521" unicode="&#245;" /><glyph d="M210 -200H44V507Q44 524 42.5 538.5Q41 553 39.5 563Q38 573 35 586H178Q182 575 184 566Q186 557 188 543.5Q190 530 191 514H193Q199 533 209.5 548.5Q220 564 236 575.5Q252 587 273 593.5Q294 600 319 600Q365 600 400.5 576.5Q436 553 460 511Q484 469 496 412Q508 355 508 288Q508 221 496 165.5Q484 110 461 70Q438 30 403.5 8Q369 -14 325 -14Q301 -14 282 -10Q263 -6 250 1Q237 8 227.5 17Q218 26 211 37H209Q209 27 209.5 20.5Q210 14 210 7.5Q210 1 210 -3ZM210 386V179Q210 165 213.5 152Q217 139 224 128Q231 117 242.5 111Q254 105 269 105Q294 105 309.5 121.5Q325 138 331.5 163.5Q338 189 339.5 215.5Q341 242 341 277Q341 311 339.5 339.5Q338 368 331 397.5Q324 427 309 446.5Q294 466 268 466Q252 466 240.5 458.5Q229 451 222.5 439Q216 427 213 413.5Q210 400 210 386Z" glyph-name="p" horiz-adv-x="528" unicode="p" /><glyph d="M484 700V0H444V700ZM414 700V0H262V195H253Q196 195 151.5 215.5Q107 236 78 272Q49 308 34.5 354.5Q20 401 20 454Q20 516 40 563Q60 610 96.5 640Q133 670 182.5 685Q232 700 293 700Z" glyph-name="paragraph" horiz-adv-x="515" unicode="&#182;" /><glyph d="M255 -32 136 -100Q118 -70 99.5 -26.5Q81 17 65 75Q49 133 39 203.5Q29 274 29 350Q29 426 39 496Q49 566 65 624Q81 682 99.5 726Q118 770 136 800L255 732Q237 698 223.5 655Q210 612 201.5 563Q193 514 189 460.5Q185 407 185 350Q185 293 189 239.5Q193 186 201.5 137Q210 88 223.5 45Q237 2 255 -32Z" glyph-name="parenleft" horiz-adv-x="263" unicode="(" /><glyph d="M127 -100 8 -32Q26 2 39.5 45Q53 88 61.5 137Q70 186 74 239.5Q78 293 78 350Q78 407 74 460.5Q70 514 61.5 563Q53 612 39.5 655Q26 698 8 732L127 800Q145 770 163.5 726Q182 682 198 624Q214 566 224 496Q234 426 234 350Q234 274 224 203.5Q214 133 198 75Q182 17 163.5 -26.5Q145 -70 127 -100Z" glyph-name="parenright" horiz-adv-x="263" unicode=")" /><glyph d="M168 0 608 700H466L28 0ZM160 369Q122 369 96.5 383.5Q71 398 57 423Q43 448 37.5 477.5Q32 507 32 541Q32 575 37.5 605Q43 635 57 660Q71 685 96.5 699.5Q122 714 160 714Q198 714 224 699.5Q250 685 264 660Q278 635 283.5 605Q289 575 289 541Q289 507 283.5 477.5Q278 448 264 423Q250 398 224 383.5Q198 369 160 369ZM160 479Q165 479 168 482Q171 485 173 492.5Q175 500 176 511.5Q177 523 177 541Q177 558 176 570Q175 582 173 589Q171 596 168 599Q165 602 160 602Q155 602 152 599Q149 596 147 589Q145 582 144 570Q143 558 143 541Q143 523 144 511.5Q145 500 147 492.5Q149 485 152 482Q155 479 160 479ZM476 -14Q438 -14 412.5 0.5Q387 15 373 40Q359 65 353.5 94.5Q348 124 348 158Q348 192 353.5 222Q359 252 373 277Q387 302 412.5 316.5Q438 331 476 331Q514 331 540 316.5Q566 302 580 277Q594 252 599.5 222Q605 192 605 158Q605 124 599.5 94.5Q594 65 580 40Q566 15 540 0.5Q514 -14 476 -14ZM476 96Q481 96 484 99Q487 102 489 109.5Q491 117 492 128.5Q493 140 493 158Q493 175 492 187Q491 199 489 206Q487 213 484 216Q481 219 476 219Q471 219 468 216Q465 213 463 206Q461 199 460 187Q459 175 459 158Q459 140 460 128.5Q461 117 463 109.5Q465 102 468 99Q471 96 476 96Z" glyph-name="percent" horiz-adv-x="636" unicode="%" /><glyph d="M124 -14Q104 -14 86 -6Q68 2 54 16Q40 30 32 48Q24 66 24 86Q24 106 32 124Q40 142 54 156Q68 170 86 177.5Q104 185 124 185Q144 185 162 177.5Q180 170 193.5 156Q207 142 214.5 124Q222 106 222 86Q222 66 214.5 48Q207 30 193.5 16Q180 2 162 -6Q144 -14 124 -14Z" glyph-name="period" horiz-adv-x="246" unicode="." /><glyph d="M130 259Q110 259 92 267Q74 275 60 289Q46 303 38 321Q30 339 30 359Q30 379 38 397Q46 415 60 429Q74 443 92 450.5Q110 458 130 458Q150 458 168 450.5Q186 443 199.5 429Q213 415 220.5 397Q228 379 228 359Q228 339 220.5 321Q213 303 199.5 289Q186 275 168 267Q150 259 130 259Z" glyph-name="periodcentered" horiz-adv-x="258" unicode="&#183;" /><glyph d="M766 -14Q728 -14 702.5 0.5Q677 15 663 40Q649 65 643.5 94.5Q638 124 638 158Q638 192 643.5 222Q649 252 663 277Q677 302 702.5 316.5Q728 331 766 331Q804 331 830 316.5Q856 302 870 277Q884 252 889.5 222Q895 192 895 158Q895 124 889.5 94.5Q884 65 870 40Q856 15 830 0.5Q804 -14 766 -14ZM766 96Q771 96 774 99Q777 102 779 109.5Q781 117 782 128.5Q783 140 783 158Q783 175 782 187Q781 199 779 206Q777 213 774 216Q771 219 766 219Q761 219 758 216Q755 213 753 206Q751 199 750 187Q749 175 749 158Q749 140 750 128.5Q751 117 753 109.5Q755 102 758 99Q761 96 766 96ZM174 0 614 700H472L34 0ZM166 369Q128 369 102.5 383.5Q77 398 63 423Q49 448 43.5 477.5Q38 507 38 541Q38 575 43.5 605Q49 635 63 660Q77 685 102.5 699.5Q128 714 166 714Q204 714 230 699.5Q256 685 270 660Q284 635 289.5 605Q295 575 295 541Q295 507 289.5 477.5Q284 448 270 423Q256 398 230 383.5Q204 369 166 369ZM166 479Q171 479 174 482Q177 485 179 492.5Q181 500 182 511.5Q183 523 183 541Q183 558 182 570Q181 582 179 589Q177 596 174 599Q171 602 166 602Q161 602 158 599Q155 596 153 589Q151 582 150 570Q149 558 149 541Q149 523 150 511.5Q151 500 153 492.5Q155 485 158 482Q161 479 166 479ZM482 -14Q444 -14 418.5 0.5Q393 15 379 40Q365 65 359.5 94.5Q354 124 354 158Q354 192 359.5 222Q365 252 379 277Q393 302 418.5 316.5Q444 331 482 331Q520 331 546 316.5Q572 302 586 277Q600 252 605.5 222Q611 192 611 158Q611 124 605.5 94.5Q600 65 586 40Q572 15 546 0.5Q520 -14 482 -14ZM482 96Q487 96 490 99Q493 102 495 109.5Q497 117 498 128.5Q499 140 499 158Q499 175 498 187Q497 199 495 206Q493 213 490 216Q487 219 482 219Q477 219 474 216Q471 213 469 206Q467 199 466 187Q465 175 465 158Q465 140 466 128.5Q467 117 469 109.5Q471 102 474 99Q477 96 482 96Z" glyph-name="perthousand" horiz-adv-x="922" unicode="&#8240;" /><glyph d="M745 350Q745 274 717.5 208Q690 142 641 93Q592 44 525.5 17Q459 -10 384 -10Q308 -10 242 17Q176 44 126.5 93Q77 142 49.5 208Q22 274 22 350Q22 425 49.5 491Q77 557 126.5 606.5Q176 656 242 683Q308 710 384 710Q459 710 525.5 683Q592 656 641 606.5Q690 557 717.5 491Q745 425 745 350ZM384 81Q440 81 488 101Q536 121 571 158Q606 195 625.5 244Q645 293 645 350Q645 406 625.5 455.5Q606 505 571 541.5Q536 578 488 598.5Q440 619 384 619Q327 619 278.5 598.5Q230 578 194 541.5Q158 505 138.5 455.5Q119 406 119 350Q119 293 138.5 244Q158 195 194 158Q230 121 278.5 101Q327 81 384 81ZM373 195H277V517H389Q421 517 445.5 510.5Q470 504 487.5 490.5Q505 477 514 455Q523 433 523 402Q523 381 517.5 361.5Q512 342 497.5 325Q483 308 456.5 298Q430 288 389 288H373ZM373 379H392Q403 379 410.5 381Q418 383 421.5 386Q425 389 426 393Q427 397 427 402Q427 408 426 412Q425 416 421.5 419.5Q418 423 411 424.5Q404 426 392 426H373Z" glyph-name="pi" horiz-adv-x="764" unicode="&#960;" /><glyph d="M229 190H111V293H9V405H111V508H229V405H331V293H229Z" glyph-name="plus" horiz-adv-x="340" unicode="+" /><glyph d="M312 94H46V218H312ZM246 286H108V387H12V511H108V612H246V511H342V387H246Z" glyph-name="plusminus" horiz-adv-x="354" unicode="&#177;" /><glyph d="M484 -200H318V1Q318 5 318 11.5Q318 18 318.5 24.5Q319 31 319 41H317Q310 30 300.5 20.5Q291 11 277.5 3Q264 -5 245.5 -9.5Q227 -14 203 -14Q159 -14 124.5 8Q90 30 67 70Q44 110 32 165.5Q20 221 20 288Q20 355 32 412Q44 469 68 511Q92 553 127.5 576.5Q163 600 209 600Q234 600 255 593.5Q276 587 292 575.5Q308 564 318.5 548.5Q329 533 335 514H337Q338 530 340 543.5Q342 557 344 566Q346 575 350 586H493Q490 573 488.5 563Q487 553 485.5 538.5Q484 524 484 507ZM318 184V391Q318 405 315 418.5Q312 432 305.5 444Q299 456 287.5 463.5Q276 471 260 471Q234 471 219 451.5Q204 432 197 402.5Q190 373 188.5 344.5Q187 316 187 282Q187 247 188.5 220.5Q190 194 196.5 168.5Q203 143 218.5 126.5Q234 110 259 110Q274 110 285.5 116Q297 122 304 133Q311 144 314.5 157Q318 170 318 184Z" glyph-name="q" horiz-adv-x="528" unicode="q" /><glyph d="M309 267 175 194Q163 207 154 219Q145 231 138.5 244Q132 257 129 270.5Q126 284 126 299Q126 338 148 366Q170 394 214 426.5Q258 459 275 474.5Q292 490 292 513Q292 521 289 529Q286 537 279.5 543Q273 549 263.5 553Q254 557 241 557Q225 557 212 551Q199 545 188.5 533.5Q178 522 169.5 505Q161 488 155 466L20 555Q39 590 60.5 617.5Q82 645 109.5 666Q137 687 171 698.5Q205 710 247 710Q295 710 334 696Q373 682 400.5 657Q428 632 442 597.5Q456 563 456 522Q456 471 434 437.5Q412 404 353.5 361Q295 318 295 299Q295 295 296 290.5Q297 286 299 282Q301 278 303.5 274Q306 270 309 267ZM232 -14Q212 -14 194 -6Q176 2 162 16Q148 30 140 48Q132 66 132 86Q132 106 140 124Q148 142 162 156Q176 170 194 177.5Q212 185 232 185Q252 185 270 177.5Q288 170 301.5 156Q315 142 322.5 124Q330 106 330 86Q330 66 322.5 48Q315 30 301.5 16Q288 2 270 -6Q252 -14 232 -14Z" glyph-name="question" horiz-adv-x="465" unicode="?" /><glyph d="M310 230 445 141Q426 106 404.5 78.5Q383 51 355.5 30Q328 9 294 -2.5Q260 -14 218 -14Q170 -14 131 0Q92 14 64.5 39Q37 64 23 98.5Q9 133 9 174Q9 225 31 258.5Q53 292 111.5 335Q170 378 170 397Q170 401 169 405.5Q168 410 166 414Q164 418 161.5 422Q159 426 156 429L290 502Q302 489 311 477Q320 465 326.5 452Q333 439 336 425.5Q339 412 339 397Q339 358 317 330Q295 302 251 269.5Q207 237 190 221.5Q173 206 173 183Q173 175 176 167Q179 159 185.5 153Q192 147 201.5 143Q211 139 224 139Q240 139 253 145Q266 151 276.5 162.5Q287 174 295.5 191Q304 208 310 230ZM224 511Q204 511 186 519Q168 527 154 541Q140 555 132 573Q124 591 124 611Q124 631 132 649Q140 667 154 681Q168 695 186 702.5Q204 710 224 710Q244 710 262 702.5Q280 695 293.5 681Q307 667 314.5 649Q322 631 322 611Q322 591 314.5 573Q307 555 293.5 541Q280 527 262 519Q244 511 224 511Z" glyph-name="questiondown" horiz-adv-x="465" unicode="&#191;" /><glyph d="M148 492H18L35 700H176ZM305 492H175L192 700H333Z" glyph-name="quotedbl" horiz-adv-x="337" unicode="&quot;" /><glyph d="M31 -135 40 -72Q47 -73 47.5 -73Q48 -73 50.5 -73.5Q53 -74 55.5 -74Q58 -74 61 -74Q76 -74 89.5 -69.5Q103 -65 113.5 -55.5Q124 -46 130.5 -32Q137 -18 138 -1L136 0Q134 -1 130.5 -2Q127 -3 123 -3.5Q119 -4 115.5 -4Q112 -4 109 -4Q93 -4 77.5 2.5Q62 9 50 21.5Q38 34 31 51Q24 68 24 89Q24 110 31 128Q38 146 51 160Q64 174 82.5 181.5Q101 189 123 189Q145 189 164 181Q183 173 197 156Q211 139 218.5 114.5Q226 90 226 57Q226 15 213.5 -20.5Q201 -56 177.5 -82.5Q154 -109 123.5 -123.5Q93 -138 57 -138Q50 -137 45.5 -136.5Q41 -136 37 -135.5Q33 -135 31 -135ZM260 -135 269 -72Q276 -73 276.5 -73Q277 -73 279.5 -73.5Q282 -74 284.5 -74Q287 -74 290 -74Q305 -74 318.5 -69.5Q332 -65 342.5 -55.5Q353 -46 359.5 -32Q366 -18 367 -1L365 0Q363 -1 359.5 -2Q356 -3 352 -3.5Q348 -4 344.5 -4Q341 -4 338 -4Q322 -4 306.5 2.5Q291 9 279 21.5Q267 34 260 51Q253 68 253 89Q253 110 260 128Q267 146 280 160Q293 174 311.5 181.5Q330 189 352 189Q374 189 393 181Q412 173 426 156Q440 139 447.5 114.5Q455 90 455 57Q455 15 442.5 -20.5Q430 -56 406.5 -82.5Q383 -109 352.5 -123.5Q322 -138 286 -138Q279 -137 274.5 -136.5Q270 -136 266 -135.5Q262 -135 260 -135Z" glyph-name="quotedblbase" horiz-adv-x="475" unicode="&#8222;" /><glyph d="M222 711 213 648Q206 649 205.5 649Q205 649 202.5 649.5Q200 650 197.5 650Q195 650 192 650Q177 650 163.5 645.5Q150 641 139.5 631.5Q129 622 122.5 608Q116 594 115 577L117 576Q119 577 122.5 578Q126 579 130 579.5Q134 580 137.5 580Q141 580 144 580Q160 580 175.5 573.5Q191 567 203 554.5Q215 542 222 525Q229 508 229 487Q229 466 222 448Q215 430 202 416Q189 402 170.5 394.5Q152 387 130 387Q108 387 89 395Q70 403 56 420Q42 437 34.5 461.5Q27 486 27 519Q27 561 39.5 596.5Q52 632 75.5 658.5Q99 685 129.5 699.5Q160 714 196 714Q203 713 207.5 712.5Q212 712 216 711.5Q220 711 222 711ZM453 711 444 648Q437 649 436.5 649Q436 649 433.5 649.5Q431 650 428.5 650Q426 650 423 650Q408 650 394.5 645.5Q381 641 370.5 631.5Q360 622 353.5 608Q347 594 346 577L348 576Q350 577 353.5 578Q357 579 361 579.5Q365 580 368.5 580Q372 580 375 580Q391 580 406.5 573.5Q422 567 434 554.5Q446 542 453 525Q460 508 460 487Q460 466 453 448Q446 430 433 416Q420 402 401.5 394.5Q383 387 361 387Q339 387 320 395Q301 403 287 420Q273 437 265.5 461.5Q258 486 258 519Q258 561 270.5 596.5Q283 632 306.5 658.5Q330 685 360.5 699.5Q391 714 427 714Q434 713 438.5 712.5Q443 712 447 711.5Q451 711 453 711Z" glyph-name="quotedblleft" horiz-adv-x="480" unicode="&#8220;" /><glyph d="M27 390 36 453Q43 452 43.5 452Q44 452 46.5 451.5Q49 451 51.5 451Q54 451 57 451Q72 451 85.5 455.5Q99 460 109.5 469.5Q120 479 126.5 493Q133 507 134 524L132 525Q130 524 126.5 523Q123 522 119 521.5Q115 521 111.5 521Q108 521 105 521Q89 521 73.5 527.5Q58 534 46 546.5Q34 559 27 576Q20 593 20 614Q20 635 27 653Q34 671 47 685Q60 699 78.5 706.5Q97 714 119 714Q141 714 160 706Q179 698 193 681Q207 664 214.5 639.5Q222 615 222 582Q222 540 209.5 504.5Q197 469 173.5 442.5Q150 416 119.5 401.5Q89 387 53 387Q46 388 41.5 388.5Q37 389 33 389.5Q29 390 27 390ZM258 390 267 453Q274 452 274.5 452Q275 452 277.5 451.5Q280 451 282.5 451Q285 451 288 451Q303 451 316.5 455.5Q330 460 340.5 469.5Q351 479 357.5 493Q364 507 365 524L363 525Q361 524 357.5 523Q354 522 350 521.5Q346 521 342.5 521Q339 521 336 521Q320 521 304.5 527.5Q289 534 277 546.5Q265 559 258 576Q251 593 251 614Q251 635 258 653Q265 671 278 685Q291 699 309.5 706.5Q328 714 350 714Q372 714 391 706Q410 698 424 681Q438 664 445.5 639.5Q453 615 453 582Q453 540 440.5 504.5Q428 469 404.5 442.5Q381 416 350.5 401.5Q320 387 284 387Q277 388 272.5 388.5Q268 389 264 389.5Q260 390 258 390Z" glyph-name="quotedblright" horiz-adv-x="480" unicode="&#8221;" /><glyph d="M222 711 213 648Q206 649 205.5 649Q205 649 202.5 649.5Q200 650 197.5 650Q195 650 192 650Q177 650 163.5 645.5Q150 641 139.5 631.5Q129 622 122.5 608Q116 594 115 577L117 576Q119 577 122.5 578Q126 579 130 579.5Q134 580 137.5 580Q141 580 144 580Q160 580 175.5 573.5Q191 567 203 554.5Q215 542 222 525Q229 508 229 487Q229 466 222 448Q215 430 202 416Q189 402 170.5 394.5Q152 387 130 387Q108 387 89 395Q70 403 56 420Q42 437 34.5 461.5Q27 486 27 519Q27 561 39.5 596.5Q52 632 75.5 658.5Q99 685 129.5 699.5Q160 714 196 714Q203 713 207.5 712.5Q212 712 216 711.5Q220 711 222 711Z" glyph-name="quoteleft" horiz-adv-x="249" unicode="&#8216;" /><glyph d="M27 391 36 454Q43 453 43.5 453Q44 453 46.5 452.5Q49 452 51.5 452Q54 452 57 452Q72 452 85.5 456.5Q99 461 109.5 470.5Q120 480 126.5 494Q133 508 134 525L132 526Q130 525 126.5 524Q123 523 119 522.5Q115 522 111.5 522Q108 522 105 522Q89 522 73.5 528.5Q58 535 46 547.5Q34 560 27 577Q20 594 20 615Q20 636 27 654Q34 672 47 686Q60 700 78.5 707.5Q97 715 119 715Q141 715 160 707Q179 699 193 682Q207 665 214.5 640.5Q222 616 222 583Q222 541 209.5 505.5Q197 470 173.5 443.5Q150 417 119.5 402.5Q89 388 53 388Q46 389 41.5 389.5Q37 390 33 390.5Q29 391 27 391Z" glyph-name="quoteright" horiz-adv-x="249" unicode="&#8217;" /><glyph d="M40 -135 49 -72Q56 -73 56.5 -73Q57 -73 59.5 -73.5Q62 -74 64.5 -74Q67 -74 70 -74Q85 -74 98.5 -69.5Q112 -65 122.5 -55.5Q133 -46 139.5 -32Q146 -18 147 -1L145 0Q143 -1 139.5 -2Q136 -3 132 -3.5Q128 -4 124.5 -4Q121 -4 118 -4Q102 -4 86.5 2.5Q71 9 59 21.5Q47 34 40 51Q33 68 33 89Q33 110 40 128Q47 146 60 160Q73 174 91.5 181.5Q110 189 132 189Q154 189 173 181Q192 173 206 156Q220 139 227.5 114.5Q235 90 235 57Q235 15 222.5 -20.5Q210 -56 186.5 -82.5Q163 -109 132.5 -123.5Q102 -138 66 -138Q59 -137 54.5 -136.5Q50 -136 46 -135.5Q42 -135 40 -135Z" glyph-name="quotesinglbase" horiz-adv-x="281" unicode="&#8218;" /><glyph d="M148 492H18L35 700H176Z" glyph-name="quotesingle" horiz-adv-x="180" unicode="'" /><glyph d="M210 0H44V507Q44 524 42.5 538.5Q41 553 39.5 563Q38 573 35 586H178Q183 577 186 568Q189 559 192.5 545.5Q196 532 199 514H201Q213 534 229 549.5Q245 565 264 576Q283 587 305.5 593Q328 599 354 600L332 398Q326 400 320.5 401.5Q315 403 309 404Q303 405 296 405.5Q289 406 282 406Q265 406 251.5 401.5Q238 397 228.5 389Q219 381 214.5 368.5Q210 356 210 341Z" glyph-name="r" horiz-adv-x="358" unicode="r" /><glyph d="M745 350Q745 274 717.5 208Q690 142 641 93Q592 44 525.5 17Q459 -10 384 -10Q308 -10 242 17Q176 44 126.5 93Q77 142 49.5 208Q22 274 22 350Q22 425 49.5 491Q77 557 126.5 606.5Q176 656 242 683Q308 710 384 710Q459 710 525.5 683Q592 656 641 606.5Q690 557 717.5 491Q745 425 745 350ZM384 81Q440 81 488 101Q536 121 571 158Q606 195 625.5 244Q645 293 645 350Q645 406 625.5 455.5Q606 505 571 541.5Q536 578 488 598.5Q440 619 384 619Q327 619 278.5 598.5Q230 578 194 541.5Q158 505 138.5 455.5Q119 406 119 350Q119 293 138.5 244Q158 195 194 158Q230 121 278.5 101Q327 81 384 81ZM517 195H414L394 281H368V195H272V517H384Q415 517 440 510Q465 503 482.5 488Q500 473 509 451Q518 429 518 399Q518 380 514.5 365Q511 350 504.5 338Q498 326 490 317Q482 308 472 300ZM368 355H387Q397 355 404 358Q411 361 415 366Q419 371 420.5 377.5Q422 384 422 392Q422 400 420.5 406.5Q419 413 415 418Q411 423 404 426Q397 429 387 429H368Z" glyph-name="registered" horiz-adv-x="767" unicode="&#174;" /><glyph d="M258 876Q258 847 248.5 824Q239 801 221.5 784.5Q204 768 180 759.5Q156 751 127 751Q98 751 74 759.5Q50 768 32 784.5Q14 801 4.5 824Q-5 847 -5 876Q-5 903 4.5 926.5Q14 950 32 967Q50 984 74 993Q98 1002 127 1002Q155 1002 179.5 993Q204 984 221.5 967Q239 950 248.5 926.5Q258 903 258 876ZM160 876Q160 883 157.5 889.5Q155 896 150.5 900Q146 904 140 906.5Q134 909 127 909Q120 909 113.5 906.5Q107 904 102.5 900Q98 896 95.5 889.5Q93 883 93 876Q93 869 95.5 862.5Q98 856 102.5 852Q107 848 113.5 845.5Q120 843 127 843Q134 843 140 845.5Q146 848 150.5 852Q155 856 157.5 862.5Q160 869 160 876Z" glyph-name="ring" horiz-adv-x="251" unicode="&#730;" /><glyph d="M445 509 336 409Q330 418 319.5 428Q309 438 295.5 446Q282 454 266.5 458.5Q251 463 237 463Q226 463 218 460.5Q210 458 204 453.5Q198 449 195 442.5Q192 436 192 429Q192 405 287.5 363.5Q383 322 419 282Q455 242 455 174Q455 134 441.5 99.5Q428 65 401 39.5Q374 14 334 0Q294 -14 243 -14Q204 -14 170 -5.5Q136 3 108 17.5Q80 32 57.5 51Q35 70 16 93L123 207Q138 190 153.5 175.5Q169 161 186 150.5Q203 140 219.5 134Q236 128 252 128Q264 128 272 131Q280 134 285 139Q290 144 292 150Q294 156 294 162Q294 188 283.5 193.5Q273 199 188 240Q103 281 67.5 319.5Q32 358 32 420Q32 456 45 488.5Q58 521 84.5 546.5Q111 572 151 586.5Q191 601 243 601Q274 601 302 595.5Q330 590 355 578.5Q380 567 402.5 550Q425 533 445 509Z" glyph-name="s" horiz-adv-x="470" unicode="s" /><glyph d="M445 509 336 409Q330 418 319.5 428Q309 438 295.5 446Q282 454 266.5 458.5Q251 463 237 463Q226 463 218 460.5Q210 458 204 453.5Q198 449 195 442.5Q192 436 192 429Q192 405 287.5 363.5Q383 322 419 282Q455 242 455 174Q455 134 441.5 99.5Q428 65 401 39.5Q374 14 334 0Q294 -14 243 -14Q204 -14 170 -5.5Q136 3 108 17.5Q80 32 57.5 51Q35 70 16 93L123 207Q138 190 153.5 175.5Q169 161 186 150.5Q203 140 219.5 134Q236 128 252 128Q264 128 272 131Q280 134 285 139Q290 144 292 150Q294 156 294 162Q294 188 283.5 193.5Q273 199 188 240Q103 281 67.5 319.5Q32 358 32 420Q32 456 45 488.5Q58 521 84.5 546.5Q111 572 151 586.5Q191 601 243 601Q274 601 302 595.5Q330 590 355 578.5Q380 567 402.5 550Q425 533 445 509ZM137 848 186 796Q197 784 207 773Q217 762 224 754Q231 746 239 736H243Q251 746 258 754Q265 762 275 773Q285 784 296 796L345 848L428 754L286 642H196L54 754Z" glyph-name="scaron" horiz-adv-x="470" unicode="&#353;" /><glyph d="M424 256V254Q432 248 437.5 238.5Q443 229 446.5 217.5Q450 206 452 193Q454 180 454 167Q454 131 441.5 99Q429 67 403 42.5Q377 18 337 4Q297 -10 243 -10Q206 -10 171 -3Q136 4 105.5 17Q75 30 50.5 48.5Q26 67 9 90L120 198Q132 183 147.5 171Q163 159 180.5 151.5Q198 144 215.5 140.5Q233 137 249 137Q262 137 271.5 139.5Q281 142 287 146.5Q293 151 295.5 156.5Q298 162 298 168Q298 188 199.5 217Q101 246 64 277Q27 308 27 364Q27 380 30.5 394Q34 408 39.5 419.5Q45 431 51.5 440.5Q58 450 67 461V463Q60 472 54.5 482.5Q49 493 45 503.5Q41 514 39.5 525.5Q38 537 38 548Q38 580 51 609.5Q64 639 89 662Q114 685 151 698Q188 711 235 711Q268 711 298 703.5Q328 696 354 681Q380 666 402 642Q424 618 440 586L314 512Q304 527 293 537.5Q282 548 270.5 554Q259 560 248 563Q237 566 225 566Q215 566 206.5 564Q198 562 192.5 558Q187 554 184 549.5Q181 545 181 539Q181 519 279.5 491Q378 463 415 431.5Q452 400 452 341Q452 330 450 318Q448 306 444.5 294.5Q441 283 436 273Q431 263 424 256ZM334 306Q336 329 321 343Q306 357 283.5 364Q261 371 218 381.5Q175 392 154 400Q145 376 160.5 360.5Q176 345 202 337.5Q228 330 272.5 321Q317 312 334 306Z" glyph-name="section" horiz-adv-x="479" unicode="&#167;" /><glyph d="M138 313Q118 313 100 321Q82 329 68 343Q54 357 46 375Q38 393 38 413Q38 433 46 451Q54 469 68 483Q82 497 100 504.5Q118 512 138 512Q158 512 176 504.5Q194 497 207.5 483Q221 469 228.5 451Q236 433 236 413Q236 393 228.5 375Q221 357 207.5 343Q194 329 176 321Q158 313 138 313ZM44 -135 53 -72Q60 -73 60.5 -73Q61 -73 63.5 -73.5Q66 -74 68.5 -74Q71 -74 74 -74Q89 -74 102.5 -69.5Q116 -65 126.5 -55.5Q137 -46 143.5 -32Q150 -18 151 -1L149 0Q147 -1 143.5 -2Q140 -3 136 -3.5Q132 -4 128.5 -4Q125 -4 122 -4Q106 -4 90.5 2.5Q75 9 63 21.5Q51 34 44 51Q37 68 37 89Q37 110 44 128Q51 146 64 160Q77 174 95.5 181.5Q114 189 136 189Q158 189 177 181Q196 173 210 156Q224 139 231.5 114.5Q239 90 239 57Q239 15 226.5 -20.5Q214 -56 190.5 -82.5Q167 -109 136.5 -123.5Q106 -138 70 -138Q63 -137 58.5 -136.5Q54 -136 50 -135.5Q46 -135 44 -135Z" glyph-name="semicolon" horiz-adv-x="273" unicode=";" /><glyph d="M248 0H74L255 547H21V700H471Z" glyph-name="seven" horiz-adv-x="438" unicode="7" /><glyph d="M266 -103H93L247 426H17V586H473Z" glyph-name="seven.osf" horiz-adv-x="455" /><glyph d="M271 136Q292 136 308 143Q324 150 334.5 163Q345 176 350 193.5Q355 211 355 232Q355 251 349.5 268Q344 285 333.5 298Q323 311 307 318.5Q291 326 271 326Q252 326 237.5 318.5Q223 311 213.5 298Q204 285 199 268Q194 251 194 232Q194 211 198.5 193.5Q203 176 212.5 163Q222 150 237 143Q252 136 271 136ZM491 621 366 516Q360 526 351 533Q342 540 332 545Q322 550 311.5 552Q301 554 292 554Q264 554 244 542.5Q224 531 210.5 509Q197 487 189.5 456.5Q182 426 179 387H181Q192 402 206.5 415.5Q221 429 238.5 438.5Q256 448 276 453.5Q296 459 317 459Q365 459 403 441.5Q441 424 466 393.5Q491 363 503.5 323Q516 283 516 239Q516 187 500.5 141Q485 95 454.5 60Q424 25 378.5 5.5Q333 -14 274 -14Q215 -14 168.5 12Q122 38 90 85Q58 132 41.5 195Q25 258 25 331Q25 414 41.5 483.5Q58 553 92 605Q126 657 178 685.5Q230 714 300 714Q331 714 358.5 708Q386 702 409.5 690.5Q433 679 453.5 661.5Q474 644 491 621Z" glyph-name="six" horiz-adv-x="529" unicode="6" /><glyph d="M269 136Q290 136 306 142Q322 148 332 159.5Q342 171 347 187Q352 203 352 224Q352 243 346.5 259Q341 275 331 286.5Q321 298 305 304Q289 310 269 310Q250 310 235 304Q220 298 210 286.5Q200 275 194.5 259Q189 243 189 224Q189 204 194 187.5Q199 171 209 159.5Q219 148 234 142Q249 136 269 136ZM492 592 361 497Q355 507 346 514Q337 521 327 526Q317 531 306.5 533Q296 535 287 535Q259 535 239 523.5Q219 512 205.5 490Q192 468 184.5 437.5Q177 407 174 368H176Q187 383 201.5 396.5Q216 410 233.5 419.5Q251 429 271 434.5Q291 440 312 440Q361 440 398.5 424Q436 408 461 379.5Q486 351 498.5 313Q511 275 511 231Q511 179 495.5 134.5Q480 90 449.5 56.5Q419 23 373.5 4.5Q328 -14 269 -14Q210 -14 163 10Q116 34 84.5 78Q53 122 36.5 182Q20 242 20 315Q20 398 36.5 467Q53 536 87 587.5Q121 639 173 667Q225 695 295 695Q327 695 355.5 688.5Q384 682 408 668.5Q432 655 453 636Q474 617 492 592Z" glyph-name="six.osf" horiz-adv-x="531" /><glyph d="M331 760 176 -60H14L168 760Z" glyph-name="slash" horiz-adv-x="345" unicode="/" /><glyph glyph-name="space" horiz-adv-x="200" unicode=" " /><glyph d="M445 179 494 32Q477 16 462.5 7.5Q448 -1 427 -7.5Q406 -14 382 -14Q362 -14 338 -11.5Q314 -9 278.5 -3.5Q243 2 226 4Q209 6 196 6Q188 6 179 4Q170 2 162 -2Q154 -6 147 -11.5Q140 -17 134 -23L46 100Q62 115 73.5 132.5Q85 150 93 169.5Q101 189 105 212Q109 235 109 261Q109 264 109 266Q109 268 109 270Q109 272 108.5 274.5Q108 277 108 279H32V381H92Q88 400 85.5 414Q83 428 81 443.5Q79 459 77.5 474.5Q76 490 76 506Q76 551 88 588Q100 625 124.5 652.5Q149 680 187.5 695Q226 710 278 710Q318 710 349.5 701Q381 692 404.5 674Q428 656 446 630Q464 604 478 569L334 493Q330 511 324.5 522.5Q319 534 312.5 540Q306 546 299 548Q292 550 283 550Q273 550 265.5 546Q258 542 252.5 534.5Q247 527 244.5 516Q242 505 242 490Q242 479 243 466Q244 453 245 440Q246 427 247 418Q248 409 252 381H360V279H256Q255 261 252.5 245.5Q250 230 245.5 214.5Q241 199 234.5 183Q228 167 219 150Q219 150 219 149.5Q219 149 219.5 149Q220 149 220 148.5Q220 148 220 148Q242 151 287 149Q332 147 351.5 147Q371 147 397 154Q423 161 445 179Z" glyph-name="sterling" horiz-adv-x="514" unicode="&#163;" /><glyph d="M452 157 507 27Q500 19 488.5 10.5Q477 2 460 -6Q443 -14 421 -18.5Q399 -23 374 -23Q346 -23 294.5 -13.5Q243 -4 226.5 -2Q210 0 185.5 -5Q161 -10 143 -32L43 84Q53 93 61 106.5Q69 120 74 135Q79 150 81.5 164Q84 178 84 188Q84 222 83 250Q82 278 80 323Q78 368 78 381Q78 434 92 475Q106 516 133 544Q160 572 199 586Q238 600 288 600Q328 600 359.5 591Q391 582 415.5 562.5Q440 543 458.5 513.5Q477 484 491 443L344 383Q341 399 336.5 411Q332 423 325.5 430.5Q319 438 310.5 442Q302 446 291 446Q278 446 268.5 441Q259 436 252 426.5Q245 417 241.5 403.5Q238 390 238 374Q238 324 238 300Q238 276 236 241Q234 206 229 175Q224 144 216 127L218 126Q240 134 256 134Q272 134 323 131Q374 128 402 133Q430 138 452 157ZM360 287V239H32V287Z" glyph-name="sterling.osf" horiz-adv-x="514" /><glyph d="M321 144 347 1Q334 -4 323 -7Q312 -10 294.5 -12Q277 -14 256 -14Q208 -14 173.5 -0.5Q139 13 116.5 39Q94 65 83.5 101.5Q73 138 73 186V446H20V586H73V730H239V586H342V446H239V192Q239 177 243 166.5Q247 156 253.5 150Q260 144 269 141.5Q278 139 289 139Q293 139 297 139.5Q301 140 305 140.5Q309 141 313 142Q317 143 321 144Z" glyph-name="t" horiz-adv-x="367" unicode="t" /><glyph d="M206 -200H40V730H206V605Q206 590 205.5 574Q205 558 204.5 545.5Q204 533 203 515H205Q211 534 220.5 549.5Q230 565 244.5 576.5Q259 588 278.5 594Q298 600 324 600Q367 600 401 577.5Q435 555 458 514Q481 473 492.5 417.5Q504 362 504 295Q504 228 492 171.5Q480 115 457 73.5Q434 32 399.5 9Q365 -14 321 -14Q297 -14 278 -10Q259 -6 246 1Q233 8 223.5 17Q214 26 207 37H205Q205 27 205.5 20.5Q206 14 206 7.5Q206 1 206 -3ZM206 384V179Q206 165 209.5 152Q213 139 220 128Q227 117 238.5 111Q250 105 265 105Q290 105 305.5 123Q321 141 327.5 168.5Q334 196 335.5 224Q337 252 337 288Q337 321 335.5 347.5Q334 374 327 401Q320 428 305 446Q290 464 264 464Q248 464 236.5 456.5Q225 449 218.5 437Q212 425 209 411.5Q206 398 206 384Z" glyph-name="thorn" horiz-adv-x="524" unicode="&#254;" /><glyph d="M463 542 321 419V417Q364 412 397 393.5Q430 375 451.5 347.5Q473 320 483.5 286Q494 252 494 216Q494 167 478.5 125Q463 83 432.5 52Q402 21 357.5 3.5Q313 -14 257 -14Q216 -14 179.5 -5.5Q143 3 112.5 19Q82 35 59 58Q36 81 20 111L155 219Q161 202 171 188Q181 174 194 165Q207 156 221.5 151Q236 146 251 146Q267 146 281 151Q295 156 306 166Q317 176 323.5 190.5Q330 205 330 224Q330 242 324 257.5Q318 273 305.5 285Q293 297 273.5 303.5Q254 310 229 310Q225 310 221 310Q217 310 213.5 309.5Q210 309 206.5 309Q203 309 198 308L162 432L232 497Q242 506 252 515Q262 524 270.5 530.5Q279 537 290 545V547H50V700H463Z" glyph-name="three" horiz-adv-x="515" unicode="3" /><glyph d="M445 419 316 309V307Q357 298 388 280Q419 262 439.5 236Q460 210 470 177.5Q480 145 480 108Q480 62 464 22Q448 -18 417.5 -48.5Q387 -79 344.5 -96Q302 -113 251 -113Q205 -113 168.5 -102.5Q132 -92 104.5 -73.5Q77 -55 56 -31Q35 -7 15 25L147 128Q156 109 164 95Q172 81 183.5 70Q195 59 210.5 53Q226 47 246 47Q261 47 273.5 52Q286 57 294.5 66.5Q303 76 307.5 88Q312 100 312 114Q312 131 305 145.5Q298 160 282 170Q266 180 239.5 182Q213 184 176 176L139 320L268 422H45V586H445Z" glyph-name="three.osf" horiz-adv-x="507" /><glyph d="M490 0H402V42H290L402 316H490V135H513V42H490ZM413 125V201H411L387 127V125ZM97 506 62 576 108 617H14V700H209V621L154 578V576Q171 571 184 563Q197 555 206 543Q215 531 219.5 516Q224 501 224 483Q224 460 217 440Q210 420 195.5 405.5Q181 391 160 383Q139 375 112 375Q90 375 72.5 380Q55 385 41.5 394.5Q28 404 18.5 416.5Q9 429 1 444L76 488Q79 482 82 477.5Q85 473 89 469.5Q93 466 98.5 463.5Q104 461 111 461Q118 461 123 463Q128 465 131.5 468.5Q135 472 136.5 476.5Q138 481 138 486Q138 491 136 495.5Q134 500 130.5 503Q127 506 122.5 507.5Q118 509 113 509Q111 509 109 509Q107 509 105 508.5Q103 508 101 507.5Q99 507 97 506ZM156 0 520 700H411L48 0Z" glyph-name="threequarters" horiz-adv-x="531" unicode="&#190;" /><glyph d="M113 506 78 576 124 617H30V700H225V621L170 578V576Q187 571 200 563Q213 555 222 543Q231 531 235.5 516Q240 501 240 483Q240 460 233 440Q226 420 211.5 405.5Q197 391 176 383Q155 375 128 375Q106 375 88.5 380Q71 385 57.5 394.5Q44 404 34.5 416.5Q25 429 17 444L92 488Q95 482 98 477.5Q101 473 105 469.5Q109 466 114.5 463.5Q120 461 127 461Q134 461 139 463Q144 465 147.5 468.5Q151 472 152.5 476.5Q154 481 154 486Q154 491 152 495.5Q150 500 146.5 503Q143 506 138.5 507.5Q134 509 129 509Q127 509 125 509Q123 509 121 508.5Q119 508 117 507.5Q115 507 113 506Z" glyph-name="threesuperior" horiz-adv-x="262" unicode="&#179;" /><glyph d="M266 890H357Q357 860 351.5 836.5Q346 813 334 796.5Q322 780 302 771Q282 762 253 762Q237 762 222 765Q207 768 185 775.5Q163 783 158.5 784.5Q154 786 147 786Q143 786 140.5 784.5Q138 783 136 780.5Q134 778 133.5 775.5Q133 773 133 771H42Q42 801 47 824.5Q52 848 63.5 865Q75 882 95 891Q115 900 145 900Q162 900 177 896.5Q192 893 214.5 885.5Q237 878 241 876.5Q245 875 252 875Q256 875 258.5 876.5Q261 878 262.5 880.5Q264 883 265 885.5Q266 888 266 890Z" glyph-name="tilde" horiz-adv-x="399" unicode="&#732;" /><glyph d="M170 385H74V609H20V700H227V609H170ZM571 385H479V499Q479 505 479.5 513.5Q480 522 480.5 530.5Q481 539 482 552H480Q475 540 472 532.5Q469 525 465.5 517Q462 509 459 504L415 429H413L370 504Q366 511 362 519.5Q358 528 354.5 535Q351 542 346 552H344Q345 539 345.5 530.5Q346 522 346.5 513.5Q347 505 347 499V385H255V700H359L397 630Q400 623 403 616.5Q406 610 408 604Q410 598 413 590H415Q417 597 419 602.5Q421 608 424 615Q427 622 430 629L469 700H571Z" glyph-name="trademark" horiz-adv-x="591" unicode="&#8482;" /><glyph d="M457 0H13V3L271 421Q279 433 283.5 444.5Q288 456 291 466Q294 476 294.5 484.5Q295 493 295 500Q294 513 290 523.5Q286 534 278.5 540.5Q271 547 262 550.5Q253 554 243 554Q230 554 218 548.5Q206 543 196 532.5Q186 522 177.5 505Q169 488 163 465L23 568Q40 599 60 624.5Q80 650 107 670Q134 690 170 702Q206 714 250 714Q301 714 340.5 698.5Q380 683 407 654.5Q434 626 448 588Q462 550 462 505Q462 478 456.5 450.5Q451 423 441 396Q431 369 416 341Q401 313 381 283L348 232Q340 220 332 208.5Q324 197 316.5 187.5Q309 178 304 171Q299 164 296 161V159H457Z" glyph-name="two" horiz-adv-x="483" unicode="2" /><glyph d="M455 0H-13V2L238 312Q247 323 254 332Q261 341 267 351Q273 361 276.5 371.5Q280 382 280 392Q280 401 276.5 410Q273 419 266 426.5Q259 434 249.5 438Q240 442 228 442Q216 442 204.5 437.5Q193 433 183.5 424.5Q174 416 166 403.5Q158 391 153 374L7 443Q21 476 41.5 503.5Q62 531 90 552Q118 573 153 584.5Q188 596 231 596Q280 596 320 580.5Q360 565 387.5 538Q415 511 429.5 474.5Q444 438 444 396Q444 377 441 358.5Q438 340 432 321.5Q426 303 416 284Q406 265 393 246Q382 231 369.5 216.5Q357 202 345.5 190Q334 178 325.5 170Q317 162 314 160V158Q326 159 335.5 159Q345 159 359 159.5Q373 160 390 160H455Z" glyph-name="two.osf" horiz-adv-x="489" /><glyph d="M230 385H32V387L141 585Q142 587 143.5 590.5Q145 594 146.5 597.5Q148 601 149 605Q150 609 150 613Q150 616 149 618.5Q148 621 145.5 622.5Q143 624 140.5 625Q138 626 135 626Q130 626 126 624Q122 622 118 618Q114 614 111 606.5Q108 599 106 589L30 623Q37 642 45.5 657Q54 672 66.5 684Q79 696 96.5 703Q114 710 137 710Q161 710 180 702.5Q199 695 212 681.5Q225 668 231.5 650.5Q238 633 238 614Q238 602 235.5 591Q233 580 229 568.5Q225 557 219.5 546.5Q214 536 207 524Q202 515 196 505.5Q190 496 185 489Q180 482 173 472V471H230Z" glyph-name="twosuperior" horiz-adv-x="276" unicode="&#178;" /><glyph d="M506 0H363Q358 12 355.5 21.5Q353 31 350.5 44Q348 57 347 72H345Q336 55 324 39.5Q312 24 295 12Q278 0 257 -7Q236 -14 210 -14Q165 -14 131.5 2.5Q98 19 76.5 49Q55 79 45 120Q35 161 35 210V586H201V202Q201 187 204.5 172.5Q208 158 216 146.5Q224 135 237 128Q250 121 268 121Q284 121 296 126.5Q308 132 315.5 141.5Q323 151 326.5 162.5Q330 174 331 187V586H497V79Q497 61 498.5 46Q500 31 501.5 21Q503 11 506 0Z" glyph-name="u" horiz-adv-x="541" unicode="u" /><glyph d="M513 0H370Q365 12 362.5 21.5Q360 31 357.5 44Q355 57 354 72H352Q343 55 331 39.5Q319 24 302 12Q285 0 264 -7Q243 -14 217 -14Q172 -14 138.5 2.5Q105 19 83.5 49Q62 79 52 120Q42 161 42 210V586H208V202Q208 187 211.5 172.5Q215 158 223 146.5Q231 135 244 128Q257 121 275 121Q291 121 303 126.5Q315 132 322.5 141.5Q330 151 333.5 162.5Q337 174 338 187V586H504V79Q504 61 505.5 46Q507 31 508.5 21Q510 11 513 0ZM416 710 176 608 128 711 360 829Z" glyph-name="uacute" horiz-adv-x="545" unicode="&#250;" /><glyph d="M513 0H370Q365 12 362.5 21.5Q360 31 357.5 44Q355 57 354 72H352Q343 55 331 39.5Q319 24 302 12Q285 0 264 -7Q243 -14 217 -14Q172 -14 138.5 2.5Q105 19 83.5 49Q62 79 52 120Q42 161 42 210V586H208V202Q208 187 211.5 172.5Q215 158 223 146.5Q231 135 244 128Q257 121 275 121Q291 121 303 126.5Q315 132 322.5 141.5Q330 151 333.5 162.5Q337 174 338 187V586H504V79Q504 61 505.5 46Q507 31 508.5 21Q510 11 513 0ZM376 616 327 668Q316 680 306 691Q296 702 289 710Q282 718 274 728H270Q262 718 255 710Q248 702 238 691Q228 680 217 668L168 616L85 710L227 822H317L459 710Z" glyph-name="ucircumflex" horiz-adv-x="545" unicode="&#251;" /><glyph d="M513 0H370Q365 12 362.5 21.5Q360 31 357.5 44Q355 57 354 72H352Q343 55 331 39.5Q319 24 302 12Q285 0 264 -7Q243 -14 217 -14Q172 -14 138.5 2.5Q105 19 83.5 49Q62 79 52 120Q42 161 42 210V586H208V202Q208 187 211.5 172.5Q215 158 223 146.5Q231 135 244 128Q257 121 275 121Q291 121 303 126.5Q315 132 322.5 141.5Q330 151 333.5 162.5Q337 174 338 187V586H504V79Q504 61 505.5 46Q507 31 508.5 21Q510 11 513 0ZM254 706Q254 690 248.5 677Q243 664 233 654.5Q223 645 209 640.5Q195 636 178 636Q162 636 148 640.5Q134 645 123.5 654.5Q113 664 107.5 677Q102 690 102 706Q102 723 107.5 736.5Q113 750 123.5 760Q134 770 148 775Q162 780 178 780Q195 780 209 775Q223 770 233 760Q243 750 248.5 736.5Q254 723 254 706ZM442 706Q442 690 436.5 677Q431 664 421 654.5Q411 645 397 640.5Q383 636 366 636Q350 636 336 640.5Q322 645 311.5 654.5Q301 664 295.5 677Q290 690 290 706Q290 723 295.5 736.5Q301 750 311.5 760Q322 770 336 775Q350 780 366 780Q383 780 397 775Q411 770 421 760Q431 750 436.5 736.5Q442 723 442 706Z" glyph-name="udieresis" horiz-adv-x="545" unicode="&#252;" /><glyph d="M513 0H370Q365 12 362.5 21.5Q360 31 357.5 44Q355 57 354 72H352Q343 55 331 39.5Q319 24 302 12Q285 0 264 -7Q243 -14 217 -14Q172 -14 138.5 2.5Q105 19 83.5 49Q62 79 52 120Q42 161 42 210V586H208V202Q208 187 211.5 172.5Q215 158 223 146.5Q231 135 244 128Q257 121 275 121Q291 121 303 126.5Q315 132 322.5 141.5Q330 151 333.5 162.5Q337 174 338 187V586H504V79Q504 61 505.5 46Q507 31 508.5 21Q510 11 513 0ZM370 608 130 710 186 829 418 711Z" glyph-name="ugrave" horiz-adv-x="545" unicode="&#249;" /><glyph d="M376 -100V-245H-4V-100Z" glyph-name="underscore" horiz-adv-x="372" unicode="_" /><glyph glyph-name="uni00A0" horiz-adv-x="200" unicode="&#160;" /><glyph d="M334 0H168L2 586H181L241 238Q242 229 243.5 219.5Q245 210 246.5 202Q248 194 250 183H252Q254 194 255.5 202Q257 210 258.5 219.5Q260 229 261 238L319 586H497Z" glyph-name="v" horiz-adv-x="499" unicode="v" /><glyph d="M656 0H470L412 309Q410 318 408 330Q406 342 404.5 354Q403 366 401 384H399Q397 366 395.5 354Q394 342 392 330Q390 318 388 309L331 0H146L2 586H181L230 258Q231 250 232.5 238Q234 226 235 214Q236 202 238 183H240Q242 203 243.5 215Q245 227 247 239Q249 251 251 258L322 586H478L551 257Q552 249 554 237.5Q556 226 557.5 214Q559 202 562 183H564Q566 202 567 213.5Q568 225 569.5 237Q571 249 572 257L618 586H797Z" glyph-name="w" horiz-adv-x="799" unicode="w" /><glyph d="M326 294 462 0H290L252 127Q250 134 247 146Q244 158 241 170Q238 182 234 201H232Q228 182 225 170Q222 158 218.5 146Q215 134 213 127L176 0H5L141 294L5 586H176L215 450Q217 441 220 430Q223 419 226 408.5Q229 398 233 382H235Q238 398 240.5 408.5Q243 419 246 430Q249 441 251 450L290 586H462Z" glyph-name="x" horiz-adv-x="467" unicode="x" /><glyph d="M193 -13 5 586H198L245 291Q248 274 250.5 256.5Q253 239 256.5 211.5Q260 184 260 183H262Q264 193 265.5 205Q267 217 268.5 227Q270 237 273 258Q276 279 278 291L321 586H501L348 -10Q335 -60 317.5 -97Q300 -134 275.5 -159Q251 -184 219 -197Q187 -210 147 -210Q114 -210 85.5 -202.5Q57 -195 37.5 -185Q18 -175 -6 -156L76 -24Q80 -29 85.5 -34.5Q91 -40 98.5 -45Q106 -50 115.5 -53Q125 -56 135 -56Q144 -56 152.5 -54Q161 -52 168.5 -47Q176 -42 182.5 -33.5Q189 -25 193 -13Z" glyph-name="y" horiz-adv-x="504" unicode="y" /><glyph d="M213 -13 25 586H218L265 291Q268 274 270.5 256.5Q273 239 276.5 211.5Q280 184 280 183H282Q284 193 285.5 205Q287 217 288.5 227Q290 237 293 258Q296 279 298 291L341 586H521L368 -10Q355 -60 337.5 -97Q320 -134 295.5 -159Q271 -184 239 -197Q207 -210 167 -210Q134 -210 105.5 -202.5Q77 -195 57.5 -185Q38 -175 14 -156L96 -24Q100 -29 105.5 -34.5Q111 -40 118.5 -45Q126 -50 135.5 -53Q145 -56 155 -56Q164 -56 172.5 -54Q181 -52 188.5 -47Q196 -42 202.5 -33.5Q209 -25 213 -13ZM416 719 176 617 128 720 360 838Z" glyph-name="yacute" horiz-adv-x="549" unicode="&#253;" /><glyph d="M193 -13 5 586H198L245 291Q248 274 250.5 256.5Q253 239 256.5 211.5Q260 184 260 183H262Q264 193 265.5 205Q267 217 268.5 227Q270 237 273 258Q276 279 278 291L321 586H501L348 -10Q335 -60 317.5 -97Q300 -134 275.5 -159Q251 -184 219 -197Q187 -210 147 -210Q114 -210 85.5 -202.5Q57 -195 37.5 -185Q18 -175 -6 -156L76 -24Q80 -29 85.5 -34.5Q91 -40 98.5 -45Q106 -50 115.5 -53Q125 -56 135 -56Q144 -56 152.5 -54Q161 -52 168.5 -47Q176 -42 182.5 -33.5Q189 -25 193 -13ZM244 704Q244 688 238.5 675Q233 662 223 652.5Q213 643 199 638.5Q185 634 168 634Q152 634 138 638.5Q124 643 113.5 652.5Q103 662 97.5 675Q92 688 92 704Q92 721 97.5 734.5Q103 748 113.5 758Q124 768 138 773Q152 778 168 778Q185 778 199 773Q213 768 223 758Q233 748 238.5 734.5Q244 721 244 704ZM432 704Q432 688 426.5 675Q421 662 411 652.5Q401 643 387 638.5Q373 634 356 634Q340 634 326 638.5Q312 643 301.5 652.5Q291 662 285.5 675Q280 688 280 704Q280 721 285.5 734.5Q291 748 301.5 758Q312 768 326 773Q340 778 356 778Q373 778 387 773Q401 768 411 758Q421 748 426.5 734.5Q432 721 432 704Z" glyph-name="ydieresis" horiz-adv-x="504" unicode="&#255;" /><glyph d="M336 163V0H171V163H45V197H169L154 243H45V277H143L5 700H182L237 491Q241 477 244 458.5Q247 440 249 422.5Q251 405 253 379H255Q258 405 260.5 422.5Q263 440 266.5 458.5Q270 477 273 491L324 700H503L364 277H463V243H353L338 197H463V163Z" glyph-name="yen" horiz-adv-x="508" unicode="&#165;" /><glyph d="M340 177V0H171V177L1 586H187L235 416Q239 402 243 387.5Q247 373 249.5 361Q252 349 255 333H257Q261 350 263.5 361.5Q266 373 269.5 387.5Q273 402 277 416L323 586H512ZM453 257V223H58V257ZM453 177V143H58V177Z" glyph-name="yen.osf" horiz-adv-x="513" /><glyph d="M422 0H5V2L163 346Q170 361 177 375Q184 389 189.5 399.5Q195 410 203 424V426H45V586H452V584L298 249Q295 241 288 227.5Q281 214 273.5 199.5Q266 185 253 162V160H422Z" glyph-name="z" horiz-adv-x="452" unicode="z" /><glyph d="M422 0H5V2L163 346Q170 361 177 375Q184 389 189.5 399.5Q195 410 203 424V426H45V586H452V584L298 249Q295 241 288 227.5Q281 214 273.5 199.5Q266 185 253 162V160H422ZM145 847 194 795Q205 783 215 772Q225 761 232 753Q239 745 247 735H251Q259 745 266 753Q273 761 283 772Q293 783 304 795L353 847L436 753L294 641H204L62 753Z" glyph-name="zcaron" horiz-adv-x="452" unicode="&#382;" /><glyph d="M261 -14Q191 -14 144 15.5Q97 45 71 95.5Q45 146 34.5 210Q24 274 24 350Q24 426 34.5 490Q45 554 71 604.5Q97 655 144 684.5Q191 714 261 714Q331 714 378 684.5Q425 655 451 604.5Q477 554 487.5 490Q498 426 498 350Q498 274 487.5 210Q477 146 451 95.5Q425 45 378 15.5Q331 -14 261 -14ZM261 146Q282 146 295.5 159.5Q309 173 317 199Q325 225 328.5 262.5Q332 300 332 350Q332 401 329 438Q326 475 318 501Q310 527 296 540.5Q282 554 261 554Q240 554 226.5 540.5Q213 527 205 501Q197 475 193.5 437.5Q190 400 190 350Q190 300 193.5 262.5Q197 225 205 199Q213 173 227 159.5Q241 146 261 146Z" glyph-name="zero" horiz-adv-x="522" unicode="0" /><glyph d="M270 135Q295 135 311.5 149.5Q328 164 337.5 187Q347 210 350.5 237.5Q354 265 354 294Q354 321 350.5 348.5Q347 376 337.5 399.5Q328 423 311.5 438Q295 453 270 453Q246 453 229.5 438Q213 423 203.5 399Q194 375 190.5 348Q187 321 187 294Q187 270 191 243Q195 216 204 191.5Q213 167 229.5 151Q246 135 270 135ZM270 -14Q208 -14 160.5 8Q113 30 82 70.5Q51 111 35.5 167.5Q20 224 20 294Q20 363 35.5 419Q51 475 82 515.5Q113 556 160.5 578Q208 600 270 600Q333 600 380 578Q427 556 458.5 515.5Q490 475 505.5 419Q521 363 521 294Q521 224 505.5 167.5Q490 111 458.5 70.5Q427 30 380 8Q333 -14 270 -14Z" glyph-name="zero.osf" horiz-adv-x="541" /></font>
</defs>
</svg>
