<?xml version="1.0" encoding="utf-8"?>
<!-- Generator: Adobe Illustrator 18.0.0, SVG Export Plug-In . SVG Version: 6.00 Build 0)  -->
<!DOCTYPE svg PUBLIC "-//W3C//DTD SVG 1.1//EN" "http://www.w3.org/Graphics/SVG/1.1/DTD/svg11.dtd">
<svg version="1.1" xmlns="http://www.w3.org/2000/svg" xmlns:xlink="http://www.w3.org/1999/xlink" x="0px" y="0px"
	 viewBox="0 0 250 160" enable-background="new 0 0 250 160" xml:space="preserve">
<g id="Layers" display="none">
	<rect display="inline" fill="#FF0000" width="250" height="80"/>
	<rect y="80" display="inline" opacity="0.5" fill="#FF0000" width="250" height="80"/>
</g>
<g id="Sprites">
</g>
<g id="Logo_Clients">
	<g id="BW_Finexkap_3_">
		<g id="Symbol_3_">
			<path fill="#FFFFFF" d="M10.8,14.9v5.8c0,0.6,0.4,1.5,0.8,2l13.3,13.5c0.5,0.5,1.3,0.8,2,0.8h6.1c0.3,0,0.6-0.1,0.8-0.3
				L11.2,14.1C11,14.3,10.8,14.6,10.8,14.9"/>
			<path fill="#FFFFFF" d="M20.5,14.6c-0.5-0.5-1.3-0.8-2-0.8H12c-0.3,0-0.6,0.1-0.8,0.3l22.7,22.7c0.2-0.2,0.3-0.5,0.3-0.8v-6.3
				c0-0.6-0.4-1.5-0.8-2L20.5,14.6z"/>
			<path fill="#FFFFFF" d="M41.1,36v-5.8c0-0.6,0.4-1.5,0.8-2l13.3-13.5c0.5-0.5,1.3-0.8,2-0.8h6.1c0.3,0,0.6,0.1,0.8,0.3L41.5,36.8
				C41.3,36.6,41.1,36.3,41.1,36"/>
			<path fill="#FFFFFF" d="M50.9,36.3c-0.5,0.5-1.3,0.8-2,0.8h-6.6c-0.3,0-0.6-0.1-0.8-0.3l22.7-22.7c0.2,0.2,0.3,0.5,0.3,0.8v6.3
				c0,0.6-0.4,1.5-0.8,2L50.9,36.3z"/>
			<path fill="#FFFFFF" d="M10.8,66.3v-5.8c0-0.6,0.4-1.5,0.8-2l13.3-13.5c0.5-0.5,1.3-0.8,2-0.8h6.1c0.3,0,0.6,0.1,0.8,0.3
				L11.2,67.1C11,66.9,10.8,66.6,10.8,66.3"/>
			<path fill="#FFFFFF" d="M20.5,66.6c-0.5,0.5-1.3,0.8-2,0.8H12c-0.3,0-0.6-0.1-0.8-0.3l22.7-22.7c0.2,0.2,0.3,0.5,0.3,0.8v6.3
				c0,0.6-0.4,1.5-0.8,2L20.5,66.6z"/>
			<path fill="#FFFFFF" d="M41.2,45.3v5.8c0,0.6,0.4,1.5,0.8,2l13.3,13.5c0.5,0.5,1.3,0.8,2,0.8h6.1c0.3,0,0.6-0.1,0.8-0.3
				L41.5,44.4C41.3,44.6,41.2,44.9,41.2,45.3"/>
			<path fill="#FFFFFF" d="M50.9,44.9c-0.5-0.5-1.3-0.8-2-0.8h-6.6c-0.3,0-0.6,0.1-0.8,0.3l22.7,22.7c0.2-0.2,0.3-0.5,0.3-0.8V60
				c0-0.6-0.4-1.5-0.8-2L50.9,44.9z"/>
		</g>
		<path fill="#FFFFFF" d="M91.1,28.3h13.8v1H92.4v10.5h9.9v1h-9.9V53h-1.2V28.3z M109.9,28.3h1.2V53h-1.2V28.3z M117.8,28.3h1.8
			l15,23.1V28.3h1.2V53h-1.5L119,29.6V53h-1.2V28.3z M142.2,28.3h14v1h-12.8v10.4h10.4v1.1h-10.4v11.1h13.4V53h-14.7V28.3z
			 M168.9,40.1l-8-11.9h1.4l7.4,11l7.3-11h1.3l-8,11.9L179,53h-1.4l-8.1-11.9L161.4,53h-1.3L168.9,40.1z M183.9,28.3h1.2V53h-1.2
			V28.3z M185.3,40.4l12.6-12.1h1.5l-12.6,12L200,53h-1.6L185.3,40.4z M211.2,28.3h1.7L222,53h-1.2l-2.9-7.9h-11.7l-2.9,7.9H202
			L211.2,28.3z M206.5,44.1h11L212,29.3L206.5,44.1z M226.3,28.3h6.2c4.8,0,8.3,1.8,8.3,6.7v0.1c0,5-3.4,7-8.2,7h-5.1V53h-1.2V28.3z
			 M232.7,41.1c4.3,0,6.9-1.7,6.9-5.9V35c0-4.3-2.8-5.7-7-5.7h-5.1v11.8H232.7z"/>
	</g>
	<g id="BW_Finexkap_1_">
		<g id="Symbol_1_">
			<path fill="#FF931E" d="M10,94.3v5.8c0,0.6,0.4,1.5,0.8,2l13.3,13.5c0.5,0.5,1.3,0.8,2,0.8h6.1c0.3,0,0.6-0.1,0.8-0.3L10.3,93.5
				C10.1,93.7,10,94,10,94.3"/>
			<path fill="#E8E7D9" d="M19.7,94c-0.5-0.5-1.3-0.8-2-0.8h-6.6c-0.3,0-0.6,0.1-0.8,0.3L33,116.2c0.2-0.2,0.3-0.5,0.3-0.8v-6.3
				c0-0.6-0.4-1.5-0.8-2L19.7,94z"/>
			<path fill="#FF931E" d="M40.3,115.4v-5.8c0-0.6,0.4-1.5,0.8-2L54.4,94c0.5-0.5,1.3-0.8,2-0.8h6.1c0.3,0,0.6,0.1,0.8,0.3
				l-22.7,22.7C40.4,116,40.3,115.7,40.3,115.4"/>
			<path fill="#E8E7D9" d="M50,115.7c-0.5,0.5-1.3,0.8-2,0.8h-6.6c-0.3,0-0.6-0.1-0.8-0.3l22.7-22.7c0.2,0.2,0.3,0.5,0.3,0.8v6.3
				c0,0.6-0.4,1.5-0.8,2L50,115.7z"/>
			<path fill="#FF931E" d="M10,145.7v-5.8c0-0.6,0.4-1.5,0.8-2l13.3-13.5c0.5-0.5,1.3-0.8,2-0.8h6.1c0.3,0,0.6,0.1,0.8,0.3
				l-22.7,22.7C10.1,146.3,10,146,10,145.7"/>
			<path fill="#E8E7D9" d="M19.7,146c-0.5,0.5-1.3,0.8-2,0.8h-6.6c-0.3,0-0.6-0.1-0.8-0.3L33,123.8c0.2,0.2,0.3,0.5,0.3,0.8v6.3
				c0,0.6-0.4,1.5-0.8,2L19.7,146z"/>
			<path fill="#E8E7D9" d="M40.3,124.6v5.8c0,0.6,0.4,1.5,0.8,2L54.4,146c0.5,0.5,1.3,0.8,2,0.8h6.1c0.3,0,0.6-0.1,0.8-0.3
				l-22.7-22.7C40.4,124,40.3,124.3,40.3,124.6"/>
			<path fill="#FF931E" d="M50,124.3c-0.5-0.5-1.3-0.8-2-0.8h-6.6c-0.3,0-0.6,0.1-0.8,0.3l22.7,22.7c0.2-0.2,0.3-0.5,0.3-0.8v-6.3
				c0-0.6-0.4-1.5-0.8-2L50,124.3z"/>
		</g>
		<path fill="#44423B" d="M90.3,107.7h13.8v1H91.5v10.5h9.9v1h-9.9v12.1h-1.2V107.7z M109,107.7h1.2v24.7H109V107.7z M116.9,107.7
			h1.8l15,23.1v-23.1h1.2v24.7h-1.5l-15.2-23.5v23.5h-1.2V107.7z M141.4,107.7h14v1h-12.8v10.4h10.4v1.1h-10.4v11.1h13.4v1.1h-14.7
			V107.7z M168.1,119.5l-8-11.9h1.4l7.4,11l7.3-11h1.3l-8,11.9l8.6,12.8h-1.4l-8.1-11.9l-8.1,11.9h-1.3L168.1,119.5z M183,107.7h1.2
			v24.7H183V107.7z M184.4,119.8l12.6-12.1h1.5l-12.6,12l13.2,12.7h-1.6L184.4,119.8z M210.3,107.7h1.7l9.2,24.7h-1.2l-2.9-7.9
			h-11.7l-2.9,7.9h-1.2L210.3,107.7z M205.6,123.5h11l-5.5-14.8L205.6,123.5z M225.5,107.7h6.2c4.8,0,8.3,1.8,8.3,6.7v0.1
			c0,5-3.4,7-8.2,7h-5.1v10.9h-1.2V107.7z M231.8,120.5c4.3,0,6.9-1.7,6.9-5.9v-0.1c0-4.3-2.8-5.7-7-5.7h-5.1v11.8H231.8z"/>
	</g>
</g>
<g id="Repères" display="none">
</g>
</svg>
