<?xml version="1.0" encoding="utf-8"?>
<!-- Generator: Adobe Illustrator 18.0.0, SVG Export Plug-In . SVG Version: 6.00 Build 0)  -->
<!DOCTYPE svg PUBLIC "-//W3C//DTD SVG 1.1//EN" "http://www.w3.org/Graphics/SVG/1.1/DTD/svg11.dtd">
<svg version="1.1" xmlns="http://www.w3.org/2000/svg" xmlns:xlink="http://www.w3.org/1999/xlink" x="0px" y="0px"
	 viewBox="0 0 250 160" enable-background="new 0 0 250 160" xml:space="preserve">
<g id="Layers" display="none">
	<rect display="inline" fill="#FF0000" width="250" height="80"/>
	<rect y="80" display="inline" opacity="0.5" fill="#FF0000" width="250" height="80"/>
</g>
<g id="Sprites">
</g>
<g id="Logo_Clients">
	<g>
		<path fill="#FFFFFF" d="M161.8,52.5V25.9c0-1.9-1.6-3.5-3.5-3.5c-1.9,0-3.5,1.6-3.5,3.5v26.7c0,1.9,1.6,3.5,3.5,3.5
			C160.3,56,161.8,54.5,161.8,52.5"/>
		<path fill="#FFFFFF" d="M113.5,22.5c-1.9,0-3.5,1.6-3.5,3.5v13.4c0,5.3-4.3,9.7-9.7,9.7c-5.3,0-9.7-4.3-9.7-9.7V26
			c0-1.9-1.6-3.5-3.5-3.5c-1.9,0-3.5,1.6-3.5,3.5v13.4c0,9.2,7.5,16.6,16.6,16.6c3.6,0,6.9-1.2,9.7-3.1v0.3c0,5.3-4.3,9.7-9.7,9.7
			c-1.9,0-3.5,1.6-3.5,3.5c0,1.9,1.6,3.5,3.5,3.5c9.2,0,16.6-7.5,16.6-16.6V40.9c0-0.2,0-0.3,0-0.5c0-0.3,0-0.7,0-1V26
			C117,24.1,115.4,22.5,113.5,22.5"/>
		<path fill="#FFFFFF" d="M158.4,19.9c2.2,0,4.1-1.8,4.1-4.1c0-2.2-1.8-4.1-4.1-4.1c-2.2,0-4.1,1.8-4.1,4.1
			C154.3,18,156.1,19.9,158.4,19.9"/>
		<path fill="#FFFFFF" d="M65.2,16.2c-8.9,0-16.1,7-16.6,15.7c0,0.1,0,0.3,0,0.4v24.4c0,1.9,1.6,3.5,3.5,3.5c1.9,0,3.5-1.6,3.5-3.5
			V46.5c2.7,2,6.1,3.1,9.7,3.1c9.2,0,16.6-7.5,16.6-16.6v-0.2C81.8,23.6,74.3,16.2,65.2,16.2 M74.8,33c0,5.3-4.3,9.7-9.7,9.7
			c-5.3,0-9.7-4.3-9.7-9.7v-0.2c0-5.3,4.3-9.7,9.7-9.7c5.3,0,9.7,4.3,9.7,9.7V33z"/>
		<path fill="#FFFFFF" d="M148.7,11.6c-1.9,0-3.5,1.6-3.5,3.5v10.5c-2.7-2-6.1-3.1-9.7-3.1c-9.2,0-16.6,7.5-16.6,16.6v0.2
			c0,9.2,7.5,16.6,16.6,16.6c8.8,0,16-6.8,16.6-15.4c0-0.2,0.1-0.4,0.1-0.6V15.1C152.1,13.2,150.6,11.6,148.7,11.6 M145.2,39.4
			c0,5.3-4.3,9.7-9.7,9.7c-5.3,0-9.7-4.3-9.7-9.7v-0.2c0-5.3,4.3-9.7,9.7-9.7c5.3,0,9.7,4.3,9.7,9.7V39.4z"/>
		<path fill="#FFFFFF" d="M187.3,44.3c-2.6,4.1-5.2,8-7.7,11.5c5.6,0.4,11.3-2.3,14.5-7.4c3.2-5.1,3.2-11.4,0.4-16.3
			C192.3,35.9,189.9,40,187.3,44.3"/>
		<path fill="#FFFFFF" d="M193.5,30.5c1.5-2.9,2.8-5.6,3.9-8.1c1.3-2.9,2.1-5.4,2.6-7.2c0.4-1.6,0.7-3.9-0.9-4.9
			c-1.6-1-3.5,0.3-4.8,1.3c-1.5,1.2-3.3,3-5.4,5.4c-1.7,2-3.6,4.4-5.6,7c-0.3,0-0.6-0.1-0.8-0.1c-0.3,0-0.6-0.1-0.9-0.1
			c-5.7-0.4-11.3,2.3-14.6,7.4c-3.2,5.1-3.2,11.4-0.4,16.3c0.1,0.3,0.3,0.5,0.5,0.8c0.2,0.2,0.3,0.5,0.5,0.7c-1.6,3-3,5.9-4.1,8.5
			c-1.3,2.9-2.1,5.4-2.6,7.2c-0.4,1.6-0.7,3.9,0.9,4.9c1.6,1,3.5-0.3,4.8-1.3c1.5-1.2,3.3-3,5.4-5.4c1.8-2.1,3.8-4.6,5.8-7.4
			c2.7-3.6,5.4-7.7,8.2-12.1C188.8,39,191.3,34.6,193.5,30.5 M174.7,54.7c-1.4,1.9-2.8,3.7-4.1,5.3c-4,4.8-6,6.3-6.9,6.8
			c0.1-1,0.5-3.6,3.1-9.2c0.9-1.9,1.9-3.9,3-6c0.2,0.2,0.4,0.3,0.6,0.5c0.2,0.2,0.4,0.3,0.6,0.5c0.4,0.3,0.8,0.6,1.2,0.8
			c0.4,0.3,0.8,0.5,1.2,0.7c2.9-3.8,5.9-8.3,8.8-13c3-4.8,5.8-9.6,8-14c-0.4-0.3-0.7-0.5-1.1-0.8c-0.4-0.2-0.8-0.5-1.2-0.7
			c-0.2-0.1-0.5-0.2-0.7-0.3c-0.2-0.1-0.5-0.2-0.7-0.3c1.3-1.8,2.6-3.4,3.9-4.9c4-4.8,6-6.3,6.9-6.8c-0.1,1-0.5,3.6-3.1,9.2
			c-0.8,1.8-1.7,3.7-2.8,5.6c-2.2,4.3-5,9-7.9,13.8C180.5,46.5,177.5,50.9,174.7,54.7"/>
		<path fill="#FFFFFF" d="M199.4,27.2c-1.2,0-2.1,0.9-2.1,2.1c0,1.2,0.9,2.1,2.1,2.1c1.2,0,2.1-0.9,2.1-2.1
			C201.5,28.2,200.5,27.2,199.4,27.2"/>
	</g>
	<g>
		<path fill="#231F20" d="M161.8,132.5v-26.7c0-1.9-1.6-3.5-3.5-3.5c-1.9,0-3.5,1.6-3.5,3.5v26.7c0,1.9,1.6,3.5,3.5,3.5
			C160.3,136,161.8,134.5,161.8,132.5"/>
		<path fill="#231F20" d="M113.5,102.5c-1.9,0-3.5,1.6-3.5,3.5v13.4c0,5.3-4.3,9.7-9.7,9.7c-5.3,0-9.7-4.3-9.7-9.7V106
			c0-1.9-1.6-3.5-3.5-3.5c-1.9,0-3.5,1.6-3.5,3.5v13.4c0,9.2,7.5,16.6,16.6,16.6c3.6,0,6.9-1.2,9.7-3.1v0.3c0,5.3-4.3,9.7-9.7,9.7
			c-1.9,0-3.5,1.6-3.5,3.5c0,1.9,1.6,3.5,3.5,3.5c9.2,0,16.6-7.5,16.6-16.6v-12.3c0-0.2,0-0.3,0-0.5c0-0.3,0-0.7,0-1V106
			C117,104.1,115.4,102.5,113.5,102.5"/>
		<path fill="#231F20" d="M158.4,99.9c2.2,0,4.1-1.8,4.1-4.1c0-2.2-1.8-4.1-4.1-4.1c-2.2,0-4.1,1.8-4.1,4.1
			C154.3,98,156.1,99.9,158.4,99.9"/>
		<path fill="#231F20" d="M65.2,96.2c-8.9,0-16.1,7-16.6,15.7c0,0.1,0,0.3,0,0.4v24.4c0,1.9,1.6,3.5,3.5,3.5c1.9,0,3.5-1.6,3.5-3.5
			v-10.2c2.7,2,6.1,3.1,9.7,3.1c9.2,0,16.6-7.5,16.6-16.6v-0.2C81.8,103.6,74.3,96.2,65.2,96.2 M74.8,113c0,5.3-4.3,9.7-9.7,9.7
			c-5.3,0-9.7-4.3-9.7-9.7v-0.2c0-5.3,4.3-9.7,9.7-9.7c5.3,0,9.7,4.3,9.7,9.7V113z"/>
		<path fill="#231F20" d="M148.7,91.6c-1.9,0-3.5,1.6-3.5,3.5v10.5c-2.7-2-6.1-3.1-9.7-3.1c-9.2,0-16.6,7.5-16.6,16.6v0.2
			c0,9.2,7.5,16.6,16.6,16.6c8.8,0,16-6.8,16.6-15.4c0-0.2,0.1-0.4,0.1-0.6V95.1C152.1,93.2,150.6,91.6,148.7,91.6 M145.2,119.4
			c0,5.3-4.3,9.7-9.7,9.7c-5.3,0-9.7-4.3-9.7-9.7v-0.2c0-5.3,4.3-9.7,9.7-9.7c5.3,0,9.7,4.3,9.7,9.7V119.4z"/>
		<path fill="#231F20" d="M187.3,124.3c-2.6,4.1-5.2,8-7.7,11.5c5.6,0.4,11.3-2.3,14.5-7.4c3.2-5.1,3.2-11.4,0.4-16.3
			C192.3,115.9,189.9,120,187.3,124.3"/>
		<path fill="#231F20" d="M193.5,110.5c1.5-2.9,2.8-5.6,3.9-8.1c1.3-2.9,2.1-5.4,2.6-7.2c0.4-1.6,0.7-3.9-0.9-4.9
			c-1.6-1-3.5,0.3-4.8,1.3c-1.5,1.2-3.3,3-5.4,5.4c-1.7,2-3.6,4.4-5.6,7c-0.3,0-0.6-0.1-0.8-0.1c-0.3,0-0.6-0.1-0.9-0.1
			c-5.7-0.4-11.3,2.3-14.6,7.4c-3.2,5.1-3.2,11.4-0.4,16.3c0.1,0.3,0.3,0.5,0.5,0.8c0.2,0.2,0.3,0.5,0.5,0.7c-1.6,3-3,5.9-4.1,8.5
			c-1.3,2.9-2.1,5.4-2.6,7.2c-0.4,1.6-0.7,3.9,0.9,4.9c1.6,1,3.5-0.3,4.8-1.3c1.5-1.2,3.3-3,5.4-5.4c1.8-2.1,3.8-4.6,5.8-7.4
			c2.7-3.6,5.4-7.7,8.2-12.1C188.8,119,191.3,114.6,193.5,110.5 M174.7,134.7c-1.4,1.9-2.8,3.7-4.1,5.3c-4,4.8-6,6.3-6.9,6.8
			c0.1-1,0.5-3.6,3.1-9.2c0.9-1.9,1.9-3.9,3-6c0.2,0.2,0.4,0.3,0.6,0.5c0.2,0.2,0.4,0.3,0.6,0.5c0.4,0.3,0.8,0.6,1.2,0.8
			c0.4,0.3,0.8,0.5,1.2,0.7c2.9-3.8,5.9-8.3,8.8-13c3-4.8,5.8-9.6,8-14c-0.4-0.3-0.7-0.5-1.1-0.8c-0.4-0.2-0.8-0.5-1.2-0.7
			c-0.2-0.1-0.5-0.2-0.7-0.3c-0.2-0.1-0.5-0.2-0.7-0.3c1.3-1.8,2.6-3.4,3.9-4.9c4-4.8,6-6.3,6.9-6.8c-0.1,1-0.5,3.6-3.1,9.2
			c-0.8,1.8-1.7,3.7-2.8,5.6c-2.2,4.3-5,9-7.9,13.8C180.5,126.5,177.5,130.9,174.7,134.7"/>
		<path fill="#231F20" d="M199.4,107.2c-1.2,0-2.1,0.9-2.1,2.1c0,1.2,0.9,2.1,2.1,2.1c1.2,0,2.1-0.9,2.1-2.1
			C201.5,108.2,200.5,107.2,199.4,107.2"/>
	</g>
</g>
<g id="Repères" display="none">
</g>
</svg>
