<?xml version="1.0" encoding="utf-8"?>
<!-- Generator: Adobe Illustrator 18.0.0, SVG Export Plug-In . SVG Version: 6.00 Build 0)  -->
<!DOCTYPE svg PUBLIC "-//W3C//DTD SVG 1.1//EN" "http://www.w3.org/Graphics/SVG/1.1/DTD/svg11.dtd">
<svg version="1.1" xmlns="http://www.w3.org/2000/svg" xmlns:xlink="http://www.w3.org/1999/xlink" x="0px" y="0px"
	 viewBox="0 0 250 160" enable-background="new 0 0 250 160" xml:space="preserve">
<g id="Layers" display="none">
	<rect display="inline" fill="#FF0000" width="250" height="80"/>
	<rect y="80" display="inline" opacity="0.5" fill="#FF0000" width="250" height="80"/>
</g>
<g id="Sprites">
</g>
<g id="Logo_Clients">
	<g>
		<g>
			<g>
				<path fill="#FFFFFF" d="M128.3,10.7c-0.8,0.1-1.7,0.3-2.5,0.5c-2.9,0.6-5.8,1.5-8.5,2.6c-5.1,2-9.3,4.5-12.6,7.5
					c-1.8,1.6-3.2,3.2-4.1,4.8c-1,1.5-1.6,3.2-1.6,4.9c-0.1,1,0,2,0.3,2.9c0.8,2.4,3,4.4,6.7,5.7c2.9,1,6.3,1.5,10.2,1.5
					c0.1,0,0.1,0,0.2,0c2.1-0.1,4.2-0.3,6.5-0.7c2.1-0.4,4.4-1,6.8-1.6c4.9-1.5,9.3-3.6,13.1-6.1L132.8,30c-2.2,1.4-5.1,2.7-8.8,3.9
					c-2.1,0.7-4.1,1.2-6.1,1.5c-0.8,0.1-1.7,0.3-2.5,0.3c-3.2,0.3-6.1,0.1-8.6-0.6c-4-1.2-5.9-3.2-5.7-6.1c0-2.5,1.5-5.1,4.5-7.7
					c2.7-2.5,6.1-4.6,10.3-6.2c2.7-1.1,5.3-1.9,8-2.4c1.6-0.3,3.3-0.5,4.9-0.5c4.8-0.3,8.4,0.6,10.8,2.6c0.5,0.4,0.8,0.8,1.1,1.2
					c1.1,1.6,1.2,3.4,0.3,5.5l11.2,0.3c0.3-0.9,0.4-1.7,0.5-2.5c0-1.9-0.7-3.6-2.2-5.1c-0.6-0.6-1.2-1.1-2-1.5
					c-3.7-2.3-8.7-3.2-15.1-2.8C131.7,10.2,130,10.4,128.3,10.7"/>
				<path fill="#FFFFFF" d="M121.1,18.7l-0.8,0.1c-1.7,0.3-3.2,0.9-4.3,1.9c-1.3,0.9-1.8,2-1.7,3c0.1,1,0.8,1.7,2.2,2.2
					c1.2,0.4,2.6,0.4,4.2,0.1c0.2,0,0.3-0.1,0.5-0.1c1-0.2,1.9-0.6,2.7-1c0.6-0.3,1.1-0.6,1.6-1c0.2-0.1,0.3-0.3,0.4-0.4
					c0.1-0.1,0.3-0.3,0.4-0.4c0.5-0.7,0.8-1.3,0.7-2c-0.1-1-0.8-1.7-2-2.1C123.8,18.6,122.5,18.5,121.1,18.7"/>
				<path fill="#FFFFFF" d="M158,51l0.2,0c0.2,0,3.2,0,3.9,0v-1.2c-0.8,0-3.7,0-3.9,0H158v-2.4h0.2c0.3,0,6.8,0,8,0v-1.5l-9.8,0
					l0,9.4l9.8,0v-1.5c-1.2,0-7.7,0-8,0l-0.2,0L158,51z"/>
				<path fill="#FFFFFF" d="M90.7,54c-2.4,0-5.2-1-5.2-3.4c0-2,2.1-3.4,4.8-3.4c1.5,0,2.9,0.4,4.4,1.4l1.2-0.8
					c-1.6-1.2-3.6-1.8-5.7-1.8c-3.7,0-6.4,2-6.4,4.7c0,2.7,2.8,4.7,6.7,4.7c2.3,0,4.2-0.6,5.6-1.8l-1.1-0.9
					C93.7,53.6,92.4,54,90.7,54"/>
				<path fill="#FFFFFF" d="M146.9,47.5c0,0.2,0,6.6,0,7.8h1.6c0-1.1,0-7.5,0-7.7v-0.2h0.2c0.2,0,3.3,0,4.1,0v-1.5l-10.2,0v1.5
					c0.8,0,3.9,0,4.1,0h0.2V47.5z"/>
				<path fill="#FFFFFF" d="M127.1,50.4c0,2.7,2.8,4.8,6.4,4.8c3.6,0,6.4-2.1,6.4-4.7c0-2.6-2.8-4.7-6.4-4.8
					C130,45.8,127.1,48,127.1,50.4 M133.6,47.1c2.6,0,4.7,1.4,4.8,3.4c0,2-2.2,3.5-4.7,3.5c-2.6,0-4.8-1.5-4.8-3.4
					C128.8,48.5,130.9,47.1,133.6,47.1"/>
				<path fill="#FFFFFF" d="M98.8,50.4c0,2.7,2.8,4.8,6.4,4.8c3.6,0,6.4-2.1,6.4-4.7c0-2.6-2.8-4.7-6.4-4.8
					C101.7,45.8,98.8,47.9,98.8,50.4 M105.3,47.1c2.6,0,4.7,1.4,4.8,3.4c0,2-2.2,3.5-4.7,3.5c-2.6,0-4.8-1.5-4.8-3.4
					C100.5,48.5,102.5,47.1,105.3,47.1"/>
				<path fill="#FFFFFF" d="M119.4,49.8c-0.2-0.2-3.1-3.5-3.6-3.9h-2c1,1.1,4.7,5.2,4.8,5.3l0,0.1v0.1c0,0.1,0,3.3,0,4.1h1.7
					c0-0.8,0-4,0-4.1v-0.1l0,0c0.1-0.1,3.8-4.1,4.9-5.2l-2.1,0c-0.4,0.5-3.3,3.7-3.5,3.9l-0.1,0.1L119.4,49.8z"/>
			</g>
		</g>
		<g>
			<path fill="#FFFFFF" d="M91.1,69.9H90l1.3-7.2h2.1c1.7,0,2.4,0.9,2.1,2.2c-0.2,1.3-1.2,2.2-3,2.2h-1L91.1,69.9z M91.8,66h1
				c1.2,0,1.6-0.7,1.7-1.2c0.1-0.5-0.1-1.2-1.3-1.2h-1L91.8,66z"/>
			<path fill="#FFFFFF" d="M95.9,69.9l1.3-7.2h3.9l-0.2,1h-2.8l-0.4,2.1h2.8l-0.2,1h-2.8l-0.4,2.2h2.8l-0.2,1H95.9z"/>
			<path fill="#FFFFFF" d="M104.9,70c-2.2,0-3.4-1.8-3.1-3.8c0.4-2,2.3-3.8,4.5-3.8c2.2,0,3.4,1.7,3.1,3.8
				C109,68.2,107.1,70,104.9,70z M106.1,63.5c-1.9,0-3,1.6-3.2,2.8c-0.2,1.2,0.3,2.8,2.2,2.8c1.9,0,3-1.6,3.2-2.8
				C108.5,65,107.9,63.5,106.1,63.5z"/>
			<path fill="#FFFFFF" d="M111.2,69.9h-1.1l1.3-7.2h2.1c1.7,0,2.4,0.9,2.1,2.2c-0.2,1.3-1.2,2.2-3,2.2h-1L111.2,69.9z M111.9,66h1
				c1.2,0,1.6-0.7,1.7-1.2c0.1-0.5-0.1-1.2-1.3-1.2h-1L111.9,66z"/>
			<path fill="#FFFFFF" d="M116.2,69.9l1.3-7.2h1.1l-1.2,6.3h2.5l-0.2,1H116.2z"/>
			<path fill="#FFFFFF" d="M120.8,69.9l1.3-7.2h3.9l-0.2,1H123l-0.4,2.1h2.8l-0.2,1h-2.8l-0.4,2.2h2.8l-0.2,1H120.8z"/>
			<path fill="#FFFFFF" d="M129.6,69.9l1.3-7.2h1.1l-1.3,7.2H129.6z"/>
			<path fill="#FFFFFF" d="M137.2,69.9l-2.5-5.6h0l-1,5.6h-1.1l1.3-7.2h1.2l2.5,5.5h0l1-5.5h1.1l-1.3,7.2H137.2z"/>
			<path fill="#FFFFFF" d="M141.1,67.7C141,68,141,69,142,69c0.7,0,1.2-0.5,1.4-1.2c0.1-0.8-0.5-1-0.9-1.2c-0.9-0.4-1.1-0.5-1.4-0.8
				c-0.3-0.3-0.3-0.9-0.2-1.4c0.2-0.8,1-2,2.4-2c1.2,0,1.9,0.8,1.7,2h-1.1c0.1-0.8-0.4-1-0.8-1c-0.6,0-1.1,0.6-1.2,1
				c-0.1,0.7,0.5,0.9,0.8,1c0.8,0.3,2.1,0.6,1.8,2.4c-0.2,1.3-1.3,2.2-2.6,2.2c-1,0-2.1-0.7-1.8-2.3H141.1z"/>
			<path fill="#FFFFFF" d="M145.5,69.9l1.3-7.2h1.1l-1.3,7.2H145.5z"/>
			<path fill="#FFFFFF" d="M149.7,62.6h2.3c1.5,0,2.3,0.6,2.7,1.3c0.4,0.7,0.4,1.6,0.3,2.3c-0.2,1-0.7,2-1.4,2.6c-1,0.8-2,1-3,1
				h-2.3L149.7,62.6z M149.6,68.9h1.3c1.3,0,2.8-0.6,3.2-2.6c0.2-1.1-0.2-2.7-2.2-2.7h-1.3L149.6,68.9z"/>
			<path fill="#FFFFFF" d="M156,69.9l1.3-7.2h3.9l-0.2,1h-2.8l-0.4,2.1h2.8l-0.2,1h-2.8l-0.4,2.2h2.8l-0.2,1H156z"/>
		</g>
	</g>
	<g>
		<g>
			<g>
				<path fill="#95C648" d="M128.3,90.7c-0.8,0.1-1.7,0.3-2.5,0.5c-2.9,0.6-5.8,1.5-8.5,2.6c-5.1,2-9.3,4.5-12.6,7.5
					c-1.8,1.6-3.2,3.2-4.1,4.8c-1,1.5-1.6,3.2-1.6,4.9c-0.1,1,0,2,0.3,2.9c0.8,2.4,3,4.4,6.7,5.7c2.9,1,6.3,1.5,10.2,1.5
					c0.1,0,0.1,0,0.2,0c2.1-0.1,4.2-0.3,6.5-0.7c2.1-0.4,4.4-1,6.8-1.6c4.9-1.5,9.3-3.6,13.1-6.1l-10.1-2.7
					c-2.2,1.4-5.1,2.7-8.8,3.9c-2.1,0.7-4.1,1.2-6.1,1.5c-0.8,0.1-1.7,0.3-2.5,0.3c-3.2,0.3-6.1,0.1-8.6-0.6c-4-1.2-5.9-3.2-5.7-6.1
					c0-2.5,1.5-5.1,4.5-7.7c2.7-2.5,6.1-4.6,10.3-6.2c2.7-1.1,5.3-1.9,8-2.4c1.6-0.3,3.3-0.5,4.9-0.5c4.8-0.3,8.4,0.6,10.8,2.6
					c0.5,0.4,0.8,0.8,1.1,1.2c1.1,1.6,1.2,3.4,0.3,5.5l11.2,0.3c0.3-0.9,0.4-1.7,0.5-2.5c0-1.9-0.7-3.6-2.2-5.1
					c-0.6-0.6-1.2-1.1-2-1.5c-3.7-2.3-8.7-3.2-15.1-2.8C131.7,90.2,130,90.4,128.3,90.7"/>
				<path fill="#95C648" d="M121.1,98.7l-0.8,0.1c-1.7,0.3-3.2,0.9-4.3,1.9c-1.3,0.9-1.8,2-1.7,3c0.1,1,0.8,1.7,2.2,2.2
					c1.2,0.4,2.6,0.4,4.2,0.1c0.2,0,0.3-0.1,0.5-0.1c1-0.2,1.9-0.6,2.7-1c0.6-0.3,1.1-0.6,1.6-1c0.2-0.1,0.3-0.3,0.4-0.4
					c0.1-0.1,0.3-0.3,0.4-0.4c0.5-0.7,0.8-1.3,0.7-2c-0.1-1-0.8-1.7-2-2.1C123.8,98.6,122.5,98.5,121.1,98.7"/>
				<path fill="#231F20" d="M158,131l0.2,0c0.2,0,3.2,0,3.9,0v-1.2c-0.8,0-3.7,0-3.9,0H158v-2.4h0.2c0.3,0,6.8,0,8,0v-1.5l-9.8,0
					l0,9.4l9.8,0v-1.5c-1.2,0-7.7,0-8,0l-0.2,0L158,131z"/>
				<path fill="#231F20" d="M90.7,134c-2.4,0-5.2-1-5.2-3.4c0-2,2.1-3.4,4.8-3.4c1.5,0,2.9,0.4,4.4,1.4l1.2-0.8
					c-1.6-1.2-3.6-1.8-5.7-1.8c-3.7,0-6.4,2-6.4,4.7c0,2.7,2.8,4.7,6.7,4.7c2.3,0,4.2-0.6,5.6-1.8l-1.1-0.9
					C93.7,133.6,92.4,134,90.7,134"/>
				<path fill="#231F20" d="M146.9,127.5c0,0.2,0,6.6,0,7.8h1.6c0-1.1,0-7.5,0-7.7v-0.2h0.2c0.2,0,3.3,0,4.1,0v-1.5l-10.2,0v1.5
					c0.8,0,3.9,0,4.1,0h0.2V127.5z"/>
				<path fill="#231F20" d="M127.1,130.4c0,2.7,2.8,4.8,6.4,4.8c3.6,0,6.4-2.1,6.4-4.7c0-2.6-2.8-4.7-6.4-4.8
					C130,125.8,127.1,128,127.1,130.4 M133.6,127.1c2.6,0,4.7,1.4,4.8,3.4c0,2-2.2,3.5-4.7,3.5c-2.6,0-4.8-1.5-4.8-3.4
					C128.8,128.5,130.9,127.1,133.6,127.1"/>
				<path fill="#231F20" d="M98.8,130.4c0,2.7,2.8,4.8,6.4,4.8c3.6,0,6.4-2.1,6.4-4.7c0-2.6-2.8-4.7-6.4-4.8
					C101.7,125.8,98.8,127.9,98.8,130.4 M105.3,127.1c2.6,0,4.7,1.4,4.8,3.4c0,2-2.2,3.5-4.7,3.5c-2.6,0-4.8-1.5-4.8-3.4
					C100.5,128.5,102.5,127.1,105.3,127.1"/>
				<path fill="#231F20" d="M119.4,129.8c-0.2-0.2-3.1-3.5-3.6-3.9h-2c1,1.1,4.7,5.2,4.8,5.3l0,0.1v0.1c0,0.1,0,3.3,0,4.1h1.7
					c0-0.8,0-4,0-4.1v-0.1l0,0c0.1-0.1,3.8-4.1,4.9-5.2l-2.1,0c-0.4,0.5-3.3,3.7-3.5,3.9l-0.1,0.1L119.4,129.8z"/>
			</g>
		</g>
		<g>
			<path fill="#95C648" d="M91.1,149.9H90l1.3-7.2h2.1c1.7,0,2.4,0.9,2.1,2.2c-0.2,1.3-1.2,2.2-3,2.2h-1L91.1,149.9z M91.8,146h1
				c1.2,0,1.6-0.7,1.7-1.2c0.1-0.5-0.1-1.2-1.3-1.2h-1L91.8,146z"/>
			<path fill="#95C648" d="M95.9,149.9l1.3-7.2h3.9l-0.2,1h-2.8l-0.4,2.1h2.8l-0.2,1h-2.8l-0.4,2.2h2.8l-0.2,1H95.9z"/>
			<path fill="#95C648" d="M104.9,150c-2.2,0-3.4-1.8-3.1-3.8c0.4-2,2.3-3.8,4.5-3.8c2.2,0,3.4,1.7,3.1,3.8
				C109,148.2,107.1,150,104.9,150z M106.1,143.5c-1.9,0-3,1.6-3.2,2.8c-0.2,1.2,0.3,2.8,2.2,2.8c1.9,0,3-1.6,3.2-2.8
				C108.5,145,107.9,143.5,106.1,143.5z"/>
			<path fill="#95C648" d="M111.2,149.9h-1.1l1.3-7.2h2.1c1.7,0,2.4,0.9,2.1,2.2c-0.2,1.3-1.2,2.2-3,2.2h-1L111.2,149.9z M111.9,146
				h1c1.2,0,1.6-0.7,1.7-1.2c0.1-0.5-0.1-1.2-1.3-1.2h-1L111.9,146z"/>
			<path fill="#95C648" d="M116.2,149.9l1.3-7.2h1.1l-1.2,6.3h2.5l-0.2,1H116.2z"/>
			<path fill="#95C648" d="M120.8,149.9l1.3-7.2h3.9l-0.2,1H123l-0.4,2.1h2.8l-0.2,1h-2.8l-0.4,2.2h2.8l-0.2,1H120.8z"/>
			<path fill="#95C648" d="M129.6,149.9l1.3-7.2h1.1l-1.3,7.2H129.6z"/>
			<path fill="#95C648" d="M137.2,149.9l-2.5-5.6h0l-1,5.6h-1.1l1.3-7.2h1.2l2.5,5.5h0l1-5.5h1.1l-1.3,7.2H137.2z"/>
			<path fill="#95C648" d="M141.1,147.7c0,0.2-0.1,1.3,0.9,1.3c0.7,0,1.2-0.5,1.4-1.2c0.1-0.8-0.5-1-0.9-1.2
				c-0.9-0.4-1.1-0.5-1.4-0.8c-0.3-0.3-0.3-0.9-0.2-1.4c0.2-0.8,1-2,2.4-2c1.2,0,1.9,0.8,1.7,2h-1.1c0.1-0.8-0.4-1-0.8-1
				c-0.6,0-1.1,0.6-1.2,1c-0.1,0.7,0.5,0.9,0.8,1c0.8,0.3,2.1,0.6,1.8,2.4c-0.2,1.3-1.3,2.2-2.6,2.2c-1,0-2.1-0.7-1.8-2.3H141.1z"/>
			<path fill="#95C648" d="M145.5,149.9l1.3-7.2h1.1l-1.3,7.2H145.5z"/>
			<path fill="#95C648" d="M149.7,142.6h2.3c1.5,0,2.3,0.6,2.7,1.3c0.4,0.7,0.4,1.6,0.3,2.3c-0.2,1-0.7,2-1.4,2.6c-1,0.8-2,1-3,1
				h-2.3L149.7,142.6z M149.6,148.9h1.3c1.3,0,2.8-0.6,3.2-2.6c0.2-1.1-0.2-2.7-2.2-2.7h-1.3L149.6,148.9z"/>
			<path fill="#95C648" d="M156,149.9l1.3-7.2h3.9l-0.2,1h-2.8l-0.4,2.1h2.8l-0.2,1h-2.8l-0.4,2.2h2.8l-0.2,1H156z"/>
		</g>
	</g>
</g>
<g id="Repères" display="none">
</g>
</svg>
