<?xml version="1.0" encoding="utf-8"?>
<!-- Generator: Adobe Illustrator 18.0.0, SVG Export Plug-In . SVG Version: 6.00 Build 0)  -->
<!DOCTYPE svg PUBLIC "-//W3C//DTD SVG 1.1//EN" "http://www.w3.org/Graphics/SVG/1.1/DTD/svg11.dtd">
<svg version="1.1" id="Logo_Clients" xmlns="http://www.w3.org/2000/svg" xmlns:xlink="http://www.w3.org/1999/xlink" x="0px"
	 y="0px" width="250px" height="160px" viewBox="0 0 250 160" enable-background="new 0 0 250 160" xml:space="preserve">
<g>
	<g>
		<path fill="#FFFFFF" d="M233.2,37.3c0,0.9,0.4,3.1,0.3,4c0,0-0.6,0-0.6,0c0.2-3.8-2-3.4-5.9-3.4c-0.5,0-4.9,0-5,0v11.7
			c0,3.7,1,3.8,3.7,3.8c0.2,0,4.8,0,5,0c4.6,0,6.8-0.4,8.7-5.7l0.7,0.3c-0.3,1.9-2.3,7.2-2.3,7.2c-8.6,0-14.9-0.4-17.7-0.4
			c-1.6,0-3.7,0.3-4.9,0.3c-0.8,0-2-0.1-2.6-0.2l0-0.8c0.6,0.1,1.4,0.2,2,0.2c2.9,0,3.3-1.7,3.3-4.2V26.1c-0.3-4-3.4-3.3-5.3-3.3
			l0-0.8c0,0,1.2-0.3,2.7-0.2c1.4,0.1,2.3,0.2,4.4,0.2c2.2,0,9.5,0,16.4-0.3c0.5,2.2,0.7,5.1,0.8,6.9l-0.6,0.1
			c-0.6-4.7-2.7-5.6-6.4-5.6c-1.1,0-4.1-0.1-4.6-0.1c-1.9,0-3.3,0.2-3.3,3v10.6h5c3.9,0,6.1,0.4,5.9-3.4c0,0,0.6,0,0.6,0
			C233.6,34.2,233.2,36.4,233.2,37.3z"/>
		<path fill="#FFFFFF" d="M188.3,54.8c-1,0-3,0.3-4.6,0.3c-0.5,0-1.4-0.2-1.7-0.2v-0.8c4.4,0.7,4.4-2,4.5-4.5V27.6
			c0-2.3,0.3-5.3-4.8-4.6v-0.8c0.5-0.2,1.2-0.2,2.3-0.2c1,0,3,0.4,4.1,0.4c1.5,0,3.6-0.4,5.5-0.4c0.5,0,0.9,0.1,1.5,0.2l0,0.8
			c-5-0.7-4.8,1.6-4.8,3.9l0,22.8c0,3.7,1,3.8,3.7,3.8c0.2,0,4.8,0,5.1,0c4.1,0,6.7-0.4,8.6-5.7l0.7,0.3c-0.3,1.9-2.3,7.2-2.3,7.2
			C197.4,55.2,191.4,54.9,188.3,54.8z"/>
		<path fill="#FFFFFF" d="M10,54.1c0.5,0.1,1.1,0.1,1.6,0.1c1.2,0,3.4,0,3.9-6.1l2-28c0.3-4-2-4.2-4.2-4.2v-0.7
			c2-0.2,2.2-0.2,2.8-0.2c1.4,0,4.5,0.1,5.2,1.7l12.4,30.8L45.2,19c1.4-3.6,4.3-3.9,6.7-3.9c1.1,0,1.7,0.1,2.4,0.2V16
			c-0.5,0-0.9-0.1-1.4-0.1C50,16,49.4,17.8,49.7,21l2.4,27.6c0.2,3.1,0.9,5.6,3.7,5.6c0.5,0,1.2,0,1.7-0.1v0.8
			c-0.8,0.2-1.4,0.1-2.4,0.1c-1.1,0-3.2-0.4-4.7-0.4c-1.4,0-3.9,0.4-5.4,0.4c-0.9,0-1.1-0.1-1.5-0.1v-0.8c0.5,0.1,0.9,0.1,1.4,0.1
			c3,0,3.2-2,3.2-4.2c0-0.2,0-1.5-0.2-3.3l-2.3-24.9L32.8,53.2l-1.2,0.2L18.9,21.6l-1.7,27.2c-0.2,3.1,0.1,5.5,3.1,5.5
			c0.4,0,0.7,0,1.1-0.1v0.8c-0.6,0.1-1.4,0.2-2.1,0.1c-1.7-0.1-2.2-0.4-3.5-0.4c-1.4,0-2.1,0.4-3.6,0.4c-1.2,0-1.3,0-2.2-0.2V54.1z"
			/>
		<path fill="#FFFFFF" d="M93.1,26.1c0-2.4-1.2-3.7-4.9-3.5v-0.8c0.3-0.1,1.1-0.1,1.5-0.2c1.5,0,3.7,0.4,5,0.4
			c1.3,0,4.1-0.2,4.1-0.2c1.6-0.1,4.2-0.2,5-0.2c2.1,0,10.4,0.1,10.4,8c0,2.8-1.1,6-6,7.6v0.2c0.7,0.3,1.6,1.1,2.2,2.1
			c0.7,1,8.9,15.2,10.9,17.8c2,2.6,3.8,6.6,8,6.4c2-0.1,3.4-0.8,3.4-0.8l0.2,0.5c0,0-0.8,0.8-3.3,1.4c-5.8,1.3-9.4-2.3-12.7-6.9
			c-3.3-4.8-8.6-14.7-10.6-17.5c-0.7-1.1-2-2.1-4-2.1l-5.4,0v10.8c0,3.2,0.2,5.2,3.1,5.2c0.6,0,1.2-0.1,1.8-0.1v0.8
			c-1.1,0.2-1.3,0.2-1.7,0.2c-2.2,0-3.4-0.4-5.1-0.4c-0.8,0-4.1,0.5-5.1,0.4c-1,0-1.3-0.1-1.9-0.2v-0.8c3.8,0.6,4.9-0.9,5-3.7V26.1z
			 M97.1,36.7c0,0,2.7,0,4.2,0c4.8-0.1,8.6-2.3,8.6-6.9c0-6.8-7.3-6.8-10.7-6.8c-1.1,0-2,0.3-2,1.6V36.7z"/>
		<path fill="#FFFFFF" d="M142.8,54.1c3,0.6,3.8-0.7,5.5-4l10.9-28.7h0.9l10.9,27.4c1.4,3.3,2,6.4,5.6,5.2v0.9
			c-0.5,0.1-0.9,0.2-1.6,0.2c-2.2,0-2.5-0.4-4.2-0.4c-1.8,0-2.4,0.5-4.9,0.4c-0.5,0-0.9-0.1-1.5-0.2l0-0.8c3.2,0.5,3.7-0.6,3.6-1.7
			c0-0.9-0.5-1.8-0.5-1.8l-4.2-10.5h-9.8l-3.4,9.2c-0.4,1.1-0.6,2-0.5,2.6c0,1.8,0.6,2.7,3.6,2.2v0.8c-0.4,0.1-1.1,0.2-1.5,0.2
			c-1.5,0-2.7-0.4-3.9-0.4c-1.5,0-1.9,0.4-3.2,0.4c-0.7,0-1.3-0.1-1.7-0.2V54.1z M162.8,38.8l-4.5-11.3l-4.1,11.3H162.8z"/>
		<path fill="#FFFFFF" d="M137.9,54.8c-0.4,0.1-1.1,0.2-1.5,0.2c-2.9,0-4.1-0.4-5.2-0.4c-1.2,0-2.7,0.4-5,0.4
			c-0.8,0-1.3-0.1-1.8-0.2v-0.8c0.6,0.1,1.2,0.1,1.8,0.1c2.4-0.1,2.7-1.5,2.9-3.6V25.9c-0.1-2.5-1.1-3.7-5.1-3.2l0-0.8
			c0.6-0.2,1.8-0.2,2.4-0.2c0.7,0,3,0.4,4.7,0.4c1.5,0,3.8-0.4,4.6-0.4c1.2,0,1.7,0,2.5,0.2v0.8c-5.2-0.7-5.1,1.8-5.1,4.6v21.7
			c0,3.4,0.4,5.1,3,5.1c0.5,0,1.2,0,1.7-0.1V54.8z"/>
		<path fill="#FFFFFF" d="M80.2,54.8c-0.4,0.1-1.1,0.2-1.5,0.2c-2.9,0-4.1-0.4-5.2-0.4c-1.1,0-2.6,0.4-5,0.4c-0.8,0-1.3-0.1-1.8-0.2
			v-0.8c0.6,0.1,1.2,0.1,1.8,0.1c2.4-0.1,2.7-1.5,2.9-3.6V25.9c-0.1-2.5-1.1-3.7-5.1-3.2l0-0.8c0.5-0.2,1.8-0.2,2.4-0.2
			c0.7,0,3,0.4,4.7,0.4c1.5,0,3.8-0.4,4.6-0.4c1.2,0,1.7,0,2.5,0.2v0.8c-5.2-0.7-5.1,1.8-5.1,4.6v21.7c0,3.4,0.4,5.1,3,5.1
			c0.6,0,1.2,0,1.7-0.1V54.8z"/>
	</g>
</g>
<g>
	<g>
		<path fill="#231F20" d="M233.2,117.3c0,0.9,0.4,3.1,0.3,4c0,0-0.6,0-0.6,0c0.2-3.8-2-3.4-5.9-3.4c-0.5,0-4.9,0-5,0v11.7
			c0,3.7,1,3.8,3.7,3.8c0.2,0,4.8,0,5,0c4.6,0,6.8-0.4,8.7-5.7l0.7,0.3c-0.3,1.9-2.3,7.2-2.3,7.2c-8.6,0-14.9-0.4-17.7-0.4
			c-1.6,0-3.7,0.3-4.9,0.3c-0.8,0-2-0.1-2.6-0.2l0-0.8c0.6,0.1,1.4,0.2,2,0.2c2.9,0,3.3-1.7,3.3-4.2v-23.9c-0.3-4-3.4-3.3-5.3-3.3
			l0-0.8c0,0,1.2-0.3,2.7-0.2c1.4,0.1,2.3,0.2,4.4,0.2c2.2,0,9.5,0,16.4-0.3c0.5,2.2,0.7,5.1,0.8,6.9l-0.6,0.1
			c-0.6-4.7-2.7-5.6-6.4-5.6c-1.1,0-4.1-0.1-4.6-0.1c-1.9,0-3.3,0.2-3.3,3v10.6h5c3.9,0,6.1,0.4,5.9-3.4c0,0,0.6,0,0.6,0
			C233.6,114.2,233.2,116.4,233.2,117.3z"/>
		<path fill="#231F20" d="M188.3,134.8c-1,0-3,0.3-4.6,0.3c-0.5,0-1.4-0.2-1.7-0.2v-0.8c4.4,0.7,4.4-2,4.5-4.5v-22.1
			c0-2.3,0.3-5.3-4.8-4.6v-0.8c0.5-0.2,1.2-0.2,2.3-0.2c1,0,3,0.4,4.1,0.4c1.5,0,3.6-0.4,5.5-0.4c0.5,0,0.9,0.1,1.5,0.2l0,0.8
			c-5-0.7-4.8,1.6-4.8,3.9l0,22.8c0,3.7,1,3.8,3.7,3.8c0.2,0,4.8,0,5.1,0c4.1,0,6.7-0.4,8.6-5.7l0.7,0.3c-0.3,1.9-2.3,7.2-2.3,7.2
			C197.4,135.2,191.4,134.9,188.3,134.8z"/>
		<path fill="#231F20" d="M10,134.1c0.5,0.1,1.1,0.1,1.6,0.1c1.2,0,3.4,0,3.9-6.1l2-28c0.3-4-2-4.2-4.2-4.2v-0.7
			c2-0.2,2.2-0.2,2.8-0.2c1.4,0,4.5,0.1,5.2,1.7l12.4,30.8L45.2,99c1.4-3.6,4.3-3.9,6.7-3.9c1.1,0,1.7,0.1,2.4,0.2V96
			c-0.5,0-0.9-0.1-1.4-0.1c-2.9,0.1-3.5,1.9-3.1,5.1l2.4,27.6c0.2,3.1,0.9,5.6,3.7,5.6c0.5,0,1.2,0,1.7-0.1v0.8
			c-0.8,0.2-1.4,0.1-2.4,0.1c-1.1,0-3.2-0.4-4.7-0.4c-1.4,0-3.9,0.4-5.4,0.4c-0.9,0-1.1-0.1-1.5-0.1v-0.8c0.5,0.1,0.9,0.1,1.4,0.1
			c3,0,3.2-2,3.2-4.2c0-0.2,0-1.5-0.2-3.3l-2.3-24.9l-12.9,31.4l-1.2,0.2l-12.7-31.9l-1.7,27.2c-0.2,3.1,0.1,5.5,3.1,5.5
			c0.4,0,0.7,0,1.1-0.1v0.8c-0.6,0.1-1.4,0.2-2.1,0.1c-1.7-0.1-2.2-0.4-3.5-0.4c-1.4,0-2.1,0.4-3.6,0.4c-1.2,0-1.3,0-2.2-0.2V134.1z
			"/>
		<path fill="#231F20" d="M93.1,106.1c0-2.4-1.2-3.7-4.9-3.5v-0.8c0.3-0.1,1.1-0.1,1.5-0.2c1.5,0,3.7,0.4,5,0.4
			c1.3,0,4.1-0.2,4.1-0.2c1.6-0.1,4.2-0.2,5-0.2c2.1,0,10.4,0.1,10.4,8c0,2.8-1.1,6-6,7.6v0.2c0.7,0.3,1.6,1.1,2.2,2.1
			c0.7,1,8.9,15.2,10.9,17.8c2,2.6,3.8,6.6,8,6.4c2-0.1,3.4-0.8,3.4-0.8l0.2,0.5c0,0-0.8,0.8-3.3,1.4c-5.8,1.3-9.4-2.3-12.7-6.9
			c-3.3-4.8-8.6-14.7-10.6-17.5c-0.7-1.1-2-2.1-4-2.1l-5.4,0v10.8c0,3.2,0.2,5.2,3.1,5.2c0.6,0,1.2-0.1,1.8-0.1v0.8
			c-1.1,0.2-1.3,0.2-1.7,0.2c-2.2,0-3.4-0.4-5.1-0.4c-0.8,0-4.1,0.5-5.1,0.4c-1,0-1.3-0.1-1.9-0.2v-0.8c3.8,0.6,4.9-0.9,5-3.7V106.1
			z M97.1,116.7c0,0,2.7,0,4.2,0c4.8-0.1,8.6-2.3,8.6-6.9c0-6.8-7.3-6.8-10.7-6.8c-1.1,0-2,0.3-2,1.6V116.7z"/>
		<path fill="#231F20" d="M142.8,134.1c3,0.6,3.8-0.7,5.5-4l10.9-28.7h0.9l10.9,27.4c1.4,3.3,2,6.4,5.6,5.2v0.9
			c-0.5,0.1-0.9,0.2-1.6,0.2c-2.2,0-2.5-0.4-4.2-0.4c-1.8,0-2.4,0.5-4.9,0.4c-0.5,0-0.9-0.1-1.5-0.2l0-0.8c3.2,0.5,3.7-0.6,3.6-1.7
			c0-0.9-0.5-1.8-0.5-1.8l-4.2-10.5h-9.8l-3.4,9.2c-0.4,1.1-0.6,2-0.5,2.6c0,1.8,0.6,2.7,3.6,2.2v0.8c-0.4,0.1-1.1,0.2-1.5,0.2
			c-1.5,0-2.7-0.4-3.9-0.4c-1.5,0-1.9,0.4-3.2,0.4c-0.7,0-1.3-0.1-1.7-0.2V134.1z M162.8,118.8l-4.5-11.3l-4.1,11.3H162.8z"/>
		<path fill="#231F20" d="M137.9,134.8c-0.4,0.1-1.1,0.2-1.5,0.2c-2.9,0-4.1-0.4-5.2-0.4c-1.2,0-2.7,0.4-5,0.4
			c-0.8,0-1.3-0.1-1.8-0.2v-0.8c0.6,0.1,1.2,0.1,1.8,0.1c2.4-0.1,2.7-1.5,2.9-3.6v-24.6c-0.1-2.5-1.1-3.7-5.1-3.2l0-0.8
			c0.6-0.2,1.8-0.2,2.4-0.2c0.7,0,3,0.4,4.7,0.4c1.5,0,3.8-0.4,4.6-0.4c1.2,0,1.7,0,2.5,0.2v0.8c-5.2-0.7-5.1,1.8-5.1,4.6v21.7
			c0,3.4,0.4,5.1,3,5.1c0.5,0,1.2,0,1.7-0.1V134.8z"/>
		<path fill="#231F20" d="M80.2,134.8c-0.4,0.1-1.1,0.2-1.5,0.2c-2.9,0-4.1-0.4-5.2-0.4c-1.1,0-2.6,0.4-5,0.4
			c-0.8,0-1.3-0.1-1.8-0.2v-0.8c0.6,0.1,1.2,0.1,1.8,0.1c2.4-0.1,2.7-1.5,2.9-3.6v-24.6c-0.1-2.5-1.1-3.7-5.1-3.2l0-0.8
			c0.5-0.2,1.8-0.2,2.4-0.2c0.7,0,3,0.4,4.7,0.4c1.5,0,3.8-0.4,4.6-0.4c1.2,0,1.7,0,2.5,0.2v0.8c-5.2-0.7-5.1,1.8-5.1,4.6v21.7
			c0,3.4,0.4,5.1,3,5.1c0.6,0,1.2,0,1.7-0.1V134.8z"/>
	</g>
</g>
</svg>
