<?xml version="1.0" encoding="utf-8"?>
<!-- Generator: Adobe Illustrator 18.0.0, SVG Export Plug-In . SVG Version: 6.00 Build 0)  -->
<!DOCTYPE svg PUBLIC "-//W3C//DTD SVG 1.1//EN" "http://www.w3.org/Graphics/SVG/1.1/DTD/svg11.dtd">
<svg version="1.1" xmlns="http://www.w3.org/2000/svg" xmlns:xlink="http://www.w3.org/1999/xlink" x="0px" y="0px"
	 viewBox="0 0 250 160" enable-background="new 0 0 250 160" xml:space="preserve">
<g id="Layers" display="none">
	<rect display="inline" fill="#FF0000" width="250" height="80"/>
	<rect y="80" display="inline" opacity="0.5" fill="#FF0000" width="250" height="80"/>
</g>
<g id="Sprites">
</g>
<g id="Logo_Clients">
	<g>
		<path fill="#FFFFFF" d="M46.7,57.5c-3,7.2-7.3,12.5-17,12.5C13,70,10.5,54.4,10.5,40.7C10.5,26.1,13.4,10,30,10
			c9.9,0,14.7,5.7,17.3,13.4l-11.5,5.4c-1.3-4.5-2.9-6.2-5.6-6.2c-4.4,0-6.1,4.5-6.1,18c0,11.8,1.3,16.9,5.9,16.9
			c2.4,0,4.1-1.4,5.6-6L46.7,57.5z"/>
		<path fill="#FFFFFF" d="M49.4,40c0-15.3,3.5-30,19.5-30C85,10,88.4,24.7,88.4,40S85,70,68.9,70C52.9,70,49.4,55.3,49.4,40z
			 M74.8,40c0-10.5-0.7-16.8-5.9-16.8c-5,0-5.9,6.3-5.9,16.8s0.9,16.8,5.9,16.8C73.9,56.8,74.8,50.5,74.8,40z"/>
		<path fill="#FFFFFF" d="M116.2,68.8h-13.6V53.1l-13.7-42h14.6l4.5,17.2c0.9,3.4,1.3,9.2,1.3,9.2h0.2c0,0,0.7-5.9,1.5-9.2l4.2-17.2
			H130l-13.8,42V68.8z"/>
		<path fill="#FFFFFF" d="M129.8,40c0-15.3,3.5-30,19.5-30c16.1,0,19.5,14.7,19.5,30s-3.5,30-19.5,30C133.4,70,129.8,55.3,129.8,40z
			 M155.2,40c0-10.5-0.7-16.8-5.9-16.8c-5,0-5.9,6.3-5.9,16.8s0.9,16.8,5.9,16.8C154.4,56.8,155.2,50.5,155.2,40z"/>
		<path fill="#FFFFFF" d="M179.4,68.8V24.3H171V11.2h30.7v13.2h-8.5v44.5H179.4z"/>
		<path fill="#FFFFFF" d="M207.5,68.8V11.2h32.1v12.5h-18.4v11h15.3v12h-15.3v9.6h18.4v12.5H207.5z"/>
	</g>
	<g>
		<path d="M46.7,137.5c-3,7.2-7.3,12.5-17,12.5c-16.6,0-19.2-15.6-19.2-29.3C10.5,106.1,13.4,90,30,90c9.9,0,14.7,5.7,17.3,13.4
			l-11.5,5.4c-1.3-4.5-2.9-6.2-5.6-6.2c-4.4,0-6.1,4.5-6.1,18c0,11.8,1.3,16.9,5.9,16.9c2.4,0,4.1-1.4,5.6-6L46.7,137.5z"/>
		<path d="M49.4,120c0-15.3,3.5-30,19.5-30c16.1,0,19.5,14.7,19.5,30s-3.5,30-19.5,30C52.9,150,49.4,135.3,49.4,120z M74.8,120
			c0-10.5-0.7-16.8-5.9-16.8c-5,0-5.9,6.3-5.9,16.8s0.9,16.8,5.9,16.8C73.9,136.8,74.8,130.5,74.8,120z"/>
		<path d="M116.2,148.8h-13.6v-15.7l-13.7-42h14.6l4.5,17.2c0.9,3.4,1.3,9.2,1.3,9.2h0.2c0,0,0.7-5.9,1.5-9.2l4.2-17.2H130l-13.8,42
			V148.8z"/>
		<path d="M129.8,120c0-15.3,3.5-30,19.5-30c16.1,0,19.5,14.7,19.5,30s-3.5,30-19.5,30C133.4,150,129.8,135.3,129.8,120z M155.2,120
			c0-10.5-0.7-16.8-5.9-16.8c-5,0-5.9,6.3-5.9,16.8s0.9,16.8,5.9,16.8C154.4,136.8,155.2,130.5,155.2,120z"/>
		<path d="M179.4,148.8v-44.5H171V91.2h30.7v13.2h-8.5v44.5H179.4z"/>
		<path d="M207.5,148.8V91.2h32.1v12.5h-18.4v11h15.3v12h-15.3v9.6h18.4v12.5H207.5z"/>
	</g>
</g>
<g id="Repères" display="none">
</g>
</svg>
