<?xml version="1.0" encoding="utf-8"?>
<!-- Generator: Adobe Illustrator 18.0.0, SVG Export Plug-In . SVG Version: 6.00 Build 0)  -->
<!DOCTYPE svg PUBLIC "-//W3C//DTD SVG 1.1//EN" "http://www.w3.org/Graphics/SVG/1.1/DTD/svg11.dtd">
<svg version="1.1" xmlns="http://www.w3.org/2000/svg" xmlns:xlink="http://www.w3.org/1999/xlink" x="0px" y="0px"
	 viewBox="0 0 250 160" enable-background="new 0 0 250 160" xml:space="preserve">
<g id="Layers" display="none">
	<rect display="inline" fill="#FF0000" width="250" height="80"/>
	<rect y="80" display="inline" opacity="0.5" fill="#FF0000" width="250" height="80"/>
</g>
<g id="Sprites">
</g>
<g id="Logo_Clients">
	<g>
		<path fill="#FFFFFF" d="M74.5,43.4c0.1,1.7,0.2,5.8,0.2,7.4c0,1.4,0,6.1-0.2,8.1l0,0.2l7.5,0c3.6,0,7.5-1.1,7.5-4.3
			c0-2-1.5-3.5-4.2-4.3c2-0.5,3.4-1.9,3.4-3.5c0-2.6-3.1-3.6-5.9-3.7c0,0-8.2,0-8.2,0L74.5,43.4 M80.3,45c3.1,0,4.3,0.6,4.3,2.3
			c0,0.4-0.1,0.8-0.4,1.2c-0.6,0.7-1.8,1.1-3.3,1h-0.1L80,51.7h0.9c1.7-0.1,3.2,0.5,4,1.4c0.4,0.4,0.5,0.9,0.5,1.4
			c0,1.8-1.6,2.6-4.6,2.6c-0.5,0-1.4,0-1.9,0c-0.1-2.3-0.1-5.5-0.1-6.4c0-1.1,0-3.6,0.1-5.7C79.2,45.1,79.8,45,80.3,45z"/>
		<path fill="#FFFFFF" d="M106.7,43.3h-3.6l0.2,4c0.1,2,0.1,4,0.3,6c-0.3-0.6-0.4-0.9-1.5-2.5c0-0.1-3.8-5.8-5.1-7.4l0,0h-4.2l0,0.2
			c0.1,1.7,0.2,5.8,0.2,7.4c0,1.4,0,6.1-0.2,8.1l0,0.2h3.7l0-0.2c-0.2-3.9-0.2-7.8-0.2-11.5v0c0.1,0.5,0.3,0.9,0.9,1.7
			c0.1,0.1,6.5,9.3,6.8,9.9l0,0.1h3l0-0.2c-0.2-2-0.2-6.7-0.2-8.1c0-1.5,0.1-5.7,0.2-7.4l0-0.2H106.7"/>
		<path fill="#FFFFFF" d="M111.1,43.4c0.1,1.7,0.2,5.8,0.2,7.4c0,1.4,0,6.1-0.2,8.1l0,0.2h4.5l0-0.2c-0.2-1.4-0.2-4.2-0.2-6.4
			c0.2,0,0.8,0,0.8,0l0.6,0c5.9,0,8.8-1.6,8.8-4.8c0-3.7-4-4.5-7.4-4.6l-7,0L111.1,43.4 M116.6,45.2c2.1,0,3.6,0.4,4.3,1.2
			c0.3,0.4,0.5,0.9,0.5,1.4c0,2.3-2.6,2.8-4.8,2.8l-0.9,0c0,0-0.2,0-0.4-0.1c0-0.5,0-1.2,0-2c0-1,0-2.2,0-3.3
			C115.6,45.2,116.1,45.2,116.6,45.2z"/>
		<path fill="#FFFFFF" d="M134,43.4c0.1,1.7,0.2,5.8,0.2,7.4c0,1.4,0,6.1-0.2,8.1l0,0.2h4.5l0-0.2c-0.2-1.4-0.2-4.2-0.2-6.4
			c0.2,0,0.8,0,0.8,0l0.6,0c5.9,0,8.8-1.6,8.8-4.8c0-3.7-4-4.5-7.4-4.6l-7,0L134,43.4 M139.5,45.2c2.1,0,3.6,0.4,4.3,1.2
			c0.3,0.4,0.5,0.9,0.5,1.4c0,2.3-2.6,2.8-4.8,2.8l-0.9,0c0,0-0.2,0-0.3-0.1c0-0.5,0-1.2,0-2c0-1,0-2.2,0.1-3.3
			C138.5,45.2,139,45.2,139.5,45.2z"/>
		<path fill="#FFFFFF" d="M154.4,43.3L154.4,43.3l-0.1,0.1c-0.8,2.2-6.2,13.7-7,15.5l-0.1,0.2h3.8l0-0.1c0.3-1.1,0.8-2.3,1.3-3.6
			c0.1,0,3.2-0.1,3.2-0.1l2.6,0c0,0,0.5,0,0.6,0c0.7,1.7,1.2,3,1.4,3.6l0,0.1h4.4l-7.2-15.8H154.4 M155.5,47.9
			c0.4,0.7,1.3,2.9,2.3,5.4c-0.2,0-0.3,0-0.3,0l-2,0c0,0-2,0-2.4,0C153.9,51.3,154.8,49.4,155.5,47.9z"/>
		<path fill="#FFFFFF" d="M166.3,43.4c0.1,1.7,0.2,5.8,0.2,7.4c0,1.4,0,6.1-0.2,8.1l0,0.2h4.5l0-0.2c-0.2-2-0.2-6.7-0.2-8.1
			c0-1.1,0-3.6,0.1-5.5c0.4,0,0.9-0.1,1.2-0.1c2.1,0,3.6,0.4,4.3,1.2c0.3,0.4,0.5,0.9,0.5,1.4c0,1.8-1.7,2.7-3.4,2.8c-0.5,0-1,0-1,0
			l-0.3-0.1l0.2,0.3c1.6,2.3,3.9,6.2,5,8.1l0,0.1h4.8l-0.1-0.2c-0.2-0.3-3.3-4.8-4.6-6.7c0,0,0-0.1-0.1-0.1c2.4-0.7,3.6-2.1,3.6-4.1
			c0-3.7-4-4.5-7.4-4.6l-7,0L166.3,43.4"/>
		<path fill="#FFFFFF" d="M188.3,43.2H184l0,0.2c0.1,1.7,0.2,5.8,0.2,7.4c0,1.4,0,6.1-0.2,8.1l0,0.2h4.5l0-0.2
			c-0.2-2-0.2-6.7-0.2-8.1c0-1.5,0.1-5.7,0.2-7.4l0-0.2H188.3"/>
		<path fill="#FFFFFF" d="M192.4,43.4c0.1,1.7,0.2,5.8,0.2,7.4c0,1.4,0,6.1-0.2,8.1l0,0.2l7.5,0c3.6,0,7.5-1.1,7.5-4.3
			c0-2-1.5-3.5-4.2-4.3c2-0.5,3.4-1.9,3.4-3.5c0-2.6-3-3.6-5.9-3.7c0,0-8.2,0-8.2,0L192.4,43.4 M198.2,45L198.2,45
			c3.1,0,4.3,0.6,4.3,2.3c0,0.4-0.1,0.8-0.4,1.2c-0.6,0.7-1.8,1.1-3.3,1h-0.1l-0.9,2.2h0.9c1.7-0.1,3.2,0.5,4,1.4
			c0.4,0.4,0.5,0.9,0.5,1.4c0,1.8-1.6,2.6-4.6,2.6c-0.5,0-1.4,0-1.9,0c-0.1-2.3-0.1-5.5-0.1-6.4c0-1.1,0-3.6,0.1-5.7
			C197.1,45.1,197.7,45,198.2,45z"/>
		<path fill="#FFFFFF" d="M218.4,43.2h-3l0,0.1c-0.9,2.4-6.5,14.5-7,15.5l-0.1,0.2h3.8l0-0.1c0.3-1.1,0.8-2.3,1.3-3.6
			c0.1,0,3.2-0.1,3.2-0.1l2.6,0c0,0,0.5,0,0.6,0c0.7,1.7,1.2,3,1.4,3.6l0,0.1h4.4L218.4,43.2L218.4,43.2 M216.6,47.9
			c0.4,0.7,1.3,2.9,2.3,5.3c-0.2,0-0.3,0-0.3,0l-2,0c0,0-2,0-2.4,0C215,51.2,215.9,49.4,216.6,47.9z"/>
		<path fill="#FFFFFF" d="M226.9,47.3c0,2.8,2.8,3.9,5.3,4.9c2,0.8,4,1.6,4,2.9c0,0.4-0.1,0.7-0.3,1c-0.5,0.5-1.4,0.8-2.9,0.7
			c-1.5-0.1-3.2-0.5-5-1.4l-0.8-0.4l0,0.6v2.8l0.5,0.1l0.3,0.1c0.9,0.2,2.7,0.6,4.5,0.6c4.7,0,7.5-1.8,7.5-4.9c0-2.8-2.9-4-5.5-5
			c-1.9-0.7-3.8-1.5-3.8-2.7c0-0.4,0-1.4,2.4-1.4c1.8,0,3.6,0.7,4.5,1.1l0.9,0.4l0-0.6v-2.9l-0.9-0.2c-0.9-0.2-2.4-0.5-4-0.5
			C229.6,42.7,226.9,44.6,226.9,47.3"/>
		<path fill="#FFFFFF" d="M10,14.7v50.7h51.6V14.7H10z M60,62.2c0,1.2-0.8,2.2-1.8,2.2H14c-1,0-1.7-1-1.8-2.2c0,0-1.3-9.5-1.3-23.8
			c0-14.3,1.3-20.9,1.3-20.9c0.2-1.2,0.8-1.8,1.8-1.8h44.3c1,0,1.8,0.7,1.8,1.8c0,0-0.5,12.3-0.5,23C59.5,51.2,60,62.2,60,62.2z"/>
		<path id="SVGID_5_" fill="none" d="M60,40.3c0,10.6,0.5,21.4,0.5,21.4c0,1.2-0.8,2-1.8,2H14c-1,0-1.7-0.9-1.8-2
			c0,0-1.3-9.2-1.3-23.4c0-14.1,1.3-20.8,1.3-20.8c0.2-1.2,0.8-2,1.8-2h44.6c1,0,1.8,0.9,1.8,2C60.5,17.5,60,29.7,60,40.3z"/>
		<g>
			<path fill="#FFFFFF" d="M50.2,28c-3.2,1.8-4.2,2-7.6,4c2-2.1,2.7-3.1,4-4.9c-3.2,0.2-7.8,0.5-11.1,1.3c2.9-1.5,8.6-3.2,11.6-3.6
				c-0.7-0.9-6.4-4-7.8-4.5c4.5,0.3,10,2,12.6,3.6c1-0.3,2.1-0.3,4.1-0.5c-0.5,0.8-0.5,1.3-2.4,2.6c0.5,1.4-0.7,9-1.8,11.1
				C51.7,33.8,51.4,29.7,50.2,28"/>
			<path fill="#FFFFFF" d="M26.9,55.4c-1.8-0.7-3.1-1.4-4.6-2.8c0.4-1.2,0.9-2.1,1.7-3.3c-1.5,0.2-2.6,0.4-3.9,0.6
				c-1-1.8-1.5-3.5-2-5.9c-0.3,2.6-0.4,4.4,0,6.4c-1.2,0.3-2,0.6-3,1c1.4,0.8,2.5,1.4,4,2.1c0.8,1.7,1.7,2.9,3,4.2
				c-0.3-1.1-0.4-2-0.3-3.2C23.5,55.1,25,55.3,26.9,55.4"/>
			<path fill="#FFFFFF" d="M31.7,30L31.7,30c-0.6,0.7-1.2,2.1-1.4,2.7c4.7,0.6,8.5,3,8.5,3c-4.1-0.7-6.3-0.6-7.8-0.5
				c-1.5,0.1-1.8,0.3-1.8,0.3C28,37.9,27.3,42,27.3,42c-0.8-1.8-1.8-5.3-1.8-5.3c-2.1,1.1-6.9,5.5-6.9,5.5c2.6-5.2,5.3-7.5,5.3-7.5
				c-0.9-0.9-3.3-1.4-5.1-1.4c0.9-0.4,3.3-0.8,5.1-0.9c1.8-0.1,2.9,0,2.9,0C28.4,31.2,30.8,30.1,31.7,30"/>
			<path fill="#FFFFFF" d="M36.7,52.2c-0.8,1.1-1.5,2-2.5,3c-1.6,0.4-2.9,0.6-4.4,0.6c0.9,0.5,1.9,0.8,2.9,1c-1,0.9-1.8,1.5-2.8,2.1
				c1.6-0.4,3.7-1,5.3-2c0.8,0,1.6,0,2.2-0.1c-0.1-0.5-0.2-0.8-0.4-1.4c1.5-1.1,2.6-2.2,3.8-3.4c-1.3,0.9-2.4,1.6-4,2.3
				C36.7,53.5,36.7,53,36.7,52.2"/>
		</g>
	</g>
	<g>
		<path fill="#231F20" d="M74.5,123.4c0.1,1.7,0.2,5.8,0.2,7.4c0,1.4,0,6.1-0.2,8.1l0,0.2l7.5,0c3.6,0,7.5-1.1,7.5-4.3
			c0-2-1.5-3.5-4.2-4.3c2-0.5,3.4-1.9,3.4-3.5c0-2.6-3.1-3.6-5.9-3.7c0,0-8.2,0-8.2,0L74.5,123.4 M80.3,125c3.1,0,4.3,0.6,4.3,2.3
			c0,0.4-0.1,0.8-0.4,1.2c-0.6,0.7-1.8,1.1-3.3,1h-0.1l-0.9,2.2h0.9c1.7-0.1,3.2,0.5,4,1.4c0.4,0.4,0.5,0.9,0.5,1.4
			c0,1.8-1.6,2.6-4.6,2.6c-0.5,0-1.4,0-1.9,0c-0.1-2.3-0.1-5.5-0.1-6.4c0-1.1,0-3.6,0.1-5.7C79.2,125.1,79.8,125,80.3,125z"/>
		<path fill="#231F20" d="M106.7,123.3h-3.6l0.2,4c0.1,2,0.1,4,0.3,6c-0.3-0.6-0.4-0.9-1.5-2.5c0-0.1-3.8-5.8-5.1-7.4l0,0h-4.2
			l0,0.2c0.1,1.7,0.2,5.8,0.2,7.4c0,1.4,0,6.1-0.2,8.1l0,0.2h3.7l0-0.2c-0.2-3.9-0.2-7.8-0.2-11.5v0c0.1,0.5,0.3,0.9,0.9,1.7
			c0.1,0.1,6.5,9.3,6.8,9.9l0,0.1h3l0-0.2c-0.2-2-0.2-6.7-0.2-8.1c0-1.5,0.1-5.7,0.2-7.4l0-0.2H106.7"/>
		<path fill="#231F20" d="M111.1,123.4c0.1,1.7,0.2,5.8,0.2,7.4c0,1.4,0,6.1-0.2,8.1l0,0.2h4.5l0-0.2c-0.2-1.4-0.2-4.2-0.2-6.4
			c0.2,0,0.8,0,0.8,0l0.6,0c5.9,0,8.8-1.6,8.8-4.8c0-3.7-4-4.5-7.4-4.6l-7,0L111.1,123.4 M116.6,125.2c2.1,0,3.6,0.4,4.3,1.2
			c0.3,0.4,0.5,0.9,0.5,1.4c0,2.3-2.6,2.8-4.8,2.8l-0.9,0c0,0-0.2,0-0.4-0.1c0-0.5,0-1.2,0-2c0-1,0-2.2,0-3.3
			C115.6,125.2,116.1,125.2,116.6,125.2z"/>
		<path fill="#231F20" d="M134,123.4c0.1,1.7,0.2,5.8,0.2,7.4c0,1.4,0,6.1-0.2,8.1l0,0.2h4.5l0-0.2c-0.2-1.4-0.2-4.2-0.2-6.4
			c0.2,0,0.8,0,0.8,0l0.6,0c5.9,0,8.8-1.6,8.8-4.8c0-3.7-4-4.5-7.4-4.6l-7,0L134,123.4 M139.5,125.2c2.1,0,3.6,0.4,4.3,1.2
			c0.3,0.4,0.5,0.9,0.5,1.4c0,2.3-2.6,2.8-4.8,2.8l-0.9,0c0,0-0.2,0-0.3-0.1c0-0.5,0-1.2,0-2c0-1,0-2.2,0.1-3.3
			C138.5,125.2,139,125.2,139.5,125.2z"/>
		<path fill="#231F20" d="M154.4,123.3L154.4,123.3l-0.1,0.1c-0.8,2.2-6.2,13.7-7,15.5l-0.1,0.2h3.8l0-0.1c0.3-1.1,0.8-2.3,1.3-3.6
			c0.1,0,3.2-0.1,3.2-0.1l2.6,0c0,0,0.5,0,0.6,0c0.7,1.7,1.2,3,1.4,3.6l0,0.1h4.4l-7.2-15.8H154.4 M155.5,127.9
			c0.4,0.7,1.3,2.9,2.3,5.4c-0.2,0-0.3,0-0.3,0l-2,0c0,0-2,0-2.4,0C153.9,131.3,154.8,129.4,155.5,127.9z"/>
		<path fill="#231F20" d="M166.3,123.4c0.1,1.7,0.2,5.8,0.2,7.4c0,1.4,0,6.1-0.2,8.1l0,0.2h4.5l0-0.2c-0.2-2-0.2-6.7-0.2-8.1
			c0-1.1,0-3.6,0.1-5.5c0.4,0,0.9-0.1,1.2-0.1c2.1,0,3.6,0.4,4.3,1.2c0.3,0.4,0.5,0.9,0.5,1.4c0,1.8-1.7,2.7-3.4,2.8c-0.5,0-1,0-1,0
			l-0.3-0.1l0.2,0.3c1.6,2.3,3.9,6.2,5,8.1l0,0.1h4.8l-0.1-0.2c-0.2-0.3-3.3-4.8-4.6-6.7c0,0,0-0.1-0.1-0.1c2.4-0.7,3.6-2.1,3.6-4.1
			c0-3.7-4-4.5-7.4-4.6l-7,0L166.3,123.4"/>
		<path fill="#231F20" d="M188.3,123.2H184l0,0.2c0.1,1.7,0.2,5.8,0.2,7.4c0,1.4,0,6.1-0.2,8.1l0,0.2h4.5l0-0.2
			c-0.2-2-0.2-6.7-0.2-8.1c0-1.5,0.1-5.7,0.2-7.4l0-0.2H188.3"/>
		<path fill="#231F20" d="M192.4,123.4c0.1,1.7,0.2,5.8,0.2,7.4c0,1.4,0,6.1-0.2,8.1l0,0.2l7.5,0c3.6,0,7.5-1.1,7.5-4.3
			c0-2-1.5-3.5-4.2-4.3c2-0.5,3.4-1.9,3.4-3.5c0-2.6-3-3.6-5.9-3.7c0,0-8.2,0-8.2,0L192.4,123.4 M198.2,125L198.2,125
			c3.1,0,4.3,0.6,4.3,2.3c0,0.4-0.1,0.8-0.4,1.2c-0.6,0.7-1.8,1.1-3.3,1h-0.1l-0.9,2.2h0.9c1.7-0.1,3.2,0.5,4,1.4
			c0.4,0.4,0.5,0.9,0.5,1.4c0,1.8-1.6,2.6-4.6,2.6c-0.5,0-1.4,0-1.9,0c-0.1-2.3-0.1-5.5-0.1-6.4c0-1.1,0-3.6,0.1-5.7
			C197.1,125.1,197.7,125,198.2,125z"/>
		<path fill="#231F20" d="M218.4,123.2h-3l0,0.1c-0.9,2.4-6.5,14.5-7,15.5l-0.1,0.2h3.8l0-0.1c0.3-1.1,0.8-2.3,1.3-3.6
			c0.1,0,3.2-0.1,3.2-0.1l2.6,0c0,0,0.5,0,0.6,0c0.7,1.7,1.2,3,1.4,3.6l0,0.1h4.4L218.4,123.2L218.4,123.2 M216.6,127.9
			c0.4,0.7,1.3,2.9,2.3,5.3c-0.2,0-0.3,0-0.3,0l-2,0c0,0-2,0-2.4,0C215,131.2,215.9,129.4,216.6,127.9z"/>
		<path fill="#231F20" d="M226.9,127.3c0,2.8,2.8,3.9,5.3,4.9c2,0.8,4,1.6,4,2.9c0,0.4-0.1,0.7-0.3,1c-0.5,0.5-1.4,0.8-2.9,0.7
			c-1.5-0.1-3.2-0.5-5-1.4l-0.8-0.4l0,0.6v2.8l0.5,0.1l0.3,0.1c0.9,0.2,2.7,0.6,4.5,0.6c4.7,0,7.5-1.8,7.5-4.9c0-2.8-2.9-4-5.5-5
			c-1.9-0.7-3.8-1.5-3.8-2.7c0-0.4,0-1.4,2.4-1.4c1.8,0,3.6,0.7,4.5,1.1l0.9,0.4l0-0.6v-2.9l-0.9-0.2c-0.9-0.2-2.4-0.5-4-0.5
			C229.6,122.7,226.9,124.6,226.9,127.3"/>
		<g>
			<defs>
				<rect id="SVGID_19_" x="10" y="94.7" width="51.6" height="50.7"/>
			</defs>
			<clipPath id="SVGID_2_">
				<use xlink:href="#SVGID_19_"  overflow="visible"/>
			</clipPath>
			
				<linearGradient id="SVGID_4_" gradientUnits="userSpaceOnUse" x1="4154.332" y1="1375.8348" x2="4155.8843" y2="1375.8348" gradientTransform="matrix(0 34.4716 35.0659 0 -48209.1094 -143113.0625)">
				<stop  offset="0" style="stop-color:#007F54"/>
				<stop  offset="0.6" style="stop-color:#80C9AD"/>
				<stop  offset="1" style="stop-color:#00A46E"/>
			</linearGradient>
			<rect x="10" y="94.7" clip-path="url(#SVGID_2_)" fill="url(#SVGID_4_)" width="51.6" height="50.7"/>
		</g>
		<g>
			<defs>
				<path id="SVGID_22_" d="M60,120.3c0,10.6,0.5,21.4,0.5,21.4c0,1.2-0.8,2-1.8,2H14c-1,0-1.7-0.9-1.8-2c0,0-1.3-9.2-1.3-23.4
					c0-14.1,1.3-20.8,1.3-20.8c0.2-1.2,0.8-2,1.8-2h44.6c1,0,1.8,0.9,1.8,2C60.5,97.5,60,109.7,60,120.3z"/>
			</defs>
			<clipPath id="SVGID_7_">
				<use xlink:href="#SVGID_22_"  overflow="visible"/>
			</clipPath>
			
				<linearGradient id="SVGID_9_" gradientUnits="userSpaceOnUse" x1="4156.2822" y1="1389.6664" x2="4157.8345" y2="1389.6664" gradientTransform="matrix(0 38.7353 39.4031 0 -54721.4688 -160912.75)">
				<stop  offset="0" style="stop-color:#00A46E"/>
				<stop  offset="0.3" style="stop-color:#80C9AD"/>
				<stop  offset="0.55" style="stop-color:#00A46E"/>
				<stop  offset="0.8352" style="stop-color:#007F54"/>
				<stop  offset="0.8868" style="stop-color:#00885D"/>
				<stop  offset="0.9718" style="stop-color:#00A175"/>
				<stop  offset="1" style="stop-color:#00AB7F"/>
			</linearGradient>
			<path clip-path="url(#SVGID_7_)" fill="url(#SVGID_9_)" d="M60,120.3c0,10.6,0.5,21.4,0.5,21.4c0,1.2-0.8,2-1.8,2H14
				c-1,0-1.7-0.9-1.8-2c0,0-1.3-9.2-1.3-23.4c0-14.1,1.3-20.8,1.3-20.8c0.2-1.2,0.8-2,1.8-2h44.6c1,0,1.8,0.9,1.8,2
				C60.5,97.5,60,109.7,60,120.3"/>
		</g>
		<g>
			<defs>
				<path id="SVGID_25_" d="M50,108.3c-3.2,1.8-4.2,2-7.6,4l0.2-0.4c1.8-1.9,2.6-2.8,3.8-4.5c-3.2,0.2-7.8,0.5-11.1,1.3l0.2-0.3
					c3-1.4,8.6-2.9,11.4-3.2c-0.7-1-6.4-4-7.8-4.5l0.2-0.4c4.3,0.5,10,2.4,12.4,3.9c1-0.3,2.1-0.4,4.1-0.5c0,0-0.3,1.2-2.4,2.6
					c0.5,1.4-0.7,9-1.8,11.1C51.5,114.1,51.2,110.1,50,108.3z"/>
			</defs>
			<clipPath id="SVGID_11_">
				<use xlink:href="#SVGID_25_"  overflow="visible"/>
			</clipPath>
			
				<linearGradient id="SVGID_13_" gradientUnits="userSpaceOnUse" x1="4198.0249" y1="1674.1753" x2="4199.5776" y2="1674.1753" gradientTransform="matrix(0 -25.0672 -25.4993 0 42735.793 105371.5859)">
				<stop  offset="0" style="stop-color:#00B187"/>
				<stop  offset="1" style="stop-color:#00A46E"/>
			</linearGradient>
			<path clip-path="url(#SVGID_11_)" fill="url(#SVGID_13_)" d="M50,108.3c-3.2,1.8-4.2,2-7.6,4l0.2-0.4c1.8-1.9,2.6-2.8,3.8-4.5
				c-3.2,0.2-7.8,0.5-11.1,1.3l0.2-0.3c3-1.4,8.6-2.9,11.4-3.2c-0.7-1-6.4-4-7.8-4.5l0.2-0.4c4.3,0.5,10,2.4,12.4,3.9
				c1-0.3,2.1-0.4,4.1-0.5c0,0-0.3,1.2-2.4,2.6c0.5,1.4-0.7,9-1.8,11.1C51.5,114.1,51.2,110.1,50,108.3"/>
		</g>
		<g>
			<defs>
				<path id="SVGID_28_" d="M26.7,135.7l0.2-0.4c-1.7-0.6-3.4-1.2-4.8-2.4c0.4-1.2,0.9-2.1,1.7-3.3l0.2-0.4c-1.5,0.2-2.8,0.7-4,1
					c-1-1.7-1.4-4.1-1.9-6.3l-0.2,0.4c-0.3,2.5-0.4,4.4,0,6.4c-1,0.3-2,0.3-2.8,0.7l-0.2,0.3c1.3,0.8,2.4,1.4,4,2.1
					c0.8,1.7,1.7,2.9,3,4.2l0.2-0.4c-0.2-1-0.6-1.8-0.4-2.8C23.4,135.4,24.8,135.7,26.7,135.7z"/>
			</defs>
			<clipPath id="SVGID_15_">
				<use xlink:href="#SVGID_28_"  overflow="visible"/>
			</clipPath>
			
				<linearGradient id="SVGID_17_" gradientUnits="userSpaceOnUse" x1="4198.0205" y1="1674.4652" x2="4199.5728" y2="1674.4652" gradientTransform="matrix(0 -25.0747 -25.507 0 42731.5234 105402.9141)">
				<stop  offset="0" style="stop-color:#00B187"/>
				<stop  offset="1" style="stop-color:#00A46E"/>
			</linearGradient>
			<path clip-path="url(#SVGID_15_)" fill="url(#SVGID_17_)" d="M26.7,135.7l0.2-0.4c-1.7-0.6-3.4-1.2-4.8-2.4
				c0.4-1.2,0.9-2.1,1.7-3.3l0.2-0.4c-1.5,0.2-2.8,0.7-4,1c-1-1.7-1.4-4.1-1.9-6.3l-0.2,0.4c-0.3,2.5-0.4,4.4,0,6.4
				c-1,0.3-2,0.3-2.8,0.7l-0.2,0.3c1.3,0.8,2.4,1.4,4,2.1c0.8,1.7,1.7,2.9,3,4.2l0.2-0.4c-0.2-1-0.6-1.8-0.4-2.8
				C23.4,135.4,24.8,135.7,26.7,135.7"/>
		</g>
		<g>
			<defs>
				<path id="SVGID_31_" d="M31.4,110.3c0,0-0.7,1.2-1.2,2.8h-0.1c4,0.5,7.7,2.1,8.7,2.7l-0.2,0.4c-4.1-0.7-6.3-0.6-7.8-0.5
					c-1.5,0.1-1.8,0.3-1.8,0.3c-0.9,1.9-1.4,5-1.6,6.1l-0.2,0.4c-0.8-1.8-1.8-5.3-1.8-5.3c-2.1,1.1-6.9,5.5-6.9,5.5
					c2.6-5.2,5.3-7.5,5.3-7.5c-0.9-0.9-3.3-1.4-5.1-1.4l0.2-0.4c1.1-0.3,3.4-0.4,4.9-0.5c1.8-0.1,2.9,0,2.9,0
					C28.2,111.5,30.6,110.4,31.4,110.3z"/>
			</defs>
			<clipPath id="SVGID_20_">
				<use xlink:href="#SVGID_31_"  overflow="visible"/>
			</clipPath>
			
				<linearGradient id="SVGID_23_" gradientUnits="userSpaceOnUse" x1="4198.0342" y1="1674.4661" x2="4199.5854" y2="1674.4661" gradientTransform="matrix(0 -25.0594 -25.4914 0 42713.0742 105339.0469)">
				<stop  offset="0" style="stop-color:#00B187"/>
				<stop  offset="1" style="stop-color:#00A46E"/>
			</linearGradient>
			<path clip-path="url(#SVGID_20_)" fill="url(#SVGID_23_)" d="M31.4,110.3c0,0-0.7,1.2-1.2,2.8h-0.1c4,0.5,7.7,2.1,8.7,2.7
				l-0.2,0.4c-4.1-0.7-6.3-0.6-7.8-0.5c-1.5,0.1-1.8,0.3-1.8,0.3c-0.9,1.9-1.4,5-1.6,6.1l-0.2,0.4c-0.8-1.8-1.8-5.3-1.8-5.3
				c-2.1,1.1-6.9,5.5-6.9,5.5c2.6-5.2,5.3-7.5,5.3-7.5c-0.9-0.9-3.3-1.4-5.1-1.4l0.2-0.4c1.1-0.3,3.4-0.4,4.9-0.5
				c1.8-0.1,2.9,0,2.9,0C28.2,111.5,30.6,110.4,31.4,110.3"/>
		</g>
		<g>
			<defs>
				<path id="SVGID_34_" d="M36.5,132.5c-0.8,1.1-1.5,2-2.5,3c-1.4,0.4-3,0.2-4.2,0.2l-0.2,0.4c0.9,0.5,1.9,0.8,2.9,1
					c-0.8,0.7-1.9,1.3-2.6,1.8l-0.2,0.3c1.6-0.4,3.7-1,5.3-2c0.8,0,1.6,0,2.2-0.1c0,0,0.2-0.4,0.2-0.4c-0.1-0.4-0.4-0.6-0.5-1.1
					c1.5-1.1,2.6-2.2,3.8-3.4l0.2-0.4c-1.2,0.8-2.7,2-4.1,2.6C36.6,133.9,36.5,133.3,36.5,132.5z"/>
			</defs>
			<clipPath id="SVGID_26_">
				<use xlink:href="#SVGID_34_"  overflow="visible"/>
			</clipPath>
			
				<linearGradient id="SVGID_27_" gradientUnits="userSpaceOnUse" x1="4198.0298" y1="1674.3473" x2="4199.5815" y2="1674.3473" gradientTransform="matrix(0 -25.0631 -25.4952 0 42723.0195 105354.5)">
				<stop  offset="0" style="stop-color:#00B187"/>
				<stop  offset="1" style="stop-color:#00A46E"/>
			</linearGradient>
			<path clip-path="url(#SVGID_26_)" fill="url(#SVGID_27_)" d="M36.5,132.5c-0.8,1.1-1.5,2-2.5,3c-1.4,0.4-3,0.2-4.2,0.2l-0.2,0.4
				c0.9,0.5,1.9,0.8,2.9,1c-0.8,0.7-1.9,1.3-2.6,1.8l-0.2,0.3c1.6-0.4,3.7-1,5.3-2c0.8,0,1.6,0,2.2-0.1c0,0,0.2-0.4,0.2-0.4
				c-0.1-0.4-0.4-0.6-0.5-1.1c1.5-1.1,2.6-2.2,3.8-3.4l0.2-0.4c-1.2,0.8-2.7,2-4.1,2.6C36.6,133.9,36.5,133.3,36.5,132.5"/>
		</g>
		<g>
			<path fill="#FFFFFF" d="M50.2,108c-3.2,1.8-4.2,2-7.6,4c2-2.1,2.7-3.1,4-4.9c-3.2,0.2-7.8,0.5-11.1,1.3c2.9-1.5,8.6-3.2,11.6-3.6
				c-0.7-0.9-6.4-4-7.8-4.5c4.5,0.3,10,2,12.6,3.6c1-0.3,2.1-0.3,4.1-0.5c-0.5,0.8-0.5,1.3-2.4,2.6c0.5,1.4-0.7,9-1.8,11.1
				C51.7,113.8,51.4,109.7,50.2,108"/>
			<path fill="#FFFFFF" d="M26.9,135.4c-1.8-0.7-3.1-1.4-4.6-2.8c0.4-1.2,0.9-2.1,1.7-3.3c-1.5,0.2-2.6,0.4-3.9,0.6
				c-1-1.8-1.5-3.5-2-5.9c-0.3,2.6-0.4,4.4,0,6.4c-1.2,0.3-2,0.6-3,1c1.4,0.8,2.5,1.4,4,2.1c0.8,1.7,1.7,2.9,3,4.2
				c-0.3-1.1-0.4-2-0.3-3.2C23.5,135.1,25,135.3,26.9,135.4"/>
			<path fill="#FFFFFF" d="M31.7,110L31.7,110c-0.6,0.7-1.2,2.1-1.4,2.7c4.7,0.6,8.5,3,8.5,3c-4.1-0.7-6.3-0.6-7.8-0.5
				c-1.5,0.1-1.8,0.3-1.8,0.3c-1.1,2.4-1.8,6.5-1.8,6.5c-0.8-1.8-1.8-5.3-1.8-5.3c-2.1,1.1-6.9,5.5-6.9,5.5c2.6-5.2,5.3-7.5,5.3-7.5
				c-0.9-0.9-3.3-1.4-5.1-1.4c0.9-0.4,3.3-0.8,5.1-0.9c1.8-0.1,2.9,0,2.9,0C28.4,111.2,30.8,110.1,31.7,110"/>
			<path fill="#FFFFFF" d="M36.7,132.2c-0.8,1.1-1.5,2-2.5,3c-1.6,0.4-2.9,0.6-4.4,0.6c0.9,0.5,1.9,0.8,2.9,1
				c-1,0.9-1.8,1.5-2.8,2.1c1.6-0.4,3.7-1,5.3-2c0.8,0,1.6,0,2.2-0.1c-0.1-0.5-0.2-0.8-0.4-1.4c1.5-1.1,2.6-2.2,3.8-3.4
				c-1.3,0.9-2.4,1.6-4,2.3C36.7,133.5,36.7,133,36.7,132.2"/>
		</g>
	</g>
</g>
<g id="Repères" display="none">
</g>
</svg>
