<!DOCTYPE svg PUBLIC "-//W3C//DTD SVG 1.1//EN" "http://www.w3.org/Graphics/SVG/1.1/DTD/svg11.dtd">
<svg version="1.1" id="Logo_Clients" xmlns="http://www.w3.org/2000/svg" xmlns:xlink="http://www.w3.org/1999/xlink" x="0px"
	 y="0px" viewBox="0 0 250 160" enable-background="new 0 0 250 160" xml:space="preserve">
<g>
	<g>
		<g>
			<path fill="#FFFFFF" d="M128.1,5.1c-1.3,0.2-2.6,0.5-3.8,0.8c-4.5,0.9-8.9,2.3-13.1,4.1c-7.9,3-14.4,6.9-19.5,11.6
				c-2.9,2.4-5,4.9-6.3,7.4c-1.6,2.4-2.4,4.9-2.5,7.6c-0.1,1.6,0,3.1,0.5,4.4c1.2,3.8,4.7,6.7,10.4,8.8c4.5,1.6,9.8,2.3,15.8,2.3
				c0.1,0,0.2,0,0.4,0c3.2-0.1,6.6-0.5,10.1-1.1c3.3-0.6,6.8-1.5,10.5-2.5c7.6-2.4,14.3-5.5,20.3-9.4l-15.7-4.2
				c-3.5,2.2-8,4.2-13.5,6.1c-3.3,1.1-6.4,1.8-9.4,2.4c-1.3,0.2-2.6,0.4-3.8,0.5C103.5,44.4,99,44.1,95,43c-6.1-1.8-9.1-5-8.9-9.5
				c0-3.9,2.3-7.9,6.9-11.9c4.1-3.9,9.4-7.1,15.9-9.6c4.1-1.7,8.2-2.9,12.3-3.7c2.5-0.4,5.1-0.7,7.6-0.8c7.5-0.4,13,0.9,16.6,4
				c0.7,0.6,1.3,1.2,1.8,1.9c1.7,2.4,1.9,5.3,0.5,8.5l17.4,0.5c0.4-1.4,0.7-2.6,0.8-3.8c0-3-1.1-5.6-3.4-7.9
				c-0.9-0.9-1.9-1.7-3.1-2.4c-5.7-3.6-13.4-5-23.4-4.3C133.3,4.3,130.7,4.6,128.1,5.1"/>
			<path fill="#FFFFFF" d="M117,17.5l-1.2,0.2c-2.7,0.5-4.9,1.4-6.7,2.9c-1.9,1.5-2.8,3-2.6,4.6c0.1,1.5,1.2,2.7,3.3,3.4
				c1.8,0.6,4,0.7,6.4,0.2c0.2,0,0.5-0.1,0.7-0.1c1.5-0.4,2.9-0.9,4.1-1.5c0.9-0.4,1.7-1,2.5-1.6c0.2-0.2,0.5-0.4,0.7-0.6
				c0.2-0.2,0.4-0.5,0.6-0.7c0.8-1,1.2-2.1,1.1-3.1c-0.1-1.5-1.2-2.6-3-3.3C121.1,17.3,119.2,17.1,117,17.5"/>
			<path fill="#FFFFFF" d="M174,67.4l0.3,0c0.4,0,4.9,0,6.1,0v-1.9c-1.2,0-5.7,0-6.1,0H174v-3.7h0.3c0.4,0,10.5,0,12.3,0v-2.3
				l-15.2,0l0,14.6l15.2,0v-2.3c-1.8,0-11.9,0-12.3,0l-0.3,0L174,67.4z"/>
			<path fill="#FFFFFF" d="M69.9,72c-3.8,0-8-1.6-8-5.3c0-3.1,3.2-5.3,7.4-5.3c2.4,0,4.5,0.7,6.8,2.1l1.9-1.2
				c-2.5-1.8-5.6-2.8-8.9-2.8c-5.7,0-9.9,3.2-9.9,7.2c0,4.2,4.3,7.3,10.4,7.3c3.6,0,6.5-0.9,8.6-2.8l-1.7-1.4
				C74.5,71.4,72.7,72,69.9,72"/>
			<path fill="#FFFFFF" d="M156.9,62c0,0.4,0,10.2,0,12h2.5c0-1.8,0-11.6,0-12v-0.3h0.3c0.4,0,5.1,0,6.3,0v-2.3l-15.7,0v2.3
				c1.2,0,6,0,6.3,0h0.3V62z"/>
			<path fill="#FFFFFF" d="M126.3,66.5c0,4.1,4.3,7.4,9.9,7.4c5.5,0,10-3.3,10-7.2c0-4.1-4.3-7.3-9.9-7.3
				C130.7,59.4,126.3,62.7,126.3,66.5 M136.3,61.3c4.1,0,7.3,2.2,7.4,5.3c0,3-3.4,5.4-7.3,5.4c-4,0-7.4-2.3-7.4-5.2
				C128.9,63.5,132.1,61.3,136.3,61.3"/>
			<path fill="#FFFFFF" d="M82.5,66.5c0,4.1,4.3,7.5,9.9,7.5c5.5,0,10-3.3,10-7.2c0-4.1-4.3-7.3-9.9-7.3
				C86.9,59.4,82.5,62.7,82.5,66.5 M92.5,61.3c4.1,0,7.3,2.2,7.4,5.3c0,3-3.3,5.4-7.3,5.4c-4,0-7.4-2.3-7.4-5.2
				C85.1,63.5,88.3,61.3,92.5,61.3"/>
			<path fill="#FFFFFF" d="M114.3,65.5c-0.3-0.3-4.8-5.3-5.5-6.1h-3.1c1.6,1.8,7.3,8,7.4,8.1l0.1,0.1v0.1c0,0.1,0,5.1,0,6.3h2.6
				c0-1.2,0-6.1,0-6.3v-0.1l0.1-0.1c0.1-0.1,5.9-6.3,7.5-8.1l-3.2,0c-0.7,0.7-5.1,5.7-5.4,6.1l-0.2,0.2L114.3,65.5z"/>
		</g>
	</g>
</g>
<g>
	<g>
		<g>
			<path fill="#95C648" d="M128.1,85.1c-1.3,0.2-2.6,0.5-3.8,0.8c-4.5,0.9-8.9,2.3-13.1,4.1c-7.9,3-14.4,6.9-19.5,11.6
				c-2.9,2.4-5,4.9-6.3,7.4c-1.6,2.4-2.4,4.9-2.5,7.6c-0.1,1.6,0,3.1,0.5,4.4c1.2,3.8,4.7,6.7,10.4,8.8c4.5,1.6,9.8,2.3,15.8,2.3
				c0.1,0,0.2,0,0.4,0c3.2-0.1,6.6-0.5,10.1-1.1c3.3-0.6,6.8-1.5,10.5-2.5c7.6-2.4,14.3-5.5,20.3-9.4l-15.7-4.2
				c-3.5,2.2-8,4.2-13.5,6.1c-3.3,1.1-6.4,1.8-9.4,2.4c-1.3,0.2-2.6,0.4-3.8,0.5c-4.9,0.5-9.4,0.2-13.4-0.9c-6.1-1.8-9.1-5-8.9-9.5
				c0-3.9,2.3-7.9,6.9-11.9c4.1-3.9,9.4-7.1,15.9-9.6c4.1-1.7,8.2-2.9,12.3-3.7c2.5-0.4,5.1-0.7,7.6-0.8c7.5-0.4,13,0.9,16.6,4
				c0.7,0.6,1.3,1.2,1.8,1.9c1.7,2.4,1.9,5.3,0.5,8.5l17.4,0.5c0.4-1.4,0.7-2.6,0.8-3.8c0-3-1.1-5.6-3.4-7.9
				c-0.9-0.9-1.9-1.7-3.1-2.4c-5.7-3.6-13.4-5-23.4-4.3C133.3,84.3,130.7,84.6,128.1,85.1"/>
			<path fill="#95C648" d="M117,97.5l-1.2,0.2c-2.7,0.5-4.9,1.4-6.7,2.9c-1.9,1.5-2.8,3-2.6,4.6c0.1,1.5,1.2,2.7,3.3,3.4
				c1.8,0.6,4,0.7,6.4,0.2c0.2,0,0.5-0.1,0.7-0.1c1.5-0.4,2.9-0.9,4.1-1.5c0.9-0.4,1.7-1,2.5-1.6c0.2-0.2,0.5-0.4,0.7-0.6
				c0.2-0.2,0.4-0.5,0.6-0.7c0.8-1,1.2-2.1,1.1-3.1c-0.1-1.5-1.2-2.6-3-3.3C121.1,97.3,119.2,97.1,117,97.5"/>
			<path fill="#231F20" d="M174,147.4l0.3,0c0.4,0,4.9,0,6.1,0v-1.9c-1.2,0-5.7,0-6.1,0H174v-3.7h0.3c0.4,0,10.5,0,12.3,0v-2.3
				l-15.2,0l0,14.6l15.2,0v-2.3c-1.8,0-11.9,0-12.3,0l-0.3,0L174,147.4z"/>
			<path fill="#231F20" d="M69.9,152c-3.8,0-8-1.6-8-5.3c0-3.1,3.2-5.3,7.4-5.3c2.4,0,4.5,0.7,6.8,2.1l1.9-1.2
				c-2.5-1.8-5.6-2.8-8.9-2.8c-5.7,0-9.9,3.2-9.9,7.2c0,4.2,4.3,7.3,10.4,7.3c3.6,0,6.5-0.9,8.6-2.8l-1.7-1.4
				C74.5,151.4,72.7,152,69.9,152"/>
			<path fill="#231F20" d="M156.9,142c0,0.4,0,10.2,0,12h2.5c0-1.8,0-11.6,0-12v-0.3h0.3c0.4,0,5.1,0,6.3,0v-2.3l-15.7,0v2.3
				c1.2,0,6,0,6.3,0h0.3V142z"/>
			<path fill="#231F20" d="M126.3,146.5c0,4.1,4.3,7.4,9.9,7.4c5.5,0,10-3.3,10-7.2c0-4.1-4.3-7.3-9.9-7.3
				C130.7,139.4,126.3,142.7,126.3,146.5 M136.3,141.3c4.1,0,7.3,2.2,7.4,5.3c0,3-3.4,5.4-7.3,5.4c-4,0-7.4-2.3-7.4-5.2
				C128.9,143.5,132.1,141.3,136.3,141.3"/>
			<path fill="#231F20" d="M82.5,146.5c0,4.1,4.3,7.5,9.9,7.5c5.5,0,10-3.3,10-7.2c0-4.1-4.3-7.3-9.9-7.3
				C86.9,139.4,82.5,142.7,82.5,146.5 M92.5,141.3c4.1,0,7.3,2.2,7.4,5.3c0,3-3.3,5.4-7.3,5.4c-4,0-7.4-2.3-7.4-5.2
				C85.1,143.5,88.3,141.3,92.5,141.3"/>
			<path fill="#231F20" d="M114.3,145.5c-0.3-0.3-4.8-5.3-5.5-6.1h-3.1c1.6,1.8,7.3,8,7.4,8.1l0.1,0.1v0.1c0,0.1,0,5.1,0,6.3h2.6
				c0-1.2,0-6.1,0-6.3v-0.1l0.1-0.1c0.1-0.1,5.9-6.3,7.5-8.1l-3.2,0c-0.7,0.7-5.1,5.7-5.4,6.1l-0.2,0.2L114.3,145.5z"/>
		</g>
	</g>
</g>
</svg>
