<?xml version="1.0" encoding="utf-8"?>
<!-- Generator: Adobe Illustrator 18.0.0, SVG Export Plug-In . SVG Version: 6.00 Build 0)  -->
<!DOCTYPE svg PUBLIC "-//W3C//DTD SVG 1.1//EN" "http://www.w3.org/Graphics/SVG/1.1/DTD/svg11.dtd">
<svg version="1.1" id="Logo_Clients" xmlns="http://www.w3.org/2000/svg" xmlns:xlink="http://www.w3.org/1999/xlink" x="0px"
	 y="0px" width="250px" height="160px" viewBox="0 0 250 160" enable-background="new 0 0 250 160" xml:space="preserve">
<g>
	<path fill-rule="evenodd" clip-rule="evenodd" fill="#001F5B" d="M63.4,128v4.8c-1.3,1-4.5,2.2-8,2.2c-5.4,0-10.5-3.6-10.5-9.8
		c0-6.1,5.2-10,10.4-10c1.7,0,2.9,0.2,3.9,0.5c0.9,0.2,1.7,0.5,2.3,0.5c0.6,0,1-0.7,1.1-0.9h0.4c0,2.2,0.2,4.7,0.5,6l-0.5,0.2
		c-1.1-3.4-4.7-5.1-7.4-5c-4.4,0.1-6.8,4-6.8,8.3c-0.1,4.8,2.6,8.7,7,8.7c1.6,0,3.6-0.2,4.4-1.2V128c0-2.3-1.2-2.9-2.2-2.9v-0.3h7.8
		v0.3C64.7,125.1,63.4,125.7,63.4,128L63.4,128z M39.5,120.9v13.9h-0.9l-13.1-15.7c0.2,0.4,0.2,0.9,0.2,1.2v9.9
		c0,3.3,0.8,4.2,2.6,4.2v0.4h-6.6v-0.4c1.7,0,2.5-0.9,2.5-4.2v-12c0-1.4-1.4-2.5-3-2.5v-0.4h5.8l11.4,13.5c-0.2-0.5-0.2-0.9-0.2-1.3
		v-6.6c0-2.4-0.1-5.1-2.5-5.1v-0.4h6.5v0.4C39.6,115.8,39.5,118.5,39.5,120.9L39.5,120.9z M15.5,118.6v12.6c0.1,1.1-0.2,3.3,2.2,3.3
		v0.4h-7.6v-0.4c2.4,0,2-2.2,2.2-3.3v-12.6c0-2.3-1.3-2.8-2.3-2.8v-0.4h7.9v0.4C16.8,115.8,15.5,116.2,15.5,118.6L15.5,118.6z"/>
	<path fill-rule="evenodd" clip-rule="evenodd" fill="#001F5B" d="M131,135h-8.8v-0.4c0.5,0,1.6-0.3,1.9-0.8c0.5-0.5,0.7-1.1,0.7-3
		v-12.2c0-0.9-0.3-1.6-0.8-2.1c-0.5-0.5-1.2-0.5-1.9-0.5v-0.5h8.2c4.4,0,6.6,0.7,8.6,2.7c1.6,1.6,2.7,4.1,2.7,6.6
		C141.8,131.1,137.7,135,131,135L131,135z M130.8,116.9c-0.9,0-1.7,0.1-2.6,0.2v15.4c0,1.1,1.4,1,2.6,1c4.8,0,7.1-3.5,7.1-8.3
		C137.9,120.3,135.2,116.9,130.8,116.9L130.8,116.9z"/>
	<path fill-rule="evenodd" clip-rule="evenodd" fill="#001F5B" d="M151.6,118.7v12.6c0.1,1.1-0.2,3.3,2.2,3.3v0.4h-7.6v-0.4
		c2.4,0,2-2.2,2.2-3.3v-12.6c0-2.3-1.3-2.8-2.3-2.8l0-0.4h7.9v0.4C152.9,115.9,151.6,116.4,151.6,118.7L151.6,118.7z"/>
	<path fill-rule="evenodd" clip-rule="evenodd" fill="#001F5B" d="M171.6,135l-5.5-9.2h-1.9v5.2c0,1.4-0.1,3.5,2.2,3.6v0.4h-7.5
		v-0.4c2.3-0.1,2.1-2.2,2.1-3.5v-12.4c0-2.3-1.3-2.9-2.3-2.9v-0.3l8.6-0.1c4.5-0.1,6.5,1.7,6.5,4.9c0,3.2-2.2,4.7-4.1,5l4.8,7.6
		c0.6,1,1.5,1.5,2.4,1.6v0.5H171.6L171.6,135z M166.3,116.7c-0.6,0-1.4,0.1-2,0.2v7.6c0.6,0.2,1.1,0.2,1.8,0.2c2.9,0,4.1-1.9,4.1-4
		C170.1,117.9,168.7,116.7,166.3,116.7L166.3,116.7z"/>
	<path fill-rule="evenodd" clip-rule="evenodd" fill="#001F5B" d="M195,135h-15.6v-0.5c1.9,0,2.8-1.2,2.8-2.8l0-12.4
		c0-1.5,0-3.4-2.6-3.4v-0.4h14.9c0,0.9,0.1,3.3,0.2,4.8h-0.5c-0.5-2.8-2.8-3.4-5.6-3.4c-2.1,0-3.3,0.2-3.3,0.2v7h4.4
		c1.2,0,2.8-0.7,3-2.6h0.5c-0.2,1.3-0.2,5.1,0,6.4h-0.5c-0.2-1.9-1.6-2.4-2.9-2.4h-4.4v6.1c0,1.6,0.2,1.9,2.3,1.9h2.2
		c3.1-0.1,4.6-0.7,5.8-3.3l0.5,0.2C195.7,131.6,195.3,133.4,195,135L195,135z"/>
	<path fill-rule="evenodd" clip-rule="evenodd" fill="#001F5B" d="M208,135.1c-5.6,0-9-4-9-9.6c0-5.1,3.3-10.2,9.5-10.2
		c1.6,0,3,0.4,4,0.8c0.3,0.1,0.6,0.3,0.9,0.3c0.3,0,0.6-0.4,0.9-0.9l0.4,0.1c0.1,2.2,0.3,4.2,0.6,6.3c-0.1,0.2-0.3,0.1-0.5,0.2
		c-0.6-2.7-2.7-5.4-5.9-5.4c-4.3,0-6.1,4-6.1,8.4c0,4.6,1.9,8.6,6.2,8.6c3.7,0,5.6-1.9,6.1-5.4l0.6,0.2
		C215.3,132.9,212.2,135.1,208,135.1L208,135.1z"/>
	<path fill-rule="evenodd" clip-rule="evenodd" fill="#001F5B" d="M233.4,121.3c-0.6-3.3-2.6-4.4-4.9-4.4h-0.9v13.7
		c0,2.2-0.1,3.7,2.1,4v0.3H222v-0.4c2.6-0.2,2.3-2,2.3-3.9v-13.8h-1c-3,0-4.3,1.5-4.9,4.4l-0.5-0.1c0.1-0.5,0.5-5.7,0.5-5.7h15.2
		c0,0,0.4,5.1,0.5,5.6L233.4,121.3L233.4,121.3z"/>
	<path fill-rule="evenodd" clip-rule="evenodd" fill="#FFFFFF" d="M87.9,134.9l0.6-0.8c0.5,0.3,1.2,0.3,1.6-0.1
		c-0.3-0.3-0.8-0.4-1.2-0.6c0-0.6,0.3-1.4-0.4-1.8c-0.5-0.2-1-0.2-1.4,0.2l-0.2,0.2c-0.2-0.2-0.5-0.5-0.9-0.6c0-0.2,0-0.5,0.1-0.8
		c0.7-0.4,1.4,0.2,2.1,0.2c-0.4-0.6-1-0.9-1.7-0.9c-0.5,0-1,0.1-1.2,0.6c-0.6-0.2-1.2,0.1-1.7,0.3l-1,1.8c-0.2,0.8,0.1,1.6,0.6,2.2
		H87.9L87.9,134.9z"/>
	<path fill-rule="evenodd" clip-rule="evenodd" fill="#FFFFFF" d="M100.8,134.9c0.1-0.5,0.2-0.9,0.3-1.4c0.1-0.1,0.2-0.3,0.4-0.3
		c0.1,0.3,0.3,0.7,0.5,1c0.2-0.1,0.4-0.4,0.4-0.7c-0.1-0.3-0.3-0.6-0.5-0.8l0.4-0.6c0.2,0.2,0.4,0.5,0.8,0.4
		c0.1-0.1,0.3-0.2,0.2-0.3c-0.5-0.3-0.9-1.2-1.5-0.8c-1.1,1-1.4,2.3-1.4,3.6c-0.3,0-0.8-1.9-0.8-1.9c0.2,0,0.3,0.3,0.5,0.3
		c0.1-0.2,0.4-0.5,0.2-0.8c-0.2-0.2-0.6-0.4-0.3-0.7c0.1-0.1,0.2-0.2,0.2-0.3c0.1,0.2,0.4,0.3,0.6,0.2c0.1-0.1-0.1-0.3-0.1-0.5
		c0.3-0.1,0.7,0.3,0.8-0.1c-0.4-0.3-1.1-0.6-1.7-0.4c-0.2,0.7-0.9,0.4-1.5,0.4l-0.2-0.2c-0.7,1-1.6,2.1-1.1,3.3l0.4,0.6L100.8,134.9
		L100.8,134.9z"/>
	<path fill-rule="evenodd" clip-rule="evenodd" fill="#FFFFFF" d="M106.2,109l-0.3,0.4c0.3,0.3,0.7,0.6,1.2,0.5
		c0.1-0.3-0.1-0.5-0.3-0.7L106.2,109L106.2,109z"/>
	<path fill-rule="evenodd" clip-rule="evenodd" fill="#FFFFFF" d="M103.7,112.1c0.4,0,0.8,0.1,1.2,0.3c0.1-0.2-0.1-0.3-0.1-0.5
		c0.4-0.1,0.8-0.2,1.3-0.2c0.1-0.1-0.2-0.3-0.3-0.3c-0.5-0.1-1-0.2-1.4-0.2c-0.1,0.2,0.1,0.3,0.1,0.5c-0.4,0-0.7-0.2-1.1-0.1
		L103.7,112.1L103.7,112.1z"/>
	<path fill-rule="evenodd" clip-rule="evenodd" fill="#FF671B" d="M84.1,105.7l0.9-0.4c-0.1,0.5-0.3,0.9-0.3,1.5
		c0.3-0.3,0.6-0.6,0.7-1l0.3-0.5c0.4-0.1,0.9-0.1,1.3,0c-0.2,0-0.2,0.1-0.3,0.3v0.4c0.6,0.2,0.9-0.7,1.6-0.2l0.3,0.2
		c-0.3,0.1-0.6,0.2-0.8,0.5l0.1,0c0.5,0,1,0,1.4-0.2c1.1,0.7,1.4,1.9,1.8,2.9c-0.1,0-0.2-0.1-0.4-0.1c0,0.2,0,0.4,0.1,0.5
		c0.1,0.2,0.3,0.1,0.4,0.2c0.5,1,1.9,1.2,2.1,2.4c0.3,0.8,0.4,1.7,0.6,2.5c-0.1-0.2-0.5-0.2-0.8-0.3c0,0.4,0.3,0.7,0.6,0.9l0.6,0.2
		c0.2,0.5,0.3,1,0.4,1.5c-0.2,0-0.5-0.4-0.7-0.2c0.1,0.4,0.4,0.8,0.8,1l0.1,1.1c1.2,1,2.9,1.5,4.5,0.9c0.4-0.1,0.8-0.3,1.1-0.6
		c-0.1-0.7,0.3-1.3,0.9-1.6c1.6-0.7,3,0.6,4.1,1.8c2.9,3.3,3.5,8,2.6,12.4c0.8,0.5,2.1,0.3,3-0.1c3.1-1.7,4.2-5,4.1-8.2
		c-0.1-4.2-2.6-8.3-6.5-10.3c-1.3-0.1-2.9,0.6-4.1-0.3c-0.3-0.2-0.7-0.4-0.9-0.8c0.4,0,0.8,0.1,1.2,0.3c0.1-0.2-0.1-0.3-0.1-0.5
		c0.4-0.1,0.8-0.2,1.3-0.2c0.1-0.1-0.2-0.3-0.3-0.3c-0.5-0.1-1-0.2-1.4-0.2c-0.1,0.2,0.1,0.3,0.1,0.5c-0.4,0-0.7-0.2-1.1-0.1
		c-0.4-0.6-0.6-1.4-1.3-1.7c1.3-0.4,2.7-1.2,4.2-0.8l-0.3,0.4c0.3,0.3,0.7,0.6,1.2,0.5c0.1-0.3-0.1-0.5-0.3-0.7
		c1.1,0.3,1.4,1.6,2.2,2.3c1.1,1.3,2.6,1.8,3.7,3.1c3.5,4,5.1,10,2.8,15.1c-1.1,2.1-3.2,4.3-5.6,4.6c-0.8,0.2-1.7,0.2-2.5,0.1
		c-0.5,0.5-1.2,0.4-1.8,0.5h-4.8c0.1-0.5,0.2-0.9,0.3-1.4c0.1-0.1,0.2-0.3,0.4-0.3c0.1,0.3,0.3,0.7,0.5,1c0.2-0.1,0.4-0.4,0.4-0.7
		c-0.1-0.3-0.3-0.6-0.5-0.8l0.4-0.6c0.2,0.2,0.4,0.5,0.8,0.4c0.1-0.1,0.3-0.2,0.2-0.3c-0.5-0.3-0.9-1.2-1.5-0.8
		c-1.1,1-1.4,2.3-1.4,3.6c-0.3,0-0.5,0.1-0.8,0l0-1.9c0.2,0,0.3,0.3,0.5,0.3c0.1-0.2,0.4-0.5,0.2-0.8c-0.2-0.2-0.6-0.4-0.3-0.7
		c0.1-0.1,0.2-0.2,0.2-0.3c0.1,0.2,0.4,0.3,0.6,0.2c0.1-0.1-0.1-0.3-0.1-0.5c0.3-0.1,0.7,0.3,0.8-0.1c-0.4-0.3-1.1-0.6-1.7-0.4
		c-0.2,0.7-0.9,0.4-1.5,0.4l-0.2-0.2c-0.7,1-1.6,2.1-1.1,3.3l0.4,0.6h-9.5l0.6-0.8c0.5,0.3,1.2,0.4,1.6-0.1
		c-0.3-0.3-0.8-0.4-1.2-0.6c0-0.6,0.3-1.4-0.4-1.8c-0.5-0.2-1-0.2-1.4,0.2l-0.2,0.2c-0.2-0.2-0.5-0.5-0.9-0.6c0-0.2,0-0.5,0.1-0.8
		c0.7-0.4,1.4,0.2,2,0.2c-0.4-0.6-1-0.9-1.7-0.9c-0.5,0-1,0.1-1.2,0.6c-0.6-0.2-1.2,0.1-1.7,0.3l-1,1.8c-0.2,0.8,0.1,1.6,0.6,2.2
		H70.8c-0.4-0.6-0.7-1.4-0.5-2.2c0-0.5,0.8-0.7,0.6-1.3c0.1-0.4,0.5-0.8,0.9-1c0.3-0.2,0.8-0.2,1.1-0.1c0.6-0.6,1.6-0.8,2.3-0.5
		l0.4,0.2c0.4-0.8,0.5-1.7,0.8-2.5l1.1-2.4c-0.5-1.6-1.1-3.2-1.4-4.9c0-0.3,0.3-0.3,0.4-0.6c0.1-0.3,0.3-0.6,0.2-0.9
		c-0.3,0.1-0.6,0.4-0.8,0.7c0-0.5-0.3-1.1-0.1-1.6c0.2-0.1,0.3-0.3,0.5-0.4c-0.1-0.4,0.1-0.6,0-1c-0.3,0.2-0.5,0.4-0.7,0.6
		c0.2-0.6-0.5-1.4,0.4-1.7c-0.1-1.5,0.1-3.3,0.5-4.7l0.6-0.8c0-0.4,0-0.8,0.1-1.1l0.7-0.6c-0.1-0.1-0.3-0.1-0.4-0.1
		c0.2-0.8,1-1.7,1.9-2.1c0.3,0.2,0.7,0.2,1.1,0.3h0.4c-0.1-0.2-0.4-0.5-0.7-0.5c0.4-0.1,0.8-0.4,1.3-0.4c0.2,0.4,0.5,0.8,0.9,1.2
		c0.1-0.3,0.1-0.7,0-1c-0.1-0.2-0.2-0.3-0.3-0.5C83,105.1,83.5,105.4,84.1,105.7L84.1,105.7z"/>
	<path fill-rule="evenodd" clip-rule="evenodd" fill="#FFFFFF" d="M81.6,107.2c0,0.3,0.3,0.4,0.5,0.5c0.3,0.3,0.3,0.9,0.8,0.9
		c0.5,0,1,0.1,1.4,0.4c0.6-0.3,1.3-0.5,2-0.4c0.1-0.7,0.6-1.2,1.3-1.5c0.6-0.2,1,0.2,1.5,0.3c0.5,0.4,0.7,1,0.9,1.5
		c0,0.8-0.3,1.5-1,1.9l-0.3,0.1c0.2,0.6,0.1,1.3-0.2,1.9c0.2,0,0.3,0,0.5-0.2c0.1,0.2-0.1,0.5-0.1,0.8c-0.2,0.5-0.8,0.9-0.9,1.4
		c-0.2,0.3-0.5,0.5-0.8,0.6c-0.1,0.1,0,0.2,0.1,0.2c1.2,0,2.2,0.4,3.1,0.9l0,0.5c-0.9-0.6-2-0.8-3.1-0.9c-0.1,0.2-0.1,0.4-0.1,0.6
		c0.9,0.4,1.8,0.9,2.6,1.6c0,0.2,0,0.4,0,0.6c-0.9-0.7-1.7-1.5-2.8-1.8c-0.3,0.2-0.5,0.9-0.9,0.4c-0.5-0.4-1-0.6-1.7-0.7
		c-0.2-0.2-0.2-0.5-0.2-0.8c0.3-0.1,0.6-0.5,0.7-0.8c0.2,0,0.6,0.2,0.7-0.2c0.1-0.3-0.1-0.5-0.3-0.6c-0.8-0.2-1.8-0.3-2.6,0.2
		c0,0.2-0.1,0.5,0.2,0.6c0.2,0,0.3,0,0.4-0.1c0,0.3,0.2,0.8,0.6,0.9c-0.1,0.3,0,0.8-0.4,0.9c-0.7,0.1-1.3,0.4-2,0.7
		c-0.3-0.1-0.4-0.4-0.7-0.6c-0.9,0.4-1.8,1-2.6,1.6c-0.1-0.3-0.1-0.4,0-0.7c0.7-0.7,1.6-1,2.4-1.4v-0.6c-0.5-0.1-0.9,0-1.4,0.1
		l-0.1-0.1c-0.5,0.3-1,0.4-1.5,0.8c-0.1-0.3,0-0.7,0.3-0.8c0.8-0.4,1.7-0.6,2.7-0.6c0.1-0.6-0.5-0.9-0.7-1.3
		c-0.2-0.4-0.3-0.7-0.4-1.1h0.2c-0.1-0.7-0.2-1.5,0-2.3c-0.8-0.3-1.2-1.1-1.5-1.8c0.1-0.5,0.4-0.9,0.7-1.4c0.6,0,0.9-0.7,1.5-0.5
		C81,107.1,81.3,107.2,81.6,107.2L81.6,107.2z"/>
	<path fill-rule="evenodd" clip-rule="evenodd" fill="#FF671B" d="M81.9,108.9c-0.5,0.2-1.1,0.5-1.5,1c-0.3-0.3-1.3-0.2-1.1-0.9
		c0.1-0.5,0.3-1.1,0.9-1.3C80.8,107.9,81.8,108.1,81.9,108.9L81.9,108.9z"/>
	<path fill-rule="evenodd" clip-rule="evenodd" fill="#FF671B" d="M89.3,108.7c0.1,0.4,0,0.9,0,1.3c-0.2,0.2-0.6,0-0.8,0.3
		c-0.3-0.7-0.9-1.2-1.5-1.6c0.1-0.3,0.2-0.7,0.5-0.8c0.6-0.5,1.1,0.1,1.6,0.4L89.3,108.7L89.3,108.7z"/>
	<path fill-rule="evenodd" clip-rule="evenodd" fill="#FFFFFF" d="M105.6,110.2c-0.5,0.3-1-0.2-1.4,0.1l-0.5-0.2
		c0.3-0.2,0.7-0.4,1.1-0.5C105,109.8,105.4,109.9,105.6,110.2L105.6,110.2z"/>
	<path fill-rule="evenodd" clip-rule="evenodd" fill="#FF671B" d="M85.8,109.8c0.2,0.1,0.3,0.5,0.6,0.5c0.1,0.1,0.1,0.1,0.1,0.2
		c-0.2,0.1-0.5,0-0.7,0.1c-0.3-0.2-0.2-0.7-0.6-0.7c0-0.1,0.1-0.1,0.1-0.1L85.8,109.8L85.8,109.8z"/>
	<path fill-rule="evenodd" clip-rule="evenodd" fill="#FF671B" d="M83.1,110.6l-0.9,0c0.3-0.6,0.9-0.7,1.5-0.8L83.1,110.6
		L83.1,110.6z"/>
	<path fill-rule="evenodd" clip-rule="evenodd" fill="#FFFFFF" d="M77.6,111.3c-0.1-0.4,0.1-0.8,0.4-1.1l0.1-0.1v0.8L77.6,111.3
		L77.6,111.3z"/>
	<path fill-rule="evenodd" clip-rule="evenodd" fill="#FFFFFF" d="M108,111.9L108,111.9c-0.2-0.2-0.5-0.4-0.8-0.5
		c-0.3-0.2-0.4-0.5-0.8-0.6c0.2-0.2,0.6-0.2,0.9-0.2C107.7,111,107.9,111.4,108,111.9L108,111.9z"/>
	<path fill-rule="evenodd" clip-rule="evenodd" fill="#FF671B" d="M82.7,111.3c0.1,0.1,0.4,0.2,0.4,0.4c0,0.8-0.3,1.5-0.3,2.2
		c-0.2,0.2-0.6,0.3-0.6,0.6c-0.3,0.1-0.5,0.3-0.7,0.4c-0.1-0.2-0.1-0.5,0-0.7c0.3-0.4,0.7-0.3,1-0.7c0.2-0.4,0.1-0.9,0-1.3
		c-0.2,0.2-0.5,0.2-0.8,0.1c-0.4-0.2-0.4-0.6-0.8-0.8l-0.1-0.2l0.1-0.1H82.7L82.7,111.3z"/>
	<path fill-rule="evenodd" clip-rule="evenodd" fill="#FF671B" d="M87.9,111.4c-0.2,0.4-0.7,0.3-0.8,0.8c-0.3,0.2-0.7,0.1-1,0.1
		c-0.1-0.1-0.2-0.4-0.3-0.2c0.2,0.5-0.2,1.4,0.6,1.5c0,0.6,0.7,0.5,1.1,0.8c0,0.2-0.2,0.4-0.4,0.6c-0.3-0.4-1-0.3-1.1-0.9l-0.5-0.4
		l-0.2-2C86,111,87,111.5,87.9,111.4L87.9,111.4z"/>
	<path fill-rule="evenodd" clip-rule="evenodd" fill="#FFFFFF" d="M78.2,112.3c-0.5,0.3-0.1,1-0.4,1.4l-0.2,1
		c-0.1-0.6-0.6-1.2-0.3-1.8l0.2-0.5C77.8,112.4,78,112.4,78.2,112.3L78.2,112.3z"/>
	<path fill-rule="evenodd" clip-rule="evenodd" fill="#FFFFFF" d="M90.6,114.2c-0.2,0-0.3,0.1-0.5,0.2c0-0.5,0.1-1.1,0.2-1.6
		C90.6,113.1,90.8,113.7,90.6,114.2L90.6,114.2z"/>
	<path fill-rule="evenodd" clip-rule="evenodd" fill="#FF671B" d="M82.4,115.9c-0.2,0.1-0.5,0.3-0.8,0.4c-0.1-0.1-0.1-0.3,0-0.4
		C81.8,115.9,82.1,115.8,82.4,115.9L82.4,115.9z"/>
	<path fill-rule="evenodd" clip-rule="evenodd" fill="#FFFFFF" d="M92,116.3c0.2,0.3,0.3,0.6,0.5,1c-0.1,0.1-0.3,0.1-0.4,0
		c-0.2-0.2-0.4-0.3-0.6-0.6v-0.8C91.7,116,91.7,116.4,92,116.3L92,116.3z"/>
	<path fill-rule="evenodd" clip-rule="evenodd" fill="#FF671B" d="M86.7,116.4c-0.2-0.1-0.5-0.2-0.8-0.3L86,116l0.8,0L86.7,116.4
		L86.7,116.4z"/>
	<path fill-rule="evenodd" clip-rule="evenodd" fill="#FFFFFF" d="M86.4,118c-0.1,0.5-0.2,1.1-0.7,1.5c-0.1-0.2-0.3-0.4-0.4-0.6
		c-0.1,0.3-0.2,0.7-0.2,1c-0.2,0.1-0.5,0.2-0.8,0.2c-0.1-0.4-0.2-0.7-0.2-1l-0.1,0c-0.1,0.1-0.1,0.3-0.2,0.4l-0.3,0.6
		c-0.2-0.1-0.6,0-0.7-0.3c-0.1-0.3,0.1-0.5,0-0.8l-0.4,0.4c-0.3-0.3-0.4-0.9-0.3-1.4C83.2,117.3,85.2,117.2,86.4,118L86.4,118z"/>
	<path fill-rule="evenodd" clip-rule="evenodd" fill="#FFFFFF" d="M102.4,118.6c0,0.2,0.2,0.2,0.3,0.3c0.5-0.2,0.7,0.3,0.9,0.6v0.1
		c-0.7-0.2-1.7-0.5-2.4,0c-0.1-0.1,0-0.4,0-0.6c0.2-0.3,0.4-0.5,0.7-0.5C102.1,118.5,102.3,118.5,102.4,118.6L102.4,118.6z"/>
	<path fill-rule="evenodd" clip-rule="evenodd" fill="#FFFFFF" d="M92.9,119.3c-0.1,0.1-0.3-0.1-0.4-0.1c-0.3,0-0.7,0.1-0.9-0.3
		l-0.1-0.3c0.2-0.1,0.5-0.2,0.7-0.1C92.5,118.8,92.7,119.1,92.9,119.3L92.9,119.3z"/>
	<path fill-rule="evenodd" clip-rule="evenodd" fill="#FFFFFF" d="M89.3,120.8l0.4,0.5c-0.3,0.1-0.6,0-0.9-0.3
		c-0.4-0.4-0.5-1-0.6-1.5C88.7,119.9,89.4,120.1,89.3,120.8L89.3,120.8z"/>
	<path fill-rule="evenodd" clip-rule="evenodd" fill="#FFFFFF" d="M79.8,120.3c0.3,0.4,0.7,0.8,0.8,1.4c-0.6-0.1-1.1-0.7-1.4-1.2
		c-0.1-0.3-0.1-0.6-0.1-0.9C79.4,119.7,79.8,119.9,79.8,120.3L79.8,120.3z"/>
	<path fill-rule="evenodd" clip-rule="evenodd" fill="#FFFFFF" d="M91.5,120.4c-0.4,0-1,0.1-1.2-0.2c0.2-0.2,0.4-0.3,0.6-0.4
		C91.1,120,91.4,120.2,91.5,120.4L91.5,120.4z"/>
	<path fill-rule="evenodd" clip-rule="evenodd" fill="#FFFFFF" d="M81.6,120.4l-0.1,1c-0.3-0.4-0.6-0.9-0.6-1.5
		C81.1,120.1,81.3,120.2,81.6,120.4L81.6,120.4z"/>
	<path fill-rule="evenodd" clip-rule="evenodd" fill="#FFFFFF" d="M103.5,120.9c-0.7-0.1-1.4-0.2-1.9,0.3c-0.1,0-0.1,0-0.2,0.1
		c-0.1-0.2-0.1-0.4,0-0.6c0.3-0.3,0.7-0.8,1.2-0.5C103,120.2,103.4,120.4,103.5,120.9L103.5,120.9L103.5,120.9z"/>
	<path fill-rule="evenodd" clip-rule="evenodd" fill="#FFFFFF" d="M88.6,122.3L88.6,122.3c-0.3,0.1-0.6,0.2-0.9,0.1
		c-0.5-0.4-0.4-1.1-0.2-1.6l0.2-0.5C88.1,121,87.6,122.1,88.6,122.3L88.6,122.3z"/>
	<path fill-rule="evenodd" clip-rule="evenodd" fill="#FFFFFF" d="M94.8,121.2c-0.4,0.2-1,0.1-1.3-0.2l0.6-0.3L94.8,121.2
		L94.8,121.2z"/>
	<path fill-rule="evenodd" clip-rule="evenodd" fill="#FFFFFF" d="M78.6,121.5c-0.2,0.4-0.7,0.5-0.9,1h-0.1c0-0.4-0.3-0.9,0.2-1.2
		C78.2,121.3,78.4,121.4,78.6,121.5L78.6,121.5z"/>
	<path fill-rule="evenodd" clip-rule="evenodd" fill="#FFFFFF" d="M86.4,121.3c0.1,0.5,0.1,1,0.3,1.4l0,0c-0.3-0.2-1-0.3-0.9-0.8
		C85.9,121.7,86.2,121.5,86.4,121.3L86.4,121.3z"/>
	<path fill-rule="evenodd" clip-rule="evenodd" fill="#FFFFFF" d="M83.2,122.6c-0.5-0.3-0.8-0.8-0.9-1.3l0.7,0.2L83.2,122.6
		L83.2,122.6z"/>
	<path fill-rule="evenodd" clip-rule="evenodd" fill="#FFFFFF" d="M103.8,121.9c0.3,0,0.5-0.4,0.9-0.2c0.4,0.2,0.7,0.6,0.8,1
		c-0.7-0.4-1.5-0.5-2.3-0.6c-0.4,0-0.7,0.4-1.2,0.4c-0.2,0.1-0.3,0.3-0.5,0.3c-0.2-0.2-0.2-0.6-0.2-0.9c0.3,0,0.5-0.2,0.8-0.4
		C102.8,122,103.6,120.9,103.8,121.9L103.8,121.9L103.8,121.9z"/>
	<path fill-rule="evenodd" clip-rule="evenodd" fill="#FFFFFF" d="M84.3,123c-0.1-0.3-0.1-0.6-0.2-0.9c0.3-0.1,0.5-0.4,0.8-0.6
		C84.9,122,84.9,122.7,84.3,123L84.3,123z"/>
	<path fill-rule="evenodd" clip-rule="evenodd" fill="#FFFFFF" d="M93.8,122.4c-0.6,0.3-1.2-0.1-1.8-0.3c-0.1-0.1-0.2-0.1-0.3-0.3
		c0.3,0,0.6-0.5,0.9-0.1C93.1,121.8,93.4,122.2,93.8,122.4L93.8,122.4z"/>
	<path fill-rule="evenodd" clip-rule="evenodd" fill="#FFFFFF" d="M98.9,122.3c0.5,0.3,0.4,0.7,0.4,1.2c-0.6-0.5-1.2-1.2-1.7-1.8
		C98.2,121.6,98.4,122.2,98.9,122.3L98.9,122.3z"/>
	<path fill-rule="evenodd" clip-rule="evenodd" fill="#FFFFFF" d="M91.3,123.1l0.6,0.5c-0.8,0.3-1.5-0.4-2-1
		c0.3-0.2,0.6-0.2,0.9-0.3L91.3,123.1L91.3,123.1z"/>
	<path fill-rule="evenodd" clip-rule="evenodd" fill="#FFFFFF" d="M79.8,122.7c-0.1,0.5-0.5,1-0.9,1.4c-0.1-0.4,0.1-0.9,0.2-1.3
		C79.2,122.6,79.5,122.5,79.8,122.7L79.8,122.7z"/>
	<path fill-rule="evenodd" clip-rule="evenodd" fill="#FFFFFF" d="M95.8,123.4c-0.1,0.2-0.1,0.5-0.3,0.4c-0.4-0.3-0.3-0.8-0.2-1.2
		C95.5,122.7,95.8,123,95.8,123.4L95.8,123.4z"/>
	<path fill-rule="evenodd" clip-rule="evenodd" fill="#FFFFFF" d="M97.7,123.3c0,0.5,0.7,0.3,0.8,0.8c0.1,0.3,0.3,0.5,0.3,0.8
		c-0.1,0.2-0.4,0.1-0.4,0.4c0.2,0.1,0.5,0.3,0.6,0.5c0,0.5-0.1,1-0.2,1.6c-0.1,0-0.2-0.1-0.2-0.2c-0.1-1.4-0.8-2.5-1.3-3.7l-0.6-0.6
		C97.1,122.9,97.6,122.9,97.7,123.3L97.7,123.3z"/>
	<path fill-rule="evenodd" clip-rule="evenodd" fill="#FFFFFF" d="M98.1,123.1L98.1,123.1l-0.1,0.1v-0.1
		C98,123.1,98.1,123.1,98.1,123.1L98.1,123.1z"/>
	<path fill-rule="evenodd" clip-rule="evenodd" fill="#FFFFFF" d="M104.6,123.3l0.7,0.4l0.2,0.8c-0.4,0.2-0.8-0.2-1.2-0.3
		c-0.2-0.1,0.1-0.5-0.2-0.5c-0.4,0-0.8,0.3-1.2,0.3c0,0-0.1,0-0.1,0.1c0,0.1,0.1,0.1,0.1,0.3c-0.3,0.2-0.7,0.3-1.1,0.2
		c-0.1-0.2-0.2-0.5-0.2-0.7c0.3-0.2,0.7-0.1,0.9-0.4c0.6-0.2,1.1,0.2,1.7,0.2L104.6,123.3L104.6,123.3z"/>
	<path fill-rule="evenodd" clip-rule="evenodd" fill="#FFFFFF" d="M89.7,124c0.3,0.2,0.6,0.3,0.9,0.5c-0.9,0.5-1.8-0.2-2.5-0.8
		c0.3-0.1,0.8-0.1,1.1-0.3C89.5,123.5,89.5,123.9,89.7,124L89.7,124z"/>
	<path fill-rule="evenodd" clip-rule="evenodd" fill="#FFFFFF" d="M80.7,123.6c0,0.4-0.2,0.8-0.3,1.2c-0.3,0.4-0.9,0.3-1.3,0.2
		c0.6-0.3,1-0.9,1.4-1.5C80.5,123.7,80.6,123.6,80.7,123.6L80.7,123.6z"/>
	<path fill-rule="evenodd" clip-rule="evenodd" fill="#FFFFFF" d="M96.9,124.9c0.1,0.3-0.1,0.4-0.3,0.5l-0.1,0
		c-0.4-0.5-0.4-1.1-0.3-1.7C96.9,123.8,96.5,124.6,96.9,124.9L96.9,124.9z"/>
	<path fill-rule="evenodd" clip-rule="evenodd" fill="#FFFFFF" d="M86.7,124.1c0.3,0.3,0.7,0.7,1,1c-0.3,0.2-0.6,0.3-0.9,0.2
		c-0.6-0.2-0.6-0.9-1.2-1.1c0-0.1-0.2-0.2-0.1-0.4L86.7,124.1L86.7,124.1z"/>
	<path fill-rule="evenodd" clip-rule="evenodd" fill="#FFFFFF" d="M82.9,123.9c-0.1,0.4-0.4,0.8-0.7,1c-0.4,0.2-0.8,0.3-1.3,0.2
		c0.5-0.4,1-0.7,1.4-1.2H82.9L82.9,123.9z"/>
	<path fill-rule="evenodd" clip-rule="evenodd" fill="#FFFFFF" d="M83,126.1l-0.5,0.1c0.3-0.5,0.9-0.9,1-1.5
		c0.3-0.2,0.7-0.1,0.9-0.2C84.3,125.3,83.8,126,83,126.1L83,126.1z"/>
	<path fill-rule="evenodd" clip-rule="evenodd" fill="#FFFFFF" d="M104.3,125.2c0.4,0.2,0.6,0.6,0.6,1.1l-0.8-0.4
		c0.1-0.2-0.1-0.4-0.2-0.4c-0.5-0.1-0.9,0-1.3,0.1c-0.3-0.1-0.3-0.4-0.4-0.6c0.5-0.1,1.1-0.4,1.7-0.2
		C104,124.9,104.2,125,104.3,125.2L104.3,125.2z"/>
	<path fill-rule="evenodd" clip-rule="evenodd" fill="#FFFFFF" d="M100.1,125.3c0.1,0.4,0,0.9-0.1,1.2c-0.2-0.5-0.5-1-0.8-1.5
		C99.5,124.8,100,124.9,100.1,125.3L100.1,125.3z"/>
	<path fill-rule="evenodd" clip-rule="evenodd" fill="#FFFFFF" d="M95.9,126c0.2,0.4-0.3,0.9,0.4,1.1c0,0.5-0.2,0.9-0.2,1.3
		c-0.1-0.4-0.2-0.8-0.5-1.1c0.1-0.2,0.2-0.3,0-0.4c-0.2-0.2-0.4-0.1-0.4-0.4c-0.1-0.4,0.3-0.6,0.4-0.9
		C95.9,125.6,95.8,125.9,95.9,126L95.9,126z"/>
	<path fill-rule="evenodd" clip-rule="evenodd" fill="#FFFFFF" d="M97.8,126.7c0.1,0.3,0.2,0.8,0.1,1.2c0.1,0.1,0.2,0.1,0.4,0.1
		c0,0.4-0.3,0.7-0.5,1.1l-0.1,0.2c0-0.4,0.2-0.9-0.1-1.2c-0.1,0-0.2,0-0.3-0.1c0-0.5,0.2-1-0.2-1.4c0-0.5,0.5-0.5,0.7-0.8
		C97.8,126,97.7,126.4,97.8,126.7L97.8,126.7z"/>
	<path fill-rule="evenodd" clip-rule="evenodd" fill="#FFFFFF" d="M79.8,126.8c0.3,0.2,0.6,0.3,0.8,0.5c-0.1,0.1,0,0.3,0.1,0.3
		c0.2,0.1,0.4,0.3,0.5,0.6v0.8c-0.2-0.4-0.5-1-1-1.1c-0.3-0.2-0.5-0.5-0.7-0.7c-0.6-0.2-1.2-0.2-1.8-0.1c-0.1-0.2,0.2-0.4,0.4-0.6
		l0.2-0.2C78.7,126.4,79.4,126.2,79.8,126.8L79.8,126.8z"/>
	<path fill-rule="evenodd" clip-rule="evenodd" fill="#FFFFFF" d="M103.7,126.7c0.3,0,0.6,0.1,0.8,0.3c0,0.3,0,0.7-0.1,1
		c-0.3-0.5-0.8-1-1.4-1c-0.3,0-0.5,0.3-0.8,0.4c0.3-0.4,0-1.2,0.7-1.1C103.3,126.2,103.3,126.7,103.7,126.7L103.7,126.7z"/>
	<path fill-rule="evenodd" clip-rule="evenodd" fill="#FFFFFF" d="M86.9,127.5c-0.2,0.1-0.4,0-0.5-0.1c-0.3-0.1-0.5-0.4-0.5-0.8
		c0.2-0.1,0.4,0,0.6-0.1L86.9,127.5L86.9,127.5z"/>
	<path fill-rule="evenodd" clip-rule="evenodd" fill="#FFFFFF" d="M91,126.9c0.4,0.1,0.9,0.1,1.1,0.6l0.2,0.5
		c-0.7,0.3-0.9-1-1.5-0.4c-0.5-0.2-1.1-0.3-1.5,0c-0.1,0.1-0.3,0.2-0.4,0.1c0-0.3,0.3-0.5,0.5-0.8C90,127.4,90.4,126.2,91,126.9
		L91,126.9z"/>
	<path fill-rule="evenodd" clip-rule="evenodd" fill="#FFFFFF" d="M84.4,127.1c0.1,0.2,0.2,0.4,0.2,0.6c-0.2,0.2-0.6,0.2-0.9,0.1
		l-0.5-0.6C83.6,127.2,84.1,127.3,84.4,127.1L84.4,127.1z"/>
	<path fill-rule="evenodd" clip-rule="evenodd" fill="#FFFFFF" d="M80,129c0,0.5,0.7,0.3,0.7,0.9c0.3,0.5-0.3,0.8-0.4,1.1
		c-0.2-0.2-0.1-0.7-0.4-0.9c0-0.2,0.3-0.3,0.1-0.6c-0.2-0.1-0.4-0.1-0.6-0.1c-0.5-0.3-1-0.7-1.5-1.1c-0.3-0.1-0.6,0.1-0.9,0.2
		l-0.2-0.2c0.3-0.2,0.3-0.6,0.7-0.7C78.6,127.6,79.1,128.7,80,129L80,129z"/>
	<path fill-rule="evenodd" clip-rule="evenodd" fill="#FFFFFF" d="M103.8,128.4c0.5,0.3,0.3,1,0.2,1.4c-0.2-0.1-0.4-0.2-0.6-0.4
		c0-0.1,0-0.3-0.1-0.4c-0.4-0.4-1-0.1-1.4-0.2c-0.1-0.3,0.1-0.4,0.2-0.6c0.3-0.1,0.6-0.3,0.9-0.2
		C103.3,128.2,103.5,128.4,103.8,128.4L103.8,128.4z"/>
	<path fill-rule="evenodd" clip-rule="evenodd" fill="#FFFFFF" d="M89.9,128.3C89.9,128.3,89.9,128.3,89.9,128.3
		c1,0.1,2,0.2,2.6,0.9c0,0.1,0,0.3,0,0.4c-0.4-0.2-0.8-0.2-1.1-0.6c-0.7-0.2-1.2,0-1.8,0.1c0-0.1-0.1-0.3-0.3-0.2
		c-0.4,0.1-0.9,0.2-1.3,0.6c0-0.3,0.2-0.6,0.3-0.8C88.8,128.5,89.3,128.3,89.9,128.3L89.9,128.3z"/>
	<path fill-rule="evenodd" clip-rule="evenodd" fill="#FFFFFF" d="M94.3,130.8c0,0.2,0,0.3-0.1,0.5c-0.1-0.3-0.7-0.6-0.3-1
		c0-0.7-0.4-1.3-0.5-2C94.4,128.7,94.1,129.9,94.3,130.8L94.3,130.8z"/>
	<path fill-rule="evenodd" clip-rule="evenodd" fill="#FFFFFF" d="M106.3,128.9c0,0.3,0.1,0.8-0.1,1.2c-0.2-0.2-0.5-0.5-0.5-0.8
		C105.8,129.1,106.1,128.3,106.3,128.9L106.3,128.9z"/>
	<path fill-rule="evenodd" clip-rule="evenodd" fill="#FFFFFF" d="M77.7,129.4c0.1,0.5,0.9,0.2,0.8,0.8c0,0.1-0.1,0.2-0.1,0.4
		c0.3,0.2,0.6,0,0.9,0.2c0.4,0.5,0.2,1,0,1.5c-0.4-0.6-0.3-1.7-1.3-2c-0.5-0.2-1-0.6-1.6-0.5c-0.1-0.3,0.2-0.5,0.4-0.7
		C77.2,129.1,77.4,129.5,77.7,129.4L77.7,129.4z"/>
	<path fill-rule="evenodd" clip-rule="evenodd" fill="#FFFFFF" d="M102.5,129.6c0.2,0.2-0.2,0.5,0.1,0.5c0.3,0,0.5,0.3,0.7,0.5
		c0,0.1,0,0.2,0,0.3l-0.1,0.1l-1.2-0.5c0.1-0.3-0.1-0.4-0.3-0.5c-0.3,0-0.5,0.3-0.7,0.2c0.3-0.2,0.5-1,1-0.8
		C102.1,129.5,102.3,129.6,102.5,129.6L102.5,129.6z"/>
	<path fill-rule="evenodd" clip-rule="evenodd" fill="#FFFFFF" d="M92.4,130.2c0.6,0.2,0.2,1,0.8,1l0.1,0.1
		c-0.1,0.3-0.2,0.6-0.3,0.9c-0.2-0.4-0.3-1-0.9-1.2c-0.1-0.2-0.2-0.5-0.4-0.7c-0.3,0-0.5-0.1-0.8-0.1c0.1,0.3,0.5,0.5,0.4,0.8
		c0.2,0.2,0.6,0.3,0.7,0.6v0.7l-0.5,0.3c-0.1-0.5,0.1-1.2-0.5-1.5c-0.6,0-0.6-0.7-1.1-1c-0.4,0.2-1,0.1-1.4,0.3
		c0.1-0.2,0.1-0.6,0.4-0.7c0.4-0.3,1.1-0.1,1.5-0.4C91.2,129.7,91.8,130.1,92.4,130.2L92.4,130.2z"/>
	<path fill-rule="evenodd" clip-rule="evenodd" fill="#FFFFFF" d="M105.6,130.6c0,0.2-0.1,0.3-0.1,0.5c0.3,0.1,0.3,0.4,0.1,0.6
		l-0.1,0.1c-0.1-0.5-0.5-0.8-0.8-1.2l0.3-0.6C105.3,130.1,105.5,130.4,105.6,130.6L105.6,130.6z"/>
	<path fill-rule="evenodd" clip-rule="evenodd" fill="#FFFFFF" d="M74.2,130.7c-0.2,0.2-0.2,0.4-0.2,0.7c0.1,0.2,0.4,0.1,0.5,0.3
		c0,0.4,0.1,0.9-0.3,1.1c-0.1-0.3-0.3-0.6-0.7-0.7c-0.4,0.5-0.3,1.3-0.3,1.9c-0.2,0.2-0.4,0.3-0.6,0.4c-0.4-1.3,0-2.6,0.7-3.6
		C73.6,130.7,73.9,130.7,74.2,130.7L74.2,130.7z"/>
	<path fill-rule="evenodd" clip-rule="evenodd" fill="#FFFFFF" d="M76.8,131c-0.1,0.1-0.2,0.3-0.3,0.4c0.3,0.2,0.7,0.4,0.8,0.8
		c0.1,0.8-0.5,1.3-1,1.9c-0.1-0.5,0.1-1,0.2-1.5c-0.3,0-0.8-0.6-0.9,0c-0.2,0.7-0.9,1.1-1,1.8l-0.1-0.1c0-1,0.1-1.9,0.5-2.8
		C75.5,131,76.2,130.7,76.8,131L76.8,131z"/>
	<path fill-rule="evenodd" clip-rule="evenodd" fill="#FFFFFF" d="M89.9,131.5c0,0.1,0,0.2,0.2,0.2c0.4-0.1,0.5,0.2,0.5,0.5
		c0.1,0.3,0,0.5-0.3,0.7c-0.2-0.4-0.1-1.3-0.9-1.2c-0.1-0.1-0.3-0.2-0.4-0.4C89.3,131.2,89.7,131.1,89.9,131.5L89.9,131.5z"/>
	<path fill-rule="evenodd" clip-rule="evenodd" fill="#FF671B" d="M84.6,132.8c0.1,0.7,0.2,1.4,0.6,2h-1c-0.1-0.7-0.8-1.1-0.6-1.9
		c0.3-0.2,0.7-0.2,0.8-0.6c0-0.2-0.3-0.4-0.5-0.2c0,0-0.1,0-0.1,0c-0.1-0.7,0.7-0.6,1-0.8C84.7,131.8,84.6,132.4,84.6,132.8
		L84.6,132.8z"/>
	<path fill-rule="evenodd" clip-rule="evenodd" fill="#FFFFFF" d="M72.3,132.8c-0.2,0-0.3-0.2-0.6-0.2c-0.3,0.6,0.1,1.2-0.2,1.8
		c-0.2-0.1-0.4-0.2-0.5-0.4c0-0.6-0.1-1.2,0-1.7l0.7-0.8C72.3,131.8,72.4,132.4,72.3,132.8L72.3,132.8z"/>
	<path fill-rule="evenodd" clip-rule="evenodd" fill="#FF671B" d="M99,131.9c-0.5,0.9-0.2,2-0.1,3l-0.7,0c-0.3-0.5-0.5-1.2-0.6-1.9
		c0-0.2,0.1-0.3,0.2-0.4c0.2,0.2,0.2,0.5,0.4,0.6c0.2-0.3,0.3-0.7,0.2-1.1l-0.2-0.2C98.6,132,98.8,131.9,99,131.9L99,131.9z"/>
	<path fill-rule="evenodd" clip-rule="evenodd" fill="#FF671B" d="M86.6,132.8l-0.1,2.2l-0.7,0c-0.2-0.7-0.4-1.5-0.3-2.2l0.3-0.5
		L86.6,132.8L86.6,132.8L86.6,132.8z"/>
	<path fill-rule="evenodd" clip-rule="evenodd" fill="#FF671B" d="M88.2,132.5c0.2,0.2,0.1,0.5,0.1,0.7l-0.5,1.7H87l0.3-2.1
		c0.1-0.1,0.2-0.4,0.4-0.4C87.9,132.3,88,132.4,88.2,132.5L88.2,132.5z"/>
	<path fill-rule="evenodd" clip-rule="evenodd" fill="#001F5B" d="M236.1,117.3c0-1,0.8-1.8,1.8-1.8c1,0,1.7,0.8,1.7,1.8
		c0,1-0.8,1.8-1.7,1.8C236.9,119.1,236.1,118.3,236.1,117.3L236.1,117.3z M235.7,117.3c0,1.2,1,2.1,2.1,2.1c1.2,0,2.1-0.9,2.1-2.1
		c0-1.2-1-2.1-2.1-2.1C236.7,115.2,235.7,116.1,235.7,117.3L235.7,117.3z M237,118.5h0.4v-1.1h0.4l0.7,1.1h0.4l-0.7-1.1
		c0.4,0,0.7-0.2,0.7-0.7c0-0.5-0.3-0.7-0.9-0.7h-1V118.5L237,118.5z M237.4,116.4h0.5c0.3,0,0.5,0.1,0.5,0.4c0,0.4-0.3,0.4-0.7,0.4
		h-0.4V116.4L237.4,116.4z"/>
</g>
<g>
	<path fill-rule="evenodd" clip-rule="evenodd" fill="#FFFFFF" d="M63.4,48v4.8c-1.3,1-4.5,2.2-8,2.2c-5.4,0-10.5-3.6-10.5-9.8
		c0-6.1,5.2-10,10.4-10c1.7,0,2.9,0.2,3.9,0.5c0.9,0.2,1.7,0.5,2.3,0.5c0.6,0,1-0.7,1.1-0.9h0.4c0,2.2,0.2,4.7,0.5,6l-0.5,0.2
		c-1.1-3.4-4.7-5.1-7.4-5c-4.4,0.1-6.8,4-6.8,8.3c-0.1,4.8,2.6,8.7,7,8.7c1.6,0,3.6-0.2,4.4-1.2V48c0-2.3-1.2-2.9-2.2-2.9v-0.3h7.8
		v0.3C64.7,45.1,63.4,45.7,63.4,48L63.4,48z M39.5,40.9v13.9h-0.9L25.4,39.1c0.2,0.4,0.2,0.9,0.2,1.2v9.9c0,3.3,0.8,4.2,2.6,4.2v0.4
		h-6.6v-0.4c1.7,0,2.5-0.9,2.5-4.2v-12c0-1.4-1.4-2.5-3-2.5v-0.4h5.8l11.4,13.5c-0.2-0.5-0.2-0.9-0.2-1.3v-6.6
		c0-2.4-0.1-5.1-2.5-5.1v-0.4h6.5v0.4C39.6,35.8,39.5,38.5,39.5,40.9L39.5,40.9z M15.5,38.6v12.6c0.1,1.1-0.2,3.3,2.2,3.3v0.4h-7.6
		v-0.4c2.4,0,2-2.2,2.2-3.3V38.6c0-2.3-1.3-2.8-2.3-2.8v-0.4h7.9v0.4C16.8,35.8,15.5,36.2,15.5,38.6L15.5,38.6z"/>
	<path fill-rule="evenodd" clip-rule="evenodd" fill="#FFFFFF" d="M131,55h-8.8v-0.4c0.5,0,1.6-0.3,1.9-0.8c0.5-0.5,0.7-1.1,0.7-3
		V38.6c0-0.9-0.3-1.6-0.8-2.1c-0.5-0.5-1.2-0.5-1.9-0.5v-0.5h8.2c4.4,0,6.6,0.7,8.6,2.7c1.6,1.6,2.7,4.1,2.7,6.6
		C141.8,51.1,137.7,55,131,55L131,55z M130.8,36.9c-0.9,0-1.7,0.1-2.6,0.2v15.4c0,1.1,1.4,1,2.6,1c4.8,0,7.1-3.5,7.1-8.3
		C137.9,40.3,135.2,36.9,130.8,36.9L130.8,36.9z"/>
	<path fill-rule="evenodd" clip-rule="evenodd" fill="#FFFFFF" d="M151.6,38.7v12.6c0.1,1.1-0.2,3.3,2.2,3.3V55h-7.6v-0.4
		c2.4,0,2-2.2,2.2-3.3V38.7c0-2.3-1.3-2.8-2.3-2.8l0-0.4h7.9v0.4C152.9,35.9,151.6,36.4,151.6,38.7L151.6,38.7z"/>
	<path fill-rule="evenodd" clip-rule="evenodd" fill="#FFFFFF" d="M171.6,55l-5.5-9.2h-1.9V51c0,1.4-0.1,3.5,2.2,3.6V55h-7.5v-0.4
		c2.3-0.1,2.1-2.2,2.1-3.5V38.7c0-2.3-1.3-2.9-2.3-2.9v-0.3l8.6-0.1c4.5-0.1,6.5,1.7,6.5,4.9c0,3.2-2.2,4.7-4.1,5l4.8,7.6
		c0.6,1,1.5,1.5,2.4,1.6V55H171.6L171.6,55z M166.3,36.7c-0.6,0-1.4,0.1-2,0.2v7.6c0.6,0.2,1.1,0.2,1.8,0.2c2.9,0,4.1-1.9,4.1-4
		C170.1,37.9,168.7,36.7,166.3,36.7L166.3,36.7z"/>
	<path fill-rule="evenodd" clip-rule="evenodd" fill="#FFFFFF" d="M195,55h-15.6v-0.5c1.9,0,2.8-1.2,2.8-2.8l0-12.4
		c0-1.5,0-3.4-2.6-3.4v-0.4h14.9c0,0.9,0.1,3.3,0.2,4.8h-0.5c-0.5-2.8-2.8-3.4-5.6-3.4c-2.1,0-3.3,0.2-3.3,0.2v7h4.4
		c1.2,0,2.8-0.7,3-2.6h0.5c-0.2,1.3-0.2,5.1,0,6.4h-0.5c-0.2-1.9-1.6-2.4-2.9-2.4h-4.4v6.1c0,1.6,0.2,1.9,2.3,1.9h2.2
		c3.1-0.1,4.6-0.7,5.8-3.3l0.5,0.2C195.7,51.6,195.3,53.4,195,55L195,55z"/>
	<path fill-rule="evenodd" clip-rule="evenodd" fill="#FFFFFF" d="M208,55.1c-5.6,0-9-4-9-9.6c0-5.1,3.3-10.2,9.5-10.2
		c1.6,0,3,0.4,4,0.8c0.3,0.1,0.6,0.3,0.9,0.3c0.3,0,0.6-0.4,0.9-0.9l0.4,0.1c0.1,2.2,0.3,4.2,0.6,6.3c-0.1,0.2-0.3,0.1-0.5,0.2
		c-0.6-2.7-2.7-5.4-5.9-5.4c-4.3,0-6.1,4-6.1,8.4c0,4.6,1.9,8.6,6.2,8.6c3.7,0,5.6-1.9,6.1-5.4l0.6,0.2
		C215.3,52.9,212.2,55.1,208,55.1L208,55.1z"/>
	<path fill-rule="evenodd" clip-rule="evenodd" fill="#FFFFFF" d="M233.4,41.3c-0.6-3.3-2.6-4.4-4.9-4.4h-0.9v13.7
		c0,2.2-0.1,3.7,2.1,4V55H222v-0.4c2.6-0.2,2.3-2,2.3-3.9V36.9h-1c-3,0-4.3,1.5-4.9,4.4l-0.5-0.1c0.1-0.5,0.5-5.7,0.5-5.7h15.2
		c0,0,0.4,5.1,0.5,5.6L233.4,41.3L233.4,41.3z"/>
	<path fill-rule="evenodd" clip-rule="evenodd" fill="#FFFFFF" d="M81.9,28.9c-0.5,0.2-1.1,0.5-1.5,1c-0.3-0.3-1.3-0.2-1.1-0.9
		c0.1-0.5,0.3-1.1,0.9-1.3C80.8,27.9,81.8,28.1,81.9,28.9L81.9,28.9z"/>
	<path fill-rule="evenodd" clip-rule="evenodd" fill="#FFFFFF" d="M89.3,28.7c0.1,0.4,0,0.9,0,1.3c-0.2,0.2-0.6,0-0.8,0.3
		c-0.3-0.7-0.9-1.2-1.5-1.6c0.1-0.3,0.2-0.7,0.5-0.8c0.6-0.5,1.1,0.1,1.6,0.4L89.3,28.7L89.3,28.7z"/>
	<path fill-rule="evenodd" clip-rule="evenodd" fill="#FFFFFF" d="M85.8,29.8c0.2,0.1,0.3,0.5,0.6,0.5c0.1,0.1,0.1,0.1,0.1,0.2
		c-0.2,0.1-0.5,0-0.7,0.1c-0.3-0.2-0.2-0.7-0.6-0.7c0-0.1,0.1-0.1,0.1-0.1L85.8,29.8L85.8,29.8z"/>
	<path fill-rule="evenodd" clip-rule="evenodd" fill="#FFFFFF" d="M83.1,30.6l-0.9,0c0.3-0.6,0.9-0.7,1.5-0.8L83.1,30.6L83.1,30.6z"
		/>
	<path fill-rule="evenodd" clip-rule="evenodd" fill="#FFFFFF" d="M82.7,31.3c0.1,0.1,0.4,0.2,0.4,0.4c0,0.8-0.3,1.5-0.3,2.2
		c-0.2,0.2-0.6,0.3-0.6,0.6c-0.3,0.1-0.5,0.3-0.7,0.4c-0.1-0.2-0.1-0.5,0-0.7c0.3-0.4,0.7-0.3,1-0.7c0.2-0.4,0.1-0.9,0-1.3
		c-0.2,0.2-0.5,0.2-0.8,0.1c-0.4-0.2-0.4-0.6-0.8-0.8l-0.1-0.2l0.1-0.1H82.7L82.7,31.3z"/>
	<path fill-rule="evenodd" clip-rule="evenodd" fill="#FFFFFF" d="M87.9,31.4c-0.2,0.4-0.7,0.3-0.8,0.8c-0.3,0.2-0.7,0.1-1,0.1
		c-0.1-0.1-0.2-0.4-0.3-0.2c0.2,0.5-0.2,1.4,0.6,1.5c0,0.6,0.7,0.5,1.1,0.8c0,0.2-0.2,0.4-0.4,0.6c-0.3-0.4-1-0.3-1.1-0.9l-0.5-0.4
		l-0.2-2C86,31,87,31.5,87.9,31.4L87.9,31.4z"/>
	<path fill-rule="evenodd" clip-rule="evenodd" fill="#FFFFFF" d="M82.4,35.9c-0.2,0.1-0.5,0.3-0.8,0.4c-0.1-0.1-0.1-0.3,0-0.4
		C81.8,35.9,82.1,35.8,82.4,35.9L82.4,35.9z"/>
	<path fill-rule="evenodd" clip-rule="evenodd" fill="#FFFFFF" d="M86.7,36.4c-0.2-0.1-0.5-0.2-0.8-0.3L86,36l0.8,0L86.7,36.4
		L86.7,36.4z"/>
	<path fill-rule="evenodd" clip-rule="evenodd" fill="#FFFFFF" d="M112.7,34.7c-1.1-1.3-2.6-1.8-3.7-3.1c-0.8-0.8-1.1-2-2.2-2.3
		c0.1,0.2,0.3,0.4,0.3,0.7c-0.5,0-0.9-0.2-1.2-0.5l0.3-0.4c-1.5-0.4-2.9,0.3-4.2,0.8c0.7,0.4,0.9,1.1,1.3,1.7
		c0.4-0.1,0.7,0.1,1.1,0.1c0-0.2-0.2-0.4-0.1-0.5c0.5,0,1,0.1,1.4,0.2c0.1,0.1,0.3,0.2,0.3,0.3c-0.4,0-0.9,0.1-1.3,0.2
		c0,0.2,0.2,0.3,0.1,0.5c-0.4-0.2-0.8-0.2-1.2-0.3c0.2,0.4,0.6,0.6,0.9,0.8c1.1,0.9,2.7,0.3,4.1,0.3c3.9,1.9,6.3,6,6.5,10.3
		c0.1,3.3-1,6.6-4.1,8.2c-0.9,0.4-2.1,0.5-3,0.1c0.9-4.4,0.3-9.1-2.6-12.4c-1-1.1-2.5-2.4-4.1-1.8c-0.6,0.3-0.9,0.9-0.9,1.6
		c-0.3,0.3-0.7,0.4-1.1,0.6c-1.5,0.5-3.3,0.1-4.5-0.9l-0.1-1.1c-0.3-0.2-0.7-0.6-0.8-1c0.2-0.2,0.5,0.2,0.7,0.2
		c-0.1-0.5-0.2-1-0.4-1.5l-0.6-0.2c-0.3-0.2-0.6-0.5-0.6-0.9c0.2,0.2,0.7,0.2,0.8,0.3c-0.2-0.8-0.3-1.7-0.6-2.5
		c-0.2-1.2-1.6-1.4-2.1-2.4c-0.1-0.1-0.3,0-0.4-0.2c-0.1-0.1-0.1-0.3-0.1-0.5c0.1,0,0.3,0.1,0.4,0.1c-0.4-1-0.7-2.3-1.8-2.9
		c-0.4,0.2-0.9,0.2-1.4,0.2l-0.1,0c0.2-0.3,0.5-0.4,0.8-0.5l-0.2-0.2C87.8,25.1,87,26,87,25.8v-0.4c0-0.1,0-0.2,0.1-0.3
		c-0.4-0.1-0.9-0.1-1.3,0l-0.4,0.5c-0.1,0.4-0.4,0.7-0.7,1c0-0.5,0.1-1,0.3-1.5l-0.9,0.4c-0.6-0.3-1.1-0.6-1.7-0.8
		c0.1,0.1,0.2,0.3,0.3,0.5c0,0.3,0.1,0.7,0,1c-0.3-0.4-0.7-0.8-0.9-1.2c-0.5,0-0.9,0.2-1.3,0.4c0.3,0,0.6,0.5,0.7,0.5h-0.4
		c-0.4,0-0.8-0.1-1.1-0.3c-0.8,0.4-1.6,1.3-1.9,2.1c0.1,0,0.3,0,0.4,0.1l-0.7,0.6c-0.1,0.4-0.1,0.7-0.1,1.1l-0.6,0.8
		c-0.5,1.5-0.6,3.2-0.5,4.7c-0.9,0.3-0.3,1.1-0.4,1.7c0.2-0.3,0.4-0.5,0.7-0.6c0.1,0.3-0.1,0.6,0,1c-0.2,0.1-0.3,0.3-0.5,0.4
		c-0.3,0.5,0,1.1,0.1,1.6c0.2-0.3,0.5-0.6,0.8-0.7c0.1,0.3-0.1,0.6-0.2,0.9c-0.1,0.2-0.4,0.3-0.4,0.6c0.3,1.7,0.8,3.3,1.4,4.9
		l-1.1,2.4c-0.3,0.8-0.4,1.7-0.8,2.5l-0.4-0.2c-0.8-0.3-1.7-0.2-2.3,0.5c-0.3-0.1-0.8-0.1-1.1,0.1c-0.4,0.2-0.8,0.6-0.9,1
		c0.2,0.6-0.6,0.8-0.6,1.4C70,53.6,70.3,54,70.8,55h12.4c-0.5-1-0.7-1.5-0.6-2.2l1-1.8c0.5-0.2,1.1-0.5,1.7-0.3
		c0.2-0.5,0.7-0.6,1.2-0.6c0.7,0,1.4,0.3,1.7,0.9c-0.7,0-1.3-0.5-2-0.2c-0.1,0.2-0.1,0.5-0.1,0.8c0.3,0.1,0.6,0.4,0.9,0.6l0.2-0.2
		c0.4-0.4,0.9-0.4,1.4-0.2c0.7,0.3,0.4,1.2,0.4,1.8c0.4,0.2,0.9,0.3,1.2,0.6c-0.4,0.4-1.1,0.4-1.6,0.1L87.9,55h9.5L97,54.3
		c-0.5-1.2,0.5-2.4,1.1-3.3l0.2,0.2c0.5,0,1.2,0.3,1.5-0.4c0.6-0.2,1.2,0,1.7,0.4c-0.1,0.4-0.6,0.1-0.8,0.1c0,0.2,0.2,0.3,0.1,0.5
		c-0.2,0.1-0.5,0-0.6-0.2c0,0.1-0.1,0.2-0.2,0.3c-0.3,0.3,0.1,0.5,0.3,0.7c0.3,0.3-0.1,0.5-0.2,0.8c-0.2,0-0.3-0.3-0.5-0.3l0,1.9
		c0.3,0.1,0.5,0,0.8,0c0-1.3,0.4-2.7,1.4-3.6c0.7-0.3,1,0.6,1.5,0.8c0.1,0.2-0.1,0.2-0.2,0.3c-0.3,0.1-0.5-0.2-0.8-0.4l-0.4,0.6
		c0.2,0.2,0.5,0.5,0.5,0.8c0,0.3-0.2,0.6-0.4,0.7c-0.2-0.3-0.3-0.6-0.5-1c-0.2,0-0.3,0.3-0.4,0.4c-0.1,0.5-0.2,0.4-0.3,1.4h4.8
		c0.6,0,1.3-0.1,1.8-0.5c0.8,0.2,1.7,0.1,2.5-0.1c2.4-0.3,4.5-2.5,5.6-4.6C117.8,44.7,116.3,38.6,112.7,34.7z M104.2,30.3l-0.5-0.2
		c0.3-0.2,0.7-0.4,1.1-0.5c0.3,0.2,0.6,0.3,0.8,0.6C105.1,30.5,104.6,30,104.2,30.3z M108,31.9c-0.2-0.2-0.4-0.4-0.7-0.5
		c-0.3-0.2-0.4-0.5-0.8-0.6c0.2-0.2,0.6-0.2,0.9-0.2C107.7,31,107.9,31.4,108,31.9L108,31.9z M92.9,39.3c-0.1,0.1-0.3-0.1-0.4-0.1
		c-0.3,0-0.7,0.1-0.9-0.3l-0.1-0.3c0.2-0.1,0.5-0.2,0.7-0.1C92.5,38.8,92.7,39.1,92.9,39.3z M89.7,41.4c-0.3,0.1-0.6,0-0.9-0.3
		c-0.4-0.4-0.5-1-0.6-1.5c0.5,0.3,1.1,0.5,1,1.2L89.7,41.4z M89.2,43.6c0.3,0,0.3,0.3,0.5,0.5c0.3,0.2,0.6,0.3,0.9,0.5
		c-0.9,0.5-1.8-0.2-2.5-0.8C88.4,43.7,88.8,43.7,89.2,43.6z M89.4,47.1c0.6,0.2,1-0.9,1.6-0.2c0.4,0.1,0.9,0.1,1.1,0.6l0.2,0.5
		c-0.7,0.3-0.9-1-1.5-0.4c-0.5-0.2-1.1-0.3-1.5,0c-0.1,0.1-0.3,0.2-0.4,0.1C88.9,47.6,89.2,47.4,89.4,47.1z M89.9,42.7
		c0.3-0.2,0.6-0.2,0.9-0.3l0.5,0.7l0.6,0.5C91,43.9,90.4,43.2,89.9,42.7z M91.5,35.8c0.2,0.1,0.2,0.6,0.5,0.4c0.2,0.3,0.3,0.6,0.5,1
		c-0.1,0.1-0.3,0.1-0.4,0c-0.2-0.2-0.4-0.3-0.6-0.6V35.8z M90.9,39.8c0.2,0.2,0.5,0.4,0.6,0.6c-0.4,0-1,0.1-1.2-0.2
		C90.5,40,90.7,39.8,90.9,39.8z M90.6,34.2c-0.2,0-0.3,0.1-0.5,0.2c0-0.5,0.1-1.1,0.2-1.6C90.6,33.1,90.8,33.7,90.6,34.2z
		 M80.1,34.1C80,33.7,79.8,33,79.7,33h0.2c-0.1-1-0.2-1.6,0-2.3c-0.8-0.3-1.2-1.1-1.5-1.8c0.1-0.5,0.4-0.9,0.7-1.4
		c0.6,0,0.9-0.7,1.5-0.5c0.3,0.1,0.6,0.2,0.9,0.3c0,0.3,0.3,0.4,0.5,0.5c0.3,0.3,0.3,0.9,0.8,0.9c0.5,0,1,0.1,1.4,0.4
		c0.6-0.3,1.3-0.5,2-0.4c0.1-0.7,0.6-1.2,1.3-1.5c0.6-0.2,1,0.2,1.5,0.3c0.5,0.4,0.7,1,0.9,1.5c0,0.8-0.3,1.5-1,1.9l-0.3,0.1
		c0.2,0.6,0.1,1.3-0.2,1.9c0.2,0,0.3,0,0.5-0.2c0.1,0.2-0.1,0.5-0.1,0.8c-0.2,0.5-0.8,0.9-0.9,1.4c-0.2,0.3-0.5,0.5-0.8,0.6
		c-0.1,0.1,0,0.2,0.1,0.2c1.2,0,2.2,0.4,3.1,0.9l0,0.5c-0.9-0.6-2-0.8-3.1-0.9c-0.1,0.2-0.1,0.4-0.1,0.6c0.9,0.4,1.8,0.9,2.6,1.6
		c0,0.2,0,0.4,0,0.6c-0.9-0.7-1.7-1.5-2.8-1.8c-0.3,0.2-0.5,0.9-0.9,0.4c-0.5-0.4-1-0.6-1.7-0.7c-0.2-0.2-0.2-0.5-0.2-0.8
		c0.3-0.1,0.6-0.5,0.7-0.8c0.2,0,0.6,0.2,0.7-0.2c0.1-0.3-0.1-0.5-0.3-0.6c-0.8-0.2-1.8-0.3-2.6,0.2c0,0.2-0.1,0.5,0.2,0.6
		c0.2,0,0.3,0,0.4-0.1c0,0.3,0.2,0.8,0.6,0.9c-0.1,0.3,0,0.8-0.4,0.9c-0.7,0.1-1.3,0.4-2,0.7c-0.3-0.1-0.4-0.4-0.7-0.6
		c-0.9,0.4-1.8,1-2.6,1.6c-0.1-0.3,0-0.4,0.1-0.7c0.7-0.7,1.5-1,2.5-1.4v-0.6c-1-0.1-1,0-1.5,0.1L79.4,36c-0.5,0.3-1.1,0.4-1.5,0.8
		c-0.1-0.3,0-0.7,0.3-0.8c0.8-0.4,1.7-0.6,2.7-0.6C81,34.8,80.3,34.5,80.1,34.1z M86.7,42.7L86.7,42.7c-0.4-0.2-1-0.3-1-0.8
		c0.2-0.2,0.4-0.5,0.6-0.6C86.5,41.8,86.4,42.3,86.7,42.7z M81.6,40.4l-0.1,1c-0.3-0.4-0.6-0.9-0.6-1.5
		C81.1,40.1,81.3,40.2,81.6,40.4z M79.8,42.7c-0.1,0.5-0.5,1-0.9,1.4c-0.1-0.4,0.1-0.9,0.2-1.3C79.2,42.6,79.5,42.5,79.8,42.7z
		 M79.1,39.6c0.3,0.1,0.7,0.3,0.7,0.7c0.3,0.4,0.7,0.8,0.8,1.4c-0.6-0.1-1.1-0.7-1.4-1.2C79.1,40.2,79.1,39.9,79.1,39.6z M80.5,43.6
		c0.1,0,0.2,0,0.3,0c0,0.4-0.2,0.8-0.3,1.2c-0.3,0.4-0.9,0.3-1.3,0.2C79.7,44.8,80.1,44.2,80.5,43.6z M78.6,41.5
		c-0.2,0.4-0.7,0.5-0.9,1h-0.1c0-0.4-0.3-0.9,0.2-1.2C78.2,41.3,78.4,41.4,78.6,41.5z M78,30.2l0.1-0.1V31l-0.5,0.3
		C77.5,30.9,77.7,30.5,78,30.2z M77.4,32.9l0.2-0.5c0.2-0.1,0.4-0.1,0.6-0.2c-0.5,0.3-0.1,1-0.4,1.4l-0.2,1
		C77.6,34.1,77,33.5,77.4,32.9z M72.3,52.8c-0.2,0-0.3-0.2-0.6-0.2c-0.3,0.6,0.1,1.2-0.2,1.8c-0.2-0.1-0.4-0.2-0.5-0.4
		c0-0.6-0.1-1.2,0-1.7l0.7-0.8C72.3,51.8,72.4,52.4,72.3,52.8z M74.2,52.8c-0.1-0.3-0.3-0.6-0.7-0.7c-0.4,0.5-0.3,1.3-0.3,1.9
		c-0.2,0.2-0.4,0.3-0.6,0.4c-0.4-1.3,0-2.6,0.7-3.6c0.3,0,0.5-0.1,0.8-0.1c-0.2,0.2-0.2,0.4-0.2,0.7c0.1,0.2,0.4,0.1,0.5,0.3
		C74.5,52,74.5,52.6,74.2,52.8z M76.3,54c-0.1-0.5,0.1-1,0.2-1.5c-0.3,0-0.8-0.6-0.9,0c-0.2,0.7-0.9,1.1-1,1.8l-0.1-0.1
		c0-1,0.1-1.9,0.5-2.8c0.4-0.5,1.1-0.8,1.7-0.5c-0.1,0.1-0.2,0.3-0.3,0.4c0.3,0.2,0.7,0.4,0.8,0.8C77.3,53,76.7,53.5,76.3,54z
		 M79.3,52.4c-0.4-0.6-0.3-1.7-1.3-2c-0.5-0.2-1-0.6-1.6-0.5c-0.1-0.3,0.2-0.5,0.4-0.7c0.4-0.1,0.5,0.3,0.9,0.2
		c0.1,0.5,0.9,0.2,0.8,0.8c0,0.1-0.1,0.2-0.1,0.4c0.3,0.2,0.6,0,0.9,0.2C79.7,51.3,79.5,51.9,79.3,52.4z M80.3,51
		c-0.2-0.2-0.1-0.7-0.4-0.9c0-0.2,0.3-0.3,0.1-0.6c-0.2-0.1-0.4-0.1-0.6-0.1c-0.5-0.3-1-0.7-1.5-1.1c-0.3-0.1-0.6,0.1-0.9,0.2
		l-0.2-0.2c0.3-0.2,0.3-0.6,0.7-0.7c1.1,0,1.5,1.1,2.5,1.4c0,0.5,0.7,0.3,0.7,0.9C81,50.4,80.4,50.7,80.3,51z M81,49
		c0-0.4-0.4-1-1-1.1c-0.3-0.2-0.5-0.5-0.7-0.7c-0.6-0.2-1.2-0.2-1.8-0.1c-0.1-0.2,0.2-0.4,0.4-0.6l0.2-0.2c0.5,0.2,1.3,0,1.6,0.6
		c0.3,0.2,0.6,0.3,0.8,0.5c-0.1,0.1-0.1,0.3,0,0.3c0.2,0.1,0.4,0.3,0.4,0.6V49z M82.2,45c-0.4,0.2-0.8,0.3-1.3,0.2
		c0.5-0.4,1-1.2,1.4-1.2h0.6C82.9,44,82.6,44.8,82.2,45z M82.3,41.3l0.7,0.2l0.2,1.1C82.7,42.4,82.3,41.9,82.3,41.3z M82.5,46.2
		c0.3-0.5,0.9-0.9,1-1.5c0.3-0.2,0.7-0.1,0.9-0.2c-0.2,0.7-0.7,1.4-1.5,1.5L82.5,46.2z M83.7,47.8l-0.5-0.6c0.3,0,0.9,0.1,1.2-0.1
		c0.1,0.2,0.2,0.4,0.2,0.6C84.4,47.9,84,47.9,83.7,47.8z M84.3,43c-0.1-0.3-0.1-0.6-0.2-0.9c0.3-0.1,0.5-0.4,0.8-0.6
		C84.9,42,84.9,42.7,84.3,43z M85.3,38.8c-0.1,0.3-0.2,0.7-0.2,1c-0.2,0.1-0.5,0.2-0.8,0.2c-0.1-0.4-0.2-0.7-0.2-1l-0.1,0
		c-0.1,0.1-0.1,0.3-0.2,0.4l-0.3,0.6c-0.2-0.1-0.6,0-0.7-0.3c-0.1-0.3,0.1-0.5,0-0.8l-0.4,0.4c-0.3-0.3-0.4-0.9-0.3-1.4
		c1.3-0.6,3.2-0.6,4.4,0.1c-0.1,0.5-0.2,1.1-0.7,1.5C85.6,39.2,85.4,39,85.3,38.8z M86.4,47.4c-0.3-0.1-0.5-0.4-0.5-0.8
		c0.2-0.1,0.4,0,0.6-0.1l0.4,0.9C86.7,47.6,86.5,47.5,86.4,47.4z M86.8,45.3c-0.6-0.2-0.6-0.9-1.2-1.1c0-0.1-0.2-0.2-0.1-0.4
		l1.2,0.3c0.3,0.3,0.7,0.7,1,1C87.4,45.2,87.1,45.4,86.8,45.3z M87.7,42.4c-0.5-0.4-0.4-1.1-0.2-1.6l0.2-0.5c0.4,0.6-0.1,1.7,0.9,2
		l0,0.1C88.3,42.5,88,42.6,87.7,42.4z M88,49.5c0-0.3,0.2-0.6,0.3-0.8c0.5-0.2,1-0.4,1.6-0.4c0,0,0.3,0.1,0.3,0.1
		c1,0,1.8,0.1,2.8,0.9c0,0.1,0,0.3,0,0.4c-1-0.2-1-0.2-1.4-0.6c-0.7-0.2-1.3,0-1.9,0.1c0-0.1-0.2-0.3-0.3-0.2
		C88.9,49.1,88.4,49.2,88,49.5z M90.3,52.8c-0.2-0.4-0.1-1.3-0.9-1.2c-0.1-0.1-0.3-0.2-0.4-0.4c0.3-0.1,0.7-0.2,0.9,0.2
		c0,0.1,0,0.2,0.2,0.2c0.4-0.1,0.5,0.2,0.5,0.5C90.7,52.4,90.5,52.7,90.3,52.8z M93.1,52.3c-0.2-0.4-0.3-1-0.9-1.2
		C92,51,92,50.6,91.7,50.5c-0.3,0-0.5-0.1-0.8-0.1c0.1,0.3,0.5,0.5,0.4,0.8c0.2,0.2,0.7,0.3,0.7,0.6v0.7l-0.5,0.3
		c-0.1-0.5,0.1-1.2-0.5-1.5c-0.6,0-0.6-0.7-1.1-1c-0.4,0.2-1,0.1-1.4,0.3c0.1-0.2,0.1-0.6,0.4-0.7c0.4-0.3,1.1-0.1,1.5-0.4
		c0.7,0,1.3,0.4,2,0.6c0.6,0.2,0.2,1,0.8,1l0.1,0.1C93.2,51.7,93.2,52,93.1,52.3z M92,42.1c-0.1-0.1-0.2-0.1-0.3-0.3
		c0.3,0,0.6-0.5,0.9-0.1c0.4,0.1,0.8,0.5,1.2,0.6C93.2,42.7,92.6,42.3,92,42.1z M94.2,51.2c-0.1-0.3-0.7-0.6-0.3-1
		c0-0.7-0.4-1.3-0.5-2c1.1,0.4,0.8,1.6,0.9,2.5C94.2,50.9,94.2,51.1,94.2,51.2z M93.5,41l0.6-0.3l0.7,0.5
		C94.4,41.3,93.8,41.3,93.5,41z M95.3,42.6c0.3,0.2,0.5,0.5,0.5,0.8c-0.1,0.2-0.1,0.5-0.3,0.4C95.1,43.5,95.2,43,95.3,42.6z
		 M96.1,48.4c-0.1-0.4-0.2-0.8-0.5-1.1c0.1-0.2,0.2-0.3,0-0.4c-0.2-0.2-0.4-0.1-0.4-0.4c-0.1-0.4,0.3-0.6,0.4-0.9
		c0.2,0,0.2,0.3,0.3,0.5c0.2,0.4-0.3,0.9,0.4,1.1C96.3,47.6,96.1,48,96.1,48.4z M96.6,45.4L96.6,45.4c-0.5-0.4-0.5-1.1-0.3-1.6
		c0.6,0.1,0.2,0.8,0.6,1.1C97,45.1,96.8,45.3,96.6,45.4z M97.7,49.1l-0.1,0.2c0-0.4,0.2-0.9-0.1-1.2c-0.1,0-0.2,0-0.3-0.1
		c0-0.5,0.2-1-0.2-1.4c0-0.5,0.5-0.5,0.7-0.8c0.2,0.2,0,0.7,0.1,1c0.1,0.3,0.2,0.8,0.1,1.2c0.1,0.1,0.2,0.1,0.4,0.1
		C98.2,48.4,97.9,48.7,97.7,49.1z M98.9,47.4c-0.1,0-0.2-0.1-0.2-0.2c-0.1-1.4-0.8-2.5-1.3-3.7l-0.6-0.6c0.4,0,0.9,0.1,1,0.5
		c0,0.5,0.7,0.3,0.8,0.8c0.1,0.3,0.3,0.5,0.3,0.8c-0.1,0.2-0.4,0.1-0.4,0.4c0.2,0.1,0.5,0.3,0.6,0.5C99,46.3,98.9,46.8,98.9,47.4z
		 M98,43.2L98,43.2c0-0.1,0.1,0,0.1-0.1v0.1H98z M97.7,41.6c0.5,0,0.8,0.6,1.3,0.6c0.5,0.3,0.4,0.7,0.4,1.2
		C98.7,43,98.2,42.2,97.7,41.6z M100,46.5c-0.2-0.5-0.5-1-0.8-1.5c0.2-0.3,0.7-0.1,0.8,0.2C100.2,45.7,100,46.2,100,46.5z
		 M105.5,44.5c-0.4,0.2-0.8-0.2-1.2-0.3c-0.2-0.1,0.1-0.5-0.2-0.5c-0.4,0-0.8,0.3-1.2,0.3c0,0-0.1,0-0.1,0.1c0,0.1,0.1,0.1,0.1,0.3
		c-0.3,0.2-0.7,0.3-1.1,0.2c-0.1-0.2-0.2-0.5-0.2-0.7c0.3-0.2,0.7-0.1,0.9-0.4c0.6-0.2,1.1,0.2,1.7,0.2l0.3-0.2l0.7,0.4L105.5,44.5z
		 M103.8,45.5c-0.5-0.1-0.9,0-1.3,0.1c-0.3-0.1-0.3-0.4-0.4-0.6c0.5-0.1,1.1-0.4,1.7-0.2c0.3,0,0.4,0.1,0.5,0.4
		c0.4,0.2,0.6,0.6,0.6,1.1l-0.8-0.4C104.1,45.7,104,45.5,103.8,45.5z M104.7,41.7c0.4,0.2,0.7,0.6,0.8,1c-0.7-0.4-1.5-0.5-2.3-0.6
		c-0.4,0-0.7,0.4-1.2,0.4c-0.2,0.1-0.3,0.3-0.5,0.3c-0.2-0.2-0.2-0.6-0.2-0.9c0.3,0,0.5-0.2,0.8-0.4c0.6,0.3,1.4-0.8,1.6,0.2
		l0.1,0.1C104.1,41.9,104.3,41.5,104.7,41.7z M101.4,40.7c0.3-0.3,0.9-0.8,1.4-0.5c0.4,0.1,0.2,0.3,1.2,0.7v0
		c-1-0.1-1.7-0.2-2.2,0.3c-0.1,0-0.3,0-0.3,0.1C101.4,41.1,101.3,40.8,101.4,40.7z M101.2,39c0.2-0.3,0.4-0.5,0.7-0.5
		c0.2,0,0.3,0,0.4,0.1c0,0.2,0.4,0.2,0.5,0.3c0.5-0.2,0.1,0.3,1.1,0.6v0.1c-1-0.2-1.9-0.5-2.6,0C101.3,39.4,101.2,39.2,101.2,39z
		 M103.3,50.9L103.3,50.9l-1.3-0.4c0.1-0.3-0.1-0.4-0.3-0.5c-0.3,0-0.5,0.3-0.7,0.2c0.3-0.2,0.5-1,1-0.8c0.1,0.1,0.3,0.2,0.5,0.2
		c0.2,0.2-0.2,0.5,0.1,0.5c0.3,0,0.5,0.3,0.7,0.5C103.3,50.6,103.3,50.8,103.3,50.9z M104,49.8c-0.2-0.1-0.4-0.2-0.6-0.4
		c0-0.1,0-0.3-0.1-0.4c-0.4-0.4-1-0.1-1.4-0.2c-0.1-0.3,0.1-0.4,0.2-0.6c0.3-0.1,0.6-0.3,0.9-0.2c0.3,0.1,0.5,0.4,0.8,0.4
		C104.3,48.8,104.1,49.4,104,49.8z M104.4,48c-0.3-0.5-0.8-1-1.4-1c-0.3,0-0.5,0.3-0.8,0.4c0.3-0.4,0-1.2,0.7-1.1
		c0.4-0.1,0.4,0.4,0.8,0.4c0.3,0,0.6,0.1,0.8,0.3C104.5,47.3,104.4,47.7,104.4,48z M105.6,51.7L105.6,51.7c-0.2-0.4-0.6-0.7-0.8-1.1
		l0.3-0.6c0.2,0.1,0.4,0.4,0.6,0.6c0,0.2-0.1,0.3-0.1,0.5C105.9,51.2,105.8,51.5,105.6,51.7z M106.2,50.1c-0.2-0.2-0.5-0.5-0.5-0.8
		c0.1-0.2,0.3-1,0.6-0.4C106.4,49.3,106.4,49.8,106.2,50.1z"/>
	<path fill-rule="evenodd" clip-rule="evenodd" fill="#FFFFFF" d="M84.6,52.8c0.1,0.7,0.2,1.4,0.6,2h-1c-0.1-0.7-0.8-1.1-0.6-1.9
		c0.3-0.2,0.7-0.2,0.8-0.6c0-0.2-0.3-0.4-0.5-0.2c0,0-0.1,0-0.1,0c-0.1-0.7,0.7-0.6,1-0.8C84.7,51.8,84.6,52.4,84.6,52.8L84.6,52.8z
		"/>
	<path fill-rule="evenodd" clip-rule="evenodd" fill="#FFFFFF" d="M99,51.9c-0.5,0.9-0.2,2-0.1,3l-0.7,0c-0.3-0.5-0.5-1.2-0.6-1.9
		c0-0.2,0.1-0.3,0.2-0.4c0.2,0.2,0.2,0.5,0.4,0.6c0.2-0.3,0.3-0.7,0.2-1.1L98.3,52C98.6,52,98.8,51.9,99,51.9L99,51.9z"/>
	<path fill-rule="evenodd" clip-rule="evenodd" fill="#FFFFFF" d="M86.6,52.8l-0.1,2.2l-0.7,0c-0.2-0.7-0.4-1.5-0.3-2.2l0.3-0.5
		L86.6,52.8L86.6,52.8L86.6,52.8z"/>
	<path fill-rule="evenodd" clip-rule="evenodd" fill="#FFFFFF" d="M88.2,52.5c0.2,0.2,0.1,0.5,0.1,0.7l-0.5,1.7H87l0.3-2.1
		c0.1-0.1,0.2-0.4,0.4-0.4C87.9,52.3,88,52.4,88.2,52.5L88.2,52.5z"/>
	<path fill-rule="evenodd" clip-rule="evenodd" fill="#FFFFFF" d="M236.1,37.3c0-1,0.8-1.8,1.8-1.8c1,0,1.7,0.8,1.7,1.8
		c0,1-0.8,1.8-1.7,1.8C236.9,39.1,236.1,38.3,236.1,37.3L236.1,37.3z M235.7,37.3c0,1.2,1,2.1,2.1,2.1c1.2,0,2.1-0.9,2.1-2.1
		c0-1.2-1-2.1-2.1-2.1C236.7,35.2,235.7,36.1,235.7,37.3L235.7,37.3z M237,38.5h0.4v-1.1h0.4l0.7,1.1h0.4l-0.7-1.1
		c0.4,0,0.7-0.2,0.7-0.7c0-0.5-0.3-0.7-0.9-0.7h-1V38.5L237,38.5z M237.4,36.4h0.5c0.3,0,0.5,0.1,0.5,0.4c0,0.4-0.3,0.4-0.7,0.4
		h-0.4V36.4L237.4,36.4z"/>
</g>
</svg>
