<?xml version="1.0" encoding="utf-8"?>
<!-- Generator: Adobe Illustrator 18.0.0, SVG Export Plug-In . SVG Version: 6.00 Build 0)  -->
<!DOCTYPE svg PUBLIC "-//W3C//DTD SVG 1.1//EN" "http://www.w3.org/Graphics/SVG/1.1/DTD/svg11.dtd">
<svg version="1.1" id="Logo_Clients" xmlns="http://www.w3.org/2000/svg" xmlns:xlink="http://www.w3.org/1999/xlink" x="0px"
	 y="0px" width="250px" height="160px" viewBox="0 0 250 160" enable-background="new 0 0 250 160" xml:space="preserve">
<rect x="68.1" y="10" fill="none" width="114.7" height="60"/>
<path fill="#FFFFFF" d="M180.9,33.9C148.3,13,99.6,10,77.4,10c-3.2,0-6.1,0.1-8,0.1C68.1,10.2,67,10.8,67,12v56.1
	c0,1,1.2,1.9,2.3,1.9h100.1c0.9,0,1.6-0.1,2-1.3c0,0,10.2-31.8,10.3-32.3C182.2,35.2,182,34.6,180.9,33.9z M98.1,55.9
	c-2,4.2-7,6.1-14.6,5.9c-4.1-0.1-8.9-1.6-11.2-2.6l1.9-4.1c3.2,1.6,7.2,2.5,10.4,2.6c3.7,0.1,6.3-0.7,7-2.3c1-2.1-1.8-3.8-5.5-5.5
	c-4.5-2.2-9.8-4.8-7.9-9.4c1.6-3.9,7.6-5.8,14.3-5.6c2.1,0,3.3,0.2,5.1,0.5l-1.2,3.8c-1.4-0.3-2.6-0.5-4.3-0.6
	c-3.4-0.1-7,0.7-7.8,2.8c-0.6,1.8,1.9,2.7,5.6,4.5C94.6,48.3,100.5,51,98.1,55.9z M171.5,39H157l-2.1,7h12.2l-1.2,4h-12.2l-3.2,9.9
	c-1.2,0.7-6.1,2-11.6,2c-8.4,0-14.3-4-15.3-10c0-0.1-0.1-0.1-0.2-0.1c-0.1,0-0.2-0.2-0.2-0.1l-3,9.3H114c-2-7-5.7-14.4-9.5-19.8
	c0,0-3.7,11.6-3.7,11.7c0,0.1-0.1,0.2-0.2,0.2c-0.1,0-0.2,0-0.2-0.1c-0.6-1.6-1.2-2.9-3.4-4.5l4.3-13.4h5.7
	c4.7,6,8.5,12.9,10.4,18.3l5.8-18.3h5.3l-1.8,5.8c0,0.1,0,0.2,0.2,0.2c0.1,0,0.2,0,0.3-0.1c3.6-3.9,9.3-6.1,15.7-6.1
	c2.1,0,4.2,0.1,6,0.4l-1.4,4.2c-1.4-0.2-3-0.3-4.5-0.3c-7.3,0-12.7,3.5-13.6,9.1c-0.3,2.3,0.2,4.5,1.6,6.1c1.9,2.2,5.1,3.1,9.2,3.1
	c1.9,0,3.7-0.3,5.2-0.7l7-21.8h20.5L171.5,39z"/>
<g>
	<g>
		<defs>
			<path id="SVGID_16_" d="M69.8,90.1c-1.3,0.1-2.1,0.6-2.1,1.9v56.1c0,1,0.7,1.9,1.8,1.9h100.1c0.9,0,1.6-0.1,2-1.3
				c0,0,10.2-31.8,10.3-32.3c0.4-1.2,0.1-1.8-0.9-2.5C148.4,93,99.7,90,77.5,90C74.4,90,71.7,90.1,69.8,90.1"/>
		</defs>
		<clipPath id="SVGID_2_">
			<use xlink:href="#SVGID_16_"  overflow="visible"/>
		</clipPath>
		<linearGradient id="SVGID_4_" gradientUnits="userSpaceOnUse" x1="67.576" y1="120.096" x2="182.239" y2="120.096">
			<stop  offset="0" style="stop-color:#832C71"/>
			<stop  offset="1" style="stop-color:#E31F26"/>
		</linearGradient>
		<rect x="67.6" y="90.1" clip-path="url(#SVGID_2_)" fill="url(#SVGID_4_)" width="114.7" height="60"/>
	</g>
	<path fill="#FFFFFF" d="M90.5,126c-3.7-1.8-6.2-2.7-5.6-4.5c0.7-2.1,4.4-2.9,7.8-2.8c1.7,0,2.9,0.3,4.3,0.6l1.2-3.8
		c-1.8-0.3-3-0.5-5.1-0.5c-6.7-0.2-12.8,1.7-14.3,5.6c-1.8,4.7,3.4,7.3,7.9,9.4c3.6,1.7,6.5,3.3,5.5,5.5c-0.8,1.7-3.3,2.4-7,2.3
		c-3.2-0.1-7.2-1-10.4-2.6l-1.9,4.1c2.3,1.1,7.1,2.5,11.2,2.6c7.7,0.2,12.7-1.8,14.6-5.9C101,131,95.2,128.3,90.5,126"/>
	<path fill="#FFFFFF" d="M100.9,133c0,0.1,0.1,0.1,0.2,0.1c0.1,0,0.2,0,0.2-0.1c0-0.1,3.7-11.6,3.7-11.6c3.8,5.4,7.5,12.5,9.5,20
		h6.1l3-9.5c0-0.1,0.1-0.1,0.2-0.1c0.1,0,0.2,0,0.2,0.1c0.9,6,6.9,10,15.3,10c5.4,0,10.4-1.4,11.6-2.1l3.2-10h12.2l1.2-3.9h-12.2
		l2.1-6.6h14.6l1.3-4h-20.5l-7,21.7c-1.5,0.4-3.3,0.6-5.2,0.6c-4.1,0-7.4-1-9.2-3.1c-1.4-1.6-2-3.7-1.6-6.1
		c0.8-5.6,6.3-9.1,13.6-9.1c1.5,0,3.1,0.1,4.5,0.3l1.4-4.2c-1.8-0.3-3.9-0.4-6-0.4c-6.5,0-12.1,2.2-15.7,6.2
		c-0.1,0.1-0.2,0.1-0.3,0.1c-0.1,0-0.2,0-0.2-0.1l1.8-5.7h-5.3l-5.8,18.3c-1.9-5.4-5.7-12.5-10.4-18.3h-5.7l-4.3,13.3
		C99.7,130.2,100.3,131.3,100.9,133"/>
</g>
</svg>
