<?xml version="1.0" encoding="utf-8"?>
<!-- Generator: Adobe Illustrator 18.0.0, SVG Export Plug-In . SVG Version: 6.00 Build 0)  -->
<!DOCTYPE svg PUBLIC "-//W3C//DTD SVG 1.1//EN" "http://www.w3.org/Graphics/SVG/1.1/DTD/svg11.dtd">
<svg version="1.1" xmlns="http://www.w3.org/2000/svg" xmlns:xlink="http://www.w3.org/1999/xlink" x="0px" y="0px"
	 viewBox="0 0 250 160" enable-background="new 0 0 250 160" xml:space="preserve">
<g id="Layers" display="none">
	<rect display="inline" fill="#FF0000" width="250" height="80"/>
	<rect y="80" display="inline" opacity="0.5" fill="#FF0000" width="250" height="80"/>
</g>
<g id="Sprites">
</g>
<g id="Logo_Clients">
	<g id="BW_Finexkap_3_">
		<g id="Symbol_3_">
			<path fill="#FFFFFF" d="M7.7,14.2v6c0,0.7,0.4,1.6,0.8,2.1l13.7,13.9c0.5,0.5,1.4,0.9,2,0.9h6.3c0.3,0,0.6-0.1,0.8-0.4L8,13.4
				C7.8,13.6,7.7,13.9,7.7,14.2"/>
			<path fill="#FFFFFF" d="M17.7,13.9c-0.5-0.5-1.4-0.9-2-0.9H8.9c-0.3,0-0.6,0.1-0.8,0.4l23.3,23.3c0.2-0.2,0.4-0.5,0.4-0.8v-6.5
				c0-0.7-0.4-1.6-0.8-2.1L17.7,13.9z"/>
			<path fill="#FFFFFF" d="M38.8,35.9v-6c0-0.7,0.4-1.6,0.8-2.1l13.6-13.9c0.5-0.5,1.4-0.9,2-0.9h6.3c0.3,0,0.6,0.1,0.8,0.4
				L39.2,36.7C39,36.5,38.8,36.2,38.8,35.9"/>
			<path fill="#FFFFFF" d="M48.8,36.2c-0.5,0.5-1.4,0.9-2,0.9H40c-0.3,0-0.6-0.1-0.8-0.4l23.3-23.3c0.2,0.2,0.4,0.5,0.4,0.8v6.5
				c0,0.7-0.4,1.6-0.8,2.1L48.8,36.2z"/>
			<path fill="#FFFFFF" d="M7.7,67v-6c0-0.7,0.4-1.6,0.8-2.1L22.2,45c0.5-0.5,1.4-0.9,2-0.9h6.3c0.3,0,0.6,0.1,0.8,0.4L8,67.8
				C7.8,67.6,7.7,67.3,7.7,67"/>
			<path fill="#FFFFFF" d="M17.7,67.3c-0.5,0.5-1.4,0.9-2,0.9H8.9c-0.3,0-0.6-0.1-0.8-0.4l23.3-23.3c0.2,0.2,0.4,0.5,0.4,0.8v6.5
				c0,0.7-0.4,1.6-0.8,2.1L17.7,67.3z"/>
			<path fill="#FFFFFF" d="M38.8,45.4v6c0,0.7,0.4,1.6,0.8,2.1l13.6,13.9c0.5,0.5,1.4,0.9,2,0.9h6.3c0.3,0,0.6-0.1,0.8-0.4
				L39.2,44.5C39,44.8,38.8,45.1,38.8,45.4"/>
			<path fill="#FFFFFF" d="M48.8,45c-0.5-0.5-1.4-0.9-2-0.9H40c-0.3,0-0.6,0.1-0.8,0.4l23.3,23.3c0.2-0.2,0.4-0.5,0.4-0.8v-6.5
				c0-0.7-0.4-1.6-0.8-2.1L48.8,45z"/>
		</g>
		<path fill="#FFFFFF" d="M90.2,27.9h14.2V29H91.4v10.8h10.2v1.1H91.4v12.5h-1.3V27.9z M109.4,27.9h1.3v25.4h-1.3V27.9z M117.6,27.9
			h1.8l15.4,23.7V27.9h1.2v25.4h-1.6l-15.6-24.1v24.1h-1.2V27.9z M142.7,27.9h14.4V29H144v10.7h10.7v1.1H144v11.4h13.8v1.1h-15.1
			V27.9z M170.1,40.1l-8.2-12.2h1.4l7.6,11.3l7.5-11.3h1.4l-8.2,12.2l8.9,13.2h-1.4l-8.3-12.3l-8.4,12.3h-1.3L170.1,40.1z
			 M185.5,27.9h1.3v25.4h-1.3V27.9z M186.9,40.4l13-12.5h1.5l-12.9,12.4l13.5,13h-1.6L186.9,40.4z M213.5,27.9h1.7l9.5,25.4h-1.3
			l-3-8.1h-12.1l-3,8.1h-1.2L213.5,27.9z M208.7,44.2H220L214.3,29L208.7,44.2z M229.1,27.9h6.4c5,0,8.5,1.9,8.5,6.9V35
			c0,5.1-3.4,7.1-8.4,7.1h-5.2v11.2h-1.2V27.9z M235.6,41.1c4.4,0,7.1-1.7,7.1-6.1v-0.1c0-4.4-2.9-5.9-7.2-5.9h-5.2v12.1H235.6z"/>
	</g>
	<g id="BW_Finexkap_1_">
		<g id="Symbol_1_">
			<path fill="#FF931E" d="M7.7,94.2v6c0,0.7,0.4,1.6,0.8,2.1l13.7,13.9c0.5,0.5,1.4,0.9,2,0.9h6.3c0.3,0,0.6-0.1,0.8-0.4L8,93.4
				C7.8,93.6,7.7,93.9,7.7,94.2"/>
			<path fill="#E8E7D9" d="M17.7,93.9c-0.5-0.5-1.4-0.9-2-0.9H8.9c-0.3,0-0.6,0.1-0.8,0.4l23.3,23.3c0.2-0.2,0.4-0.5,0.4-0.8v-6.5
				c0-0.7-0.4-1.6-0.8-2.1L17.7,93.9z"/>
			<path fill="#FF931E" d="M38.8,115.9v-6c0-0.7,0.4-1.6,0.8-2.1l13.6-13.9c0.5-0.5,1.4-0.9,2-0.9h6.3c0.3,0,0.6,0.1,0.8,0.4
				l-23.3,23.3C39,116.5,38.8,116.2,38.8,115.9"/>
			<path fill="#E8E7D9" d="M48.8,116.2c-0.5,0.5-1.4,0.9-2,0.9H40c-0.3,0-0.6-0.1-0.8-0.4l23.3-23.3c0.2,0.2,0.4,0.5,0.4,0.8v6.5
				c0,0.7-0.4,1.6-0.8,2.1L48.8,116.2z"/>
			<path fill="#FF931E" d="M7.7,147v-6c0-0.7,0.4-1.6,0.8-2.1L22.2,125c0.5-0.5,1.4-0.9,2-0.9h6.3c0.3,0,0.6,0.1,0.8,0.4L8,147.8
				C7.8,147.6,7.7,147.3,7.7,147"/>
			<path fill="#E8E7D9" d="M17.7,147.3c-0.5,0.5-1.4,0.9-2,0.9H8.9c-0.3,0-0.6-0.1-0.8-0.4l23.3-23.3c0.2,0.2,0.4,0.5,0.4,0.8v6.5
				c0,0.7-0.4,1.6-0.8,2.1L17.7,147.3z"/>
			<path fill="#E8E7D9" d="M38.8,125.4v6c0,0.7,0.4,1.6,0.8,2.1l13.6,13.9c0.5,0.5,1.4,0.9,2,0.9h6.3c0.3,0,0.6-0.1,0.8-0.4
				l-23.3-23.3C39,124.8,38.8,125.1,38.8,125.4"/>
			<path fill="#FF931E" d="M48.8,125c-0.5-0.5-1.4-0.9-2-0.9H40c-0.3,0-0.6,0.1-0.8,0.4l23.3,23.3c0.2-0.2,0.4-0.5,0.4-0.8v-6.5
				c0-0.7-0.4-1.6-0.8-2.1L48.8,125z"/>
		</g>
		<path fill="#44423B" d="M90.2,107.9h14.2v1.1H91.4v10.8h10.2v1.1H91.4v12.5h-1.3V107.9z M109.4,107.9h1.3v25.4h-1.3V107.9z
			 M117.6,107.9h1.8l15.4,23.7v-23.7h1.2v25.4h-1.6l-15.6-24.1v24.1h-1.2V107.9z M142.7,107.9h14.4v1.1H144v10.7h10.7v1.1H144v11.4
			h13.8v1.1h-15.1V107.9z M170.1,120.1l-8.2-12.2h1.4l7.6,11.3l7.5-11.3h1.4l-8.2,12.2l8.9,13.2h-1.4l-8.3-12.3l-8.4,12.3h-1.3
			L170.1,120.1z M185.5,107.9h1.3v25.4h-1.3V107.9z M186.9,120.4l13-12.5h1.5l-12.9,12.4l13.5,13h-1.6L186.9,120.4z M213.5,107.9
			h1.7l9.5,25.4h-1.3l-3-8.1h-12.1l-3,8.1h-1.2L213.5,107.9z M208.7,124.2H220l-5.7-15.2L208.7,124.2z M229.1,107.9h6.4
			c5,0,8.5,1.9,8.5,6.9v0.1c0,5.1-3.4,7.1-8.4,7.1h-5.2v11.2h-1.2V107.9z M235.6,121.1c4.4,0,7.1-1.7,7.1-6.1v-0.1
			c0-4.4-2.9-5.9-7.2-5.9h-5.2v12.1H235.6z"/>
	</g>
</g>
</svg>
