<?xml version="1.0" encoding="utf-8"?>
<!-- Generator: Adobe Illustrator 18.0.0, SVG Export Plug-In . SVG Version: 6.00 Build 0)  -->
<!DOCTYPE svg PUBLIC "-//W3C//DTD SVG 1.1//EN" "http://www.w3.org/Graphics/SVG/1.1/DTD/svg11.dtd">
<svg version="1.1" xmlns="http://www.w3.org/2000/svg" xmlns:xlink="http://www.w3.org/1999/xlink" x="0px" y="0px"
	 viewBox="0 0 236.3 55.2" enable-background="new 0 0 236.3 55.2" xml:space="preserve">
<g id="bg">
</g>
<g id="diagonale">
</g>
<g id="logo_x5F_client">
</g>
<g id="titre">
</g>
<g id="descriptif">
</g>
<g id="logo">
</g>
<g id="next">
</g>
<g id="enveloppe">
</g>
<g id="Calque_1">
	<g>
		<g>
			<path fill="#FFFFFF" d="M0,1.2v6c0,0.7,0.4,1.6,0.8,2.1l13.7,13.9c0.5,0.5,1.4,0.9,2,0.9h6.3c0.3,0,0.6-0.1,0.8-0.4L0.4,0.4
				C0.1,0.6,0,0.9,0,1.2"/>
			<path fill="#FFFFFF" d="M10,0.9C9.5,0.4,8.6,0,7.9,0H1.2C0.9,0,0.6,0.1,0.4,0.4l23.3,23.3c0.2-0.2,0.4-0.5,0.4-0.8v-6.5
				c0-0.7-0.4-1.6-0.8-2.1L10,0.9z"/>
			<path fill="#FFFFFF" d="M31.1,22.8v-6c0-0.7,0.4-1.6,0.8-2.1L45.6,0.9C46.1,0.4,47,0,47.7,0H54c0.3,0,0.6,0.1,0.8,0.4L31.5,23.7
				C31.3,23.5,31.1,23.2,31.1,22.8"/>
			<path fill="#FFFFFF" d="M41.1,23.2c-0.5,0.5-1.4,0.9-2,0.9h-6.7c-0.3,0-0.6-0.1-0.8-0.4L54.8,0.4c0.2,0.2,0.4,0.5,0.4,0.8v6.5
				c0,0.7-0.4,1.6-0.8,2.1L41.1,23.2z"/>
			<path fill="#FFFFFF" d="M0,54v-6c0-0.7,0.4-1.6,0.8-2.1L14.5,32c0.5-0.5,1.4-0.9,2-0.9h6.3c0.3,0,0.6,0.1,0.8,0.4L0.4,54.8
				C0.1,54.6,0,54.3,0,54"/>
			<path fill="#FFFFFF" d="M10,54.3c-0.5,0.5-1.4,0.9-2,0.9H1.2c-0.3,0-0.6-0.1-0.8-0.4l23.3-23.3c0.2,0.2,0.4,0.5,0.4,0.8v6.5
				c0,0.7-0.4,1.6-0.8,2.1L10,54.3z"/>
			<path fill="#FFFFFF" d="M31.1,32.4v6c0,0.7,0.4,1.6,0.8,2.1l13.6,13.9c0.5,0.5,1.4,0.9,2,0.9H54c0.3,0,0.6-0.1,0.8-0.4L31.5,31.5
				C31.3,31.7,31.1,32,31.1,32.4"/>
			<path fill="#FFFFFF" d="M41.1,32c-0.5-0.5-1.4-0.9-2-0.9h-6.7c-0.3,0-0.6,0.1-0.8,0.4l23.3,23.3c0.2-0.2,0.4-0.5,0.4-0.8v-6.5
				c0-0.7-0.4-1.6-0.8-2.1L41.1,32z"/>
		</g>
		<g>
			<path fill="#FFFFFF" d="M82.5,14.9h14.2V16H83.8v10.8H94v1.1H83.8v12.5h-1.3V14.9z"/>
			<path fill="#FFFFFF" d="M101.7,14.9h1.3v25.4h-1.3V14.9z"/>
			<path fill="#FFFFFF" d="M109.9,14.9h1.8l15.4,23.7V14.9h1.2v25.4h-1.6l-15.6-24.1v24.1h-1.2V14.9z"/>
			<path fill="#FFFFFF" d="M135,14.9h14.4V16h-13.2v10.7H147v1.1h-10.7v11.4h13.8v1.1H135V14.9z"/>
			<path fill="#FFFFFF" d="M162.4,27.1l-8.2-12.2h1.4l7.6,11.3l7.5-11.3h1.4l-8.2,12.2l8.9,13.2h-1.4l-8.3-12.3l-8.4,12.3h-1.3
				L162.4,27.1z"/>
			<path fill="#FFFFFF" d="M177.8,14.9h1.3v25.4h-1.3V14.9z M179.2,27.4l13-12.5h1.5l-12.9,12.4l13.5,13h-1.6L179.2,27.4z"/>
			<path fill="#FFFFFF" d="M205.8,14.9h1.7l9.5,25.4h-1.3l-3-8.1h-12.1l-3,8.1h-1.2L205.8,14.9z M201,31.1h11.3l-5.7-15.2L201,31.1z
				"/>
			<path fill="#FFFFFF" d="M221.4,14.9h6.4c5,0,8.5,1.9,8.5,6.9V22c0,5.1-3.4,7.1-8.4,7.1h-5.2v11.2h-1.2V14.9z M227.9,28.1
				c4.4,0,7.1-1.7,7.1-6.1v-0.1c0-4.4-2.9-5.9-7.2-5.9h-5.2v12.1H227.9z"/>
		</g>
	</g>
</g>
<g id="ecran">
</g>
</svg>
