<svg version="1.1" xmlns="http://www.w3.org/2000/svg" xmlns:xlink="http://www.w3.org/1999/xlink" x="0px" y="0px"
	 viewBox="0 0 465 60" enable-background="new 0 0 465 60" xml:space="preserve">

<g id="Sprites">
	<g>
		<path d="M0,0.6h13.7C22.6,0.6,30,4.9,30,15.9c0,8.8-3.4,14.1-10.8,15.7c2.7,1,5,2.8,7.1,8.3l7.2,19h-3.5l-7-17.9
			c-2.6-6.8-5.3-8.6-11.9-8.6H3.4v26.5H0V0.6z M13.8,29.6c9.6,0,12.8-4.8,12.8-13.5c0-8.1-3.7-12.7-13.4-12.7H3.4v26.2H13.8z"/>
		<path d="M46.9,0.6h28v2.8H50.3v23.3h20.1v2.8H50.3v26.6h25.5v2.8H46.9V0.6z"/>
		<path d="M82.8,52l2.1-2.3c3.5,4,8.5,7,15.1,7c9.2,0,13.2-4.7,13.2-12.4c0-8.5-4.3-11.1-12.8-14.7c-7.8-3.4-13.9-6.4-13.9-15.9
			C86.6,5,92.8,0,101.2,0c6.1,0,9.8,1.5,13.2,3.8l-1.6,2.6c-3.1-2.2-6.8-3.6-11.6-3.6c-6.1,0-11.3,3.5-11.3,10.7
			c0,7.7,4.1,9.8,11.7,13.1c9.7,4.3,15.1,7.6,15.1,17.6c0,8.6-5,15.2-16.5,15.2C92.5,59.5,86.6,56.2,82.8,52z"/>
		<path d="M131,0.6h28v2.8h-24.6v23.3h20.1v2.8h-20.1v26.6h25.5v2.8H131V0.6z"/>
		<path d="M183.5,3.4h-14.7V0.6h32.9v2.8h-14.7v55.5h-3.4V3.4z"/>
		<path d="M268.6,27.8l3.1,0.2c-1,7.6-2.8,13.9-5.3,18.8l10.4,12.1h-4l-7.9-9.3c-4.3,6.8-10.2,10.4-17.4,10.4
			c-12.8,0-16.4-8.3-16.4-16c0-9,5.3-14.3,13.1-18.4l-0.8-0.9c-4.3-5-6.8-8.9-6.8-13.7c0-6.2,4.7-11,12.2-11
			c6.5,0,11.5,3.9,11.5,11.4c0,5.8-3.7,10.6-11.7,14.7l15.7,18.2C266.2,39.9,267.7,34.3,268.6,27.8z M234.6,44.2
			c0,6.6,2.9,13,12.9,13c6.6,0,11.7-3.5,15.3-9.9l-16.9-19.7C238.6,31.7,234.6,36.3,234.6,44.2z M256.9,11.6c0-5.8-2.8-8.8-8.1-8.8
			c-5.4,0-8.8,3.5-8.8,8.1c0,4.4,2,7.7,5.5,11.7l1.4,1.6C253.9,20.4,256.9,16.8,256.9,11.6z"/>
		<path d="M306.4,0.6H319c11.6,0,17.1,5.8,17.1,16.3c0,11.4-6.1,17-16.2,17h-10.1v25h-3.4V0.6z M319.6,31.1
			c8.7,0,12.9-4.3,12.9-14.1c0-9.4-3.9-13.5-13.8-13.5h-8.9v27.7H319.6z"/>
		<path d="M349.5,0.6h3.4v55.5H376v2.8h-26.5V0.6z"/>
		<path d="M386.6,58.9h-3.4l18.5-58.3h3.6l18,58.3h-3.5l-6.2-20.3h-20.6L386.6,58.9z M405.9,13.8c-1.3-4.1-2-8.1-2.4-10.2h-0.1
			c-0.3,2.1-1.4,6.2-2.6,10.2l-6.9,22h18.7L405.9,13.8z"/>
		<path d="M443.5,36.3L426.4,0.6h3.6l12.3,25.9c1.6,3.5,2.3,5,3,7.1c0.8-2.1,1.3-3.6,2.9-7.1l12.1-25.9h3.5l-16.8,35.8v22.5h-3.4
			V36.3z"/>
	</g>
</g>
</svg>
