<?xml version="1.0" encoding="utf-8"?>
<!-- Generator: Adobe Illustrator 18.0.0, SVG Export Plug-In . SVG Version: 6.00 Build 0)  -->
<!DOCTYPE svg PUBLIC "-//W3C//DTD SVG 1.1//EN" "http://www.w3.org/Graphics/SVG/1.1/DTD/svg11.dtd">
<svg version="1.1" id="Sprites" xmlns="http://www.w3.org/2000/svg" xmlns:xlink="http://www.w3.org/1999/xlink" x="0px" y="0px"
	 width="465px" height="100px" viewBox="0 0 465 100" enable-background="new 0 0 465 100" xml:space="preserve">
<path d="M0.4,0.6h13.7c9,0,16.4,4.4,16.4,15.4c0,8.8-3.4,14.2-10.8,15.7c2.7,1,5,2.8,7.2,8.4l7.3,19h-3.5l-7-17.9
	c-2.6-6.8-5.3-8.6-11.9-8.6H3.8v26.5H0.4V0.6z M14.2,29.7c9.6,0,12.8-4.9,12.8-13.6C27,8,23.3,3.4,13.6,3.4H3.8v26.3H14.2z
	 M47.4,0.6h28.1v2.8H50.8v23.4H71v2.8H50.8v26.6h25.6v2.8h-29V0.6z M83.4,52.1l2.1-2.3c3.5,4,8.5,7,15.1,7c9.2,0,13.2-4.7,13.2-12.5
	c0-8.5-4.4-11.1-12.8-14.8c-7.9-3.4-13.9-6.4-13.9-16C87.2,5,93.4,0,101.8,0c6.1,0,9.8,1.5,13.2,3.8l-1.6,2.6
	c-3.1-2.2-6.8-3.6-11.6-3.6c-6.1,0-11.3,3.5-11.3,10.8c0,7.7,4.1,9.8,11.7,13.1c9.7,4.3,15.1,7.6,15.1,17.7c0,8.6-5,15.3-16.6,15.3
	C93.1,59.6,87.2,56.3,83.4,52.1z M131.7,0.6h28.1v2.8h-24.7v23.4h20.1v2.8h-20.1v26.6h25.6v2.8h-29V0.6z M184.4,3.4h-14.8V0.6h32.9
	v2.8h-14.8v55.6h-3.4V3.4z M269.7,27.9l3.1,0.2c-1,7.6-2.8,13.9-5.3,18.9l10.4,12.1h-4l-7.9-9.3c-4.4,6.8-10.2,10.4-17.4,10.4
	c-12.8,0-16.5-8.4-16.5-16c0-9,5.3-14.3,13.1-18.4l-0.8-0.9c-4.4-5-6.8-9-6.8-13.7c0-6.2,4.7-11,12.2-11c6.5,0,11.5,3.9,11.5,11.4
	c0,5.8-3.7,10.7-11.7,14.8l15.7,18.3C267.3,40,268.8,34.4,269.7,27.9z M235.6,44.3c0,6.6,2.9,13.1,13,13.1c6.7,0,11.8-3.5,15.4-9.9
	l-17-19.8C239.7,31.7,235.6,36.4,235.6,44.3z M257.9,11.6c0-5.8-2.8-8.8-8.1-8.8c-5.5,0-8.8,3.5-8.8,8.1c0,4.4,2,7.7,5.5,11.7
	l1.4,1.6C254.9,20.5,257.9,16.8,257.9,11.6z M307.6,0.6h12.6c11.6,0,17.2,5.8,17.2,16.3c0,11.4-6.1,17.1-16.2,17.1H311v25.1h-3.4
	V0.6z M320.8,31.1c8.7,0,12.9-4.4,12.9-14.2c0-9.4-3.9-13.6-13.8-13.6H311v27.7H320.8z M350.9,0.6h3.4v55.6h23.1v2.8h-26.5V0.6z
	 M388,59.1h-3.4l18.5-58.5h3.6l18.1,58.5h-3.5L415,38.7h-20.7L388,59.1z M407.4,13.8c-1.3-4.1-2-8.1-2.4-10.2h-0.1
	c-0.3,2.1-1.4,6.2-2.6,10.2l-6.9,22h18.8L407.4,13.8z M445.1,36.4L427.9,0.6h3.6l12.4,25.9c1.6,3.5,2.3,5,3,7.2
	c0.8-2.1,1.3-3.6,2.9-7.2l12.1-25.9h3.5l-16.9,35.9v22.5h-3.4V36.4z M10,89.6c-0.8,2.3-2.2,3.7-4.5,3.7c-3.6,0-5.1-3.6-5.1-8.4
	c0-4.8,1.5-8.4,5.1-8.4c2.3,0,3.8,1.5,4.5,3.9l-0.9,0.3c-0.6-2.1-1.8-3.3-3.7-3.3c-2.9,0-4.2,3.1-4.2,7.5c0,4.4,1.3,7.5,4.2,7.5
	c1.8,0,3-1.2,3.6-3.1L10,89.6z M12,87.1c0-3.9,1.5-6.2,4.1-6.2s4.1,2.3,4.1,6.2c0,3.9-1.5,6.2-4.1,6.2S12,91,12,87.1z M19.3,87.1
	c0-3.4-1.1-5.3-3.2-5.3s-3.2,2-3.2,5.3c0,3.4,1.1,5.3,3.2,5.3S19.3,90.5,19.3,87.1z M30.1,93.1v-7.3c0-2.6-0.8-4-2.7-4
	c-1.9,0-3.2,1.7-3.2,4.2v7.1h-0.9v-10c0-1.3-0.4-2-0.4-2h1c0,0,0.3,1,0.3,2.2h0c0.6-1.5,1.7-2.4,3.2-2.4c2.9,0,3.6,2.2,3.6,4.9v7.3
	H30.1z M41.6,90.1c-0.5,2-1.7,3.2-3.7,3.2c-2.6,0-4.1-2.3-4.1-6.2c0-3.9,1.5-6.2,4.1-6.2c2,0,3.2,1.3,3.7,3.2l-0.9,0.3
	c-0.4-1.6-1.3-2.6-2.8-2.6c-2.1,0-3.2,2-3.2,5.3c0,3.4,1.1,5.3,3.2,5.3c1.5,0,2.4-1,2.8-2.6L41.6,90.1z M51.8,90.2
	c-0.7,2.1-1.9,3.2-4,3.2c-2.6,0-4.2-2.3-4.2-6.2c0-3.9,1.6-6.2,4.2-6.2c2.9,0,4.1,2.3,4.1,6.2v0.3h-7.4c0.1,3.2,1.2,5,3.2,5
	c1.6,0,2.6-0.8,3.1-2.6L51.8,90.2z M51,86.6c-0.1-3.1-1-4.8-3.2-4.8c-2,0-3.1,1.8-3.2,4.8H51z M54.8,97.8V83.2c0-1.3-0.4-2-0.4-2h1
	c0,0,0.3,0.9,0.3,1.8h0c0.5-1.1,1.3-2.1,2.9-2.1c2.5,0,3.9,2.3,3.9,6.3c0,3.8-1.3,6.2-3.9,6.2c-1.5,0-2.4-0.8-3-2.1h0
	c0,0,0,0.9,0,1.9v4.6H54.8z M55.7,88.4c0,2.3,0.9,4.1,2.9,4.1c2.1,0,3-2,3-5.3c0-3.3-0.9-5.3-3-5.3c-1.9,0-2.9,1.6-2.9,4.1V88.4z
	 M70.8,92.6c-0.5,0.4-1.2,0.7-2.1,0.7c-1.7,0-2.6-1.2-2.6-3.1V82h-1.7v-0.9h1.7v-2.6H67v2.6h2.9V82H67v8.2c0,1.4,0.6,2.2,1.7,2.2
	c0.5,0,1.2-0.2,1.6-0.6L70.8,92.6z M80.5,90.2c-0.7,2.1-1.9,3.2-4,3.2c-2.6,0-4.2-2.3-4.2-6.2c0-3.9,1.6-6.2,4.2-6.2
	c2.9,0,4.1,2.3,4.1,6.2v0.3h-7.4c0.1,3.2,1.2,5,3.2,5c1.6,0,2.6-0.8,3.1-2.6L80.5,90.2z M79.7,86.6c-0.1-3.1-1-4.8-3.2-4.8
	c-2,0-3.1,1.8-3.2,4.8H79.7z M90.5,93.1c0,0-0.3-1.1-0.3-2.2h0c-0.6,1.5-1.8,2.4-3.2,2.4c-2.9,0-3.6-2.2-3.6-4.9v-7.3h0.9v7.3
	c0,2.6,0.8,4,2.7,4c1.8,0,3.2-1.6,3.2-4v-7.3H91v10c0,1.3,0.4,2,0.4,2H90.5z M94.6,93.1v-10c0-1.3-0.4-2-0.4-2h1
	c0,0,0.3,1.1,0.3,2.2h0c0.6-1.5,1.7-2.5,3.2-2.5c0.4,0,0.7,0,1,0.1l-0.2,0.9c-0.3-0.1-0.5-0.1-0.8-0.1c-1.8,0-3.2,1.6-3.2,4.1v7.3
	H94.6z M114.5,93.1c0,0-0.3-0.8-0.3-1.8h0c-0.5,1.1-1.3,2.1-2.9,2.1c-2.5,0-3.9-2.3-3.9-6.2c0-3.9,1.3-6.2,4-6.2
	c1.4,0,2.3,0.9,2.9,2h0c0,0,0-1,0-1.9v-4.9h0.9v14.9c0,1.3,0.4,2,0.4,2H114.5z M114.1,85.9c0-2.3-0.9-4.1-2.9-4.1c-2.1,0-3,2-3,5.3
	c0,3.4,0.9,5.3,3,5.3c1.9,0,2.9-1.7,2.9-4.3V85.9z M118,79.1c0.5-0.5,0.7-0.9,0.9-1.4l0,0c-0.1,0.1-0.2,0.1-0.3,0.1
	c-0.3,0-0.5-0.2-0.5-0.6c0-0.3,0.2-0.6,0.6-0.6c0.4,0,0.6,0.3,0.6,0.9c0,0.7-0.4,1.5-0.8,1.9L118,79.1z M129.9,90.2
	c-0.7,2.1-1.9,3.2-4,3.2c-2.6,0-4.2-2.3-4.2-6.2c0-3.9,1.6-6.2,4.2-6.2c2.9,0,4.1,2.3,4.1,6.2v0.3h-7.4c0.1,3.2,1.2,5,3.2,5
	c1.6,0,2.6-0.8,3.1-2.6L129.9,90.2z M129.1,86.6c-0.1-3.1-1-4.8-3.2-4.8c-2,0-3.1,1.8-3.2,4.8H129.1z M138.9,93.1l-2.1-3.8
	c-0.5-0.9-0.9-1.7-0.9-1.7h0c0,0-0.4,0.9-0.9,1.7l-2.1,3.8h-1l3.4-6l-3.4-6h1l2.1,3.8c0.4,0.7,0.9,1.7,0.9,1.7h0c0,0,0.5-1,0.9-1.7
	l2.1-3.8h1l-3.4,6l3.4,6H138.9z M142.6,97.8V83.2c0-1.3-0.4-2-0.4-2h1c0,0,0.3,0.9,0.3,1.8h0c0.5-1.1,1.3-2.1,2.9-2.1
	c2.5,0,3.9,2.3,3.9,6.3c0,3.8-1.3,6.2-3.9,6.2c-1.5,0-2.4-0.8-3-2.1h0c0,0,0,0.9,0,1.9v4.6H142.6z M143.5,88.4
	c0,2.3,0.9,4.1,2.9,4.1c2.1,0,3-2,3-5.3c0-3.3-0.9-5.3-3-5.3c-1.9,0-2.9,1.6-2.9,4.1V88.4z M161,90.2c-0.7,2.1-1.9,3.2-4,3.2
	c-2.6,0-4.2-2.3-4.2-6.2c0-3.9,1.6-6.2,4.2-6.2c2.9,0,4.1,2.3,4.1,6.2v0.3h-7.4c0.1,3.2,1.2,5,3.2,5c1.6,0,2.6-0.8,3.1-2.6L161,90.2
	z M160.1,86.6c-0.1-3.1-1-4.8-3.2-4.8c-2,0-3.1,1.8-3.2,4.8H160.1z M154.7,79.8l-0.3-0.7l4.8-2.3l0.4,0.9L154.7,79.8z M163.9,93.1
	v-10c0-1.3-0.4-2-0.4-2h1c0,0,0.3,1.1,0.3,2.2h0c0.6-1.5,1.7-2.5,3.2-2.5c0.4,0,0.7,0,1,0.1l-0.2,0.9c-0.3-0.1-0.5-0.1-0.8-0.1
	c-1.8,0-3.2,1.6-3.2,4.1v7.3H163.9z M171.5,79.1c-0.3,0-0.6-0.3-0.6-0.6c0-0.3,0.3-0.6,0.6-0.6c0.3,0,0.6,0.3,0.6,0.6
	C172.2,78.8,171.9,79.1,171.5,79.1z M171.1,93.1v-12h0.9v12H171.1z M183.1,90.2c-0.7,2.1-1.9,3.2-4,3.2c-2.6,0-4.2-2.3-4.2-6.2
	c0-3.9,1.6-6.2,4.2-6.2c2.9,0,4.1,2.3,4.1,6.2v0.3h-7.4c0.1,3.2,1.2,5,3.2,5c1.6,0,2.6-0.8,3.1-2.6L183.1,90.2z M182.3,86.6
	c-0.1-3.1-1-4.8-3.2-4.8c-2,0-3.1,1.8-3.2,4.8H182.3z M193,93.1v-7.3c0-2.6-0.8-4-2.7-4c-1.9,0-3.2,1.7-3.2,4.2v7.1h-0.9v-10
	c0-1.3-0.4-2-0.4-2h1c0,0,0.3,1,0.3,2.2h0c0.6-1.5,1.7-2.4,3.2-2.4c2.9,0,3.6,2.2,3.6,4.9v7.3H193z M204.5,90.1
	c-0.5,2-1.7,3.2-3.7,3.2c-2.6,0-4.1-2.3-4.1-6.2c0-3.9,1.5-6.2,4.1-6.2c2,0,3.2,1.3,3.7,3.2l-0.9,0.3c-0.4-1.6-1.3-2.6-2.8-2.6
	c-2.1,0-3.2,2-3.2,5.3c0,3.4,1.1,5.3,3.2,5.3c1.5,0,2.4-1,2.8-2.6L204.5,90.1z M214.7,90.2c-0.7,2.1-1.9,3.2-4,3.2
	c-2.6,0-4.2-2.3-4.2-6.2c0-3.9,1.6-6.2,4.2-6.2c2.9,0,4.1,2.3,4.1,6.2v0.3h-7.4c0.1,3.2,1.2,5,3.2,5c1.6,0,2.6-0.8,3.1-2.6
	L214.7,90.2z M213.8,86.6c-0.1-3.1-1-4.8-3.2-4.8c-2,0-3.1,1.8-3.2,4.8H213.8z M217.8,90.5c0.7,1.3,2.2,1.9,3.7,1.9
	c1.7,0,3-0.7,3-2.5c0-3.3-7-2.1-7-6c0-1.8,1.6-3,3.6-3c1.8,0,2.8,0.6,3.8,1.9l-0.7,0.6c-0.9-1.1-1.7-1.6-3.2-1.6
	c-1.4,0-2.7,0.8-2.7,2.1c0,3,7,1.9,7,6c0,2.2-1.6,3.3-3.9,3.3c-1.7,0-3.5-0.7-4.4-2.3L217.8,90.5z M227.4,94.5
	c0.5-0.5,0.7-0.9,0.9-1.4l0,0c-0.1,0.1-0.2,0.1-0.3,0.1c-0.3,0-0.5-0.2-0.5-0.6c0-0.3,0.2-0.6,0.6-0.6c0.4,0,0.6,0.3,0.6,0.9
	c0,0.7-0.4,1.5-0.8,1.9L227.4,94.5z M244.4,93.1c0,0-0.3-0.8-0.3-1.8h0c-0.5,1.1-1.3,2.1-2.9,2.1c-2.5,0-3.9-2.3-3.9-6.2
	c0-3.9,1.3-6.2,4-6.2c1.4,0,2.3,0.9,2.9,2h0c0,0,0-1,0-1.9v-4.9h0.9v14.9c0,1.3,0.4,2,0.4,2H244.4z M244,85.9c0-2.3-0.9-4.1-2.9-4.1
	c-2.1,0-3,2-3,5.3c0,3.4,0.9,5.3,3,5.3c1.9,0,2.9-1.7,2.9-4.3V85.9z M256.1,90.2c-0.7,2.1-1.9,3.2-4,3.2c-2.6,0-4.2-2.3-4.2-6.2
	c0-3.9,1.6-6.2,4.2-6.2c2.9,0,4.1,2.3,4.1,6.2v0.3h-7.4c0.1,3.2,1.2,5,3.2,5c1.6,0,2.6-0.8,3.1-2.6L256.1,90.2z M255.3,86.6
	c-0.1-3.1-1-4.8-3.2-4.8c-2,0-3.1,1.8-3.2,4.8H255.3z M265.2,90.5c0.7,1.3,2.2,1.9,3.7,1.9c1.7,0,3-0.7,3-2.5c0-3.3-7-2.1-7-6
	c0-1.8,1.6-3,3.6-3c1.8,0,2.8,0.6,3.8,1.9l-0.7,0.6c-0.9-1.1-1.7-1.6-3.2-1.6c-1.4,0-2.7,0.8-2.7,2.1c0,3,7,1.9,7,6
	c0,2.2-1.6,3.3-3.9,3.3c-1.7,0-3.5-0.7-4.4-2.3L265.2,90.5z M283.1,90.2c-0.7,2.1-1.9,3.2-4,3.2c-2.6,0-4.2-2.3-4.2-6.2
	c0-3.9,1.6-6.2,4.2-6.2c2.9,0,4.1,2.3,4.1,6.2v0.3h-7.4c0.1,3.2,1.2,5,3.2,5c1.6,0,2.6-0.8,3.1-2.6L283.1,90.2z M282.2,86.6
	c-0.1-3.1-1-4.8-3.2-4.8c-2,0-3.1,1.8-3.2,4.8H282.2z M286,93.1v-10c0-1.3-0.4-2-0.4-2h1c0,0,0.3,1.1,0.3,2.2h0
	c0.6-1.5,1.7-2.5,3.2-2.5c0.4,0,0.7,0,1,0.1l-0.2,0.9c-0.3-0.1-0.5-0.1-0.8-0.1c-1.8,0-3.2,1.6-3.2,4.1v7.3H286z M296,93.1l-3.9-12
	h1l2.7,8.4c0.2,0.7,0.6,2.1,0.6,2.1h0c0,0,0.3-1.4,0.6-2.1l2.7-8.4h1l-3.9,12H296z M303.4,79.1c-0.3,0-0.6-0.3-0.6-0.6
	c0-0.3,0.3-0.6,0.6-0.6c0.3,0,0.6,0.3,0.6,0.6C304,78.8,303.7,79.1,303.4,79.1z M302.9,93.1v-12h0.9v12H302.9z M314.6,90.1
	c-0.5,2-1.7,3.2-3.7,3.2c-2.6,0-4.1-2.3-4.1-6.2c0-3.9,1.5-6.2,4.1-6.2c2,0,3.2,1.3,3.7,3.2l-0.9,0.3c-0.4-1.6-1.3-2.6-2.8-2.6
	c-2.1,0-3.2,2-3.2,5.3c0,3.4,1.1,5.3,3.2,5.3c1.5,0,2.4-1,2.8-2.6L314.6,90.1z M324.8,90.2c-0.7,2.1-1.9,3.2-4,3.2
	c-2.6,0-4.2-2.3-4.2-6.2c0-3.9,1.6-6.2,4.2-6.2c2.9,0,4.1,2.3,4.1,6.2v0.3h-7.4c0.1,3.2,1.2,5,3.2,5c1.6,0,2.6-0.8,3.1-2.6
	L324.8,90.2z M324,86.6c-0.1-3.1-1-4.8-3.2-4.8c-2,0-3.1,1.8-3.2,4.8H324z M327.9,90.5c0.7,1.3,2.2,1.9,3.7,1.9c1.7,0,3-0.7,3-2.5
	c0-3.3-7-2.1-7-6c0-1.8,1.6-3,3.6-3c1.8,0,2.8,0.6,3.8,1.9l-0.7,0.6c-0.9-1.1-1.7-1.6-3.2-1.6c-1.4,0-2.7,0.8-2.7,2.1c0,3,7,1.9,7,6
	c0,2.2-1.6,3.3-3.9,3.3c-1.7,0-3.5-0.7-4.4-2.3L327.9,90.5z M351.8,90.2c-0.7,2.1-1.9,3.2-4,3.2c-2.6,0-4.2-2.3-4.2-6.2
	c0-3.9,1.6-6.2,4.2-6.2c2.9,0,4.1,2.3,4.1,6.2v0.3h-7.4c0.1,3.2,1.2,5,3.2,5c1.6,0,2.6-0.8,3.1-2.6L351.8,90.2z M350.9,86.6
	c-0.1-3.1-1-4.8-3.2-4.8c-2,0-3.1,1.8-3.2,4.8H350.9z M359.9,92.6c-0.5,0.4-1.2,0.7-2.1,0.7c-1.7,0-2.6-1.2-2.6-3.1V82h-1.7v-0.9
	h1.7v-2.6h0.9v2.6h2.9V82h-2.9v8.2c0,1.4,0.6,2.2,1.7,2.2c0.5,0,1.2-0.2,1.6-0.6L359.9,92.6z M374.8,93.1c0,0-0.3-0.8-0.3-1.8h0
	c-0.5,1.1-1.3,2.1-2.9,2.1c-2.5,0-3.9-2.3-3.9-6.2c0-3.9,1.3-6.2,4-6.2c1.4,0,2.3,0.9,2.9,2h0c0,0,0-1,0-1.9v-4.9h0.9v14.9
	c0,1.3,0.4,2,0.4,2H374.8z M374.4,85.9c0-2.3-0.9-4.1-2.9-4.1c-2.1,0-3,2-3,5.3c0,3.4,0.9,5.3,3,5.3c1.9,0,2.9-1.7,2.9-4.3V85.9z
	 M386.5,90.2c-0.7,2.1-1.9,3.2-4,3.2c-2.6,0-4.2-2.3-4.2-6.2c0-3.9,1.6-6.2,4.2-6.2c2.9,0,4.1,2.3,4.1,6.2v0.3h-7.4
	c0.1,3.2,1.2,5,3.2,5c1.6,0,2.6-0.8,3.1-2.6L386.5,90.2z M385.7,86.6c-0.1-3.1-1-4.8-3.2-4.8c-2,0-3.1,1.8-3.2,4.8H385.7z
	 M395.5,97.8V83.2c0-1.3-0.4-2-0.4-2h1c0,0,0.3,0.9,0.3,1.8h0c0.5-1.1,1.3-2.1,2.9-2.1c2.5,0,3.9,2.3,3.9,6.3c0,3.8-1.3,6.2-3.9,6.2
	c-1.5,0-2.4-0.8-3-2.1h0c0,0,0,0.9,0,1.9v4.6H395.5z M396.4,88.4c0,2.3,0.9,4.1,2.9,4.1c2.1,0,3-2,3-5.3c0-3.3-0.9-5.3-3-5.3
	c-1.9,0-2.9,1.6-2.9,4.1V88.4z M406.3,93.1v-10c0-1.3-0.4-2-0.4-2h1c0,0,0.3,1.1,0.3,2.2h0c0.6-1.5,1.7-2.5,3.2-2.5
	c0.4,0,0.7,0,1,0.1l-0.2,0.9c-0.3-0.1-0.5-0.1-0.8-0.1c-1.8,0-3.2,1.6-3.2,4.1v7.3H406.3z M412.9,87.1c0-3.9,1.5-6.2,4.1-6.2
	c2.6,0,4.1,2.3,4.1,6.2c0,3.9-1.5,6.2-4.1,6.2C414.4,93.4,412.9,91,412.9,87.1z M420.2,87.1c0-3.4-1.1-5.3-3.2-5.3
	c-2.1,0-3.2,2-3.2,5.3c0,3.4,1.1,5.3,3.2,5.3C419.2,92.5,420.2,90.5,420.2,87.1z M430.8,93.1c0,0-0.3-0.8-0.3-1.8h0
	c-0.5,1.1-1.3,2.1-2.9,2.1c-2.5,0-3.9-2.3-3.9-6.2c0-3.9,1.3-6.2,4-6.2c1.4,0,2.3,0.9,2.9,2h0c0,0,0-1,0-1.9v-4.9h0.9v14.9
	c0,1.3,0.4,2,0.4,2H430.8z M430.5,85.9c0-2.3-0.9-4.1-2.9-4.1c-2.1,0-3,2-3,5.3c0,3.4,0.9,5.3,3,5.3c1.9,0,2.9-1.7,2.9-4.3V85.9z
	 M441.9,93.1c0,0-0.3-1.1-0.3-2.2h0c-0.6,1.5-1.8,2.4-3.2,2.4c-2.9,0-3.6-2.2-3.6-4.9v-7.3h0.9v7.3c0,2.6,0.8,4,2.7,4
	c1.8,0,3.2-1.6,3.2-4v-7.3h0.9v10c0,1.3,0.4,2,0.4,2H441.9z M446.4,79.1c-0.3,0-0.6-0.3-0.6-0.6c0-0.3,0.3-0.6,0.6-0.6
	c0.3,0,0.6,0.3,0.6,0.6C447,78.8,446.7,79.1,446.4,79.1z M445.9,93.1v-12h0.9v12H445.9z M455.5,92.6c-0.5,0.4-1.2,0.7-2.1,0.7
	c-1.7,0-2.6-1.2-2.6-3.1V82h-1.7v-0.9h1.7v-2.6h0.9v2.6h2.9V82h-2.9v8.2c0,1.4,0.6,2.2,1.7,2.2c0.5,0,1.2-0.2,1.6-0.6L455.5,92.6z
	 M457.8,90.5c0.7,1.3,2.2,1.9,3.7,1.9c1.7,0,3-0.7,3-2.5c0-3.3-7-2.1-7-6c0-1.8,1.6-3,3.6-3c1.8,0,2.8,0.6,3.8,1.9l-0.7,0.6
	c-0.9-1.1-1.7-1.6-3.2-1.6c-1.4,0-2.7,0.8-2.7,2.1c0,3,7,1.9,7,6c0,2.2-1.6,3.3-3.9,3.3c-1.7,0-3.5-0.7-4.4-2.3L457.8,90.5z"/>
</svg>
