<?xml version="1.0" encoding="utf-8"?>
<!-- Generator: Adobe Illustrator 18.0.0, SVG Export Plug-In . SVG Version: 6.00 Build 0)  -->
<!DOCTYPE svg PUBLIC "-//W3C//DTD SVG 1.1//EN" "http://www.w3.org/Graphics/SVG/1.1/DTD/svg11.dtd">
<svg version="1.1" id="Sprites" xmlns="http://www.w3.org/2000/svg" xmlns:xlink="http://www.w3.org/1999/xlink" x="0px" y="0px"
	 width="140px" height="70px" viewBox="0 0 140 70" enable-background="new 0 0 140 70" xml:space="preserve">
<g>
	<polygon points="9.6,9.6 9.6,23.2 46.8,60.4 60.4,60.4 	"/>
	<path fill="#FBB03B" d="M12,32.8h20.8L9.6,9.6h13.6l27.3,27.3c2,2,0.6,5.5-2.3,5.5l-29,0V58c0,1.3-1.1,2.4-2.4,2.4H12
		c-1.3,0-2.4-1.1-2.4-2.4V35.2C9.6,33.8,10.7,32.8,12,32.8z"/>
</g>
<g>
	<polygon fill="#FFFFFF" points="79.6,9.6 79.6,23.2 116.8,60.4 130.4,60.4 	"/>
	<path fill="#FBB03B" d="M82,32.8h20.8L79.6,9.6h13.6l27.3,27.3c2,2,0.6,5.5-2.3,5.5l-29,0V58c0,1.3-1.1,2.4-2.4,2.4H82
		c-1.3,0-2.4-1.1-2.4-2.4V35.2C79.6,33.8,80.7,32.8,82,32.8z"/>
</g>
</svg>
