<?xml version="1.0" encoding="utf-8"?>
<!-- Generator: Adobe Illustrator 18.0.0, SVG Export Plug-In . SVG Version: 6.00 Build 0)  -->
<!DOCTYPE svg PUBLIC "-//W3C//DTD SVG 1.1//EN" "http://www.w3.org/Graphics/SVG/1.1/DTD/svg11.dtd">
<svg version="1.1" id="Sprites" xmlns="http://www.w3.org/2000/svg" xmlns:xlink="http://www.w3.org/1999/xlink" x="0px" y="0px"
	 width="180px" height="60px" viewBox="0 0 180 60" enable-background="new 0 0 180 60" xml:space="preserve">
<polygon id="X_1_" fill="#FFFFFF" points="164,17.9 162.1,16 150,28.2 137.9,16 136,17.9 148.2,30 136,42.1 137.9,44 150,31.8 
	162.1,44 164,42.1 151.8,30 "/>
<g id="_x3E__3_">
	<path fill="#FFFFFF" d="M19,32.7l0-5.2L41,10l-2.1,6.7l-12,9.6c-2.5,2-4.8,3.6-5.2,3.8l0,0.2c0,0,2.3,1.5,5.2,3.9l12,9.6l2.1,6.7
		L19,32.7z"/>
</g>
<g id="_x3E__2_">
	<path fill="#FFFFFF" d="M79,50.3l2.1-6.7l12-9.6c2.9-2.3,5.2-3.9,5.2-3.9l0-0.2c-0.4-0.2-2.6-1.7-5.2-3.8l-12-9.6L79,10L101,27.6
		l0,5.2L79,50.3z"/>
</g>
</svg>
