<?xml version="1.0" encoding="utf-8"?>
<!DOCTYPE svg PUBLIC "-//W3C//DTD SVG 1.1//EN" "http://www.w3.org/Graphics/SVG/1.1/DTD/svg11.dtd">
<svg version="1.1" xmlns="http://www.w3.org/2000/svg" xmlns:xlink="http://www.w3.org/1999/xlink" x="0px" y="0px"
	 viewBox="0 0 64 32" enable-background="new 0 0 64 32" xml:space="preserve">
<g id="Sprites">
				<polygon fill="#B3B3B3" points="42.3,20.2 48,15.7 42.3,11.1 46.4,5.4 56.8,13.7 56.8,17.6 46.4,25.9 				"/>
				<path d="M46.8,8.3l8,6.4l0,1.9l-8,6.4L45,20.6l4.4-3.5c0.9-0.7,1.7-1.3,1.9-1.4l0-0.1c0,0-0.9-0.6-1.9-1.4L45,10.8L46.8,8.3
					 M46,2.6L43.6,6l-1.8,2.4l-2.3,3.1l3,2.4l2.2,1.8l-2.2,1.8l-3,2.4l2.3,3.1l1.8,2.4l2.5,3.4l3.3-2.6l8-6.4l1.5-1.2l0-1.9l0-1.9
					l0-1.9l-1.5-1.2l-8-6.4L46,2.6L46,2.6z"/>

	<g>
					<polygon fill="#B3B3B3" points="10.3,20.2 16,15.7 10.3,11.1 14.4,5.4 24.8,13.7 24.8,17.6 14.4,25.9 					"/>
				</g>
				<g>
					<path fill="#FFFFFF" d="M14.8,8.3l8,6.4l0,1.9l-8,6.4L13,20.6l4.4-3.5c0.9-0.7,1.7-1.3,1.9-1.4l0-0.1c0,0-0.9-0.6-1.9-1.4
						L13,10.8L14.8,8.3 M14,2.6L11.6,6L9.8,8.4l-2.3,3.1l3,2.4l2.2,1.8l-2.2,1.8l-3,2.4l2.3,3.1l1.8,2.4l2.5,3.4l3.3-2.6l8-6.4
						l1.5-1.2l0-1.9l0-1.9l0-1.9l-1.5-1.2l-8-6.4L14,2.6L14,2.6z"/>
	</g>
</g>
</svg>
